<svg width="478" height="1044" viewBox="0 0 478 1044" fill="none" xmlns="http://www.w3.org/2000/svg">
<mask id="path-1-inside-1_156_113" fill="white">
<path fill-rule="evenodd" clip-rule="evenodd" d="M1.16379 308.255L80.445 357.421L80.4469 357.978L396.234 356.876L396.232 356.314L475.161 306.6L395.887 257.438L395.885 256.877L394.987 256.88L80.9888 257.976L80.0979 257.979L80.0998 258.536L1.16379 308.255Z"/>
</mask>
<path fill-rule="evenodd" clip-rule="evenodd" d="M1.16379 308.255L80.445 357.421L80.4469 357.978L396.234 356.876L396.232 356.314L475.161 306.6L395.887 257.438L395.885 256.877L394.987 256.88L80.9888 257.976L80.0979 257.979L80.0998 258.536L1.16379 308.255Z" fill="#4C0406"/>
<path d="M80.445 357.421L95.4449 357.369L95.4159 349.055L88.3505 344.674L80.445 357.421ZM1.16379 308.255L-6.83053 295.563L-27.138 308.354L-6.74173 321.002L1.16379 308.255ZM80.4469 357.978L65.447 358.031L65.4994 373.031L80.4993 372.978L80.4469 357.978ZM396.234 356.876L396.287 371.876L411.287 371.824L411.234 356.824L396.234 356.876ZM396.232 356.314L388.238 343.622L381.204 348.053L381.233 356.367L396.232 356.314ZM475.161 306.6L483.155 319.292L503.463 306.501L483.066 293.853L475.161 306.6ZM395.887 257.438L380.887 257.491L380.916 265.804L387.982 270.186L395.887 257.438ZM395.885 256.877L410.885 256.824L410.833 241.824L395.833 241.877L395.885 256.877ZM80.9888 257.976L80.9364 242.976L80.9888 257.976ZM80.0979 257.979L80.0455 242.979L65.0456 243.032L65.098 258.031L80.0979 257.979ZM80.0998 258.536L88.0941 271.228L95.1287 266.797L95.0997 258.484L80.0998 258.536ZM88.3505 344.674L9.06931 295.507L-6.74173 321.002L72.5395 370.169L88.3505 344.674ZM95.4468 357.926L95.4449 357.369L65.4451 357.474L65.447 358.031L95.4468 357.926ZM396.182 341.876L80.3946 342.979L80.4993 372.978L396.287 371.876L396.182 341.876ZM381.233 356.367L381.235 356.928L411.234 356.824L411.232 356.262L381.233 356.367ZM404.227 369.006L483.155 319.292L467.167 293.908L388.238 343.622L404.227 369.006ZM483.066 293.853L403.793 244.691L387.982 270.186L467.255 319.348L483.066 293.853ZM380.885 256.929L380.887 257.491L410.887 257.386L410.885 256.824L380.885 256.929ZM395.039 271.88L395.938 271.877L395.833 241.877L394.934 241.88L395.039 271.88ZM81.0411 272.976L395.039 271.88L394.934 241.88L80.9364 242.976L81.0411 272.976ZM80.1502 272.979L81.0411 272.976L80.9364 242.976L80.0455 242.979L80.1502 272.979ZM95.0997 258.484L95.0978 257.927L65.098 258.031L65.0999 258.588L95.0997 258.484ZM9.15811 320.947L88.0941 271.228L72.1055 245.844L-6.83053 295.563L9.15811 320.947Z" fill="#B82025" mask="url(#path-1-inside-1_156_113)"/>
<path d="M47.9328 27.2902C46.6313 18.55 52.6615 10.4096 61.4017 9.10802C70.1418 7.80647 78.2823 13.8367 79.5838 22.5768L153.966 522.069L122.315 526.782L47.9328 27.2902Z" fill="#D83A40"/>
<path d="M103.81 54.7759C102.681 46.0117 108.87 37.9918 117.635 36.8629C126.399 35.734 134.419 41.9235 135.548 50.6877L200.065 551.549L168.327 555.638L103.81 54.7759Z" fill="#D83A40"/>
<path d="M160.93 19.2715C160.46 10.4475 167.232 2.91306 176.056 2.44289C184.88 1.97272 192.415 8.74487 192.885 17.5689L219.755 521.854L187.8 523.556L160.93 19.2715Z" fill="#D83A40"/>
<path d="M213.112 38.6474C212.796 29.8165 219.699 22.4014 228.53 22.0853C237.361 21.7692 244.776 28.6718 245.092 37.5027L263.157 542.18L231.177 543.324L213.112 38.6474Z" fill="#D83A40"/>
<path d="M278.767 26.2265C279.037 17.394 286.416 10.4527 295.248 10.7225C304.081 10.9924 311.022 18.3713 310.752 27.2037L295.33 531.968L263.345 530.991L278.767 26.2265Z" fill="#D83A40"/>
<path d="M334.077 65.8821C335.312 57.1321 343.406 51.0396 352.156 52.274C360.906 53.5084 366.998 61.6023 365.764 70.3522L295.219 570.401L263.533 565.931L334.077 65.8821Z" fill="#D83A40"/>
<path d="M386.71 35.8409C387.511 27.0407 395.294 20.556 404.094 21.3569C412.894 22.1578 419.379 29.941 418.578 38.7412L372.809 541.663L340.941 538.763L386.71 35.8409Z" fill="#D83A40"/>
<mask id="path-10-inside-2_156_113" fill="white">
<path d="M80.2852 342.979L396.283 341.876L398.727 1041.87L82.7286 1042.97L80.2852 342.979Z"/>
</mask>
<path d="M80.2852 342.979L396.283 341.876L398.727 1041.87L82.7286 1042.97L80.2852 342.979Z" fill="#D83A40"/>
<path d="M80.2852 342.979L80.2328 327.979L65.2329 328.031L65.2852 343.031L80.2852 342.979ZM396.283 341.876L411.283 341.823L411.231 326.824L396.231 326.876L396.283 341.876ZM80.3375 357.979L396.336 356.876L396.231 326.876L80.2328 327.979L80.3375 357.979ZM381.283 341.928L383.727 1041.92L413.727 1041.82L411.283 341.823L381.283 341.928ZM97.7285 1042.92L95.2851 342.927L65.2852 343.031L67.7287 1043.03L97.7285 1042.92Z" fill="#B82025" mask="url(#path-10-inside-2_156_113)"/>
<path d="M72.8504 361.507L75.2031 1035.5L11.2035 1035.72L8.71124 321.756L72.8504 361.507Z" fill="#A81319" stroke="#A81319" stroke-width="15"/>
<path d="M403.848 360.352L406.201 1034.35L470.201 1034.12L467.708 320.154L403.848 360.352Z" fill="#A81319" stroke="#A81319" stroke-width="15"/>
<path d="M132.115 495.832C135.662 495.082 139.007 494.886 142.15 495.244C145.294 495.602 148.011 496.21 150.302 497.067L152.977 509.629C150.489 508.749 147.868 507.994 145.114 507.362C142.359 506.73 139.392 506.75 136.212 507.422C134.622 507.758 133.085 508.339 131.599 509.164C130.174 509.976 129.046 510.981 128.215 512.179C127.445 513.363 127.222 514.72 127.548 516.248C127.977 518.265 129.189 519.606 131.184 520.271C133.178 520.935 135.57 521.516 138.36 522.012L146.545 523.541C151.216 524.47 154.84 526.036 157.418 528.238C159.995 530.44 161.642 533.222 162.357 536.585C163.138 540.252 162.758 543.718 161.216 546.983C159.723 550.173 157.372 552.937 154.164 555.276C151.016 557.602 147.303 559.217 143.022 560.122C139.414 560.884 135.829 561.003 132.267 560.478C128.704 559.953 125.512 559.063 122.688 557.807L120.014 545.245C123.121 546.632 126.438 547.656 129.965 548.316C133.493 548.976 137.091 548.919 140.76 548.143C143.328 547.601 145.425 546.646 147.051 545.281C148.665 543.854 149.257 542.132 148.827 540.114C148.489 538.525 147.451 537.403 145.714 536.748C144.025 536.019 142.223 535.505 140.306 535.207L130.078 533.536C124.918 532.71 121.169 531.011 118.832 528.438C116.544 525.792 115.015 522.665 114.248 519.059C113.454 515.33 113.773 511.877 115.205 508.699C116.686 505.448 118.914 502.709 121.891 500.483C124.855 498.196 128.263 496.646 132.115 495.832Z" fill="white"/>
<path d="M184.009 479.554C186.246 479.309 188.261 479.906 190.054 481.344C191.841 482.721 192.854 484.496 193.094 486.67C193.327 488.782 192.724 490.735 191.287 492.527C189.85 494.319 188.013 495.337 185.776 495.582C183.54 495.827 181.525 495.23 179.731 493.792C178 492.346 177.018 490.568 176.785 488.455C176.545 486.281 177.116 484.332 178.498 482.609C179.935 480.817 181.772 479.799 184.009 479.554ZM193.608 503.307L198.797 550.365L186.961 551.661L182.882 514.666L175.333 515.493L174.223 505.429L193.608 503.307Z" fill="white"/>
<path d="M236.737 499.926C239.3 499.923 241.894 500.513 244.521 501.697C247.147 502.881 249.337 504.471 251.09 506.469L251.083 501.125L262.989 501.109L263.053 548.452L251.147 548.469L251.136 540.5C249.765 543.064 247.768 545.286 245.145 547.165C242.523 548.981 239.462 549.891 235.962 549.896C232.149 549.901 228.617 548.937 225.364 547.004C222.174 545.071 219.607 542.262 217.665 538.578C215.722 534.893 214.747 530.425 214.74 525.175C214.733 519.925 215.696 515.424 217.628 511.671C219.623 507.919 222.275 505.04 225.585 503.035C228.957 500.968 232.675 499.932 236.737 499.926ZM239.191 511.548C236.691 511.551 234.535 512.21 232.724 513.525C230.976 514.778 229.603 516.436 228.606 518.5C227.609 520.564 227.112 522.783 227.115 525.158C227.12 528.721 228.187 531.751 230.315 534.248C232.506 536.745 235.383 537.991 238.945 537.986C241.07 537.983 243.038 537.418 244.849 536.29C246.723 535.162 248.221 533.598 249.343 531.596C250.528 529.532 251.118 527.063 251.114 524.188L251.105 517.438C249.415 515.627 247.569 514.192 245.568 513.133C243.629 512.073 241.503 511.545 239.191 511.548Z" fill="white"/>
<path d="M301.527 504.064L300.538 509.982C302.255 508.43 304.224 507.077 306.444 505.925C308.726 504.783 311.439 504.472 314.584 504.994C317.852 505.536 320.683 506.797 323.076 508.778C325.48 510.697 327.17 513.289 328.145 516.555C330.417 514.335 332.931 512.566 335.685 511.249C338.45 509.87 341.467 509.451 344.735 509.993C347.879 510.515 350.623 511.73 352.965 513.639C355.318 515.486 357.028 517.955 358.096 521.046C359.225 524.148 359.434 527.825 358.723 532.079L353.934 560.744L342.188 558.796L346.622 531.688C347.148 528.544 346.707 526.064 345.3 524.246C343.954 522.439 341.956 521.316 339.304 520.876C337.27 520.539 335.404 520.895 333.708 521.944C332.022 522.932 330.388 524.181 328.804 525.693L323.783 555.745L312.037 553.797L316.472 526.689C316.997 523.545 316.556 521.064 315.149 519.247C313.803 517.44 311.836 516.322 309.246 515.892C307.273 515.565 305.413 515.89 303.665 516.868C301.928 517.783 300.309 518.94 298.808 520.339L293.724 550.761L281.979 548.813L289.781 502.117L301.527 504.064Z" fill="white"/>
<path d="M190.462 587.119C193.441 586.619 196.232 586.573 198.836 586.981C201.439 587.39 203.679 587.991 205.555 588.785L207.325 599.341C205.287 598.521 203.133 597.8 200.863 597.177C198.593 596.555 196.123 596.467 193.452 596.915C192.116 597.139 190.815 597.569 189.549 598.204C188.333 598.83 187.358 599.627 186.623 600.596C185.939 601.555 185.704 602.677 185.92 603.961C186.204 605.656 187.164 606.816 188.8 607.439C190.437 608.062 192.406 608.63 194.71 609.141L201.468 610.701C205.322 611.639 208.282 613.07 210.347 614.994C212.413 616.919 213.682 619.294 214.156 622.119C214.673 625.201 214.231 628.074 212.83 630.738C211.471 633.343 209.414 635.562 206.659 637.398C203.955 639.224 200.805 640.439 197.209 641.042C194.179 641.551 191.191 641.524 188.244 640.962C185.298 640.4 182.673 639.546 180.369 638.401L178.598 627.845C181.134 629.11 183.858 630.079 186.77 630.752C189.682 631.426 192.679 631.504 195.761 630.987C197.918 630.625 199.698 629.904 201.101 628.824C202.496 627.692 203.051 626.279 202.767 624.584C202.542 623.248 201.719 622.277 200.297 621.671C198.918 621.004 197.436 620.513 195.852 620.198L187.399 618.448C183.134 617.579 180.076 616.032 178.224 613.808C176.415 611.523 175.256 608.866 174.748 605.835C174.222 602.702 174.613 599.837 175.92 597.242C177.271 594.586 179.225 592.383 181.783 590.634C184.333 588.833 187.226 587.661 190.462 587.119Z" fill="white"/>
<path d="M237.691 576.481C239.566 576.467 241.185 577.132 242.549 578.476C243.913 579.768 244.602 581.325 244.616 583.148C244.629 584.919 243.963 586.486 242.619 587.851C241.275 589.215 239.666 589.904 237.791 589.918C235.916 589.932 234.296 589.267 232.932 587.923C231.62 586.579 230.957 585.021 230.944 583.25C230.93 581.427 231.57 579.86 232.862 578.548C234.206 577.184 235.816 576.495 237.691 576.481ZM243.625 596.984L243.919 636.436L233.998 636.51L233.766 605.495L227.438 605.543L227.375 597.105L243.625 596.984Z" fill="white"/>
<path d="M283.947 599.566C287.755 600.162 290.894 601.497 293.363 603.57C295.884 605.652 297.636 608.272 298.618 611.43C299.659 614.546 299.881 618.007 299.286 621.815L298.633 625.983L270.383 621.562C270.487 624.267 271.444 626.578 273.252 628.495C275.061 630.412 277.457 631.604 280.442 632.072C283.272 632.514 285.933 632.351 288.426 631.581C290.919 630.812 292.953 629.944 294.527 628.978L293.025 638.074C291.62 638.961 289.595 639.777 286.948 640.523C284.36 641.225 281.6 641.347 278.667 640.887C274.808 640.284 271.42 638.857 268.503 636.608C265.638 634.368 263.491 631.58 262.062 628.246C260.685 624.92 260.302 621.302 260.914 617.391C261.51 613.584 262.903 610.243 265.092 607.37C267.282 604.497 270.017 602.342 273.3 600.905C276.59 599.417 280.14 598.971 283.947 599.566ZM282.375 608.098C279.957 607.719 277.807 608.147 275.927 609.382C274.047 610.616 272.601 612.446 271.589 614.871L290.268 617.794C290.497 614.983 289.79 612.764 288.147 611.136C286.511 609.457 284.588 608.444 282.375 608.098Z" fill="white"/>
<path d="M164.429 417.475L165.526 421.468L160.592 422.824L164.724 437.852L159.94 439.167L155.809 424.139L152.909 424.936L151.811 420.944L154.711 420.147L154.245 418.452C153.845 416.995 153.804 415.67 154.124 414.474C154.462 413.247 155.057 412.219 155.91 411.391C156.762 410.562 157.791 409.982 158.996 409.651C159.8 409.43 160.527 409.325 161.178 409.335C161.829 409.345 162.422 409.438 162.957 409.615L164.054 413.608C163.088 413.333 162.068 413.357 160.995 413.679C160.249 413.911 159.677 414.339 159.281 414.961C158.878 415.558 158.822 416.383 159.112 417.438L159.495 418.832L164.429 417.475Z" fill="white"/>
<path d="M183.789 412.768C185.683 412.415 187.497 412.554 189.231 413.184C190.959 413.789 192.443 414.783 193.681 416.168C194.941 417.523 195.749 419.16 196.108 421.08C196.466 423 196.302 424.819 195.615 426.536C194.955 428.249 193.929 429.712 192.54 430.925C191.145 432.112 189.501 432.882 187.606 433.236C185.738 433.584 183.926 433.459 182.172 432.859C180.438 432.228 178.955 431.234 177.721 429.874C176.487 428.515 175.691 426.875 175.333 424.955C174.975 423.035 175.126 421.219 175.787 419.506C176.443 417.768 177.468 416.305 178.862 415.118C180.278 413.9 181.92 413.117 183.789 412.768ZM184.67 417.492C183.748 417.664 182.931 418.041 182.219 418.624C181.506 419.208 180.983 419.954 180.65 420.864C180.342 421.769 180.297 422.811 180.517 423.988C180.737 425.166 181.153 426.121 181.767 426.855C182.406 427.583 183.163 428.091 184.038 428.378C184.908 428.64 185.804 428.684 186.725 428.513C187.647 428.341 188.466 427.976 189.184 427.418C189.896 426.835 190.419 426.088 190.753 425.178C191.086 424.269 191.143 423.225 190.924 422.047C190.704 420.87 190.274 419.917 189.635 419.188C188.996 418.46 188.239 417.952 187.364 417.665C186.489 417.377 185.591 417.32 184.67 417.492Z" fill="white"/>
<path d="M218.662 414.195C217.786 413.811 216.895 413.664 215.988 413.754C214.848 413.867 213.939 414.336 213.262 415.162C212.583 415.963 212.012 416.935 211.55 418.08L212.637 429.042L207.701 429.532L205.753 409.901L210.69 409.412L211.056 413.104C211.614 411.871 212.308 410.821 213.138 409.954C213.994 409.084 215.005 408.591 216.171 408.475C216.871 408.406 217.517 408.46 218.11 408.636L218.662 414.195Z" fill="white"/>
<path d="M235.815 402.132L235.958 407.872L241.425 407.736L241.528 411.875L236.061 412.011L236.273 420.524C236.295 421.41 236.508 422.108 236.911 422.619C237.34 423.103 237.958 423.335 238.765 423.315C239.468 423.297 240.065 423.204 240.555 423.036C241.072 422.867 241.548 422.633 241.984 422.336L242.082 426.28C241.6 426.787 240.985 427.219 240.239 427.576C239.518 427.933 238.598 428.125 237.479 428.153C235.708 428.197 234.25 427.673 233.102 426.582C231.98 425.463 231.395 423.915 231.346 421.936L231.102 412.135L227.548 412.223L227.485 409.685C228.724 409.211 229.848 408.35 230.859 407.1C231.896 405.85 232.702 404.215 233.277 402.195L235.815 402.132Z" fill="white"/>
<path d="M270.515 408.904L269.802 420.64C269.696 422.381 269.215 423.865 268.358 425.092C267.502 426.292 266.378 427.189 264.985 427.783C263.619 428.378 262.09 428.625 260.401 428.522C258.685 428.418 257.172 427.987 255.861 427.229C254.577 426.473 253.582 425.447 252.878 424.152C252.202 422.832 251.917 421.302 252.022 419.56L252.735 407.824L257.726 408.127L257.107 418.969C257.013 420.502 257.295 421.668 257.951 422.464C258.607 423.26 259.52 423.694 260.69 423.765C261.833 423.835 262.779 423.514 263.527 422.803C264.3 422.093 264.734 420.971 264.827 419.438L265.485 408.598L270.515 408.904Z" fill="white"/>
<path d="M288.39 411.063L287.953 413.841C288.67 413.137 289.585 412.516 290.697 411.979C291.836 411.447 293.061 411.284 294.373 411.49C296.354 411.802 297.908 412.732 299.035 414.28C300.162 415.828 300.515 417.94 300.094 420.615L298.212 432.577L293.312 431.806L295.052 420.494C295.258 419.182 295.091 418.154 294.549 417.41C294.032 416.669 293.221 416.212 292.115 416.038C291.24 415.9 290.373 416.054 289.512 416.498C288.677 416.947 287.928 417.515 287.267 418.202L285.324 430.55L280.423 429.779L283.489 410.292L288.39 411.063Z" fill="white"/>
<path d="M321.945 417.267C323.812 417.743 325.311 418.556 326.443 419.704C327.599 420.859 328.348 422.246 328.687 423.865C329.058 425.464 329.006 427.198 328.529 429.065L328.008 431.109L314.155 427.575C314.079 428.926 314.446 430.122 315.255 431.161C316.065 432.201 317.202 432.908 318.665 433.281C320.053 433.635 321.386 433.68 322.663 433.414C323.94 433.149 324.993 432.813 325.823 432.406L324.645 436.863C323.905 437.238 322.858 437.549 321.505 437.795C320.184 438.022 318.804 437.953 317.366 437.586C315.473 437.103 313.854 436.233 312.509 434.976C311.188 433.725 310.251 432.236 309.697 430.509C309.169 428.789 309.149 426.97 309.638 425.052C310.115 423.185 310.966 421.588 312.191 420.261C313.416 418.934 314.88 417.991 316.582 417.43C318.29 416.845 320.078 416.79 321.945 417.267ZM320.759 421.439C319.573 421.136 318.483 421.248 317.489 421.774C316.495 422.3 315.689 423.142 315.071 424.301L324.23 426.638C324.477 425.25 324.23 424.112 323.489 423.224C322.754 422.311 321.844 421.716 320.759 421.439Z" fill="white"/>
</svg>
