<svg width="474" height="1472" viewBox="0 0 474 1472" fill="none" xmlns="http://www.w3.org/2000/svg">
<mask id="path-1-inside-1_165_1075" fill="white">
<path fill-rule="evenodd" clip-rule="evenodd" d="M0 736.982L79.1091 786.425V786.982H394.899V786.421L474 736.982L394.899 687.544V686.982H394H80H79.1091V687.539L0 736.982Z"/>
</mask>
<path fill-rule="evenodd" clip-rule="evenodd" d="M0 736.982L79.1091 786.425V786.982H394.899V786.421L474 736.982L394.899 687.544V686.982H394H80H79.1091V687.539L0 736.982Z" fill="#4C0406"/>
<path d="M79.1091 786.425H94.1091V778.112L87.0591 773.705L79.1091 786.425ZM0 736.982L-7.94997 724.262L-28.302 736.982L-7.94997 749.702L0 736.982ZM79.1091 786.982H64.1091V801.982H79.1091V786.982ZM394.899 786.982V801.982H409.899V786.982H394.899ZM394.899 786.421L386.949 773.701L379.899 778.107V786.421H394.899ZM474 736.982L481.95 749.702L502.302 736.982L481.95 724.262L474 736.982ZM394.899 687.544H379.899V695.858L386.949 700.264L394.899 687.544ZM394.899 686.982H409.899V671.982H394.899V686.982ZM79.1091 686.982V671.982H64.1091V686.982H79.1091ZM79.1091 687.539L87.0591 700.259L94.1091 695.853V687.539H79.1091ZM87.0591 773.705L7.94997 724.262L-7.94997 749.702L71.1591 799.145L87.0591 773.705ZM94.1091 786.982V786.425H64.1091V786.982H94.1091ZM394.899 771.982H79.1091V801.982H394.899V771.982ZM379.899 786.421V786.982H409.899V786.421H379.899ZM402.849 799.141L481.95 749.702L466.05 724.262L386.949 773.701L402.849 799.141ZM481.95 724.262L402.849 674.824L386.949 700.264L466.05 749.702L481.95 724.262ZM379.899 686.982V687.544H409.899V686.982H379.899ZM394 701.982H394.899V671.982H394V701.982ZM80 701.982H394V671.982H80V701.982ZM79.1091 701.982H80V671.982H79.1091V701.982ZM94.1091 687.539V686.982H64.1091V687.539H94.1091ZM7.94997 749.702L87.0591 700.259L71.1591 674.819L-7.94997 724.262L7.94997 749.702Z" fill="#B82025" mask="url(#path-1-inside-1_165_1075)"/>
<path d="M48.574 435.006C47.3331 426.257 53.4196 418.159 62.1686 416.918V416.918C70.9176 415.677 79.016 421.764 80.2569 430.513L151.175 930.508L119.492 935.002L48.574 435.006Z" fill="#D83A40"/>
<path d="M104.96 462.781C103.878 454.011 110.109 446.024 118.879 444.942V444.942C127.65 443.859 135.637 450.091 136.719 458.861L198.581 960.058L166.822 963.978L104.96 462.781Z" fill="#D83A40"/>
<path d="M158.794 426.551C158.356 417.725 165.155 410.215 173.98 409.776V409.776C182.806 409.338 190.316 416.137 190.755 424.962L215.826 929.34L183.865 930.928L158.794 426.551Z" fill="#D83A40"/>
<path d="M207.853 17.5439C207.421 8.71787 214.226 1.21306 223.052 0.781392V0.781392C231.878 0.349728 239.383 7.15469 239.815 15.9807L264.484 520.378L232.522 521.941L207.853 17.5439Z" fill="#D83A40"/>
<path d="M277.097 430.976C277.344 422.143 284.705 415.182 293.538 415.429V415.429C302.371 415.676 309.332 423.036 309.085 431.869L294.988 936.673L263 935.779L277.097 430.976Z" fill="#D83A40"/>
<path d="M336.195 476.813C337.475 468.07 345.601 462.021 354.345 463.301V463.301C363.088 464.582 369.137 472.708 367.857 481.452L294.662 981.119L263 976.481L336.195 476.813Z" fill="#D83A40"/>
<path d="M385.468 444.912C386.298 436.114 394.103 429.656 402.901 430.486V430.486C411.698 431.317 418.157 439.122 417.326 447.919L369.858 950.684L338 947.676L385.468 444.912Z" fill="#D83A40"/>
<mask id="path-10-inside-2_165_1075" fill="white">
<path d="M79 771.982H395V1471.98H79V771.982Z"/>
</mask>
<path d="M79 771.982H395V1471.98H79V771.982Z" fill="#D83A40"/>
<path d="M79 771.982V756.982H64V771.982H79ZM395 771.982H410V756.982H395V771.982ZM79 786.982H395V756.982H79V786.982ZM380 771.982V1471.98H410V771.982H380ZM94 1471.98V771.982H64V1471.98H94Z" fill="#B82025" mask="url(#path-10-inside-2_165_1075)"/>
<path d="M71.5 790.484V1464.48H7.5V750.51L71.5 790.484Z" fill="#A81319" stroke="#A81319" stroke-width="15"/>
<path d="M402.5 790.484V1464.48H466.5V750.51L402.5 790.484Z" fill="#A81319" stroke="#A81319" stroke-width="15"/>
<path d="M130.296 925.015C133.845 924.278 137.191 924.094 140.333 924.463C143.475 924.831 146.19 925.448 148.478 926.314L151.109 938.885C148.624 937.997 146.006 937.232 143.254 936.591C140.501 935.95 137.534 935.959 134.352 936.62C132.761 936.95 131.221 937.526 129.733 938.345C128.305 939.152 127.174 940.153 126.338 941.348C125.564 942.53 125.337 943.886 125.657 945.416C126.079 947.434 127.286 948.779 129.279 949.451C131.271 950.122 133.661 950.711 136.449 951.217L144.628 952.774C149.296 953.72 152.915 955.298 155.485 957.51C158.054 959.721 159.691 962.509 160.395 965.873C161.163 969.544 160.771 973.008 159.218 976.267C157.713 979.452 155.353 982.209 152.136 984.536C148.981 986.851 145.262 988.453 140.978 989.343C137.367 990.093 133.782 990.199 130.221 989.662C126.661 989.124 123.471 988.223 120.652 986.957L118.022 974.386C121.124 975.784 124.437 976.819 127.962 977.492C131.487 978.164 135.086 978.119 138.757 977.357C141.327 976.823 143.428 975.876 145.059 974.516C146.677 973.095 147.275 971.375 146.853 969.356C146.52 967.765 145.486 966.639 143.752 965.978C142.065 965.243 140.264 964.724 138.349 964.419L128.126 962.712C122.969 961.868 119.227 960.156 116.899 957.575C114.619 954.921 113.102 951.789 112.347 948.18C111.566 944.448 111.897 940.996 113.341 937.824C114.833 934.578 117.071 931.847 120.055 929.631C123.027 927.354 126.44 925.816 130.296 925.015Z" fill="white"/>
<path d="M182.246 908.919C184.483 908.682 186.496 909.285 188.285 910.73C190.067 912.113 191.074 913.891 191.306 916.067C191.531 918.18 190.922 920.13 189.479 921.917C188.035 923.704 186.195 924.716 183.957 924.953C181.72 925.19 179.707 924.586 177.918 923.141C176.192 921.69 175.216 919.908 174.991 917.795C174.759 915.62 175.337 913.673 176.725 911.955C178.168 910.168 180.009 909.156 182.246 908.919ZM191.762 932.705L196.786 979.781L184.946 981.035L180.996 944.027L173.445 944.827L172.37 934.759L191.762 932.705Z" fill="white"/>
<path d="M234.902 929.475C237.465 929.48 240.057 930.079 242.679 931.273C245.302 932.466 247.486 934.064 249.232 936.068L249.243 930.724L261.149 930.749L261.049 978.093L249.142 978.068L249.159 970.099C247.779 972.658 245.774 974.873 243.145 976.742C240.516 978.549 237.452 979.449 233.952 979.442C230.14 979.434 226.61 978.457 223.364 976.513C220.181 974.569 217.625 971.751 215.695 968.059C213.765 964.368 212.806 959.897 212.817 954.647C212.828 949.397 213.807 944.899 215.752 941.153C217.76 937.407 220.423 934.538 223.739 932.545C227.119 930.49 230.84 929.466 234.902 929.475ZM237.315 941.105C234.815 941.1 232.657 941.751 230.842 943.06C229.089 944.306 227.711 945.96 226.706 948.02C225.702 950.08 225.197 952.298 225.192 954.673C225.185 958.236 226.241 961.269 228.36 963.774C230.543 966.278 233.415 967.534 236.977 967.542C239.102 967.546 241.072 966.988 242.887 965.867C244.765 964.746 246.268 963.186 247.397 961.189C248.589 959.129 249.188 956.661 249.194 953.786L249.208 947.036C247.525 945.22 245.684 943.779 243.686 942.712C241.751 941.646 239.627 941.11 237.315 941.105Z" fill="white"/>
<path d="M299.678 933.839L298.668 939.754C300.391 938.207 302.364 936.861 304.588 935.717C306.874 934.583 309.589 934.282 312.731 934.814C315.997 935.368 318.824 936.639 321.21 938.628C323.608 940.555 325.288 943.154 326.252 946.423C328.532 944.21 331.051 942.45 333.811 941.143C336.581 939.774 339.598 939.366 342.864 939.919C346.007 940.451 348.746 941.676 351.082 943.593C353.428 945.449 355.13 947.924 356.187 951.019C357.305 954.124 357.502 957.802 356.776 962.053L351.886 990.702L340.147 988.713L344.676 961.62C345.213 958.478 344.78 955.996 343.38 954.174C342.04 952.362 340.046 951.232 337.396 950.783C335.362 950.439 333.496 950.788 331.796 951.831C330.107 952.813 328.468 954.057 326.879 955.563L321.753 985.597L310.014 983.608L314.543 956.516C315.08 953.373 314.647 950.891 313.246 949.069C311.907 947.258 309.943 946.133 307.355 945.694C305.383 945.36 303.522 945.679 301.771 946.65C300.031 947.56 298.408 948.711 296.902 950.104L291.712 980.508L279.973 978.519L287.939 931.851L299.678 933.839Z" fill="white"/>
<path d="M188.323 1016.5C191.304 1016.02 194.095 1015.98 196.697 1016.4C199.299 1016.81 201.537 1017.42 203.41 1018.22L205.144 1028.79C203.108 1027.96 200.956 1027.23 198.689 1026.6C196.421 1025.97 193.951 1025.87 191.278 1026.31C189.942 1026.53 188.64 1026.96 187.371 1027.59C186.153 1028.21 185.175 1029 184.437 1029.97C183.749 1030.93 183.511 1032.05 183.722 1033.33C184 1035.03 184.957 1036.19 186.59 1036.82C188.224 1037.45 190.192 1038.02 192.494 1038.54L199.246 1040.13C203.097 1041.08 206.052 1042.52 208.111 1044.45C210.17 1046.38 211.431 1048.76 211.895 1051.59C212.401 1054.67 211.949 1057.54 210.538 1060.2C209.17 1062.8 207.106 1065.01 204.344 1066.84C201.634 1068.66 198.48 1069.86 194.882 1070.45C191.85 1070.95 188.862 1070.91 185.918 1070.34C182.973 1069.77 180.351 1068.9 178.051 1067.75L176.317 1057.19C178.848 1058.46 181.569 1059.44 184.478 1060.13C187.388 1060.81 190.385 1060.9 193.468 1060.39C195.627 1060.04 197.41 1059.32 198.817 1058.25C200.215 1057.12 200.775 1055.71 200.497 1054.01C200.277 1052.68 199.458 1051.7 198.038 1051.09C196.661 1050.42 195.181 1049.92 193.598 1049.6L185.151 1047.82C180.889 1046.94 177.836 1045.38 175.992 1043.15C174.191 1040.86 173.041 1038.2 172.544 1035.17C172.029 1032.03 172.43 1029.17 173.746 1026.58C175.106 1023.93 177.067 1021.73 179.632 1019.99C182.188 1018.2 185.085 1017.04 188.323 1016.5Z" fill="white"/>
<path d="M235.589 1006.03C237.464 1006.02 239.081 1006.7 240.44 1008.04C241.8 1009.34 242.483 1010.9 242.49 1012.72C242.497 1014.49 241.826 1016.06 240.478 1017.42C239.129 1018.78 237.517 1019.46 235.642 1019.47C233.767 1019.48 232.15 1018.81 230.79 1017.46C229.483 1016.11 228.826 1014.55 228.819 1012.78C228.811 1010.95 229.456 1009.39 230.753 1008.08C232.102 1006.72 233.714 1006.04 235.589 1006.03ZM241.451 1026.56L241.608 1066.01L231.686 1066.05L231.563 1035.03L225.235 1035.06L225.202 1026.62L241.451 1026.56Z" fill="white"/>
<path d="M281.765 1029.28C285.57 1029.89 288.704 1031.23 291.167 1033.32C293.68 1035.41 295.423 1038.03 296.393 1041.19C297.424 1044.31 297.634 1047.78 297.025 1051.58L296.358 1055.75L268.124 1051.23C268.219 1053.93 269.167 1056.25 270.969 1058.17C272.771 1060.09 275.163 1061.29 278.146 1061.77C280.974 1062.22 283.636 1062.07 286.132 1061.31C288.627 1060.55 290.664 1059.69 292.242 1058.73L290.707 1067.82C289.3 1068.7 287.272 1069.51 284.622 1070.25C282.032 1070.94 279.271 1071.05 276.34 1070.58C272.483 1069.96 269.1 1068.53 266.191 1066.27C263.334 1064.02 261.197 1061.22 259.78 1057.88C258.414 1054.55 258.044 1050.93 258.67 1047.02C259.279 1043.22 260.683 1039.88 262.882 1037.02C265.082 1034.15 267.825 1032.01 271.113 1030.58C274.408 1029.1 277.959 1028.67 281.765 1029.28ZM280.163 1037.8C277.745 1037.42 275.595 1037.84 273.71 1039.07C271.826 1040.29 270.373 1042.12 269.353 1044.54L288.021 1047.53C288.26 1044.72 287.561 1042.5 285.924 1040.86C284.294 1039.18 282.374 1038.16 280.163 1037.8Z" fill="white"/>
<path d="M162.883 846.772L163.966 850.768L159.028 852.108L163.107 867.15L158.319 868.449L154.239 853.406L151.337 854.193L150.253 850.197L153.156 849.41L152.696 847.713C152.3 846.255 152.265 844.929 152.588 843.735C152.931 842.509 153.529 841.483 154.385 840.658C155.24 839.832 156.271 839.256 157.477 838.929C158.282 838.711 159.009 838.608 159.66 838.62C160.311 838.633 160.904 838.728 161.438 838.907L162.522 842.903C161.556 842.626 160.536 842.646 159.462 842.964C158.715 843.194 158.142 843.619 157.744 844.24C157.339 844.835 157.279 845.661 157.566 846.716L157.944 848.111L162.883 846.772Z" fill="white"/>
<path d="M182.259 842.133C184.154 841.786 185.968 841.931 187.699 842.567C189.426 843.178 190.906 844.178 192.14 845.567C193.394 846.926 194.197 848.566 194.549 850.487C194.9 852.409 194.73 854.227 194.037 855.942C193.371 857.652 192.34 859.111 190.947 860.319C189.548 861.502 187.901 862.266 186.005 862.613C184.135 862.955 182.324 862.823 180.572 862.217C178.84 861.581 177.36 860.581 176.131 859.217C174.902 857.853 174.112 856.211 173.761 854.29C173.409 852.369 173.567 850.553 174.234 848.842C174.896 847.106 175.926 845.647 177.324 844.465C178.744 843.252 180.389 842.475 182.259 842.133ZM183.123 846.859C182.201 847.028 181.383 847.402 180.668 847.983C179.954 848.564 179.428 849.309 179.092 850.217C178.78 851.121 178.733 852.163 178.948 853.341C179.164 854.519 179.577 855.476 180.188 856.212C180.825 856.942 181.58 857.453 182.454 857.743C183.323 858.008 184.218 858.056 185.141 857.887C186.063 857.718 186.883 857.356 187.603 856.801C188.317 856.22 188.843 855.476 189.179 854.567C189.516 853.658 189.577 852.615 189.361 851.436C189.146 850.258 188.72 849.303 188.083 848.573C187.446 847.842 186.691 847.331 185.817 847.041C184.944 846.751 184.046 846.69 183.123 846.859Z" fill="white"/>
<path d="M217.127 843.681C216.253 843.294 215.362 843.144 214.455 843.23C213.314 843.339 212.404 843.806 211.724 844.63C211.042 845.427 210.468 846.398 210.002 847.541L211.051 858.507L206.112 858.979L204.234 839.343L209.172 838.87L209.525 842.564C210.088 841.333 210.785 840.285 211.618 839.421C212.477 838.554 213.49 838.064 214.656 837.953C215.356 837.886 216.003 837.942 216.595 838.12L217.127 843.681Z" fill="white"/>
<path d="M234.322 831.678L234.445 837.418L239.912 837.302L240.001 841.441L234.534 841.558L234.716 850.072C234.735 850.957 234.945 851.656 235.346 852.168C235.774 852.654 236.391 852.888 237.198 852.871C237.901 852.856 238.498 852.765 238.989 852.598C239.507 852.431 239.984 852.199 240.42 851.903L240.504 855.848C240.02 856.353 239.404 856.783 238.657 857.138C237.935 857.492 237.014 857.681 235.895 857.705C234.124 857.742 232.667 857.214 231.524 856.118C230.406 854.996 229.826 853.445 229.783 851.467L229.574 841.664L226.02 841.74L225.966 839.202C227.206 838.732 228.334 837.875 229.349 836.629C230.39 835.382 231.202 833.75 231.784 831.732L234.322 831.678Z" fill="white"/>
<path d="M268.998 838.571L268.244 850.305C268.132 852.046 267.645 853.528 266.784 854.751C265.924 855.949 264.797 856.842 263.402 857.431C262.033 858.021 260.504 858.262 258.815 858.154C257.1 858.044 255.588 857.607 254.28 856.845C252.998 856.084 252.007 855.055 251.308 853.757C250.636 852.435 250.356 850.904 250.468 849.163L251.222 837.429L256.211 837.75L255.554 848.589C255.456 850.122 255.733 851.288 256.386 852.087C257.04 852.886 257.951 853.323 259.121 853.398C260.264 853.471 261.211 853.154 261.961 852.445C262.737 851.738 263.174 850.618 263.273 849.085L263.969 838.248L268.998 838.571Z" fill="white"/>
<path d="M286.865 840.792L286.419 843.569C287.138 842.867 288.055 842.25 289.17 841.717C290.31 841.188 291.536 841.029 292.847 841.24C294.827 841.559 296.377 842.494 297.499 844.046C298.621 845.598 298.967 847.711 298.537 850.385L296.613 862.341L291.715 861.553L293.495 850.246C293.706 848.935 293.541 847.906 293.002 847.16C292.488 846.418 291.679 845.958 290.573 845.78C289.699 845.64 288.831 845.79 287.968 846.232C287.132 846.677 286.381 847.242 285.717 847.927L283.732 860.268L278.834 859.48L281.968 840.004L286.865 840.792Z" fill="white"/>
<path d="M320.398 847.113C322.264 847.596 323.76 848.414 324.888 849.567C326.04 850.726 326.783 852.115 327.117 853.735C327.483 855.336 327.424 857.069 326.941 858.935L326.413 860.977L312.572 857.394C312.491 858.745 312.854 859.942 313.66 860.985C314.466 862.027 315.601 862.738 317.063 863.116C318.449 863.475 319.782 863.524 321.06 863.263C322.338 863.002 323.392 862.67 324.223 862.266L323.03 866.719C322.288 867.092 321.24 867.399 319.886 867.64C318.564 867.863 317.185 867.788 315.748 867.416C313.857 866.927 312.241 866.051 310.9 864.789C309.584 863.534 308.652 862.042 308.104 860.313C307.582 858.591 307.568 856.772 308.064 854.856C308.547 852.99 309.404 851.396 310.634 850.074C311.864 848.751 313.331 847.813 315.034 847.258C316.745 846.679 318.533 846.63 320.398 847.113ZM319.198 851.282C318.013 850.975 316.923 851.083 315.927 851.605C314.931 852.127 314.122 852.967 313.499 854.124L322.651 856.493C322.902 855.105 322.659 853.966 321.921 853.076C321.19 852.16 320.282 851.562 319.198 851.282Z" fill="white"/>
</svg>
