<svg width="474" height="1378" viewBox="0 0 474 1378" fill="none" xmlns="http://www.w3.org/2000/svg">
<mask id="path-1-inside-1_165_668" fill="white">
<path fill-rule="evenodd" clip-rule="evenodd" d="M0 642.953L79.1091 692.396V692.953H394.899V692.392L474 642.953L394.899 593.515V592.953H394H80H79.1091V593.51L0 642.953Z"/>
</mask>
<path fill-rule="evenodd" clip-rule="evenodd" d="M0 642.953L79.1091 692.396V692.953H394.899V692.392L474 642.953L394.899 593.515V592.953H394H80H79.1091V593.51L0 642.953Z" fill="#4C0406"/>
<path d="M79.1091 692.396H94.1091V684.083L87.0591 679.676L79.1091 692.396ZM0 642.953L-7.94997 630.233L-28.302 642.953L-7.94997 655.673L0 642.953ZM79.1091 692.953H64.1091V707.953H79.1091V692.953ZM394.899 692.953V707.953H409.899V692.953H394.899ZM394.899 692.392L386.949 679.672L379.899 684.078V692.392H394.899ZM474 642.953L481.95 655.673L502.302 642.953L481.95 630.233L474 642.953ZM394.899 593.515H379.899V601.829L386.949 606.235L394.899 593.515ZM394.899 592.953H409.899V577.953H394.899V592.953ZM79.1091 592.953V577.953H64.1091V592.953H79.1091ZM79.1091 593.51L87.0591 606.23L94.1091 601.824V593.51H79.1091ZM87.0591 679.676L7.94997 630.233L-7.94997 655.673L71.1591 705.116L87.0591 679.676ZM94.1091 692.953V692.396H64.1091V692.953H94.1091ZM394.899 677.953H79.1091V707.953H394.899V677.953ZM379.899 692.392V692.953H409.899V692.392H379.899ZM402.849 705.112L481.95 655.673L466.05 630.233L386.949 679.672L402.849 705.112ZM481.95 630.233L402.849 580.795L386.949 606.235L466.05 655.673L481.95 630.233ZM379.899 592.953V593.515H409.899V592.953H379.899ZM394 607.953H394.899V577.953H394V607.953ZM80 607.953H394V577.953H80V607.953ZM79.1091 607.953H80V577.953H79.1091V607.953ZM94.1091 593.51V592.953H64.1091V593.51H94.1091ZM7.94997 655.673L87.0591 606.23L71.1591 580.79L-7.94997 630.233L7.94997 655.673Z" fill="#B82025" mask="url(#path-1-inside-1_165_668)"/>
<path d="M48.574 340.977C47.3331 332.228 53.4196 324.13 62.1686 322.889V322.889C70.9176 321.648 79.016 327.735 80.2569 336.484L151.175 836.479L119.492 840.973L48.574 340.977Z" fill="#D83A40"/>
<path d="M104.96 368.752C103.878 359.982 110.109 351.995 118.879 350.913V350.913C127.65 349.83 135.637 356.062 136.719 364.832L198.581 866.029L166.822 869.949L104.96 368.752Z" fill="#D83A40"/>
<path d="M158.794 332.522C158.356 323.696 165.155 316.186 173.98 315.747V315.747C182.806 315.308 190.316 322.107 190.755 330.933L215.826 835.31L183.865 836.899L158.794 332.522Z" fill="#D83A40"/>
<path d="M209.554 17.3258C209.184 8.497 216.041 1.03991 224.87 0.669921V0.669921C233.699 0.299933 241.156 7.15716 241.526 15.986L262.67 520.543L230.698 521.883L209.554 17.3258Z" fill="#D83A40"/>
<path d="M277.097 336.947C277.344 328.114 284.705 321.153 293.538 321.4V321.4C302.371 321.646 309.332 329.007 309.085 337.84L294.988 842.643L263 841.75L277.097 336.947Z" fill="#D83A40"/>
<path d="M336.195 382.784C337.475 374.041 345.601 367.991 354.345 369.272V369.272C363.088 370.553 369.137 378.679 367.857 387.422L294.662 887.09L263 882.452L336.195 382.784Z" fill="#D83A40"/>
<path d="M385.468 350.882C386.298 342.085 394.103 335.626 402.901 336.457V336.457C411.698 337.288 418.157 345.093 417.326 353.89L369.858 856.654L338 853.646L385.468 350.882Z" fill="#D83A40"/>
<mask id="path-10-inside-2_165_668" fill="white">
<path d="M79 677.953H395V1377.95H79V677.953Z"/>
</mask>
<path d="M79 677.953H395V1377.95H79V677.953Z" fill="#D83A40"/>
<path d="M79 677.953V662.953H64V677.953H79ZM395 677.953H410V662.953H395V677.953ZM79 692.953H395V662.953H79V692.953ZM380 677.953V1377.95H410V677.953H380ZM94 1377.95V677.953H64V1377.95H94Z" fill="#B82025" mask="url(#path-10-inside-2_165_668)"/>
<path d="M71.5 696.455V1370.45H7.5V656.48L71.5 696.455Z" fill="#A81319" stroke="#A81319" stroke-width="15"/>
<path d="M402.5 696.455V1370.45H466.5V656.48L402.5 696.455Z" fill="#A81319" stroke="#A81319" stroke-width="15"/>
<path d="M130.296 830.986C133.845 830.249 137.191 830.065 140.333 830.434C143.475 830.802 146.19 831.419 148.478 832.285L151.109 844.856C148.624 843.968 146.006 843.203 143.254 842.562C140.501 841.92 137.534 841.93 134.352 842.591C132.761 842.921 131.221 843.497 129.733 844.316C128.305 845.123 127.174 846.124 126.338 847.319C125.564 848.501 125.337 849.857 125.657 851.387C126.079 853.405 127.286 854.75 129.279 855.422C131.271 856.093 133.661 856.682 136.449 857.188L144.628 858.745C149.296 859.691 152.915 861.269 155.485 863.481C158.054 865.692 159.691 868.48 160.395 871.844C161.163 875.515 160.771 878.979 159.218 882.238C157.713 885.423 155.353 888.18 152.136 890.507C148.981 892.822 145.262 894.424 140.978 895.314C137.367 896.064 133.782 896.17 130.221 895.633C126.661 895.095 123.471 894.194 120.652 892.928L118.022 880.357C121.124 881.755 124.437 882.79 127.962 883.463C131.487 884.135 135.086 884.09 138.757 883.327C141.327 882.794 143.428 881.847 145.059 880.487C146.677 879.066 147.275 877.346 146.853 875.327C146.52 873.736 145.486 872.61 143.752 871.949C142.065 871.214 140.264 870.695 138.349 870.39L128.126 868.683C122.969 867.839 119.227 866.127 116.899 863.546C114.619 860.892 113.102 857.76 112.347 854.15C111.566 850.419 111.897 846.967 113.341 843.795C114.833 840.548 117.071 837.818 120.055 835.602C123.027 833.325 126.44 831.787 130.296 830.986Z" fill="white"/>
<path d="M182.246 814.89C184.483 814.653 186.496 815.257 188.285 816.701C190.067 818.084 191.074 819.863 191.306 822.038C191.531 824.151 190.922 826.101 189.479 827.888C188.035 829.675 186.195 830.687 183.957 830.924C181.72 831.161 179.707 830.557 177.918 829.112C176.192 827.661 175.216 825.879 174.991 823.766C174.759 821.591 175.337 819.644 176.725 817.926C178.168 816.139 180.009 815.127 182.246 814.89ZM191.762 838.676L196.786 885.752L184.946 887.007L180.996 849.998L173.445 850.798L172.37 840.73L191.762 838.676Z" fill="white"/>
<path d="M234.902 835.446C237.465 835.451 240.057 836.05 242.679 837.243C245.302 838.436 247.486 840.035 249.232 842.039L249.243 836.695L261.149 836.72L261.049 884.064L249.142 884.038L249.159 876.07C247.779 878.629 245.774 880.844 243.145 882.713C240.516 884.52 237.452 885.42 233.952 885.413C230.14 885.405 226.61 884.428 223.364 882.484C220.181 880.54 217.625 877.722 215.695 874.03C213.765 870.339 212.806 865.868 212.817 860.618C212.828 855.368 213.807 850.87 215.752 847.124C217.76 843.378 220.423 840.509 223.739 838.516C227.119 836.461 230.84 835.437 234.902 835.446ZM237.315 847.076C234.815 847.071 232.657 847.722 230.842 849.031C229.089 850.277 227.711 851.931 226.706 853.991C225.702 856.051 225.197 858.269 225.192 860.644C225.185 864.207 226.241 867.24 228.36 869.745C230.543 872.249 233.415 873.505 236.977 873.513C239.102 873.517 241.072 872.959 242.887 871.838C244.765 870.717 246.268 869.157 247.397 867.16C248.589 865.1 249.188 862.632 249.194 859.757L249.208 853.007C247.525 851.191 245.684 849.75 243.686 848.683C241.751 847.617 239.627 847.081 237.315 847.076Z" fill="white"/>
<path d="M299.678 839.81L298.668 845.724C300.391 844.178 302.364 842.832 304.588 841.688C306.874 840.553 309.589 840.253 312.731 840.785C315.997 841.338 318.824 842.609 321.21 844.599C323.608 846.526 325.288 849.124 326.252 852.394C328.532 850.181 331.051 848.421 333.811 847.113C336.581 845.744 339.598 845.336 342.864 845.89C346.007 846.422 348.746 847.647 351.082 849.564C353.428 851.419 355.13 853.894 356.187 856.989C357.305 860.095 357.502 863.773 356.776 868.024L351.886 896.672L340.147 894.684L344.676 867.591C345.213 864.449 344.78 861.967 343.38 860.145C342.04 858.333 340.046 857.203 337.396 856.754C335.362 856.409 333.496 856.759 331.796 857.802C330.107 858.784 328.468 860.027 326.879 861.533L321.753 891.568L310.014 889.579L314.543 862.486C315.08 859.344 314.647 856.862 313.246 855.04C311.907 853.228 309.943 852.103 307.355 851.665C305.383 851.331 303.522 851.649 301.771 852.621C300.031 853.53 298.408 854.682 296.902 856.075L291.712 886.479L279.973 884.49L287.939 837.821L299.678 839.81Z" fill="white"/>
<path d="M188.323 922.476C191.304 921.987 194.095 921.951 196.697 922.368C199.299 922.786 201.537 923.395 203.41 924.196L205.144 934.757C203.108 933.93 200.956 933.202 198.689 932.571C196.421 931.94 193.951 931.844 191.278 932.283C189.942 932.503 188.64 932.927 187.371 933.558C186.153 934.18 185.175 934.974 184.437 935.94C183.749 936.897 183.511 938.018 183.722 939.303C184 940.999 184.957 942.162 186.59 942.791C188.224 943.42 190.192 943.994 192.494 944.513L199.246 946.097C203.097 947.048 206.052 948.49 208.111 950.421C210.17 952.353 211.431 954.732 211.895 957.559C212.401 960.642 211.949 963.514 210.538 966.174C209.17 968.773 207.106 970.986 204.344 972.811C201.634 974.629 198.48 975.832 194.882 976.423C191.85 976.921 188.862 976.883 185.918 976.311C182.973 975.739 180.351 974.876 178.051 973.723L176.317 963.161C178.848 964.435 181.569 965.413 184.478 966.097C187.388 966.78 190.385 966.869 193.468 966.363C195.627 966.009 197.41 965.294 198.817 964.218C200.215 963.091 200.775 961.68 200.497 959.984C200.277 958.648 199.458 957.674 198.038 957.062C196.661 956.391 195.181 955.895 193.598 955.574L185.151 953.794C180.889 952.91 177.836 951.353 175.992 949.122C174.191 946.832 173.041 944.17 172.544 941.138C172.029 938.003 172.43 935.14 173.746 932.548C175.106 929.897 177.067 927.702 179.632 925.961C182.188 924.169 185.085 923.008 188.323 922.476Z" fill="white"/>
<path d="M235.589 912.003C237.464 911.996 239.081 912.667 240.44 914.015C241.8 915.312 242.483 916.872 242.49 918.695C242.497 920.466 241.826 922.031 240.478 923.39C239.129 924.75 237.517 925.433 235.642 925.441C233.767 925.448 232.15 924.778 230.79 923.429C229.483 922.08 228.826 920.52 228.819 918.749C228.811 916.926 229.456 915.361 230.753 914.054C232.102 912.694 233.714 912.011 235.589 912.003ZM241.451 932.527L241.608 971.98L231.686 972.019L231.563 941.004L225.235 941.029L225.202 932.592L241.451 932.527Z" fill="white"/>
<path d="M281.765 935.25C285.57 935.86 288.704 937.205 291.167 939.287C293.68 941.378 295.423 944.004 296.393 947.166C297.424 950.284 297.634 953.747 297.025 957.552L296.358 961.718L268.124 957.198C268.219 959.903 269.167 962.218 270.969 964.141C272.771 966.065 275.163 967.266 278.146 967.743C280.974 968.196 283.636 968.042 286.132 967.281C288.627 966.52 290.664 965.659 292.242 964.698L290.707 973.789C289.3 974.671 287.272 975.481 284.622 976.217C282.032 976.91 279.271 977.022 276.34 976.553C272.483 975.935 269.1 974.497 266.191 972.238C263.334 969.987 261.197 967.193 259.78 963.854C258.414 960.523 258.044 956.903 258.67 952.995C259.279 949.189 260.683 945.853 262.882 942.988C265.082 940.123 267.825 937.977 271.113 936.552C274.408 935.075 277.959 934.641 281.765 935.25ZM280.163 943.776C277.745 943.389 275.595 943.81 273.71 945.038C271.826 946.266 270.373 948.09 269.353 950.512L288.021 953.5C288.26 950.69 287.561 948.468 285.924 946.835C284.294 945.15 282.374 944.13 280.163 943.776Z" fill="white"/>
<path d="M162.883 752.743L163.966 756.739L159.028 758.078L163.107 773.121L158.319 774.419L154.239 759.377L151.337 760.164L150.253 756.167L153.156 755.38L152.696 753.684C152.3 752.226 152.265 750.9 152.588 749.706C152.931 748.48 153.529 747.454 154.385 746.629C155.24 745.803 156.271 745.227 157.477 744.9C158.282 744.681 159.009 744.579 159.66 744.591C160.311 744.603 160.904 744.699 161.438 744.878L162.522 748.874C161.556 748.596 160.536 748.617 159.462 748.935C158.715 749.164 158.142 749.59 157.744 750.21C157.339 750.806 157.279 751.631 157.566 752.687L157.944 754.082L162.883 752.743Z" fill="white"/>
<path d="M182.259 748.104C184.154 747.757 185.968 747.902 187.699 748.538C189.426 749.149 190.906 750.149 192.14 751.538C193.394 752.897 194.197 754.537 194.549 756.458C194.9 758.38 194.73 760.198 194.037 761.913C193.371 763.623 192.34 765.082 190.947 766.291C189.548 767.473 187.901 768.238 186.005 768.584C184.135 768.926 182.324 768.794 180.572 768.188C178.84 767.552 177.36 766.552 176.131 765.188C174.902 763.825 174.112 762.182 173.761 760.261C173.409 758.34 173.567 756.524 174.234 754.814C174.896 753.078 175.926 751.618 177.324 750.436C178.744 749.223 180.389 748.446 182.259 748.104ZM183.123 752.83C182.201 752.999 181.383 753.373 180.668 753.954C179.954 754.535 179.428 755.28 179.092 756.188C178.78 757.093 178.733 758.134 178.948 759.312C179.164 760.49 179.577 761.447 180.188 762.183C180.825 762.913 181.58 763.424 182.454 763.714C183.323 763.979 184.218 764.027 185.141 763.858C186.063 763.689 186.883 763.327 187.603 762.772C188.317 762.192 188.843 761.447 189.179 760.538C189.516 759.629 189.577 758.586 189.361 757.407C189.146 756.229 188.72 755.274 188.083 754.544C187.446 753.813 186.691 753.303 185.817 753.012C184.944 752.722 184.046 752.661 183.123 752.83Z" fill="white"/>
<path d="M217.127 749.652C216.253 749.265 215.362 749.114 214.455 749.201C213.314 749.31 212.404 749.777 211.724 750.601C211.042 751.398 210.468 752.369 210.002 753.512L211.051 764.478L206.112 764.95L204.234 745.313L209.172 744.841L209.525 748.535C210.088 747.304 210.785 746.256 211.618 745.392C212.477 744.525 213.49 744.035 214.656 743.924C215.356 743.857 216.003 743.913 216.595 744.091L217.127 749.652Z" fill="white"/>
<path d="M234.322 737.649L234.445 743.389L239.912 743.272L240.001 747.412L234.534 747.529L234.716 756.043C234.735 756.928 234.945 757.627 235.346 758.139C235.774 758.625 236.391 758.859 237.198 758.842C237.901 758.827 238.498 758.736 238.989 758.569C239.507 758.402 239.984 758.17 240.42 757.874L240.504 761.819C240.02 762.324 239.404 762.754 238.657 763.109C237.935 763.463 237.014 763.652 235.895 763.676C234.124 763.713 232.667 763.185 231.524 762.089C230.406 760.967 229.826 759.416 229.783 757.438L229.574 747.635L226.02 747.711L225.966 745.173C227.206 744.703 228.334 743.846 229.349 742.6C230.39 741.353 231.202 739.721 231.784 737.703L234.322 737.649Z" fill="white"/>
<path d="M268.998 744.542L268.244 756.275C268.132 758.017 267.645 759.499 266.784 760.722C265.924 761.92 264.797 762.813 263.402 763.402C262.033 763.992 260.504 764.233 258.815 764.125C257.1 764.015 255.588 763.578 254.28 762.816C252.998 762.055 252.007 761.026 251.308 759.728C250.636 758.406 250.356 756.875 250.468 755.134L251.222 743.4L256.211 743.721L255.554 754.56C255.456 756.093 255.733 757.259 256.386 758.058C257.04 758.857 257.951 759.294 259.121 759.369C260.264 759.442 261.211 759.125 261.961 758.416C262.737 757.709 263.174 756.589 263.273 755.056L263.969 744.219L268.998 744.542Z" fill="white"/>
<path d="M286.865 746.763L286.419 749.54C287.138 748.838 288.055 748.221 289.17 747.688C290.31 747.159 291.536 747 292.847 747.211C294.827 747.53 296.377 748.465 297.499 750.017C298.621 751.569 298.967 753.682 298.537 756.356L296.613 768.312L291.715 767.524L293.495 756.218C293.706 754.906 293.541 753.878 293.002 753.131C292.488 752.389 291.679 751.929 290.573 751.752C289.699 751.611 288.831 751.761 287.968 752.203C287.132 752.649 286.381 753.214 285.717 753.898L283.732 766.239L278.834 765.451L281.968 745.975L286.865 746.763Z" fill="white"/>
<path d="M320.398 753.084C322.264 753.567 323.76 754.385 324.888 755.537C326.04 756.697 326.783 758.086 327.117 759.706C327.483 761.307 327.424 763.04 326.941 764.906L326.413 766.948L312.572 763.365C312.491 764.716 312.854 765.913 313.66 766.955C314.466 767.998 315.601 768.709 317.063 769.087C318.449 769.446 319.782 769.495 321.06 769.234C322.338 768.973 323.392 768.641 324.223 768.237L323.03 772.689C322.288 773.062 321.24 773.369 319.886 773.611C318.564 773.834 317.185 773.759 315.748 773.387C313.857 772.897 312.241 772.022 310.9 770.76C309.584 769.505 308.652 768.013 308.104 766.284C307.582 764.562 307.568 762.742 308.064 760.826C308.547 758.961 309.404 757.367 310.634 756.044C311.864 754.722 313.331 753.783 315.034 753.229C316.745 752.649 318.533 752.601 320.398 753.084ZM319.198 757.252C318.013 756.946 316.923 757.053 315.927 757.576C314.931 758.098 314.122 758.938 313.499 760.095L322.651 762.463C322.902 761.076 322.659 759.937 321.921 759.047C321.19 758.131 320.282 757.533 319.198 757.252Z" fill="white"/>
</svg>
