<svg width="474" height="1472" viewBox="0 0 474 1472" fill="none" xmlns="http://www.w3.org/2000/svg">
<mask id="path-1-inside-1_165_1371" fill="white">
<path fill-rule="evenodd" clip-rule="evenodd" d="M0 736.857L79.1091 786.3V786.857H394.899V786.295L474 736.857L394.899 687.419V686.857H394H80H79.1091V687.414L0 736.857Z"/>
</mask>
<path fill-rule="evenodd" clip-rule="evenodd" d="M0 736.857L79.1091 786.3V786.857H394.899V786.295L474 736.857L394.899 687.419V686.857H394H80H79.1091V687.414L0 736.857Z" fill="#4C0406"/>
<path d="M79.1091 786.3H94.1091V777.986L87.0591 773.58L79.1091 786.3ZM0 736.857L-7.94997 724.137L-28.302 736.857L-7.94997 749.577L0 736.857ZM79.1091 786.857H64.1091V801.857H79.1091V786.857ZM394.899 786.857V801.857H409.899V786.857H394.899ZM394.899 786.295L386.949 773.575L379.899 777.981V786.295H394.899ZM474 736.857L481.95 749.577L502.302 736.857L481.95 724.137L474 736.857ZM394.899 687.419H379.899V695.732L386.949 700.139L394.899 687.419ZM394.899 686.857H409.899V671.857H394.899V686.857ZM79.1091 686.857V671.857H64.1091V686.857H79.1091ZM79.1091 687.414L87.0591 700.134L94.1091 695.727V687.414H79.1091ZM87.0591 773.58L7.94997 724.137L-7.94997 749.577L71.1591 799.02L87.0591 773.58ZM94.1091 786.857V786.3H64.1091V786.857H94.1091ZM394.899 771.857H79.1091V801.857H394.899V771.857ZM379.899 786.295V786.857H409.899V786.295H379.899ZM402.849 799.015L481.95 749.577L466.05 724.137L386.949 773.575L402.849 799.015ZM481.95 724.137L402.849 674.699L386.949 700.139L466.05 749.577L481.95 724.137ZM379.899 686.857V687.419H409.899V686.857H379.899ZM394 701.857H394.899V671.857H394V701.857ZM80 701.857H394V671.857H80V701.857ZM79.1091 701.857H80V671.857H79.1091V701.857ZM94.1091 687.414V686.857H64.1091V687.414H94.1091ZM7.94997 749.577L87.0591 700.134L71.1591 674.694L-7.94997 724.137L7.94997 749.577Z" fill="#B82025" mask="url(#path-1-inside-1_165_1371)"/>
<path d="M48.574 434.881C47.3331 426.132 53.4196 418.034 62.1686 416.793V416.793C70.9176 415.552 79.016 421.638 80.2569 430.387L151.175 930.383L119.492 934.877L48.574 434.881Z" fill="#D83A40"/>
<path d="M104.96 462.656C103.878 453.886 110.109 445.899 118.879 444.816V444.816C127.65 443.734 135.637 449.966 136.719 458.736L198.581 959.933L166.822 963.853L104.96 462.656Z" fill="#D83A40"/>
<path d="M158.794 426.426C158.356 417.6 165.155 410.09 173.98 409.651V409.651C182.806 409.212 190.316 416.011 190.755 424.837L215.826 929.214L183.865 930.803L158.794 426.426Z" fill="#D83A40"/>
<path d="M212.957 16.8873C212.71 8.0542 219.67 0.69354 228.504 0.446808V0.446808C237.337 0.200077 244.697 7.16071 244.944 15.9938L259.044 520.797L227.057 521.69L212.957 16.8873Z" fill="#D83A40"/>
<path d="M277.097 430.851C277.344 422.018 284.705 415.057 293.538 415.304V415.304C302.371 415.55 309.332 422.911 309.085 431.744L294.988 936.547L263 935.654L277.097 430.851Z" fill="#D83A40"/>
<path d="M336.195 476.688C337.475 467.945 345.601 461.895 354.345 463.176V463.176C363.088 464.457 369.137 472.583 367.857 481.326L294.662 980.993L263 976.355L336.195 476.688Z" fill="#D83A40"/>
<path d="M385.468 444.786C386.298 435.989 394.103 429.53 402.901 430.361V430.361C411.698 431.191 418.157 438.997 417.326 447.794L369.858 950.558L338 947.55L385.468 444.786Z" fill="#D83A40"/>
<mask id="path-10-inside-2_165_1371" fill="white">
<path d="M79 771.857H395V1471.86H79V771.857Z"/>
</mask>
<path d="M79 771.857H395V1471.86H79V771.857Z" fill="#D83A40"/>
<path d="M79 771.857V756.857H64V771.857H79ZM395 771.857H410V756.857H395V771.857ZM79 786.857H395V756.857H79V786.857ZM380 771.857V1471.86H410V771.857H380ZM94 1471.86V771.857H64V1471.86H94Z" fill="#B82025" mask="url(#path-10-inside-2_165_1371)"/>
<path d="M71.5 790.359V1464.36H7.5V750.384L71.5 790.359Z" fill="#A81319" stroke="#A81319" stroke-width="15"/>
<path d="M402.5 790.359V1464.36H466.5V750.384L402.5 790.359Z" fill="#A81319" stroke="#A81319" stroke-width="15"/>
<path d="M130.296 924.889C133.845 924.152 137.191 923.968 140.333 924.337C143.475 924.706 146.19 925.323 148.478 926.188L151.109 938.76C148.624 937.871 146.006 937.107 143.254 936.465C140.501 935.824 137.534 935.834 134.352 936.495C132.761 936.825 131.221 937.4 129.733 938.22C128.305 939.027 127.174 940.028 126.338 941.223C125.564 942.405 125.337 943.761 125.657 945.29C126.079 947.309 127.286 948.654 129.279 949.325C131.271 949.997 133.661 950.586 136.449 951.092L144.628 952.649C149.296 953.595 152.915 955.173 155.485 957.384C158.054 959.595 159.691 962.383 160.395 965.748C161.163 969.418 160.771 972.883 159.218 976.142C157.713 979.327 155.353 982.083 152.136 984.411C148.981 986.726 145.262 988.328 140.978 989.217C137.367 989.967 133.782 990.073 130.221 989.536C126.661 988.999 123.471 988.097 120.652 986.832L118.022 974.26C121.124 975.659 124.437 976.694 127.962 977.366C131.487 978.039 135.086 977.994 138.757 977.231C141.327 976.697 143.428 975.75 145.059 974.39C146.677 972.969 147.275 971.249 146.853 969.23C146.52 967.64 145.486 966.514 143.752 965.853C142.065 965.118 140.264 964.598 138.349 964.294L128.126 962.587C122.969 961.743 119.227 960.03 116.899 957.45C114.619 954.795 113.102 951.663 112.347 948.054C111.566 944.322 111.897 940.87 113.341 937.698C114.833 934.452 117.071 931.721 120.055 929.506C123.027 927.229 126.44 925.69 130.296 924.889Z" fill="white"/>
<path d="M182.246 908.793C184.483 908.556 186.496 909.16 188.285 910.605C190.067 911.987 191.074 913.766 191.306 915.941C191.531 918.054 190.922 920.004 189.479 921.791C188.035 923.578 186.195 924.59 183.957 924.827C181.72 925.064 179.707 924.46 177.918 923.016C176.192 921.564 175.216 919.782 174.991 917.669C174.759 915.494 175.337 913.547 176.725 911.829C178.168 910.042 180.009 909.03 182.246 908.793ZM191.762 932.579L196.786 979.656L184.946 980.91L180.996 943.901L173.445 944.701L172.37 934.633L191.762 932.579Z" fill="white"/>
<path d="M234.902 929.349C237.465 929.355 240.057 929.954 242.679 931.147C245.302 932.34 247.486 933.938 249.232 935.942L249.243 930.598L261.149 930.624L261.049 977.967L249.142 977.942L249.159 969.973C247.779 972.533 245.774 974.747 243.145 976.617C240.516 978.424 237.452 979.324 233.952 979.316C230.14 979.308 226.61 978.332 223.364 976.388C220.181 974.443 217.625 971.625 215.695 967.934C213.765 964.242 212.806 959.772 212.817 954.522C212.828 949.272 213.807 944.774 215.752 941.028C217.76 937.282 220.423 934.413 223.739 932.42C227.119 930.364 230.84 929.341 234.902 929.349ZM237.315 940.979C234.815 940.974 232.657 941.626 230.842 942.935C229.089 944.181 227.711 945.834 226.706 947.895C225.702 949.955 225.197 952.173 225.192 954.548C225.185 958.11 226.241 961.144 228.36 963.648C230.543 966.153 233.415 967.409 236.977 967.416C239.102 967.421 241.072 966.862 242.887 965.741C244.765 964.62 246.268 963.061 247.397 961.063C248.589 959.003 249.188 956.536 249.194 953.661L249.208 946.911C247.525 945.095 245.684 943.653 243.686 942.587C241.751 941.52 239.627 940.984 237.315 940.979Z" fill="white"/>
<path d="M299.678 933.714L298.668 939.628C300.391 938.082 302.364 936.736 304.588 935.591C306.874 934.457 309.589 934.156 312.731 934.689C315.997 935.242 318.824 936.513 321.21 938.502C323.608 940.43 325.288 943.028 326.252 946.298C328.532 944.085 331.051 942.325 333.811 941.017C336.581 939.648 339.598 939.24 342.864 939.793C346.007 940.326 348.746 941.551 351.082 943.468C353.428 945.323 355.13 947.798 356.187 950.893C357.305 953.999 357.502 957.677 356.776 961.928L351.886 990.576L340.147 988.587L344.676 961.495C345.213 958.353 344.78 955.871 343.38 954.048C342.04 952.237 340.046 951.107 337.396 950.658C335.362 950.313 333.496 950.663 331.796 951.706C330.107 952.687 328.468 953.931 326.879 955.437L321.753 985.471L310.014 983.483L314.543 956.39C315.08 953.248 314.647 950.766 313.246 948.944C311.907 947.132 309.943 946.007 307.355 945.569C305.383 945.235 303.522 945.553 301.771 946.524C300.031 947.434 298.408 948.585 296.902 949.978L291.712 980.382L279.973 978.394L287.939 931.725L299.678 933.714Z" fill="white"/>
<path d="M188.323 1016.38C191.304 1015.89 194.095 1015.85 196.697 1016.27C199.299 1016.69 201.537 1017.3 203.41 1018.1L205.144 1028.66C203.108 1027.83 200.956 1027.11 198.689 1026.47C196.421 1025.84 193.951 1025.75 191.278 1026.19C189.942 1026.41 188.64 1026.83 187.371 1027.46C186.153 1028.08 185.175 1028.88 184.437 1029.84C183.749 1030.8 183.511 1031.92 183.722 1033.21C184 1034.9 184.957 1036.07 186.59 1036.69C188.224 1037.32 190.192 1037.9 192.494 1038.42L199.246 1040C203.097 1040.95 206.052 1042.39 208.111 1044.32C210.17 1046.26 211.431 1048.64 211.895 1051.46C212.401 1054.55 211.949 1057.42 210.538 1060.08C209.17 1062.68 207.106 1064.89 204.344 1066.72C201.634 1068.53 198.48 1069.74 194.882 1070.33C191.85 1070.82 188.862 1070.79 185.918 1070.21C182.973 1069.64 180.351 1068.78 178.051 1067.63L176.317 1057.07C178.848 1058.34 181.569 1059.32 184.478 1060C187.388 1060.68 190.385 1060.77 193.468 1060.27C195.627 1059.91 197.41 1059.2 198.817 1058.12C200.215 1057 200.775 1055.58 200.497 1053.89C200.277 1052.55 199.458 1051.58 198.038 1050.97C196.661 1050.29 195.181 1049.8 193.598 1049.48L185.151 1047.7C180.889 1046.81 177.836 1045.26 175.992 1043.03C174.191 1040.74 173.041 1038.07 172.544 1035.04C172.029 1031.91 172.43 1029.04 173.746 1026.45C175.106 1023.8 177.067 1021.61 179.632 1019.87C182.188 1018.07 185.085 1016.91 188.323 1016.38Z" fill="white"/>
<path d="M235.589 1005.91C237.464 1005.9 239.081 1006.57 240.44 1007.92C241.8 1009.22 242.483 1010.78 242.49 1012.6C242.497 1014.37 241.826 1015.93 240.478 1017.29C239.129 1018.65 237.517 1019.34 235.642 1019.34C233.767 1019.35 232.15 1018.68 230.79 1017.33C229.483 1015.98 228.826 1014.42 228.819 1012.65C228.811 1010.83 229.456 1009.26 230.753 1007.96C232.102 1006.6 233.714 1005.91 235.589 1005.91ZM241.451 1026.43L241.608 1065.88L231.686 1065.92L231.563 1034.91L225.235 1034.93L225.202 1026.5L241.451 1026.43Z" fill="white"/>
<path d="M281.765 1029.15C285.57 1029.76 288.704 1031.11 291.167 1033.19C293.68 1035.28 295.423 1037.91 296.393 1041.07C297.424 1044.19 297.634 1047.65 297.025 1051.46L296.358 1055.62L268.124 1051.1C268.219 1053.81 269.167 1056.12 270.969 1058.05C272.771 1059.97 275.163 1061.17 278.146 1061.65C280.974 1062.1 283.636 1061.95 286.132 1061.18C288.627 1060.42 290.664 1059.56 292.242 1058.6L290.707 1067.69C289.3 1068.58 287.272 1069.38 284.622 1070.12C282.032 1070.81 279.271 1070.93 276.34 1070.46C272.483 1069.84 269.1 1068.4 266.191 1066.14C263.334 1063.89 261.197 1061.1 259.78 1057.76C258.414 1054.43 258.044 1050.81 258.67 1046.9C259.279 1043.09 260.683 1039.76 262.882 1036.89C265.082 1034.03 267.825 1031.88 271.113 1030.46C274.408 1028.98 277.959 1028.54 281.765 1029.15ZM280.163 1037.68C277.745 1037.29 275.595 1037.71 273.71 1038.94C271.826 1040.17 270.373 1041.99 269.353 1044.42L288.021 1047.4C288.26 1044.59 287.561 1042.37 285.924 1040.74C284.294 1039.05 282.374 1038.03 280.163 1037.68Z" fill="white"/>
<path d="M162.883 846.646L163.966 850.643L159.028 851.982L163.107 867.025L158.319 868.323L154.239 853.28L151.337 854.068L150.253 850.071L153.156 849.284L152.696 847.588C152.3 846.13 152.265 844.804 152.588 843.61C152.931 842.384 153.529 841.358 154.385 840.532C155.24 839.707 156.271 839.13 157.477 838.803C158.282 838.585 159.009 838.482 159.66 838.495C160.311 838.507 160.904 838.603 161.438 838.782L162.522 842.778C161.556 842.5 160.536 842.52 159.462 842.839C158.715 843.068 158.142 843.493 157.744 844.114C157.339 844.71 157.279 845.535 157.566 846.591L157.944 847.986L162.883 846.646Z" fill="white"/>
<path d="M182.259 842.007C184.154 841.66 185.968 841.805 187.699 842.442C189.426 843.052 190.906 844.052 192.14 845.442C193.394 846.8 194.197 848.441 194.549 850.362C194.9 852.283 194.73 854.101 194.037 855.816C193.371 857.527 192.34 858.986 190.947 860.194C189.548 861.376 187.901 862.141 186.005 862.488C184.135 862.83 182.324 862.698 180.572 862.092C178.84 861.455 177.36 860.455 176.131 859.092C174.902 857.728 174.112 856.086 173.761 854.164C173.409 852.243 173.567 850.427 174.234 848.717C174.896 846.981 175.926 845.522 177.324 844.339C178.744 843.127 180.389 842.349 182.259 842.007ZM183.123 846.733C182.201 846.902 181.383 847.277 180.668 847.858C179.954 848.438 179.428 849.183 179.092 850.092C178.78 850.996 178.733 852.037 178.948 853.215C179.164 854.394 179.577 855.351 180.188 856.086C180.825 856.817 181.58 857.327 182.454 857.617C183.323 857.882 184.218 857.93 185.141 857.761C186.063 857.593 186.883 857.231 187.603 856.676C188.317 856.095 188.843 855.35 189.179 854.441C189.516 853.533 189.577 852.489 189.361 851.311C189.146 850.132 188.72 849.178 188.083 848.447C187.446 847.716 186.691 847.206 185.817 846.916C184.944 846.625 184.046 846.565 183.123 846.733Z" fill="white"/>
<path d="M217.127 843.556C216.253 843.168 215.362 843.018 214.455 843.105C213.314 843.214 212.404 843.68 211.724 844.504C211.042 845.302 210.468 846.272 210.002 847.416L211.051 858.381L206.112 858.854L204.234 839.217L209.172 838.745L209.525 842.439C210.088 841.208 210.785 840.16 211.618 839.295C212.477 838.428 213.49 837.939 214.656 837.827C215.356 837.76 216.003 837.816 216.595 837.995L217.127 843.556Z" fill="white"/>
<path d="M234.322 831.552L234.445 837.293L239.912 837.176L240.001 841.316L234.534 841.433L234.716 849.946C234.735 850.832 234.945 851.53 235.346 852.043C235.774 852.528 236.391 852.763 237.198 852.745C237.901 852.73 238.498 852.64 238.989 852.473C239.507 852.305 239.984 852.074 240.42 851.778L240.504 855.722C240.02 856.228 239.404 856.658 238.657 857.012C237.935 857.366 237.014 857.555 235.895 857.579C234.124 857.617 232.667 857.088 231.524 855.993C230.406 854.87 229.826 853.32 229.783 851.341L229.574 841.539L226.02 841.615L225.966 839.076C227.206 838.607 228.334 837.749 229.349 836.503C230.39 835.257 231.202 833.625 231.784 831.606L234.322 831.552Z" fill="white"/>
<path d="M268.998 838.445L268.244 850.179C268.132 851.92 267.645 853.402 266.784 854.626C265.924 855.823 264.797 856.716 263.402 857.305C262.033 857.896 260.504 858.137 258.815 858.028C257.1 857.918 255.588 857.482 254.28 856.719C252.998 855.958 252.007 854.929 251.308 853.632C250.636 852.31 250.356 850.778 250.468 849.037L251.222 837.304L256.211 837.624L255.554 848.464C255.456 849.997 255.733 851.163 256.386 851.962C257.04 852.76 257.951 853.197 259.121 853.272C260.264 853.346 261.211 853.028 261.961 852.32C262.737 851.613 263.174 850.493 263.273 848.959L263.969 838.122L268.998 838.445Z" fill="white"/>
<path d="M286.865 840.667L286.419 843.443C287.138 842.741 288.055 842.124 289.17 841.591C290.31 841.063 291.536 840.904 292.847 841.115C294.827 841.433 296.377 842.369 297.499 843.921C298.621 845.473 298.967 847.586 298.537 850.26L296.613 862.215L291.715 861.427L293.495 850.121C293.706 848.81 293.541 847.781 293.002 847.035C292.488 846.293 291.679 845.833 290.573 845.655C289.699 845.514 288.831 845.665 287.968 846.106C287.132 846.552 286.381 847.117 285.717 847.801L283.732 860.143L278.834 859.354L281.968 839.878L286.865 840.667Z" fill="white"/>
<path d="M320.398 846.988C322.264 847.471 323.76 848.289 324.888 849.441C326.04 850.6 326.783 851.99 327.117 853.609C327.483 855.211 327.424 856.944 326.941 858.809L326.413 860.852L312.572 857.269C312.491 858.62 312.854 859.817 313.66 860.859C314.466 861.902 315.601 862.612 317.063 862.991C318.449 863.35 319.782 863.399 321.06 863.138C322.338 862.877 323.392 862.544 324.223 862.141L323.03 866.593C322.288 866.966 321.24 867.273 319.886 867.515C318.564 867.737 317.185 867.663 315.748 867.291C313.857 866.801 312.241 865.926 310.9 864.664C309.584 863.409 308.652 861.917 308.104 860.188C307.582 858.465 307.568 856.646 308.064 854.73C308.547 852.865 309.404 851.271 310.634 849.948C311.864 848.626 313.331 847.687 315.034 847.133C316.745 846.553 318.533 846.505 320.398 846.988ZM319.198 851.156C318.013 850.849 316.923 850.957 315.927 851.479C314.931 852.002 314.122 852.841 313.499 853.998L322.651 856.367C322.902 854.98 322.659 853.841 321.921 852.95C321.19 852.035 320.282 851.437 319.198 851.156Z" fill="white"/>
</svg>
