<svg width="478" height="1043" viewBox="0 0 478 1043" fill="none" xmlns="http://www.w3.org/2000/svg">
<mask id="path-1-inside-1_157_261" fill="white">
<path fill-rule="evenodd" clip-rule="evenodd" d="M1.06809 307.648L80.3493 356.814L80.3512 357.371L396.139 356.269L396.137 355.707L475.065 305.993L395.792 256.831L395.79 256.27L394.891 256.273L80.8931 257.369L80.0022 257.372L80.0041 257.929L1.06809 307.648Z"/>
</mask>
<path fill-rule="evenodd" clip-rule="evenodd" d="M1.06809 307.648L80.3493 356.814L80.3512 357.371L396.139 356.269L396.137 355.707L475.065 305.993L395.792 256.831L395.79 256.27L394.891 256.273L80.8931 257.369L80.0022 257.372L80.0041 257.929L1.06809 307.648Z" fill="#4C0406"/>
<path d="M80.3493 356.814L95.3492 356.762L95.3202 348.448L88.2548 344.067L80.3493 356.814ZM1.06809 307.648L-6.92624 294.956L-27.2337 307.747L-6.83744 320.395L1.06809 307.648ZM80.3512 357.371L65.3513 357.424L65.4037 372.424L80.4036 372.371L80.3512 357.371ZM396.139 356.269L396.191 371.269L411.191 371.217L411.139 356.217L396.139 356.269ZM396.137 355.707L388.142 343.015L381.108 347.446L381.137 355.76L396.137 355.707ZM475.065 305.993L483.06 318.685L503.367 305.894L482.971 293.246L475.065 305.993ZM395.792 256.831L380.792 256.884L380.821 265.197L387.886 269.579L395.792 256.831ZM395.79 256.27L410.79 256.217L410.737 241.217L395.737 241.27L395.79 256.27ZM394.891 256.273L394.839 241.273L394.891 256.273ZM80.0022 257.372L79.9498 242.372L64.9499 242.425L65.0023 257.424L80.0022 257.372ZM80.0041 257.929L87.9984 270.621L95.033 266.19L95.004 257.877L80.0041 257.929ZM88.2548 344.067L8.97361 294.9L-6.83744 320.395L72.4438 369.562L88.2548 344.067ZM95.3511 357.319L95.3492 356.762L65.3494 356.867L65.3513 357.424L95.3511 357.319ZM396.086 341.269L80.2989 342.372L80.4036 372.371L396.191 371.269L396.086 341.269ZM381.137 355.76L381.139 356.322L411.139 356.217L411.137 355.655L381.137 355.76ZM404.131 368.399L483.06 318.685L467.071 293.301L388.142 343.015L404.131 368.399ZM482.971 293.246L403.697 244.084L387.886 269.579L467.16 318.741L482.971 293.246ZM380.79 256.322L380.792 256.884L410.792 256.779L410.79 256.217L380.79 256.322ZM394.943 271.273L395.842 271.27L395.737 241.27L394.839 241.273L394.943 271.273ZM80.9454 272.369L394.943 271.273L394.839 241.273L80.8407 242.369L80.9454 272.369ZM80.0545 272.372L80.9454 272.369L80.8407 242.369L79.9498 242.372L80.0545 272.372ZM95.004 257.877L95.0021 257.32L65.0023 257.424L65.0042 257.981L95.004 257.877ZM9.06241 320.34L87.9984 270.621L72.0098 245.237L-6.92624 294.956L9.06241 320.34Z" fill="#B82025" mask="url(#path-1-inside-1_157_261)"/>
<path d="M47.8371 26.6832C46.5356 17.943 52.5658 9.80257 61.306 8.50102C70.0461 7.19947 78.1866 13.2297 79.4881 21.9698L153.87 521.462L122.219 526.175L47.8371 26.6832Z" fill="#D83A40"/>
<path d="M103.714 54.1689C102.585 45.4047 108.775 37.3848 117.539 36.2559C126.303 35.127 134.323 41.3165 135.452 50.0807L199.969 550.942L168.231 555.031L103.714 54.1689Z" fill="#D83A40"/>
<path d="M160.835 18.6645C160.365 9.84051 167.137 2.30607 175.961 1.8359C184.785 1.36573 192.319 8.13788 192.789 16.9619L219.659 521.247L187.704 522.949L160.835 18.6645Z" fill="#D83A40"/>
<path d="M213.017 38.0404C212.701 29.2095 219.603 21.7944 228.434 21.4783C237.265 21.1622 244.68 28.0648 244.996 36.8957L263.061 541.573L231.081 542.717L213.017 38.0404Z" fill="#D83A40"/>
<path d="M278.672 25.6195C278.941 16.787 286.32 9.84569 295.153 10.1155C303.985 10.3854 310.926 17.7643 310.657 26.5967L295.235 531.361L263.25 530.384L278.672 25.6195Z" fill="#D83A40"/>
<path d="M333.982 65.2751C335.216 56.5251 343.31 50.4326 352.06 51.667C360.81 52.9014 366.902 60.9953 365.668 69.7452L295.124 569.794L263.437 565.324L333.982 65.2751Z" fill="#D83A40"/>
<path d="M386.614 35.2339C387.415 26.4337 395.198 19.949 403.999 20.7499C412.799 21.5508 419.284 29.334 418.483 38.1342L372.713 541.056L340.845 538.156L386.614 35.2339Z" fill="#D83A40"/>
<mask id="path-10-inside-2_157_261" fill="white">
<path d="M80.1895 342.372L396.188 341.269L398.631 1041.26L82.6329 1042.37L80.1895 342.372Z"/>
</mask>
<path d="M80.1895 342.372L396.188 341.269L398.631 1041.26L82.6329 1042.37L80.1895 342.372Z" fill="#D83A40"/>
<path d="M80.1895 342.372L80.1371 327.372L65.1372 327.424L65.1895 342.424L80.1895 342.372ZM396.188 341.269L411.187 341.216L411.135 326.217L396.135 326.269L396.188 341.269ZM80.2418 357.372L396.24 356.269L396.135 326.269L80.1371 327.372L80.2418 357.372ZM381.188 341.321L383.631 1041.32L413.631 1041.21L411.187 341.216L381.188 341.321ZM97.6328 1042.32L95.1894 342.32L65.1895 342.424L67.633 1042.42L97.6328 1042.32Z" fill="#B82025" mask="url(#path-10-inside-2_157_261)"/>
<path d="M72.7547 360.9L75.1074 1034.89L11.1078 1035.12L8.61553 321.149L72.7547 360.9Z" fill="#A81319" stroke="#A81319" stroke-width="15"/>
<path d="M403.753 359.745L406.105 1033.74L470.105 1033.52L467.613 319.547L403.753 359.745Z" fill="#A81319" stroke="#A81319" stroke-width="15"/>
<path d="M132.02 495.225C135.566 494.475 138.911 494.279 142.055 494.637C145.198 494.995 147.915 495.603 150.207 496.46L152.881 509.022C150.393 508.142 147.772 507.387 145.018 506.755C142.263 506.123 139.296 506.143 136.117 506.815C134.527 507.151 132.989 507.732 131.503 508.557C130.078 509.369 128.95 510.374 128.119 511.572C127.349 512.756 127.127 514.113 127.452 515.641C127.881 517.658 129.093 518.999 131.088 519.664C133.082 520.328 135.475 520.909 138.264 521.405L146.449 522.934C151.12 523.863 154.744 525.429 157.322 527.631C159.899 529.833 161.546 532.615 162.262 535.978C163.043 539.645 162.662 543.111 161.121 546.376C159.627 549.566 157.276 552.33 154.068 554.669C150.921 556.995 147.207 558.61 142.926 559.515C139.319 560.277 135.733 560.396 132.171 559.871C128.609 559.346 125.416 558.456 122.593 557.2L119.918 544.638C123.025 546.025 126.342 547.049 129.87 547.709C133.397 548.369 136.995 548.312 140.664 547.536C143.232 546.994 145.329 546.039 146.956 544.674C148.569 543.247 149.161 541.525 148.731 539.507C148.393 537.918 147.355 536.796 145.618 536.141C143.93 535.412 142.127 534.898 140.21 534.601L129.982 532.929C124.822 532.103 121.073 530.404 118.737 527.831C116.448 525.185 114.92 522.058 114.152 518.452C113.358 514.723 113.677 511.27 115.11 508.092C116.59 504.841 118.819 502.102 121.795 499.876C124.759 497.589 128.167 496.039 132.02 495.225Z" fill="white"/>
<path d="M183.913 478.947C186.15 478.702 188.165 479.299 189.958 480.737C191.745 482.114 192.758 483.889 192.998 486.063C193.231 488.175 192.629 490.128 191.191 491.92C189.754 493.712 187.917 494.73 185.681 494.975C183.444 495.22 181.429 494.623 179.636 493.185C177.904 491.739 176.922 489.961 176.689 487.848C176.449 485.674 177.021 483.725 178.403 482.002C179.84 480.21 181.677 479.192 183.913 478.947ZM193.512 502.7L198.701 549.758L186.865 551.054L182.786 514.059L175.237 514.886L174.128 504.822L193.512 502.7Z" fill="white"/>
<path d="M236.641 499.319C239.204 499.316 241.799 499.906 244.425 501.09C247.052 502.274 249.241 503.864 250.994 505.862L250.987 500.518L262.893 500.502L262.958 547.845L251.051 547.862L251.041 539.893C249.669 542.458 247.672 544.679 245.05 546.558C242.427 548.374 239.366 549.284 235.866 549.289C232.053 549.294 228.521 548.33 225.268 546.397C222.078 544.464 219.512 541.655 217.569 537.971C215.627 534.286 214.652 529.818 214.645 524.568C214.637 519.318 215.6 514.817 217.532 511.064C219.527 507.312 222.18 504.433 225.489 502.428C228.862 500.361 232.579 499.325 236.641 499.319ZM239.095 510.941C236.595 510.944 234.439 511.603 232.629 512.918C230.88 514.171 229.508 515.829 228.511 517.893C227.513 519.957 227.016 522.176 227.02 524.551C227.024 528.114 228.091 531.144 230.22 533.641C232.41 536.138 235.287 537.384 238.85 537.379C240.975 537.376 242.943 536.811 244.754 535.683C246.627 534.555 248.125 532.991 249.247 530.989C250.432 528.925 251.022 526.456 251.018 523.581L251.009 516.831C249.319 515.02 247.473 513.586 245.472 512.526C243.533 511.466 241.407 510.938 239.095 510.941Z" fill="white"/>
<path d="M301.432 503.457L300.443 509.375C302.16 507.823 304.128 506.47 306.348 505.318C308.63 504.176 311.344 503.865 314.488 504.387C317.756 504.929 320.587 506.19 322.981 508.171C325.385 510.09 327.074 512.682 328.049 515.948C330.321 513.728 332.835 511.959 335.59 510.642C338.355 509.263 341.371 508.844 344.639 509.386C347.784 509.908 350.527 511.123 352.869 513.032C355.222 514.879 356.932 517.348 358 520.439C359.129 523.541 359.339 527.218 358.628 531.472L353.838 560.137L342.092 558.189L346.527 531.081C347.052 527.937 346.611 525.457 345.204 523.639C343.858 521.832 341.86 520.709 339.209 520.269C337.174 519.932 335.308 520.288 333.612 521.337C331.926 522.325 330.292 523.574 328.709 525.086L323.687 555.138L311.941 553.19L316.376 526.082C316.901 522.938 316.46 520.457 315.053 518.64C313.707 516.833 311.74 515.715 309.15 515.285C307.177 514.958 305.317 515.283 303.569 516.261C301.832 517.176 300.213 518.333 298.712 519.732L293.629 550.154L281.883 548.206L289.686 501.51L301.432 503.457Z" fill="white"/>
<path d="M190.366 586.512C193.345 586.012 196.137 585.966 198.74 586.374C201.343 586.783 203.583 587.384 205.459 588.178L207.23 598.734C205.191 597.914 203.037 597.193 200.767 596.57C198.497 595.948 196.027 595.86 193.356 596.308C192.021 596.532 190.719 596.962 189.453 597.597C188.238 598.223 187.262 599.02 186.527 599.989C185.843 600.948 185.609 602.07 185.824 603.354C186.108 605.049 187.069 606.209 188.705 606.832C190.341 607.455 192.311 608.023 194.615 608.534L201.372 610.094C205.226 611.032 208.186 612.463 210.251 614.387C212.317 616.312 213.587 618.687 214.061 621.512C214.578 624.594 214.135 627.467 212.734 630.131C211.375 632.736 209.318 634.955 206.563 636.791C203.859 638.617 200.709 639.832 197.114 640.435C194.083 640.944 191.095 640.917 188.149 640.355C185.203 639.793 182.577 638.939 180.273 637.794L178.502 627.238C181.038 628.503 183.762 629.472 186.674 630.145C189.586 630.819 192.583 630.897 195.665 630.38C197.822 630.018 199.602 629.297 201.006 628.217C202.4 627.085 202.955 625.672 202.671 623.977C202.447 622.641 201.624 621.67 200.202 621.064C198.823 620.397 197.341 619.906 195.756 619.591L187.303 617.841C183.038 616.972 179.98 615.425 178.128 613.201C176.319 610.916 175.16 608.259 174.652 605.228C174.127 602.095 174.517 599.23 175.825 596.635C177.175 593.979 179.129 591.776 181.687 590.027C184.237 588.226 187.13 587.054 190.366 586.512Z" fill="white"/>
<path d="M237.595 575.874C239.47 575.86 241.089 576.525 242.454 577.869C243.817 579.161 244.506 580.718 244.52 582.541C244.533 584.312 243.868 585.879 242.524 587.244C241.18 588.608 239.57 589.297 237.695 589.311C235.82 589.325 234.201 588.66 232.836 587.316C231.524 585.972 230.862 584.414 230.848 582.643C230.835 580.82 231.474 579.253 232.766 577.941C234.11 576.577 235.72 575.888 237.595 575.874ZM243.529 596.377L243.824 635.829L233.902 635.903L233.671 604.888L227.343 604.936L227.28 596.498L243.529 596.377Z" fill="white"/>
<path d="M283.852 598.959C287.659 599.555 290.798 600.89 293.268 602.963C295.789 605.045 297.54 607.665 298.522 610.823C299.563 613.939 299.786 617.4 299.19 621.208L298.538 625.376L270.288 620.955C270.392 623.66 271.348 625.971 273.156 627.888C274.965 629.805 277.362 630.997 280.346 631.465C283.176 631.907 285.838 631.744 288.33 630.974C290.823 630.205 292.857 629.337 294.431 628.371L292.929 637.467C291.525 638.354 289.499 639.17 286.852 639.916C284.264 640.618 281.504 640.74 278.571 640.281C274.712 639.677 271.324 638.25 268.407 636.001C265.542 633.761 263.395 630.973 261.967 627.639C260.589 624.313 260.207 620.695 260.819 616.784C261.415 612.977 262.807 609.636 264.996 606.763C267.186 603.89 269.922 601.735 273.204 600.298C276.495 598.81 280.044 598.364 283.852 598.959ZM282.279 607.491C279.861 607.112 277.711 607.54 275.831 608.775C273.951 610.009 272.505 611.839 271.493 614.264L290.172 617.187C290.401 614.376 289.694 612.157 288.051 610.529C286.416 608.85 284.492 607.837 282.279 607.491Z" fill="white"/>
<path d="M164.333 416.868L165.431 420.861L160.497 422.217L164.628 437.245L159.845 438.56L155.713 423.532L152.813 424.329L151.715 420.337L154.616 419.54L154.15 417.845C153.749 416.388 153.709 415.063 154.028 413.867C154.366 412.64 154.961 411.612 155.814 410.784C156.666 409.955 157.695 409.375 158.901 409.044C159.704 408.823 160.431 408.718 161.082 408.728C161.733 408.738 162.326 408.831 162.861 409.008L163.959 413.001C162.992 412.726 161.972 412.75 160.899 413.072C160.153 413.304 159.582 413.732 159.186 414.354C158.782 414.951 158.726 415.776 159.016 416.831L159.399 418.225L164.333 416.868Z" fill="white"/>
<path d="M183.693 412.161C185.587 411.808 187.401 411.947 189.135 412.577C190.864 413.182 192.347 414.176 193.586 415.561C194.845 416.916 195.654 418.553 196.012 420.473C196.37 422.393 196.206 424.212 195.52 425.929C194.859 427.642 193.834 429.105 192.444 430.318C191.05 431.505 189.405 432.275 187.511 432.629C185.642 432.977 183.83 432.852 182.076 432.252C180.342 431.621 178.859 430.627 177.625 429.267C176.391 427.908 175.595 426.268 175.237 424.348C174.879 422.428 175.03 420.612 175.691 418.899C176.347 417.161 177.372 415.698 178.767 414.511C180.182 413.293 181.824 412.51 183.693 412.161ZM184.574 416.885C183.652 417.057 182.835 417.434 182.123 418.017C181.41 418.601 180.887 419.347 180.554 420.257C180.246 421.162 180.202 422.204 180.421 423.381C180.641 424.559 181.058 425.514 181.671 426.248C182.31 426.976 183.067 427.484 183.942 427.771C184.812 428.033 185.708 428.077 186.63 427.906C187.551 427.734 188.371 427.369 189.088 426.811C189.8 426.228 190.323 425.481 190.657 424.571C190.991 423.662 191.047 422.618 190.828 421.44C190.608 420.263 190.179 419.31 189.54 418.581C188.9 417.853 188.143 417.345 187.269 417.058C186.394 416.77 185.496 416.713 184.574 416.885Z" fill="white"/>
<path d="M218.566 413.588C217.691 413.204 216.799 413.057 215.892 413.147C214.752 413.26 213.843 413.729 213.167 414.555C212.487 415.356 211.916 416.328 211.454 417.473L212.542 428.435L207.605 428.925L205.657 409.294L210.594 408.805L210.96 412.497C211.518 411.264 212.212 410.214 213.042 409.347C213.898 408.477 214.909 407.984 216.075 407.868C216.775 407.799 217.421 407.853 218.015 408.029L218.566 413.588Z" fill="white"/>
<path d="M235.72 401.525L235.862 407.265L241.329 407.129L241.432 411.268L235.965 411.404L236.177 419.917C236.199 420.803 236.412 421.501 236.815 422.012C237.244 422.496 237.862 422.728 238.669 422.708C239.372 422.69 239.969 422.597 240.46 422.429C240.977 422.26 241.453 422.026 241.888 421.729L241.986 425.673C241.504 426.18 240.889 426.612 240.143 426.969C239.422 427.326 238.502 427.518 237.383 427.546C235.613 427.59 234.154 427.066 233.007 425.975C231.885 424.856 231.299 423.308 231.25 421.329L231.006 411.528L227.452 411.616L227.389 409.078C228.628 408.604 229.753 407.743 230.764 406.493C231.8 405.243 232.606 403.608 233.181 401.588L235.72 401.525Z" fill="white"/>
<path d="M270.419 408.297L269.706 420.033C269.601 421.774 269.119 423.258 268.262 424.485C267.406 425.685 266.282 426.582 264.89 427.176C263.523 427.771 261.995 428.018 260.305 427.915C258.589 427.811 257.076 427.38 255.766 426.622C254.481 425.866 253.487 424.84 252.783 423.545C252.106 422.225 251.821 420.695 251.927 418.953L252.639 407.217L257.63 407.52L257.011 418.362C256.918 419.895 257.199 421.061 257.855 421.857C258.511 422.653 259.424 423.087 260.594 423.158C261.738 423.228 262.683 422.907 263.431 422.196C264.205 421.486 264.638 420.364 264.731 418.831L265.389 407.991L270.419 408.297Z" fill="white"/>
<path d="M288.294 410.456L287.857 413.234C288.574 412.53 289.489 411.909 290.602 411.372C291.74 410.84 292.965 410.677 294.277 410.883C296.258 411.195 297.812 412.125 298.939 413.673C300.066 415.221 300.42 417.333 299.999 420.008L298.117 431.97L293.216 431.199L294.956 419.887C295.163 418.575 294.995 417.547 294.453 416.803C293.937 416.062 293.125 415.605 292.019 415.431C291.145 415.293 290.277 415.447 289.416 415.891C288.581 416.34 287.833 416.908 287.171 417.595L285.228 429.943L280.328 429.172L283.393 409.685L288.294 410.456Z" fill="white"/>
<path d="M321.849 416.66C323.716 417.136 325.216 417.949 326.347 419.097C327.504 420.252 328.252 421.639 328.591 423.258C328.963 424.858 328.91 426.591 328.434 428.458L327.912 430.502L314.059 426.968C313.983 428.319 314.35 429.515 315.16 430.554C315.97 431.594 317.106 432.301 318.57 432.674C319.958 433.028 321.29 433.073 322.567 432.807C323.844 432.542 324.898 432.206 325.727 431.799L324.55 436.256C323.809 436.631 322.762 436.942 321.409 437.188C320.088 437.415 318.708 437.346 317.27 436.979C315.377 436.496 313.758 435.626 312.413 434.369C311.092 433.118 310.155 431.629 309.602 429.902C309.073 428.182 309.053 426.363 309.543 424.445C310.019 422.578 310.87 420.981 312.095 419.654C313.321 418.327 314.784 417.384 316.486 416.823C318.194 416.238 319.982 416.183 321.849 416.66ZM320.664 420.832C319.478 420.529 318.388 420.641 317.394 421.167C316.399 421.693 315.593 422.535 314.975 423.694L324.135 426.031C324.381 424.643 324.134 423.505 323.393 422.617C322.659 421.704 321.749 421.109 320.664 420.832Z" fill="white"/>
</svg>
