<svg width="476" height="1041" viewBox="0 0 476 1041" fill="none" xmlns="http://www.w3.org/2000/svg">
<mask id="path-1-inside-1_161_150" fill="white">
<path fill-rule="evenodd" clip-rule="evenodd" d="M1.28285 304.981L80.3055 354.562L80.3046 355.119L396.094 355.67L396.095 355.108L475.282 305.808L396.267 256.232L396.268 255.67L395.37 255.668L81.37 255.12L80.4791 255.119L80.4781 255.676L1.28285 304.981Z"/>
</mask>
<path fill-rule="evenodd" clip-rule="evenodd" d="M1.28285 304.981L80.3055 354.562L80.3046 355.119L396.094 355.67L396.095 355.108L475.282 305.808L396.267 256.232L396.268 255.67L395.37 255.668L81.37 255.12L80.4791 255.119L80.4781 255.676L1.28285 304.981Z" fill="#4C0406"/>
<path d="M80.3055 354.562L95.3055 354.588L95.32 346.274L88.2777 341.856L80.3055 354.562ZM1.28285 304.981L-6.64491 292.247L-27.0191 304.931L-6.68931 317.687L1.28285 304.981ZM80.3046 355.119L65.3046 355.092L65.2784 370.092L80.2784 370.119L80.3046 355.119ZM396.094 355.67L396.067 370.67L411.067 370.696L411.094 355.696L396.094 355.67ZM396.095 355.108L388.167 342.374L381.109 346.768L381.095 355.082L396.095 355.108ZM475.282 305.808L483.21 318.542L503.584 305.857L483.254 293.102L475.282 305.808ZM396.267 256.232L381.267 256.205L381.253 264.519L388.295 268.938L396.267 256.232ZM396.268 255.67L411.268 255.696L411.294 240.696L396.294 240.67L396.268 255.67ZM395.37 255.668L395.396 240.668L395.37 255.668ZM80.4791 255.119L80.5053 240.119L65.5053 240.093L65.4791 255.093L80.4791 255.119ZM80.4781 255.676L88.4059 268.409L95.4636 264.015L95.4781 255.702L80.4781 255.676ZM88.2777 341.856L9.25501 292.274L-6.68931 317.687L72.3334 367.268L88.2777 341.856ZM95.3045 355.145L95.3055 354.588L65.3056 354.535L65.3046 355.092L95.3045 355.145ZM396.12 340.67L80.3307 340.119L80.2784 370.119L396.067 370.67L396.12 340.67ZM381.095 355.082L381.094 355.644L411.094 355.696L411.094 355.134L381.095 355.082ZM404.022 367.842L483.21 318.542L467.354 293.074L388.167 342.374L404.022 367.842ZM483.254 293.102L404.239 243.525L388.295 268.938L467.31 318.514L483.254 293.102ZM381.268 255.644L381.267 256.205L411.267 256.258L411.268 255.696L381.268 255.644ZM395.343 270.668L396.242 270.67L396.294 240.67L395.396 240.668L395.343 270.668ZM81.3438 270.12L395.343 270.668L395.396 240.668L81.3962 240.12L81.3438 270.12ZM80.4529 270.119L81.3438 270.12L81.3962 240.12L80.5053 240.119L80.4529 270.119ZM95.4781 255.702L95.4791 255.145L65.4791 255.093L65.4781 255.649L95.4781 255.702ZM9.21061 317.714L88.4059 268.409L72.5504 242.942L-6.64491 292.247L9.21061 317.714Z" fill="#B82025" mask="url(#path-1-inside-1_161_150)"/>
<path d="M52.4541 23.6627C51.3053 14.9011 57.4767 6.86716 66.2382 5.71835V5.71835C74.9998 4.56953 83.0337 10.7409 84.1826 19.5024L149.836 520.217L118.108 524.377L52.4541 23.6627Z" fill="#D83A40"/>
<path d="M108.771 51.5791C107.78 42.7983 114.095 34.8766 122.876 33.8855V33.8855C131.656 32.8943 139.578 39.2091 140.569 47.9899L197.211 549.803L165.413 553.392L108.771 51.5791Z" fill="#D83A40"/>
<path d="M161.837 17.6872C161.46 8.85867 168.31 1.39556 177.139 1.01782V1.01782C185.967 0.640081 193.43 7.49076 193.808 16.3192L215.396 520.858L183.425 522.226L161.837 17.6872Z" fill="#D83A40"/>
<path d="M212.58 35.5878C212.271 26.7566 219.181 19.3475 228.012 19.0391V19.0391C236.843 18.7308 244.252 25.6398 244.56 34.471L262.185 539.163L230.204 540.28L212.58 35.5878Z" fill="#D83A40"/>
<path d="M277.595 22.5075C277.811 13.6736 285.148 6.68735 293.982 6.90324V6.90324C302.815 7.11914 309.802 14.4555 309.586 23.2894L297.248 528.139L265.257 527.357L277.595 22.5075Z" fill="#D83A40"/>
<path d="M336.172 66.2636C337.407 57.5137 345.5 51.4212 354.25 52.6556V52.6556C363 53.89 369.093 61.9839 367.858 70.7338L297.314 570.782L265.628 566.312L336.172 66.2636Z" fill="#D83A40"/>
<path d="M388.917 36.6406C389.823 27.8507 397.684 21.4602 406.474 22.367V22.367C415.264 23.2738 421.655 31.1345 420.748 39.9244L368.925 542.258L337.094 538.975L388.917 36.6406Z" fill="#D83A40"/>
<mask id="path-10-inside-2_161_150" fill="white">
<path d="M80.2217 340.118L396.221 340.67L394.999 1040.67L78.9999 1040.12L80.2217 340.118Z"/>
</mask>
<path d="M80.2217 340.118L396.221 340.67L394.999 1040.67L78.9999 1040.12L80.2217 340.118Z" fill="#D83A40"/>
<path d="M80.2217 340.118L80.2479 325.118L65.2479 325.092L65.2217 340.092L80.2217 340.118ZM396.221 340.67L411.221 340.696L411.247 325.696L396.247 325.67L396.221 340.67ZM80.1955 355.118L396.195 355.67L396.247 325.67L80.2479 325.118L80.1955 355.118ZM381.221 340.644L379.999 1040.64L409.999 1040.7L411.221 340.696L381.221 340.644ZM93.9999 1040.14L95.2217 340.145L65.2217 340.092L64 1040.09L93.9999 1040.14Z" fill="#B82025" mask="url(#path-10-inside-2_161_150)"/>
<path d="M72.6897 358.607L71.5134 1032.6L7.51347 1032.49L8.75958 318.521L72.6897 358.607Z" fill="#A81319" stroke="#A81319" stroke-width="15"/>
<path d="M403.689 359.185L402.513 1033.18L466.513 1033.29L467.759 319.322L403.689 359.185Z" fill="#A81319" stroke="#A81319" stroke-width="15"/>
<path d="M131.251 493.24C134.801 492.509 138.147 492.331 141.289 492.705C144.43 493.08 147.144 493.702 149.431 494.571L152.04 507.147C149.557 506.254 146.94 505.485 144.189 504.839C141.437 504.193 138.47 504.197 135.287 504.852C133.695 505.18 132.155 505.753 130.664 506.57C129.236 507.374 128.102 508.373 127.265 509.567C126.488 510.748 126.259 512.103 126.576 513.633C126.995 515.652 128.2 517 130.191 517.674C132.182 518.349 134.571 518.942 137.358 519.454L145.535 521.025C150.201 521.978 153.817 523.563 156.383 525.779C158.949 527.995 160.581 530.785 161.279 534.151C162.041 537.823 161.642 541.287 160.084 544.543C158.573 547.725 156.208 550.478 152.988 552.8C149.828 555.109 146.106 556.705 141.821 557.587C138.209 558.33 134.623 558.43 131.064 557.887C127.504 557.343 124.316 556.436 121.499 555.166L118.891 542.589C121.991 543.993 125.302 545.034 128.826 545.713C132.35 546.391 135.948 546.353 139.621 545.597C142.192 545.067 144.294 544.124 145.928 542.767C147.549 541.349 148.149 539.63 147.731 537.61C147.401 536.019 146.369 534.891 144.635 534.227C142.95 533.489 141.15 532.966 139.235 532.659L129.016 530.934C123.86 530.081 120.121 528.362 117.797 525.777C115.522 523.119 114.011 519.984 113.262 516.374C112.487 512.641 112.825 509.189 114.274 506.019C115.771 502.776 118.014 500.049 121.002 497.839C123.978 495.567 127.394 494.034 131.251 493.24Z" fill="white"/>
<path d="M183.229 477.235C185.467 477.002 187.478 477.609 189.264 479.057C191.044 480.442 192.048 482.223 192.276 484.399C192.498 486.512 191.885 488.461 190.439 490.245C188.992 492.03 187.15 493.039 184.912 493.272C182.674 493.505 180.662 492.898 178.876 491.45C177.153 489.996 176.18 488.212 175.958 486.098C175.73 483.923 176.311 481.977 177.702 480.261C179.149 478.477 180.991 477.468 183.229 477.235ZM192.703 501.038L197.645 548.123L185.803 549.356L181.918 512.341L174.365 513.128L173.308 503.058L192.703 501.038Z" fill="white"/>
<path d="M235.849 497.883C238.412 497.893 241.003 498.496 243.623 499.694C246.244 500.892 248.425 502.494 250.167 504.501L250.188 499.157L262.094 499.203L261.911 546.546L250.005 546.5L250.036 538.532C248.651 541.089 246.642 543.3 244.01 545.165C241.378 546.967 238.312 547.861 234.812 547.848C230.999 547.833 227.472 546.851 224.229 544.901C221.05 542.951 218.498 540.129 216.575 536.434C214.652 532.739 213.7 528.266 213.72 523.016C213.741 517.766 214.727 513.27 216.679 509.528C218.693 505.785 221.361 502.921 224.681 500.933C228.064 498.884 231.787 497.867 235.849 497.883ZM238.242 509.517C235.742 509.507 233.583 510.155 231.765 511.461C230.01 512.704 228.629 514.355 227.621 516.414C226.613 518.472 226.104 520.689 226.095 523.064C226.082 526.627 227.132 529.662 229.248 532.17C231.425 534.678 234.296 535.94 237.858 535.953C239.983 535.962 241.954 535.407 243.771 534.289C245.65 533.171 247.156 531.614 248.289 529.618C249.484 527.561 250.088 525.094 250.099 522.219L250.125 515.469C248.444 513.65 246.606 512.206 244.61 511.135C242.677 510.065 240.554 509.526 238.242 509.517Z" fill="white"/>
<path d="M300.618 502.36L299.598 508.273C301.323 506.729 303.298 505.387 305.525 504.246C307.812 503.116 310.527 502.82 313.669 503.358C316.934 503.917 319.758 505.193 322.142 507.186C324.536 509.118 326.212 511.719 327.17 514.99C329.453 512.782 331.976 511.026 334.737 509.723C337.51 508.359 340.528 507.956 343.793 508.515C346.935 509.053 349.672 510.282 352.005 512.204C354.348 514.063 356.045 516.541 357.096 519.638C358.209 522.746 358.399 526.424 357.666 530.674L352.726 559.313L340.991 557.304L345.567 530.219C346.109 527.078 345.681 524.596 344.284 522.771C342.947 520.957 340.955 519.823 338.306 519.37C336.273 519.022 334.406 519.368 332.704 520.408C331.013 521.387 329.372 522.628 327.781 524.131L322.602 554.156L310.867 552.147L315.443 525.062C315.985 521.921 315.557 519.438 314.159 517.614C312.823 515.8 310.861 514.671 308.274 514.228C306.303 513.891 304.441 514.206 302.688 515.174C300.946 516.081 299.321 517.229 297.813 518.62L292.57 549.015L280.835 547.006L288.882 500.351L300.618 502.36Z" fill="white"/>
<path d="M189.118 584.832C192.1 584.348 194.891 584.317 197.492 584.738C200.094 585.16 202.33 585.773 204.202 586.578L205.917 597.142C203.883 596.312 201.732 595.579 199.466 594.945C197.2 594.31 194.73 594.21 192.056 594.644C190.72 594.861 189.417 595.284 188.147 595.912C186.928 596.532 185.949 597.324 185.208 598.288C184.519 599.245 184.279 600.365 184.488 601.651C184.763 603.347 185.717 604.511 187.35 605.143C188.983 605.775 190.95 606.353 193.251 606.876L200 608.471C203.849 609.429 206.802 610.876 208.857 612.811C210.912 614.746 212.17 617.128 212.629 619.955C213.13 623.04 212.672 625.911 211.257 628.568C209.885 631.165 207.816 633.374 205.051 635.195C202.338 637.007 199.182 638.206 195.583 638.79C192.55 639.282 189.562 639.24 186.619 638.662C183.676 638.085 181.055 637.218 178.756 636.061L177.041 625.496C179.57 626.774 182.289 627.757 185.197 628.446C188.106 629.134 191.102 629.228 194.187 628.727C196.346 628.377 198.13 627.665 199.539 626.592C200.939 625.468 201.502 624.057 201.226 622.361C201.009 621.024 200.191 620.049 198.773 619.435C197.397 618.761 195.918 618.263 194.335 617.939L185.891 616.144C181.631 615.253 178.581 613.69 176.74 611.456C174.943 609.163 173.799 606.499 173.306 603.466C172.797 600.33 173.203 597.467 174.524 594.879C175.888 592.23 177.853 590.038 180.421 588.302C182.98 586.514 185.879 585.358 189.118 584.832Z" fill="white"/>
<path d="M236.401 574.441C238.276 574.437 239.893 575.111 241.25 576.462C242.607 577.761 243.287 579.322 243.291 581.145C243.295 582.916 242.622 584.48 241.271 585.837C239.919 587.194 238.306 587.875 236.431 587.879C234.556 587.883 232.94 587.21 231.583 585.858C230.278 584.507 229.623 582.946 229.62 581.175C229.615 579.352 230.263 577.788 231.562 576.483C232.913 575.126 234.526 574.446 236.401 574.441ZM242.228 594.975L242.316 634.428L232.394 634.45L232.325 603.435L225.997 603.449L225.978 595.011L242.228 594.975Z" fill="white"/>
<path d="M282.538 597.769C286.342 598.385 289.474 599.736 291.933 601.822C294.443 603.917 296.18 606.546 297.146 609.71C298.17 612.83 298.375 616.293 297.759 620.097L297.085 624.262L268.859 619.693C268.948 622.398 269.893 624.714 271.691 626.641C273.49 628.568 275.88 629.772 278.862 630.255C281.69 630.713 284.352 630.563 286.849 629.807C289.346 629.05 291.384 628.193 292.963 627.235L291.413 636.323C290.004 637.203 287.975 638.009 285.324 638.74C282.732 639.429 279.971 639.536 277.041 639.062C273.185 638.438 269.804 636.993 266.9 634.729C264.046 632.474 261.914 629.675 260.503 626.334C259.143 623.001 258.779 619.38 259.412 615.473C260.027 611.668 261.438 608.335 263.642 605.474C265.846 602.612 268.593 600.471 271.883 599.052C275.182 597.581 278.733 597.153 282.538 597.769ZM280.921 606.292C278.504 605.901 276.353 606.317 274.466 607.542C272.579 608.767 271.124 610.589 270.099 613.008L288.762 616.029C289.006 613.22 288.311 610.997 286.676 609.36C285.05 607.673 283.131 606.65 280.921 606.292Z" fill="white"/>
<path d="M163.974 415.054L165.05 419.052L160.109 420.383L164.162 435.433L159.372 436.723L155.319 421.673L152.415 422.455L151.338 418.457L154.242 417.675L153.785 415.977C153.392 414.519 153.359 413.193 153.685 411.999C154.029 410.774 154.63 409.749 155.487 408.925C156.343 408.101 157.375 407.527 158.582 407.201C159.387 406.985 160.115 406.883 160.766 406.897C161.417 406.91 162.009 407.007 162.543 407.187L163.62 411.185C162.654 410.905 161.634 410.924 160.56 411.24C159.812 411.469 159.239 411.893 158.839 412.513C158.433 413.107 158.372 413.933 158.657 414.989L159.033 416.385L163.974 415.054Z" fill="white"/>
<path d="M183.358 410.449C185.254 410.105 187.068 410.253 188.798 410.893C190.523 411.507 192.002 412.509 193.233 413.901C194.485 415.262 195.285 416.903 195.633 418.825C195.981 420.747 195.808 422.565 195.113 424.279C194.443 425.988 193.41 427.445 192.014 428.651C190.613 429.831 188.965 430.592 187.069 430.936C185.198 431.275 183.387 431.14 181.636 430.53C179.906 429.891 178.427 428.889 177.201 427.523C175.974 426.157 175.187 424.513 174.839 422.591C174.491 420.669 174.652 418.854 175.321 417.145C175.986 415.41 177.019 413.952 178.42 412.773C179.841 411.562 181.488 410.788 183.358 410.449ZM184.214 415.177C183.292 415.344 182.473 415.717 181.757 416.297C181.042 416.876 180.515 417.62 180.177 418.528C179.864 419.432 179.814 420.473 180.028 421.651C180.241 422.83 180.653 423.788 181.263 424.524C181.898 425.256 182.652 425.768 183.526 426.06C184.394 426.326 185.29 426.375 186.212 426.208C187.135 426.041 187.956 425.681 188.676 425.127C189.392 424.547 189.919 423.803 190.257 422.895C190.595 421.987 190.658 420.944 190.444 419.765C190.231 418.586 189.806 417.631 189.171 416.899C188.536 416.167 187.781 415.655 186.908 415.364C186.035 415.072 185.137 415.01 184.214 415.177Z" fill="white"/>
<path d="M218.224 412.058C217.351 411.669 216.46 411.517 215.553 411.603C214.412 411.71 213.501 412.175 212.82 412.997C212.136 413.794 211.56 414.763 211.092 415.906L212.122 426.873L207.183 427.337L205.338 407.697L210.277 407.233L210.624 410.928C211.189 409.698 211.888 408.651 212.723 407.788C213.583 406.923 214.597 406.435 215.763 406.325C216.463 406.26 217.109 406.317 217.702 406.497L218.224 412.058Z" fill="white"/>
<path d="M235.44 400.085L235.553 405.826L241.021 405.718L241.102 409.858L235.634 409.966L235.802 418.48C235.819 419.365 236.028 420.064 236.429 420.577C236.855 421.063 237.472 421.299 238.279 421.283C238.982 421.269 239.579 421.179 240.071 421.013C240.589 420.847 241.066 420.616 241.503 420.321L241.58 424.266C241.095 424.77 240.479 425.199 239.73 425.552C239.008 425.905 238.087 426.092 236.967 426.114C235.197 426.149 233.741 425.618 232.599 424.52C231.483 423.396 230.906 421.845 230.867 419.866L230.674 410.063L227.12 410.133L227.071 407.594C228.312 407.127 229.441 406.271 230.458 405.027C231.502 403.782 232.316 402.152 232.902 400.134L235.44 400.085Z" fill="white"/>
<path d="M270.103 407.038L269.329 418.771C269.214 420.512 268.725 421.993 267.861 423.215C266.999 424.411 265.87 425.302 264.475 425.888C263.105 426.476 261.575 426.715 259.886 426.603C258.171 426.49 256.661 426.051 255.354 425.286C254.073 424.523 253.084 423.492 252.387 422.194C251.717 420.871 251.44 419.339 251.555 417.598L252.329 405.865L257.318 406.195L256.642 417.033C256.541 418.566 256.816 419.733 257.468 420.533C258.12 421.332 259.031 421.771 260.2 421.848C261.343 421.924 262.291 421.608 263.042 420.9C263.819 420.195 264.259 419.075 264.36 417.542L265.075 406.706L270.103 407.038Z" fill="white"/>
<path d="M287.966 409.291L287.515 412.067C288.236 411.366 289.154 410.751 290.269 410.22C291.41 409.693 292.636 409.536 293.947 409.75C295.926 410.072 297.475 411.01 298.595 412.564C299.714 414.118 300.056 416.231 299.621 418.904L297.676 430.857L292.78 430.06L294.579 418.757C294.792 417.446 294.63 416.417 294.092 415.67C293.58 414.927 292.771 414.466 291.666 414.286C290.792 414.144 289.923 414.292 289.06 414.733C288.223 415.177 287.471 415.74 286.806 416.424L284.799 428.762L279.902 427.965L283.07 408.494L287.966 409.291Z" fill="white"/>
<path d="M321.489 415.67C323.354 416.157 324.849 416.977 325.974 418.132C327.125 419.293 327.865 420.683 328.197 422.304C328.559 423.905 328.498 425.639 328.012 427.503L327.479 429.545L313.645 425.938C313.562 427.289 313.923 428.486 314.727 429.53C315.531 430.574 316.664 431.287 318.126 431.668C319.512 432.029 320.844 432.08 322.122 431.821C323.401 431.563 324.456 431.232 325.287 430.83L324.087 435.28C323.344 435.652 322.296 435.957 320.941 436.196C319.619 436.417 318.24 436.34 316.803 435.965C314.913 435.472 313.299 434.594 311.96 433.33C310.646 432.072 309.717 430.579 309.172 428.849C308.653 427.126 308.642 425.306 309.142 423.391C309.628 421.526 310.487 419.934 311.72 418.614C312.952 417.293 314.42 416.357 316.125 415.806C317.836 415.23 319.624 415.184 321.489 415.67ZM320.282 419.837C319.097 419.528 318.007 419.634 317.01 420.154C316.013 420.675 315.202 421.513 314.578 422.669L323.725 425.054C323.979 423.667 323.738 422.527 323.002 421.636C322.272 420.719 321.365 420.119 320.282 419.837Z" fill="white"/>
</svg>
