<svg width="474" height="1087" viewBox="0 0 474 1087" fill="none" xmlns="http://www.w3.org/2000/svg">
<mask id="path-1-inside-1_165_335" fill="white">
<path fill-rule="evenodd" clip-rule="evenodd" d="M0 352L79.1091 401.443V402H394.899V401.438L474 352L394.899 302.562V302H394H80H79.1091V302.557L0 352Z"/>
</mask>
<path fill-rule="evenodd" clip-rule="evenodd" d="M0 352L79.1091 401.443V402H394.899V401.438L474 352L394.899 302.562V302H394H80H79.1091V302.557L0 352Z" fill="#4C0406"/>
<path d="M79.1091 401.443H94.1091V393.129L87.0591 388.723L79.1091 401.443ZM0 352L-7.94997 339.28L-28.302 352L-7.94997 364.72L0 352ZM79.1091 402H64.1091V417H79.1091V402ZM394.899 402V417H409.899V402H394.899ZM394.899 401.438L386.949 388.718L379.899 393.125V401.438H394.899ZM474 352L481.95 364.72L502.302 352L481.95 339.28L474 352ZM394.899 302.562H379.899V310.876L386.949 315.282L394.899 302.562ZM394.899 302H409.899V287H394.899V302ZM79.1091 302V287H64.1091V302H79.1091ZM79.1091 302.557L87.0591 315.277L94.1091 310.871V302.557H79.1091ZM87.0591 388.723L7.94997 339.28L-7.94997 364.72L71.1591 414.163L87.0591 388.723ZM94.1091 402V401.443H64.1091V402H94.1091ZM394.899 387H79.1091V417H394.899V387ZM379.899 401.438V402H409.899V401.438H379.899ZM402.849 414.158L481.95 364.72L466.05 339.28L386.949 388.718L402.849 414.158ZM481.95 339.28L402.849 289.842L386.949 315.282L466.05 364.72L481.95 339.28ZM379.899 302V302.562H409.899V302H379.899ZM394 317H394.899V287H394V317ZM80 317H394V287H80V317ZM79.1091 317H80V287H79.1091V317ZM94.1091 302.557V302H64.1091V302.557H94.1091ZM7.94997 364.72L87.0591 315.277L71.1591 289.837L-7.94997 339.28L7.94997 364.72Z" fill="#B82025" mask="url(#path-1-inside-1_165_335)"/>
<path d="M48.574 68.0245C47.3331 59.2756 53.4196 51.1771 62.1686 49.9362V49.9362C70.9176 48.6953 79.016 54.7818 80.2569 63.5308L151.175 563.526L119.492 568.02L48.574 68.0245Z" fill="#D83A40"/>
<path d="M104.96 95.7994C103.878 87.0294 110.109 79.0424 118.879 77.9599V77.9599C127.65 76.8775 135.637 83.1094 136.719 91.8794L198.581 593.076L166.822 596.996L104.96 95.7994Z" fill="#D83A40"/>
<path d="M158.794 59.5689C158.356 50.7432 165.155 43.233 173.98 42.7943V42.7943C182.806 42.3556 190.316 49.1546 190.755 57.9802L215.826 562.358L183.865 563.946L158.794 59.5689Z" fill="#D83A40"/>
<path d="M209.554 17.3729C209.184 8.54412 216.041 1.08703 224.87 0.71704V0.71704C233.699 0.347052 241.156 7.20428 241.526 16.0331L262.67 520.59L230.698 521.93L209.554 17.3729Z" fill="#D83A40"/>
<path d="M277.097 63.994C277.344 55.1609 284.705 48.2002 293.538 48.4469V48.4469C302.371 48.6936 309.332 56.0542 309.085 64.8873L294.988 569.691L263 568.797L277.097 63.994Z" fill="#D83A40"/>
<path d="M336.195 109.831C337.475 101.088 345.601 95.0385 354.345 96.3193V96.3193C363.088 97.6001 369.137 105.726 367.857 114.469L294.662 614.137L263 609.499L336.195 109.831Z" fill="#D83A40"/>
<path d="M385.468 77.9294C386.298 69.132 394.103 62.6736 402.901 63.5042V63.5042C411.698 64.3348 418.157 72.1398 417.326 80.9373L369.858 583.701L338 580.694L385.468 77.9294Z" fill="#D83A40"/>
<mask id="path-10-inside-2_165_335" fill="white">
<path d="M79 387H395V1087H79V387Z"/>
</mask>
<path d="M79 387H395V1087H79V387Z" fill="#D83A40"/>
<path d="M79 387V372H64V387H79ZM395 387H410V372H395V387ZM79 402H395V372H79V402ZM380 387V1087H410V387H380ZM94 1087V387H64V1087H94Z" fill="#B82025" mask="url(#path-10-inside-2_165_335)"/>
<path d="M71.5 405.502V1079.5H7.5V365.528L71.5 405.502Z" fill="#A81319" stroke="#A81319" stroke-width="15"/>
<path d="M402.5 405.502V1079.5H466.5V365.528L402.5 405.502Z" fill="#A81319" stroke="#A81319" stroke-width="15"/>
<path d="M130.296 540.033C133.845 539.296 137.191 539.112 140.333 539.481C143.475 539.849 146.19 540.467 148.478 541.332L151.109 553.903C148.624 553.015 146.006 552.25 143.254 551.609C140.501 550.968 137.534 550.977 134.352 551.638C132.761 551.969 131.221 552.544 129.733 553.363C128.305 554.171 127.174 555.172 126.338 556.366C125.564 557.548 125.337 558.904 125.657 560.434C126.079 562.452 127.286 563.798 129.279 564.469C131.271 565.14 133.661 565.729 136.449 566.236L144.628 567.792C149.296 568.738 152.915 570.316 155.485 572.528C158.054 574.739 159.691 577.527 160.395 580.891C161.163 584.562 160.771 588.027 159.218 591.285C157.713 594.47 155.353 597.227 152.136 599.554C148.981 601.869 145.262 603.471 140.978 604.361C137.367 605.111 133.782 605.217 130.221 604.68C126.661 604.142 123.471 603.241 120.652 601.975L118.022 589.404C121.124 590.802 124.437 591.837 127.962 592.51C131.487 593.182 135.086 593.137 138.757 592.375C141.327 591.841 143.428 590.894 145.059 589.534C146.677 588.113 147.275 586.393 146.853 584.374C146.52 582.783 145.486 581.658 143.752 580.996C142.065 580.261 140.264 579.742 138.349 579.437L128.126 577.73C122.969 576.886 119.227 575.174 116.899 572.593C114.619 569.939 113.102 566.807 112.347 563.198C111.566 559.466 111.897 556.014 113.341 552.842C114.833 549.596 117.071 546.865 120.055 544.649C123.027 542.372 126.44 540.834 130.296 540.033Z" fill="white"/>
<path d="M182.246 523.937C184.483 523.7 186.496 524.303 188.285 525.748C190.067 527.131 191.074 528.909 191.306 531.085C191.531 533.198 190.922 535.148 189.479 536.935C188.035 538.722 186.195 539.734 183.957 539.971C181.72 540.208 179.707 539.604 177.918 538.159C176.192 536.708 175.216 534.926 174.991 532.813C174.759 530.638 175.337 528.691 176.725 526.973C178.168 525.186 180.009 524.174 182.246 523.937ZM191.762 547.723L196.786 594.799L184.946 596.053L180.996 559.045L173.445 559.845L172.37 549.777L191.762 547.723Z" fill="white"/>
<path d="M234.902 544.493C237.465 544.498 240.057 545.098 242.679 546.291C245.302 547.484 247.486 549.082 249.232 551.086L249.243 545.742L261.149 545.767L261.049 593.111L249.142 593.086L249.159 585.117C247.779 587.676 245.774 589.891 243.145 591.76C240.516 593.567 237.452 594.467 233.952 594.46C230.14 594.452 226.61 593.476 223.364 591.531C220.181 589.587 217.625 586.769 215.695 583.077C213.765 579.386 212.806 574.915 212.817 569.665C212.828 564.415 213.807 559.917 215.752 556.171C217.76 552.425 220.423 549.556 223.739 547.563C227.119 545.508 230.84 544.484 234.902 544.493ZM237.315 556.123C234.815 556.118 232.657 556.769 230.842 558.078C229.089 559.324 227.711 560.978 226.706 563.038C225.702 565.099 225.197 567.316 225.192 569.691C225.185 573.254 226.241 576.287 228.36 578.792C230.543 581.296 233.415 582.552 236.977 582.56C239.102 582.564 241.072 582.006 242.887 580.885C244.765 579.764 246.268 578.204 247.397 576.207C248.589 574.147 249.188 571.679 249.194 568.804L249.208 562.054C247.525 560.238 245.684 558.797 243.686 557.73C241.751 556.664 239.627 556.128 237.315 556.123Z" fill="white"/>
<path d="M299.678 548.857L298.668 554.772C300.391 553.225 302.364 551.88 304.588 550.735C306.874 549.601 309.589 549.3 312.731 549.832C315.997 550.386 318.824 551.657 321.21 553.646C323.608 555.573 325.288 558.172 326.252 561.441C328.532 559.228 331.051 557.468 333.811 556.161C336.581 554.792 339.598 554.384 342.864 554.937C346.007 555.469 348.746 556.694 351.082 558.611C353.428 560.467 355.13 562.942 356.187 566.037C357.305 569.142 357.502 572.82 356.776 577.071L351.886 605.72L340.147 603.731L344.676 576.638C345.213 573.496 344.78 571.014 343.38 569.192C342.04 567.38 340.046 566.25 337.396 565.801C335.362 565.457 333.496 565.806 331.796 566.849C330.107 567.831 328.468 569.075 326.879 570.581L321.753 600.615L310.014 598.626L314.543 571.534C315.08 568.392 314.647 565.909 313.246 564.087C311.907 562.276 309.943 561.151 307.355 560.712C305.383 560.378 303.522 560.697 301.771 561.668C300.031 562.578 298.408 563.729 296.902 565.122L291.712 595.526L279.973 593.537L287.939 546.869L299.678 548.857Z" fill="white"/>
<path d="M188.323 631.523C191.304 631.034 194.095 630.998 196.697 631.415C199.299 631.832 201.537 632.442 203.41 633.243L205.144 643.804C203.108 642.977 200.956 642.249 198.689 641.618C196.421 640.987 193.951 640.891 191.278 641.33C189.942 641.549 188.64 641.974 187.371 642.605C186.153 643.227 185.175 644.021 184.437 644.987C183.749 645.944 183.511 647.065 183.722 648.35C184 650.046 184.957 651.208 186.59 651.838C188.224 652.467 190.192 653.041 192.494 653.56L199.246 655.144C203.097 656.095 206.052 657.536 208.111 659.468C210.17 661.4 211.431 663.779 211.895 666.606C212.401 669.689 211.949 672.561 210.538 675.22C209.17 677.82 207.106 680.033 204.344 681.858C201.634 683.675 198.48 684.879 194.882 685.47C191.85 685.968 188.862 685.93 185.918 685.358C182.973 684.786 180.351 683.923 178.051 682.77L176.317 672.208C178.848 673.482 181.569 674.46 184.478 675.144C187.388 675.827 190.385 675.916 193.468 675.41C195.627 675.055 197.41 674.341 198.817 673.265C200.215 672.138 200.775 670.727 200.497 669.031C200.277 667.695 199.458 666.721 198.038 666.109C196.661 665.438 195.181 664.942 193.598 664.621L185.151 662.841C180.889 661.957 177.836 660.4 175.992 658.169C174.191 655.879 173.041 653.217 172.544 650.185C172.029 647.05 172.43 644.187 173.746 641.595C175.106 638.944 177.067 636.749 179.632 635.008C182.188 633.216 185.085 632.055 188.323 631.523Z" fill="white"/>
<path d="M235.589 621.05C237.464 621.043 239.081 621.713 240.44 623.062C241.8 624.359 242.483 625.919 242.49 627.742C242.497 629.512 241.826 631.078 240.478 632.437C239.129 633.797 237.517 634.48 235.642 634.488C233.767 634.495 232.15 633.824 230.79 632.476C229.483 631.127 228.826 629.567 228.819 627.796C228.811 625.973 229.456 624.408 230.753 623.101C232.102 621.741 233.714 621.058 235.589 621.05ZM241.451 641.574L241.608 681.027L231.686 681.066L231.563 650.051L225.235 650.076L225.202 641.639L241.451 641.574Z" fill="white"/>
<path d="M281.765 644.297C285.57 644.906 288.704 646.252 291.167 648.334C293.68 650.424 295.423 653.05 296.393 656.212C297.424 659.331 297.634 662.793 297.025 666.599L296.358 670.765L268.124 666.245C268.219 668.95 269.167 671.265 270.969 673.188C272.771 675.112 275.163 676.312 278.146 676.79C280.974 677.243 283.636 677.089 286.132 676.328C288.627 675.567 290.664 674.706 292.242 673.745L290.707 682.836C289.3 683.718 287.272 684.528 284.622 685.264C282.032 685.957 279.271 686.069 276.34 685.6C272.483 684.982 269.1 683.544 266.191 681.285C263.334 679.034 261.197 676.239 259.78 672.901C258.414 669.57 258.044 665.95 258.67 662.042C259.279 658.236 260.683 654.9 262.882 652.035C265.082 649.169 267.825 647.024 271.113 645.599C274.408 644.122 277.959 643.688 281.765 644.297ZM280.163 652.823C277.745 652.436 275.595 652.857 273.71 654.085C271.826 655.313 270.373 657.137 269.353 659.558L288.021 662.547C288.26 659.737 287.561 657.515 285.924 655.881C284.294 654.197 282.374 653.177 280.163 652.823Z" fill="white"/>
<path d="M162.883 461.79L163.966 465.786L159.028 467.125L163.107 482.168L158.319 483.466L154.239 468.424L151.337 469.211L150.253 465.215L153.156 464.427L152.696 462.731C152.3 461.273 152.265 459.947 152.588 458.753C152.931 457.527 153.529 456.501 154.385 455.676C155.24 454.85 156.271 454.274 157.477 453.947C158.282 453.729 159.009 453.626 159.66 453.638C160.311 453.65 160.904 453.746 161.438 453.925L162.522 457.921C161.556 457.644 160.536 457.664 159.462 457.982C158.715 458.212 158.142 458.637 157.744 459.257C157.339 459.853 157.279 460.678 157.566 461.734L157.944 463.129L162.883 461.79Z" fill="white"/>
<path d="M182.259 457.151C184.154 456.804 185.968 456.949 187.699 457.585C189.426 458.196 190.906 459.196 192.14 460.585C193.394 461.944 194.197 463.584 194.549 465.506C194.9 467.427 194.73 469.245 194.037 470.96C193.371 472.67 192.34 474.13 190.947 475.338C189.548 476.52 187.901 477.285 186.005 477.631C184.135 477.973 182.324 477.841 180.572 477.235C178.84 476.599 177.36 475.599 176.131 474.235C174.902 472.872 174.112 471.229 173.761 469.308C173.409 467.387 173.567 465.571 174.234 463.861C174.896 462.125 175.926 460.666 177.324 459.483C178.744 458.27 180.389 457.493 182.259 457.151ZM183.123 461.877C182.201 462.046 181.383 462.421 180.668 463.001C179.954 463.582 179.428 464.327 179.092 465.236C178.78 466.14 178.733 467.181 178.948 468.359C179.164 469.538 179.577 470.494 180.188 471.23C180.825 471.961 181.58 472.471 182.454 472.761C183.323 473.026 184.218 473.074 185.141 472.905C186.063 472.736 186.883 472.375 187.603 471.819C188.317 471.239 188.843 470.494 189.179 469.585C189.516 468.676 189.577 467.633 189.361 466.454C189.146 465.276 188.72 464.322 188.083 463.591C187.446 462.86 186.691 462.35 185.817 462.059C184.944 461.769 184.046 461.708 183.123 461.877Z" fill="white"/>
<path d="M217.127 458.699C216.253 458.312 215.362 458.162 214.455 458.248C213.314 458.358 212.404 458.824 211.724 459.648C211.042 460.445 210.468 461.416 210.002 462.559L211.051 473.525L206.112 473.997L204.234 454.361L209.172 453.888L209.525 457.582C210.088 456.351 210.785 455.303 211.618 454.439C212.477 453.572 213.49 453.082 214.656 452.971C215.356 452.904 216.003 452.96 216.595 453.139L217.127 458.699Z" fill="white"/>
<path d="M234.322 446.696L234.445 452.437L239.912 452.32L240.001 456.459L234.534 456.576L234.716 465.09C234.735 465.975 234.945 466.674 235.346 467.186C235.774 467.672 236.391 467.906 237.198 467.889C237.901 467.874 238.498 467.783 238.989 467.616C239.507 467.449 239.984 467.217 240.42 466.921L240.504 470.866C240.02 471.371 239.404 471.801 238.657 472.156C237.935 472.51 237.014 472.699 235.895 472.723C234.124 472.761 232.667 472.232 231.524 471.136C230.406 470.014 229.826 468.463 229.783 466.485L229.574 456.682L226.02 456.758L225.966 454.22C227.206 453.75 228.334 452.893 229.349 451.647C230.39 450.4 231.202 448.768 231.784 446.75L234.322 446.696Z" fill="white"/>
<path d="M268.998 453.589L268.244 465.323C268.132 467.064 267.645 468.546 266.784 469.769C265.924 470.967 264.797 471.86 263.402 472.449C262.033 473.039 260.504 473.28 258.815 473.172C257.1 473.062 255.588 472.625 254.28 471.863C252.998 471.102 252.007 470.073 251.308 468.775C250.636 467.453 250.356 465.922 250.468 464.181L251.222 452.447L256.211 452.768L255.554 463.607C255.456 465.14 255.733 466.307 256.386 467.105C257.04 467.904 257.951 468.341 259.121 468.416C260.264 468.489 261.211 468.172 261.961 467.463C262.737 466.756 263.174 465.636 263.273 464.103L263.969 453.266L268.998 453.589Z" fill="white"/>
<path d="M286.865 455.81L286.419 458.587C287.138 457.885 288.055 457.268 289.17 456.735C290.31 456.206 291.536 456.047 292.847 456.258C294.827 456.577 296.377 457.512 297.499 459.064C298.621 460.617 298.967 462.73 298.537 465.403L296.613 477.359L291.715 476.571L293.495 465.265C293.706 463.954 293.541 462.925 293.002 462.179C292.488 461.437 291.679 460.977 290.573 460.799C289.699 460.658 288.831 460.808 287.968 461.25C287.132 461.696 286.381 462.261 285.717 462.945L283.732 475.286L278.834 474.498L281.968 455.022L286.865 455.81Z" fill="white"/>
<path d="M320.398 462.131C322.264 462.614 323.76 463.432 324.888 464.584C326.04 465.744 326.783 467.133 327.117 468.753C327.483 470.354 327.424 472.087 326.941 473.953L326.413 475.995L312.572 472.412C312.491 473.763 312.854 474.96 313.66 476.003C314.466 477.045 315.601 477.756 317.063 478.134C318.449 478.493 319.782 478.542 321.06 478.281C322.338 478.02 323.392 477.688 324.223 477.284L323.03 481.737C322.288 482.109 321.24 482.417 319.886 482.658C318.564 482.881 317.185 482.806 315.748 482.434C313.857 481.945 312.241 481.069 310.9 479.807C309.584 478.552 308.652 477.06 308.104 475.331C307.582 473.609 307.568 471.79 308.064 469.873C308.547 468.008 309.404 466.414 310.634 465.091C311.864 463.769 313.331 462.83 315.034 462.276C316.745 461.697 318.533 461.648 320.398 462.131ZM319.198 466.299C318.013 465.993 316.923 466.101 315.927 466.623C314.931 467.145 314.122 467.985 313.499 469.142L322.651 471.511C322.902 470.123 322.659 468.984 321.921 468.094C321.19 467.178 320.282 466.58 319.198 466.299Z" fill="white"/>
</svg>
