<svg width="480" height="1044" viewBox="0 0 480 1044" fill="none" xmlns="http://www.w3.org/2000/svg">
<mask id="path-1-inside-1_161_2" fill="white">
<path fill-rule="evenodd" clip-rule="evenodd" d="M3.9423 305.54L82.7914 355.397L82.7885 355.954L398.574 357.608L398.577 357.046L477.936 308.022L399.094 258.171L399.097 257.609L398.199 257.604L84.203 255.96L83.3121 255.955L83.3092 256.512L3.9423 305.54Z"/>
</mask>
<path fill-rule="evenodd" clip-rule="evenodd" d="M3.9423 305.54L82.7914 355.397L82.7885 355.954L398.574 357.608L398.577 357.046L477.936 308.022L399.094 258.171L399.097 257.609L398.199 257.604L84.203 255.96L83.3121 255.955L83.3092 256.512L3.9423 305.54Z" fill="#4C0406"/>
<path d="M82.7914 355.397L97.7912 355.476L97.8348 347.162L90.8079 342.719L82.7914 355.397ZM3.9423 305.54L-3.94096 292.779L-24.3593 305.392L-4.07416 318.219L3.9423 305.54ZM82.7885 355.954L67.7887 355.876L67.7102 370.875L82.71 370.954L82.7885 355.954ZM398.574 357.608L398.495 372.607L413.495 372.686L413.573 357.686L398.574 357.608ZM398.577 357.046L390.693 344.284L383.62 348.654L383.577 356.967L398.577 357.046ZM477.936 308.022L485.819 320.784L506.237 308.17L485.952 295.344L477.936 308.022ZM399.094 258.171L384.094 258.092L384.051 266.406L391.078 270.849L399.094 258.171ZM399.097 257.609L414.097 257.687L414.176 242.688L399.176 242.609L399.097 257.609ZM398.199 257.604L398.277 242.604L398.199 257.604ZM84.203 255.96L84.1245 270.96L84.203 255.96ZM83.3121 255.955L83.3907 240.956L68.3909 240.877L68.3123 255.877L83.3121 255.955ZM83.3092 256.512L91.1925 269.274L98.2655 264.904L98.309 256.591L83.3092 256.512ZM90.8079 342.719L11.9588 292.862L-4.07416 318.219L74.775 368.075L90.8079 342.719ZM97.7883 356.033L97.7912 355.476L67.7916 355.319L67.7887 355.876L97.7883 356.033ZM398.652 342.608L82.8671 340.954L82.71 370.954L398.495 372.607L398.652 342.608ZM383.577 356.967L383.574 357.529L413.573 357.686L413.576 357.124L383.577 356.967ZM406.46 369.807L485.819 320.784L470.053 295.261L390.693 344.284L406.46 369.807ZM485.952 295.344L407.111 245.492L391.078 270.849L469.919 320.7L485.952 295.344ZM384.097 257.53L384.094 258.092L414.094 258.249L414.097 257.687L384.097 257.53ZM398.12 272.604L399.019 272.609L399.176 242.609L398.277 242.604L398.12 272.604ZM84.1245 270.96L398.12 272.604L398.277 242.604L84.2815 240.96L84.1245 270.96ZM83.2336 270.955L84.1245 270.96L84.2815 240.96L83.3907 240.956L83.2336 270.955ZM98.309 256.591L98.3119 256.034L68.3123 255.877L68.3094 256.434L98.309 256.591ZM11.8256 318.302L91.1925 269.274L75.4259 243.751L-3.94096 292.779L11.8256 318.302Z" fill="#B82025" mask="url(#path-1-inside-1_161_2)"/>
<path d="M59.0367 23.8489C58.0257 15.0704 64.3225 7.13436 73.101 6.12331V6.12331C81.8795 5.11226 89.8155 11.409 90.8266 20.1876L148.607 521.871L116.817 525.532L59.0367 23.8489Z" fill="#D83A40"/>
<path d="M111.894 52.5904C110.918 43.8079 117.247 35.8972 126.029 34.9214V34.9214C134.812 33.9456 142.722 40.2742 143.698 49.0567L199.464 550.968L167.66 554.502L111.894 52.5904Z" fill="#D83A40"/>
<path d="M165.923 18.765C165.592 9.93464 172.482 2.5075 181.312 2.17599V2.17599C190.142 1.84448 197.569 8.73414 197.901 17.5645L216.846 522.209L184.869 523.409L165.923 18.765Z" fill="#D83A40"/>
<path d="M218.03 36.8075C217.783 27.9744 224.744 20.6137 233.577 20.367V20.367C242.41 20.1202 249.771 27.0809 250.017 35.914L264.118 540.717L232.13 541.611L218.03 36.8075Z" fill="#D83A40"/>
<path d="M279.957 24.085C280.158 15.2507 287.482 8.25163 296.316 8.45211V8.45211C305.15 8.65259 312.15 15.9767 311.949 24.811L300.492 529.681L268.5 528.955L279.957 24.085Z" fill="#D83A40"/>
<path d="M338.81 67.9286C340.044 59.1787 348.138 53.0861 356.888 54.3205V54.3205C365.638 55.5549 371.73 63.6488 370.496 72.3987L299.952 572.447L268.266 567.977L338.81 67.9286Z" fill="#D83A40"/>
<path d="M394.22 38.6313C395.219 29.8514 403.146 23.5436 411.926 24.5424V24.5424C420.706 25.5412 427.014 33.4684 426.015 42.2483L368.935 544.012L337.14 540.395L394.22 38.6313Z" fill="#D83A40"/>
<mask id="path-10-inside-2_161_2" fill="white">
<path d="M82.7578 340.954L398.753 342.608L395.088 1042.6L79.0926 1040.94L82.7578 340.954Z"/>
</mask>
<path d="M82.7578 340.954L398.753 342.608L395.088 1042.6L79.0926 1040.94L82.7578 340.954Z" fill="#D83A40"/>
<path d="M82.7578 340.954L82.8364 325.954L67.8366 325.875L67.758 340.875L82.7578 340.954ZM398.753 342.608L413.753 342.687L413.832 327.687L398.832 327.608L398.753 342.608ZM82.6793 355.953L398.675 357.608L398.832 327.608L82.8364 325.954L82.6793 355.953ZM383.754 342.53L380.088 1042.52L410.088 1042.68L413.753 342.687L383.754 342.53ZM94.0924 1041.02L97.7576 341.032L67.758 340.875L64.0928 1040.87L94.0924 1041.02Z" fill="#B82025" mask="url(#path-10-inside-2_161_2)"/>
<path d="M75.1613 359.416L71.6322 1033.4L7.63312 1033.07L11.3715 319.107L75.1613 359.416Z" fill="#A81319" stroke="#A81319" stroke-width="15"/>
<path d="M406.156 361.149L402.627 1035.14L466.626 1035.47L470.365 321.51L406.156 361.149Z" fill="#A81319" stroke="#A81319" stroke-width="15"/>
<path d="M133.252 494.253C136.805 493.534 140.152 493.368 143.292 493.753C146.432 494.138 149.144 494.77 151.427 495.647L153.992 508.232C151.512 507.331 148.898 506.552 146.149 505.896C143.4 505.241 140.433 505.235 137.248 505.879C135.655 506.201 134.112 506.768 132.619 507.58C131.187 508.38 130.051 509.375 129.209 510.565C128.428 511.743 128.194 513.098 128.506 514.629C128.918 516.65 130.118 518.001 132.107 518.683C134.096 519.365 136.483 519.966 139.268 520.487L147.439 522.087C152.102 523.057 155.712 524.654 158.27 526.879C160.829 529.103 162.451 531.9 163.137 535.268C163.886 538.943 163.475 542.405 161.905 545.656C160.384 548.833 158.009 551.577 154.781 553.888C151.613 556.186 147.885 557.769 143.597 558.636C139.983 559.367 136.397 559.454 132.839 558.898C129.282 558.342 126.097 557.424 123.284 556.144L120.72 543.558C123.814 544.973 127.123 546.026 130.644 546.717C134.165 547.407 137.764 547.381 141.439 546.638C144.012 546.118 146.118 545.182 147.756 543.83C149.382 542.418 149.988 540.701 149.577 538.68C149.252 537.087 148.224 535.956 146.493 535.286C144.811 534.542 143.013 534.013 141.099 533.699L130.885 531.938C125.733 531.067 121.999 529.335 119.685 526.742C117.419 524.076 115.918 520.936 115.182 517.323C114.421 513.587 114.77 510.137 116.23 506.973C117.739 503.734 119.991 501.015 122.987 498.815C125.971 496.554 129.392 495.033 133.252 494.253Z" fill="white"/>
<path d="M185.286 478.429C187.524 478.203 189.534 478.818 191.315 480.272C193.089 481.664 194.087 483.448 194.308 485.624C194.522 487.738 193.903 489.685 192.45 491.464C190.997 493.244 189.152 494.246 186.913 494.471C184.674 494.697 182.664 494.082 180.884 492.628C179.165 491.168 178.198 489.381 177.984 487.267C177.763 485.09 178.351 483.147 179.748 481.436C181.201 479.656 183.047 478.654 185.286 478.429ZM194.677 502.264L199.455 549.366L187.608 550.559L183.852 513.53L176.296 514.29L175.275 504.217L194.677 502.264Z" fill="white"/>
<path d="M237.834 499.26C240.396 499.279 242.986 499.892 245.602 501.099C248.218 502.305 250.394 503.915 252.129 505.928L252.168 500.584L264.074 500.672L263.726 548.014L251.82 547.927L251.878 539.958C250.485 542.511 248.468 544.715 245.83 546.57C243.191 548.363 240.122 549.247 236.622 549.221C232.81 549.193 229.286 548.199 226.05 546.237C222.877 544.277 220.335 541.445 218.425 537.744C216.515 534.042 215.579 529.566 215.618 524.317C215.656 519.067 216.658 514.574 218.623 510.838C220.651 507.103 223.328 504.248 226.655 502.272C230.045 500.234 233.771 499.23 237.834 499.26ZM240.186 510.903C237.686 510.885 235.525 511.525 233.703 512.824C231.943 514.061 230.556 515.707 229.541 517.762C228.526 519.817 228.01 522.032 227.992 524.407C227.966 527.97 229.006 531.009 231.113 533.524C233.282 536.04 236.147 537.311 239.71 537.338C241.835 537.353 243.808 536.805 245.628 535.694C247.512 534.582 249.023 533.031 250.163 531.039C251.365 528.986 251.977 526.521 251.998 523.646L252.048 516.896C250.374 515.072 248.541 513.621 246.549 512.543C244.619 511.467 242.498 510.92 240.186 510.903Z" fill="white"/>
<path d="M302.586 503.964L301.546 509.873C303.276 508.335 305.257 507 307.487 505.867C309.779 504.745 312.494 504.458 315.634 505.007C318.897 505.577 321.717 506.863 324.093 508.865C326.481 510.805 328.148 513.412 329.094 516.687C331.385 514.486 333.914 512.739 336.68 511.446C339.457 510.091 342.477 509.699 345.74 510.269C348.88 510.818 351.613 512.057 353.939 513.987C356.275 515.854 357.964 518.338 359.004 521.439C360.107 524.55 360.284 528.229 359.536 532.476L354.496 561.099L342.768 559.049L347.439 531.98C347.991 528.841 347.572 526.356 346.181 524.527C344.851 522.708 342.863 521.568 340.215 521.105C338.183 520.75 336.315 521.089 334.61 522.124C332.915 523.097 331.27 524.332 329.674 525.829L324.39 555.836L312.662 553.786L317.333 526.718C317.885 523.578 317.466 521.094 316.075 519.265C314.745 517.446 312.787 516.311 310.201 515.859C308.231 515.514 306.368 515.823 304.612 516.785C302.867 517.686 301.238 518.829 299.725 520.214L294.376 550.59L282.648 548.54L290.858 501.914L302.586 503.964Z" fill="white"/>
<path d="M190.799 586.046C193.782 585.572 196.574 585.551 199.174 585.982C201.773 586.413 204.008 587.033 205.877 587.844L207.555 598.415C205.524 597.577 203.376 596.837 201.112 596.195C198.847 595.552 196.378 595.443 193.703 595.868C192.366 596.08 191.061 596.498 189.789 597.122C188.568 597.738 187.586 598.527 186.842 599.489C186.15 600.442 185.906 601.562 186.11 602.848C186.379 604.546 187.329 605.713 188.96 606.351C190.591 606.988 192.556 607.573 194.855 608.104L201.598 609.723C205.444 610.695 208.391 612.152 210.44 614.094C212.489 616.036 213.738 618.422 214.187 621.251C214.677 624.337 214.21 627.207 212.785 629.859C211.404 632.451 209.327 634.653 206.556 636.464C203.836 638.267 200.676 639.454 197.076 640.026C194.041 640.508 191.053 640.455 188.112 639.867C185.171 639.279 182.553 638.403 180.258 637.238L178.58 626.667C181.105 627.954 183.82 628.947 186.726 629.646C189.632 630.344 192.628 630.449 195.714 629.959C197.875 629.616 199.661 628.91 201.074 627.842C202.478 626.723 203.046 625.314 202.776 623.617C202.564 622.279 201.749 621.301 200.332 620.682C198.959 620.004 197.482 619.5 195.9 619.171L187.463 617.347C183.205 616.441 180.161 614.867 178.328 612.627C176.539 610.327 175.404 607.659 174.922 604.625C174.424 601.487 174.84 598.626 176.17 596.041C177.543 593.398 179.516 591.212 182.09 589.485C184.655 587.707 187.558 586.56 190.799 586.046Z" fill="white"/>
<path d="M238.119 575.82C239.994 575.823 241.607 576.502 242.96 577.858C244.312 579.162 244.987 580.725 244.985 582.548C244.983 584.319 244.304 585.88 242.948 587.233C241.592 588.585 239.977 589.26 238.102 589.258C236.227 589.256 234.613 588.576 233.26 587.221C231.96 585.865 231.311 584.301 231.313 582.531C231.316 580.708 231.969 579.146 233.272 577.846C234.628 576.493 236.244 575.818 238.119 575.82ZM243.874 596.375L243.824 635.828L233.902 635.815L233.941 604.8L227.613 604.792L227.624 596.354L243.874 596.375Z" fill="white"/>
<path d="M284.173 599.309C287.976 599.938 291.103 601.3 293.554 603.395C296.057 605.498 297.785 608.133 298.739 611.3C299.753 614.425 299.946 617.888 299.317 621.69L298.628 625.852L270.418 621.185C270.498 623.891 271.434 626.21 273.226 628.143C275.018 630.076 277.404 631.289 280.384 631.782C283.21 632.25 285.873 632.11 288.372 631.362C290.872 630.614 292.913 629.764 294.496 628.811L292.914 637.894C291.502 638.769 289.47 639.568 286.816 640.29C284.222 640.969 281.461 641.067 278.532 640.582C274.678 639.945 271.303 638.489 268.406 636.215C265.561 633.949 263.438 631.143 262.039 627.797C260.69 624.459 260.339 620.837 260.985 616.932C261.615 613.13 263.036 609.801 265.251 606.948C267.465 604.094 270.219 601.963 273.514 600.554C276.818 599.095 280.371 598.68 284.173 599.309ZM282.526 607.826C280.111 607.427 277.958 607.836 276.067 609.054C274.177 610.272 272.715 612.089 271.681 614.505L290.334 617.591C290.588 614.782 289.9 612.557 288.271 610.915C286.651 609.221 284.736 608.192 282.526 607.826Z" fill="white"/>
<path d="M166.248 416.181L167.31 420.183L162.365 421.497L166.365 436.56L161.57 437.834L157.57 422.77L154.663 423.542L153.6 419.54L156.507 418.768L156.056 417.069C155.668 415.609 155.639 414.283 155.969 413.091C156.318 411.867 156.922 410.844 157.782 410.023C158.642 409.202 159.675 408.631 160.884 408.31C161.689 408.096 162.417 407.997 163.068 408.013C163.719 408.029 164.311 408.127 164.844 408.309L165.907 412.311C164.943 412.028 163.923 412.043 162.847 412.356C162.099 412.581 161.524 413.003 161.122 413.622C160.714 414.215 160.65 415.041 160.931 416.098L161.302 417.495L166.248 416.181Z" fill="white"/>
<path d="M185.647 411.644C187.545 411.307 189.357 411.461 191.085 412.107C192.809 412.727 194.284 413.734 195.51 415.13C196.758 416.495 197.552 418.14 197.893 420.063C198.235 421.986 198.055 423.803 197.353 425.514C196.678 427.221 195.64 428.675 194.24 429.876C192.835 431.051 191.184 431.807 189.286 432.144C187.415 432.476 185.604 432.334 183.855 431.719C182.127 431.074 180.652 430.066 179.431 428.696C178.209 427.326 177.427 425.679 177.086 423.756C176.744 421.833 176.912 420.018 177.587 418.312C178.258 416.579 179.296 415.125 180.701 413.95C182.127 412.745 183.776 411.976 185.647 411.644ZM186.487 416.375C185.564 416.538 184.744 416.909 184.026 417.486C183.309 418.063 182.779 418.805 182.438 419.712C182.122 420.614 182.069 421.655 182.278 422.835C182.487 424.014 182.896 424.973 183.503 425.712C184.136 426.446 184.888 426.96 185.761 427.255C186.628 427.524 187.524 427.577 188.447 427.413C189.37 427.249 190.192 426.891 190.914 426.34C191.632 425.763 192.161 425.021 192.503 424.114C192.844 423.207 192.91 422.164 192.701 420.984C192.492 419.805 192.071 418.848 191.438 418.114C190.805 417.38 190.052 416.866 189.18 416.571C188.308 416.276 187.41 416.211 186.487 416.375Z" fill="white"/>
<path d="M220.508 413.375C219.636 412.983 218.746 412.828 217.838 412.91C216.697 413.013 215.784 413.475 215.1 414.295C214.413 415.089 213.834 416.057 213.362 417.197L214.354 428.168L209.413 428.615L207.637 408.969L212.578 408.522L212.912 412.218C213.481 410.99 214.184 409.946 215.021 409.085C215.884 408.223 216.9 407.739 218.067 407.633C218.767 407.57 219.413 407.629 220.005 407.811L220.508 413.375Z" fill="white"/>
<path d="M237.765 401.461L237.858 407.203L243.326 407.115L243.393 411.255L237.925 411.343L238.062 419.857C238.077 420.743 238.283 421.443 238.682 421.957C239.107 422.445 239.723 422.683 240.53 422.67C241.233 422.658 241.831 422.57 242.323 422.406C242.841 422.242 243.319 422.012 243.757 421.719L243.821 425.664C243.334 426.166 242.716 426.593 241.966 426.944C241.243 427.294 240.321 427.478 239.202 427.496C237.431 427.525 235.977 426.988 234.839 425.887C233.727 424.759 233.155 423.205 233.123 421.226L232.965 411.423L229.41 411.48L229.369 408.942C230.612 408.479 231.744 407.627 232.766 406.387C233.814 405.146 234.634 403.517 235.227 401.502L237.765 401.461Z" fill="white"/>
<path d="M272.405 408.536L271.59 420.266C271.469 422.006 270.974 423.486 270.106 424.705C269.24 425.898 268.108 426.785 266.711 427.366C265.339 427.95 263.808 428.183 262.12 428.065C260.405 427.946 258.896 427.502 257.592 426.733C256.314 425.965 255.329 424.931 254.636 423.63C253.971 422.304 253.699 420.771 253.82 419.031L254.635 407.301L259.623 407.648L258.909 418.484C258.803 420.017 259.074 421.184 259.723 421.986C260.372 422.788 261.281 423.23 262.45 423.311C263.593 423.391 264.542 423.078 265.295 422.373C266.075 421.671 266.518 420.553 266.625 419.02L267.378 408.187L272.405 408.536Z" fill="white"/>
<path d="M290.26 410.851L289.799 413.625C290.522 412.927 291.443 412.315 292.56 411.788C293.703 411.265 294.929 411.113 296.239 411.33C298.217 411.659 299.763 412.603 300.877 414.161C301.991 415.719 302.325 417.834 301.881 420.505L299.895 432.451L295.001 431.637L296.84 420.34C297.058 419.03 296.899 418 296.363 417.251C295.854 416.507 295.047 416.042 293.942 415.859C293.068 415.713 292.199 415.859 291.335 416.296C290.496 416.738 289.743 417.299 289.075 417.98L287.025 430.31L282.131 429.497L285.367 410.037L290.26 410.851Z" fill="white"/>
<path d="M323.759 417.347C325.622 417.84 327.115 418.666 328.236 419.824C329.382 420.989 330.118 422.383 330.444 424.004C330.801 425.607 330.733 427.34 330.241 429.203L329.701 431.242L315.88 427.587C315.792 428.938 316.148 430.137 316.949 431.183C317.75 432.23 318.88 432.947 320.34 433.333C321.725 433.699 323.057 433.755 324.336 433.501C325.616 433.246 326.672 432.919 327.505 432.52L326.289 436.966C325.545 437.335 324.495 437.637 323.14 437.871C321.817 438.087 320.438 438.005 319.003 437.626C317.115 437.126 315.503 436.242 314.169 434.974C312.86 433.711 311.935 432.215 311.397 430.483C310.883 428.758 310.879 426.938 311.385 425.025C311.878 423.162 312.743 421.572 313.98 420.256C315.217 418.94 316.688 418.01 318.395 417.464C320.108 416.894 321.896 416.855 323.759 417.347ZM322.538 421.509C321.354 421.196 320.263 421.299 319.265 421.816C318.266 422.333 317.452 423.168 316.824 424.322L325.963 426.739C326.222 425.352 325.985 424.212 325.251 423.318C324.525 422.399 323.62 421.796 322.538 421.509Z" fill="white"/>
</svg>
