<svg width="478" height="1042" viewBox="0 0 478 1042" fill="none" xmlns="http://www.w3.org/2000/svg">
<mask id="path-1-inside-1_161_113" fill="white">
<path fill-rule="evenodd" clip-rule="evenodd" d="M2.5657 304.952L81.5017 354.671L81.4998 355.228L397.287 356.331L397.289 355.769L476.563 306.607L397.634 256.893L397.636 256.331L396.738 256.328L82.7397 255.232L81.8488 255.229L81.8469 255.786L2.5657 304.952Z"/>
</mask>
<path fill-rule="evenodd" clip-rule="evenodd" d="M2.5657 304.952L81.5017 354.671L81.4998 355.228L397.287 356.331L397.289 355.769L476.563 306.607L397.634 256.893L397.636 256.331L396.738 256.328L82.7397 255.232L81.8488 255.229L81.8469 255.786L2.5657 304.952Z" fill="#4C0406"/>
<path d="M81.5017 354.671L96.5016 354.724L96.5307 346.41L89.4961 341.979L81.5017 354.671ZM2.5657 304.952L-5.33982 292.205L-25.7361 304.854L-5.42862 317.645L2.5657 304.952ZM81.4998 355.228L66.4999 355.176L66.4475 370.176L81.4474 370.228L81.4998 355.228ZM397.287 356.331L397.235 371.331L412.235 371.383L412.287 356.383L397.287 356.331ZM397.289 355.769L389.384 343.021L382.318 347.403L382.289 355.717L397.289 355.769ZM476.563 306.607L484.468 319.355L504.865 306.706L484.557 293.915L476.563 306.607ZM397.634 256.893L382.635 256.841L382.605 265.154L389.64 269.585L397.634 256.893ZM397.636 256.331L412.636 256.384L412.689 241.384L397.689 241.331L397.636 256.331ZM396.738 256.328L396.79 241.328L396.738 256.328ZM82.7397 255.232L82.6874 270.232L82.7397 255.232ZM81.8488 255.229L81.9012 240.229L66.9013 240.177L66.8489 255.177L81.8488 255.229ZM81.8469 255.786L89.7524 268.533L96.8178 264.152L96.8468 255.838L81.8469 255.786ZM89.4961 341.979L10.56 292.26L-5.42862 317.645L73.5074 367.364L89.4961 341.979ZM96.4997 355.281L96.5016 354.724L66.5018 354.619L66.4999 355.176L96.4997 355.281ZM397.34 341.331L81.5521 340.229L81.4474 370.228L397.235 371.331L397.34 341.331ZM382.289 355.717L382.287 356.278L412.287 356.383L412.289 355.821L382.289 355.717ZM405.195 368.517L484.468 319.355L468.657 293.859L389.384 343.021L405.195 368.517ZM484.557 293.915L405.629 244.201L389.64 269.585L468.568 319.299L484.557 293.915ZM382.636 256.279L382.635 256.841L412.634 256.945L412.636 256.384L382.636 256.279ZM396.685 271.328L397.584 271.331L397.689 241.331L396.79 241.328L396.685 271.328ZM82.6874 270.232L396.685 271.328L396.79 241.328L82.7921 240.232L82.6874 270.232ZM81.7965 270.229L82.6874 270.232L82.7921 240.232L81.9012 240.229L81.7965 270.229ZM96.8468 255.838L96.8488 255.281L66.8489 255.177L66.847 255.733L96.8468 255.838ZM10.4712 317.7L89.7524 268.533L73.9414 243.038L-5.33982 292.205L10.4712 317.7Z" fill="#B82025" mask="url(#path-1-inside-1_161_113)"/>
<path d="M55.4869 23.4804C54.3993 14.711 60.6266 6.72036 69.3959 5.63274V5.63274C78.1653 4.54512 86.156 10.7724 87.2436 19.5418L149.4 520.702L117.643 524.641L55.4869 23.4804Z" fill="#D83A40"/>
<path d="M111.759 51.5177C110.829 42.7302 117.199 34.8528 125.986 33.923V33.923C134.774 32.9932 142.651 39.3631 143.581 48.1506L196.719 550.347L164.896 553.714L111.759 51.5177Z" fill="#D83A40"/>
<path d="M164.897 17.807C164.58 8.97611 171.483 1.56101 180.314 1.24491V1.24491C189.145 0.928817 196.56 7.83143 196.876 16.6623L214.941 521.339L182.961 522.484L164.897 17.807Z" fill="#D83A40"/>
<path d="M217.461 35.7279C217.245 26.894 224.232 19.5576 233.066 19.3418V19.3418C241.899 19.1259 249.236 26.1121 249.452 34.9461L261.79 539.795L229.799 540.577L217.461 35.7279Z" fill="#D83A40"/>
<path d="M279.37 22.9623C279.602 14.1288 286.95 7.15529 295.784 7.3866V7.3866C304.617 7.61792 311.591 14.9664 311.359 23.8L298.14 528.627L266.151 527.789L279.37 22.9623Z" fill="#D83A40"/>
<path d="M337.87 66.8205C339.12 58.0728 347.224 51.9944 355.972 53.244V53.244C364.72 54.4937 370.798 62.5982 369.548 71.3459L298.132 571.271L266.453 566.745L337.87 66.8205Z" fill="#D83A40"/>
<path d="M390.666 37.2896C391.588 28.5013 399.46 22.1245 408.249 23.0466V23.0466C417.037 23.9688 423.414 31.8406 422.492 40.629L369.792 542.872L337.967 539.532L390.666 37.2896Z" fill="#D83A40"/>
<mask id="path-10-inside-2_161_113" fill="white">
<path d="M81.4424 340.228L397.44 341.331L394.997 1041.33L78.9989 1040.22L81.4424 340.228Z"/>
</mask>
<path d="M81.4424 340.228L397.44 341.331L394.997 1041.33L78.9989 1040.22L81.4424 340.228Z" fill="#D83A40"/>
<path d="M81.4424 340.228L81.4947 325.228L66.4948 325.176L66.4425 340.176L81.4424 340.228ZM397.44 341.331L412.44 341.384L412.493 326.384L397.493 326.331L397.44 341.331ZM81.39 355.228L397.388 356.331L397.493 326.331L81.4947 325.228L81.39 355.228ZM382.441 341.279L379.997 1041.27L409.997 1041.38L412.44 341.384L382.441 341.279ZM93.9988 1040.28L96.4423 340.281L66.4425 340.176L63.999 1040.17L93.9988 1040.28Z" fill="#B82025" mask="url(#path-10-inside-2_161_113)"/>
<path d="M73.8782 358.704L71.5255 1032.7L7.52593 1032.47L10.0182 318.506L73.8782 358.704Z" fill="#A81319" stroke="#A81319" stroke-width="15"/>
<path d="M404.876 359.859L402.523 1033.85L466.523 1034.08L469.015 320.108L404.876 359.859Z" fill="#A81319" stroke="#A81319" stroke-width="15"/>
<path d="M132.204 493.439C135.756 492.714 139.102 492.542 142.243 492.922C145.384 493.301 148.097 493.928 150.382 494.801L152.969 507.382C150.487 506.485 147.871 505.711 145.121 505.06C142.372 504.409 139.404 504.408 136.22 505.058C134.628 505.383 133.086 505.953 131.594 506.767C130.164 507.569 129.029 508.566 128.19 509.758C127.411 510.938 127.179 512.293 127.494 513.823C127.909 515.843 129.112 517.193 131.102 517.871C133.092 518.55 135.48 519.147 138.266 519.663L146.44 521.248C151.104 522.21 154.717 523.801 157.279 526.021C159.841 528.241 161.469 531.035 162.161 534.402C162.916 538.075 162.512 541.539 160.947 544.792C159.431 547.972 157.061 550.72 153.837 553.036C150.673 555.34 146.948 556.929 142.662 557.804C139.049 558.541 135.463 558.635 131.904 558.085C128.346 557.535 125.159 556.623 122.344 555.347L119.758 542.766C122.855 544.176 126.165 545.223 129.688 545.907C133.21 546.592 136.809 546.559 140.483 545.81C143.055 545.285 145.159 544.345 146.795 542.991C148.418 541.575 149.022 539.858 148.606 537.837C148.279 536.246 147.249 535.116 145.517 534.449C143.833 533.708 142.034 533.182 140.12 532.871L129.903 531.128C124.749 530.266 121.013 528.541 118.694 525.952C116.424 523.29 114.917 520.153 114.175 516.541C113.407 512.806 113.75 509.356 115.205 506.188C116.708 502.947 118.955 500.224 121.948 498.019C124.927 495.753 128.346 494.226 132.204 493.439Z" fill="white"/>
<path d="M184.21 477.524C186.449 477.295 188.459 477.906 190.243 479.357C192.02 480.745 193.02 482.528 193.245 484.704C193.463 486.817 192.847 488.765 191.398 490.547C189.948 492.329 188.104 493.335 185.866 493.564C183.627 493.793 181.616 493.182 179.833 491.731C178.112 490.274 177.142 488.489 176.924 486.375C176.7 484.199 177.284 482.254 178.678 480.541C180.128 478.759 181.972 477.753 184.21 477.524ZM193.643 501.343L198.503 548.437L186.659 549.65L182.838 512.628L175.284 513.401L174.244 503.33L193.643 501.343Z" fill="white"/>
<path d="M236.795 498.264C239.358 498.278 241.948 498.886 244.566 500.089C247.185 501.291 249.363 502.897 251.102 504.907L251.132 499.563L263.038 499.63L262.772 546.973L250.866 546.906L250.911 538.937C249.521 541.492 247.509 543.7 244.873 545.56C242.238 547.358 239.171 548.247 235.671 548.227C231.858 548.206 228.333 547.217 225.093 545.262C221.917 543.306 219.37 540.479 217.453 536.781C215.537 533.083 214.593 528.609 214.623 523.359C214.652 518.109 215.646 513.614 217.605 509.875C219.626 506.137 222.298 503.276 225.622 501.295C229.008 499.252 232.733 498.241 236.795 498.264ZM239.167 509.902C236.667 509.888 234.507 510.532 232.688 511.835C230.931 513.075 229.546 514.724 228.535 516.78C227.523 518.837 227.011 521.053 226.997 523.428C226.977 526.991 228.023 530.028 230.134 532.54C232.307 535.052 235.175 536.318 238.738 536.338C240.863 536.35 242.834 535.798 244.653 534.683C246.534 533.569 248.043 532.015 249.179 530.021C250.379 527.965 250.986 525.5 251.002 522.625L251.04 515.875C249.363 514.053 247.527 512.605 245.533 511.532C243.602 510.458 241.48 509.915 239.167 509.902Z" fill="white"/>
<path d="M301.555 502.854L300.525 508.765C302.253 507.225 304.231 505.886 306.459 504.749C308.749 503.623 311.464 503.332 314.605 503.875C317.869 504.44 320.691 505.721 323.071 507.718C325.461 509.654 327.133 512.258 328.085 515.531C330.373 513.326 332.898 511.575 335.662 510.277C338.437 508.917 341.456 508.52 344.72 509.085C347.861 509.628 350.596 510.862 352.925 512.787C355.265 514.651 356.958 517.132 358.004 520.231C359.111 523.34 359.295 527.019 358.554 531.268L353.564 559.899L341.832 557.869L346.456 530.792C347.004 527.652 346.58 525.168 345.185 523.341C343.852 521.525 341.862 520.388 339.214 519.93C337.181 519.578 335.314 519.921 333.61 520.958C331.918 521.934 330.274 523.172 328.681 524.672L323.449 554.689L311.717 552.659L316.341 525.582C316.888 522.442 316.465 519.959 315.07 518.132C313.737 516.315 311.778 515.183 309.191 514.736C307.22 514.395 305.358 514.707 303.603 515.672C301.86 516.576 300.233 517.721 298.722 519.109L293.426 549.495L281.694 547.465L289.823 500.825L301.555 502.854Z" fill="white"/>
<path d="M189.911 585.131C192.894 584.652 195.685 584.626 198.286 585.052C200.886 585.479 203.122 586.096 204.992 586.903L206.689 597.471C204.656 596.637 202.507 595.9 200.241 595.262C197.976 594.623 195.507 594.519 192.832 594.948C191.495 595.163 190.191 595.583 188.92 596.209C187.701 596.827 186.72 597.618 185.978 598.581C185.287 599.536 185.045 600.656 185.252 601.942C185.524 603.639 186.476 604.805 188.108 605.439C189.739 606.074 191.705 606.655 194.006 607.183L200.752 608.79C204.599 609.754 207.549 611.206 209.601 613.145C211.653 615.084 212.906 617.467 213.361 620.296C213.856 623.381 213.394 626.251 211.974 628.906C210.597 631.5 208.524 633.706 205.756 635.522C203.04 637.33 199.882 638.522 196.282 639.1C193.248 639.588 190.26 639.54 187.318 638.957C184.376 638.375 181.756 637.503 179.46 636.342L177.763 625.774C180.29 627.056 183.007 628.044 185.914 628.738C188.821 629.432 191.818 629.531 194.903 629.035C197.063 628.689 198.848 627.98 200.259 626.909C201.661 625.787 202.226 624.378 201.954 622.681C201.739 621.344 200.923 620.367 199.505 619.751C198.131 619.075 196.652 618.574 195.07 618.248L186.63 616.438C182.371 615.539 179.323 613.971 177.487 611.734C175.694 609.437 174.554 606.772 174.067 603.738C173.563 600.601 173.974 597.739 175.299 595.152C176.668 592.506 178.637 590.317 181.208 588.586C183.77 586.803 186.671 585.651 189.911 585.131Z" fill="white"/>
<path d="M237.213 574.823C239.088 574.822 240.703 575.499 242.058 576.852C243.413 578.154 244.091 579.716 244.091 581.539C244.092 583.31 243.416 584.872 242.062 586.227C240.709 587.582 239.095 588.26 237.22 588.261C235.345 588.262 233.73 587.585 232.375 586.232C231.072 584.878 230.42 583.316 230.42 581.545C230.419 579.722 231.069 578.16 232.37 576.857C233.724 575.502 235.338 574.824 237.213 574.823ZM243.004 595.367L243.023 634.821L233.101 634.825L233.086 603.81L226.758 603.813L226.754 595.375L243.004 595.367Z" fill="white"/>
<path d="M283.309 598.231C287.112 598.854 290.241 600.21 292.696 602.301C295.203 604.4 296.936 607.032 297.896 610.197C298.915 613.32 299.114 616.783 298.491 620.586L297.81 624.75L269.591 620.131C269.676 622.837 270.616 625.155 272.412 627.084C274.207 629.014 276.595 630.223 279.576 630.711C282.403 631.174 285.066 631.029 287.564 630.277C290.062 629.524 292.101 628.671 293.683 627.716L292.117 636.801C290.706 637.678 288.675 638.481 286.023 639.208C283.431 639.892 280.669 639.994 277.74 639.514C273.885 638.883 270.507 637.433 267.606 635.164C264.757 632.904 262.629 630.101 261.224 626.758C259.87 623.422 259.512 619.801 260.152 615.895C260.774 612.091 262.19 608.761 264.399 605.903C266.609 603.045 269.36 600.909 272.652 599.495C275.953 598.03 279.505 597.609 283.309 598.231ZM281.677 606.751C279.261 606.356 277.109 606.769 275.22 607.99C273.331 609.212 271.872 611.031 270.843 613.449L289.501 616.502C289.75 613.693 289.058 611.469 287.427 609.83C285.804 608.139 283.887 607.113 281.677 606.751Z" fill="white"/>
<path d="M165.064 415.31L166.134 419.31L161.19 420.632L165.217 435.689L160.424 436.97L156.398 421.914L153.492 422.691L152.422 418.691L155.328 417.914L154.874 416.215C154.483 414.756 154.452 413.43 154.78 412.237C155.127 411.013 155.729 409.989 156.587 409.166C157.446 408.344 158.479 407.771 159.686 407.448C160.491 407.233 161.219 407.132 161.87 407.147C162.521 407.162 163.113 407.259 163.647 407.44L164.716 411.44C163.752 411.159 162.732 411.176 161.657 411.49C160.909 411.717 160.334 412.14 159.934 412.76C159.527 413.354 159.464 414.179 159.747 415.236L160.12 416.632L165.064 415.31Z" fill="white"/>
<path d="M184.456 410.739C186.353 410.398 188.166 410.55 189.895 411.192C191.62 411.809 193.096 412.814 194.325 414.207C195.575 415.571 196.372 417.214 196.717 419.136C197.062 421.059 196.885 422.876 196.187 424.589C195.514 426.297 194.479 427.752 193.081 428.956C191.678 430.133 190.028 430.892 188.131 431.232C186.26 431.568 184.449 431.429 182.699 430.817C180.97 430.175 179.494 429.17 178.269 427.802C177.045 426.434 176.261 424.789 175.916 422.866C175.571 420.944 175.735 419.128 176.408 417.42C177.076 415.687 178.111 414.231 179.514 413.054C180.938 411.846 182.585 411.074 184.456 410.739ZM185.304 415.468C184.382 415.633 183.562 416.005 182.846 416.583C182.129 417.162 181.601 417.905 181.261 418.812C180.947 419.715 180.895 420.756 181.107 421.935C181.318 423.114 181.728 424.073 182.336 424.81C182.971 425.543 183.724 426.056 184.597 426.35C185.465 426.617 186.36 426.668 187.283 426.503C188.206 426.337 189.028 425.978 189.749 425.426C190.465 424.847 190.994 424.105 191.334 423.197C191.674 422.289 191.738 421.246 191.526 420.067C191.315 418.888 190.892 417.932 190.258 417.199C189.624 416.466 188.87 415.953 187.998 415.66C187.125 415.366 186.227 415.302 185.304 415.468Z" fill="white"/>
<path d="M219.319 412.408C218.446 412.018 217.556 411.865 216.648 411.948C215.507 412.054 214.596 412.517 213.913 413.338C213.228 414.134 212.65 415.102 212.18 416.244L213.191 427.213L208.251 427.668L206.441 408.025L211.381 407.57L211.721 411.265C212.288 410.036 212.989 408.991 213.825 408.129C214.687 407.265 215.701 406.779 216.868 406.672C217.568 406.607 218.214 406.665 218.806 406.846L219.319 412.408Z" fill="white"/>
<path d="M236.557 400.465L236.659 406.207L242.127 406.109L242.201 410.249L236.733 410.346L236.886 418.861C236.902 419.746 237.109 420.446 237.509 420.959C237.935 421.447 238.551 421.683 239.358 421.669C240.061 421.656 240.659 421.567 241.151 421.402C241.669 421.237 242.146 421.007 242.584 420.712L242.654 424.657C242.169 425.16 241.551 425.588 240.802 425.94C240.079 426.292 239.158 426.478 238.038 426.498C236.268 426.529 234.812 425.995 233.673 424.896C232.559 423.77 231.984 422.217 231.949 420.238L231.773 410.435L228.219 410.499L228.174 407.96C229.416 407.495 230.546 406.641 231.566 405.399C232.612 404.156 233.429 402.527 234.018 400.511L236.557 400.465Z" fill="white"/>
<path d="M271.207 407.479L270.413 419.21C270.295 420.951 269.803 422.432 268.937 423.652C268.073 424.846 266.943 425.736 265.546 426.32C264.175 426.905 262.646 427.141 260.957 427.027C259.242 426.91 257.732 426.469 256.427 425.702C255.147 424.936 254.16 423.904 253.465 422.604C252.798 421.28 252.523 419.747 252.641 418.006L253.436 406.276L258.424 406.613L257.729 417.451C257.625 418.984 257.899 420.151 258.549 420.952C259.2 421.753 260.11 422.193 261.279 422.272C262.422 422.349 263.37 422.035 264.122 421.329C264.901 420.625 265.342 419.506 265.446 417.973L266.18 407.139L271.207 407.479Z" fill="white"/>
<path d="M289.067 409.763L288.61 412.538C289.332 411.839 290.251 411.225 291.368 410.696C292.51 410.171 293.736 410.017 295.046 410.232C297.025 410.558 298.572 411.498 299.689 413.054C300.805 414.61 301.144 416.725 300.704 419.397L298.739 431.346L293.843 430.541L295.663 419.241C295.878 417.93 295.718 416.901 295.181 416.153C294.67 415.409 293.862 414.946 292.757 414.764C291.883 414.621 291.014 414.768 290.151 415.207C289.312 415.649 288.56 416.212 287.894 416.894L285.865 429.228L280.97 428.423L284.171 408.958L289.067 409.763Z" fill="white"/>
<path d="M322.578 416.201C324.442 416.691 325.935 417.514 327.059 418.67C328.207 419.833 328.946 421.225 329.274 422.846C329.634 424.448 329.569 426.182 329.08 428.045L328.544 430.086L314.716 426.455C314.631 427.805 314.989 429.004 315.792 430.049C316.594 431.094 317.726 431.809 319.187 432.192C320.572 432.556 321.904 432.61 323.183 432.353C324.462 432.097 325.518 431.768 326.35 431.367L325.141 435.816C324.398 436.186 323.349 436.489 321.994 436.726C320.672 436.944 319.293 436.865 317.857 436.488C315.968 435.992 314.355 435.11 313.018 433.844C311.706 432.584 310.78 431.089 310.238 429.358C309.722 427.634 309.715 425.815 310.217 423.9C310.707 422.036 311.569 420.445 312.803 419.127C314.038 417.809 315.508 416.876 317.214 416.327C318.926 415.754 320.714 415.712 322.578 416.201ZM321.363 420.365C320.179 420.054 319.089 420.158 318.091 420.677C317.093 421.196 316.281 422.033 315.655 423.188L324.798 425.588C325.054 424.202 324.815 423.062 324.08 422.169C323.352 421.251 322.446 420.65 321.363 420.365Z" fill="white"/>
</svg>
