<svg width="474" height="1044" viewBox="0 0 474 1044" fill="none" xmlns="http://www.w3.org/2000/svg">
<mask id="path-1-inside-1_165_298" fill="white">
<path fill-rule="evenodd" clip-rule="evenodd" d="M0 309L79.1091 358.443V359H394.899V358.438L474 309L394.899 259.562V259H394H80H79.1091V259.557L0 309Z"/>
</mask>
<path fill-rule="evenodd" clip-rule="evenodd" d="M0 309L79.1091 358.443V359H394.899V358.438L474 309L394.899 259.562V259H394H80H79.1091V259.557L0 309Z" fill="#4C0406"/>
<path d="M79.1091 358.443H94.1091V350.129L87.0591 345.723L79.1091 358.443ZM0 309L-7.94997 296.28L-28.302 309L-7.94997 321.72L0 309ZM79.1091 359H64.1091V374H79.1091V359ZM394.899 359V374H409.899V359H394.899ZM394.899 358.438L386.949 345.718L379.899 350.125V358.438H394.899ZM474 309L481.95 321.72L502.302 309L481.95 296.28L474 309ZM394.899 259.562H379.899V267.876L386.949 272.282L394.899 259.562ZM394.899 259H409.899V244H394.899V259ZM79.1091 259V244H64.1091V259H79.1091ZM79.1091 259.557L87.0591 272.277L94.1091 267.871V259.557H79.1091ZM87.0591 345.723L7.94997 296.28L-7.94997 321.72L71.1591 371.163L87.0591 345.723ZM94.1091 359V358.443H64.1091V359H94.1091ZM394.899 344H79.1091V374H394.899V344ZM379.899 358.438V359H409.899V358.438H379.899ZM402.849 371.158L481.95 321.72L466.05 296.28L386.949 345.718L402.849 371.158ZM481.95 296.28L402.849 246.842L386.949 272.282L466.05 321.72L481.95 296.28ZM379.899 259V259.562H409.899V259H379.899ZM394 274H394.899V244H394V274ZM80 274H394V244H80V274ZM79.1091 274H80V244H79.1091V274ZM94.1091 259.557V259H64.1091V259.557H94.1091ZM7.94997 321.72L87.0591 272.277L71.1591 246.837L-7.94997 296.28L7.94997 321.72Z" fill="#B82025" mask="url(#path-1-inside-1_165_298)"/>
<path d="M48.574 27.0245C47.3331 18.2756 53.4196 10.1771 62.1686 8.93621V8.93621C70.9176 7.69528 79.016 13.7818 80.2569 22.5308L151.175 522.526L119.492 527.02L48.574 27.0245Z" fill="#D83A40"/>
<path d="M104.96 54.7994C103.878 46.0294 110.109 38.0424 118.879 36.9599V36.9599C127.65 35.8775 135.637 42.1094 136.719 50.8794L198.581 552.076L166.822 555.996L104.96 54.7994Z" fill="#D83A40"/>
<path d="M158.794 18.5689C158.356 9.74323 165.155 2.23299 173.98 1.7943V1.7943C182.806 1.3556 190.316 8.15458 190.755 16.9802L215.826 521.358L183.865 522.946L158.794 18.5689Z" fill="#D83A40"/>
<path d="M209.554 17.3729C209.184 8.54412 216.041 1.08703 224.87 0.71704V0.71704C233.699 0.347052 241.156 7.20428 241.526 16.0331L262.67 520.59L230.698 521.93L209.554 17.3729Z" fill="#D83A40"/>
<path d="M277.097 22.994C277.344 14.1609 284.705 7.20021 293.538 7.44689V7.44689C302.371 7.69356 309.332 15.0542 309.085 23.8873L294.988 528.691L263 527.797L277.097 22.994Z" fill="#D83A40"/>
<path d="M336.195 68.8313C337.475 60.088 345.601 54.0385 354.345 55.3193V55.3193C363.088 56.6001 369.137 64.7261 367.857 73.4694L294.662 573.137L263 568.499L336.195 68.8313Z" fill="#D83A40"/>
<path d="M385.468 36.9294C386.298 28.132 394.103 21.6736 402.901 22.5042V22.5042C411.698 23.3348 418.157 31.1398 417.326 39.9373L369.858 542.701L338 539.694L385.468 36.9294Z" fill="#D83A40"/>
<mask id="path-10-inside-2_165_298" fill="white">
<path d="M79 344H395V1044H79V344Z"/>
</mask>
<path d="M79 344H395V1044H79V344Z" fill="#D83A40"/>
<path d="M79 344V329H64V344H79ZM395 344H410V329H395V344ZM79 359H395V329H79V359ZM380 344V1044H410V344H380ZM94 1044V344H64V1044H94Z" fill="#B82025" mask="url(#path-10-inside-2_165_298)"/>
<path d="M71.5 362.502V1036.5H7.5V322.528L71.5 362.502Z" fill="#A81319" stroke="#A81319" stroke-width="15"/>
<path d="M402.5 362.502V1036.5H466.5V322.528L402.5 362.502Z" fill="#A81319" stroke="#A81319" stroke-width="15"/>
<path d="M130.296 497.033C133.845 496.296 137.191 496.112 140.333 496.48C143.475 496.849 146.19 497.466 148.478 498.332L151.109 510.903C148.624 510.015 146.006 509.25 143.254 508.609C140.501 507.967 137.534 507.977 134.352 508.638C132.761 508.968 131.221 509.543 129.733 510.363C128.305 511.17 127.174 512.171 126.338 513.366C125.564 514.548 125.337 515.904 125.657 517.433C126.079 519.452 127.286 520.797 129.279 521.469C131.271 522.14 133.661 522.729 136.449 523.235L144.628 524.792C149.296 525.738 152.915 527.316 155.485 529.527C158.054 531.739 159.691 534.526 160.395 537.891C161.163 541.562 160.771 545.026 159.218 548.285C157.713 551.47 155.353 554.226 152.136 556.554C148.981 558.869 145.262 560.471 140.978 561.361C137.367 562.11 133.782 562.217 130.221 561.679C126.661 561.142 123.471 560.241 120.652 558.975L118.022 546.403C121.124 547.802 124.437 548.837 127.962 549.51C131.487 550.182 135.086 550.137 138.757 549.374C141.327 548.841 143.428 547.894 145.059 546.534C146.677 545.112 147.275 543.392 146.853 541.374C146.52 539.783 145.486 538.657 143.752 537.996C142.065 537.261 140.264 536.742 138.349 536.437L128.126 534.73C122.969 533.886 119.227 532.174 116.899 529.593C114.619 526.939 113.102 523.807 112.347 520.197C111.566 516.466 111.897 513.014 113.341 509.841C114.833 506.595 117.071 503.864 120.055 501.649C123.027 499.372 126.44 497.833 130.296 497.033Z" fill="white"/>
<path d="M182.246 480.937C184.483 480.7 186.496 481.303 188.285 482.748C190.067 484.131 191.074 485.909 191.306 488.085C191.531 490.198 190.922 492.148 189.479 493.935C188.035 495.722 186.195 496.734 183.957 496.971C181.72 497.208 179.707 496.604 177.918 495.159C176.192 493.708 175.216 491.926 174.991 489.813C174.759 487.638 175.337 485.691 176.725 483.973C178.168 482.186 180.009 481.174 182.246 480.937ZM191.762 504.723L196.786 551.799L184.946 553.053L180.996 516.045L173.445 516.845L172.37 506.777L191.762 504.723Z" fill="white"/>
<path d="M234.902 501.493C237.465 501.498 240.057 502.097 242.679 503.29C245.302 504.483 247.486 506.082 249.232 508.085L249.243 502.742L261.149 502.767L261.049 550.11L249.142 550.085L249.159 542.117C247.779 544.676 245.774 546.891 243.145 548.76C240.516 550.567 237.452 551.467 233.952 551.46C230.14 551.451 226.61 550.475 223.364 548.531C220.181 546.587 217.625 543.769 215.695 540.077C213.765 536.386 212.806 531.915 212.817 526.665C212.828 521.415 213.807 516.917 215.752 513.171C217.76 509.425 220.423 506.556 223.739 504.563C227.119 502.507 230.84 501.484 234.902 501.493ZM237.315 513.123C234.815 513.118 232.657 513.769 230.842 515.078C229.089 516.324 227.711 517.978 226.706 520.038C225.702 522.098 225.197 524.316 225.192 526.691C225.185 530.253 226.241 533.287 228.36 535.791C230.543 538.296 233.415 539.552 236.977 539.56C239.102 539.564 241.072 539.006 242.887 537.885C244.765 536.764 246.268 535.204 247.397 533.207C248.589 531.147 249.188 528.679 249.194 525.804L249.208 519.054C247.525 517.238 245.684 515.797 243.686 514.73C241.751 513.663 239.627 513.128 237.315 513.123Z" fill="white"/>
<path d="M299.678 505.857L298.668 511.771C300.391 510.225 302.364 508.879 304.588 507.734C306.874 506.6 309.589 506.299 312.731 506.832C315.997 507.385 318.824 508.656 321.21 510.645C323.608 512.573 325.288 515.171 326.252 518.441C328.532 516.228 331.051 514.468 333.811 513.16C336.581 511.791 339.598 511.383 342.864 511.936C346.007 512.469 348.746 513.694 351.082 515.611C353.428 517.466 355.13 519.941 356.187 523.036C357.305 526.142 357.502 529.82 356.776 534.071L351.886 562.719L340.147 560.731L344.676 533.638C345.213 530.496 344.78 528.014 343.38 526.192C342.04 524.38 340.046 523.25 337.396 522.801C335.362 522.456 333.496 522.806 331.796 523.849C330.107 524.831 328.468 526.074 326.879 527.58L321.753 557.615L310.014 555.626L314.543 528.533C315.08 525.391 314.647 522.909 313.246 521.087C311.907 519.275 309.943 518.15 307.355 517.712C305.383 517.378 303.522 517.696 301.771 518.668C300.031 519.577 298.408 520.728 296.902 522.122L291.712 552.526L279.973 550.537L287.939 503.868L299.678 505.857Z" fill="white"/>
<path d="M188.323 588.523C191.304 588.034 194.095 587.998 196.697 588.415C199.299 588.832 201.537 589.442 203.41 590.243L205.144 600.804C203.108 599.977 200.956 599.249 198.689 598.618C196.421 597.987 193.951 597.891 191.278 598.33C189.942 598.549 188.64 598.974 187.371 599.605C186.153 600.227 185.175 601.021 184.437 601.987C183.749 602.944 183.511 604.065 183.722 605.35C184 607.046 184.957 608.208 186.59 608.838C188.224 609.467 190.192 610.041 192.494 610.56L199.246 612.144C203.097 613.095 206.052 614.536 208.111 616.468C210.17 618.4 211.431 620.779 211.895 623.606C212.401 626.689 211.949 629.561 210.538 632.22C209.17 634.82 207.106 637.033 204.344 638.858C201.634 640.675 198.48 641.879 194.882 642.47C191.85 642.968 188.862 642.93 185.918 642.358C182.973 641.786 180.351 640.923 178.051 639.77L176.317 629.208C178.848 630.482 181.569 631.46 184.478 632.144C187.388 632.827 190.385 632.916 193.468 632.41C195.627 632.055 197.41 631.341 198.817 630.265C200.215 629.138 200.775 627.727 200.497 626.031C200.277 624.695 199.458 623.721 198.038 623.109C196.661 622.438 195.181 621.942 193.598 621.621L185.151 619.841C180.889 618.957 177.836 617.4 175.992 615.169C174.191 612.879 173.041 610.217 172.544 607.185C172.029 604.05 172.43 601.187 173.746 598.595C175.106 595.944 177.067 593.749 179.632 592.008C182.188 590.216 185.085 589.055 188.323 588.523Z" fill="white"/>
<path d="M235.589 578.05C237.464 578.043 239.081 578.713 240.44 580.062C241.8 581.359 242.483 582.919 242.49 584.742C242.497 586.512 241.826 588.078 240.478 589.437C239.129 590.797 237.517 591.48 235.642 591.488C233.767 591.495 232.15 590.824 230.79 589.476C229.483 588.127 228.826 586.567 228.819 584.796C228.811 582.973 229.456 581.408 230.753 580.101C232.102 578.741 233.714 578.058 235.589 578.05ZM241.451 598.574L241.608 638.027L231.686 638.066L231.563 607.051L225.235 607.076L225.202 598.639L241.451 598.574Z" fill="white"/>
<path d="M281.765 601.297C285.57 601.906 288.704 603.252 291.167 605.334C293.68 607.424 295.423 610.05 296.393 613.212C297.424 616.331 297.634 619.793 297.025 623.599L296.358 627.765L268.124 623.245C268.219 625.95 269.167 628.265 270.969 630.188C272.771 632.112 275.163 633.312 278.146 633.79C280.974 634.243 283.636 634.089 286.132 633.328C288.627 632.567 290.664 631.706 292.242 630.745L290.707 639.836C289.3 640.718 287.272 641.528 284.622 642.264C282.032 642.957 279.271 643.069 276.34 642.6C272.483 641.982 269.1 640.544 266.191 638.285C263.334 636.034 261.197 633.239 259.78 629.901C258.414 626.57 258.044 622.95 258.67 619.042C259.279 615.236 260.683 611.9 262.882 609.035C265.082 606.169 267.825 604.024 271.113 602.599C274.408 601.122 277.959 600.688 281.765 601.297ZM280.163 609.823C277.745 609.436 275.595 609.857 273.71 611.085C271.826 612.313 270.373 614.137 269.353 616.558L288.021 619.547C288.26 616.737 287.561 614.515 285.924 612.881C284.294 611.197 282.374 610.177 280.163 609.823Z" fill="white"/>
<path d="M162.883 418.79L163.966 422.786L159.028 424.125L163.107 439.168L158.319 440.466L154.239 425.423L151.337 426.211L150.253 422.214L153.156 421.427L152.696 419.731C152.3 418.273 152.265 416.947 152.588 415.753C152.931 414.527 153.529 413.501 154.385 412.675C155.24 411.85 156.271 411.274 157.477 410.946C158.282 410.728 159.009 410.625 159.66 410.638C160.311 410.65 160.904 410.746 161.438 410.925L162.522 414.921C161.556 414.643 160.536 414.663 159.462 414.982C158.715 415.211 158.142 415.636 157.744 416.257C157.339 416.853 157.279 417.678 157.566 418.734L157.944 420.129L162.883 418.79Z" fill="white"/>
<path d="M182.259 414.151C184.154 413.804 185.968 413.949 187.699 414.585C189.426 415.196 190.906 416.196 192.14 417.585C193.394 418.944 194.197 420.584 194.549 422.505C194.9 424.427 194.73 426.245 194.037 427.96C193.371 429.67 192.34 431.129 190.947 432.337C189.548 433.52 187.901 434.284 186.005 434.631C184.135 434.973 182.324 434.841 180.572 434.235C178.84 433.599 177.36 432.599 176.131 431.235C174.902 429.872 174.112 428.229 173.761 426.308C173.409 424.387 173.567 422.571 174.234 420.86C174.896 419.124 175.926 417.665 177.324 416.483C178.744 415.27 180.389 414.493 182.259 414.151ZM183.123 418.877C182.201 419.046 181.383 419.42 180.668 420.001C179.954 420.582 179.428 421.327 179.092 422.235C178.78 423.139 178.733 424.181 178.948 425.359C179.164 426.537 179.577 427.494 180.188 428.23C180.825 428.96 181.58 429.471 182.454 429.761C183.323 430.026 184.218 430.074 185.141 429.905C186.063 429.736 186.883 429.374 187.603 428.819C188.317 428.238 188.843 427.494 189.179 426.585C189.516 425.676 189.577 424.633 189.361 423.454C189.146 422.276 188.72 421.321 188.083 420.591C187.446 419.86 186.691 419.349 185.817 419.059C184.944 418.769 184.046 418.708 183.123 418.877Z" fill="white"/>
<path d="M217.127 415.699C216.253 415.312 215.362 415.161 214.455 415.248C213.314 415.357 212.404 415.824 211.724 416.647C211.042 417.445 210.468 418.416 210.002 419.559L211.051 430.525L206.112 430.997L204.234 411.36L209.172 410.888L209.525 414.582C210.088 413.351 210.785 412.303 211.618 411.439C212.477 410.572 213.49 410.082 214.656 409.971C215.356 409.904 216.003 409.96 216.595 410.138L217.127 415.699Z" fill="white"/>
<path d="M234.322 403.695L234.445 409.436L239.912 409.319L240.001 413.459L234.534 413.576L234.716 422.09C234.735 422.975 234.945 423.674 235.346 424.186C235.774 424.672 236.391 424.906 237.198 424.889C237.901 424.874 238.498 424.783 238.989 424.616C239.507 424.449 239.984 424.217 240.42 423.921L240.504 427.866C240.02 428.371 239.404 428.801 238.657 429.155C237.935 429.509 237.014 429.698 235.895 429.722C234.124 429.76 232.667 429.231 231.524 428.136C230.406 427.014 229.826 425.463 229.783 423.484L229.574 413.682L226.02 413.758L225.966 411.22C227.206 410.75 228.334 409.893 229.349 408.647C230.39 407.4 231.202 405.768 231.784 403.75L234.322 403.695Z" fill="white"/>
<path d="M268.998 410.589L268.244 422.322C268.132 424.064 267.645 425.546 266.784 426.769C265.924 427.966 264.797 428.86 263.402 429.448C262.033 430.039 260.504 430.28 258.815 430.172C257.1 430.061 255.588 429.625 254.28 428.863C252.998 428.102 252.007 427.073 251.308 425.775C250.636 424.453 250.356 422.922 250.468 421.181L251.222 409.447L256.211 409.767L255.554 420.607C255.456 422.14 255.733 423.306 256.386 424.105C257.04 424.904 257.951 425.341 259.121 425.416C260.264 425.489 261.211 425.172 261.961 424.463C262.737 423.756 263.174 422.636 263.273 421.103L263.969 410.266L268.998 410.589Z" fill="white"/>
<path d="M286.865 412.81L286.419 415.587C287.138 414.885 288.055 414.268 289.17 413.735C290.31 413.206 291.536 413.047 292.847 413.258C294.827 413.577 296.377 414.512 297.499 416.064C298.621 417.616 298.967 419.729 298.537 422.403L296.613 434.359L291.715 433.571L293.495 422.265C293.706 420.953 293.541 419.925 293.002 419.178C292.488 418.436 291.679 417.976 290.573 417.798C289.699 417.658 288.831 417.808 287.968 418.25C287.132 418.695 286.381 419.26 285.717 419.945L283.732 432.286L278.834 431.498L281.968 412.022L286.865 412.81Z" fill="white"/>
<path d="M320.398 419.131C322.264 419.614 323.76 420.432 324.888 421.584C326.04 422.743 326.783 424.133 327.117 425.753C327.483 427.354 327.424 429.087 326.941 430.953L326.413 432.995L312.572 429.412C312.491 430.763 312.854 431.96 313.66 433.002C314.466 434.045 315.601 434.755 317.063 435.134C318.449 435.493 319.782 435.542 321.06 435.281C322.338 435.02 323.392 434.688 324.223 434.284L323.03 438.736C322.288 439.109 321.24 439.416 319.886 439.658C318.564 439.88 317.185 439.806 315.748 439.434C313.857 438.944 312.241 438.069 310.9 436.807C309.584 435.552 308.652 434.06 308.104 432.331C307.582 430.608 307.568 428.789 308.064 426.873C308.547 425.008 309.404 423.414 310.634 422.091C311.864 420.769 313.331 419.83 315.034 419.276C316.745 418.696 318.533 418.648 320.398 419.131ZM319.198 423.299C318.013 422.992 316.923 423.1 315.927 423.623C314.931 424.145 314.122 424.984 313.499 426.142L322.651 428.51C322.902 427.123 322.659 425.984 321.921 425.094C321.19 424.178 320.282 423.58 319.198 423.299Z" fill="white"/>
</svg>
