<svg width="474" height="1472" viewBox="0 0 474 1472" fill="none" xmlns="http://www.w3.org/2000/svg">
<mask id="path-1-inside-1_165_1260" fill="white">
<path fill-rule="evenodd" clip-rule="evenodd" d="M0 736.71L79.1091 786.153V786.71H394.899V786.148L474 736.71L394.899 687.272V686.71H394H80H79.1091V687.267L0 736.71Z"/>
</mask>
<path fill-rule="evenodd" clip-rule="evenodd" d="M0 736.71L79.1091 786.153V786.71H394.899V786.148L474 736.71L394.899 687.272V686.71H394H80H79.1091V687.267L0 736.71Z" fill="#4C0406"/>
<path d="M79.1091 786.153H94.1091V777.839L87.0591 773.433L79.1091 786.153ZM0 736.71L-7.94997 723.99L-28.302 736.71L-7.94997 749.43L0 736.71ZM79.1091 786.71H64.1091V801.71H79.1091V786.71ZM394.899 786.71V801.71H409.899V786.71H394.899ZM394.899 786.148L386.949 773.428L379.899 777.834V786.148H394.899ZM474 736.71L481.95 749.43L502.302 736.71L481.95 723.99L474 736.71ZM394.899 687.272H379.899V695.585L386.949 699.992L394.899 687.272ZM394.899 686.71H409.899V671.71H394.899V686.71ZM79.1091 686.71V671.71H64.1091V686.71H79.1091ZM79.1091 687.267L87.0591 699.987L94.1091 695.58V687.267H79.1091ZM87.0591 773.433L7.94997 723.99L-7.94997 749.43L71.1591 798.873L87.0591 773.433ZM94.1091 786.71V786.153H64.1091V786.71H94.1091ZM394.899 771.71H79.1091V801.71H394.899V771.71ZM379.899 786.148V786.71H409.899V786.148H379.899ZM402.849 798.868L481.95 749.43L466.05 723.99L386.949 773.428L402.849 798.868ZM481.95 723.99L402.849 674.552L386.949 699.992L466.05 749.43L481.95 723.99ZM379.899 686.71V687.272H409.899V686.71H379.899ZM394 701.71H394.899V671.71H394V701.71ZM80 701.71H394V671.71H80V701.71ZM79.1091 701.71H80V671.71H79.1091V701.71ZM94.1091 687.267V686.71H64.1091V687.267H94.1091ZM7.94997 749.43L87.0591 699.987L71.1591 674.547L-7.94997 723.99L7.94997 749.43Z" fill="#B82025" mask="url(#path-1-inside-1_165_1260)"/>
<path d="M48.574 434.735C47.3331 425.986 53.4196 417.887 62.1686 416.646V416.646C70.9176 415.405 79.016 421.492 80.2569 430.241L151.175 930.236L119.492 934.73L48.574 434.735Z" fill="#D83A40"/>
<path d="M104.96 462.509C103.878 453.739 110.109 445.752 118.879 444.67V444.67C127.65 443.587 135.637 449.819 136.719 458.589L198.581 959.786L166.822 963.706L104.96 462.509Z" fill="#D83A40"/>
<path d="M158.794 426.279C158.356 417.453 165.155 409.943 173.98 409.504V409.504C182.806 409.065 190.316 415.864 190.755 424.69L215.826 929.067L183.865 930.656L158.794 426.279Z" fill="#D83A40"/>
<path d="M218.071 16.316C218.009 7.47967 225.122 0.266396 233.959 0.204706V0.204706C242.795 0.143016 250.008 7.25628 250.07 16.0926L253.595 521.08L221.596 521.304L218.071 16.316Z" fill="#D83A40"/>
<path d="M277.097 430.704C277.344 421.871 284.705 414.91 293.538 415.157V415.157C302.371 415.403 309.332 422.764 309.085 431.597L294.988 936.4L263 935.507L277.097 430.704Z" fill="#D83A40"/>
<path d="M336.195 476.541C337.475 467.798 345.601 461.748 354.345 463.029V463.029C363.088 464.31 369.137 472.436 367.857 481.179L294.662 980.847L263 976.208L336.195 476.541Z" fill="#D83A40"/>
<path d="M385.468 444.639C386.298 435.842 394.103 429.383 402.901 430.214V430.214C411.698 431.044 418.157 438.85 417.326 447.647L369.858 950.411L338 947.403L385.468 444.639Z" fill="#D83A40"/>
<mask id="path-10-inside-2_165_1260" fill="white">
<path d="M79 771.71H395V1471.71H79V771.71Z"/>
</mask>
<path d="M79 771.71H395V1471.71H79V771.71Z" fill="#D83A40"/>
<path d="M79 771.71V756.71H64V771.71H79ZM395 771.71H410V756.71H395V771.71ZM79 786.71H395V756.71H79V786.71ZM380 771.71V1471.71H410V771.71H380ZM94 1471.71V771.71H64V1471.71H94Z" fill="#B82025" mask="url(#path-10-inside-2_165_1260)"/>
<path d="M71.5 790.212V1464.21H7.5V750.237L71.5 790.212Z" fill="#A81319" stroke="#A81319" stroke-width="15"/>
<path d="M402.5 790.212V1464.21H466.5V750.237L402.5 790.212Z" fill="#A81319" stroke="#A81319" stroke-width="15"/>
<path d="M130.296 924.743C133.845 924.005 137.191 923.821 140.333 924.19C143.475 924.559 146.19 925.176 148.478 926.041L151.109 938.613C148.624 937.724 146.006 936.96 143.254 936.318C140.501 935.677 137.534 935.687 134.352 936.348C132.761 936.678 131.221 937.253 129.733 938.073C128.305 938.88 127.174 939.881 126.338 941.076C125.564 942.258 125.337 943.614 125.657 945.143C126.079 947.162 127.286 948.507 129.279 949.178C131.271 949.85 133.661 950.439 136.449 950.945L144.628 952.502C149.296 953.448 152.915 955.026 155.485 957.237C158.054 959.448 159.691 962.236 160.395 965.601C161.163 969.271 160.771 972.736 159.218 975.995C157.713 979.18 155.353 981.936 152.136 984.264C148.981 986.579 145.262 988.181 140.978 989.07C137.367 989.82 133.782 989.926 130.221 989.389C126.661 988.852 123.471 987.95 120.652 986.685L118.022 974.113C121.124 975.512 124.437 976.547 127.962 977.219C131.487 977.892 135.086 977.847 138.757 977.084C141.327 976.55 143.428 975.603 145.059 974.243C146.677 972.822 147.275 971.102 146.853 969.083C146.52 967.493 145.486 966.367 143.752 965.706C142.065 964.971 140.264 964.451 138.349 964.147L128.126 962.44C122.969 961.596 119.227 959.883 116.899 957.303C114.619 954.648 113.102 951.516 112.347 947.907C111.566 944.175 111.897 940.723 113.341 937.551C114.833 934.305 117.071 931.574 120.055 929.359C123.027 927.082 126.44 925.543 130.296 924.743Z" fill="white"/>
<path d="M182.246 908.646C184.483 908.409 186.496 909.013 188.285 910.458C190.067 911.84 191.074 913.619 191.306 915.794C191.531 917.907 190.922 919.857 189.479 921.644C188.035 923.431 186.195 924.443 183.957 924.68C181.72 924.917 179.707 924.313 177.918 922.869C176.192 921.417 175.216 919.635 174.991 917.522C174.759 915.347 175.337 913.4 176.725 911.682C178.168 909.895 180.009 908.883 182.246 908.646ZM191.762 932.432L196.786 979.509L184.946 980.763L180.996 943.754L173.445 944.554L172.37 934.486L191.762 932.432Z" fill="white"/>
<path d="M234.902 929.202C237.465 929.208 240.057 929.807 242.679 931C245.302 932.193 247.486 933.791 249.232 935.795L249.243 930.451L261.149 930.477L261.049 977.82L249.142 977.795L249.159 969.826C247.779 972.386 245.774 974.6 243.145 976.47C240.516 978.277 237.452 979.177 233.952 979.169C230.14 979.161 226.61 978.185 223.364 976.241C220.181 974.296 217.625 971.479 215.695 967.787C213.765 964.095 212.806 959.625 212.817 954.375C212.828 949.125 213.807 944.627 215.752 940.881C217.76 937.135 220.423 934.266 223.739 932.273C227.119 930.217 230.84 929.194 234.902 929.202ZM237.315 940.832C234.815 940.827 232.657 941.479 230.842 942.788C229.089 944.034 227.711 945.687 226.706 947.748C225.702 949.808 225.197 952.026 225.192 954.401C225.185 957.963 226.241 960.997 228.36 963.501C230.543 966.006 233.415 967.262 236.977 967.269C239.102 967.274 241.072 966.715 242.887 965.594C244.765 964.473 246.268 962.914 247.397 960.916C248.589 958.856 249.188 956.389 249.194 953.514L249.208 946.764C247.525 944.948 245.684 943.506 243.686 942.44C241.751 941.373 239.627 940.837 237.315 940.832Z" fill="white"/>
<path d="M299.678 933.567L298.668 939.481C300.391 937.935 302.364 936.589 304.588 935.444C306.874 934.31 309.589 934.009 312.731 934.542C315.997 935.095 318.824 936.366 321.21 938.355C323.608 940.283 325.288 942.881 326.252 946.151C328.532 943.938 331.051 942.178 333.811 940.87C336.581 939.501 339.598 939.093 342.864 939.646C346.007 940.179 348.746 941.404 351.082 943.321C353.428 945.176 355.13 947.651 356.187 950.746C357.305 953.852 357.502 957.53 356.776 961.781L351.886 990.429L340.147 988.44L344.676 961.348C345.213 958.206 344.78 955.724 343.38 953.901C342.04 952.09 340.046 950.96 337.396 950.511C335.362 950.166 333.496 950.516 331.796 951.559C330.107 952.541 328.468 953.784 326.879 955.29L321.753 985.324L310.014 983.336L314.543 956.243C315.08 953.101 314.647 950.619 313.246 948.797C311.907 946.985 309.943 945.86 307.355 945.422C305.383 945.088 303.522 945.406 301.771 946.377C300.031 947.287 298.408 948.438 296.902 949.831L291.712 980.235L279.973 978.247L287.939 931.578L299.678 933.567Z" fill="white"/>
<path d="M188.323 1016.23C191.304 1015.74 194.095 1015.71 196.697 1016.13C199.299 1016.54 201.537 1017.15 203.41 1017.95L205.144 1028.51C203.108 1027.69 200.956 1026.96 198.689 1026.33C196.421 1025.7 193.951 1025.6 191.278 1026.04C189.942 1026.26 188.64 1026.68 187.371 1027.31C186.153 1027.94 185.175 1028.73 184.437 1029.7C183.749 1030.65 183.511 1031.77 183.722 1033.06C184 1034.76 184.957 1035.92 186.59 1036.55C188.224 1037.18 190.192 1037.75 192.494 1038.27L199.246 1039.85C203.097 1040.8 206.052 1042.25 208.111 1044.18C210.17 1046.11 211.431 1048.49 211.895 1051.32C212.401 1054.4 211.949 1057.27 210.538 1059.93C209.17 1062.53 207.106 1064.74 204.344 1066.57C201.634 1068.39 198.48 1069.59 194.882 1070.18C191.85 1070.68 188.862 1070.64 185.918 1070.07C182.973 1069.5 180.351 1068.63 178.051 1067.48L176.317 1056.92C178.848 1058.19 181.569 1059.17 184.478 1059.85C187.388 1060.54 190.385 1060.63 193.468 1060.12C195.627 1059.77 197.41 1059.05 198.817 1057.98C200.215 1056.85 200.775 1055.44 200.497 1053.74C200.277 1052.4 199.458 1051.43 198.038 1050.82C196.661 1050.15 195.181 1049.65 193.598 1049.33L185.151 1047.55C180.889 1046.67 177.836 1045.11 175.992 1042.88C174.191 1040.59 173.041 1037.93 172.544 1034.89C172.029 1031.76 172.43 1028.9 173.746 1026.31C175.106 1023.65 177.067 1021.46 179.632 1019.72C182.188 1017.93 185.085 1016.76 188.323 1016.23Z" fill="white"/>
<path d="M235.589 1005.76C237.464 1005.75 239.081 1006.42 240.44 1007.77C241.8 1009.07 242.483 1010.63 242.49 1012.45C242.497 1014.22 241.826 1015.79 240.478 1017.15C239.129 1018.51 237.517 1019.19 235.642 1019.2C233.767 1019.21 232.15 1018.53 230.79 1017.19C229.483 1015.84 228.826 1014.28 228.819 1012.51C228.811 1010.68 229.456 1009.12 230.753 1007.81C232.102 1006.45 233.714 1005.77 235.589 1005.76ZM241.451 1026.28L241.608 1065.74L231.686 1065.78L231.563 1034.76L225.235 1034.79L225.202 1026.35L241.451 1026.28Z" fill="white"/>
<path d="M281.765 1029.01C285.57 1029.62 288.704 1030.96 291.167 1033.04C293.68 1035.13 295.423 1037.76 296.393 1040.92C297.424 1044.04 297.634 1047.5 297.025 1051.31L296.358 1055.47L268.124 1050.96C268.219 1053.66 269.167 1055.97 270.969 1057.9C272.771 1059.82 275.163 1061.02 278.146 1061.5C280.974 1061.95 283.636 1061.8 286.132 1061.04C288.627 1060.28 290.664 1059.42 292.242 1058.46L290.707 1067.55C289.3 1068.43 287.272 1069.24 284.622 1069.97C282.032 1070.67 279.271 1070.78 276.34 1070.31C272.483 1069.69 269.1 1068.25 266.191 1065.99C263.334 1063.74 261.197 1060.95 259.78 1057.61C258.414 1054.28 258.044 1050.66 258.67 1046.75C259.279 1042.95 260.683 1039.61 262.882 1036.74C265.082 1033.88 267.825 1031.73 271.113 1030.31C274.408 1028.83 277.959 1028.4 281.765 1029.01ZM280.163 1037.53C277.745 1037.15 275.595 1037.57 273.71 1038.79C271.826 1040.02 270.373 1041.85 269.353 1044.27L288.021 1047.26C288.26 1044.45 287.561 1042.22 285.924 1040.59C284.294 1038.91 282.374 1037.89 280.163 1037.53Z" fill="white"/>
<path d="M162.883 846.499L163.966 850.496L159.028 851.835L163.107 866.878L158.319 868.176L154.239 853.133L151.337 853.921L150.253 849.924L153.156 849.137L152.696 847.441C152.3 845.983 152.265 844.657 152.588 843.463C152.931 842.237 153.529 841.211 154.385 840.385C155.24 839.56 156.271 838.984 157.477 838.656C158.282 838.438 159.009 838.335 159.66 838.348C160.311 838.36 160.904 838.456 161.438 838.635L162.522 842.631C161.556 842.353 160.536 842.373 159.462 842.692C158.715 842.921 158.142 843.346 157.744 843.967C157.339 844.563 157.279 845.388 157.566 846.444L157.944 847.839L162.883 846.499Z" fill="white"/>
<path d="M182.259 841.86C184.154 841.513 185.968 841.658 187.699 842.295C189.426 842.905 190.906 843.905 192.14 845.295C193.394 846.653 194.197 848.294 194.549 850.215C194.9 852.136 194.73 853.954 194.037 855.669C193.371 857.38 192.34 858.839 190.947 860.047C189.548 861.229 187.901 861.994 186.005 862.341C184.135 862.683 182.324 862.551 180.572 861.945C178.84 861.308 177.36 860.308 176.131 858.945C174.902 857.581 174.112 855.939 173.761 854.017C173.409 852.096 173.567 850.28 174.234 848.57C174.896 846.834 175.926 845.375 177.324 844.192C178.744 842.98 180.389 842.202 182.259 841.86ZM183.123 846.586C182.201 846.755 181.383 847.13 180.668 847.711C179.954 848.291 179.428 849.036 179.092 849.945C178.78 850.849 178.733 851.89 178.948 853.068C179.164 854.247 179.577 855.204 180.188 855.939C180.825 856.67 181.58 857.18 182.454 857.47C183.323 857.735 184.218 857.783 185.141 857.614C186.063 857.446 186.883 857.084 187.603 856.529C188.317 855.948 188.843 855.203 189.179 854.294C189.516 853.386 189.577 852.342 189.361 851.164C189.146 849.985 188.72 849.031 188.083 848.3C187.446 847.569 186.691 847.059 185.817 846.769C184.944 846.478 184.046 846.418 183.123 846.586Z" fill="white"/>
<path d="M217.127 843.409C216.253 843.021 215.362 842.871 214.455 842.958C213.314 843.067 212.404 843.533 211.724 844.357C211.042 845.155 210.468 846.126 210.002 847.269L211.051 858.234L206.112 858.707L204.234 839.07L209.172 838.598L209.525 842.292C210.088 841.061 210.785 840.013 211.618 839.148C212.477 838.281 213.49 837.792 214.656 837.68C215.356 837.613 216.003 837.669 216.595 837.848L217.127 843.409Z" fill="white"/>
<path d="M234.322 831.405L234.445 837.146L239.912 837.029L240.001 841.169L234.534 841.286L234.716 849.799C234.735 850.685 234.945 851.383 235.346 851.896C235.774 852.382 236.391 852.616 237.198 852.598C237.901 852.583 238.498 852.493 238.989 852.326C239.507 852.158 239.984 851.927 240.42 851.631L240.504 855.575C240.02 856.081 239.404 856.511 238.657 856.865C237.935 857.219 237.014 857.408 235.895 857.432C234.124 857.47 232.667 856.941 231.524 855.846C230.406 854.723 229.826 853.173 229.783 851.194L229.574 841.392L226.02 841.468L225.966 838.929C227.206 838.46 228.334 837.602 229.349 836.356C230.39 835.11 231.202 833.478 231.784 831.459L234.322 831.405Z" fill="white"/>
<path d="M268.998 838.298L268.244 850.032C268.132 851.773 267.645 853.256 266.784 854.479C265.924 855.676 264.797 856.569 263.402 857.158C262.033 857.749 260.504 857.99 258.815 857.881C257.1 857.771 255.588 857.335 254.28 856.572C252.998 855.811 252.007 854.782 251.308 853.485C250.636 852.163 250.356 850.631 250.468 848.89L251.222 837.157L256.211 837.477L255.554 848.317C255.456 849.85 255.733 851.016 256.386 851.815C257.04 852.613 257.951 853.05 259.121 853.125C260.264 853.199 261.211 852.881 261.961 852.173C262.737 851.466 263.174 850.346 263.273 848.812L263.969 837.975L268.998 838.298Z" fill="white"/>
<path d="M286.865 840.52L286.419 843.296C287.138 842.594 288.055 841.977 289.17 841.444C290.31 840.916 291.536 840.757 292.847 840.968C294.827 841.286 296.377 842.222 297.499 843.774C298.621 845.326 298.967 847.439 298.537 850.113L296.613 862.068L291.715 861.28L293.495 849.974C293.706 848.663 293.541 847.634 293.002 846.888C292.488 846.146 291.679 845.686 290.573 845.508C289.699 845.367 288.831 845.518 287.968 845.959C287.132 846.405 286.381 846.97 285.717 847.654L283.732 859.996L278.834 859.208L281.968 839.731L286.865 840.52Z" fill="white"/>
<path d="M320.398 846.841C322.264 847.324 323.76 848.142 324.888 849.294C326.04 850.453 326.783 851.843 327.117 853.463C327.483 855.064 327.424 856.797 326.941 858.662L326.413 860.705L312.572 857.122C312.491 858.473 312.854 859.67 313.66 860.712C314.466 861.755 315.601 862.465 317.063 862.844C318.449 863.203 319.782 863.252 321.06 862.991C322.338 862.73 323.392 862.397 324.223 861.994L323.03 866.446C322.288 866.819 321.24 867.126 319.886 867.368C318.564 867.59 317.185 867.516 315.748 867.144C313.857 866.654 312.241 865.779 310.9 864.517C309.584 863.262 308.652 861.77 308.104 860.041C307.582 858.318 307.568 856.499 308.064 854.583C308.547 852.718 309.404 851.124 310.634 849.801C311.864 848.479 313.331 847.54 315.034 846.986C316.745 846.406 318.533 846.358 320.398 846.841ZM319.198 851.009C318.013 850.702 316.923 850.81 315.927 851.333C314.931 851.855 314.122 852.694 313.499 853.851L322.651 856.22C322.902 854.833 322.659 853.694 321.921 852.803C321.19 851.888 320.282 851.29 319.198 851.009Z" fill="white"/>
</svg>
