<svg width="474" height="1187" viewBox="0 0 474 1187" fill="none" xmlns="http://www.w3.org/2000/svg">
<mask id="path-1-inside-1_165_446" fill="white">
<path fill-rule="evenodd" clip-rule="evenodd" d="M0 451.953L79.1091 501.396V501.953H394.899V501.392L474 451.953L394.899 402.515V401.953H394H80H79.1091V402.51L0 451.953Z"/>
</mask>
<path fill-rule="evenodd" clip-rule="evenodd" d="M0 451.953L79.1091 501.396V501.953H394.899V501.392L474 451.953L394.899 402.515V401.953H394H80H79.1091V402.51L0 451.953Z" fill="#4C0406"/>
<path d="M79.1091 501.396H94.1091V493.083L87.0591 488.676L79.1091 501.396ZM0 451.953L-7.94997 439.233L-28.302 451.953L-7.94997 464.673L0 451.953ZM79.1091 501.953H64.1091V516.953H79.1091V501.953ZM394.899 501.953V516.953H409.899V501.953H394.899ZM394.899 501.392L386.949 488.672L379.899 493.078V501.392H394.899ZM474 451.953L481.95 464.673L502.302 451.953L481.95 439.233L474 451.953ZM394.899 402.515H379.899V410.829L386.949 415.235L394.899 402.515ZM394.899 401.953H409.899V386.953H394.899V401.953ZM79.1091 401.953V386.953H64.1091V401.953H79.1091ZM79.1091 402.51L87.0591 415.23L94.1091 410.824V402.51H79.1091ZM87.0591 488.676L7.94997 439.233L-7.94997 464.673L71.1591 514.116L87.0591 488.676ZM94.1091 501.953V501.396H64.1091V501.953H94.1091ZM394.899 486.953H79.1091V516.953H394.899V486.953ZM379.899 501.392V501.953H409.899V501.392H379.899ZM402.849 514.112L481.95 464.673L466.05 439.233L386.949 488.672L402.849 514.112ZM481.95 439.233L402.849 389.795L386.949 415.235L466.05 464.673L481.95 439.233ZM379.899 401.953V402.515H409.899V401.953H379.899ZM394 416.953H394.899V386.953H394V416.953ZM80 416.953H394V386.953H80V416.953ZM79.1091 416.953H80V386.953H79.1091V416.953ZM94.1091 402.51V401.953H64.1091V402.51H94.1091ZM7.94997 464.673L87.0591 415.23L71.1591 389.79L-7.94997 439.233L7.94997 464.673Z" fill="#B82025" mask="url(#path-1-inside-1_165_446)"/>
<path d="M48.574 161.977C47.3331 153.228 53.4196 145.13 62.1686 143.889V143.889C70.9176 142.648 79.016 148.735 80.2569 157.484L151.175 657.479L119.492 661.973L48.574 161.977Z" fill="#D83A40"/>
<path d="M104.96 189.752C103.878 180.982 110.109 172.995 118.879 171.913V171.913C127.65 170.83 135.637 177.062 136.719 185.832L198.581 687.029L166.822 690.949L104.96 189.752Z" fill="#D83A40"/>
<path d="M158.794 153.522C158.356 144.696 165.155 137.186 173.98 136.747V136.747C182.806 136.308 190.316 143.107 190.755 151.933L215.826 656.31L183.865 657.899L158.794 153.522Z" fill="#D83A40"/>
<path d="M209.554 17.3258C209.184 8.497 216.041 1.03991 224.87 0.669921V0.669921C233.699 0.299933 241.156 7.15716 241.526 15.986L262.67 520.543L230.698 521.883L209.554 17.3258Z" fill="#D83A40"/>
<path d="M277.097 157.947C277.344 149.114 284.705 142.153 293.538 142.4V142.4C302.371 142.646 309.332 150.007 309.085 158.84L294.988 663.643L263 662.75L277.097 157.947Z" fill="#D83A40"/>
<path d="M336.195 203.784C337.475 195.041 345.601 188.991 354.345 190.272V190.272C363.088 191.553 369.137 199.679 367.857 208.422L294.662 708.09L263 703.452L336.195 203.784Z" fill="#D83A40"/>
<path d="M385.468 171.882C386.298 163.085 394.103 156.626 402.901 157.457V157.457C411.698 158.288 418.157 166.093 417.326 174.89L369.858 677.654L338 674.646L385.468 171.882Z" fill="#D83A40"/>
<mask id="path-10-inside-2_165_446" fill="white">
<path d="M79 486.953H395V1186.95H79V486.953Z"/>
</mask>
<path d="M79 486.953H395V1186.95H79V486.953Z" fill="#D83A40"/>
<path d="M79 486.953V471.953H64V486.953H79ZM395 486.953H410V471.953H395V486.953ZM79 501.953H395V471.953H79V501.953ZM380 486.953V1186.95H410V486.953H380ZM94 1186.95V486.953H64V1186.95H94Z" fill="#B82025" mask="url(#path-10-inside-2_165_446)"/>
<path d="M71.5 505.455V1179.45H7.5V465.48L71.5 505.455Z" fill="#A81319" stroke="#A81319" stroke-width="15"/>
<path d="M402.5 505.455V1179.45H466.5V465.48L402.5 505.455Z" fill="#A81319" stroke="#A81319" stroke-width="15"/>
<path d="M130.296 639.986C133.845 639.249 137.191 639.065 140.333 639.434C143.475 639.802 146.19 640.419 148.478 641.285L151.109 653.856C148.624 652.968 146.006 652.203 143.254 651.562C140.501 650.92 137.534 650.93 134.352 651.591C132.761 651.921 131.221 652.497 129.733 653.316C128.305 654.123 127.174 655.124 126.338 656.319C125.564 657.501 125.337 658.857 125.657 660.387C126.079 662.405 127.286 663.75 129.279 664.422C131.271 665.093 133.661 665.682 136.449 666.188L144.628 667.745C149.296 668.691 152.915 670.269 155.485 672.481C158.054 674.692 159.691 677.48 160.395 680.844C161.163 684.515 160.771 687.979 159.218 691.238C157.713 694.423 155.353 697.18 152.136 699.507C148.981 701.822 145.262 703.424 140.978 704.314C137.367 705.064 133.782 705.17 130.221 704.633C126.661 704.095 123.471 703.194 120.652 701.928L118.022 689.357C121.124 690.755 124.437 691.79 127.962 692.463C131.487 693.135 135.086 693.09 138.757 692.327C141.327 691.794 143.428 690.847 145.059 689.487C146.677 688.066 147.275 686.346 146.853 684.327C146.52 682.736 145.486 681.61 143.752 680.949C142.065 680.214 140.264 679.695 138.349 679.39L128.126 677.683C122.969 676.839 119.227 675.127 116.899 672.546C114.619 669.892 113.102 666.76 112.347 663.15C111.566 659.419 111.897 655.967 113.341 652.795C114.833 649.548 117.071 646.818 120.055 644.602C123.027 642.325 126.44 640.787 130.296 639.986Z" fill="white"/>
<path d="M182.246 623.89C184.483 623.653 186.496 624.257 188.285 625.701C190.067 627.084 191.074 628.863 191.306 631.038C191.531 633.151 190.922 635.101 189.479 636.888C188.035 638.675 186.195 639.687 183.957 639.924C181.72 640.161 179.707 639.557 177.918 638.112C176.192 636.661 175.216 634.879 174.991 632.766C174.759 630.591 175.337 628.644 176.725 626.926C178.168 625.139 180.009 624.127 182.246 623.89ZM191.762 647.676L196.786 694.752L184.946 696.007L180.996 658.998L173.445 659.798L172.37 649.73L191.762 647.676Z" fill="white"/>
<path d="M234.902 644.446C237.465 644.451 240.057 645.05 242.679 646.243C245.302 647.436 247.486 649.035 249.232 651.039L249.243 645.695L261.149 645.72L261.049 693.064L249.142 693.038L249.159 685.07C247.779 687.629 245.774 689.844 243.145 691.713C240.516 693.52 237.452 694.42 233.952 694.413C230.14 694.405 226.61 693.428 223.364 691.484C220.181 689.54 217.625 686.722 215.695 683.03C213.765 679.339 212.806 674.868 212.817 669.618C212.828 664.368 213.807 659.87 215.752 656.124C217.76 652.378 220.423 649.509 223.739 647.516C227.119 645.461 230.84 644.437 234.902 644.446ZM237.315 656.076C234.815 656.071 232.657 656.722 230.842 658.031C229.089 659.277 227.711 660.931 226.706 662.991C225.702 665.051 225.197 667.269 225.192 669.644C225.185 673.207 226.241 676.24 228.36 678.745C230.543 681.249 233.415 682.505 236.977 682.513C239.102 682.517 241.072 681.959 242.887 680.838C244.765 679.717 246.268 678.157 247.397 676.16C248.589 674.1 249.188 671.632 249.194 668.757L249.208 662.007C247.525 660.191 245.684 658.75 243.686 657.683C241.751 656.617 239.627 656.081 237.315 656.076Z" fill="white"/>
<path d="M299.678 648.81L298.668 654.724C300.391 653.178 302.364 651.832 304.588 650.688C306.874 649.553 309.589 649.253 312.731 649.785C315.997 650.338 318.824 651.609 321.21 653.599C323.608 655.526 325.288 658.124 326.252 661.394C328.532 659.181 331.051 657.421 333.811 656.113C336.581 654.744 339.598 654.336 342.864 654.89C346.007 655.422 348.746 656.647 351.082 658.564C353.428 660.419 355.13 662.894 356.187 665.989C357.305 669.095 357.502 672.773 356.776 677.024L351.886 705.672L340.147 703.684L344.676 676.591C345.213 673.449 344.78 670.967 343.38 669.145C342.04 667.333 340.046 666.203 337.396 665.754C335.362 665.409 333.496 665.759 331.796 666.802C330.107 667.784 328.468 669.027 326.879 670.533L321.753 700.568L310.014 698.579L314.543 671.486C315.08 668.344 314.647 665.862 313.246 664.04C311.907 662.228 309.943 661.103 307.355 660.665C305.383 660.331 303.522 660.649 301.771 661.621C300.031 662.53 298.408 663.682 296.902 665.075L291.712 695.479L279.973 693.49L287.939 646.821L299.678 648.81Z" fill="white"/>
<path d="M188.323 731.476C191.304 730.987 194.095 730.951 196.697 731.368C199.299 731.786 201.537 732.395 203.41 733.196L205.144 743.757C203.108 742.93 200.956 742.202 198.689 741.571C196.421 740.94 193.951 740.844 191.278 741.283C189.942 741.503 188.64 741.927 187.371 742.558C186.153 743.18 185.175 743.974 184.437 744.94C183.749 745.897 183.511 747.018 183.722 748.303C184 749.999 184.957 751.162 186.59 751.791C188.224 752.42 190.192 752.994 192.494 753.513L199.246 755.097C203.097 756.048 206.052 757.49 208.111 759.421C210.17 761.353 211.431 763.732 211.895 766.559C212.401 769.642 211.949 772.514 210.538 775.174C209.17 777.773 207.106 779.986 204.344 781.811C201.634 783.629 198.48 784.832 194.882 785.423C191.85 785.921 188.862 785.883 185.918 785.311C182.973 784.739 180.351 783.876 178.051 782.723L176.317 772.161C178.848 773.435 181.569 774.413 184.478 775.097C187.388 775.78 190.385 775.869 193.468 775.363C195.627 775.009 197.41 774.294 198.817 773.218C200.215 772.091 200.775 770.68 200.497 768.984C200.277 767.648 199.458 766.674 198.038 766.062C196.661 765.391 195.181 764.895 193.598 764.574L185.151 762.794C180.889 761.91 177.836 760.353 175.992 758.122C174.191 755.832 173.041 753.17 172.544 750.138C172.029 747.003 172.43 744.14 173.746 741.548C175.106 738.897 177.067 736.702 179.632 734.961C182.188 733.169 185.085 732.008 188.323 731.476Z" fill="white"/>
<path d="M235.589 721.003C237.464 720.996 239.081 721.667 240.44 723.015C241.8 724.312 242.483 725.872 242.49 727.695C242.497 729.466 241.826 731.031 240.478 732.39C239.129 733.75 237.517 734.433 235.642 734.441C233.767 734.448 232.15 733.778 230.79 732.429C229.483 731.08 228.826 729.52 228.819 727.749C228.811 725.926 229.456 724.361 230.753 723.054C232.102 721.694 233.714 721.011 235.589 721.003ZM241.451 741.527L241.608 780.98L231.686 781.019L231.563 750.004L225.235 750.029L225.202 741.592L241.451 741.527Z" fill="white"/>
<path d="M281.765 744.25C285.57 744.86 288.704 746.205 291.167 748.287C293.68 750.378 295.423 753.004 296.393 756.166C297.424 759.284 297.634 762.747 297.025 766.552L296.358 770.718L268.124 766.198C268.219 768.903 269.167 771.218 270.969 773.141C272.771 775.065 275.163 776.266 278.146 776.743C280.974 777.196 283.636 777.042 286.132 776.281C288.627 775.52 290.664 774.659 292.242 773.698L290.707 782.789C289.3 783.671 287.272 784.481 284.622 785.217C282.032 785.91 279.271 786.022 276.34 785.553C272.483 784.935 269.1 783.497 266.191 781.238C263.334 778.987 261.197 776.193 259.78 772.854C258.414 769.523 258.044 765.903 258.67 761.995C259.279 758.189 260.683 754.853 262.882 751.988C265.082 749.123 267.825 746.977 271.113 745.552C274.408 744.075 277.959 743.641 281.765 744.25ZM280.163 752.776C277.745 752.389 275.595 752.81 273.71 754.038C271.826 755.266 270.373 757.09 269.353 759.512L288.021 762.5C288.26 759.69 287.561 757.468 285.924 755.835C284.294 754.15 282.374 753.13 280.163 752.776Z" fill="white"/>
<path d="M162.883 561.743L163.966 565.739L159.028 567.078L163.107 582.121L158.319 583.419L154.239 568.377L151.337 569.164L150.253 565.167L153.156 564.38L152.696 562.684C152.3 561.226 152.265 559.9 152.588 558.706C152.931 557.48 153.529 556.454 154.385 555.629C155.24 554.803 156.271 554.227 157.477 553.9C158.282 553.681 159.009 553.579 159.66 553.591C160.311 553.603 160.904 553.699 161.438 553.878L162.522 557.874C161.556 557.596 160.536 557.617 159.462 557.935C158.715 558.164 158.142 558.59 157.744 559.21C157.339 559.806 157.279 560.631 157.566 561.687L157.944 563.082L162.883 561.743Z" fill="white"/>
<path d="M182.259 557.104C184.154 556.757 185.968 556.902 187.699 557.538C189.426 558.149 190.906 559.149 192.14 560.538C193.394 561.897 194.197 563.537 194.549 565.458C194.9 567.38 194.73 569.198 194.037 570.913C193.371 572.623 192.34 574.082 190.947 575.291C189.548 576.473 187.901 577.238 186.005 577.584C184.135 577.926 182.324 577.794 180.572 577.188C178.84 576.552 177.36 575.552 176.131 574.188C174.902 572.825 174.112 571.182 173.761 569.261C173.409 567.34 173.567 565.524 174.234 563.814C174.896 562.078 175.926 560.618 177.324 559.436C178.744 558.223 180.389 557.446 182.259 557.104ZM183.123 561.83C182.201 561.999 181.383 562.373 180.668 562.954C179.954 563.535 179.428 564.28 179.092 565.188C178.78 566.093 178.733 567.134 178.948 568.312C179.164 569.49 179.577 570.447 180.188 571.183C180.825 571.913 181.58 572.424 182.454 572.714C183.323 572.979 184.218 573.027 185.141 572.858C186.063 572.689 186.883 572.327 187.603 571.772C188.317 571.192 188.843 570.447 189.179 569.538C189.516 568.629 189.577 567.586 189.361 566.407C189.146 565.229 188.72 564.274 188.083 563.544C187.446 562.813 186.691 562.303 185.817 562.012C184.944 561.722 184.046 561.661 183.123 561.83Z" fill="white"/>
<path d="M217.127 558.652C216.253 558.265 215.362 558.114 214.455 558.201C213.314 558.31 212.404 558.777 211.724 559.601C211.042 560.398 210.468 561.369 210.002 562.512L211.051 573.478L206.112 573.95L204.234 554.313L209.172 553.841L209.525 557.535C210.088 556.304 210.785 555.256 211.618 554.392C212.477 553.525 213.49 553.035 214.656 552.924C215.356 552.857 216.003 552.913 216.595 553.091L217.127 558.652Z" fill="white"/>
<path d="M234.322 546.649L234.445 552.389L239.912 552.272L240.001 556.412L234.534 556.529L234.716 565.043C234.735 565.928 234.945 566.627 235.346 567.139C235.774 567.625 236.391 567.859 237.198 567.842C237.901 567.827 238.498 567.736 238.989 567.569C239.507 567.402 239.984 567.17 240.42 566.874L240.504 570.819C240.02 571.324 239.404 571.754 238.657 572.109C237.935 572.463 237.014 572.652 235.895 572.676C234.124 572.713 232.667 572.185 231.524 571.089C230.406 569.967 229.826 568.416 229.783 566.438L229.574 556.635L226.02 556.711L225.966 554.173C227.206 553.703 228.334 552.846 229.349 551.6C230.39 550.353 231.202 548.721 231.784 546.703L234.322 546.649Z" fill="white"/>
<path d="M268.998 553.542L268.244 565.275C268.132 567.017 267.645 568.499 266.784 569.722C265.924 570.92 264.797 571.813 263.402 572.402C262.033 572.992 260.504 573.233 258.815 573.125C257.1 573.015 255.588 572.578 254.28 571.816C252.998 571.055 252.007 570.026 251.308 568.728C250.636 567.406 250.356 565.875 250.468 564.134L251.222 552.4L256.211 552.721L255.554 563.56C255.456 565.093 255.733 566.259 256.386 567.058C257.04 567.857 257.951 568.294 259.121 568.369C260.264 568.442 261.211 568.125 261.961 567.416C262.737 566.709 263.174 565.589 263.273 564.056L263.969 553.219L268.998 553.542Z" fill="white"/>
<path d="M286.865 555.763L286.419 558.54C287.138 557.838 288.055 557.221 289.17 556.688C290.31 556.159 291.536 556 292.847 556.211C294.827 556.53 296.377 557.465 297.499 559.017C298.621 560.569 298.967 562.682 298.537 565.356L296.613 577.312L291.715 576.524L293.495 565.218C293.706 563.906 293.541 562.878 293.002 562.131C292.488 561.389 291.679 560.929 290.573 560.752C289.699 560.611 288.831 560.761 287.968 561.203C287.132 561.649 286.381 562.214 285.717 562.898L283.732 575.239L278.834 574.451L281.968 554.975L286.865 555.763Z" fill="white"/>
<path d="M320.398 562.084C322.264 562.567 323.76 563.385 324.888 564.537C326.04 565.697 326.783 567.086 327.117 568.706C327.483 570.307 327.424 572.04 326.941 573.906L326.413 575.948L312.572 572.365C312.491 573.716 312.854 574.913 313.66 575.955C314.466 576.998 315.601 577.709 317.063 578.087C318.449 578.446 319.782 578.495 321.06 578.234C322.338 577.973 323.392 577.641 324.223 577.237L323.03 581.689C322.288 582.062 321.24 582.369 319.886 582.611C318.564 582.834 317.185 582.759 315.748 582.387C313.857 581.897 312.241 581.022 310.9 579.76C309.584 578.505 308.652 577.013 308.104 575.284C307.582 573.562 307.568 571.742 308.064 569.826C308.547 567.961 309.404 566.367 310.634 565.044C311.864 563.722 313.331 562.783 315.034 562.229C316.745 561.649 318.533 561.601 320.398 562.084ZM319.198 566.252C318.013 565.946 316.923 566.053 315.927 566.576C314.931 567.098 314.122 567.938 313.499 569.095L322.651 571.463C322.902 570.076 322.659 568.937 321.921 568.047C321.19 567.131 320.282 566.533 319.198 566.252Z" fill="white"/>
</svg>
