<svg width="474" height="1473" viewBox="0 0 474 1473" fill="none" xmlns="http://www.w3.org/2000/svg">
<mask id="path-1-inside-1_165_816" fill="white">
<path fill-rule="evenodd" clip-rule="evenodd" d="M0 737.986L79.1091 787.429V787.986H394.899V787.424L474 737.986L394.899 688.547V687.986H394H80H79.1091V688.543L0 737.986Z"/>
</mask>
<path fill-rule="evenodd" clip-rule="evenodd" d="M0 737.986L79.1091 787.429V787.986H394.899V787.424L474 737.986L394.899 688.547V687.986H394H80H79.1091V688.543L0 737.986Z" fill="#4C0406"/>
<path d="M79.1091 787.429H94.1091V779.115L87.0591 774.709L79.1091 787.429ZM0 737.986L-7.94997 725.266L-28.302 737.986L-7.94997 750.706L0 737.986ZM79.1091 787.986H64.1091V802.986H79.1091V787.986ZM394.899 787.986V802.986H409.899V787.986H394.899ZM394.899 787.424L386.949 774.704L379.899 779.11V787.424H394.899ZM474 737.986L481.95 750.706L502.302 737.986L481.95 725.266L474 737.986ZM394.899 688.547H379.899V696.861L386.949 701.267L394.899 688.547ZM394.899 687.986H409.899V672.986H394.899V687.986ZM79.1091 687.986V672.986H64.1091V687.986H79.1091ZM79.1091 688.543L87.0591 701.263L94.1091 696.856V688.543H79.1091ZM87.0591 774.709L7.94997 725.266L-7.94997 750.706L71.1591 800.149L87.0591 774.709ZM94.1091 787.986V787.429H64.1091V787.986H94.1091ZM394.899 772.986H79.1091V802.986H394.899V772.986ZM379.899 787.424V787.986H409.899V787.424H379.899ZM402.849 800.144L481.95 750.706L466.05 725.266L386.949 774.704L402.849 800.144ZM481.95 725.266L402.849 675.827L386.949 701.267L466.05 750.706L481.95 725.266ZM379.899 687.986V688.547H409.899V687.986H379.899ZM394 702.986H394.899V672.986H394V702.986ZM80 702.986H394V672.986H80V702.986ZM79.1091 702.986H80V672.986H79.1091V702.986ZM94.1091 688.543V687.986H64.1091V688.543H94.1091ZM7.94997 750.706L87.0591 701.263L71.1591 675.823L-7.94997 725.266L7.94997 750.706Z" fill="#B82025" mask="url(#path-1-inside-1_165_816)"/>
<path d="M48.574 436.01C47.3331 427.261 53.4196 419.162 62.1686 417.922V417.922C70.9176 416.681 79.016 422.767 80.2569 431.516L151.175 931.512L119.492 936.006L48.574 436.01Z" fill="#D83A40"/>
<path d="M104.96 463.785C103.878 455.015 110.109 447.028 118.879 445.945V445.945C127.65 444.863 135.637 451.095 136.719 459.865L198.581 961.061L166.822 964.981L104.96 463.785Z" fill="#D83A40"/>
<path d="M158.794 427.554C158.356 418.729 165.155 411.219 173.98 410.78V410.78C182.806 410.341 190.316 417.14 190.755 425.966L215.826 930.343L183.865 931.932L158.794 427.554Z" fill="#D83A40"/>
<path d="M206.154 18.748C205.661 9.92522 212.413 2.37307 221.236 1.87981V1.87981C230.059 1.38654 237.611 8.13894 238.104 16.9617L266.294 521.174L234.344 522.961L206.154 18.748Z" fill="#D83A40"/>
<path d="M277.097 431.979C277.344 423.146 284.705 416.185 293.538 416.432V416.432C302.371 416.679 309.332 424.039 309.085 432.872L294.988 937.676L263 936.782L277.097 431.979Z" fill="#D83A40"/>
<path d="M336.195 477.816C337.475 469.073 345.601 463.024 354.345 464.304V464.304C363.088 465.585 369.137 473.711 367.857 482.454L294.662 982.122L263 977.484L336.195 477.816Z" fill="#D83A40"/>
<path d="M385.468 445.915C386.298 437.117 394.103 430.659 402.901 431.489V431.489C411.698 432.32 418.157 440.125 417.326 448.922L369.858 951.687L338 948.679L385.468 445.915Z" fill="#D83A40"/>
<mask id="path-10-inside-2_165_816" fill="white">
<path d="M79 772.986H395V1472.99H79V772.986Z"/>
</mask>
<path d="M79 772.986H395V1472.99H79V772.986Z" fill="#D83A40"/>
<path d="M79 772.986V757.986H64V772.986H79ZM395 772.986H410V757.986H395V772.986ZM79 787.986H395V757.986H79V787.986ZM380 772.986V1472.99H410V772.986H380ZM94 1472.99V772.986H64V1472.99H94Z" fill="#B82025" mask="url(#path-10-inside-2_165_816)"/>
<path d="M71.5 791.488V1465.49H7.5V751.513L71.5 791.488Z" fill="#A81319" stroke="#A81319" stroke-width="15"/>
<path d="M402.5 791.488V1465.49H466.5V751.513L402.5 791.488Z" fill="#A81319" stroke="#A81319" stroke-width="15"/>
<path d="M130.296 926.018C133.845 925.281 137.191 925.097 140.333 925.466C143.475 925.835 146.19 926.452 148.478 927.317L151.109 939.889C148.624 939 146.006 938.236 143.254 937.594C140.501 936.953 137.534 936.963 134.352 937.623C132.761 937.954 131.221 938.529 129.733 939.349C128.305 940.156 127.174 941.157 126.338 942.352C125.564 943.534 125.337 944.89 125.657 946.419C126.079 948.438 127.286 949.783 129.279 950.454C131.271 951.126 133.661 951.715 136.449 952.221L144.628 953.778C149.296 954.723 152.915 956.302 155.485 958.513C158.054 960.724 159.691 963.512 160.395 966.877C161.163 970.547 160.771 974.012 159.218 977.271C157.713 980.456 155.353 983.212 152.136 985.54C148.981 987.855 145.262 989.457 140.978 990.346C137.367 991.096 133.782 991.202 130.221 990.665C126.661 990.128 123.471 989.226 120.652 987.96L118.022 975.389C121.124 976.787 124.437 977.823 127.962 978.495C131.487 979.168 135.086 979.122 138.757 978.36C141.327 977.826 143.428 976.879 145.059 975.519C146.677 974.098 147.275 972.378 146.853 970.359C146.52 968.769 145.486 967.643 143.752 966.982C142.065 966.247 140.264 965.727 138.349 965.423L128.126 963.716C122.969 962.872 119.227 961.159 116.899 958.579C114.619 955.924 113.102 952.792 112.347 949.183C111.566 945.451 111.897 941.999 113.341 938.827C114.833 935.581 117.071 932.85 120.055 930.634C123.027 928.358 126.44 926.819 130.296 926.018Z" fill="white"/>
<path d="M182.246 909.922C184.483 909.685 186.496 910.289 188.285 911.733C190.067 913.116 191.074 914.895 191.306 917.07C191.531 919.183 190.922 921.133 189.479 922.92C188.035 924.707 186.195 925.719 183.957 925.956C181.72 926.193 179.707 925.589 177.918 924.145C176.192 922.693 175.216 920.911 174.991 918.798C174.759 916.623 175.337 914.676 176.725 912.958C178.168 911.171 180.009 910.159 182.246 909.922ZM191.762 933.708L196.786 980.785L184.946 982.039L180.996 945.03L173.445 945.83L172.37 935.762L191.762 933.708Z" fill="white"/>
<path d="M234.902 930.478C237.465 930.484 240.057 931.083 242.679 932.276C245.302 933.469 247.486 935.067 249.232 937.071L249.243 931.727L261.149 931.752L261.049 979.096L249.142 979.071L249.159 971.102C247.779 973.662 245.774 975.876 243.145 977.746C240.516 979.553 237.452 980.452 233.952 980.445C230.14 980.437 226.61 979.461 223.364 977.517C220.181 975.572 217.625 972.754 215.695 969.063C213.765 965.371 212.806 960.9 212.817 955.65C212.828 950.4 213.807 945.903 215.752 942.157C217.76 938.411 220.423 935.541 223.739 933.548C227.119 931.493 230.84 930.47 234.902 930.478ZM237.315 942.108C234.815 942.103 232.657 942.755 230.842 944.063C229.089 945.31 227.711 946.963 226.706 949.023C225.702 951.084 225.197 953.302 225.192 955.677C225.185 959.239 226.241 962.273 228.36 964.777C230.543 967.282 233.415 968.538 236.977 968.545C239.102 968.55 241.072 967.991 242.887 966.87C244.765 965.749 246.268 964.19 247.397 962.192C248.589 960.132 249.188 957.665 249.194 954.79L249.208 948.04C247.525 946.224 245.684 944.782 243.686 943.716C241.751 942.649 239.627 942.113 237.315 942.108Z" fill="white"/>
<path d="M299.678 934.843L298.668 940.757C300.391 939.21 302.364 937.865 304.588 936.72C306.874 935.586 309.589 935.285 312.731 935.818C315.997 936.371 318.824 937.642 321.21 939.631C323.608 941.559 325.288 944.157 326.252 947.427C328.532 945.214 331.051 943.454 333.811 942.146C336.581 940.777 339.598 940.369 342.864 940.922C346.007 941.455 348.746 942.679 351.082 944.596C353.428 946.452 355.13 948.927 356.187 952.022C357.305 955.128 357.502 958.806 356.776 963.057L351.886 991.705L340.147 989.716L344.676 962.624C345.213 959.481 344.78 956.999 343.38 955.177C342.04 953.366 340.046 952.235 337.396 951.787C335.362 951.442 333.496 951.791 331.796 952.835C330.107 953.816 328.468 955.06 326.879 956.566L321.753 986.6L310.014 984.612L314.543 957.519C315.08 954.377 314.647 951.895 313.246 950.073C311.907 948.261 309.943 947.136 307.355 946.698C305.383 946.364 303.522 946.682 301.771 947.653C300.031 948.563 298.408 949.714 296.902 951.107L291.712 981.511L279.973 979.523L287.939 932.854L299.678 934.843Z" fill="white"/>
<path d="M188.323 1017.51C191.304 1017.02 194.095 1016.98 196.697 1017.4C199.299 1017.82 201.537 1018.43 203.41 1019.23L205.144 1029.79C203.108 1028.96 200.956 1028.23 198.689 1027.6C196.421 1026.97 193.951 1026.88 191.278 1027.32C189.942 1027.53 188.64 1027.96 187.371 1028.59C186.153 1029.21 185.175 1030.01 184.437 1030.97C183.749 1031.93 183.511 1033.05 183.722 1034.34C184 1036.03 184.957 1037.19 186.59 1037.82C188.224 1038.45 190.192 1039.03 192.494 1039.55L199.246 1041.13C203.097 1042.08 206.052 1043.52 208.111 1045.45C210.17 1047.39 211.431 1049.76 211.895 1052.59C212.401 1055.67 211.949 1058.55 210.538 1061.21C209.17 1063.81 207.106 1066.02 204.344 1067.84C201.634 1069.66 198.48 1070.86 194.882 1071.46C191.85 1071.95 188.862 1071.92 185.918 1071.34C182.973 1070.77 180.351 1069.91 178.051 1068.76L176.317 1058.19C178.848 1059.47 181.569 1060.45 184.478 1061.13C187.388 1061.81 190.385 1061.9 193.468 1061.4C195.627 1061.04 197.41 1060.33 198.817 1059.25C200.215 1058.12 200.775 1056.71 200.497 1055.02C200.277 1053.68 199.458 1052.71 198.038 1052.09C196.661 1051.42 195.181 1050.93 193.598 1050.61L185.151 1048.83C180.889 1047.94 177.836 1046.39 175.992 1044.15C174.191 1041.86 173.041 1039.2 172.544 1036.17C172.029 1033.04 172.43 1030.17 173.746 1027.58C175.106 1024.93 177.067 1022.73 179.632 1020.99C182.188 1019.2 185.085 1018.04 188.323 1017.51Z" fill="white"/>
<path d="M235.589 1007.04C237.464 1007.03 239.081 1007.7 240.44 1009.05C241.8 1010.34 242.483 1011.9 242.49 1013.73C242.497 1015.5 241.826 1017.06 240.478 1018.42C239.129 1019.78 237.517 1020.47 235.642 1020.47C233.767 1020.48 232.15 1019.81 230.79 1018.46C229.483 1017.11 228.826 1015.55 228.819 1013.78C228.811 1011.96 229.456 1010.39 230.753 1009.09C232.102 1007.73 233.714 1007.04 235.589 1007.04ZM241.451 1027.56L241.608 1067.01L231.686 1067.05L231.563 1036.04L225.235 1036.06L225.202 1027.62L241.451 1027.56Z" fill="white"/>
<path d="M281.765 1030.28C285.57 1030.89 288.704 1032.24 291.167 1034.32C293.68 1036.41 295.423 1039.04 296.393 1042.2C297.424 1045.32 297.634 1048.78 297.025 1052.58L296.358 1056.75L268.124 1052.23C268.219 1054.94 269.167 1057.25 270.969 1059.17C272.771 1061.1 275.163 1062.3 278.146 1062.78C280.974 1063.23 283.636 1063.07 286.132 1062.31C288.627 1061.55 290.664 1060.69 292.242 1059.73L290.707 1068.82C289.3 1069.7 287.272 1070.51 284.622 1071.25C282.032 1071.94 279.271 1072.05 276.34 1071.58C272.483 1070.97 269.1 1069.53 266.191 1067.27C263.334 1065.02 261.197 1062.22 259.78 1058.89C258.414 1055.56 258.044 1051.94 258.67 1048.03C259.279 1044.22 260.683 1040.89 262.882 1038.02C265.082 1035.15 267.825 1033.01 271.113 1031.58C274.408 1030.11 277.959 1029.67 281.765 1030.28ZM280.163 1038.81C277.745 1038.42 275.595 1038.84 273.71 1040.07C271.826 1041.3 270.373 1043.12 269.353 1045.54L288.021 1048.53C288.26 1045.72 287.561 1043.5 285.924 1041.87C284.294 1040.18 282.374 1039.16 280.163 1038.81Z" fill="white"/>
<path d="M162.883 847.775L163.966 851.772L159.028 853.111L163.107 868.154L158.319 869.452L154.239 854.409L151.337 855.196L150.253 851.2L153.156 850.413L152.696 848.716C152.3 847.259 152.265 845.933 152.588 844.739C152.931 843.513 153.529 842.487 154.385 841.661C155.24 840.836 156.271 840.259 157.477 839.932C158.282 839.714 159.009 839.611 159.66 839.624C160.311 839.636 160.904 839.732 161.438 839.911L162.522 843.907C161.556 843.629 160.536 843.649 159.462 843.968C158.715 844.197 158.142 844.622 157.744 845.243C157.339 845.838 157.279 846.664 157.566 847.72L157.944 849.115L162.883 847.775Z" fill="white"/>
<path d="M182.259 843.136C184.154 842.789 185.968 842.934 187.699 843.57C189.426 844.181 190.906 845.181 192.14 846.57C193.394 847.929 194.197 849.569 194.549 851.491C194.9 853.412 194.73 855.23 194.037 856.945C193.371 858.656 192.34 860.115 190.947 861.323C189.548 862.505 187.901 863.27 186.005 863.617C184.135 863.959 182.324 863.827 180.572 863.221C178.84 862.584 177.36 861.584 176.131 860.221C174.902 858.857 174.112 857.214 173.761 855.293C173.409 853.372 173.567 851.556 174.234 849.846C174.896 848.11 175.926 846.651 177.324 845.468C178.744 844.255 180.389 843.478 182.259 843.136ZM183.123 847.862C182.201 848.031 181.383 848.406 180.668 848.986C179.954 849.567 179.428 850.312 179.092 851.221C178.78 852.125 178.733 853.166 178.948 854.344C179.164 855.523 179.577 856.48 180.188 857.215C180.825 857.946 181.58 858.456 182.454 858.746C183.323 859.011 184.218 859.059 185.141 858.89C186.063 858.722 186.883 858.36 187.603 857.805C188.317 857.224 188.843 856.479 189.179 855.57C189.516 854.661 189.577 853.618 189.361 852.44C189.146 851.261 188.72 850.307 188.083 849.576C187.446 848.845 186.691 848.335 185.817 848.045C184.944 847.754 184.046 847.694 183.123 847.862Z" fill="white"/>
<path d="M217.127 844.684C216.253 844.297 215.362 844.147 214.455 844.234C213.314 844.343 212.404 844.809 211.724 845.633C211.042 846.431 210.468 847.401 210.002 848.545L211.051 859.51L206.112 859.983L204.234 840.346L209.172 839.873L209.525 843.567C210.088 842.336 210.785 841.289 211.618 840.424C212.477 839.557 213.49 839.068 214.656 838.956C215.356 838.889 216.003 838.945 216.595 839.124L217.127 844.684Z" fill="white"/>
<path d="M234.322 832.681L234.445 838.422L239.912 838.305L240.001 842.445L234.534 842.562L234.716 851.075C234.735 851.96 234.945 852.659 235.346 853.172C235.774 853.657 236.391 853.892 237.198 853.874C237.901 853.859 238.498 853.768 238.989 853.602C239.507 853.434 239.984 853.203 240.42 852.907L240.504 856.851C240.02 857.356 239.404 857.786 238.657 858.141C237.935 858.495 237.014 858.684 235.895 858.708C234.124 858.746 232.667 858.217 231.524 857.121C230.406 855.999 229.826 854.449 229.783 852.47L229.574 842.668L226.02 842.744L225.966 840.205C227.206 839.736 228.334 838.878 229.349 837.632C230.39 836.386 231.202 834.753 231.784 832.735L234.322 832.681Z" fill="white"/>
<path d="M268.998 839.574L268.244 851.308C268.132 853.049 267.645 854.531 266.784 855.755C265.924 856.952 264.797 857.845 263.402 858.434C262.033 859.025 260.504 859.266 258.815 859.157C257.1 859.047 255.588 858.611 254.28 857.848C252.998 857.087 252.007 856.058 251.308 854.761C250.636 853.439 250.356 851.907 250.468 850.166L251.222 838.432L256.211 838.753L255.554 849.593C255.456 851.126 255.733 852.292 256.386 853.091C257.04 853.889 257.951 854.326 259.121 854.401C260.264 854.475 261.211 854.157 261.961 853.449C262.737 852.742 263.174 851.622 263.273 850.088L263.969 839.251L268.998 839.574Z" fill="white"/>
<path d="M286.865 841.795L286.419 844.572C287.138 843.87 288.055 843.253 289.17 842.72C290.31 842.191 291.536 842.033 292.847 842.244C294.827 842.562 296.377 843.497 297.499 845.05C298.621 846.602 298.967 848.715 298.537 851.389L296.613 863.344L291.715 862.556L293.495 851.25C293.706 849.939 293.541 848.91 293.002 848.164C292.488 847.422 291.679 846.962 290.573 846.784C289.699 846.643 288.831 846.794 287.968 847.235C287.132 847.681 286.381 848.246 285.717 848.93L283.732 861.272L278.834 860.483L281.968 841.007L286.865 841.795Z" fill="white"/>
<path d="M320.398 848.117C322.264 848.6 323.76 849.417 324.888 850.57C326.04 851.729 326.783 853.119 327.117 854.738C327.483 856.339 327.424 858.073 326.941 859.938L326.413 861.98L312.572 858.398C312.491 859.749 312.854 860.946 313.66 861.988C314.466 863.031 315.601 863.741 317.063 864.12C318.449 864.479 319.782 864.528 321.06 864.267C322.338 864.006 323.392 863.673 324.223 863.27L323.03 867.722C322.288 868.095 321.24 868.402 319.886 868.644C318.564 868.866 317.185 868.792 315.748 868.42C313.857 867.93 312.241 867.055 310.9 865.793C309.584 864.538 308.652 863.046 308.104 861.317C307.582 859.594 307.568 857.775 308.064 855.859C308.547 853.993 309.404 852.399 310.634 851.077C311.864 849.754 313.331 848.816 315.034 848.262C316.745 847.682 318.533 847.634 320.398 848.117ZM319.198 852.285C318.013 851.978 316.923 852.086 315.927 852.608C314.931 853.131 314.122 853.97 313.499 855.127L322.651 857.496C322.902 856.109 322.659 854.97 321.921 854.079C321.19 853.164 320.282 852.566 319.198 852.285Z" fill="white"/>
</svg>
