<svg width="474" height="1472" viewBox="0 0 474 1472" fill="none" xmlns="http://www.w3.org/2000/svg">
<mask id="path-1-inside-1_165_1001" fill="white">
<path fill-rule="evenodd" clip-rule="evenodd" d="M0 737.002L79.1091 786.445V787.002H394.899V786.441L474 737.002L394.899 687.564V687.002H394H80H79.1091V687.559L0 737.002Z"/>
</mask>
<path fill-rule="evenodd" clip-rule="evenodd" d="M0 737.002L79.1091 786.445V787.002H394.899V786.441L474 737.002L394.899 687.564V687.002H394H80H79.1091V687.559L0 737.002Z" fill="#4C0406"/>
<path d="M79.1091 786.445H94.1091V778.132L87.0591 773.725L79.1091 786.445ZM0 737.002L-7.94997 724.282L-28.302 737.002L-7.94997 749.722L0 737.002ZM79.1091 787.002H64.1091V802.002H79.1091V787.002ZM394.899 787.002V802.002H409.899V787.002H394.899ZM394.899 786.441L386.949 773.721L379.899 778.127V786.441H394.899ZM474 737.002L481.95 749.722L502.302 737.002L481.95 724.282L474 737.002ZM394.899 687.564H379.899V695.878L386.949 700.284L394.899 687.564ZM394.899 687.002H409.899V672.002H394.899V687.002ZM79.1091 687.002V672.002H64.1091V687.002H79.1091ZM79.1091 687.559L87.0591 700.279L94.1091 695.873V687.559H79.1091ZM87.0591 773.725L7.94997 724.282L-7.94997 749.722L71.1591 799.165L87.0591 773.725ZM94.1091 787.002V786.445H64.1091V787.002H94.1091ZM394.899 772.002H79.1091V802.002H394.899V772.002ZM379.899 786.441V787.002H409.899V786.441H379.899ZM402.849 799.161L481.95 749.722L466.05 724.282L386.949 773.721L402.849 799.161ZM481.95 724.282L402.849 674.844L386.949 700.284L466.05 749.722L481.95 724.282ZM379.899 687.002V687.564H409.899V687.002H379.899ZM394 702.002H394.899V672.002H394V702.002ZM80 702.002H394V672.002H80V702.002ZM79.1091 702.002H80V672.002H79.1091V702.002ZM94.1091 687.559V687.002H64.1091V687.559H94.1091ZM7.94997 749.722L87.0591 700.279L71.1591 674.839L-7.94997 724.282L7.94997 749.722Z" fill="#B82025" mask="url(#path-1-inside-1_165_1001)"/>
<path d="M48.574 435.027C47.3331 426.278 53.4196 418.179 62.1686 416.938V416.938C70.9176 415.697 79.016 421.784 80.2569 430.533L151.175 930.528L119.492 935.022L48.574 435.027Z" fill="#D83A40"/>
<path d="M104.96 462.801C103.878 454.031 110.109 446.044 118.879 444.962V444.962C127.65 443.879 135.637 450.111 136.719 458.881L198.581 960.078L166.822 963.998L104.96 462.801Z" fill="#D83A40"/>
<path d="M158.794 426.571C158.356 417.745 165.155 410.235 173.98 409.796V409.796C182.806 409.358 190.316 416.157 190.755 424.982L215.826 929.36L183.865 930.948L158.794 426.571Z" fill="#D83A40"/>
<path d="M204.457 17.9777C203.902 9.15858 210.601 1.55948 219.421 1.00463V1.00463C228.24 0.449777 235.839 7.14929 236.394 15.9684L268.103 519.972L236.166 521.981L204.457 17.9777Z" fill="#D83A40"/>
<path d="M277.097 430.996C277.344 422.163 284.705 415.202 293.538 415.449V415.449C302.371 415.696 309.332 423.056 309.085 431.889L294.988 936.693L263 935.799L277.097 430.996Z" fill="#D83A40"/>
<path d="M336.195 476.833C337.475 468.09 345.601 462.041 354.345 463.321V463.321C363.088 464.602 369.137 472.728 367.857 481.472L294.662 981.139L263 976.501L336.195 476.833Z" fill="#D83A40"/>
<path d="M385.468 444.932C386.298 436.134 394.103 429.676 402.901 430.506V430.506C411.698 431.337 418.157 439.142 417.326 447.939L369.858 950.704L338 947.696L385.468 444.932Z" fill="#D83A40"/>
<mask id="path-10-inside-2_165_1001" fill="white">
<path d="M79 772.002H395V1472H79V772.002Z"/>
</mask>
<path d="M79 772.002H395V1472H79V772.002Z" fill="#D83A40"/>
<path d="M79 772.002V757.002H64V772.002H79ZM395 772.002H410V757.002H395V772.002ZM79 787.002H395V757.002H79V787.002ZM380 772.002V1472H410V772.002H380ZM94 1472V772.002H64V1472H94Z" fill="#B82025" mask="url(#path-10-inside-2_165_1001)"/>
<path d="M71.5 790.504V1464.5H7.5V750.53L71.5 790.504Z" fill="#A81319" stroke="#A81319" stroke-width="15"/>
<path d="M402.5 790.504V1464.5H466.5V750.53L402.5 790.504Z" fill="#A81319" stroke="#A81319" stroke-width="15"/>
<path d="M130.296 925.035C133.845 924.298 137.191 924.114 140.333 924.483C143.475 924.851 146.19 925.469 148.478 926.334L151.109 938.905C148.624 938.017 146.006 937.252 143.254 936.611C140.501 935.97 137.534 935.979 134.352 936.64C132.761 936.97 131.221 937.546 129.733 938.365C128.305 939.173 127.174 940.173 126.338 941.368C125.564 942.55 125.337 943.906 125.657 945.436C126.079 947.454 127.286 948.799 129.279 949.471C131.271 950.142 133.661 950.731 136.449 951.237L144.628 952.794C149.296 953.74 152.915 955.318 155.485 957.53C158.054 959.741 159.691 962.529 160.395 965.893C161.163 969.564 160.771 973.029 159.218 976.287C157.713 979.472 155.353 982.229 152.136 984.556C148.981 986.871 145.262 988.473 140.978 989.363C137.367 990.113 133.782 990.219 130.221 989.682C126.661 989.144 123.471 988.243 120.652 986.977L118.022 974.406C121.124 975.804 124.437 976.839 127.962 977.512C131.487 978.184 135.086 978.139 138.757 977.377C141.327 976.843 143.428 975.896 145.059 974.536C146.677 973.115 147.275 971.395 146.853 969.376C146.52 967.785 145.486 966.66 143.752 965.998C142.065 965.263 140.264 964.744 138.349 964.439L128.126 962.732C122.969 961.888 119.227 960.176 116.899 957.595C114.619 954.941 113.102 951.809 112.347 948.2C111.566 944.468 111.897 941.016 113.341 937.844C114.833 934.598 117.071 931.867 120.055 929.651C123.027 927.374 126.44 925.836 130.296 925.035Z" fill="white"/>
<path d="M182.246 908.939C184.483 908.702 186.496 909.305 188.285 910.75C190.067 912.133 191.074 913.911 191.306 916.087C191.531 918.2 190.922 920.15 189.479 921.937C188.035 923.724 186.195 924.736 183.957 924.973C181.72 925.21 179.707 924.606 177.918 923.161C176.192 921.71 175.216 919.928 174.991 917.815C174.759 915.64 175.337 913.693 176.725 911.975C178.168 910.188 180.009 909.176 182.246 908.939ZM191.762 932.725L196.786 979.801L184.946 981.055L180.996 944.047L173.445 944.847L172.37 934.779L191.762 932.725Z" fill="white"/>
<path d="M234.902 929.495C237.465 929.5 240.057 930.099 242.679 931.293C245.302 932.486 247.486 934.084 249.232 936.088L249.243 930.744L261.149 930.769L261.049 978.113L249.142 978.088L249.159 970.119C247.779 972.678 245.774 974.893 243.145 976.762C240.516 978.569 237.452 979.469 233.952 979.462C230.14 979.454 226.61 978.477 223.364 976.533C220.181 974.589 217.625 971.771 215.695 968.079C213.765 964.388 212.806 959.917 212.817 954.667C212.828 949.417 213.807 944.919 215.752 941.173C217.76 937.427 220.423 934.558 223.739 932.565C227.119 930.51 230.84 929.486 234.902 929.495ZM237.315 941.125C234.815 941.12 232.657 941.771 230.842 943.08C229.089 944.326 227.711 945.98 226.706 948.04C225.702 950.1 225.197 952.318 225.192 954.693C225.185 958.256 226.241 961.289 228.36 963.794C230.543 966.298 233.415 967.554 236.977 967.562C239.102 967.566 241.072 967.008 242.887 965.887C244.765 964.766 246.268 963.206 247.397 961.209C248.589 959.149 249.188 956.681 249.194 953.806L249.208 947.056C247.525 945.24 245.684 943.799 243.686 942.732C241.751 941.666 239.627 941.13 237.315 941.125Z" fill="white"/>
<path d="M299.678 933.859L298.668 939.774C300.391 938.227 302.364 936.882 304.588 935.737C306.874 934.603 309.589 934.302 312.731 934.834C315.997 935.388 318.824 936.659 321.21 938.648C323.608 940.575 325.288 943.174 326.252 946.443C328.532 944.23 331.051 942.47 333.811 941.163C336.581 939.794 339.598 939.386 342.864 939.939C346.007 940.471 348.746 941.696 351.082 943.613C353.428 945.469 355.13 947.944 356.187 951.039C357.305 954.144 357.502 957.822 356.776 962.073L351.886 990.722L340.147 988.733L344.676 961.64C345.213 958.498 344.78 956.016 343.38 954.194C342.04 952.382 340.046 951.252 337.396 950.803C335.362 950.459 333.496 950.808 331.796 951.851C330.107 952.833 328.468 954.077 326.879 955.583L321.753 985.617L310.014 983.628L314.543 956.536C315.08 953.393 314.647 950.911 313.246 949.089C311.907 947.278 309.943 946.153 307.355 945.714C305.383 945.38 303.522 945.699 301.771 946.67C300.031 947.58 298.408 948.731 296.902 950.124L291.712 980.528L279.973 978.539L287.939 931.871L299.678 933.859Z" fill="white"/>
<path d="M188.323 1016.53C191.304 1016.04 194.095 1016 196.697 1016.42C199.299 1016.83 201.537 1017.44 203.41 1018.24L205.144 1028.81C203.108 1027.98 200.956 1027.25 198.689 1026.62C196.421 1025.99 193.951 1025.89 191.278 1026.33C189.942 1026.55 188.64 1026.98 187.371 1027.61C186.153 1028.23 185.175 1029.02 184.437 1029.99C183.749 1030.95 183.511 1032.07 183.722 1033.35C184 1035.05 184.957 1036.21 186.59 1036.84C188.224 1037.47 190.192 1038.04 192.494 1038.56L199.246 1040.15C203.097 1041.1 206.052 1042.54 208.111 1044.47C210.17 1046.4 211.431 1048.78 211.895 1051.61C212.401 1054.69 211.949 1057.56 210.538 1060.22C209.17 1062.82 207.106 1065.04 204.344 1066.86C201.634 1068.68 198.48 1069.88 194.882 1070.47C191.85 1070.97 188.862 1070.93 185.918 1070.36C182.973 1069.79 180.351 1068.93 178.051 1067.77L176.317 1057.21C178.848 1058.48 181.569 1059.46 184.478 1060.15C187.388 1060.83 190.385 1060.92 193.468 1060.41C195.627 1060.06 197.41 1059.34 198.817 1058.27C200.215 1057.14 200.775 1055.73 200.497 1054.03C200.277 1052.7 199.458 1051.72 198.038 1051.11C196.661 1050.44 195.181 1049.94 193.598 1049.62L185.151 1047.84C180.889 1046.96 177.836 1045.4 175.992 1043.17C174.191 1040.88 173.041 1038.22 172.544 1035.19C172.029 1032.05 172.43 1029.19 173.746 1026.6C175.106 1023.95 177.067 1021.75 179.632 1020.01C182.188 1018.22 185.085 1017.06 188.323 1016.53Z" fill="white"/>
<path d="M235.589 1006.05C237.464 1006.05 239.081 1006.72 240.44 1008.06C241.8 1009.36 242.483 1010.92 242.49 1012.74C242.497 1014.51 241.826 1016.08 240.478 1017.44C239.129 1018.8 237.517 1019.48 235.642 1019.49C233.767 1019.5 232.15 1018.83 230.79 1017.48C229.483 1016.13 228.826 1014.57 228.819 1012.8C228.811 1010.98 229.456 1009.41 230.753 1008.1C232.102 1006.74 233.714 1006.06 235.589 1006.05ZM241.451 1026.58L241.608 1066.03L231.686 1066.07L231.563 1035.05L225.235 1035.08L225.202 1026.64L241.451 1026.58Z" fill="white"/>
<path d="M281.765 1029.3C285.57 1029.91 288.704 1031.25 291.167 1033.34C293.68 1035.43 295.423 1038.05 296.393 1041.21C297.424 1044.33 297.634 1047.8 297.025 1051.6L296.358 1055.77L268.124 1051.25C268.219 1053.95 269.167 1056.27 270.969 1058.19C272.771 1060.11 275.163 1061.31 278.146 1061.79C280.974 1062.25 283.636 1062.09 286.132 1061.33C288.627 1060.57 290.664 1059.71 292.242 1058.75L290.707 1067.84C289.3 1068.72 287.272 1069.53 284.622 1070.27C282.032 1070.96 279.271 1071.07 276.34 1070.6C272.483 1069.98 269.1 1068.55 266.191 1066.29C263.334 1064.04 261.197 1061.24 259.78 1057.9C258.414 1054.57 258.044 1050.95 258.67 1047.04C259.279 1043.24 260.683 1039.9 262.882 1037.04C265.082 1034.17 267.825 1032.03 271.113 1030.6C274.408 1029.12 277.959 1028.69 281.765 1029.3ZM280.163 1037.83C277.745 1037.44 275.595 1037.86 273.71 1039.09C271.826 1040.32 270.373 1042.14 269.353 1044.56L288.021 1047.55C288.26 1044.74 287.561 1042.52 285.924 1040.88C284.294 1039.2 282.374 1038.18 280.163 1037.83Z" fill="white"/>
<path d="M162.883 846.792L163.966 850.788L159.028 852.128L163.107 867.17L158.319 868.469L154.239 853.426L151.337 854.213L150.253 850.217L153.156 849.43L152.696 847.733C152.3 846.275 152.265 844.949 152.588 843.755C152.931 842.529 153.529 841.503 154.385 840.678C155.24 839.852 156.271 839.276 157.477 838.949C158.282 838.731 159.009 838.628 159.66 838.64C160.311 838.653 160.904 838.748 161.438 838.927L162.522 842.923C161.556 842.646 160.536 842.666 159.462 842.984C158.715 843.214 158.142 843.639 157.744 844.26C157.339 844.855 157.279 845.681 157.566 846.736L157.944 848.131L162.883 846.792Z" fill="white"/>
<path d="M182.259 842.153C184.154 841.806 185.968 841.951 187.699 842.587C189.426 843.198 190.906 844.198 192.14 845.587C193.394 846.946 194.197 848.586 194.549 850.507C194.9 852.429 194.73 854.247 194.037 855.962C193.371 857.672 192.34 859.131 190.947 860.339C189.548 861.522 187.901 862.286 186.005 862.633C184.135 862.975 182.324 862.843 180.572 862.237C178.84 861.601 177.36 860.601 176.131 859.237C174.902 857.874 174.112 856.231 173.761 854.31C173.409 852.389 173.567 850.573 174.234 848.862C174.896 847.126 175.926 845.667 177.324 844.485C178.744 843.272 180.389 842.495 182.259 842.153ZM183.123 846.879C182.201 847.048 181.383 847.422 180.668 848.003C179.954 848.584 179.428 849.329 179.092 850.237C178.78 851.141 178.733 852.183 178.948 853.361C179.164 854.539 179.577 855.496 180.188 856.232C180.825 856.962 181.58 857.473 182.454 857.763C183.323 858.028 184.218 858.076 185.141 857.907C186.063 857.738 186.883 857.376 187.603 856.821C188.317 856.24 188.843 855.496 189.179 854.587C189.516 853.678 189.577 852.635 189.361 851.456C189.146 850.278 188.72 849.323 188.083 848.593C187.446 847.862 186.691 847.351 185.817 847.061C184.944 846.771 184.046 846.71 183.123 846.879Z" fill="white"/>
<path d="M217.127 843.701C216.253 843.314 215.362 843.164 214.455 843.25C213.314 843.36 212.404 843.826 211.724 844.65C211.042 845.447 210.468 846.418 210.002 847.561L211.051 858.527L206.112 858.999L204.234 839.363L209.172 838.89L209.525 842.584C210.088 841.353 210.785 840.305 211.618 839.441C212.477 838.574 213.49 838.084 214.656 837.973C215.356 837.906 216.003 837.962 216.595 838.14L217.127 843.701Z" fill="white"/>
<path d="M234.322 831.698L234.445 837.438L239.912 837.322L240.001 841.461L234.534 841.578L234.716 850.092C234.735 850.977 234.945 851.676 235.346 852.188C235.774 852.674 236.391 852.908 237.198 852.891C237.901 852.876 238.498 852.785 238.989 852.618C239.507 852.451 239.984 852.219 240.42 851.923L240.504 855.868C240.02 856.373 239.404 856.803 238.657 857.158C237.935 857.512 237.014 857.701 235.895 857.725C234.124 857.762 232.667 857.234 231.524 856.138C230.406 855.016 229.826 853.465 229.783 851.487L229.574 841.684L226.02 841.76L225.966 839.222C227.206 838.752 228.334 837.895 229.349 836.649C230.39 835.402 231.202 833.77 231.784 831.752L234.322 831.698Z" fill="white"/>
<path d="M268.998 838.591L268.244 850.325C268.132 852.066 267.645 853.548 266.784 854.771C265.924 855.969 264.797 856.862 263.402 857.451C262.033 858.041 260.504 858.282 258.815 858.174C257.1 858.064 255.588 857.627 254.28 856.865C252.998 856.104 252.007 855.075 251.308 853.777C250.636 852.455 250.356 850.924 250.468 849.183L251.222 837.449L256.211 837.77L255.554 848.609C255.456 850.142 255.733 851.308 256.386 852.107C257.04 852.906 257.951 853.343 259.121 853.418C260.264 853.491 261.211 853.174 261.961 852.465C262.737 851.758 263.174 850.638 263.273 849.105L263.969 838.268L268.998 838.591Z" fill="white"/>
<path d="M286.865 840.812L286.419 843.589C287.138 842.887 288.055 842.27 289.17 841.737C290.31 841.208 291.536 841.049 292.847 841.26C294.827 841.579 296.377 842.514 297.499 844.066C298.621 845.618 298.967 847.731 298.537 850.405L296.613 862.361L291.715 861.573L293.495 850.266C293.706 848.955 293.541 847.927 293.002 847.18C292.488 846.438 291.679 845.978 290.573 845.8C289.699 845.66 288.831 845.81 287.968 846.252C287.132 846.697 286.381 847.262 285.717 847.947L283.732 860.288L278.834 859.5L281.968 840.024L286.865 840.812Z" fill="white"/>
<path d="M320.398 847.133C322.264 847.616 323.76 848.434 324.888 849.587C326.04 850.746 326.783 852.135 327.117 853.755C327.483 855.356 327.424 857.089 326.941 858.955L326.413 860.997L312.572 857.414C312.491 858.765 312.854 859.962 313.66 861.005C314.466 862.047 315.601 862.758 317.063 863.136C318.449 863.495 319.782 863.544 321.06 863.283C322.338 863.022 323.392 862.69 324.223 862.286L323.03 866.739C322.288 867.112 321.24 867.419 319.886 867.66C318.564 867.883 317.185 867.808 315.748 867.436C313.857 866.947 312.241 866.071 310.9 864.809C309.584 863.554 308.652 862.062 308.104 860.333C307.582 858.611 307.568 856.792 308.064 854.876C308.547 853.01 309.404 851.416 310.634 850.094C311.864 848.771 313.331 847.833 315.034 847.278C316.745 846.699 318.533 846.65 320.398 847.133ZM319.198 851.302C318.013 850.995 316.923 851.103 315.927 851.625C314.931 852.147 314.122 852.987 313.499 854.144L322.651 856.513C322.902 855.125 322.659 853.986 321.921 853.096C321.19 852.18 320.282 851.582 319.198 851.302Z" fill="white"/>
</svg>
