<svg width="474" height="1272" viewBox="0 0 474 1272" fill="none" xmlns="http://www.w3.org/2000/svg">
<mask id="path-1-inside-1_165_520" fill="white">
<path fill-rule="evenodd" clip-rule="evenodd" d="M0 536.953L79.1091 586.396V586.953H394.899V586.392L474 536.953L394.899 487.515V486.953H394H80H79.1091V487.51L0 536.953Z"/>
</mask>
<path fill-rule="evenodd" clip-rule="evenodd" d="M0 536.953L79.1091 586.396V586.953H394.899V586.392L474 536.953L394.899 487.515V486.953H394H80H79.1091V487.51L0 536.953Z" fill="#4C0406"/>
<path d="M79.1091 586.396H94.1091V578.083L87.0591 573.676L79.1091 586.396ZM0 536.953L-7.94997 524.233L-28.302 536.953L-7.94997 549.673L0 536.953ZM79.1091 586.953H64.1091V601.953H79.1091V586.953ZM394.899 586.953V601.953H409.899V586.953H394.899ZM394.899 586.392L386.949 573.672L379.899 578.078V586.392H394.899ZM474 536.953L481.95 549.673L502.302 536.953L481.95 524.233L474 536.953ZM394.899 487.515H379.899V495.829L386.949 500.235L394.899 487.515ZM394.899 486.953H409.899V471.953H394.899V486.953ZM79.1091 486.953V471.953H64.1091V486.953H79.1091ZM79.1091 487.51L87.0591 500.23L94.1091 495.824V487.51H79.1091ZM87.0591 573.676L7.94997 524.233L-7.94997 549.673L71.1591 599.116L87.0591 573.676ZM94.1091 586.953V586.396H64.1091V586.953H94.1091ZM394.899 571.953H79.1091V601.953H394.899V571.953ZM379.899 586.392V586.953H409.899V586.392H379.899ZM402.849 599.112L481.95 549.673L466.05 524.233L386.949 573.672L402.849 599.112ZM481.95 524.233L402.849 474.795L386.949 500.235L466.05 549.673L481.95 524.233ZM379.899 486.953V487.515H409.899V486.953H379.899ZM394 501.953H394.899V471.953H394V501.953ZM80 501.953H394V471.953H80V501.953ZM79.1091 501.953H80V471.953H79.1091V501.953ZM94.1091 487.51V486.953H64.1091V487.51H94.1091ZM7.94997 549.673L87.0591 500.23L71.1591 474.79L-7.94997 524.233L7.94997 549.673Z" fill="#B82025" mask="url(#path-1-inside-1_165_520)"/>
<path d="M48.574 242.977C47.3331 234.228 53.4196 226.13 62.1686 224.889V224.889C70.9176 223.648 79.016 229.735 80.2569 238.484L151.175 738.479L119.492 742.973L48.574 242.977Z" fill="#D83A40"/>
<path d="M104.96 270.752C103.878 261.982 110.109 253.995 118.879 252.913V252.913C127.65 251.83 135.637 258.062 136.719 266.832L198.581 768.029L166.822 771.949L104.96 270.752Z" fill="#D83A40"/>
<path d="M158.794 234.522C158.356 225.696 165.155 218.186 173.98 217.747V217.747C182.806 217.308 190.316 224.107 190.755 232.933L215.826 737.31L183.865 738.899L158.794 234.522Z" fill="#D83A40"/>
<path d="M209.554 17.3258C209.184 8.497 216.041 1.03991 224.87 0.669921V0.669921C233.699 0.299933 241.156 7.15716 241.526 15.986L262.67 520.543L230.698 521.883L209.554 17.3258Z" fill="#D83A40"/>
<path d="M277.097 238.947C277.344 230.114 284.705 223.153 293.538 223.4V223.4C302.371 223.646 309.332 231.007 309.085 239.84L294.988 744.643L263 743.75L277.097 238.947Z" fill="#D83A40"/>
<path d="M336.195 284.784C337.475 276.041 345.601 269.991 354.345 271.272V271.272C363.088 272.553 369.137 280.679 367.857 289.422L294.662 789.09L263 784.452L336.195 284.784Z" fill="#D83A40"/>
<path d="M385.468 252.882C386.298 244.085 394.103 237.626 402.901 238.457V238.457C411.698 239.288 418.157 247.093 417.326 255.89L369.858 758.654L338 755.646L385.468 252.882Z" fill="#D83A40"/>
<mask id="path-10-inside-2_165_520" fill="white">
<path d="M79 571.953H395V1271.95H79V571.953Z"/>
</mask>
<path d="M79 571.953H395V1271.95H79V571.953Z" fill="#D83A40"/>
<path d="M79 571.953V556.953H64V571.953H79ZM395 571.953H410V556.953H395V571.953ZM79 586.953H395V556.953H79V586.953ZM380 571.953V1271.95H410V571.953H380ZM94 1271.95V571.953H64V1271.95H94Z" fill="#B82025" mask="url(#path-10-inside-2_165_520)"/>
<path d="M71.5 590.455V1264.45H7.5V550.48L71.5 590.455Z" fill="#A81319" stroke="#A81319" stroke-width="15"/>
<path d="M402.5 590.455V1264.45H466.5V550.48L402.5 590.455Z" fill="#A81319" stroke="#A81319" stroke-width="15"/>
<path d="M130.296 724.986C133.845 724.249 137.191 724.065 140.333 724.434C143.475 724.802 146.19 725.419 148.478 726.285L151.109 738.856C148.624 737.968 146.006 737.203 143.254 736.562C140.501 735.92 137.534 735.93 134.352 736.591C132.761 736.921 131.221 737.497 129.733 738.316C128.305 739.123 127.174 740.124 126.338 741.319C125.564 742.501 125.337 743.857 125.657 745.387C126.079 747.405 127.286 748.75 129.279 749.422C131.271 750.093 133.661 750.682 136.449 751.188L144.628 752.745C149.296 753.691 152.915 755.269 155.485 757.481C158.054 759.692 159.691 762.48 160.395 765.844C161.163 769.515 160.771 772.979 159.218 776.238C157.713 779.423 155.353 782.18 152.136 784.507C148.981 786.822 145.262 788.424 140.978 789.314C137.367 790.064 133.782 790.17 130.221 789.633C126.661 789.095 123.471 788.194 120.652 786.928L118.022 774.357C121.124 775.755 124.437 776.79 127.962 777.463C131.487 778.135 135.086 778.09 138.757 777.327C141.327 776.794 143.428 775.847 145.059 774.487C146.677 773.066 147.275 771.346 146.853 769.327C146.52 767.736 145.486 766.61 143.752 765.949C142.065 765.214 140.264 764.695 138.349 764.39L128.126 762.683C122.969 761.839 119.227 760.127 116.899 757.546C114.619 754.892 113.102 751.76 112.347 748.15C111.566 744.419 111.897 740.967 113.341 737.795C114.833 734.548 117.071 731.818 120.055 729.602C123.027 727.325 126.44 725.787 130.296 724.986Z" fill="white"/>
<path d="M182.246 708.89C184.483 708.653 186.496 709.257 188.285 710.701C190.067 712.084 191.074 713.863 191.306 716.038C191.531 718.151 190.922 720.101 189.479 721.888C188.035 723.675 186.195 724.687 183.957 724.924C181.72 725.161 179.707 724.557 177.918 723.112C176.192 721.661 175.216 719.879 174.991 717.766C174.759 715.591 175.337 713.644 176.725 711.926C178.168 710.139 180.009 709.127 182.246 708.89ZM191.762 732.676L196.786 779.752L184.946 781.007L180.996 743.998L173.445 744.798L172.37 734.73L191.762 732.676Z" fill="white"/>
<path d="M234.902 729.446C237.465 729.451 240.057 730.05 242.679 731.243C245.302 732.436 247.486 734.035 249.232 736.039L249.243 730.695L261.149 730.72L261.049 778.064L249.142 778.038L249.159 770.07C247.779 772.629 245.774 774.844 243.145 776.713C240.516 778.52 237.452 779.42 233.952 779.413C230.14 779.405 226.61 778.428 223.364 776.484C220.181 774.54 217.625 771.722 215.695 768.03C213.765 764.339 212.806 759.868 212.817 754.618C212.828 749.368 213.807 744.87 215.752 741.124C217.76 737.378 220.423 734.509 223.739 732.516C227.119 730.461 230.84 729.437 234.902 729.446ZM237.315 741.076C234.815 741.071 232.657 741.722 230.842 743.031C229.089 744.277 227.711 745.931 226.706 747.991C225.702 750.051 225.197 752.269 225.192 754.644C225.185 758.207 226.241 761.24 228.36 763.745C230.543 766.249 233.415 767.505 236.977 767.513C239.102 767.517 241.072 766.959 242.887 765.838C244.765 764.717 246.268 763.157 247.397 761.16C248.589 759.1 249.188 756.632 249.194 753.757L249.208 747.007C247.525 745.191 245.684 743.75 243.686 742.683C241.751 741.617 239.627 741.081 237.315 741.076Z" fill="white"/>
<path d="M299.678 733.81L298.668 739.724C300.391 738.178 302.364 736.832 304.588 735.688C306.874 734.553 309.589 734.253 312.731 734.785C315.997 735.338 318.824 736.609 321.21 738.599C323.608 740.526 325.288 743.124 326.252 746.394C328.532 744.181 331.051 742.421 333.811 741.113C336.581 739.744 339.598 739.336 342.864 739.89C346.007 740.422 348.746 741.647 351.082 743.564C353.428 745.419 355.13 747.894 356.187 750.989C357.305 754.095 357.502 757.773 356.776 762.024L351.886 790.672L340.147 788.684L344.676 761.591C345.213 758.449 344.78 755.967 343.38 754.145C342.04 752.333 340.046 751.203 337.396 750.754C335.362 750.409 333.496 750.759 331.796 751.802C330.107 752.784 328.468 754.027 326.879 755.533L321.753 785.568L310.014 783.579L314.543 756.486C315.08 753.344 314.647 750.862 313.246 749.04C311.907 747.228 309.943 746.103 307.355 745.665C305.383 745.331 303.522 745.649 301.771 746.621C300.031 747.53 298.408 748.682 296.902 750.075L291.712 780.479L279.973 778.49L287.939 731.821L299.678 733.81Z" fill="white"/>
<path d="M188.323 816.476C191.304 815.987 194.095 815.951 196.697 816.368C199.299 816.786 201.537 817.395 203.41 818.196L205.144 828.757C203.108 827.93 200.956 827.202 198.689 826.571C196.421 825.94 193.951 825.844 191.278 826.283C189.942 826.503 188.64 826.927 187.371 827.558C186.153 828.18 185.175 828.974 184.437 829.94C183.749 830.897 183.511 832.018 183.722 833.303C184 834.999 184.957 836.162 186.59 836.791C188.224 837.42 190.192 837.994 192.494 838.513L199.246 840.097C203.097 841.048 206.052 842.49 208.111 844.421C210.17 846.353 211.431 848.732 211.895 851.559C212.401 854.642 211.949 857.514 210.538 860.174C209.17 862.773 207.106 864.986 204.344 866.811C201.634 868.629 198.48 869.832 194.882 870.423C191.85 870.921 188.862 870.883 185.918 870.311C182.973 869.739 180.351 868.876 178.051 867.723L176.317 857.161C178.848 858.435 181.569 859.413 184.478 860.097C187.388 860.78 190.385 860.869 193.468 860.363C195.627 860.009 197.41 859.294 198.817 858.218C200.215 857.091 200.775 855.68 200.497 853.984C200.277 852.648 199.458 851.674 198.038 851.062C196.661 850.391 195.181 849.895 193.598 849.574L185.151 847.794C180.889 846.91 177.836 845.353 175.992 843.122C174.191 840.832 173.041 838.17 172.544 835.138C172.029 832.003 172.43 829.14 173.746 826.548C175.106 823.897 177.067 821.702 179.632 819.961C182.188 818.169 185.085 817.008 188.323 816.476Z" fill="white"/>
<path d="M235.589 806.003C237.464 805.996 239.081 806.667 240.44 808.015C241.8 809.312 242.483 810.872 242.49 812.695C242.497 814.466 241.826 816.031 240.478 817.39C239.129 818.75 237.517 819.433 235.642 819.441C233.767 819.448 232.15 818.778 230.79 817.429C229.483 816.08 228.826 814.52 228.819 812.749C228.811 810.926 229.456 809.361 230.753 808.054C232.102 806.694 233.714 806.011 235.589 806.003ZM241.451 826.527L241.608 865.98L231.686 866.019L231.563 835.004L225.235 835.029L225.202 826.592L241.451 826.527Z" fill="white"/>
<path d="M281.765 829.25C285.57 829.86 288.704 831.205 291.167 833.287C293.68 835.378 295.423 838.004 296.393 841.166C297.424 844.284 297.634 847.747 297.025 851.552L296.358 855.718L268.124 851.198C268.219 853.903 269.167 856.218 270.969 858.141C272.771 860.065 275.163 861.266 278.146 861.743C280.974 862.196 283.636 862.042 286.132 861.281C288.627 860.52 290.664 859.659 292.242 858.698L290.707 867.789C289.3 868.671 287.272 869.481 284.622 870.217C282.032 870.91 279.271 871.022 276.34 870.553C272.483 869.935 269.1 868.497 266.191 866.238C263.334 863.987 261.197 861.193 259.78 857.854C258.414 854.523 258.044 850.903 258.67 846.995C259.279 843.189 260.683 839.853 262.882 836.988C265.082 834.123 267.825 831.977 271.113 830.552C274.408 829.075 277.959 828.641 281.765 829.25ZM280.163 837.776C277.745 837.389 275.595 837.81 273.71 839.038C271.826 840.266 270.373 842.09 269.353 844.512L288.021 847.5C288.26 844.69 287.561 842.468 285.924 840.835C284.294 839.15 282.374 838.13 280.163 837.776Z" fill="white"/>
<path d="M162.883 646.743L163.966 650.739L159.028 652.078L163.107 667.121L158.319 668.419L154.239 653.377L151.337 654.164L150.253 650.167L153.156 649.38L152.696 647.684C152.3 646.226 152.265 644.9 152.588 643.706C152.931 642.48 153.529 641.454 154.385 640.629C155.24 639.803 156.271 639.227 157.477 638.9C158.282 638.681 159.009 638.579 159.66 638.591C160.311 638.603 160.904 638.699 161.438 638.878L162.522 642.874C161.556 642.596 160.536 642.617 159.462 642.935C158.715 643.164 158.142 643.59 157.744 644.21C157.339 644.806 157.279 645.631 157.566 646.687L157.944 648.082L162.883 646.743Z" fill="white"/>
<path d="M182.259 642.104C184.154 641.757 185.968 641.902 187.699 642.538C189.426 643.149 190.906 644.149 192.14 645.538C193.394 646.897 194.197 648.537 194.549 650.458C194.9 652.38 194.73 654.198 194.037 655.913C193.371 657.623 192.34 659.082 190.947 660.291C189.548 661.473 187.901 662.238 186.005 662.584C184.135 662.926 182.324 662.794 180.572 662.188C178.84 661.552 177.36 660.552 176.131 659.188C174.902 657.825 174.112 656.182 173.761 654.261C173.409 652.34 173.567 650.524 174.234 648.814C174.896 647.078 175.926 645.618 177.324 644.436C178.744 643.223 180.389 642.446 182.259 642.104ZM183.123 646.83C182.201 646.999 181.383 647.373 180.668 647.954C179.954 648.535 179.428 649.28 179.092 650.188C178.78 651.093 178.733 652.134 178.948 653.312C179.164 654.49 179.577 655.447 180.188 656.183C180.825 656.913 181.58 657.424 182.454 657.714C183.323 657.979 184.218 658.027 185.141 657.858C186.063 657.689 186.883 657.327 187.603 656.772C188.317 656.192 188.843 655.447 189.179 654.538C189.516 653.629 189.577 652.586 189.361 651.407C189.146 650.229 188.72 649.274 188.083 648.544C187.446 647.813 186.691 647.303 185.817 647.012C184.944 646.722 184.046 646.661 183.123 646.83Z" fill="white"/>
<path d="M217.127 643.652C216.253 643.265 215.362 643.114 214.455 643.201C213.314 643.31 212.404 643.777 211.724 644.601C211.042 645.398 210.468 646.369 210.002 647.512L211.051 658.478L206.112 658.95L204.234 639.313L209.172 638.841L209.525 642.535C210.088 641.304 210.785 640.256 211.618 639.392C212.477 638.525 213.49 638.035 214.656 637.924C215.356 637.857 216.003 637.913 216.595 638.091L217.127 643.652Z" fill="white"/>
<path d="M234.322 631.649L234.445 637.389L239.912 637.272L240.001 641.412L234.534 641.529L234.716 650.043C234.735 650.928 234.945 651.627 235.346 652.139C235.774 652.625 236.391 652.859 237.198 652.842C237.901 652.827 238.498 652.736 238.989 652.569C239.507 652.402 239.984 652.17 240.42 651.874L240.504 655.819C240.02 656.324 239.404 656.754 238.657 657.109C237.935 657.463 237.014 657.652 235.895 657.676C234.124 657.713 232.667 657.185 231.524 656.089C230.406 654.967 229.826 653.416 229.783 651.438L229.574 641.635L226.02 641.711L225.966 639.173C227.206 638.703 228.334 637.846 229.349 636.6C230.39 635.353 231.202 633.721 231.784 631.703L234.322 631.649Z" fill="white"/>
<path d="M268.998 638.542L268.244 650.275C268.132 652.017 267.645 653.499 266.784 654.722C265.924 655.92 264.797 656.813 263.402 657.402C262.033 657.992 260.504 658.233 258.815 658.125C257.1 658.015 255.588 657.578 254.28 656.816C252.998 656.055 252.007 655.026 251.308 653.728C250.636 652.406 250.356 650.875 250.468 649.134L251.222 637.4L256.211 637.721L255.554 648.56C255.456 650.093 255.733 651.259 256.386 652.058C257.04 652.857 257.951 653.294 259.121 653.369C260.264 653.442 261.211 653.125 261.961 652.416C262.737 651.709 263.174 650.589 263.273 649.056L263.969 638.219L268.998 638.542Z" fill="white"/>
<path d="M286.865 640.763L286.419 643.54C287.138 642.838 288.055 642.221 289.17 641.688C290.31 641.159 291.536 641 292.847 641.211C294.827 641.53 296.377 642.465 297.499 644.017C298.621 645.569 298.967 647.682 298.537 650.356L296.613 662.312L291.715 661.524L293.495 650.218C293.706 648.906 293.541 647.878 293.002 647.131C292.488 646.389 291.679 645.929 290.573 645.752C289.699 645.611 288.831 645.761 287.968 646.203C287.132 646.649 286.381 647.214 285.717 647.898L283.732 660.239L278.834 659.451L281.968 639.975L286.865 640.763Z" fill="white"/>
<path d="M320.398 647.084C322.264 647.567 323.76 648.385 324.888 649.537C326.04 650.697 326.783 652.086 327.117 653.706C327.483 655.307 327.424 657.04 326.941 658.906L326.413 660.948L312.572 657.365C312.491 658.716 312.854 659.913 313.66 660.955C314.466 661.998 315.601 662.709 317.063 663.087C318.449 663.446 319.782 663.495 321.06 663.234C322.338 662.973 323.392 662.641 324.223 662.237L323.03 666.689C322.288 667.062 321.24 667.369 319.886 667.611C318.564 667.834 317.185 667.759 315.748 667.387C313.857 666.897 312.241 666.022 310.9 664.76C309.584 663.505 308.652 662.013 308.104 660.284C307.582 658.562 307.568 656.742 308.064 654.826C308.547 652.961 309.404 651.367 310.634 650.044C311.864 648.722 313.331 647.783 315.034 647.229C316.745 646.649 318.533 646.601 320.398 647.084ZM319.198 651.252C318.013 650.946 316.923 651.053 315.927 651.576C314.931 652.098 314.122 652.938 313.499 654.095L322.651 656.463C322.902 655.076 322.659 653.937 321.921 653.047C321.19 652.131 320.282 651.533 319.198 651.252Z" fill="white"/>
</svg>
