<svg width="474" height="1472" viewBox="0 0 474 1472" fill="none" xmlns="http://www.w3.org/2000/svg">
<mask id="path-1-inside-1_165_1334" fill="white">
<path fill-rule="evenodd" clip-rule="evenodd" d="M0 736.79L79.1091 786.233V786.79H394.899V786.228L474 736.79L394.899 687.352V686.79H394H80H79.1091V687.347L0 736.79Z"/>
</mask>
<path fill-rule="evenodd" clip-rule="evenodd" d="M0 736.79L79.1091 786.233V786.79H394.899V786.228L474 736.79L394.899 687.352V686.79H394H80H79.1091V687.347L0 736.79Z" fill="#4C0406"/>
<path d="M79.1091 786.233H94.1091V777.919L87.0591 773.513L79.1091 786.233ZM0 736.79L-7.94997 724.07L-28.302 736.79L-7.94997 749.51L0 736.79ZM79.1091 786.79H64.1091V801.79H79.1091V786.79ZM394.899 786.79V801.79H409.899V786.79H394.899ZM394.899 786.228L386.949 773.508L379.899 777.915V786.228H394.899ZM474 736.79L481.95 749.51L502.302 736.79L481.95 724.07L474 736.79ZM394.899 687.352H379.899V695.665L386.949 700.072L394.899 687.352ZM394.899 686.79H409.899V671.79H394.899V686.79ZM79.1091 686.79V671.79H64.1091V686.79H79.1091ZM79.1091 687.347L87.0591 700.067L94.1091 695.661V687.347H79.1091ZM87.0591 773.513L7.94997 724.07L-7.94997 749.51L71.1591 798.953L87.0591 773.513ZM94.1091 786.79V786.233H64.1091V786.79H94.1091ZM394.899 771.79H79.1091V801.79H394.899V771.79ZM379.899 786.228V786.79H409.899V786.228H379.899ZM402.849 798.948L481.95 749.51L466.05 724.07L386.949 773.508L402.849 798.948ZM481.95 724.07L402.849 674.632L386.949 700.072L466.05 749.51L481.95 724.07ZM379.899 686.79V687.352H409.899V686.79H379.899ZM394 701.79H394.899V671.79H394V701.79ZM80 701.79H394V671.79H80V701.79ZM79.1091 701.79H80V671.79H79.1091V701.79ZM94.1091 687.347V686.79H64.1091V687.347H94.1091ZM7.94997 749.51L87.0591 700.067L71.1591 674.627L-7.94997 724.07L7.94997 749.51Z" fill="#B82025" mask="url(#path-1-inside-1_165_1334)"/>
<path d="M48.574 434.814C47.3331 426.065 53.4196 417.967 62.1686 416.726V416.726C70.9176 415.485 79.016 421.571 80.2569 430.32L151.175 930.316L119.492 934.81L48.574 434.814Z" fill="#D83A40"/>
<path d="M104.96 462.589C103.878 453.819 110.109 445.832 118.879 444.749V444.749C127.65 443.667 135.637 449.899 136.719 458.669L198.581 959.866L166.822 963.786L104.96 462.589Z" fill="#D83A40"/>
<path d="M158.794 426.358C158.356 417.533 165.155 410.022 173.98 409.584V409.584C182.806 409.145 190.316 415.944 190.755 424.77L215.826 929.147L183.865 930.736L158.794 426.358Z" fill="#D83A40"/>
<path d="M214.66 16.6664C214.475 7.83179 221.487 0.519902 230.322 0.334843V0.334843C239.156 0.149784 246.468 7.16164 246.653 15.9963L257.229 520.886L225.236 521.556L214.66 16.6664Z" fill="#D83A40"/>
<path d="M277.097 430.783C277.344 421.95 284.705 414.99 293.538 415.236V415.236C302.371 415.483 309.332 422.843 309.085 431.677L294.988 936.48L263 935.587L277.097 430.783Z" fill="#D83A40"/>
<path d="M336.195 476.621C337.475 467.877 345.601 461.828 354.345 463.109V463.109C363.088 464.389 369.137 472.515 367.857 481.259L294.662 980.926L263 976.288L336.195 476.621Z" fill="#D83A40"/>
<path d="M385.468 444.719C386.298 435.921 394.103 429.463 402.901 430.293V430.293C411.698 431.124 418.157 438.929 417.326 447.727L369.858 950.491L338 947.483L385.468 444.719Z" fill="#D83A40"/>
<mask id="path-10-inside-2_165_1334" fill="white">
<path d="M79 771.79H395V1471.79H79V771.79Z"/>
</mask>
<path d="M79 771.79H395V1471.79H79V771.79Z" fill="#D83A40"/>
<path d="M79 771.79V756.79H64V771.79H79ZM395 771.79H410V756.79H395V771.79ZM79 786.79H395V756.79H79V786.79ZM380 771.79V1471.79H410V771.79H380ZM94 1471.79V771.79H64V1471.79H94Z" fill="#B82025" mask="url(#path-10-inside-2_165_1334)"/>
<path d="M71.5 790.292V1464.29H7.5V750.317L71.5 790.292Z" fill="#A81319" stroke="#A81319" stroke-width="15"/>
<path d="M402.5 790.292V1464.29H466.5V750.317L402.5 790.292Z" fill="#A81319" stroke="#A81319" stroke-width="15"/>
<path d="M130.296 924.823C133.845 924.086 137.191 923.901 140.333 924.27C143.475 924.639 146.19 925.256 148.478 926.121L151.109 938.693C148.624 937.805 146.006 937.04 143.254 936.398C140.501 935.757 137.534 935.767 134.352 936.428C132.761 936.758 131.221 937.333 129.733 938.153C128.305 938.96 127.174 939.961 126.338 941.156C125.564 942.338 125.337 943.694 125.657 945.223C126.079 947.242 127.286 948.587 129.279 949.259C131.271 949.93 133.661 950.519 136.449 951.025L144.628 952.582C149.296 953.528 152.915 955.106 155.485 957.317C158.054 959.528 159.691 962.316 160.395 965.681C161.163 969.351 160.771 972.816 159.218 976.075C157.713 979.26 155.353 982.016 152.136 984.344C148.981 986.659 145.262 988.261 140.978 989.15C137.367 989.9 133.782 990.007 130.221 989.469C126.661 988.932 123.471 988.03 120.652 986.765L118.022 974.193C121.124 975.592 124.437 976.627 127.962 977.299C131.487 977.972 135.086 977.927 138.757 977.164C141.327 976.63 143.428 975.684 145.059 974.323C146.677 972.902 147.275 971.182 146.853 969.163C146.52 967.573 145.486 966.447 143.752 965.786C142.065 965.051 140.264 964.531 138.349 964.227L128.126 962.52C122.969 961.676 119.227 959.963 116.899 957.383C114.619 954.728 113.102 951.597 112.347 947.987C111.566 944.255 111.897 940.804 113.341 937.631C114.833 934.385 117.071 931.654 120.055 929.439C123.027 927.162 126.44 925.623 130.296 924.823Z" fill="white"/>
<path d="M182.246 908.726C184.483 908.489 186.496 909.093 188.285 910.538C190.067 911.92 191.074 913.699 191.306 915.874C191.531 917.987 190.922 919.937 189.479 921.724C188.035 923.511 186.195 924.523 183.957 924.76C181.72 924.997 179.707 924.393 177.918 922.949C176.192 921.498 175.216 919.715 174.991 917.602C174.759 915.427 175.337 913.481 176.725 911.762C178.168 909.975 180.009 908.963 182.246 908.726ZM191.762 932.512L196.786 979.589L184.946 980.843L180.996 943.834L173.445 944.634L172.37 934.567L191.762 932.512Z" fill="white"/>
<path d="M234.902 929.282C237.465 929.288 240.057 929.887 242.679 931.08C245.302 932.273 247.486 933.872 249.232 935.875L249.243 930.531L261.149 930.557L261.049 977.9L249.142 977.875L249.159 969.906C247.779 972.466 245.774 974.681 243.145 976.55C240.516 978.357 237.452 979.257 233.952 979.249C230.14 979.241 226.61 978.265 223.364 976.321C220.181 974.376 217.625 971.559 215.695 967.867C213.765 964.175 212.806 959.705 212.817 954.455C212.828 949.205 213.807 944.707 215.752 940.961C217.76 937.215 220.423 934.346 223.739 932.353C227.119 930.297 230.84 929.274 234.902 929.282ZM237.315 940.913C234.815 940.907 232.657 941.559 230.842 942.868C229.089 944.114 227.711 945.767 226.706 947.828C225.702 949.888 225.197 952.106 225.192 954.481C225.185 958.043 226.241 961.077 228.36 963.581C230.543 966.086 233.415 967.342 236.977 967.349C239.102 967.354 241.072 966.796 242.887 965.674C244.765 964.553 246.268 962.994 247.397 960.996C248.589 958.936 249.188 956.469 249.194 953.594L249.208 946.844C247.525 945.028 245.684 943.586 243.686 942.52C241.751 941.453 239.627 940.917 237.315 940.913Z" fill="white"/>
<path d="M299.678 933.647L298.668 939.561C300.391 938.015 302.364 936.669 304.588 935.525C306.874 934.39 309.589 934.09 312.731 934.622C315.997 935.175 318.824 936.446 321.21 938.435C323.608 940.363 325.288 942.961 326.252 946.231C328.532 944.018 331.051 942.258 333.811 940.95C336.581 939.581 339.598 939.173 342.864 939.727C346.007 940.259 348.746 941.484 351.082 943.401C353.428 945.256 355.13 947.731 356.187 950.826C357.305 953.932 357.502 957.61 356.776 961.861L351.886 990.509L340.147 988.521L344.676 961.428C345.213 958.286 344.78 955.804 343.38 953.982C342.04 952.17 340.046 951.04 337.396 950.591C335.362 950.246 333.496 950.596 331.796 951.639C330.107 952.621 328.468 953.864 326.879 955.37L321.753 985.405L310.014 983.416L314.543 956.323C315.08 953.181 314.647 950.699 313.246 948.877C311.907 947.065 309.943 945.94 307.355 945.502C305.383 945.168 303.522 945.486 301.771 946.458C300.031 947.367 298.408 948.518 296.902 949.912L291.712 980.316L279.973 978.327L287.939 931.658L299.678 933.647Z" fill="white"/>
<path d="M188.323 1016.31C191.304 1015.82 194.095 1015.79 196.697 1016.2C199.299 1016.62 201.537 1017.23 203.41 1018.03L205.144 1028.59C203.108 1027.77 200.956 1027.04 198.689 1026.41C196.421 1025.78 193.951 1025.68 191.278 1026.12C189.942 1026.34 188.64 1026.76 187.371 1027.39C186.153 1028.02 185.175 1028.81 184.437 1029.78C183.749 1030.73 183.511 1031.85 183.722 1033.14C184 1034.84 184.957 1036 186.59 1036.63C188.224 1037.26 190.192 1037.83 192.494 1038.35L199.246 1039.93C203.097 1040.88 206.052 1042.33 208.111 1044.26C210.17 1046.19 211.431 1048.57 211.895 1051.4C212.401 1054.48 211.949 1057.35 210.538 1060.01C209.17 1062.61 207.106 1064.82 204.344 1066.65C201.634 1068.46 198.48 1069.67 194.882 1070.26C191.85 1070.76 188.862 1070.72 185.918 1070.15C182.973 1069.58 180.351 1068.71 178.051 1067.56L176.317 1057C178.848 1058.27 181.569 1059.25 184.478 1059.93C187.388 1060.62 190.385 1060.71 193.468 1060.2C195.627 1059.84 197.41 1059.13 198.817 1058.05C200.215 1056.93 200.775 1055.52 200.497 1053.82C200.277 1052.48 199.458 1051.51 198.038 1050.9C196.661 1050.23 195.181 1049.73 193.598 1049.41L185.151 1047.63C180.889 1046.75 177.836 1045.19 175.992 1042.96C174.191 1040.67 173.041 1038.01 172.544 1034.97C172.029 1031.84 172.43 1028.98 173.746 1026.38C175.106 1023.73 177.067 1021.54 179.632 1019.8C182.188 1018.01 185.085 1016.84 188.323 1016.31Z" fill="white"/>
<path d="M235.589 1005.84C237.464 1005.83 239.081 1006.5 240.44 1007.85C241.8 1009.15 242.483 1010.71 242.49 1012.53C242.497 1014.3 241.826 1015.87 240.478 1017.23C239.129 1018.59 237.517 1019.27 235.642 1019.28C233.767 1019.28 232.15 1018.61 230.79 1017.27C229.483 1015.92 228.826 1014.36 228.819 1012.59C228.811 1010.76 229.456 1009.2 230.753 1007.89C232.102 1006.53 233.714 1005.85 235.589 1005.84ZM241.451 1026.36L241.608 1065.82L231.686 1065.86L231.563 1034.84L225.235 1034.87L225.202 1026.43L241.451 1026.36Z" fill="white"/>
<path d="M281.765 1029.09C285.57 1029.7 288.704 1031.04 291.167 1033.12C293.68 1035.21 295.423 1037.84 296.393 1041C297.424 1044.12 297.634 1047.58 297.025 1051.39L296.358 1055.55L268.124 1051.03C268.219 1053.74 269.167 1056.05 270.969 1057.98C272.771 1059.9 275.163 1061.1 278.146 1061.58C280.974 1062.03 283.636 1061.88 286.132 1061.12C288.627 1060.36 290.664 1059.5 292.242 1058.53L290.707 1067.63C289.3 1068.51 287.272 1069.32 284.622 1070.05C282.032 1070.75 279.271 1070.86 276.34 1070.39C272.483 1069.77 269.1 1068.33 266.191 1066.07C263.334 1063.82 261.197 1061.03 259.78 1057.69C258.414 1054.36 258.044 1050.74 258.67 1046.83C259.279 1043.03 260.683 1039.69 262.882 1036.82C265.082 1033.96 267.825 1031.81 271.113 1030.39C274.408 1028.91 277.959 1028.48 281.765 1029.09ZM280.163 1037.61C277.745 1037.23 275.595 1037.65 273.71 1038.87C271.826 1040.1 270.373 1041.93 269.353 1044.35L288.021 1047.34C288.26 1044.53 287.561 1042.3 285.924 1040.67C284.294 1038.99 282.374 1037.97 280.163 1037.61Z" fill="white"/>
<path d="M162.883 846.58L163.966 850.576L159.028 851.915L163.107 866.958L158.319 868.256L154.239 853.213L151.337 854.001L150.253 850.004L153.156 849.217L152.696 847.521C152.3 846.063 152.265 844.737 152.588 843.543C152.931 842.317 153.529 841.291 154.385 840.466C155.24 839.64 156.271 839.064 157.477 838.736C158.282 838.518 159.009 838.415 159.66 838.428C160.311 838.44 160.904 838.536 161.438 838.715L162.522 842.711C161.556 842.433 160.536 842.454 159.462 842.772C158.715 843.001 158.142 843.426 157.744 844.047C157.339 844.643 157.279 845.468 157.566 846.524L157.944 847.919L162.883 846.58Z" fill="white"/>
<path d="M182.259 841.94C184.154 841.593 185.968 841.738 187.699 842.375C189.426 842.985 190.906 843.985 192.14 845.375C193.394 846.734 194.197 848.374 194.549 850.295C194.9 852.216 194.73 854.034 194.037 855.749C193.371 857.46 192.34 858.919 190.947 860.127C189.548 861.309 187.901 862.074 186.005 862.421C184.135 862.763 182.324 862.631 180.572 862.025C178.84 861.388 177.36 860.388 176.131 859.025C174.902 857.661 174.112 856.019 173.761 854.097C173.409 852.176 173.567 850.36 174.234 848.65C174.896 846.914 175.926 845.455 177.324 844.272C178.744 843.06 180.389 842.282 182.259 841.94ZM183.123 846.666C182.201 846.835 181.383 847.21 180.668 847.791C179.954 848.371 179.428 849.116 179.092 850.025C178.78 850.929 178.733 851.97 178.948 853.149C179.164 854.327 179.577 855.284 180.188 856.019C180.825 856.75 181.58 857.26 182.454 857.551C183.323 857.815 184.218 857.863 185.141 857.694C186.063 857.526 186.883 857.164 187.603 856.609C188.317 856.028 188.843 855.283 189.179 854.374C189.516 853.466 189.577 852.422 189.361 851.244C189.146 850.065 188.72 849.111 188.083 848.38C187.446 847.649 186.691 847.139 185.817 846.849C184.944 846.559 184.046 846.498 183.123 846.666Z" fill="white"/>
<path d="M217.127 843.489C216.253 843.101 215.362 842.951 214.455 843.038C213.314 843.147 212.404 843.614 211.724 844.437C211.042 845.235 210.468 846.206 210.002 847.349L211.051 858.314L206.112 858.787L204.234 839.15L209.172 838.678L209.525 842.372C210.088 841.141 210.785 840.093 211.618 839.228C212.477 838.361 213.49 837.872 214.656 837.76C215.356 837.693 216.003 837.749 216.595 837.928L217.127 843.489Z" fill="white"/>
<path d="M234.322 831.485L234.445 837.226L239.912 837.109L240.001 841.249L234.534 841.366L234.716 849.879C234.735 850.765 234.945 851.463 235.346 851.976C235.774 852.462 236.391 852.696 237.198 852.679C237.901 852.664 238.498 852.573 238.989 852.406C239.507 852.238 239.984 852.007 240.42 851.711L240.504 855.655C240.02 856.161 239.404 856.591 238.657 856.945C237.935 857.299 237.014 857.488 235.895 857.512C234.124 857.55 232.667 857.021 231.524 855.926C230.406 854.803 229.826 853.253 229.783 851.274L229.574 841.472L226.02 841.548L225.966 839.009C227.206 838.54 228.334 837.682 229.349 836.436C230.39 835.19 231.202 833.558 231.784 831.54L234.322 831.485Z" fill="white"/>
<path d="M268.998 838.378L268.244 850.112C268.132 851.853 267.645 853.336 266.784 854.559C265.924 855.756 264.797 856.649 263.402 857.238C262.033 857.829 260.504 858.07 258.815 857.961C257.1 857.851 255.588 857.415 254.28 856.652C252.998 855.892 252.007 854.862 251.308 853.565C250.636 852.243 250.356 850.712 250.468 848.97L251.222 837.237L256.211 837.557L255.554 848.397C255.456 849.93 255.733 851.096 256.386 851.895C257.04 852.694 257.951 853.13 259.121 853.206C260.264 853.279 261.211 852.961 261.961 852.253C262.737 851.546 263.174 850.426 263.273 848.893L263.969 838.055L268.998 838.378Z" fill="white"/>
<path d="M286.865 840.6L286.419 843.376C287.138 842.675 288.055 842.057 289.17 841.524C290.31 840.996 291.536 840.837 292.847 841.048C294.827 841.366 296.377 842.302 297.499 843.854C298.621 845.406 298.967 847.519 298.537 850.193L296.613 862.148L291.715 861.36L293.495 850.054C293.706 848.743 293.541 847.714 293.002 846.968C292.488 846.226 291.679 845.766 290.573 845.588C289.699 845.447 288.831 845.598 287.968 846.039C287.132 846.485 286.381 847.05 285.717 847.734L283.732 860.076L278.834 859.288L281.968 839.812L286.865 840.6Z" fill="white"/>
<path d="M320.398 846.921C322.264 847.404 323.76 848.222 324.888 849.374C326.04 850.533 326.783 851.923 327.117 853.543C327.483 855.144 327.424 856.877 326.941 858.743L326.413 860.785L312.572 857.202C312.491 858.553 312.854 859.75 313.66 860.792C314.466 861.835 315.601 862.545 317.063 862.924C318.449 863.283 319.782 863.332 321.06 863.071C322.338 862.81 323.392 862.478 324.223 862.074L323.03 866.526C322.288 866.899 321.24 867.206 319.886 867.448C318.564 867.67 317.185 867.596 315.748 867.224C313.857 866.734 312.241 865.859 310.9 864.597C309.584 863.342 308.652 861.85 308.104 860.121C307.582 858.398 307.568 856.579 308.064 854.663C308.547 852.798 309.404 851.204 310.634 849.881C311.864 848.559 313.331 847.62 315.034 847.066C316.745 846.486 318.533 846.438 320.398 846.921ZM319.198 851.089C318.013 850.783 316.923 850.89 315.927 851.413C314.931 851.935 314.122 852.775 313.499 853.932L322.651 856.3C322.902 854.913 322.659 853.774 321.921 852.884C321.19 851.968 320.282 851.37 319.198 851.089Z" fill="white"/>
</svg>
