<svg width="474" height="1472" viewBox="0 0 474 1472" fill="none" xmlns="http://www.w3.org/2000/svg">
<mask id="path-1-inside-1_165_890" fill="white">
<path fill-rule="evenodd" clip-rule="evenodd" d="M0 737.003L79.1091 786.446V787.003H394.899V786.441L474 737.003L394.899 687.565V687.003H394H80H79.1091V687.56L0 737.003Z"/>
</mask>
<path fill-rule="evenodd" clip-rule="evenodd" d="M0 737.003L79.1091 786.446V787.003H394.899V786.441L474 737.003L394.899 687.565V687.003H394H80H79.1091V687.56L0 737.003Z" fill="#4C0406"/>
<path d="M79.1091 786.446H94.1091V778.132L87.0591 773.726L79.1091 786.446ZM0 737.003L-7.94997 724.283L-28.302 737.003L-7.94997 749.723L0 737.003ZM79.1091 787.003H64.1091V802.003H79.1091V787.003ZM394.899 787.003V802.003H409.899V787.003H394.899ZM394.899 786.441L386.949 773.721L379.899 778.127V786.441H394.899ZM474 737.003L481.95 749.723L502.302 737.003L481.95 724.283L474 737.003ZM394.899 687.565H379.899V695.878L386.949 700.285L394.899 687.565ZM394.899 687.003H409.899V672.003H394.899V687.003ZM79.1091 687.003V672.003H64.1091V687.003H79.1091ZM79.1091 687.56L87.0591 700.28L94.1091 695.873V687.56H79.1091ZM87.0591 773.726L7.94997 724.283L-7.94997 749.723L71.1591 799.166L87.0591 773.726ZM94.1091 787.003V786.446H64.1091V787.003H94.1091ZM394.899 772.003H79.1091V802.003H394.899V772.003ZM379.899 786.441V787.003H409.899V786.441H379.899ZM402.849 799.161L481.95 749.723L466.05 724.283L386.949 773.721L402.849 799.161ZM481.95 724.283L402.849 674.845L386.949 700.285L466.05 749.723L481.95 724.283ZM379.899 687.003V687.565H409.899V687.003H379.899ZM394 702.003H394.899V672.003H394V702.003ZM80 702.003H394V672.003H80V702.003ZM79.1091 702.003H80V672.003H79.1091V702.003ZM94.1091 687.56V687.003H64.1091V687.56H94.1091ZM7.94997 749.723L87.0591 700.28L71.1591 674.84L-7.94997 724.283L7.94997 749.723Z" fill="#B82025" mask="url(#path-1-inside-1_165_890)"/>
<path d="M48.574 435.027C47.3331 426.278 53.4196 418.18 62.1686 416.939V416.939C70.9176 415.698 79.016 421.784 80.2569 430.533L151.175 930.529L119.492 935.023L48.574 435.027Z" fill="#D83A40"/>
<path d="M104.96 462.802C103.878 454.032 110.109 446.045 118.879 444.962V444.962C127.65 443.88 135.637 450.112 136.719 458.882L198.581 960.079L166.822 963.999L104.96 462.802Z" fill="#D83A40"/>
<path d="M158.794 426.571C158.356 417.745 165.155 410.235 173.98 409.796V409.796C182.806 409.358 190.316 416.157 190.755 424.982L215.826 929.36L183.865 930.948L158.794 426.571Z" fill="#D83A40"/>
<path d="M202.761 18.2027C202.144 9.38769 208.791 1.742 217.606 1.1256V1.1256C226.421 0.509189 234.066 7.15549 234.683 15.9705L269.91 519.74L237.988 521.973L202.761 18.2027Z" fill="#D83A40"/>
<path d="M277.097 430.996C277.344 422.163 284.705 415.202 293.538 415.449V415.449C302.371 415.696 309.332 423.056 309.085 431.889L294.988 936.693L263 935.799L277.097 430.996Z" fill="#D83A40"/>
<path d="M336.195 476.833C337.475 468.09 345.601 462.041 354.345 463.321V463.321C363.088 464.602 369.137 472.728 367.857 481.472L294.662 981.139L263 976.501L336.195 476.833Z" fill="#D83A40"/>
<path d="M385.468 444.932C386.298 436.134 394.103 429.676 402.901 430.506V430.506C411.698 431.337 418.157 439.142 417.326 447.939L369.858 950.704L338 947.696L385.468 444.932Z" fill="#D83A40"/>
<mask id="path-10-inside-2_165_890" fill="white">
<path d="M79 772.003H395V1472H79V772.003Z"/>
</mask>
<path d="M79 772.003H395V1472H79V772.003Z" fill="#D83A40"/>
<path d="M79 772.003V757.003H64V772.003H79ZM395 772.003H410V757.003H395V772.003ZM79 787.003H395V757.003H79V787.003ZM380 772.003V1472H410V772.003H380ZM94 1472V772.003H64V1472H94Z" fill="#B82025" mask="url(#path-10-inside-2_165_890)"/>
<path d="M71.5 790.505V1464.5H7.5V750.53L71.5 790.505Z" fill="#A81319" stroke="#A81319" stroke-width="15"/>
<path d="M402.5 790.505V1464.5H466.5V750.53L402.5 790.505Z" fill="#A81319" stroke="#A81319" stroke-width="15"/>
<path d="M130.296 925.035C133.845 924.298 137.191 924.114 140.333 924.483C143.475 924.852 146.19 925.469 148.478 926.334L151.109 938.906C148.624 938.017 146.006 937.253 143.254 936.611C140.501 935.97 137.534 935.98 134.352 936.641C132.761 936.971 131.221 937.546 129.733 938.366C128.305 939.173 127.174 940.174 126.338 941.369C125.564 942.551 125.337 943.907 125.657 945.436C126.079 947.455 127.286 948.8 129.279 949.471C131.271 950.143 133.661 950.732 136.449 951.238L144.628 952.795C149.296 953.741 152.915 955.319 155.485 957.53C158.054 959.741 159.691 962.529 160.395 965.894C161.163 969.564 160.771 973.029 159.218 976.288C157.713 979.473 155.353 982.229 152.136 984.557C148.981 986.872 145.262 988.474 140.978 989.363C137.367 990.113 133.782 990.219 130.221 989.682C126.661 989.145 123.471 988.243 120.652 986.978L118.022 974.406C121.124 975.805 124.437 976.84 127.962 977.512C131.487 978.185 135.086 978.14 138.757 977.377C141.327 976.843 143.428 975.896 145.059 974.536C146.677 973.115 147.275 971.395 146.853 969.376C146.52 967.786 145.486 966.66 143.752 965.999C142.065 965.264 140.264 964.744 138.349 964.44L128.126 962.733C122.969 961.889 119.227 960.176 116.899 957.596C114.619 954.941 113.102 951.809 112.347 948.2C111.566 944.468 111.897 941.016 113.341 937.844C114.833 934.598 117.071 931.867 120.055 929.652C123.027 927.375 126.44 925.836 130.296 925.035Z" fill="white"/>
<path d="M182.246 908.939C184.483 908.702 186.496 909.306 188.285 910.751C190.067 912.133 191.074 913.912 191.306 916.087C191.531 918.2 190.922 920.15 189.479 921.937C188.035 923.724 186.195 924.736 183.957 924.973C181.72 925.21 179.707 924.606 177.918 923.162C176.192 921.71 175.216 919.928 174.991 917.815C174.759 915.64 175.337 913.693 176.725 911.975C178.168 910.188 180.009 909.176 182.246 908.939ZM191.762 932.725L196.786 979.802L184.946 981.056L180.996 944.047L173.445 944.847L172.37 934.779L191.762 932.725Z" fill="white"/>
<path d="M234.902 929.495C237.465 929.501 240.057 930.1 242.679 931.293C245.302 932.486 247.486 934.084 249.232 936.088L249.243 930.744L261.149 930.769L261.049 978.113L249.142 978.088L249.159 970.119C247.779 972.679 245.774 974.893 243.145 976.763C240.516 978.57 237.452 979.47 233.952 979.462C230.14 979.454 226.61 978.478 223.364 976.534C220.181 974.589 217.625 971.771 215.695 968.08C213.765 964.388 212.806 959.918 212.817 954.668C212.828 949.418 213.807 944.92 215.752 941.174C217.76 937.428 220.423 934.559 223.739 932.566C227.119 930.51 230.84 929.487 234.902 929.495ZM237.315 941.125C234.815 941.12 232.657 941.772 230.842 943.081C229.089 944.327 227.711 945.98 226.706 948.041C225.702 950.101 225.197 952.319 225.192 954.694C225.185 958.256 226.241 961.29 228.36 963.794C230.543 966.299 233.415 967.555 236.977 967.562C239.102 967.567 241.072 967.008 242.887 965.887C244.765 964.766 246.268 963.207 247.397 961.209C248.589 959.149 249.188 956.682 249.194 953.807L249.208 947.057C247.525 945.241 245.684 943.799 243.686 942.733C241.751 941.666 239.627 941.13 237.315 941.125Z" fill="white"/>
<path d="M299.678 933.86L298.668 939.774C300.391 938.228 302.364 936.882 304.588 935.737C306.874 934.603 309.589 934.302 312.731 934.835C315.997 935.388 318.824 936.659 321.21 938.648C323.608 940.576 325.288 943.174 326.252 946.444C328.532 944.231 331.051 942.471 333.811 941.163C336.581 939.794 339.598 939.386 342.864 939.939C346.007 940.472 348.746 941.697 351.082 943.614C353.428 945.469 355.13 947.944 356.187 951.039C357.305 954.145 357.502 957.823 356.776 962.074L351.886 990.722L340.147 988.733L344.676 961.641C345.213 958.499 344.78 956.017 343.38 954.194C342.04 952.383 340.046 951.253 337.396 950.804C335.362 950.459 333.496 950.809 331.796 951.852C330.107 952.833 328.468 954.077 326.879 955.583L321.753 985.617L310.014 983.629L314.543 956.536C315.08 953.394 314.647 950.912 313.246 949.09C311.907 947.278 309.943 946.153 307.355 945.715C305.383 945.381 303.522 945.699 301.771 946.67C300.031 947.58 298.408 948.731 296.902 950.124L291.712 980.528L279.973 978.54L287.939 931.871L299.678 933.86Z" fill="white"/>
<path d="M188.323 1016.53C191.304 1016.04 194.095 1016 196.697 1016.42C199.299 1016.83 201.537 1017.44 203.41 1018.24L205.144 1028.81C203.108 1027.98 200.956 1027.25 198.689 1026.62C196.421 1025.99 193.951 1025.89 191.278 1026.33C189.942 1026.55 188.64 1026.98 187.371 1027.61C186.153 1028.23 185.175 1029.02 184.437 1029.99C183.749 1030.95 183.511 1032.07 183.722 1033.35C184 1035.05 184.957 1036.21 186.59 1036.84C188.224 1037.47 190.192 1038.04 192.494 1038.56L199.246 1040.15C203.097 1041.1 206.052 1042.54 208.111 1044.47C210.17 1046.4 211.431 1048.78 211.895 1051.61C212.401 1054.69 211.949 1057.56 210.538 1060.22C209.17 1062.82 207.106 1065.04 204.344 1066.86C201.634 1068.68 198.48 1069.88 194.882 1070.47C191.85 1070.97 188.862 1070.93 185.918 1070.36C182.973 1069.79 180.351 1068.93 178.051 1067.77L176.317 1057.21C178.848 1058.48 181.569 1059.46 184.478 1060.15C187.388 1060.83 190.385 1060.92 193.468 1060.41C195.627 1060.06 197.41 1059.34 198.817 1058.27C200.215 1057.14 200.775 1055.73 200.497 1054.03C200.277 1052.7 199.458 1051.72 198.038 1051.11C196.661 1050.44 195.181 1049.94 193.598 1049.62L185.151 1047.84C180.889 1046.96 177.836 1045.4 175.992 1043.17C174.191 1040.88 173.041 1038.22 172.544 1035.19C172.029 1032.05 172.43 1029.19 173.746 1026.6C175.106 1023.95 177.067 1021.75 179.632 1020.01C182.188 1018.22 185.085 1017.06 188.323 1016.53Z" fill="white"/>
<path d="M235.589 1006.05C237.464 1006.05 239.081 1006.72 240.44 1008.06C241.8 1009.36 242.483 1010.92 242.49 1012.74C242.497 1014.51 241.826 1016.08 240.478 1017.44C239.129 1018.8 237.517 1019.48 235.642 1019.49C233.767 1019.5 232.15 1018.83 230.79 1017.48C229.483 1016.13 228.826 1014.57 228.819 1012.8C228.811 1010.98 229.456 1009.41 230.753 1008.1C232.102 1006.74 233.714 1006.06 235.589 1006.05ZM241.451 1026.58L241.608 1066.03L231.686 1066.07L231.563 1035.05L225.235 1035.08L225.202 1026.64L241.451 1026.58Z" fill="white"/>
<path d="M281.765 1029.3C285.57 1029.91 288.704 1031.25 291.167 1033.34C293.68 1035.43 295.423 1038.05 296.393 1041.21C297.424 1044.33 297.634 1047.8 297.025 1051.6L296.358 1055.77L268.124 1051.25C268.219 1053.95 269.167 1056.27 270.969 1058.19C272.771 1060.11 275.163 1061.31 278.146 1061.79C280.974 1062.25 283.636 1062.09 286.132 1061.33C288.627 1060.57 290.664 1059.71 292.242 1058.75L290.707 1067.84C289.3 1068.72 287.272 1069.53 284.622 1070.27C282.032 1070.96 279.271 1071.07 276.34 1070.6C272.483 1069.98 269.1 1068.55 266.191 1066.29C263.334 1064.04 261.197 1061.24 259.78 1057.9C258.414 1054.57 258.044 1050.95 258.67 1047.04C259.279 1043.24 260.683 1039.9 262.882 1037.04C265.082 1034.17 267.825 1032.03 271.113 1030.6C274.408 1029.12 277.959 1028.69 281.765 1029.3ZM280.163 1037.83C277.745 1037.44 275.595 1037.86 273.71 1039.09C271.826 1040.32 270.373 1042.14 269.353 1044.56L288.021 1047.55C288.26 1044.74 287.561 1042.52 285.924 1040.88C284.294 1039.2 282.374 1038.18 280.163 1037.83Z" fill="white"/>
<path d="M162.883 846.792L163.966 850.789L159.028 852.128L163.107 867.171L158.319 868.469L154.239 853.426L151.337 854.214L150.253 850.217L153.156 849.43L152.696 847.734C152.3 846.276 152.265 844.95 152.588 843.756C152.931 842.53 153.529 841.504 154.385 840.678C155.24 839.853 156.271 839.276 157.477 838.949C158.282 838.731 159.009 838.628 159.66 838.641C160.311 838.653 160.904 838.749 161.438 838.928L162.522 842.924C161.556 842.646 160.536 842.666 159.462 842.985C158.715 843.214 158.142 843.639 157.744 844.26C157.339 844.856 157.279 845.681 157.566 846.737L157.944 848.132L162.883 846.792Z" fill="white"/>
<path d="M182.259 842.153C184.154 841.806 185.968 841.951 187.699 842.588C189.426 843.198 190.906 844.198 192.14 845.588C193.394 846.946 194.197 848.587 194.549 850.508C194.9 852.429 194.73 854.247 194.037 855.962C193.371 857.673 192.34 859.132 190.947 860.34C189.548 861.522 187.901 862.287 186.005 862.634C184.135 862.976 182.324 862.844 180.572 862.238C178.84 861.601 177.36 860.601 176.131 859.238C174.902 857.874 174.112 856.232 173.761 854.31C173.409 852.389 173.567 850.573 174.234 848.863C174.896 847.127 175.926 845.668 177.324 844.485C178.744 843.273 180.389 842.495 182.259 842.153ZM183.123 846.879C182.201 847.048 181.383 847.423 180.668 848.004C179.954 848.584 179.428 849.329 179.092 850.238C178.78 851.142 178.733 852.183 178.948 853.361C179.164 854.54 179.577 855.497 180.188 856.232C180.825 856.963 181.58 857.473 182.454 857.763C183.323 858.028 184.218 858.076 185.141 857.907C186.063 857.739 186.883 857.377 187.603 856.822C188.317 856.241 188.843 855.496 189.179 854.587C189.516 853.679 189.577 852.635 189.361 851.457C189.146 850.278 188.72 849.324 188.083 848.593C187.446 847.862 186.691 847.352 185.817 847.062C184.944 846.771 184.046 846.711 183.123 846.879Z" fill="white"/>
<path d="M217.127 843.702C216.253 843.314 215.362 843.164 214.455 843.251C213.314 843.36 212.404 843.826 211.724 844.65C211.042 845.448 210.468 846.418 210.002 847.562L211.051 858.527L206.112 859L204.234 839.363L209.172 838.891L209.525 842.585C210.088 841.354 210.785 840.306 211.618 839.441C212.477 838.574 213.49 838.085 214.656 837.973C215.356 837.906 216.003 837.962 216.595 838.141L217.127 843.702Z" fill="white"/>
<path d="M234.322 831.698L234.445 837.439L239.912 837.322L240.001 841.462L234.534 841.579L234.716 850.092C234.735 850.978 234.945 851.676 235.346 852.189C235.774 852.674 236.391 852.909 237.198 852.891C237.901 852.876 238.498 852.786 238.989 852.619C239.507 852.451 239.984 852.22 240.42 851.924L240.504 855.868C240.02 856.374 239.404 856.804 238.657 857.158C237.935 857.512 237.014 857.701 235.895 857.725C234.124 857.763 232.667 857.234 231.524 856.139C230.406 855.016 229.826 853.466 229.783 851.487L229.574 841.685L226.02 841.761L225.966 839.222C227.206 838.753 228.334 837.895 229.349 836.649C230.39 835.403 231.202 833.771 231.784 831.752L234.322 831.698Z" fill="white"/>
<path d="M268.998 838.591L268.244 850.325C268.132 852.066 267.645 853.548 266.784 854.772C265.924 855.969 264.797 856.862 263.402 857.451C262.033 858.042 260.504 858.283 258.815 858.174C257.1 858.064 255.588 857.628 254.28 856.865C252.998 856.104 252.007 855.075 251.308 853.778C250.636 852.456 250.356 850.924 250.468 849.183L251.222 837.45L256.211 837.77L255.554 848.61C255.456 850.143 255.733 851.309 256.386 852.108C257.04 852.906 257.951 853.343 259.121 853.418C260.264 853.492 261.211 853.174 261.961 852.466C262.737 851.759 263.174 850.639 263.273 849.105L263.969 838.268L268.998 838.591Z" fill="white"/>
<path d="M286.865 840.813L286.419 843.589C287.138 842.887 288.055 842.27 289.17 841.737C290.31 841.209 291.536 841.05 292.847 841.261C294.827 841.579 296.377 842.515 297.499 844.067C298.621 845.619 298.967 847.732 298.537 850.406L296.613 862.361L291.715 861.573L293.495 850.267C293.706 848.956 293.541 847.927 293.002 847.181C292.488 846.439 291.679 845.979 290.573 845.801C289.699 845.66 288.831 845.811 287.968 846.252C287.132 846.698 286.381 847.263 285.717 847.947L283.732 860.289L278.834 859.5L281.968 840.024L286.865 840.813Z" fill="white"/>
<path d="M320.398 847.134C322.264 847.617 323.76 848.435 324.888 849.587C326.04 850.746 326.783 852.136 327.117 853.755C327.483 855.357 327.424 857.09 326.941 858.955L326.413 860.998L312.572 857.415C312.491 858.766 312.854 859.963 313.66 861.005C314.466 862.048 315.601 862.758 317.063 863.137C318.449 863.496 319.782 863.545 321.06 863.284C322.338 863.023 323.392 862.69 324.223 862.287L323.03 866.739C322.288 867.112 321.24 867.419 319.886 867.661C318.564 867.883 317.185 867.809 315.748 867.437C313.857 866.947 312.241 866.072 310.9 864.81C309.584 863.555 308.652 862.063 308.104 860.334C307.582 858.611 307.568 856.792 308.064 854.876C308.547 853.011 309.404 851.417 310.634 850.094C311.864 848.772 313.331 847.833 315.034 847.279C316.745 846.699 318.533 846.651 320.398 847.134ZM319.198 851.302C318.013 850.995 316.923 851.103 315.927 851.625C314.931 852.148 314.122 852.987 313.499 854.144L322.651 856.513C322.902 855.126 322.659 853.987 321.921 853.096C321.19 852.181 320.282 851.583 319.198 851.302Z" fill="white"/>
</svg>
