<svg width="474" height="1472" viewBox="0 0 474 1472" fill="none" xmlns="http://www.w3.org/2000/svg">
<mask id="path-1-inside-1_165_1408" fill="white">
<path fill-rule="evenodd" clip-rule="evenodd" d="M0 736.912L79.1091 786.355V786.912H394.899V786.35L474 736.912L394.899 687.473V686.912H394H80H79.1091V687.468L0 736.912Z"/>
</mask>
<path fill-rule="evenodd" clip-rule="evenodd" d="M0 736.912L79.1091 786.355V786.912H394.899V786.35L474 736.912L394.899 687.473V686.912H394H80H79.1091V687.468L0 736.912Z" fill="#4C0406"/>
<path d="M79.1091 786.355H94.1091V778.041L87.0591 773.635L79.1091 786.355ZM0 736.912L-7.94997 724.192L-28.302 736.912L-7.94997 749.631L0 736.912ZM79.1091 786.912H64.1091V801.912H79.1091V786.912ZM394.899 786.912V801.912H409.899V786.912H394.899ZM394.899 786.35L386.949 773.63L379.899 778.036V786.35H394.899ZM474 736.912L481.95 749.631L502.302 736.912L481.95 724.192L474 736.912ZM394.899 687.473H379.899V695.787L386.949 700.193L394.899 687.473ZM394.899 686.912H409.899V671.912H394.899V686.912ZM79.1091 686.912V671.912H64.1091V686.912H79.1091ZM79.1091 687.468L87.0591 700.188L94.1091 695.782V687.468H79.1091ZM87.0591 773.635L7.94997 724.192L-7.94997 749.631L71.1591 799.075L87.0591 773.635ZM94.1091 786.912V786.355H64.1091V786.912H94.1091ZM394.899 771.912H79.1091V801.912H394.899V771.912ZM379.899 786.35V786.912H409.899V786.35H379.899ZM402.849 799.07L481.95 749.631L466.05 724.192L386.949 773.63L402.849 799.07ZM481.95 724.192L402.849 674.753L386.949 700.193L466.05 749.631L481.95 724.192ZM379.899 686.912V687.473H409.899V686.912H379.899ZM394 701.912H394.899V671.912H394V701.912ZM80 701.912H394V671.912H80V701.912ZM79.1091 701.912H80V671.912H79.1091V701.912ZM94.1091 687.468V686.912H64.1091V687.468H94.1091ZM7.94997 749.631L87.0591 700.188L71.1591 674.748L-7.94997 724.192L7.94997 749.631Z" fill="#B82025" mask="url(#path-1-inside-1_165_1408)"/>
<path d="M48.574 434.936C47.3331 426.187 53.4196 418.088 62.1686 416.847V416.847C70.9176 415.606 79.016 421.693 80.2569 430.442L151.175 930.438L119.492 934.931L48.574 434.936Z" fill="#D83A40"/>
<path d="M104.96 462.711C103.878 453.941 110.109 445.954 118.879 444.871V444.871C127.65 443.789 135.637 450.021 136.719 458.791L198.581 959.987L166.822 963.907L104.96 462.711Z" fill="#D83A40"/>
<path d="M158.794 426.48C158.356 417.654 165.155 410.144 173.98 409.705V409.705C182.806 409.266 190.316 416.065 190.755 424.891L215.826 929.268L183.865 930.857L158.794 426.48Z" fill="#D83A40"/>
<path d="M211.254 17.1069C210.945 8.27577 217.854 0.866699 226.686 0.558307V0.558307C235.517 0.249916 242.926 7.159 243.234 15.9902L260.858 520.683L228.878 521.799L211.254 17.1069Z" fill="#D83A40"/>
<path d="M277.097 430.905C277.344 422.072 284.705 415.111 293.538 415.358V415.358C302.371 415.604 309.332 422.965 309.085 431.798L294.988 936.601L263 935.708L277.097 430.905Z" fill="#D83A40"/>
<path d="M336.195 476.742C337.475 467.999 345.601 461.949 354.345 463.23V463.23C363.088 464.511 369.137 472.637 367.857 481.38L294.662 981.048L263 976.41L336.195 476.742Z" fill="#D83A40"/>
<path d="M385.468 444.84C386.298 436.043 394.103 429.584 402.901 430.415V430.415C411.698 431.246 418.157 439.051 417.326 447.848L369.858 950.612L338 947.605L385.468 444.84Z" fill="#D83A40"/>
<mask id="path-10-inside-2_165_1408" fill="white">
<path d="M79 771.912H395V1471.91H79V771.912Z"/>
</mask>
<path d="M79 771.912H395V1471.91H79V771.912Z" fill="#D83A40"/>
<path d="M79 771.912V756.912H64V771.912H79ZM395 771.912H410V756.912H395V771.912ZM79 786.912H395V756.912H79V786.912ZM380 771.912V1471.91H410V771.912H380ZM94 1471.91V771.912H64V1471.91H94Z" fill="#B82025" mask="url(#path-10-inside-2_165_1408)"/>
<path d="M71.5 790.414V1464.41H7.5V750.439L71.5 790.414Z" fill="#A81319" stroke="#A81319" stroke-width="15"/>
<path d="M402.5 790.414V1464.41H466.5V750.439L402.5 790.414Z" fill="#A81319" stroke="#A81319" stroke-width="15"/>
<path d="M130.296 924.944C133.845 924.207 137.191 924.023 140.333 924.392C143.475 924.761 146.19 925.378 148.478 926.243L151.109 938.815C148.624 937.926 146.006 937.161 143.254 936.52C140.501 935.879 137.534 935.888 134.352 936.549C132.761 936.88 131.221 937.455 129.733 938.275C128.305 939.082 127.174 940.083 126.338 941.278C125.564 942.46 125.337 943.815 125.657 945.345C126.079 947.364 127.286 948.709 129.279 949.38C131.271 950.052 133.661 950.64 136.449 951.147L144.628 952.703C149.296 953.649 152.915 955.228 155.485 957.439C158.054 959.65 159.691 962.438 160.395 965.803C161.163 969.473 160.771 972.938 159.218 976.197C157.713 979.381 155.353 982.138 152.136 984.465C148.981 986.78 145.262 988.383 140.978 989.272C137.367 990.022 133.782 990.128 130.221 989.591C126.661 989.054 123.471 988.152 120.652 986.886L118.022 974.315C121.124 975.713 124.437 976.749 127.962 977.421C131.487 978.093 135.086 978.048 138.757 977.286C141.327 976.752 143.428 975.805 145.059 974.445C146.677 973.024 147.275 971.304 146.853 969.285C146.52 967.695 145.486 966.569 143.752 965.908C142.065 965.173 140.264 964.653 138.349 964.349L128.126 962.641C122.969 961.797 119.227 960.085 116.899 957.504C114.619 954.85 113.102 951.718 112.347 948.109C111.566 944.377 111.897 940.925 113.341 937.753C114.833 934.507 117.071 931.776 120.055 929.56C123.027 927.283 126.44 925.745 130.296 924.944Z" fill="white"/>
<path d="M182.246 908.848C184.483 908.611 186.496 909.215 188.285 910.659C190.067 912.042 191.074 913.821 191.306 915.996C191.531 918.109 190.922 920.059 189.479 921.846C188.035 923.633 186.195 924.645 183.957 924.882C181.72 925.119 179.707 924.515 177.918 923.07C176.192 921.619 175.216 919.837 174.991 917.724C174.759 915.549 175.337 913.602 176.725 911.884C178.168 910.097 180.009 909.085 182.246 908.848ZM191.762 932.634L196.786 979.71L184.946 980.965L180.996 943.956L173.445 944.756L172.37 934.688L191.762 932.634Z" fill="white"/>
<path d="M234.902 929.404C237.465 929.409 240.057 930.009 242.679 931.202C245.302 932.395 247.486 933.993 249.232 935.997L249.243 930.653L261.149 930.678L261.049 978.022L249.142 977.997L249.159 970.028C247.779 972.588 245.774 974.802 243.145 976.672C240.516 978.478 237.452 979.378 233.952 979.371C230.14 979.363 226.61 978.387 223.364 976.442C220.181 974.498 217.625 971.68 215.695 967.989C213.765 964.297 212.806 959.826 212.817 954.576C212.828 949.326 213.807 944.828 215.752 941.082C217.76 937.337 220.423 934.467 223.739 932.474C227.119 930.419 230.84 929.395 234.902 929.404ZM237.315 941.034C234.815 941.029 232.657 941.681 230.842 942.989C229.089 944.236 227.711 945.889 226.706 947.949C225.702 950.01 225.197 952.227 225.192 954.602C225.185 958.165 226.241 961.198 228.36 963.703C230.543 966.207 233.415 967.463 236.977 967.471C239.102 967.475 241.072 966.917 242.887 965.796C244.765 964.675 246.268 963.116 247.397 961.118C248.589 959.058 249.188 956.59 249.194 953.716L249.208 946.966C247.525 945.149 245.684 943.708 243.686 942.641C241.751 941.575 239.627 941.039 237.315 941.034Z" fill="white"/>
<path d="M299.678 933.768L298.668 939.683C300.391 938.136 302.364 936.791 304.588 935.646C306.874 934.512 309.589 934.211 312.731 934.743C315.997 935.297 318.824 936.568 321.21 938.557C323.608 940.485 325.288 943.083 326.252 946.352C328.532 944.14 331.051 942.379 333.811 941.072C336.581 939.703 339.598 939.295 342.864 939.848C346.007 940.381 348.746 941.605 351.082 943.522C353.428 945.378 355.13 947.853 356.187 950.948C357.305 954.053 357.502 957.732 356.776 961.983L351.886 990.631L340.147 988.642L344.676 961.549C345.213 958.407 344.78 955.925 343.38 954.103C342.04 952.291 340.046 951.161 337.396 950.712C335.362 950.368 333.496 950.717 331.796 951.761C330.107 952.742 328.468 953.986 326.879 955.492L321.753 985.526L310.014 983.538L314.543 956.445C315.08 953.303 314.647 950.821 313.246 948.999C311.907 947.187 309.943 946.062 307.355 945.623C305.383 945.289 303.522 945.608 301.771 946.579C300.031 947.489 298.408 948.64 296.902 950.033L291.712 980.437L279.973 978.449L287.939 931.78L299.678 933.768Z" fill="white"/>
<path d="M188.323 1016.43C191.304 1015.94 194.095 1015.91 196.697 1016.33C199.299 1016.74 201.537 1017.35 203.41 1018.15L205.144 1028.72C203.108 1027.89 200.956 1027.16 198.689 1026.53C196.421 1025.9 193.951 1025.8 191.278 1026.24C189.942 1026.46 188.64 1026.89 187.371 1027.52C186.153 1028.14 185.175 1028.93 184.437 1029.9C183.749 1030.86 183.511 1031.98 183.722 1033.26C184 1034.96 184.957 1036.12 186.59 1036.75C188.224 1037.38 190.192 1037.95 192.494 1038.47L199.246 1040.05C203.097 1041.01 206.052 1042.45 208.111 1044.38C210.17 1046.31 211.431 1048.69 211.895 1051.52C212.401 1054.6 211.949 1057.47 210.538 1060.13C209.17 1062.73 207.106 1064.94 204.344 1066.77C201.634 1068.59 198.48 1069.79 194.882 1070.38C191.85 1070.88 188.862 1070.84 185.918 1070.27C182.973 1069.7 180.351 1068.83 178.051 1067.68L176.317 1057.12C178.848 1058.39 181.569 1059.37 184.478 1060.05C187.388 1060.74 190.385 1060.83 193.468 1060.32C195.627 1059.97 197.41 1059.25 198.817 1058.18C200.215 1057.05 200.775 1055.64 200.497 1053.94C200.277 1052.61 199.458 1051.63 198.038 1051.02C196.661 1050.35 195.181 1049.85 193.598 1049.53L185.151 1047.75C180.889 1046.87 177.836 1045.31 175.992 1043.08C174.191 1040.79 173.041 1038.13 172.544 1035.1C172.029 1031.96 172.43 1029.1 173.746 1026.51C175.106 1023.86 177.067 1021.66 179.632 1019.92C182.188 1018.13 185.085 1016.97 188.323 1016.43Z" fill="white"/>
<path d="M235.589 1005.96C237.464 1005.95 239.081 1006.62 240.44 1007.97C241.8 1009.27 242.483 1010.83 242.49 1012.65C242.497 1014.42 241.826 1015.99 240.478 1017.35C239.129 1018.71 237.517 1019.39 235.642 1019.4C233.767 1019.41 232.15 1018.74 230.79 1017.39C229.483 1016.04 228.826 1014.48 228.819 1012.71C228.811 1010.88 229.456 1009.32 230.753 1008.01C232.102 1006.65 233.714 1005.97 235.589 1005.96ZM241.451 1026.49L241.608 1065.94L231.686 1065.98L231.563 1034.96L225.235 1034.99L225.202 1026.55L241.451 1026.49Z" fill="white"/>
<path d="M281.765 1029.21C285.57 1029.82 288.704 1031.16 291.167 1033.25C293.68 1035.34 295.423 1037.96 296.393 1041.12C297.424 1044.24 297.634 1047.7 297.025 1051.51L296.358 1055.68L268.124 1051.16C268.219 1053.86 269.167 1056.18 270.969 1058.1C272.771 1060.02 275.163 1061.22 278.146 1061.7C280.974 1062.15 283.636 1062 286.132 1061.24C288.627 1060.48 290.664 1059.62 292.242 1058.66L290.707 1067.75C289.3 1068.63 287.272 1069.44 284.622 1070.18C282.032 1070.87 279.271 1070.98 276.34 1070.51C272.483 1069.89 269.1 1068.46 266.191 1066.2C263.334 1063.95 261.197 1061.15 259.78 1057.81C258.414 1054.48 258.044 1050.86 258.67 1046.95C259.279 1043.15 260.683 1039.81 262.882 1036.95C265.082 1034.08 267.825 1031.94 271.113 1030.51C274.408 1029.03 277.959 1028.6 281.765 1029.21ZM280.163 1037.73C277.745 1037.35 275.595 1037.77 273.71 1039C271.826 1040.22 270.373 1042.05 269.353 1044.47L288.021 1047.46C288.26 1044.65 287.561 1042.43 285.924 1040.79C284.294 1039.11 282.374 1038.09 280.163 1037.73Z" fill="white"/>
<path d="M162.883 846.701L163.966 850.697L159.028 852.037L163.107 867.079L158.319 868.378L154.239 853.335L151.337 854.122L150.253 850.126L153.156 849.339L152.696 847.642C152.3 846.184 152.265 844.859 152.588 843.664C152.931 842.438 153.529 841.413 154.385 840.587C155.24 839.762 156.271 839.185 157.477 838.858C158.282 838.64 159.009 838.537 159.66 838.549C160.311 838.562 160.904 838.657 161.438 838.836L162.522 842.833C161.556 842.555 160.536 842.575 159.462 842.893C158.715 843.123 158.142 843.548 157.744 844.169C157.339 844.764 157.279 845.59 157.566 846.645L157.944 848.04L162.883 846.701Z" fill="white"/>
<path d="M182.259 842.062C184.154 841.715 185.968 841.86 187.699 842.496C189.426 843.107 190.906 844.107 192.14 845.496C193.394 846.855 194.197 848.495 194.549 850.416C194.9 852.338 194.73 854.156 194.037 855.871C193.371 857.581 192.34 859.041 190.947 860.249C189.548 861.431 187.901 862.196 186.005 862.542C184.135 862.884 182.324 862.752 180.572 862.146C178.84 861.51 177.36 860.51 176.131 859.146C174.902 857.783 174.112 856.14 173.761 854.219C173.409 852.298 173.567 850.482 174.234 848.772C174.896 847.036 175.926 845.576 177.324 844.394C178.744 843.181 180.389 842.404 182.259 842.062ZM183.123 846.788C182.201 846.957 181.383 847.331 180.668 847.912C179.954 848.493 179.428 849.238 179.092 850.146C178.78 851.051 178.733 852.092 178.948 853.27C179.164 854.449 179.577 855.405 180.188 856.141C180.825 856.871 181.58 857.382 182.454 857.672C183.323 857.937 184.218 857.985 185.141 857.816C186.063 857.647 186.883 857.285 187.603 856.73C188.317 856.15 188.843 855.405 189.179 854.496C189.516 853.587 189.577 852.544 189.361 851.365C189.146 850.187 188.72 849.232 188.083 848.502C187.446 847.771 186.691 847.261 185.817 846.97C184.944 846.68 184.046 846.619 183.123 846.788Z" fill="white"/>
<path d="M217.127 843.61C216.253 843.223 215.362 843.073 214.455 843.16C213.314 843.269 212.404 843.735 211.724 844.559C211.042 845.357 210.468 846.327 210.002 847.471L211.051 858.436L206.112 858.909L204.234 839.272L209.172 838.799L209.525 842.493C210.088 841.262 210.785 840.214 211.618 839.35C212.477 838.483 213.49 837.994 214.656 837.882C215.356 837.815 216.003 837.871 216.595 838.05L217.127 843.61Z" fill="white"/>
<path d="M234.322 831.607L234.445 837.348L239.912 837.231L240.001 841.37L234.534 841.487L234.716 850.001C234.735 850.886 234.945 851.585 235.346 852.097C235.774 852.583 236.391 852.817 237.198 852.8C237.901 852.785 238.498 852.694 238.989 852.527C239.507 852.36 239.984 852.128 240.42 851.833L240.504 855.777C240.02 856.282 239.404 856.712 238.657 857.067C237.935 857.421 237.014 857.61 235.895 857.634C234.124 857.672 232.667 857.143 231.524 856.047C230.406 854.925 229.826 853.375 229.783 851.396L229.574 841.593L226.02 841.669L225.966 839.131C227.206 838.662 228.334 837.804 229.349 836.558C230.39 835.312 231.202 833.679 231.784 831.661L234.322 831.607Z" fill="white"/>
<path d="M268.998 838.5L268.244 850.234C268.132 851.975 267.645 853.457 266.784 854.681C265.924 855.878 264.797 856.771 263.402 857.36C262.033 857.95 260.504 858.191 258.815 858.083C257.1 857.973 255.588 857.536 254.28 856.774C252.998 856.013 252.007 854.984 251.308 853.686C250.636 852.365 250.356 850.833 250.468 849.092L251.222 837.358L256.211 837.679L255.554 848.518C255.456 850.052 255.733 851.218 256.386 852.016C257.04 852.815 257.951 853.252 259.121 853.327C260.264 853.401 261.211 853.083 261.961 852.374C262.737 851.668 263.174 850.547 263.273 849.014L263.969 838.177L268.998 838.5Z" fill="white"/>
<path d="M286.865 840.721L286.419 843.498C287.138 842.796 288.055 842.179 289.17 841.646C290.31 841.117 291.536 840.958 292.847 841.169C294.827 841.488 296.377 842.423 297.499 843.975C298.621 845.527 298.967 847.64 298.537 850.314L296.613 862.27L291.715 861.482L293.495 850.176C293.706 848.864 293.541 847.836 293.002 847.089C292.488 846.347 291.679 845.887 290.573 845.71C289.699 845.569 288.831 845.719 287.968 846.161C287.132 846.607 286.381 847.172 285.717 847.856L283.732 860.197L278.834 859.409L281.968 839.933L286.865 840.721Z" fill="white"/>
<path d="M320.398 847.043C322.264 847.525 323.76 848.343 324.888 849.496C326.04 850.655 326.783 852.044 327.117 853.664C327.483 855.265 327.424 856.999 326.941 858.864L326.413 860.906L312.572 857.324C312.491 858.675 312.854 859.871 313.66 860.914C314.466 861.956 315.601 862.667 317.063 863.046C318.449 863.404 319.782 863.453 321.06 863.192C322.338 862.931 323.392 862.599 324.223 862.195L323.03 866.648C322.288 867.021 321.24 867.328 319.886 867.569C318.564 867.792 317.185 867.717 315.748 867.345C313.857 866.856 312.241 865.98 310.9 864.719C309.584 863.463 308.652 861.971 308.104 860.242C307.582 858.52 307.568 856.701 308.064 854.785C308.547 852.919 309.404 851.325 310.634 850.003C311.864 848.68 313.331 847.742 315.034 847.187C316.745 846.608 318.533 846.56 320.398 847.043ZM319.198 851.211C318.013 850.904 316.923 851.012 315.927 851.534C314.931 852.056 314.122 852.896 313.499 854.053L322.651 856.422C322.902 855.035 322.659 853.896 321.921 853.005C321.19 852.09 320.282 851.491 319.198 851.211Z" fill="white"/>
</svg>
