<svg width="476" height="1044" viewBox="0 0 476 1044" fill="none" xmlns="http://www.w3.org/2000/svg">
<mask id="path-1-inside-1_156_76" fill="white">
<path fill-rule="evenodd" clip-rule="evenodd" d="M0.625352 308.414L79.8206 357.719L79.8216 358.276L395.611 357.725L395.61 357.163L474.625 307.587L395.437 258.287L395.436 257.725L394.537 257.727L80.538 258.275L79.6471 258.276L79.648 258.833L0.625352 308.414Z"/>
</mask>
<path fill-rule="evenodd" clip-rule="evenodd" d="M0.625352 308.414L79.8206 357.719L79.8216 358.276L395.611 357.725L395.61 357.163L474.625 307.587L395.437 258.287L395.436 257.725L394.537 257.727L80.538 258.275L79.6471 258.276L79.648 258.833L0.625352 308.414Z" fill="#4C0406"/>
<path d="M79.8206 357.719L94.8206 357.693L94.8061 349.379L87.7484 344.985L79.8206 357.719ZM0.625352 308.414L-7.34681 295.708L-27.6766 308.463L-7.30241 321.148L0.625352 308.414ZM79.8216 358.276L64.8216 358.302L64.8478 373.302L79.8478 373.276L79.8216 358.276ZM395.611 357.725L395.637 372.725L410.637 372.699L410.611 357.699L395.611 357.725ZM395.61 357.163L387.637 344.457L380.595 348.876L380.61 357.189L395.61 357.163ZM474.625 307.587L482.597 320.293L502.927 307.537L482.552 294.853L474.625 307.587ZM395.437 258.287L380.437 258.313L380.452 266.627L387.509 271.02L395.437 258.287ZM395.436 257.725L410.436 257.699L410.41 242.699L395.41 242.725L395.436 257.725ZM79.6471 258.276L79.6209 243.276L64.6209 243.302L64.6471 258.302L79.6471 258.276ZM79.648 258.833L87.6202 271.539L94.6625 267.121L94.648 258.807L79.648 258.833ZM87.7484 344.985L8.55311 295.68L-7.30241 321.148L71.8929 370.453L87.7484 344.985ZM94.8216 358.25L94.8206 357.693L64.8206 357.745L64.8216 358.302L94.8216 358.25ZM395.584 342.725L79.7954 343.276L79.8478 373.276L395.637 372.725L395.584 342.725ZM380.61 357.189L380.611 357.751L410.611 357.699L410.61 357.137L380.61 357.189ZM403.582 369.869L482.597 320.293L466.652 294.881L387.637 344.457L403.582 369.869ZM482.552 294.853L403.365 245.553L387.509 271.02L466.697 320.321L482.552 294.853ZM380.436 257.751L380.437 258.313L410.437 258.26L410.436 257.699L380.436 257.751ZM394.564 272.727L395.462 272.725L395.41 242.725L394.511 242.727L394.564 272.727ZM80.5641 273.275L394.564 272.727L394.511 242.727L80.5118 243.275L80.5641 273.275ZM79.6732 273.276L80.5641 273.275L80.5118 243.275L79.6209 243.276L79.6732 273.276ZM94.648 258.807L94.647 258.25L64.6471 258.302L64.6481 258.859L94.648 258.807ZM8.59751 321.12L87.6202 271.539L71.6759 246.127L-7.34681 295.708L8.59751 321.12Z" fill="#B82025" mask="url(#path-1-inside-1_156_76)"/>
<path d="M45.6316 27.8023C44.2996 19.0667 50.3013 10.9053 59.0369 9.57322C67.7725 8.24117 75.9339 14.2429 77.266 22.9785L153.391 522.208L121.757 527.032L45.6316 27.8023Z" fill="#D83A40"/>
<path d="M102.872 57.2791C101.727 48.517 107.903 40.4863 116.665 39.342C125.427 38.1978 133.458 44.3734 134.602 53.1355L199.994 553.884L168.263 558.028L102.872 57.2791Z" fill="#D83A40"/>
<path d="M158.201 18.9137C157.684 10.0922 164.417 2.52243 173.238 2.00607C182.06 1.4897 189.63 8.22231 190.146 17.0438L219.656 521.181L187.71 523.051L158.201 18.9137Z" fill="#D83A40"/>
<path d="M211.346 37.3527C210.984 28.5236 217.848 21.0724 226.677 20.7101C235.506 20.3478 242.957 27.2115 243.32 36.0406L264.026 540.616L232.053 541.928L211.346 37.3527Z" fill="#D83A40"/>
<path d="M277.015 24.9332C277.239 16.0995 284.581 9.11958 293.415 9.34319C302.249 9.56679 309.228 16.9092 309.005 25.7429L296.226 530.581L264.236 529.772L277.015 24.9332Z" fill="#D83A40"/>
<path d="M337.518 67.8341C338.859 59.0999 347.027 53.1067 355.761 54.4479C364.495 55.7891 370.488 63.9568 369.147 72.691L292.499 571.84L260.87 566.983L337.518 67.8341Z" fill="#D83A40"/>
<path d="M384.366 35.6403C385.136 26.8374 392.897 20.3255 401.7 21.0957C410.503 21.8658 417.015 29.6264 416.244 38.4293L372.231 541.508L340.353 538.719L384.366 35.6403Z" fill="#D83A40"/>
<mask id="path-10-inside-2_156_76" fill="white">
<path d="M79.6865 343.276L395.686 342.725L396.908 1042.72L80.9083 1043.28L79.6865 343.276Z"/>
</mask>
<path d="M79.6865 343.276L395.686 342.725L396.908 1042.72L80.9083 1043.28L79.6865 343.276Z" fill="#D83A40"/>
<path d="M79.6865 343.276L79.6603 328.276L64.6604 328.302L64.6865 343.302L79.6865 343.276ZM395.686 342.725L410.686 342.699L410.66 327.699L395.66 327.725L395.686 342.725ZM79.7127 358.276L395.712 357.725L395.66 327.725L79.6603 328.276L79.7127 358.276ZM380.686 342.751L381.908 1042.75L411.908 1042.7L410.686 342.699L380.686 342.751ZM95.9082 1043.25L94.6865 343.25L64.6865 343.302L65.9083 1043.3L95.9082 1043.25Z" fill="#B82025" mask="url(#path-10-inside-2_156_76)"/>
<path d="M72.2192 361.791L73.3956 1035.79L9.39569 1035.9L8.14957 321.928L72.2192 361.791Z" fill="#A81319" stroke="#A81319" stroke-width="15"/>
<path d="M403.218 361.214L404.395 1035.21L468.395 1035.1L467.149 321.127L403.218 361.214Z" fill="#A81319" stroke="#A81319" stroke-width="15"/>
<path d="M131.248 496.219C134.796 495.476 138.142 495.286 141.285 495.649C144.427 496.013 147.144 496.625 149.433 497.486L152.086 510.053C149.6 509.169 146.98 508.409 144.227 507.772C141.473 507.136 138.506 507.151 135.325 507.817C133.735 508.15 132.196 508.728 130.709 509.55C129.283 510.36 128.153 511.363 127.319 512.559C126.547 513.743 126.322 515.099 126.645 516.628C127.071 518.646 128.281 519.989 130.274 520.657C132.268 521.325 134.659 521.909 137.447 522.411L145.63 523.953C150.299 524.891 153.92 526.463 156.494 528.67C159.068 530.876 160.71 533.661 161.419 537.025C162.194 540.694 161.807 544.159 160.26 547.421C158.761 550.608 156.405 553.369 153.193 555.702C150.042 558.022 146.325 559.631 142.043 560.528C138.434 561.284 134.849 561.397 131.287 560.866C127.726 560.335 124.534 559.439 121.713 558.178L119.061 545.611C122.165 547.004 125.481 548.034 129.007 548.7C132.533 549.366 136.131 549.315 139.801 548.546C142.371 548.008 144.47 547.057 146.098 545.694C147.714 544.27 148.309 542.549 147.883 540.531C147.547 538.941 146.512 537.817 144.776 537.159C143.088 536.427 141.287 535.91 139.371 535.609L129.145 533.92C123.986 533.085 120.241 531.379 117.909 528.803C115.624 526.152 114.102 523.023 113.34 519.415C112.553 515.685 112.878 512.232 114.316 509.057C115.802 505.809 118.035 503.074 121.016 500.853C123.984 498.571 127.395 497.026 131.248 496.219Z" fill="white"/>
<path d="M183.172 480.032C185.409 479.791 187.423 480.392 189.214 481.833C190.998 483.212 192.008 484.99 192.244 487.164C192.473 489.277 191.867 491.228 190.427 493.017C188.987 494.807 187.148 495.822 184.911 496.063C182.674 496.304 180.66 495.704 178.869 494.262C177.14 492.814 176.161 491.034 175.932 488.921C175.696 486.746 176.27 484.799 177.655 483.078C179.096 481.288 180.934 480.273 183.172 480.032ZM192.729 503.802L197.835 550.869L185.998 552.144L181.983 515.143L174.433 515.956L173.341 505.89L192.729 503.802Z" fill="white"/>
<path d="M235.863 500.496C238.426 500.497 241.019 501.092 243.644 502.28C246.268 503.469 248.455 505.063 250.204 507.064L250.206 501.72L262.113 501.725L262.095 549.068L250.188 549.064L250.191 541.095C248.815 543.657 246.815 545.875 244.189 547.749C241.563 549.561 238.5 550.466 235 550.465C231.188 550.463 227.657 549.493 224.408 547.555C221.221 545.616 218.659 542.803 216.723 539.114C214.787 535.426 213.82 530.957 213.822 525.707C213.824 520.457 214.795 515.957 216.734 512.208C218.735 508.459 221.392 505.585 224.706 503.586C228.081 501.525 231.801 500.495 235.863 500.496ZM238.296 512.122C235.796 512.121 233.64 512.777 231.827 514.089C230.076 515.338 228.701 516.994 227.7 519.056C226.699 521.118 226.198 523.337 226.197 525.712C226.196 529.274 227.257 532.306 229.381 534.806C231.568 537.307 234.442 538.558 238.005 538.56C240.13 538.56 242.099 537.999 243.912 536.874C245.787 535.75 247.288 534.188 248.414 532.188C249.602 530.126 250.196 527.658 250.198 524.783L250.2 518.033C248.513 516.22 246.67 514.782 244.671 513.718C242.733 512.655 240.609 512.123 238.296 512.122Z" fill="white"/>
<path d="M300.647 504.747L299.647 510.664C301.367 509.114 303.338 507.765 305.56 506.617C307.844 505.479 310.558 505.173 313.702 505.7C316.968 506.247 319.797 507.514 322.187 509.499C324.588 511.422 326.273 514.017 327.243 517.285C329.518 515.068 332.035 513.304 334.792 511.991C337.559 510.617 340.577 510.204 343.844 510.752C346.987 511.279 349.729 512.499 352.068 514.412C354.417 516.263 356.123 518.735 357.185 521.828C358.309 524.932 358.512 528.61 357.794 532.862L352.954 561.519L341.212 559.551L345.693 532.45C346.224 529.307 345.788 526.826 344.384 525.006C343.041 523.197 341.045 522.07 338.394 521.626C336.36 521.285 334.494 521.637 332.796 522.684C331.109 523.668 329.472 524.915 327.886 526.423L322.812 556.467L311.069 554.499L315.551 527.398C316.082 524.255 315.646 521.774 314.242 519.954C312.899 518.145 310.933 517.023 308.345 516.589C306.372 516.259 304.511 516.58 302.762 517.555C301.023 518.467 299.402 519.621 297.899 521.017L292.762 551.43L281.02 549.462L288.904 502.779L300.647 504.747Z" fill="white"/>
<path d="M189.436 587.608C192.416 587.113 195.207 587.072 197.81 587.485C200.413 587.898 202.651 588.503 204.526 589.301L206.278 599.86C204.241 599.036 202.088 598.311 199.819 597.685C197.551 597.058 195.08 596.966 192.409 597.41C191.073 597.631 189.771 598.059 188.503 598.691C187.287 599.315 186.31 600.111 185.573 601.078C184.888 602.037 184.651 603.158 184.864 604.443C185.146 606.138 186.104 607.299 187.739 607.925C189.374 608.552 191.343 609.122 193.646 609.638L200.4 611.209C204.253 612.154 207.21 613.59 209.272 615.518C211.335 617.446 212.6 619.823 213.069 622.649C213.581 625.732 213.133 628.604 211.727 631.266C210.364 633.868 208.303 636.085 205.545 637.915C202.838 639.737 199.686 640.946 196.089 641.543C193.058 642.046 190.07 642.014 187.125 641.447C184.179 640.88 181.556 640.022 179.253 638.873L177.501 628.314C180.035 629.583 182.757 630.557 185.668 631.235C188.578 631.914 191.575 631.997 194.658 631.485C196.816 631.127 198.597 630.409 200.002 629.332C201.399 628.202 201.956 626.79 201.675 625.094C201.453 623.758 200.632 622.786 199.211 622.177C197.833 621.508 196.352 621.015 194.768 620.697L186.318 618.931C182.055 618.055 178.999 616.503 177.151 614.275C175.346 611.988 174.192 609.329 173.689 606.297C173.169 603.163 173.565 600.299 174.877 597.706C176.232 595.052 178.19 592.853 180.751 591.108C183.304 589.312 186.199 588.145 189.436 587.608Z" fill="white"/>
<path d="M236.683 577.053C238.558 577.042 240.177 577.71 241.538 579.056C242.9 580.35 243.586 581.909 243.596 583.732C243.607 585.503 242.938 587.069 241.592 588.431C240.246 589.793 238.635 590.479 236.76 590.49C234.885 590.501 233.267 589.833 231.905 588.486C230.595 587.14 229.935 585.581 229.925 583.81C229.914 581.987 230.556 580.421 231.851 579.111C233.197 577.75 234.808 577.063 236.683 577.053ZM242.582 597.566L242.807 637.019L232.885 637.075L232.708 606.06L226.38 606.096L226.332 597.659L242.582 597.566Z" fill="white"/>
<path d="M282.9 600.219C286.707 600.821 289.843 602.162 292.309 604.239C294.826 606.325 296.573 608.948 297.549 612.108C298.585 615.225 298.802 618.687 298.199 622.494L297.54 626.661L269.298 622.191C269.397 624.896 270.349 627.208 272.154 629.129C273.96 631.049 276.354 632.246 279.338 632.718C282.167 633.166 284.829 633.007 287.323 632.242C289.817 631.476 291.852 630.612 293.428 629.649L291.91 638.742C290.504 639.627 288.477 640.44 285.829 641.18C283.24 641.878 280.48 641.995 277.547 641.531C273.689 640.92 270.304 639.488 267.391 637.234C264.53 634.988 262.388 632.197 260.965 628.86C259.593 625.532 259.217 621.913 259.836 618.004C260.439 614.197 261.837 610.859 264.031 607.989C266.226 605.12 268.965 602.97 272.25 601.539C275.543 600.056 279.093 599.616 282.9 600.219ZM281.313 608.747C278.895 608.365 276.745 608.789 274.863 610.02C272.98 611.252 271.531 613.079 270.515 615.502L289.188 618.457C289.422 615.647 288.719 613.426 287.079 611.796C285.447 610.114 283.525 609.098 281.313 608.747Z" fill="white"/>
<path d="M163.7 417.919L164.79 421.914L159.854 423.261L163.959 438.297L159.174 439.604L155.068 424.568L152.167 425.36L151.076 421.366L153.977 420.574L153.514 418.878C153.117 417.421 153.079 416.095 153.4 414.9C153.74 413.674 154.337 412.647 155.191 411.82C156.045 410.993 157.075 410.415 158.281 410.085C159.085 409.866 159.812 409.762 160.463 409.773C161.114 409.784 161.707 409.879 162.241 410.057L163.332 414.051C162.366 413.775 161.346 413.797 160.273 414.117C159.526 414.348 158.954 414.774 158.557 415.396C158.152 415.992 158.094 416.818 158.383 417.873L158.763 419.267L163.7 417.919Z" fill="white"/>
<path d="M183.068 413.246C184.963 412.896 186.776 413.038 188.509 413.671C190.237 414.279 191.718 415.276 192.954 416.664C194.211 418.02 195.017 419.659 195.372 421.58C195.727 423.5 195.56 425.319 194.87 427.035C194.207 428.746 193.179 430.207 191.787 431.418C190.391 432.603 188.745 433.37 186.85 433.72C184.98 434.066 183.169 433.937 181.416 433.334C179.683 432.7 178.201 431.703 176.97 430.342C175.739 428.98 174.946 427.339 174.591 425.418C174.236 423.498 174.391 421.682 175.054 419.97C175.713 418.233 176.741 416.772 178.137 415.587C179.555 414.372 181.198 413.592 183.068 413.246ZM183.94 417.971C183.019 418.141 182.201 418.518 181.487 419.1C180.774 419.682 180.25 420.427 179.915 421.337C179.605 422.241 179.559 423.282 179.777 424.46C179.994 425.638 180.409 426.595 181.021 427.329C181.659 428.059 182.416 428.568 183.29 428.856C184.159 429.119 185.055 429.166 185.977 428.996C186.899 428.825 187.719 428.462 188.437 427.906C189.151 427.324 189.675 426.578 190.01 425.669C190.345 424.759 190.404 423.715 190.186 422.537C189.969 421.36 189.541 420.406 188.903 419.676C188.265 418.947 187.509 418.437 186.635 418.149C185.76 417.86 184.862 417.801 183.94 417.971Z" fill="white"/>
<path d="M217.939 414.734C217.064 414.348 216.173 414.199 215.265 414.288C214.125 414.399 213.216 414.867 212.537 415.692C211.856 416.491 211.284 417.462 210.82 418.606L211.888 429.57L206.95 430.051L205.037 410.418L209.975 409.937L210.335 413.63C210.895 412.398 211.591 411.349 212.422 410.483C213.279 409.614 214.291 409.123 215.458 409.01C216.157 408.942 216.804 408.996 217.397 409.174L217.939 414.734Z" fill="white"/>
<path d="M235.113 402.7L235.246 408.441L240.713 408.315L240.809 412.454L235.342 412.581L235.539 421.094C235.559 421.979 235.771 422.677 236.173 423.189C236.601 423.674 237.219 423.907 238.026 423.889C238.729 423.872 239.326 423.78 239.817 423.613C240.334 423.445 240.81 423.212 241.246 422.916L241.338 426.86C240.854 427.366 240.239 427.797 239.492 428.153C238.771 428.508 237.851 428.699 236.731 428.725C234.961 428.766 233.503 428.239 232.357 427.146C231.238 426.025 230.655 424.476 230.609 422.497L230.382 412.695L226.828 412.777L226.77 410.239C228.009 409.768 229.135 408.908 230.148 407.66C231.188 406.412 231.996 404.778 232.575 402.759L235.113 402.7Z" fill="white"/>
<path d="M269.8 409.533L269.067 421.268C268.958 423.009 268.474 424.492 267.615 425.717C266.757 426.916 265.631 427.811 264.238 428.403C262.87 428.995 261.341 429.239 259.652 429.134C257.936 429.026 256.424 428.593 255.115 427.833C253.831 427.074 252.839 426.047 252.137 424.75C251.463 423.43 251.18 421.899 251.289 420.157L252.022 408.422L257.013 408.734L256.374 419.575C256.279 421.108 256.558 422.274 257.213 423.071C257.867 423.869 258.779 424.304 259.949 424.377C261.093 424.449 262.039 424.129 262.788 423.42C263.563 422.711 263.998 421.59 264.094 420.057L264.771 409.219L269.8 409.533Z" fill="white"/>
<path d="M287.672 411.723L287.23 414.501C287.948 413.798 288.864 413.179 289.977 412.644C291.117 412.113 292.342 411.952 293.654 412.161C295.634 412.476 297.186 413.409 298.311 414.959C299.436 416.509 299.785 418.621 299.359 421.296L297.457 433.255L292.557 432.475L294.317 421.166C294.526 419.854 294.36 418.826 293.819 418.081C293.304 417.34 292.494 416.881 291.388 416.705C290.514 416.566 289.646 416.718 288.784 417.161C287.948 417.608 287.199 418.174 286.536 418.86L284.572 431.205L279.672 430.425L282.772 410.944L287.672 411.723Z" fill="white"/>
<path d="M321.216 417.986C323.083 418.465 324.581 419.28 325.71 420.431C326.865 421.588 327.61 422.976 327.947 424.596C328.316 426.196 328.26 427.929 327.78 429.796L327.255 431.839L313.408 428.28C313.33 429.631 313.695 430.828 314.503 431.869C315.311 432.91 316.446 433.618 317.909 433.994C319.296 434.351 320.629 434.398 321.906 434.134C323.184 433.871 324.238 433.537 325.068 433.132L323.883 437.586C323.141 437.961 322.094 438.269 320.741 438.513C319.419 438.738 318.039 438.666 316.602 438.297C314.71 437.81 313.093 436.938 311.749 435.678C310.431 434.425 309.497 432.935 308.946 431.207C308.42 429.486 308.404 427.666 308.896 425.749C309.376 423.883 310.23 422.287 311.457 420.963C312.685 419.638 314.15 418.697 315.853 418.14C317.562 417.557 319.35 417.506 321.216 417.986ZM320.024 422.156C318.838 421.851 317.748 421.961 316.753 422.485C315.758 423.009 314.95 423.85 314.33 425.008L323.486 427.361C323.735 425.973 323.489 424.835 322.75 423.946C322.017 423.031 321.108 422.435 320.024 422.156Z" fill="white"/>
</svg>
