<svg width="482" height="1043" viewBox="0 0 482 1043" fill="none" xmlns="http://www.w3.org/2000/svg">
<mask id="path-1-inside-1_156_187" fill="white">
<path fill-rule="evenodd" clip-rule="evenodd" d="M2.22016 307.13L81.6725 356.019L81.6764 356.576L397.458 354.372L397.454 353.81L476.209 303.821L396.764 254.936L396.76 254.374L395.861 254.38L81.8691 256.572L80.9783 256.579L80.9821 257.135L2.22016 307.13Z"/>
</mask>
<path fill-rule="evenodd" clip-rule="evenodd" d="M2.22016 307.13L81.6725 356.019L81.6764 356.576L397.458 354.372L397.454 353.81L476.209 303.821L396.764 254.936L396.76 254.374L395.861 254.38L81.8691 256.572L80.9783 256.579L80.9821 257.135L2.22016 307.13Z" fill="#4C0406"/>
<path d="M81.6725 356.019L96.6721 355.915L96.6141 347.601L89.5335 343.244L81.6725 356.019ZM2.22016 307.13L-5.81842 294.465L-26.0811 307.327L-5.64082 319.905L2.22016 307.13ZM81.6764 356.576L66.6768 356.681L66.7815 371.681L81.7811 371.576L81.6764 356.576ZM397.458 354.372L397.563 369.371L412.562 369.267L412.458 354.267L397.458 354.372ZM397.454 353.81L389.416 341.146L382.397 345.601L382.455 353.915L397.454 353.81ZM476.209 303.821L484.247 316.485L504.51 303.623L484.07 291.045L476.209 303.821ZM396.764 254.936L381.764 255.04L381.822 263.354L388.903 267.711L396.764 254.936ZM396.76 254.374L411.76 254.269L411.655 239.27L396.655 239.374L396.76 254.374ZM80.9783 256.579L80.8735 241.579L65.8739 241.684L65.9786 256.683L80.9783 256.579ZM80.9821 257.135L89.0207 269.8L96.0398 265.344L95.9818 257.031L80.9821 257.135ZM89.5335 343.244L10.0811 294.354L-5.64082 319.905L73.8115 368.794L89.5335 343.244ZM96.676 356.472L96.6721 355.915L66.6729 356.124L66.6768 356.681L96.676 356.472ZM397.353 339.372L81.5717 341.577L81.7811 371.576L397.563 369.371L397.353 339.372ZM382.455 353.915L382.458 354.476L412.458 354.267L412.454 353.705L382.455 353.915ZM405.493 366.474L484.247 316.485L468.17 291.156L389.416 341.146L405.493 366.474ZM484.07 291.045L404.625 242.16L388.903 267.711L468.348 316.596L484.07 291.045ZM381.76 254.479L381.764 255.04L411.764 254.831L411.76 254.269L381.76 254.479ZM395.966 269.38L396.865 269.374L396.655 239.374L395.757 239.381L395.966 269.38ZM81.9739 271.572L395.966 269.38L395.757 239.381L81.7644 241.573L81.9739 271.572ZM81.083 271.578L81.9739 271.572L81.7644 241.573L80.8735 241.579L81.083 271.578ZM95.9818 257.031L95.9779 256.474L65.9786 256.683L65.9825 257.24L95.9818 257.031ZM10.2587 319.794L89.0207 269.8L72.9436 244.471L-5.81842 294.465L10.2587 319.794Z" fill="#B82025" mask="url(#path-1-inside-1_156_187)"/>
<path d="M49.2568 24.731C47.9705 15.9885 54.0149 7.85865 62.7573 6.57236C71.4997 5.28606 79.6296 11.3305 80.9159 20.0729L154.426 519.694L122.767 524.352L49.2568 24.731Z" fill="#D83A40"/>
<path d="M106.075 48.8847C104.992 40.1148 111.224 32.1274 119.994 31.0444C128.764 29.9614 136.751 36.1928 137.834 44.9628L199.728 546.155L167.969 550.077L106.075 48.8847Z" fill="#D83A40"/>
<path d="M160.133 20.6961C159.601 11.8756 166.32 4.29402 175.141 3.76226C183.961 3.2305 191.543 9.94988 192.075 18.7704L222.464 522.855L190.522 524.781L160.133 20.6961Z" fill="#D83A40"/>
<path d="M212.373 36.8749C211.996 28.0464 218.846 20.5833 227.675 20.2056C236.503 19.8278 243.966 26.6785 244.344 35.507L265.932 540.045L233.961 541.413L212.373 36.8749Z" fill="#D83A40"/>
<path d="M276.703 22.2252C276.865 13.3901 284.158 6.35916 292.993 6.52109C301.828 6.68302 308.859 13.9765 308.698 22.8116L299.443 527.727L267.449 527.14L276.703 22.2252Z" fill="#D83A40"/>
<path d="M333.007 63.5082C334.165 54.7479 342.205 48.585 350.966 49.743C359.726 50.9009 365.889 58.9413 364.731 67.7017L298.553 568.347L266.829 564.153L333.007 63.5082Z" fill="#D83A40"/>
<path d="M382.538 32.3152C383.155 23.5002 390.8 16.8539 399.615 17.4703C408.43 18.0867 415.077 25.7324 414.46 34.5474L379.233 538.317L347.311 536.085L382.538 32.3152Z" fill="#D83A40"/>
<mask id="path-10-inside-2_156_187" fill="white">
<path d="M81.4619 341.577L397.454 339.371L402.341 1039.35L86.3488 1041.56L81.4619 341.577Z"/>
</mask>
<path d="M81.4619 341.577L397.454 339.371L402.341 1039.35L86.3488 1041.56L81.4619 341.577Z" fill="#D83A40"/>
<path d="M81.4619 341.577L81.3572 326.578L66.3576 326.682L66.4623 341.682L81.4619 341.577ZM397.454 339.371L412.454 339.267L412.349 324.267L397.349 324.372L397.454 339.371ZM81.5666 356.577L397.559 354.371L397.349 324.372L81.3572 326.578L81.5666 356.577ZM382.455 339.476L387.341 1039.46L417.341 1039.25L412.454 339.267L382.455 339.476ZM101.348 1041.46L96.4615 341.473L66.4623 341.682L71.3492 1041.66L101.348 1041.46Z" fill="#B82025" mask="url(#path-10-inside-2_156_187)"/>
<path d="M74.0915 360.131L78.7968 1034.11L14.7984 1034.56L9.81398 320.604L74.0915 360.131Z" fill="#A81319" stroke="#A81319" stroke-width="15"/>
<path d="M405.083 357.82L409.789 1031.8L473.787 1031.36L468.803 317.4L405.083 357.82Z" fill="#A81319" stroke="#A81319" stroke-width="15"/>
<path d="M133.825 494.248C137.369 493.486 140.714 493.279 143.858 493.626C147.003 493.973 149.722 494.571 152.016 495.42L154.735 507.973C152.244 507.102 149.62 506.355 146.864 505.733C144.107 505.111 141.14 505.142 137.963 505.825C136.374 506.166 134.838 506.752 133.355 507.582C131.933 508.399 130.809 509.408 129.982 510.609C129.216 511.796 128.998 513.153 129.329 514.681C129.765 516.696 130.982 518.033 132.979 518.691C134.976 519.348 137.37 519.92 140.161 520.407L148.351 521.907C153.026 522.82 156.655 524.373 159.24 526.566C161.826 528.759 163.482 531.536 164.209 534.895C165.003 538.56 164.635 542.028 163.105 545.297C161.622 548.493 159.281 551.265 156.081 553.615C152.942 555.952 149.234 557.58 144.956 558.5C141.351 559.275 137.767 559.406 134.202 558.894C130.638 558.381 127.442 557.502 124.615 556.256L121.896 543.703C125.008 545.08 128.329 546.092 131.858 546.74C135.388 547.388 138.986 547.317 142.652 546.529C145.218 545.978 147.312 545.016 148.934 543.645C150.542 542.212 151.128 540.488 150.692 538.472C150.348 536.884 149.306 535.766 147.567 535.117C145.875 534.393 144.071 533.886 142.154 533.595L131.919 531.96C126.756 531.152 123.002 529.465 120.656 526.901C118.358 524.263 116.819 521.141 116.039 517.537C115.232 513.811 115.539 510.357 116.96 507.175C118.429 503.918 120.648 501.172 123.617 498.936C126.573 496.638 129.976 495.076 133.825 494.248Z" fill="white"/>
<path d="M185.662 477.79C187.897 477.537 189.914 478.127 191.713 479.559C193.504 480.929 194.524 482.701 194.771 484.874C195.011 486.985 194.416 488.94 192.985 490.737C191.554 492.534 189.721 493.559 187.485 493.811C185.249 494.064 183.232 493.474 181.433 492.042C179.697 490.603 178.709 488.828 178.468 486.716C178.221 484.543 178.785 482.592 180.161 480.864C181.592 479.067 183.426 478.042 185.662 477.79ZM195.343 501.509L200.696 548.549L188.865 549.886L184.657 512.906L177.111 513.758L175.966 503.698L195.343 501.509Z" fill="white"/>
<path d="M238.461 497.978C241.023 497.965 243.62 498.546 246.25 499.721C248.881 500.896 251.076 502.479 252.836 504.47L252.81 499.126L264.716 499.068L264.946 546.412L253.04 546.47L253.001 538.501C251.639 541.07 249.65 543.299 247.034 545.186C244.417 547.012 241.359 547.933 237.859 547.95C234.047 547.968 230.511 547.017 227.252 545.095C224.055 543.173 221.479 540.373 219.523 536.695C217.568 533.017 216.578 528.553 216.552 523.303C216.527 518.053 217.473 513.549 219.393 509.789C221.375 506.03 224.017 503.142 227.32 501.126C230.684 499.047 234.398 497.997 238.461 497.978ZM240.955 509.591C238.455 509.603 236.302 510.269 234.495 511.591C232.751 512.849 231.385 514.512 230.395 516.58C229.405 518.647 228.915 520.868 228.927 523.243C228.944 526.806 230.021 529.832 232.159 532.321C234.358 534.81 237.239 536.046 240.802 536.029C242.927 536.019 244.893 535.447 246.7 534.313C248.569 533.179 250.062 531.609 251.177 529.604C252.354 527.535 252.936 525.064 252.922 522.189L252.889 515.439C251.193 513.634 249.342 512.206 247.337 511.153C245.395 510.1 243.267 509.579 240.955 509.591Z" fill="white"/>
<path d="M303.265 501.889L302.297 507.811C304.008 506.252 305.972 504.893 308.188 503.733C310.466 502.583 313.179 502.263 316.325 502.773C319.595 503.304 322.43 504.555 324.831 506.528C327.241 508.438 328.94 511.025 329.926 514.288C332.191 512.059 334.698 510.281 337.448 508.955C340.208 507.566 343.223 507.137 346.493 507.668C349.639 508.178 352.387 509.384 354.736 511.284C357.095 513.123 358.814 515.587 359.892 518.674C361.033 521.772 361.255 525.448 360.559 529.704L355.869 558.386L344.116 556.479L348.456 529.356C348.971 526.21 348.521 523.731 347.108 521.919C345.756 520.116 343.753 519 341.101 518.57C339.065 518.239 337.201 518.602 335.508 519.657C333.826 520.65 332.196 521.906 330.618 523.422L325.701 553.492L313.948 551.585L318.288 524.461C318.803 521.316 318.353 518.837 316.94 517.024C315.588 515.222 313.616 514.111 311.025 513.691C309.051 513.37 307.192 513.702 305.448 514.685C303.714 515.607 302.099 516.77 300.603 518.173L295.625 548.613L283.873 546.706L291.513 499.983L303.265 501.889Z" fill="white"/>
<path d="M192.489 585.331C195.467 584.821 198.258 584.765 200.863 585.165C203.467 585.564 205.709 586.157 207.588 586.945L209.395 597.495C207.354 596.682 205.197 595.968 202.925 595.353C200.653 594.738 198.183 594.66 195.513 595.117C194.179 595.346 192.879 595.78 191.615 596.419C190.402 597.05 189.429 597.85 188.697 598.821C188.017 599.783 187.786 600.906 188.006 602.19C188.296 603.884 189.261 605.039 190.899 605.657C192.537 606.275 194.509 606.835 196.815 607.339L203.577 608.875C207.435 609.799 210.399 611.22 212.472 613.137C214.544 615.054 215.822 617.425 216.306 620.248C216.833 623.328 216.401 626.203 215.009 628.872C213.659 631.481 211.61 633.708 208.861 635.553C206.164 637.389 203.019 638.615 199.425 639.231C196.396 639.75 193.408 639.733 190.46 639.181C187.512 638.63 184.884 637.785 182.575 636.648L180.768 626.099C183.308 627.355 186.035 628.314 188.949 628.977C191.864 629.641 194.861 629.708 197.941 629.181C200.097 628.811 201.875 628.084 203.274 626.999C204.665 625.862 205.215 624.447 204.925 622.753C204.696 621.418 203.87 620.45 202.445 619.849C201.064 619.187 199.58 618.701 197.995 618.392L189.536 616.67C185.268 615.816 182.204 614.28 180.345 612.063C178.527 609.785 177.36 607.131 176.841 604.102C176.304 600.971 176.685 598.105 177.983 595.505C179.324 592.844 181.271 590.635 183.823 588.877C186.366 587.067 189.255 585.885 192.489 585.331Z" fill="white"/>
<path d="M239.681 574.528C241.556 574.508 243.178 575.167 244.547 576.507C245.915 577.794 246.609 579.349 246.629 581.172C246.648 582.942 245.989 584.512 244.649 585.881C243.31 587.25 241.703 587.945 239.828 587.965C237.953 587.986 236.331 587.326 234.962 585.987C233.646 584.647 232.977 583.092 232.958 581.321C232.938 579.498 233.572 577.929 234.86 576.613C236.199 575.244 237.806 574.549 239.681 574.528ZM245.687 595.011L246.119 634.462L236.198 634.57L235.858 603.556L229.53 603.626L229.438 595.189L245.687 595.011Z" fill="white"/>
<path d="M286.018 597.452C289.828 598.035 292.972 599.359 295.448 601.424C297.977 603.496 299.737 606.11 300.73 609.265C301.782 612.377 302.017 615.837 301.434 619.647L300.796 623.817L272.531 619.495C272.645 622.2 273.609 624.507 275.424 626.418C277.24 628.329 279.64 629.513 282.626 629.97C285.458 630.403 288.119 630.23 290.609 629.452C293.099 628.673 295.13 627.798 296.701 626.827L295.23 635.928C293.829 636.82 291.806 637.643 289.162 638.398C286.577 639.109 283.817 639.24 280.882 638.792C277.021 638.201 273.628 636.787 270.704 634.548C267.831 632.317 265.674 629.537 264.234 626.208C262.845 622.887 262.449 619.271 263.048 615.358C263.63 611.548 265.011 608.202 267.191 605.322C269.37 602.441 272.098 600.276 275.376 598.828C278.661 597.328 282.209 596.87 286.018 597.452ZM284.476 605.989C282.056 605.619 279.908 606.055 278.032 607.296C276.157 608.537 274.717 610.372 273.713 612.8L292.402 615.658C292.621 612.846 291.907 610.629 290.258 609.007C288.617 607.334 286.69 606.328 284.476 605.989Z" fill="white"/>
<path d="M165.865 415.779L166.977 419.768L162.048 421.142L166.232 436.155L161.453 437.487L157.269 422.473L154.371 423.281L153.26 419.292L156.157 418.485L155.685 416.791C155.28 415.336 155.235 414.011 155.55 412.815C155.884 411.586 156.475 410.556 157.325 409.725C158.175 408.893 159.201 408.31 160.406 407.974C161.208 407.75 161.935 407.642 162.586 407.65C163.237 407.658 163.83 407.75 164.366 407.925L165.477 411.913C164.51 411.642 163.49 411.67 162.418 411.995C161.673 412.23 161.103 412.659 160.709 413.283C160.308 413.881 160.254 414.707 160.548 415.761L160.936 417.153L165.865 415.779Z" fill="white"/>
<path d="M185.209 411.005C187.102 410.645 188.916 410.777 190.652 411.402C192.383 412 193.87 412.99 195.113 414.37C196.377 415.721 197.192 417.355 197.557 419.274C197.922 421.193 197.764 423.012 197.084 424.732C196.429 426.447 195.409 427.913 194.023 429.131C192.633 430.323 190.991 431.099 189.098 431.459C187.23 431.814 185.418 431.695 183.662 431.101C181.926 430.477 180.439 429.487 179.201 428.132C177.962 426.777 177.161 425.14 176.796 423.221C176.431 421.303 176.576 419.486 177.231 417.771C177.881 416.03 178.901 414.564 180.291 413.372C181.702 412.149 183.341 411.36 185.209 411.005ZM186.106 415.725C185.185 415.9 184.37 416.281 183.659 416.867C182.949 417.452 182.429 418.201 182.098 419.112C181.793 420.018 181.753 421.06 181.976 422.236C182.2 423.413 182.62 424.367 183.236 425.098C183.878 425.824 184.637 426.33 185.513 426.614C186.384 426.872 187.28 426.914 188.201 426.739C189.122 426.564 189.94 426.196 190.655 425.636C191.365 425.05 191.886 424.302 192.216 423.391C192.547 422.48 192.6 421.436 192.376 420.259C192.152 419.082 191.72 418.131 191.078 417.404C190.436 416.678 189.677 416.173 188.802 415.889C187.926 415.605 187.027 415.55 186.106 415.725Z" fill="white"/>
<path d="M220.087 412.31C219.21 411.929 218.318 411.785 217.411 411.878C216.272 411.995 215.365 412.468 214.691 413.296C214.014 414.099 213.446 415.073 212.988 416.22L214.114 427.178L209.179 427.685L207.163 408.061L212.098 407.554L212.477 411.246C213.031 410.011 213.721 408.958 214.548 408.088C215.401 407.215 216.41 406.719 217.576 406.599C218.275 406.527 218.922 406.579 219.516 406.753L220.087 412.31Z" fill="white"/>
<path d="M237.198 400.187L237.361 405.927L242.827 405.772L242.945 409.911L237.478 410.066L237.72 418.578C237.745 419.463 237.96 420.16 238.365 420.67C238.796 421.153 239.415 421.382 240.221 421.36C240.924 421.34 241.521 421.245 242.011 421.074C242.527 420.903 243.002 420.668 243.437 420.37L243.549 424.313C243.068 424.822 242.455 425.256 241.71 425.616C240.991 425.975 240.071 426.17 238.952 426.202C237.182 426.252 235.721 425.734 234.57 424.646C233.444 423.532 232.853 421.985 232.797 420.007L232.519 410.206L228.966 410.307L228.894 407.769C230.131 407.291 231.253 406.426 232.259 405.173C233.292 403.919 234.092 402.281 234.66 400.259L237.198 400.187Z" fill="white"/>
<path d="M271.921 406.838L271.249 418.576C271.149 420.318 270.673 421.804 269.82 423.033C268.969 424.237 267.848 425.137 266.457 425.736C265.092 426.336 263.565 426.588 261.875 426.491C260.159 426.393 258.645 425.967 257.331 425.214C256.044 424.462 255.046 423.44 254.338 422.147C253.656 420.83 253.366 419.301 253.465 417.559L254.137 405.82L259.129 406.106L258.548 416.95C258.46 418.484 258.745 419.648 259.404 420.442C260.063 421.236 260.977 421.666 262.147 421.733C263.291 421.799 264.236 421.475 264.981 420.761C265.752 420.049 266.182 418.925 266.269 417.391L266.89 406.55L271.921 406.838Z" fill="white"/>
<path d="M289.803 408.934L289.375 411.714C290.09 411.007 291.003 410.384 292.114 409.843C293.25 409.306 294.475 409.139 295.787 409.341C297.769 409.645 299.326 410.57 300.459 412.114C301.592 413.658 301.952 415.769 301.541 418.446L299.7 430.414L294.797 429.661L296.498 418.342C296.7 417.03 296.528 416.002 295.984 415.26C295.465 414.521 294.652 414.067 293.545 413.897C292.67 413.762 291.803 413.919 290.944 414.366C290.11 414.818 289.364 415.388 288.705 416.077L286.805 428.432L281.902 427.678L284.9 408.18L289.803 408.934Z" fill="white"/>
<path d="M323.379 415.021C325.248 415.491 326.75 416.298 327.886 417.443C329.046 418.594 329.799 419.978 330.144 421.596C330.521 423.194 330.475 424.928 330.005 426.797L329.491 428.842L315.625 425.356C315.554 426.708 315.925 427.902 316.738 428.939C317.552 429.976 318.691 430.679 320.156 431.047C321.545 431.396 322.877 431.436 324.154 431.166C325.43 430.896 326.482 430.556 327.31 430.147L326.148 434.608C325.409 434.986 324.363 435.3 323.011 435.551C321.691 435.783 320.311 435.718 318.871 435.356C316.977 434.88 315.355 434.015 314.005 432.763C312.68 431.517 311.738 430.031 311.178 428.306C310.643 426.588 310.617 424.769 311.1 422.849C311.57 420.98 312.415 419.38 313.636 418.049C314.857 416.718 316.317 415.77 318.017 415.203C319.723 414.612 321.51 414.551 323.379 415.021ZM322.208 419.198C321.021 418.899 319.932 419.015 318.939 419.544C317.947 420.073 317.144 420.918 316.53 422.08L325.697 424.385C325.939 422.995 325.688 421.858 324.944 420.973C324.206 420.062 323.294 419.471 322.208 419.198Z" fill="white"/>
</svg>
