<svg width="474" height="1147" viewBox="0 0 474 1147" fill="none" xmlns="http://www.w3.org/2000/svg">
<mask id="path-1-inside-1_165_409" fill="white">
<path fill-rule="evenodd" clip-rule="evenodd" d="M0 411.953L79.1091 461.396V461.953H394.899V461.392L474 411.953L394.899 362.515V361.953H394H80H79.1091V362.51L0 411.953Z"/>
</mask>
<path fill-rule="evenodd" clip-rule="evenodd" d="M0 411.953L79.1091 461.396V461.953H394.899V461.392L474 411.953L394.899 362.515V361.953H394H80H79.1091V362.51L0 411.953Z" fill="#4C0406"/>
<path d="M79.1091 461.396H94.1091V453.083L87.0591 448.676L79.1091 461.396ZM0 411.953L-7.94997 399.233L-28.302 411.953L-7.94997 424.673L0 411.953ZM79.1091 461.953H64.1091V476.953H79.1091V461.953ZM394.899 461.953V476.953H409.899V461.953H394.899ZM394.899 461.392L386.949 448.672L379.899 453.078V461.392H394.899ZM474 411.953L481.95 424.673L502.302 411.953L481.95 399.233L474 411.953ZM394.899 362.515H379.899V370.829L386.949 375.235L394.899 362.515ZM394.899 361.953H409.899V346.953H394.899V361.953ZM79.1091 361.953V346.953H64.1091V361.953H79.1091ZM79.1091 362.51L87.0591 375.23L94.1091 370.824V362.51H79.1091ZM87.0591 448.676L7.94997 399.233L-7.94997 424.673L71.1591 474.116L87.0591 448.676ZM94.1091 461.953V461.396H64.1091V461.953H94.1091ZM394.899 446.953H79.1091V476.953H394.899V446.953ZM379.899 461.392V461.953H409.899V461.392H379.899ZM402.849 474.112L481.95 424.673L466.05 399.233L386.949 448.672L402.849 474.112ZM481.95 399.233L402.849 349.795L386.949 375.235L466.05 424.673L481.95 399.233ZM379.899 361.953V362.515H409.899V361.953H379.899ZM394 376.953H394.899V346.953H394V376.953ZM80 376.953H394V346.953H80V376.953ZM79.1091 376.953H80V346.953H79.1091V376.953ZM94.1091 362.51V361.953H64.1091V362.51H94.1091ZM7.94997 424.673L87.0591 375.23L71.1591 349.79L-7.94997 399.233L7.94997 424.673Z" fill="#B82025" mask="url(#path-1-inside-1_165_409)"/>
<path d="M48.574 123.977C47.3331 115.228 53.4196 107.13 62.1686 105.889V105.889C70.9176 104.648 79.016 110.735 80.2569 119.484L151.175 619.479L119.492 623.973L48.574 123.977Z" fill="#D83A40"/>
<path d="M104.96 151.752C103.878 142.982 110.109 134.995 118.879 133.913V133.913C127.65 132.83 135.637 139.062 136.719 147.832L198.581 649.029L166.822 652.949L104.96 151.752Z" fill="#D83A40"/>
<path d="M158.794 115.522C158.356 106.696 165.155 99.1859 173.98 98.7472V98.7472C182.806 98.3085 190.316 105.107 190.755 113.933L215.826 618.31L183.865 619.899L158.794 115.522Z" fill="#D83A40"/>
<path d="M209.554 17.3258C209.184 8.497 216.041 1.03991 224.87 0.669921V0.669921C233.699 0.299933 241.156 7.15716 241.526 15.986L262.67 520.543L230.698 521.883L209.554 17.3258Z" fill="#D83A40"/>
<path d="M277.097 119.947C277.344 111.114 284.705 104.153 293.538 104.4V104.4C302.371 104.646 309.332 112.007 309.085 120.84L294.988 625.643L263 624.75L277.097 119.947Z" fill="#D83A40"/>
<path d="M336.195 165.784C337.475 157.041 345.601 150.991 354.345 152.272V152.272C363.088 153.553 369.137 161.679 367.857 170.422L294.662 670.09L263 665.452L336.195 165.784Z" fill="#D83A40"/>
<path d="M385.468 133.882C386.298 125.085 394.103 118.626 402.901 119.457V119.457C411.698 120.288 418.157 128.093 417.326 136.89L369.858 639.654L338 636.646L385.468 133.882Z" fill="#D83A40"/>
<mask id="path-10-inside-2_165_409" fill="white">
<path d="M79 446.953H395V1146.95H79V446.953Z"/>
</mask>
<path d="M79 446.953H395V1146.95H79V446.953Z" fill="#D83A40"/>
<path d="M79 446.953V431.953H64V446.953H79ZM395 446.953H410V431.953H395V446.953ZM79 461.953H395V431.953H79V461.953ZM380 446.953V1146.95H410V446.953H380ZM94 1146.95V446.953H64V1146.95H94Z" fill="#B82025" mask="url(#path-10-inside-2_165_409)"/>
<path d="M71.5 465.455V1139.45H7.5V425.48L71.5 465.455Z" fill="#A81319" stroke="#A81319" stroke-width="15"/>
<path d="M402.5 465.455V1139.45H466.5V425.48L402.5 465.455Z" fill="#A81319" stroke="#A81319" stroke-width="15"/>
<path d="M130.296 599.986C133.845 599.249 137.191 599.065 140.333 599.434C143.475 599.802 146.19 600.419 148.478 601.285L151.109 613.856C148.624 612.968 146.006 612.203 143.254 611.562C140.501 610.92 137.534 610.93 134.352 611.591C132.761 611.921 131.221 612.497 129.733 613.316C128.305 614.123 127.174 615.124 126.338 616.319C125.564 617.501 125.337 618.857 125.657 620.387C126.079 622.405 127.286 623.75 129.279 624.422C131.271 625.093 133.661 625.682 136.449 626.188L144.628 627.745C149.296 628.691 152.915 630.269 155.485 632.481C158.054 634.692 159.691 637.48 160.395 640.844C161.163 644.515 160.771 647.979 159.218 651.238C157.713 654.423 155.353 657.18 152.136 659.507C148.981 661.822 145.262 663.424 140.978 664.314C137.367 665.064 133.782 665.17 130.221 664.633C126.661 664.095 123.471 663.194 120.652 661.928L118.022 649.357C121.124 650.755 124.437 651.79 127.962 652.463C131.487 653.135 135.086 653.09 138.757 652.327C141.327 651.794 143.428 650.847 145.059 649.487C146.677 648.066 147.275 646.346 146.853 644.327C146.52 642.736 145.486 641.61 143.752 640.949C142.065 640.214 140.264 639.695 138.349 639.39L128.126 637.683C122.969 636.839 119.227 635.127 116.899 632.546C114.619 629.892 113.102 626.76 112.347 623.15C111.566 619.419 111.897 615.967 113.341 612.795C114.833 609.548 117.071 606.818 120.055 604.602C123.027 602.325 126.44 600.787 130.296 599.986Z" fill="white"/>
<path d="M182.246 583.89C184.483 583.653 186.496 584.257 188.285 585.701C190.067 587.084 191.074 588.863 191.306 591.038C191.531 593.151 190.922 595.101 189.479 596.888C188.035 598.675 186.195 599.687 183.957 599.924C181.72 600.161 179.707 599.557 177.918 598.112C176.192 596.661 175.216 594.879 174.991 592.766C174.759 590.591 175.337 588.644 176.725 586.926C178.168 585.139 180.009 584.127 182.246 583.89ZM191.762 607.676L196.786 654.752L184.946 656.007L180.996 618.998L173.445 619.798L172.37 609.73L191.762 607.676Z" fill="white"/>
<path d="M234.902 604.446C237.465 604.451 240.057 605.05 242.679 606.243C245.302 607.436 247.486 609.035 249.232 611.039L249.243 605.695L261.149 605.72L261.049 653.064L249.142 653.038L249.159 645.07C247.779 647.629 245.774 649.844 243.145 651.713C240.516 653.52 237.452 654.42 233.952 654.413C230.14 654.405 226.61 653.428 223.364 651.484C220.181 649.54 217.625 646.722 215.695 643.03C213.765 639.339 212.806 634.868 212.817 629.618C212.828 624.368 213.807 619.87 215.752 616.124C217.76 612.378 220.423 609.509 223.739 607.516C227.119 605.461 230.84 604.437 234.902 604.446ZM237.315 616.076C234.815 616.071 232.657 616.722 230.842 618.031C229.089 619.277 227.711 620.931 226.706 622.991C225.702 625.051 225.197 627.269 225.192 629.644C225.185 633.207 226.241 636.24 228.36 638.745C230.543 641.249 233.415 642.505 236.977 642.513C239.102 642.517 241.072 641.959 242.887 640.838C244.765 639.717 246.268 638.157 247.397 636.16C248.589 634.1 249.188 631.632 249.194 628.757L249.208 622.007C247.525 620.191 245.684 618.75 243.686 617.683C241.751 616.617 239.627 616.081 237.315 616.076Z" fill="white"/>
<path d="M299.678 608.81L298.668 614.724C300.391 613.178 302.364 611.832 304.588 610.688C306.874 609.553 309.589 609.253 312.731 609.785C315.997 610.338 318.824 611.609 321.21 613.599C323.608 615.526 325.288 618.124 326.252 621.394C328.532 619.181 331.051 617.421 333.811 616.113C336.581 614.744 339.598 614.336 342.864 614.89C346.007 615.422 348.746 616.647 351.082 618.564C353.428 620.419 355.13 622.894 356.187 625.989C357.305 629.095 357.502 632.773 356.776 637.024L351.886 665.672L340.147 663.684L344.676 636.591C345.213 633.449 344.78 630.967 343.38 629.145C342.04 627.333 340.046 626.203 337.396 625.754C335.362 625.409 333.496 625.759 331.796 626.802C330.107 627.784 328.468 629.027 326.879 630.533L321.753 660.568L310.014 658.579L314.543 631.486C315.08 628.344 314.647 625.862 313.246 624.04C311.907 622.228 309.943 621.103 307.355 620.665C305.383 620.331 303.522 620.649 301.771 621.621C300.031 622.53 298.408 623.682 296.902 625.075L291.712 655.479L279.973 653.49L287.939 606.821L299.678 608.81Z" fill="white"/>
<path d="M188.323 691.476C191.304 690.987 194.095 690.951 196.697 691.368C199.299 691.786 201.537 692.395 203.41 693.196L205.144 703.757C203.108 702.93 200.956 702.202 198.689 701.571C196.421 700.94 193.951 700.844 191.278 701.283C189.942 701.503 188.64 701.927 187.371 702.558C186.153 703.18 185.175 703.974 184.437 704.94C183.749 705.897 183.511 707.018 183.722 708.303C184 709.999 184.957 711.162 186.59 711.791C188.224 712.42 190.192 712.994 192.494 713.513L199.246 715.097C203.097 716.048 206.052 717.49 208.111 719.421C210.17 721.353 211.431 723.732 211.895 726.559C212.401 729.642 211.949 732.514 210.538 735.174C209.17 737.773 207.106 739.986 204.344 741.811C201.634 743.629 198.48 744.832 194.882 745.423C191.85 745.921 188.862 745.883 185.918 745.311C182.973 744.739 180.351 743.876 178.051 742.723L176.317 732.161C178.848 733.435 181.569 734.413 184.478 735.097C187.388 735.78 190.385 735.869 193.468 735.363C195.627 735.009 197.41 734.294 198.817 733.218C200.215 732.091 200.775 730.68 200.497 728.984C200.277 727.648 199.458 726.674 198.038 726.062C196.661 725.391 195.181 724.895 193.598 724.574L185.151 722.794C180.889 721.91 177.836 720.353 175.992 718.122C174.191 715.832 173.041 713.17 172.544 710.138C172.029 707.003 172.43 704.14 173.746 701.548C175.106 698.897 177.067 696.702 179.632 694.961C182.188 693.169 185.085 692.008 188.323 691.476Z" fill="white"/>
<path d="M235.589 681.003C237.464 680.996 239.081 681.667 240.44 683.015C241.8 684.312 242.483 685.872 242.49 687.695C242.497 689.466 241.826 691.031 240.478 692.39C239.129 693.75 237.517 694.433 235.642 694.441C233.767 694.448 232.15 693.778 230.79 692.429C229.483 691.08 228.826 689.52 228.819 687.749C228.811 685.926 229.456 684.361 230.753 683.054C232.102 681.694 233.714 681.011 235.589 681.003ZM241.451 701.527L241.608 740.98L231.686 741.019L231.563 710.004L225.235 710.029L225.202 701.592L241.451 701.527Z" fill="white"/>
<path d="M281.765 704.25C285.57 704.86 288.704 706.205 291.167 708.287C293.68 710.378 295.423 713.004 296.393 716.166C297.424 719.284 297.634 722.747 297.025 726.552L296.358 730.718L268.124 726.198C268.219 728.903 269.167 731.218 270.969 733.141C272.771 735.065 275.163 736.266 278.146 736.743C280.974 737.196 283.636 737.042 286.132 736.281C288.627 735.52 290.664 734.659 292.242 733.698L290.707 742.789C289.3 743.671 287.272 744.481 284.622 745.217C282.032 745.91 279.271 746.022 276.34 745.553C272.483 744.935 269.1 743.497 266.191 741.238C263.334 738.987 261.197 736.193 259.78 732.854C258.414 729.523 258.044 725.903 258.67 721.995C259.279 718.189 260.683 714.853 262.882 711.988C265.082 709.123 267.825 706.977 271.113 705.552C274.408 704.075 277.959 703.641 281.765 704.25ZM280.163 712.776C277.745 712.389 275.595 712.81 273.71 714.038C271.826 715.266 270.373 717.09 269.353 719.512L288.021 722.5C288.26 719.69 287.561 717.468 285.924 715.835C284.294 714.15 282.374 713.13 280.163 712.776Z" fill="white"/>
<path d="M162.883 521.743L163.966 525.739L159.028 527.078L163.107 542.121L158.319 543.419L154.239 528.377L151.337 529.164L150.253 525.167L153.156 524.38L152.696 522.684C152.3 521.226 152.265 519.9 152.588 518.706C152.931 517.48 153.529 516.454 154.385 515.629C155.24 514.803 156.271 514.227 157.477 513.9C158.282 513.681 159.009 513.579 159.66 513.591C160.311 513.603 160.904 513.699 161.438 513.878L162.522 517.874C161.556 517.596 160.536 517.617 159.462 517.935C158.715 518.164 158.142 518.59 157.744 519.21C157.339 519.806 157.279 520.631 157.566 521.687L157.944 523.082L162.883 521.743Z" fill="white"/>
<path d="M182.259 517.104C184.154 516.757 185.968 516.902 187.699 517.538C189.426 518.149 190.906 519.149 192.14 520.538C193.394 521.897 194.197 523.537 194.549 525.458C194.9 527.38 194.73 529.198 194.037 530.913C193.371 532.623 192.34 534.082 190.947 535.291C189.548 536.473 187.901 537.238 186.005 537.584C184.135 537.926 182.324 537.794 180.572 537.188C178.84 536.552 177.36 535.552 176.131 534.188C174.902 532.825 174.112 531.182 173.761 529.261C173.409 527.34 173.567 525.524 174.234 523.814C174.896 522.078 175.926 520.618 177.324 519.436C178.744 518.223 180.389 517.446 182.259 517.104ZM183.123 521.83C182.201 521.999 181.383 522.373 180.668 522.954C179.954 523.535 179.428 524.28 179.092 525.188C178.78 526.093 178.733 527.134 178.948 528.312C179.164 529.49 179.577 530.447 180.188 531.183C180.825 531.913 181.58 532.424 182.454 532.714C183.323 532.979 184.218 533.027 185.141 532.858C186.063 532.689 186.883 532.327 187.603 531.772C188.317 531.192 188.843 530.447 189.179 529.538C189.516 528.629 189.577 527.586 189.361 526.407C189.146 525.229 188.72 524.274 188.083 523.544C187.446 522.813 186.691 522.303 185.817 522.012C184.944 521.722 184.046 521.661 183.123 521.83Z" fill="white"/>
<path d="M217.127 518.652C216.253 518.265 215.362 518.114 214.455 518.201C213.314 518.31 212.404 518.777 211.724 519.601C211.042 520.398 210.468 521.369 210.002 522.512L211.051 533.478L206.112 533.95L204.234 514.313L209.172 513.841L209.525 517.535C210.088 516.304 210.785 515.256 211.618 514.392C212.477 513.525 213.49 513.035 214.656 512.924C215.356 512.857 216.003 512.913 216.595 513.091L217.127 518.652Z" fill="white"/>
<path d="M234.322 506.649L234.445 512.389L239.912 512.272L240.001 516.412L234.534 516.529L234.716 525.043C234.735 525.928 234.945 526.627 235.346 527.139C235.774 527.625 236.391 527.859 237.198 527.842C237.901 527.827 238.498 527.736 238.989 527.569C239.507 527.402 239.984 527.17 240.42 526.874L240.504 530.819C240.02 531.324 239.404 531.754 238.657 532.109C237.935 532.463 237.014 532.652 235.895 532.676C234.124 532.713 232.667 532.185 231.524 531.089C230.406 529.967 229.826 528.416 229.783 526.438L229.574 516.635L226.02 516.711L225.966 514.173C227.206 513.703 228.334 512.846 229.349 511.6C230.39 510.353 231.202 508.721 231.784 506.703L234.322 506.649Z" fill="white"/>
<path d="M268.998 513.542L268.244 525.275C268.132 527.017 267.645 528.499 266.784 529.722C265.924 530.92 264.797 531.813 263.402 532.402C262.033 532.992 260.504 533.233 258.815 533.125C257.1 533.015 255.588 532.578 254.28 531.816C252.998 531.055 252.007 530.026 251.308 528.728C250.636 527.406 250.356 525.875 250.468 524.134L251.222 512.4L256.211 512.721L255.554 523.56C255.456 525.093 255.733 526.259 256.386 527.058C257.04 527.857 257.951 528.294 259.121 528.369C260.264 528.442 261.211 528.125 261.961 527.416C262.737 526.709 263.174 525.589 263.273 524.056L263.969 513.219L268.998 513.542Z" fill="white"/>
<path d="M286.865 515.763L286.419 518.54C287.138 517.838 288.055 517.221 289.17 516.688C290.31 516.159 291.536 516 292.847 516.211C294.827 516.53 296.377 517.465 297.499 519.017C298.621 520.569 298.967 522.682 298.537 525.356L296.613 537.312L291.715 536.524L293.495 525.218C293.706 523.906 293.541 522.878 293.002 522.131C292.488 521.389 291.679 520.929 290.573 520.752C289.699 520.611 288.831 520.761 287.968 521.203C287.132 521.649 286.381 522.214 285.717 522.898L283.732 535.239L278.834 534.451L281.968 514.975L286.865 515.763Z" fill="white"/>
<path d="M320.398 522.084C322.264 522.567 323.76 523.385 324.888 524.537C326.04 525.697 326.783 527.086 327.117 528.706C327.483 530.307 327.424 532.04 326.941 533.906L326.413 535.948L312.572 532.365C312.491 533.716 312.854 534.913 313.66 535.955C314.466 536.998 315.601 537.709 317.063 538.087C318.449 538.446 319.782 538.495 321.06 538.234C322.338 537.973 323.392 537.641 324.223 537.237L323.03 541.689C322.288 542.062 321.24 542.369 319.886 542.611C318.564 542.834 317.185 542.759 315.748 542.387C313.857 541.897 312.241 541.022 310.9 539.76C309.584 538.505 308.652 537.013 308.104 535.284C307.582 533.562 307.568 531.742 308.064 529.826C308.547 527.961 309.404 526.367 310.634 525.044C311.864 523.722 313.331 522.783 315.034 522.229C316.745 521.649 318.533 521.601 320.398 522.084ZM319.198 526.252C318.013 525.946 316.923 526.053 315.927 526.576C314.931 527.098 314.122 527.938 313.499 529.095L322.651 531.463C322.902 530.076 322.659 528.937 321.921 528.047C321.19 527.131 320.282 526.533 319.198 526.252Z" fill="white"/>
</svg>
