<svg width="480" height="1042" viewBox="0 0 480 1042" fill="none" xmlns="http://www.w3.org/2000/svg">
<mask id="path-1-inside-1_156_150" fill="white">
<path fill-rule="evenodd" clip-rule="evenodd" d="M1.59285 306.714L80.9597 355.742L80.9627 356.299L396.748 354.645L396.745 354.084L475.586 304.232L396.227 255.208L396.224 254.647L395.326 254.652L81.33 256.296L80.4391 256.3L80.442 256.857L1.59285 306.714Z"/>
</mask>
<path fill-rule="evenodd" clip-rule="evenodd" d="M1.59285 306.714L80.9597 355.742L80.9627 356.299L396.748 354.645L396.745 354.084L475.586 304.232L396.227 255.208L396.224 254.647L395.326 254.652L81.33 256.296L80.4391 256.3L80.442 256.857L1.59285 306.714Z" fill="#4C0406"/>
<path d="M80.9597 355.742L95.9595 355.663L95.916 347.35L88.843 342.98L80.9597 355.742ZM1.59285 306.714L-6.42361 294.036L-26.7087 306.862L-6.29041 319.475L1.59285 306.714ZM80.9627 356.299L65.9629 356.377L66.0414 371.377L81.0412 371.299L80.9627 356.299ZM396.748 354.645L396.826 369.645L411.826 369.567L411.748 354.567L396.748 354.645ZM396.745 354.084L388.728 341.405L381.702 345.849L381.745 354.162L396.745 354.084ZM475.586 304.232L483.603 316.91L503.888 304.084L483.47 291.47L475.586 304.232ZM396.227 255.208L381.227 255.287L381.271 263.601L388.344 267.97L396.227 255.208ZM396.224 254.647L411.224 254.568L411.145 239.569L396.146 239.647L396.224 254.647ZM395.326 254.652L395.247 239.652L395.326 254.652ZM80.4391 256.3L80.3605 241.301L65.3607 241.379L65.4393 256.379L80.4391 256.3ZM80.442 256.857L88.4584 269.535L95.4853 265.092L95.4418 256.779L80.442 256.857ZM88.843 342.98L9.47611 293.952L-6.29041 319.475L73.0765 368.503L88.843 342.98ZM95.9625 356.22L95.9595 355.663L65.96 355.82L65.9629 356.377L95.9625 356.22ZM396.669 339.646L80.8841 341.299L81.0412 371.299L396.826 369.645L396.669 339.646ZM381.745 354.162L381.748 354.724L411.748 354.567L411.745 354.005L381.745 354.162ZM404.761 366.762L483.603 316.91L467.57 291.554L388.728 341.405L404.761 366.762ZM483.47 291.47L404.11 242.447L388.344 267.97L467.703 316.993L483.47 291.47ZM381.224 254.725L381.227 255.287L411.227 255.13L411.224 254.568L381.224 254.725ZM395.404 269.651L396.303 269.647L396.146 239.647L395.247 239.652L395.404 269.651ZM81.4085 271.295L395.404 269.651L395.247 239.652L81.2514 241.296L81.4085 271.295ZM80.5176 271.3L81.4085 271.295L81.2514 241.296L80.3605 241.301L80.5176 271.3ZM95.4418 256.779L95.4389 256.222L65.4393 256.379L65.4422 256.936L95.4418 256.779ZM9.60932 319.392L88.4584 269.535L72.4255 244.179L-6.42361 294.036L9.60932 319.392Z" fill="#B82025" mask="url(#path-1-inside-1_156_150)"/>
<path d="M47.8726 22.6679C46.5558 13.93 52.5717 5.77908 61.3096 4.46228C70.0475 3.14547 78.1985 9.16145 79.5153 17.8993L154.769 517.261L123.126 522.029L47.8726 22.6679Z" fill="#D83A40"/>
<path d="M104.637 49.8916C103.523 41.1255 109.726 33.1164 118.493 32.0028C127.259 30.8891 135.268 37.0927 136.381 45.8588L200.024 546.832L168.28 550.865L104.637 49.8916Z" fill="#D83A40"/>
<path d="M161.28 19.4011C160.81 10.5771 167.582 3.04262 176.406 2.57245C185.23 2.10228 192.765 8.87443 193.235 17.6985L220.104 521.983L188.15 523.686L161.28 19.4011Z" fill="#D83A40"/>
<path d="M213.922 34.6505C213.622 25.8191 220.537 18.416 229.369 18.1153C238.2 17.8147 245.603 24.7302 245.904 33.5616L263.088 538.269L231.106 539.358L213.922 34.6505Z" fill="#D83A40"/>
<path d="M277.849 25.2341C278.073 16.4003 285.415 9.42045 294.249 9.64405C303.083 9.86766 310.062 17.2101 309.839 26.0438L297.06 530.882L265.07 530.072L277.849 25.2341Z" fill="#D83A40"/>
<path d="M331.95 64.6135C333.092 55.8512 341.122 49.6742 349.884 50.8169C358.647 51.9596 364.824 59.9893 363.681 68.7516L298.377 569.511L266.646 565.373L331.95 64.6135Z" fill="#D83A40"/>
<path d="M384.097 34.5801C384.791 25.7708 392.494 19.1914 401.303 19.8847C410.113 20.5781 416.692 28.2815 415.999 37.0908L376.377 540.534L344.475 538.023L384.097 34.5801Z" fill="#D83A40"/>
<mask id="path-10-inside-2_156_150" fill="white">
<path d="M80.7754 341.3L396.771 339.645L400.436 1039.64L84.4406 1041.29L80.7754 341.3Z"/>
</mask>
<path d="M80.7754 341.3L396.771 339.645L400.436 1039.64L84.4406 1041.29L80.7754 341.3Z" fill="#D83A40"/>
<path d="M80.7754 341.3L80.6969 326.3L65.6971 326.378L65.7756 341.378L80.7754 341.3ZM396.771 339.645L411.771 339.567L411.692 324.567L396.693 324.645L396.771 339.645ZM80.8539 356.299L396.85 354.645L396.693 324.645L80.6969 326.3L80.8539 356.299ZM381.771 339.724L385.436 1039.71L415.436 1039.56L411.771 339.567L381.771 339.724ZM99.4404 1041.21L95.7752 341.221L65.7756 341.378L69.4408 1041.37L99.4404 1041.21Z" fill="#B82025" mask="url(#path-10-inside-2_156_150)"/>
<path d="M73.3719 359.841L76.901 1033.83L12.9018 1034.16L9.1635 320.202L73.3719 359.841Z" fill="#A81319" stroke="#A81319" stroke-width="15"/>
<path d="M404.368 358.108L407.897 1032.1L471.896 1031.76L468.158 317.798L404.368 358.108Z" fill="#A81319" stroke="#A81319" stroke-width="15"/>
<path d="M132.871 494.062C136.416 493.306 139.761 493.104 142.905 493.457C146.049 493.809 148.767 494.412 151.06 495.265L153.756 507.823C151.267 506.947 148.645 506.196 145.889 505.569C143.134 504.942 140.167 504.968 136.988 505.645C135.399 505.984 133.862 506.567 132.377 507.395C130.954 508.209 129.828 509.216 128.999 510.415C128.231 511.602 128.011 512.958 128.339 514.486C128.772 516.503 129.986 517.841 131.982 518.502C133.977 519.163 136.37 519.74 139.161 520.231L147.349 521.745C152.021 522.667 155.648 524.226 158.229 526.424C160.811 528.622 162.462 531.401 163.184 534.762C163.971 538.428 163.597 541.895 162.061 545.162C160.573 548.355 158.227 551.123 155.023 553.468C151.88 555.799 148.169 557.421 143.89 558.333C140.283 559.101 136.698 559.226 133.135 558.708C129.572 558.189 126.377 557.304 123.552 556.053L120.856 543.496C123.965 544.878 127.284 545.896 130.812 546.55C134.341 547.204 137.939 547.14 141.606 546.358C144.174 545.811 146.269 544.853 147.893 543.484C149.504 542.055 150.093 540.332 149.66 538.315C149.319 536.726 148.279 535.606 146.541 534.954C144.851 534.228 143.047 533.718 141.13 533.423L130.899 531.77C125.737 530.953 121.986 529.26 119.645 526.692C117.351 524.049 115.818 520.925 115.043 517.32C114.243 513.592 114.556 510.139 115.983 506.959C117.458 503.705 119.682 500.962 122.655 498.731C125.614 496.439 129.02 494.882 132.871 494.062Z" fill="white"/>
<path d="M184.736 477.694C186.972 477.445 188.988 478.038 190.784 479.473C192.573 480.847 193.59 482.62 193.833 484.794C194.07 486.906 193.471 488.859 192.037 490.653C190.603 492.448 188.768 493.47 186.531 493.718C184.295 493.967 182.279 493.374 180.483 491.939C178.749 490.496 177.764 488.719 177.528 486.608C177.284 484.434 177.852 482.484 179.231 480.758C180.665 478.964 182.5 477.942 184.736 477.694ZM194.376 501.43L199.647 548.479L187.814 549.795L183.67 512.808L176.123 513.647L174.996 503.585L194.376 501.43Z" fill="white"/>
<path d="M237.5 497.974C240.062 497.966 242.658 498.551 245.287 499.731C247.915 500.91 250.108 502.497 251.864 504.491L251.847 499.148L263.753 499.11L263.901 546.454L251.994 546.491L251.97 538.522C250.603 541.089 248.61 543.314 245.99 545.197C243.371 547.018 240.311 547.934 236.811 547.945C232.999 547.957 229.465 546.999 226.209 545.072C223.015 543.144 220.444 540.34 218.495 536.658C216.546 532.977 215.563 528.511 215.547 523.261C215.531 518.011 216.486 513.508 218.411 509.752C220.4 505.996 223.047 503.113 226.353 501.102C229.722 499.029 233.437 497.986 237.5 497.974ZM239.973 509.591C237.473 509.599 235.319 510.262 233.511 511.58C231.765 512.835 230.395 514.496 229.401 516.562C228.408 518.627 227.915 520.847 227.922 523.222C227.933 526.785 229.005 529.813 231.138 532.306C233.333 534.799 236.212 536.04 239.774 536.029C241.899 536.023 243.866 535.454 245.675 534.323C247.547 533.192 249.042 531.625 250.161 529.622C251.342 527.556 251.928 525.085 251.919 522.21L251.898 515.46C250.205 513.653 248.357 512.221 246.353 511.165C244.413 510.108 242.286 509.584 239.973 509.591Z" fill="white"/>
<path d="M302.298 501.999L301.319 507.918C303.033 506.363 304.999 505.007 307.218 503.851C309.498 502.705 312.21 502.389 315.356 502.905C318.625 503.442 321.458 504.698 323.855 506.675C326.262 508.589 327.956 511.179 328.937 514.443C331.205 512.219 333.716 510.445 336.468 509.123C339.231 507.74 342.246 507.316 345.515 507.852C348.661 508.368 351.406 509.578 353.752 511.483C356.108 513.326 357.823 515.793 358.896 518.882C360.03 521.982 360.246 525.659 359.543 529.914L354.803 558.587L343.054 556.66L347.441 529.544C347.961 526.399 347.515 523.919 346.105 522.104C344.756 520.3 342.756 519.18 340.104 518.745C338.069 518.411 336.204 518.77 334.509 519.822C332.825 520.813 331.193 522.065 329.612 523.579L324.643 553.64L312.894 551.713L317.281 524.597C317.801 521.452 317.356 518.972 315.946 517.158C314.597 515.353 312.627 514.238 310.037 513.813C308.063 513.49 306.204 513.818 304.458 514.798C302.722 515.717 301.105 516.877 299.607 518.278L294.576 548.709L282.827 546.781L290.548 500.072L302.298 501.999Z" fill="white"/>
<path d="M191.377 585.247C194.356 584.742 197.147 584.691 199.751 585.095C202.355 585.499 204.596 586.096 206.473 586.887L208.262 597.44C206.222 596.623 204.067 595.906 201.796 595.287C199.525 594.668 197.055 594.585 194.384 595.038C193.049 595.264 191.749 595.696 190.484 596.333C189.269 596.962 188.296 597.761 187.562 598.73C186.88 599.691 186.647 600.814 186.865 602.097C187.152 603.792 188.114 604.95 189.751 605.57C191.389 606.191 193.36 606.754 195.664 607.262L202.424 608.81C206.28 609.741 209.242 611.167 211.311 613.088C213.38 615.009 214.654 617.381 215.133 620.205C215.655 623.286 215.218 626.16 213.821 628.827C212.467 631.434 210.414 633.657 207.662 635.497C204.961 637.329 201.814 638.549 198.219 639.158C195.189 639.672 192.201 639.65 189.254 639.093C186.307 638.537 183.68 637.688 181.374 636.547L179.585 625.994C182.123 627.254 184.848 628.219 187.761 628.887C190.675 629.555 193.672 629.628 196.753 629.106C198.909 628.74 200.688 628.016 202.09 626.933C203.482 625.799 204.035 624.385 203.747 622.69C203.521 621.355 202.696 620.386 201.273 619.782C199.893 619.118 198.41 618.629 196.825 618.317L188.369 616.581C184.103 615.719 181.042 614.178 179.186 611.957C177.373 609.676 176.21 607.021 175.696 603.991C175.165 600.858 175.551 597.993 176.854 595.395C178.199 592.737 180.15 590.531 182.705 588.777C185.251 586.972 188.142 585.795 191.377 585.247Z" fill="white"/>
<path d="M238.587 574.527C240.462 574.509 242.082 575.172 243.449 576.513C244.815 577.803 245.506 579.359 245.523 581.182C245.54 582.953 244.877 584.521 243.535 585.888C242.194 587.254 240.585 587.946 238.71 587.964C236.835 587.981 235.215 587.319 233.848 585.977C232.534 584.635 231.868 583.078 231.852 581.308C231.835 579.485 232.472 577.916 233.762 576.602C235.103 575.236 236.712 574.544 238.587 574.527ZM244.557 595.019L244.92 634.471L234.998 634.562L234.713 603.548L228.385 603.606L228.307 595.169L244.557 595.019Z" fill="white"/>
<path d="M284.884 597.531C288.693 598.121 291.834 599.45 294.307 601.519C296.832 603.596 298.588 606.213 299.575 609.37C300.622 612.483 300.851 615.944 300.261 619.753L299.616 623.922L271.359 619.55C271.467 622.255 272.428 624.564 274.24 626.479C276.052 628.393 278.45 629.581 281.436 630.043C284.266 630.481 286.928 630.313 289.419 629.539C291.91 628.764 293.942 627.893 295.515 626.924L294.029 636.023C292.626 636.912 290.602 637.732 287.956 638.483C285.37 639.189 282.61 639.316 279.676 638.862C275.816 638.264 272.425 636.844 269.505 634.6C266.636 632.364 264.484 629.581 263.049 626.249C261.666 622.926 261.277 619.308 261.882 615.396C262.472 611.588 263.858 608.245 266.043 605.368C268.227 602.491 270.959 600.331 274.239 598.889C277.527 597.394 281.075 596.942 284.884 597.531ZM283.327 606.065C280.908 605.691 278.759 606.123 276.881 607.361C275.003 608.599 273.56 610.431 272.552 612.857L291.236 615.748C291.46 612.937 290.75 610.719 289.104 609.094C287.466 607.417 285.54 606.408 283.327 606.065Z" fill="white"/>
<path d="M165.048 415.649L166.153 419.639L161.221 421.005L165.379 436.026L160.598 437.349L156.44 422.328L153.541 423.13L152.437 419.14L155.336 418.337L154.867 416.643C154.464 415.188 154.421 413.862 154.739 412.666C155.074 411.438 155.668 410.409 156.519 409.579C157.37 408.749 158.398 408.168 159.602 407.834C160.405 407.612 161.133 407.505 161.783 407.514C162.434 407.523 163.028 407.616 163.563 407.792L164.667 411.782C163.7 411.51 162.68 411.535 161.608 411.859C160.862 412.092 160.292 412.521 159.897 413.143C159.494 413.741 159.439 414.567 159.731 415.621L160.117 417.014L165.048 415.649Z" fill="white"/>
<path d="M184.4 410.908C186.294 410.552 188.108 410.687 189.843 411.314C191.573 411.916 193.058 412.908 194.299 414.291C195.56 415.643 196.372 417.279 196.734 419.199C197.095 421.118 196.934 422.937 196.251 424.656C195.593 426.37 194.57 427.834 193.183 429.049C191.791 430.239 190.147 431.012 188.254 431.369C186.385 431.721 184.574 431.598 182.818 431.002C181.084 430.374 179.598 429.382 178.362 428.025C177.126 426.668 176.327 425.029 175.966 423.11C175.604 421.191 175.752 419.374 176.41 417.66C177.063 415.921 178.086 414.456 179.478 413.266C180.891 412.046 182.532 411.26 184.4 410.908ZM185.289 415.63C184.368 415.804 183.552 416.183 182.84 416.767C182.129 417.352 181.607 418.099 181.275 419.01C180.969 419.915 180.926 420.957 181.148 422.134C181.37 423.311 181.788 424.266 182.403 424.998C183.044 425.725 183.801 426.232 184.677 426.518C185.547 426.778 186.443 426.821 187.364 426.647C188.286 426.474 189.104 426.108 189.821 425.549C190.532 424.964 191.054 424.217 191.386 423.306C191.718 422.396 191.773 421.352 191.551 420.175C191.329 418.997 190.898 418.045 190.258 417.318C189.617 416.59 188.86 416.084 187.984 415.798C187.109 415.513 186.211 415.457 185.289 415.63Z" fill="white"/>
<path d="M219.276 412.274C218.399 411.891 217.508 411.746 216.601 411.837C215.461 411.953 214.553 412.424 213.878 413.251C213.2 414.052 212.631 415.026 212.17 416.172L213.277 427.132L208.341 427.63L206.359 408.003L211.295 407.505L211.668 411.197C212.224 409.963 212.916 408.912 213.744 408.043C214.599 407.171 215.609 406.677 216.775 406.559C217.474 406.488 218.121 406.541 218.715 406.716L219.276 412.274Z" fill="white"/>
<path d="M236.408 400.181L236.561 405.921L242.028 405.775L242.138 409.915L236.671 410.06L236.898 418.573C236.921 419.458 237.135 420.156 237.54 420.666C237.969 421.149 238.588 421.38 239.395 421.359C240.097 421.34 240.694 421.246 241.185 421.077C241.701 420.907 242.177 420.673 242.612 420.374L242.717 424.318C242.235 424.826 241.622 425.259 240.876 425.618C240.156 425.976 239.236 426.17 238.117 426.199C236.347 426.246 234.887 425.725 233.738 424.636C232.614 423.519 232.025 421.972 231.973 419.993L231.712 410.192L228.158 410.287L228.091 407.749C229.329 407.273 230.452 406.409 231.461 405.158C232.495 403.906 233.298 402.27 233.87 400.248L236.408 400.181Z" fill="white"/>
<path d="M271.119 406.892L270.427 418.63C270.324 420.372 269.845 421.856 268.99 423.084C268.137 424.286 267.014 425.185 265.623 425.781C264.257 426.379 262.729 426.628 261.039 426.528C259.324 426.427 257.81 425.999 256.498 425.243C255.212 424.489 254.216 423.465 253.509 422.171C252.831 420.853 252.543 419.323 252.645 417.581L253.338 405.844L258.329 406.138L257.728 416.981C257.638 418.515 257.922 419.679 258.579 420.475C259.236 421.27 260.15 421.702 261.32 421.771C262.464 421.838 263.409 421.516 264.155 420.803C264.928 420.092 265.359 418.97 265.449 417.436L266.089 406.596L271.119 406.892Z" fill="white"/>
<path d="M288.998 409.02L288.565 411.799C289.281 411.094 290.195 410.471 291.307 409.933C292.444 409.398 293.669 409.233 294.981 409.437C296.963 409.745 298.518 410.672 299.648 412.219C300.778 413.765 301.135 415.876 300.719 418.552L298.858 430.518L293.956 429.755L295.676 418.44C295.88 417.127 295.711 416.1 295.168 415.356C294.65 414.617 293.838 414.161 292.732 413.989C291.857 413.853 290.989 414.008 290.129 414.454C289.295 414.904 288.548 415.473 287.887 416.161L285.966 428.512L281.064 427.75L284.096 408.258L288.998 409.02Z" fill="white"/>
<path d="M322.564 415.166C324.432 415.639 325.933 416.449 327.066 417.595C328.225 418.748 328.975 420.134 329.318 421.752C329.692 423.351 329.642 425.085 329.169 426.953L328.651 428.997L314.792 425.487C314.718 426.839 315.087 428.034 315.899 429.072C316.71 430.11 317.848 430.815 319.312 431.186C320.701 431.537 322.033 431.579 323.31 431.312C324.587 431.044 325.639 430.706 326.468 430.298L325.299 434.757C324.558 435.134 323.512 435.446 322.16 435.695C320.839 435.924 319.459 435.857 318.02 435.492C316.127 435.013 314.506 434.146 313.159 432.891C311.836 431.643 310.896 430.156 310.339 428.43C309.808 426.71 309.785 424.891 310.271 422.972C310.744 421.104 311.592 419.506 312.815 418.177C314.038 416.848 315.5 415.902 317.201 415.339C318.908 414.75 320.696 414.692 322.564 415.166ZM321.386 419.34C320.199 419.039 319.109 419.153 318.116 419.68C317.123 420.208 316.318 421.052 315.702 422.212L324.866 424.533C325.11 423.144 324.861 422.007 324.118 421.12C323.382 420.208 322.471 419.615 321.386 419.34Z" fill="white"/>
</svg>
