<svg width="482" height="1046" viewBox="0 0 482 1046" fill="none" xmlns="http://www.w3.org/2000/svg">
<mask id="path-1-inside-1_161_39" fill="white">
<path fill-rule="evenodd" clip-rule="evenodd" d="M5.22613 307.558L83.9881 357.552L83.9842 358.109L399.766 360.313L399.77 359.751L479.215 310.867L400.46 260.877L400.464 260.316L399.566 260.309L85.5732 258.117L84.6824 258.111L84.6785 258.668L5.22613 307.558Z"/>
</mask>
<path fill-rule="evenodd" clip-rule="evenodd" d="M5.22613 307.558L83.9881 357.552L83.9842 358.109L399.766 360.313L399.77 359.751L479.215 310.867L400.46 260.877L400.464 260.316L399.566 260.309L85.5732 258.117L84.6824 258.111L84.6785 258.668L5.22613 307.558Z" fill="#4C0406"/>
<path d="M83.9881 357.552L98.9878 357.656L99.0458 349.343L92.0267 344.887L83.9881 357.552ZM5.22613 307.558L-2.63484 294.782L-23.0752 307.36L-2.81245 320.222L5.22613 307.558ZM83.9842 358.109L68.9846 358.004L68.8799 373.004L83.8795 373.108L83.9842 358.109ZM399.766 360.313L399.661 375.313L414.661 375.418L414.766 360.418L399.766 360.313ZM399.77 359.751L391.909 346.976L384.828 351.333L384.77 359.647L399.77 359.751ZM479.215 310.867L487.076 323.642L507.516 311.064L487.253 298.202L479.215 310.867ZM400.46 260.877L385.461 260.773L385.403 269.086L392.422 273.541L400.46 260.877ZM400.464 260.316L415.464 260.42L415.568 245.421L400.569 245.316L400.464 260.316ZM399.566 260.309L399.461 275.309L399.566 260.309ZM85.5732 258.117L85.4685 273.117L85.5732 258.117ZM84.6824 258.111L84.7871 243.111L69.7874 243.007L69.6827 258.006L84.6824 258.111ZM84.6785 258.668L92.5395 271.443L99.6201 267.086L99.6781 258.773L84.6785 258.668ZM92.0267 344.887L13.2647 294.893L-2.81245 320.222L75.9495 370.216L92.0267 344.887ZM98.9839 358.213L98.9878 357.656L68.9885 357.447L68.9846 358.004L98.9839 358.213ZM399.871 345.314L84.089 343.109L83.8795 373.108L399.661 375.313L399.871 345.314ZM384.77 359.647L384.766 360.209L414.766 360.418L414.77 359.856L384.77 359.647ZM407.631 372.527L487.076 323.642L471.354 298.091L391.909 346.976L407.631 372.527ZM487.253 298.202L408.499 248.213L392.422 273.541L471.176 323.531L487.253 298.202ZM385.464 260.211L385.461 260.773L415.46 260.982L415.464 260.42L385.464 260.211ZM399.461 275.309L400.359 275.315L400.569 245.316L399.67 245.31L399.461 275.309ZM85.4685 273.117L399.461 275.309L399.67 245.31L85.678 243.118L85.4685 273.117ZM84.5776 273.111L85.4685 273.117L85.678 243.118L84.7871 243.111L84.5776 273.111ZM99.6781 258.773L99.682 258.216L69.6827 258.006L69.6788 258.563L99.6781 258.773ZM13.0871 320.333L92.5395 271.443L76.8175 245.893L-2.63484 294.782L13.0871 320.333Z" fill="#B82025" mask="url(#path-1-inside-1_161_39)"/>
<path d="M59.9707 25.1157C58.9443 16.339 65.2273 8.39196 74.004 7.36559V7.36559C82.7808 6.33922 90.7278 12.6221 91.7541 21.3989L150.41 522.981L118.627 526.698L59.9707 25.1157Z" fill="#D83A40"/>
<path d="M114.461 55.6495C113.531 46.862 119.901 38.9845 128.689 38.0547V38.0547C137.476 37.1249 145.353 43.4948 146.283 52.2823L199.421 554.479L167.598 557.846L114.461 55.6495Z" fill="#D83A40"/>
<path d="M166.006 19.2437C165.628 10.4152 172.479 2.95208 181.308 2.57434V2.57434C190.136 2.1966 197.599 9.04727 197.977 17.8758L219.564 522.414L187.594 523.782L166.006 19.2437Z" fill="#D83A40"/>
<path d="M221.912 41.0124C221.758 32.1772 228.795 24.8899 237.63 24.7357V24.7357C246.466 24.5814 253.753 31.6188 253.907 40.454L262.721 545.377L230.726 545.936L221.912 41.0124Z" fill="#D83A40"/>
<path d="M283.869 25.5062C284.162 16.6745 291.559 9.75252 300.391 10.0455V10.0455C309.222 10.3385 316.144 17.7355 315.851 26.5672L299.108 531.29L267.126 530.229L283.869 25.5062Z" fill="#D83A40"/>
<path d="M339.954 68.4886C341.184 59.738 349.274 53.6412 358.025 54.8711V54.8711C366.776 56.1009 372.872 64.1916 371.642 72.9421L301.36 573.028L269.671 568.574L339.954 68.4886Z" fill="#D83A40"/>
<path d="M397.25 39.397C398.31 30.6243 406.281 24.3719 415.053 25.432V25.432C423.826 26.4921 430.078 34.4631 429.018 43.2359L368.437 544.589L336.668 540.75L397.25 39.397Z" fill="#D83A40"/>
<mask id="path-10-inside-2_161_39" fill="white">
<path d="M83.9795 343.108L399.972 345.314L395.085 1045.3L79.0926 1043.09L83.9795 343.108Z"/>
</mask>
<path d="M83.9795 343.108L399.972 345.314L395.085 1045.3L79.0926 1043.09L83.9795 343.108Z" fill="#D83A40"/>
<path d="M83.9795 343.108L84.0842 328.109L69.0846 328.004L68.9799 343.004L83.9795 343.108ZM399.972 345.314L414.971 345.419L415.076 330.419L400.076 330.315L399.972 345.314ZM83.8748 358.108L399.867 360.314L400.076 330.315L84.0842 328.109L83.8748 358.108ZM384.972 345.21L380.085 1045.19L410.085 1045.4L414.971 345.419L384.972 345.21ZM94.0922 1043.2L98.9791 343.213L68.9799 343.004L64.093 1042.99L94.0922 1043.2Z" fill="#B82025" mask="url(#path-10-inside-2_161_39)"/>
<path d="M76.3503 361.557L71.645 1035.54L7.64654 1035.09L12.631 321.137L76.3503 361.557Z" fill="#A81319" stroke="#A81319" stroke-width="15"/>
<path d="M407.342 363.868L402.637 1037.85L466.635 1038.3L471.62 324.341L407.342 363.868Z" fill="#A81319" stroke="#A81319" stroke-width="15"/>
<path d="M134.205 496.495C137.759 495.783 141.106 495.622 144.246 496.013C147.385 496.404 150.096 497.04 152.378 497.921L154.921 510.511C152.442 509.605 149.829 508.822 147.082 508.161C144.334 507.501 141.367 507.49 138.18 508.128C136.587 508.448 135.043 509.012 133.549 509.821C132.116 510.619 130.977 511.612 130.133 512.801C129.351 513.977 129.114 515.331 129.424 516.863C129.832 518.885 131.03 520.238 133.017 520.924C135.005 521.609 137.391 522.214 140.175 522.74L148.343 524.354C153.004 525.332 156.612 526.936 159.166 529.165C161.721 531.394 163.338 534.193 164.019 537.563C164.761 541.239 164.344 544.7 162.769 547.948C161.242 551.123 158.862 553.862 155.629 556.168C152.458 558.46 148.728 560.037 144.438 560.896C140.822 561.621 137.236 561.702 133.679 561.14C130.123 560.578 126.939 559.654 124.129 558.369L121.587 545.779C124.679 547.199 127.985 548.258 131.505 548.955C135.025 549.651 138.624 549.631 142.301 548.895C144.875 548.379 146.982 547.447 148.622 546.098C150.25 544.688 150.86 542.972 150.452 540.951C150.13 539.358 149.104 538.225 147.374 537.552C145.693 536.805 143.896 536.273 141.983 535.955L131.773 534.176C126.621 533.296 122.891 531.558 120.581 528.961C118.32 526.291 116.825 523.149 116.095 519.534C115.34 515.797 115.695 512.347 117.161 509.185C118.675 505.95 120.933 503.234 123.932 501.04C126.92 498.784 130.344 497.269 134.205 496.495Z" fill="white"/>
<path d="M186.267 480.762C188.506 480.541 190.515 481.159 192.293 482.616C194.065 484.011 195.06 485.796 195.277 487.973C195.487 490.088 194.865 492.033 193.409 493.81C191.953 495.587 190.106 496.586 187.866 496.808C185.627 497.029 183.619 496.411 181.84 494.954C180.124 493.491 179.161 491.702 178.95 489.587C178.733 487.411 179.325 485.468 180.725 483.76C182.18 481.983 184.028 480.984 186.267 480.762ZM195.616 504.614L200.312 551.724L188.464 552.896L184.772 515.861L177.215 516.608L176.211 506.533L195.616 504.614Z" fill="white"/>
<path d="M238.779 501.685C241.341 501.709 243.929 502.326 246.543 503.537C249.158 504.749 251.33 506.362 253.062 508.378L253.111 503.034L265.017 503.143L264.585 550.484L252.68 550.376L252.752 542.408C251.354 544.958 249.334 547.158 246.692 549.009C244.05 550.798 240.98 551.676 237.48 551.644C233.668 551.61 230.145 550.609 226.913 548.642C223.743 546.675 221.207 543.84 219.303 540.135C217.399 536.43 216.471 531.952 216.519 526.703C216.567 521.453 217.576 516.962 219.548 513.23C221.582 509.498 224.264 506.647 227.595 504.677C230.988 502.646 234.716 501.648 238.779 501.685ZM241.11 513.332C238.61 513.309 236.448 513.946 234.624 515.242C232.863 516.476 231.473 518.12 230.454 520.173C229.435 522.226 228.915 524.44 228.893 526.815C228.861 530.378 229.896 533.418 231.998 535.938C234.162 538.457 237.026 539.733 240.588 539.766C242.713 539.785 244.687 539.241 246.51 538.132C248.395 537.024 249.909 535.475 251.052 533.486C252.258 531.434 252.875 528.971 252.901 526.096L252.962 519.346C251.291 517.518 249.461 516.064 247.47 514.984C245.543 513.904 243.423 513.353 241.11 513.332Z" fill="white"/>
<path d="M303.522 506.502L302.471 512.409C304.204 510.874 306.187 509.543 308.419 508.414C310.713 507.295 313.429 507.014 316.568 507.568C319.83 508.144 322.648 509.435 325.02 511.441C327.404 513.385 329.067 515.995 330.007 519.271C332.303 517.074 334.834 515.331 337.603 514.043C340.382 512.694 343.403 512.307 346.665 512.883C349.804 513.437 352.534 514.681 354.857 516.614C357.19 518.486 358.874 520.973 359.909 524.075C361.006 527.188 361.177 530.868 360.422 535.114L355.332 563.727L343.607 561.657L348.325 534.596C348.884 531.458 348.469 528.973 347.08 527.141C345.754 525.32 343.767 524.176 341.121 523.709C339.09 523.35 337.221 523.686 335.514 524.718C333.818 525.687 332.17 526.92 330.571 528.414L325.235 558.412L313.51 556.342L318.228 529.281C318.787 526.143 318.372 523.658 316.984 521.826C315.657 520.005 313.701 518.866 311.116 518.41C309.147 518.062 307.283 518.368 305.526 519.327C303.779 520.224 302.148 521.364 300.632 522.747L295.231 553.114L283.506 551.043L291.797 504.431L303.522 506.502Z" fill="white"/>
<path d="M191.593 588.388C194.577 587.92 197.369 587.903 199.968 588.339C202.567 588.774 204.8 589.399 206.667 590.213L208.327 600.787C206.297 599.945 204.151 599.202 201.888 598.555C199.625 597.909 197.155 597.796 194.48 598.216C193.142 598.426 191.837 598.841 190.563 599.463C189.342 600.077 188.358 600.864 187.613 601.824C186.919 602.777 186.673 603.896 186.875 605.183C187.141 606.88 188.089 608.05 189.719 608.69C191.348 609.331 193.312 609.919 195.61 610.454L202.351 612.085C206.195 613.063 209.14 614.525 211.185 616.471C213.23 618.417 214.475 620.805 214.919 623.634C215.404 626.722 214.932 629.59 213.502 632.24C212.116 634.83 210.036 637.028 207.262 638.834C204.539 640.632 201.377 641.814 197.775 642.38C194.739 642.856 191.752 642.798 188.812 642.205C185.872 641.612 183.255 640.731 180.963 639.562L179.303 628.989C181.825 630.28 184.539 631.277 187.444 631.981C190.348 632.685 193.344 632.794 196.432 632.31C198.593 631.971 200.38 631.268 201.795 630.203C203.201 629.086 203.771 627.678 203.504 625.98C203.294 624.642 202.481 623.663 201.066 623.041C199.694 622.361 198.217 621.854 196.636 621.523L188.202 619.683C183.946 618.77 180.904 617.191 179.076 614.948C177.291 612.645 176.16 609.975 175.683 606.939C175.191 603.801 175.612 600.94 176.946 598.359C178.324 595.717 180.301 593.535 182.878 591.813C185.446 590.039 188.351 588.897 191.593 588.388Z" fill="white"/>
<path d="M238.929 578.246C240.804 578.251 242.417 578.933 243.767 580.292C245.117 581.598 245.79 583.162 245.784 584.985C245.779 586.756 245.097 588.316 243.739 589.667C242.38 591.017 240.764 591.689 238.889 591.683C237.014 591.678 235.401 590.996 234.051 589.637C232.753 588.279 232.107 586.715 232.112 584.944C232.118 583.121 232.773 581.561 234.079 580.262C235.438 578.912 237.054 578.24 238.929 578.246ZM244.649 598.81L244.53 638.263L234.608 638.233L234.701 607.218L228.373 607.198L228.399 598.761L244.649 598.81Z" fill="white"/>
<path d="M284.943 601.814C288.744 602.45 291.869 603.818 294.316 605.917C296.816 608.025 298.539 610.663 299.488 613.831C300.497 616.957 300.683 620.421 300.047 624.222L299.351 628.383L271.149 623.667C271.225 626.372 272.157 628.693 273.945 630.629C275.734 632.566 278.118 633.783 281.097 634.281C283.923 634.754 286.586 634.618 289.086 633.875C291.587 633.131 293.629 632.284 295.214 631.335L293.616 640.415C292.203 641.287 290.169 642.082 287.514 642.8C284.919 643.475 282.158 643.568 279.23 643.078C275.377 642.434 272.004 640.972 269.112 638.693C266.27 636.422 264.153 633.612 262.759 630.263C261.416 626.923 261.072 623.301 261.725 619.397C262.36 615.596 263.788 612.27 266.007 609.42C268.226 606.57 270.985 604.444 274.282 603.041C277.588 601.588 281.142 601.179 284.943 601.814ZM283.281 610.329C280.867 609.925 278.713 610.331 276.82 611.545C274.927 612.76 273.462 614.575 272.425 616.989L291.072 620.107C291.33 617.299 290.647 615.072 289.021 613.427C287.403 611.731 285.49 610.698 283.281 610.329Z" fill="white"/>
<path d="M167.338 418.481L168.394 422.485L163.446 423.79L167.42 438.861L162.623 440.126L158.649 425.055L155.741 425.822L154.685 421.818L157.593 421.051L157.145 419.351C156.76 417.891 156.734 416.565 157.066 415.373C157.416 414.149 158.022 413.128 158.883 412.308C159.745 411.489 160.78 410.919 161.988 410.601C162.794 410.388 163.522 410.29 164.173 410.307C164.824 410.324 165.416 410.424 165.949 410.607L167.005 414.611C166.041 414.326 165.021 414.339 163.945 414.65C163.196 414.874 162.62 415.295 162.218 415.913C161.808 416.506 161.743 417.331 162.022 418.389L162.39 419.786L167.338 418.481Z" fill="white"/>
<path d="M186.747 413.978C188.645 413.644 190.457 413.802 192.184 414.45C193.906 415.073 195.379 416.083 196.603 417.481C197.848 418.849 198.64 420.494 198.978 422.418C199.316 424.342 199.133 426.159 198.428 427.869C197.75 429.574 196.709 431.026 195.307 432.225C193.9 433.397 192.248 434.15 190.35 434.484C188.477 434.813 186.667 434.668 184.919 434.05C183.192 433.402 181.719 432.391 180.5 431.019C179.281 429.647 178.502 427.999 178.164 426.075C177.826 424.152 177.996 422.337 178.675 420.631C179.349 418.9 180.389 417.448 181.796 416.275C183.224 415.073 184.874 414.307 186.747 413.978ZM187.578 418.71C186.655 418.872 185.834 419.241 185.115 419.817C184.397 420.393 183.866 421.134 183.523 422.04C183.205 422.942 183.15 423.983 183.358 425.163C183.565 426.343 183.972 427.302 184.578 428.042C185.209 428.777 185.961 429.293 186.832 429.589C187.7 429.86 188.595 429.914 189.518 429.752C190.442 429.589 191.265 429.233 191.988 428.683C192.706 428.107 193.237 427.366 193.58 426.46C193.923 425.554 193.991 424.511 193.784 423.331C193.577 422.151 193.157 421.193 192.526 420.458C191.894 419.723 191.142 419.207 190.271 418.911C189.399 418.615 188.501 418.548 187.578 418.71Z" fill="white"/>
<path d="M221.603 415.769C220.732 415.376 219.842 415.22 218.934 415.3C217.793 415.401 216.88 415.861 216.194 416.68C215.506 417.473 214.925 418.44 214.451 419.58L215.424 430.552L210.482 430.99L208.74 411.341L213.682 410.903L214.01 414.599C214.58 413.372 215.285 412.329 216.124 411.471C216.989 410.61 218.005 410.128 219.173 410.024C219.873 409.962 220.519 410.022 221.11 410.205L221.603 415.769Z" fill="white"/>
<path d="M238.883 403.886L238.965 409.628L244.433 409.549L244.493 413.689L239.025 413.768L239.147 422.283C239.16 423.168 239.366 423.869 239.764 424.384C240.187 424.872 240.803 425.111 241.61 425.099C242.313 425.089 242.911 425.002 243.403 424.839C243.922 424.675 244.401 424.447 244.839 424.154L244.896 428.099C244.408 428.601 243.789 429.027 243.039 429.376C242.315 429.725 241.393 429.908 240.273 429.924C238.503 429.949 237.049 429.41 235.914 428.307C234.803 427.177 234.234 425.622 234.206 423.643L234.064 413.84L230.51 413.891L230.474 411.352C231.717 410.891 232.851 410.042 233.875 408.803C234.925 407.564 235.748 405.937 236.344 403.923L238.883 403.886Z" fill="white"/>
<path d="M273.509 411.021L272.673 422.75C272.549 424.49 272.052 425.969 271.182 427.186C270.314 428.377 269.181 429.263 267.782 429.842C266.409 430.423 264.878 430.653 263.19 430.533C261.476 430.411 259.967 429.964 258.665 429.192C257.388 428.422 256.404 427.386 255.714 426.084C255.051 424.757 254.782 423.224 254.906 421.484L255.742 409.756L260.729 410.111L259.996 420.946C259.887 422.478 260.156 423.646 260.804 424.449C261.452 425.253 262.36 425.696 263.529 425.779C264.672 425.861 265.621 425.55 266.376 424.846C267.157 424.145 267.602 423.028 267.711 421.495L268.483 410.663L273.509 411.021Z" fill="white"/>
<path d="M291.36 413.368L290.894 416.141C291.619 415.444 292.54 414.833 293.658 414.308C294.802 413.788 296.029 413.637 297.338 413.857C299.316 414.19 300.86 415.136 301.971 416.696C303.082 418.256 303.413 420.371 302.964 423.042L300.957 434.984L296.065 434.162L297.923 422.868C298.143 421.558 297.986 420.529 297.452 419.779C296.944 419.033 296.138 418.567 295.033 418.382C294.16 418.235 293.291 418.379 292.425 418.815C291.586 419.255 290.831 419.814 290.163 420.494L288.091 432.821L283.198 431.999L286.468 412.545L291.36 413.368Z" fill="white"/>
<path d="M324.848 419.922C326.71 420.418 328.201 421.247 329.32 422.407C330.465 423.574 331.198 424.969 331.521 426.591C331.875 428.194 331.805 429.927 331.309 431.789L330.766 433.828L316.951 430.149C316.861 431.499 317.215 432.698 318.014 433.746C318.813 434.795 319.942 435.513 321.401 435.902C322.785 436.27 324.117 436.329 325.397 436.077C326.677 435.824 327.734 435.5 328.567 435.102L327.343 439.546C326.599 439.913 325.549 440.213 324.193 440.445C322.87 440.659 321.491 440.574 320.057 440.192C318.169 439.69 316.559 438.803 315.227 437.532C313.92 436.267 312.998 434.769 312.463 433.036C311.952 431.31 311.952 429.491 312.461 427.578C312.957 425.716 313.824 424.128 315.064 422.814C316.303 421.5 317.776 420.572 319.484 420.03C321.198 419.462 322.986 419.427 324.848 419.922ZM323.619 424.082C322.436 423.767 321.345 423.867 320.346 424.383C319.346 424.898 318.531 425.732 317.901 426.885L327.035 429.317C327.297 427.932 327.061 426.791 326.33 425.896C325.605 424.975 324.701 424.37 323.619 424.082Z" fill="white"/>
</svg>
