<svg width="474" height="1417" viewBox="0 0 474 1417" fill="none" xmlns="http://www.w3.org/2000/svg">
<mask id="path-1-inside-1_165_705" fill="white">
<path fill-rule="evenodd" clip-rule="evenodd" d="M0 681.953L79.1091 731.396V731.953H394.899V731.392L474 681.953L394.899 632.515V631.953H394H80H79.1091V632.51L0 681.953Z"/>
</mask>
<path fill-rule="evenodd" clip-rule="evenodd" d="M0 681.953L79.1091 731.396V731.953H394.899V731.392L474 681.953L394.899 632.515V631.953H394H80H79.1091V632.51L0 681.953Z" fill="#4C0406"/>
<path d="M79.1091 731.396H94.1091V723.083L87.0591 718.676L79.1091 731.396ZM0 681.953L-7.94997 669.233L-28.302 681.953L-7.94997 694.673L0 681.953ZM79.1091 731.953H64.1091V746.953H79.1091V731.953ZM394.899 731.953V746.953H409.899V731.953H394.899ZM394.899 731.392L386.949 718.672L379.899 723.078V731.392H394.899ZM474 681.953L481.95 694.673L502.302 681.953L481.95 669.233L474 681.953ZM394.899 632.515H379.899V640.829L386.949 645.235L394.899 632.515ZM394.899 631.953H409.899V616.953H394.899V631.953ZM79.1091 631.953V616.953H64.1091V631.953H79.1091ZM79.1091 632.51L87.0591 645.23L94.1091 640.824V632.51H79.1091ZM87.0591 718.676L7.94997 669.233L-7.94997 694.673L71.1591 744.116L87.0591 718.676ZM94.1091 731.953V731.396H64.1091V731.953H94.1091ZM394.899 716.953H79.1091V746.953H394.899V716.953ZM379.899 731.392V731.953H409.899V731.392H379.899ZM402.849 744.112L481.95 694.673L466.05 669.233L386.949 718.672L402.849 744.112ZM481.95 669.233L402.849 619.795L386.949 645.235L466.05 694.673L481.95 669.233ZM379.899 631.953V632.515H409.899V631.953H379.899ZM394 646.953H394.899V616.953H394V646.953ZM80 646.953H394V616.953H80V646.953ZM79.1091 646.953H80V616.953H79.1091V646.953ZM94.1091 632.51V631.953H64.1091V632.51H94.1091ZM7.94997 694.673L87.0591 645.23L71.1591 619.79L-7.94997 669.233L7.94997 694.673Z" fill="#B82025" mask="url(#path-1-inside-1_165_705)"/>
<path d="M48.574 379.977C47.3331 371.228 53.4196 363.13 62.1686 361.889V361.889C70.9176 360.648 79.016 366.735 80.2569 375.484L151.175 875.479L119.492 879.973L48.574 379.977Z" fill="#D83A40"/>
<path d="M104.96 407.752C103.878 398.982 110.109 390.995 118.879 389.913V389.913C127.65 388.83 135.637 395.062 136.719 403.832L198.581 905.029L166.822 908.949L104.96 407.752Z" fill="#D83A40"/>
<path d="M158.794 371.522C158.356 362.696 165.155 355.186 173.98 354.747V354.747C182.806 354.308 190.316 361.107 190.755 369.933L215.826 874.31L183.865 875.899L158.794 371.522Z" fill="#D83A40"/>
<path d="M209.554 17.3258C209.184 8.497 216.041 1.03991 224.87 0.669921V0.669921C233.699 0.299933 241.156 7.15716 241.526 15.986L262.67 520.543L230.698 521.883L209.554 17.3258Z" fill="#D83A40"/>
<path d="M277.097 375.947C277.344 367.114 284.705 360.153 293.538 360.4V360.4C302.371 360.646 309.332 368.007 309.085 376.84L294.988 881.643L263 880.75L277.097 375.947Z" fill="#D83A40"/>
<path d="M336.195 421.784C337.475 413.041 345.601 406.991 354.345 408.272V408.272C363.088 409.553 369.137 417.679 367.857 426.422L294.662 926.09L263 921.452L336.195 421.784Z" fill="#D83A40"/>
<path d="M385.468 389.882C386.298 381.085 394.103 374.626 402.901 375.457V375.457C411.698 376.288 418.157 384.093 417.326 392.89L369.858 895.654L338 892.646L385.468 389.882Z" fill="#D83A40"/>
<mask id="path-10-inside-2_165_705" fill="white">
<path d="M79 716.953H395V1416.95H79V716.953Z"/>
</mask>
<path d="M79 716.953H395V1416.95H79V716.953Z" fill="#D83A40"/>
<path d="M79 716.953V701.953H64V716.953H79ZM395 716.953H410V701.953H395V716.953ZM79 731.953H395V701.953H79V731.953ZM380 716.953V1416.95H410V716.953H380ZM94 1416.95V716.953H64V1416.95H94Z" fill="#B82025" mask="url(#path-10-inside-2_165_705)"/>
<path d="M71.5 735.455V1409.45H7.5V695.48L71.5 735.455Z" fill="#A81319" stroke="#A81319" stroke-width="15"/>
<path d="M402.5 735.455V1409.45H466.5V695.48L402.5 735.455Z" fill="#A81319" stroke="#A81319" stroke-width="15"/>
<path d="M130.296 869.986C133.845 869.249 137.191 869.065 140.333 869.434C143.475 869.802 146.19 870.419 148.478 871.285L151.109 883.856C148.624 882.968 146.006 882.203 143.254 881.562C140.501 880.92 137.534 880.93 134.352 881.591C132.761 881.921 131.221 882.497 129.733 883.316C128.305 884.123 127.174 885.124 126.338 886.319C125.564 887.501 125.337 888.857 125.657 890.387C126.079 892.405 127.286 893.75 129.279 894.422C131.271 895.093 133.661 895.682 136.449 896.188L144.628 897.745C149.296 898.691 152.915 900.269 155.485 902.481C158.054 904.692 159.691 907.48 160.395 910.844C161.163 914.515 160.771 917.979 159.218 921.238C157.713 924.423 155.353 927.18 152.136 929.507C148.981 931.822 145.262 933.424 140.978 934.314C137.367 935.064 133.782 935.17 130.221 934.633C126.661 934.095 123.471 933.194 120.652 931.928L118.022 919.357C121.124 920.755 124.437 921.79 127.962 922.463C131.487 923.135 135.086 923.09 138.757 922.327C141.327 921.794 143.428 920.847 145.059 919.487C146.677 918.066 147.275 916.346 146.853 914.327C146.52 912.736 145.486 911.61 143.752 910.949C142.065 910.214 140.264 909.695 138.349 909.39L128.126 907.683C122.969 906.839 119.227 905.127 116.899 902.546C114.619 899.892 113.102 896.76 112.347 893.15C111.566 889.419 111.897 885.967 113.341 882.795C114.833 879.548 117.071 876.818 120.055 874.602C123.027 872.325 126.44 870.787 130.296 869.986Z" fill="white"/>
<path d="M182.246 853.89C184.483 853.653 186.496 854.257 188.285 855.701C190.067 857.084 191.074 858.863 191.306 861.038C191.531 863.151 190.922 865.101 189.479 866.888C188.035 868.675 186.195 869.687 183.957 869.924C181.72 870.161 179.707 869.557 177.918 868.112C176.192 866.661 175.216 864.879 174.991 862.766C174.759 860.591 175.337 858.644 176.725 856.926C178.168 855.139 180.009 854.127 182.246 853.89ZM191.762 877.676L196.786 924.752L184.946 926.007L180.996 888.998L173.445 889.798L172.37 879.73L191.762 877.676Z" fill="white"/>
<path d="M234.902 874.446C237.465 874.451 240.057 875.05 242.679 876.243C245.302 877.436 247.486 879.035 249.232 881.039L249.243 875.695L261.149 875.72L261.049 923.064L249.142 923.038L249.159 915.07C247.779 917.629 245.774 919.844 243.145 921.713C240.516 923.52 237.452 924.42 233.952 924.413C230.14 924.405 226.61 923.428 223.364 921.484C220.181 919.54 217.625 916.722 215.695 913.03C213.765 909.339 212.806 904.868 212.817 899.618C212.828 894.368 213.807 889.87 215.752 886.124C217.76 882.378 220.423 879.509 223.739 877.516C227.119 875.461 230.84 874.437 234.902 874.446ZM237.315 886.076C234.815 886.071 232.657 886.722 230.842 888.031C229.089 889.277 227.711 890.931 226.706 892.991C225.702 895.051 225.197 897.269 225.192 899.644C225.185 903.207 226.241 906.24 228.36 908.745C230.543 911.249 233.415 912.505 236.977 912.513C239.102 912.517 241.072 911.959 242.887 910.838C244.765 909.717 246.268 908.157 247.397 906.16C248.589 904.1 249.188 901.632 249.194 898.757L249.208 892.007C247.525 890.191 245.684 888.75 243.686 887.683C241.751 886.617 239.627 886.081 237.315 886.076Z" fill="white"/>
<path d="M299.678 878.81L298.668 884.724C300.391 883.178 302.364 881.832 304.588 880.688C306.874 879.553 309.589 879.253 312.731 879.785C315.997 880.338 318.824 881.609 321.21 883.599C323.608 885.526 325.288 888.124 326.252 891.394C328.532 889.181 331.051 887.421 333.811 886.113C336.581 884.744 339.598 884.336 342.864 884.89C346.007 885.422 348.746 886.647 351.082 888.564C353.428 890.419 355.13 892.894 356.187 895.989C357.305 899.095 357.502 902.773 356.776 907.024L351.886 935.672L340.147 933.684L344.676 906.591C345.213 903.449 344.78 900.967 343.38 899.145C342.04 897.333 340.046 896.203 337.396 895.754C335.362 895.409 333.496 895.759 331.796 896.802C330.107 897.784 328.468 899.027 326.879 900.533L321.753 930.568L310.014 928.579L314.543 901.486C315.08 898.344 314.647 895.862 313.246 894.04C311.907 892.228 309.943 891.103 307.355 890.665C305.383 890.331 303.522 890.649 301.771 891.621C300.031 892.53 298.408 893.682 296.902 895.075L291.712 925.479L279.973 923.49L287.939 876.821L299.678 878.81Z" fill="white"/>
<path d="M188.323 961.476C191.304 960.987 194.095 960.951 196.697 961.368C199.299 961.786 201.537 962.395 203.41 963.196L205.144 973.757C203.108 972.93 200.956 972.202 198.689 971.571C196.421 970.94 193.951 970.844 191.278 971.283C189.942 971.503 188.64 971.927 187.371 972.558C186.153 973.18 185.175 973.974 184.437 974.94C183.749 975.897 183.511 977.018 183.722 978.303C184 979.999 184.957 981.162 186.59 981.791C188.224 982.42 190.192 982.994 192.494 983.513L199.246 985.097C203.097 986.048 206.052 987.49 208.111 989.421C210.17 991.353 211.431 993.732 211.895 996.559C212.401 999.642 211.949 1002.51 210.538 1005.17C209.17 1007.77 207.106 1009.99 204.344 1011.81C201.634 1013.63 198.48 1014.83 194.882 1015.42C191.85 1015.92 188.862 1015.88 185.918 1015.31C182.973 1014.74 180.351 1013.88 178.051 1012.72L176.317 1002.16C178.848 1003.43 181.569 1004.41 184.478 1005.1C187.388 1005.78 190.385 1005.87 193.468 1005.36C195.627 1005.01 197.41 1004.29 198.817 1003.22C200.215 1002.09 200.775 1000.68 200.497 998.984C200.277 997.648 199.458 996.674 198.038 996.062C196.661 995.391 195.181 994.895 193.598 994.574L185.151 992.794C180.889 991.91 177.836 990.353 175.992 988.122C174.191 985.832 173.041 983.17 172.544 980.138C172.029 977.003 172.43 974.14 173.746 971.548C175.106 968.897 177.067 966.702 179.632 964.961C182.188 963.169 185.085 962.008 188.323 961.476Z" fill="white"/>
<path d="M235.589 951.003C237.464 950.996 239.081 951.667 240.44 953.015C241.8 954.312 242.483 955.872 242.49 957.695C242.497 959.466 241.826 961.031 240.478 962.39C239.129 963.75 237.517 964.433 235.642 964.441C233.767 964.448 232.15 963.778 230.79 962.429C229.483 961.08 228.826 959.52 228.819 957.749C228.811 955.926 229.456 954.361 230.753 953.054C232.102 951.694 233.714 951.011 235.589 951.003ZM241.451 971.527L241.608 1010.98L231.686 1011.02L231.563 980.004L225.235 980.029L225.202 971.592L241.451 971.527Z" fill="white"/>
<path d="M281.765 974.25C285.57 974.86 288.704 976.205 291.167 978.287C293.68 980.378 295.423 983.004 296.393 986.166C297.424 989.284 297.634 992.747 297.025 996.552L296.358 1000.72L268.124 996.198C268.219 998.903 269.167 1001.22 270.969 1003.14C272.771 1005.07 275.163 1006.27 278.146 1006.74C280.974 1007.2 283.636 1007.04 286.132 1006.28C288.627 1005.52 290.664 1004.66 292.242 1003.7L290.707 1012.79C289.3 1013.67 287.272 1014.48 284.622 1015.22C282.032 1015.91 279.271 1016.02 276.34 1015.55C272.483 1014.94 269.1 1013.5 266.191 1011.24C263.334 1008.99 261.197 1006.19 259.78 1002.85C258.414 999.523 258.044 995.903 258.67 991.995C259.279 988.189 260.683 984.853 262.882 981.988C265.082 979.123 267.825 976.977 271.113 975.552C274.408 974.075 277.959 973.641 281.765 974.25ZM280.163 982.776C277.745 982.389 275.595 982.81 273.71 984.038C271.826 985.266 270.373 987.09 269.353 989.512L288.021 992.5C288.26 989.69 287.561 987.468 285.924 985.835C284.294 984.15 282.374 983.13 280.163 982.776Z" fill="white"/>
<path d="M162.883 791.743L163.966 795.739L159.028 797.078L163.107 812.121L158.319 813.419L154.239 798.377L151.337 799.164L150.253 795.167L153.156 794.38L152.696 792.684C152.3 791.226 152.265 789.9 152.588 788.706C152.931 787.48 153.529 786.454 154.385 785.629C155.24 784.803 156.271 784.227 157.477 783.9C158.282 783.681 159.009 783.579 159.66 783.591C160.311 783.603 160.904 783.699 161.438 783.878L162.522 787.874C161.556 787.596 160.536 787.617 159.462 787.935C158.715 788.164 158.142 788.59 157.744 789.21C157.339 789.806 157.279 790.631 157.566 791.687L157.944 793.082L162.883 791.743Z" fill="white"/>
<path d="M182.259 787.104C184.154 786.757 185.968 786.902 187.699 787.538C189.426 788.149 190.906 789.149 192.14 790.538C193.394 791.897 194.197 793.537 194.549 795.458C194.9 797.38 194.73 799.198 194.037 800.913C193.371 802.623 192.34 804.082 190.947 805.291C189.548 806.473 187.901 807.238 186.005 807.584C184.135 807.926 182.324 807.794 180.572 807.188C178.84 806.552 177.36 805.552 176.131 804.188C174.902 802.825 174.112 801.182 173.761 799.261C173.409 797.34 173.567 795.524 174.234 793.814C174.896 792.078 175.926 790.618 177.324 789.436C178.744 788.223 180.389 787.446 182.259 787.104ZM183.123 791.83C182.201 791.999 181.383 792.373 180.668 792.954C179.954 793.535 179.428 794.28 179.092 795.188C178.78 796.093 178.733 797.134 178.948 798.312C179.164 799.49 179.577 800.447 180.188 801.183C180.825 801.913 181.58 802.424 182.454 802.714C183.323 802.979 184.218 803.027 185.141 802.858C186.063 802.689 186.883 802.327 187.603 801.772C188.317 801.192 188.843 800.447 189.179 799.538C189.516 798.629 189.577 797.586 189.361 796.407C189.146 795.229 188.72 794.274 188.083 793.544C187.446 792.813 186.691 792.303 185.817 792.012C184.944 791.722 184.046 791.661 183.123 791.83Z" fill="white"/>
<path d="M217.127 788.652C216.253 788.265 215.362 788.114 214.455 788.201C213.314 788.31 212.404 788.777 211.724 789.601C211.042 790.398 210.468 791.369 210.002 792.512L211.051 803.478L206.112 803.95L204.234 784.313L209.172 783.841L209.525 787.535C210.088 786.304 210.785 785.256 211.618 784.392C212.477 783.525 213.49 783.035 214.656 782.924C215.356 782.857 216.003 782.913 216.595 783.091L217.127 788.652Z" fill="white"/>
<path d="M234.322 776.649L234.445 782.389L239.912 782.272L240.001 786.412L234.534 786.529L234.716 795.043C234.735 795.928 234.945 796.627 235.346 797.139C235.774 797.625 236.391 797.859 237.198 797.842C237.901 797.827 238.498 797.736 238.989 797.569C239.507 797.402 239.984 797.17 240.42 796.874L240.504 800.819C240.02 801.324 239.404 801.754 238.657 802.109C237.935 802.463 237.014 802.652 235.895 802.676C234.124 802.713 232.667 802.185 231.524 801.089C230.406 799.967 229.826 798.416 229.783 796.438L229.574 786.635L226.02 786.711L225.966 784.173C227.206 783.703 228.334 782.846 229.349 781.6C230.39 780.353 231.202 778.721 231.784 776.703L234.322 776.649Z" fill="white"/>
<path d="M268.998 783.542L268.244 795.275C268.132 797.017 267.645 798.499 266.784 799.722C265.924 800.92 264.797 801.813 263.402 802.402C262.033 802.992 260.504 803.233 258.815 803.125C257.1 803.015 255.588 802.578 254.28 801.816C252.998 801.055 252.007 800.026 251.308 798.728C250.636 797.406 250.356 795.875 250.468 794.134L251.222 782.4L256.211 782.721L255.554 793.56C255.456 795.093 255.733 796.259 256.386 797.058C257.04 797.857 257.951 798.294 259.121 798.369C260.264 798.442 261.211 798.125 261.961 797.416C262.737 796.709 263.174 795.589 263.273 794.056L263.969 783.219L268.998 783.542Z" fill="white"/>
<path d="M286.865 785.763L286.419 788.54C287.138 787.838 288.055 787.221 289.17 786.688C290.31 786.159 291.536 786 292.847 786.211C294.827 786.53 296.377 787.465 297.499 789.017C298.621 790.569 298.967 792.682 298.537 795.356L296.613 807.312L291.715 806.524L293.495 795.218C293.706 793.906 293.541 792.878 293.002 792.131C292.488 791.389 291.679 790.929 290.573 790.752C289.699 790.611 288.831 790.761 287.968 791.203C287.132 791.649 286.381 792.214 285.717 792.898L283.732 805.239L278.834 804.451L281.968 784.975L286.865 785.763Z" fill="white"/>
<path d="M320.398 792.084C322.264 792.567 323.76 793.385 324.888 794.537C326.04 795.697 326.783 797.086 327.117 798.706C327.483 800.307 327.424 802.04 326.941 803.906L326.413 805.948L312.572 802.365C312.491 803.716 312.854 804.913 313.66 805.955C314.466 806.998 315.601 807.709 317.063 808.087C318.449 808.446 319.782 808.495 321.06 808.234C322.338 807.973 323.392 807.641 324.223 807.237L323.03 811.689C322.288 812.062 321.24 812.369 319.886 812.611C318.564 812.834 317.185 812.759 315.748 812.387C313.857 811.897 312.241 811.022 310.9 809.76C309.584 808.505 308.652 807.013 308.104 805.284C307.582 803.562 307.568 801.742 308.064 799.826C308.547 797.961 309.404 796.367 310.634 795.044C311.864 793.722 313.331 792.783 315.034 792.229C316.745 791.649 318.533 791.601 320.398 792.084ZM319.198 796.252C318.013 795.946 316.923 796.053 315.927 796.576C314.931 797.098 314.122 797.938 313.499 799.095L322.651 801.463C322.902 800.076 322.659 798.937 321.921 798.047C321.19 797.131 320.282 796.533 319.198 796.252Z" fill="white"/>
</svg>
