<svg width="478" height="1043" viewBox="0 0 478 1043" fill="none" xmlns="http://www.w3.org/2000/svg">
<mask id="path-1-inside-1_158_409" fill="white">
<path fill-rule="evenodd" clip-rule="evenodd" d="M2.65945 305.568L81.5955 355.287L81.5935 355.844L397.381 356.946L397.383 356.384L476.657 307.222L397.728 257.508L397.73 256.947L396.832 256.944L82.8335 255.847L81.9426 255.844L81.9407 256.401L2.65945 305.568Z"/>
</mask>
<path fill-rule="evenodd" clip-rule="evenodd" d="M2.65945 305.568L81.5955 355.287L81.5935 355.844L397.381 356.946L397.383 356.384L476.657 307.222L397.728 257.508L397.73 256.947L396.832 256.944L82.8335 255.847L81.9426 255.844L81.9407 256.401L2.65945 305.568Z" fill="#4C0406"/>
<path d="M81.5955 355.287L96.5954 355.339L96.6244 347.025L89.5898 342.595L81.5955 355.287ZM2.65945 305.568L-5.24607 292.82L-25.6424 305.469L-5.33487 318.26L2.65945 305.568ZM81.5935 355.844L66.5936 355.791L66.5413 370.791L81.5412 370.844L81.5935 355.844ZM397.381 356.946L397.329 371.946L412.329 371.998L412.381 356.998L397.381 356.946ZM397.383 356.384L389.477 343.637L382.412 348.018L382.383 356.332L397.383 356.384ZM476.657 307.222L484.562 319.97L504.958 307.321L484.651 294.53L476.657 307.222ZM397.728 257.508L382.728 257.456L382.699 265.77L389.734 270.2L397.728 257.508ZM397.73 256.947L412.73 256.999L412.782 241.999L397.782 241.947L397.73 256.947ZM396.832 256.944L396.884 241.944L396.832 256.944ZM81.9426 255.844L81.995 240.844L66.9951 240.792L66.9427 255.792L81.9426 255.844ZM81.9407 256.401L89.8462 269.149L96.9115 264.767L96.9406 256.454L81.9407 256.401ZM89.5898 342.595L10.6538 292.876L-5.33487 318.26L73.6012 367.979L89.5898 342.595ZM96.5934 355.896L96.5954 355.339L66.5956 355.234L66.5936 355.791L96.5934 355.896ZM397.433 341.946L81.6459 340.844L81.5412 370.844L397.329 371.946L397.433 341.946ZM382.383 356.332L382.381 356.894L412.381 356.998L412.383 356.437L382.383 356.332ZM405.289 369.132L484.562 319.97L468.751 294.475L389.477 343.637L405.289 369.132ZM484.651 294.53L405.722 244.816L389.734 270.2L468.662 319.915L484.651 294.53ZM382.73 256.894L382.728 257.456L412.728 257.561L412.73 256.999L382.73 256.894ZM396.779 271.943L397.678 271.947L397.782 241.947L396.884 241.944L396.779 271.943ZM82.7811 270.847L396.779 271.943L396.884 241.944L82.8859 240.848L82.7811 270.847ZM81.8902 270.844L82.7811 270.847L82.8859 240.848L81.995 240.844L81.8902 270.844ZM96.9406 256.454L96.9425 255.897L66.9427 255.792L66.9407 256.349L96.9406 256.454ZM10.565 318.315L89.8462 269.149L74.0351 243.654L-5.24607 292.82L10.565 318.315Z" fill="#B82025" mask="url(#path-1-inside-1_158_409)"/>
<path d="M55.5806 24.0957C54.493 15.3264 60.7203 7.33572 69.4897 6.2481C78.259 5.16048 86.2497 11.3878 87.3373 20.1571L149.494 521.317L117.737 525.256L55.5806 24.0957Z" fill="#D83A40"/>
<path d="M111.853 52.1331C110.923 43.3456 117.293 35.4682 126.08 34.5384C134.868 33.6086 142.745 39.9785 143.675 48.766L196.812 550.963L164.99 554.33L111.853 52.1331Z" fill="#D83A40"/>
<path d="M164.99 18.4224C164.674 9.59147 171.577 2.17637 180.408 1.86027C189.239 1.54417 196.654 8.44678 196.97 17.2777L215.034 521.954L183.055 523.099L164.99 18.4224Z" fill="#D83A40"/>
<path d="M217.555 36.3432C217.339 27.5093 224.325 20.173 233.159 19.9571C241.993 19.7412 249.33 26.7275 249.545 35.5614L261.884 540.411L229.893 541.192L217.555 36.3432Z" fill="#D83A40"/>
<path d="M279.464 23.5776C279.695 14.7441 287.044 7.77065 295.877 8.00196C304.711 8.23328 311.684 15.5818 311.453 24.4153L298.234 529.242L266.245 528.405L279.464 23.5776Z" fill="#D83A40"/>
<path d="M337.964 67.4359C339.214 58.6881 347.318 52.6097 356.066 53.8594C364.814 55.1091 370.892 63.2136 369.642 71.9613L298.225 571.886L266.547 567.36L337.964 67.4359Z" fill="#D83A40"/>
<path d="M390.76 37.9049C391.682 29.1166 399.554 22.7398 408.342 23.662C417.131 24.5841 423.507 32.456 422.585 41.2443L369.886 543.487L338.061 540.148L390.76 37.9049Z" fill="#D83A40"/>
<mask id="path-10-inside-2_158_409" fill="white">
<path d="M81.5361 340.844L397.534 341.947L395.091 1041.94L79.0927 1040.84L81.5361 340.844Z"/>
</mask>
<path d="M81.5361 340.844L397.534 341.947L395.091 1041.94L79.0927 1040.84L81.5361 340.844Z" fill="#D83A40"/>
<path d="M81.5361 340.844L81.5885 325.844L66.5886 325.791L66.5362 340.791L81.5361 340.844ZM397.534 341.947L412.534 341.999L412.586 326.999L397.587 326.947L397.534 341.947ZM81.4838 355.843L397.482 356.946L397.587 326.947L81.5885 325.844L81.4838 355.843ZM382.534 341.894L380.091 1041.89L410.091 1041.99L412.534 341.999L382.534 341.894ZM94.0926 1040.89L96.536 340.896L66.5362 340.791L64.0928 1040.79L94.0926 1040.89Z" fill="#B82025" mask="url(#path-10-inside-2_158_409)"/>
<path d="M73.972 359.319L71.6193 1033.31L7.61968 1033.09L10.1119 319.121L73.972 359.319Z" fill="#A81319" stroke="#A81319" stroke-width="15"/>
<path d="M404.97 360.475L402.617 1034.47L466.617 1034.69L469.109 320.724L404.97 360.475Z" fill="#A81319" stroke="#A81319" stroke-width="15"/>
<path d="M132.298 494.054C135.85 493.33 139.196 493.157 142.337 493.537C145.478 493.917 148.191 494.543 150.476 495.417L153.062 507.997C150.581 507.1 147.965 506.326 145.215 505.675C142.465 505.024 139.498 505.024 136.314 505.673C134.722 505.998 133.18 506.568 131.688 507.383C130.258 508.185 129.123 509.182 128.283 510.374C127.505 511.553 127.273 512.908 127.588 514.439C128.003 516.459 129.206 517.808 131.195 518.487C133.185 519.165 135.573 519.762 138.359 520.278L146.534 521.863C151.198 522.825 154.811 524.416 157.373 526.637C159.935 528.857 161.562 531.65 162.255 535.017C163.01 538.691 162.605 542.154 161.041 545.407C159.525 548.587 157.155 551.335 153.931 553.651C150.767 555.955 147.042 557.544 142.755 558.419C139.142 559.156 135.557 559.25 131.998 558.7C128.439 558.151 125.253 557.238 122.438 555.962L119.852 543.382C122.949 544.791 126.259 545.838 129.781 546.523C133.304 547.207 136.902 547.175 140.577 546.425C143.149 545.9 145.253 544.961 146.888 543.606C148.512 542.191 149.115 540.473 148.7 538.453C148.373 536.861 147.343 535.732 145.611 535.064C143.927 534.324 142.128 533.798 140.214 533.486L129.997 531.744C124.843 530.882 121.106 529.156 118.787 526.568C116.517 523.905 115.011 520.768 114.268 517.156C113.5 513.422 113.844 509.971 115.298 506.804C116.801 503.563 119.049 500.84 122.041 498.635C125.021 496.368 128.44 494.841 132.298 494.054Z" fill="white"/>
<path d="M184.304 478.139C186.542 477.91 188.553 478.521 190.337 479.972C192.113 481.361 193.114 483.143 193.339 485.319C193.557 487.433 192.941 489.381 191.491 491.163C190.042 492.945 188.198 493.95 185.959 494.179C183.721 494.409 181.71 493.798 179.927 492.347C178.206 490.89 177.236 489.104 177.018 486.99C176.793 484.814 177.378 482.87 178.772 481.156C180.222 479.374 182.066 478.369 184.304 478.139ZM193.737 501.959L198.597 549.052L186.753 550.265L182.932 513.243L175.377 514.017L174.338 503.945L193.737 501.959Z" fill="white"/>
<path d="M236.889 498.879C239.451 498.894 242.042 499.502 244.66 500.704C247.278 501.906 249.457 503.512 251.196 505.522L251.226 500.178L263.132 500.245L262.866 547.588L250.96 547.521L251.004 539.553C249.615 542.107 247.603 544.315 244.967 546.175C242.332 547.973 239.264 548.862 235.764 548.842C231.952 548.821 228.426 547.833 225.187 545.877C222.011 543.922 219.464 541.095 217.547 537.396C215.63 533.698 214.687 529.224 214.716 523.974C214.746 518.724 215.74 514.23 217.698 510.491C219.719 506.752 222.392 503.892 225.715 501.91C229.102 499.867 232.826 498.856 236.889 498.879ZM239.261 510.518C236.761 510.504 234.601 511.148 232.781 512.45C231.024 513.69 229.64 515.339 228.629 517.396C227.617 519.453 227.104 521.669 227.091 524.043C227.071 527.606 228.117 530.643 230.228 533.155C232.401 535.667 235.269 536.933 238.831 536.953C240.956 536.965 242.928 536.414 244.747 535.299C246.628 534.184 248.137 532.63 249.273 530.637C250.472 528.581 251.08 526.115 251.096 523.24L251.134 516.491C249.457 514.669 247.621 513.221 245.627 512.147C243.696 511.074 241.574 510.531 239.261 510.518Z" fill="white"/>
<path d="M301.649 503.47L300.619 509.38C302.346 507.84 304.324 506.501 306.553 505.364C308.842 504.238 311.558 503.947 314.699 504.49C317.963 505.055 320.785 506.336 323.164 508.333C325.555 510.269 327.227 512.874 328.179 516.146C330.466 513.941 332.992 512.19 335.756 510.892C338.53 509.533 341.55 509.135 344.814 509.7C347.955 510.243 350.69 511.478 353.019 513.403C355.358 515.266 357.051 517.748 358.097 520.846C359.205 523.956 359.388 527.634 358.648 531.883L353.658 560.514L341.926 558.484L346.55 531.407C347.097 528.267 346.674 525.784 345.279 523.957C343.946 522.14 341.956 521.003 339.307 520.545C337.275 520.194 335.407 520.536 333.704 521.574C332.011 522.549 330.368 523.787 328.774 525.288L323.543 555.304L311.811 553.275L316.435 526.198C316.982 523.058 316.559 520.574 315.164 518.747C313.831 516.931 311.871 515.799 309.285 515.351C307.314 515.01 305.451 515.322 303.697 516.288C301.954 517.191 300.327 518.337 298.816 519.725L293.52 550.11L281.788 548.081L289.917 501.44L301.649 503.47Z" fill="white"/>
<path d="M190.005 585.746C192.987 585.267 195.779 585.241 198.379 585.668C200.98 586.094 203.215 586.711 205.086 587.518L206.783 598.086C204.75 597.252 202.601 596.516 200.335 595.877C198.07 595.239 195.6 595.134 192.926 595.564C191.589 595.778 190.285 596.199 189.014 596.825C187.795 597.443 186.814 598.233 186.072 599.196C185.381 600.151 185.139 601.271 185.345 602.557C185.618 604.254 186.57 605.42 188.202 606.055C189.833 606.689 191.799 607.271 194.099 607.798L200.846 609.405C204.693 610.37 207.643 611.821 209.695 613.76C211.747 615.699 213 618.083 213.454 620.911C213.95 623.996 213.487 626.866 212.067 629.521C210.69 632.116 208.618 634.321 205.85 636.137C203.134 637.945 199.975 639.138 196.376 639.716C193.342 640.203 190.354 640.155 187.412 639.573C184.469 638.99 181.85 638.118 179.554 636.957L177.857 626.389C180.384 627.672 183.101 628.66 186.008 629.353C188.915 630.047 191.912 630.146 194.997 629.651C197.157 629.304 198.942 628.595 200.353 627.525C201.755 626.403 202.32 624.993 202.048 623.296C201.833 621.959 201.017 620.983 199.599 620.366C198.224 619.69 196.746 619.189 195.164 618.863L186.723 617.053C182.465 616.154 179.417 614.586 177.581 612.349C175.788 610.052 174.648 607.387 174.16 604.353C173.657 601.216 174.068 598.354 175.393 595.768C176.762 593.121 178.731 590.933 181.302 589.201C183.864 587.418 186.765 586.267 190.005 585.746Z" fill="white"/>
<path d="M237.307 575.439C239.182 575.438 240.797 576.114 242.152 577.468C243.506 578.769 244.184 580.331 244.185 582.154C244.186 583.925 243.51 585.488 242.156 586.843C240.803 588.197 239.188 588.875 237.313 588.876C235.438 588.877 233.823 588.201 232.469 586.847C231.166 585.494 230.514 583.932 230.513 582.161C230.512 580.338 231.163 578.775 232.464 577.472C233.818 576.117 235.432 575.44 237.307 575.439ZM243.098 595.983L243.117 635.436L233.195 635.441L233.18 604.425L226.852 604.428L226.848 595.991L243.098 595.983Z" fill="white"/>
<path d="M283.402 598.847C287.206 599.469 290.335 600.826 292.79 602.916C295.297 605.015 297.03 607.647 297.989 610.813C299.009 613.935 299.207 617.398 298.585 621.202L297.903 625.365L269.685 620.747C269.77 623.452 270.71 625.77 272.505 627.7C274.301 629.63 276.689 630.838 279.67 631.326C282.497 631.789 285.159 631.644 287.657 630.892C290.156 630.14 292.195 629.286 293.776 628.331L292.21 637.416C290.8 638.294 288.769 639.096 286.117 639.823C283.524 640.507 280.763 640.609 277.833 640.13C273.978 639.499 270.601 638.049 267.7 635.78C264.85 633.519 262.723 630.717 261.318 627.373C259.963 624.037 259.606 620.417 260.245 616.51C260.868 612.707 262.284 609.376 264.493 606.518C266.702 603.66 269.453 601.525 272.746 600.111C276.047 598.645 279.599 598.224 283.402 598.847ZM281.77 607.367C279.355 606.971 277.202 607.384 275.314 608.606C273.425 609.827 271.966 611.647 270.937 614.064L289.595 617.118C289.844 614.309 289.152 612.084 287.521 610.445C285.897 608.755 283.981 607.728 281.77 607.367Z" fill="white"/>
<path d="M165.158 415.925L166.227 419.925L161.284 421.247L165.31 436.304L160.518 437.586L156.491 422.529L153.586 423.306L152.516 419.306L155.422 418.529L154.967 416.831C154.577 415.372 154.546 414.046 154.874 412.853C155.22 411.628 155.823 410.604 156.681 409.782C157.539 408.959 158.572 408.386 159.78 408.063C160.585 407.848 161.313 407.748 161.964 407.762C162.615 407.777 163.207 407.875 163.74 408.056L164.81 412.056C163.845 411.774 162.825 411.791 161.75 412.106C161.002 412.333 160.428 412.756 160.028 413.375C159.62 413.969 159.558 414.794 159.841 415.851L160.214 417.247L165.158 415.925Z" fill="white"/>
<path d="M184.55 411.354C186.447 411.014 188.26 411.165 189.989 411.807C191.713 412.424 193.19 413.429 194.419 414.823C195.669 416.186 196.466 417.829 196.811 419.752C197.155 421.674 196.979 423.492 196.28 425.204C195.608 426.912 194.572 428.368 193.174 429.571C191.772 430.748 190.122 431.507 188.225 431.847C186.354 432.183 184.543 432.045 182.793 431.432C181.064 430.79 179.587 429.785 178.363 428.417C177.139 427.049 176.354 425.404 176.01 423.481C175.665 421.559 175.829 419.744 176.502 418.036C177.17 416.302 178.205 414.846 179.608 413.669C181.031 412.461 182.679 411.69 184.55 411.354ZM185.398 416.083C184.475 416.249 183.656 416.621 182.939 417.199C182.223 417.777 181.695 418.52 181.355 419.428C181.04 420.331 180.989 421.372 181.2 422.551C181.412 423.73 181.822 424.688 182.43 425.426C183.064 426.159 183.818 426.672 184.691 426.965C185.559 427.233 186.454 427.284 187.377 427.118C188.3 426.953 189.122 426.594 189.843 426.041C190.559 425.463 191.087 424.72 191.427 423.812C191.767 422.905 191.832 421.861 191.62 420.682C191.409 419.503 190.986 418.547 190.352 417.814C189.718 417.081 188.964 416.568 188.091 416.275C187.219 415.982 186.321 415.918 185.398 416.083Z" fill="white"/>
<path d="M219.413 413.024C218.54 412.633 217.65 412.48 216.742 412.564C215.601 412.669 214.689 413.132 214.007 413.954C213.321 414.749 212.744 415.717 212.274 416.859L213.285 427.828L208.345 428.284L206.534 408.64L211.474 408.185L211.815 411.88C212.382 410.651 213.083 409.606 213.919 408.744C214.781 407.88 215.795 407.395 216.962 407.287C217.662 407.222 218.308 407.281 218.9 407.461L219.413 413.024Z" fill="white"/>
<path d="M236.65 401.081L236.753 406.822L242.221 406.724L242.295 410.864L236.827 410.962L236.979 419.476C236.995 420.361 237.203 421.061 237.603 421.575C238.028 422.062 238.645 422.298 239.452 422.284C240.155 422.271 240.752 422.182 241.244 422.017C241.762 421.852 242.24 421.622 242.678 421.328L242.748 425.272C242.262 425.776 241.645 426.204 240.896 426.556C240.173 426.907 239.251 427.093 238.132 427.113C236.361 427.145 234.906 426.611 233.767 425.511C232.652 424.385 232.078 422.833 232.042 420.854L231.867 411.051L228.313 411.114L228.267 408.576C229.509 408.111 230.64 407.257 231.66 406.014C232.705 404.772 233.523 403.142 234.112 401.126L236.65 401.081Z" fill="white"/>
<path d="M271.301 408.095L270.507 419.826C270.389 421.566 269.897 423.047 269.031 424.267C268.167 425.462 267.037 426.351 265.64 426.935C264.269 427.521 262.739 427.756 261.05 427.642C259.336 427.526 257.826 427.084 256.52 426.317C255.241 425.552 254.254 424.519 253.559 423.219C252.892 421.895 252.617 420.363 252.735 418.622L253.529 406.891L258.518 407.229L257.823 418.066C257.719 419.599 257.993 420.766 258.643 421.567C259.294 422.368 260.203 422.808 261.373 422.887C262.516 422.965 263.464 422.65 264.216 421.944C264.995 421.24 265.436 420.122 265.54 418.589L266.274 407.754L271.301 408.095Z" fill="white"/>
<path d="M289.16 410.379L288.704 413.154C289.426 412.454 290.345 411.84 291.461 411.311C292.603 410.787 293.83 410.632 295.14 410.848C297.119 411.173 298.666 412.114 299.783 413.67C300.899 415.226 301.237 417.34 300.798 420.012L298.832 431.961L293.937 431.156L295.756 419.856C295.972 418.546 295.811 417.516 295.275 416.768C294.764 416.024 293.956 415.562 292.851 415.38C291.977 415.236 291.108 415.384 290.244 415.822C289.406 416.265 288.654 416.827 287.987 417.509L285.959 429.844L281.063 429.038L284.265 409.573L289.16 410.379Z" fill="white"/>
<path d="M322.672 416.817C324.535 417.306 326.029 418.129 327.152 419.285C328.301 420.449 329.039 421.841 329.368 423.462C329.728 425.064 329.663 426.797 329.174 428.661L328.638 430.701L314.81 427.07C314.724 428.421 315.083 429.619 315.885 430.664C316.688 431.71 317.819 432.424 319.28 432.808C320.666 433.171 321.998 433.225 323.277 432.969C324.556 432.712 325.611 432.383 326.444 431.983L325.235 436.431C324.492 436.801 323.443 437.105 322.088 437.341C320.766 437.559 319.386 437.48 317.951 437.103C316.062 436.607 314.449 435.726 313.112 434.459C311.8 433.199 310.874 431.704 310.332 429.973C309.815 428.249 309.808 426.43 310.311 424.516C310.8 422.652 311.662 421.061 312.897 419.743C314.132 418.424 315.602 417.491 317.307 416.943C319.02 416.369 320.808 416.327 322.672 416.817ZM321.457 420.981C320.273 420.67 319.182 420.774 318.185 421.292C317.187 421.811 316.375 422.648 315.748 423.803L324.892 426.204C325.148 424.817 324.909 423.677 324.174 422.784C323.446 421.866 322.54 421.265 321.457 420.981Z" fill="white"/>
</svg>
