<svg width="474" height="1316" viewBox="0 0 474 1316" fill="none" xmlns="http://www.w3.org/2000/svg">
<mask id="path-1-inside-1_165_557" fill="white">
<path fill-rule="evenodd" clip-rule="evenodd" d="M0 580.953L79.1091 630.396V630.953H394.899V630.392L474 580.953L394.899 531.515V530.953H394H80H79.1091V531.51L0 580.953Z"/>
</mask>
<path fill-rule="evenodd" clip-rule="evenodd" d="M0 580.953L79.1091 630.396V630.953H394.899V630.392L474 580.953L394.899 531.515V530.953H394H80H79.1091V531.51L0 580.953Z" fill="#4C0406"/>
<path d="M79.1091 630.396H94.1091V622.083L87.0591 617.676L79.1091 630.396ZM0 580.953L-7.94997 568.233L-28.302 580.953L-7.94997 593.673L0 580.953ZM79.1091 630.953H64.1091V645.953H79.1091V630.953ZM394.899 630.953V645.953H409.899V630.953H394.899ZM394.899 630.392L386.949 617.672L379.899 622.078V630.392H394.899ZM474 580.953L481.95 593.673L502.302 580.953L481.95 568.233L474 580.953ZM394.899 531.515H379.899V539.829L386.949 544.235L394.899 531.515ZM394.899 530.953H409.899V515.953H394.899V530.953ZM79.1091 530.953V515.953H64.1091V530.953H79.1091ZM79.1091 531.51L87.0591 544.23L94.1091 539.824V531.51H79.1091ZM87.0591 617.676L7.94997 568.233L-7.94997 593.673L71.1591 643.116L87.0591 617.676ZM94.1091 630.953V630.396H64.1091V630.953H94.1091ZM394.899 615.953H79.1091V645.953H394.899V615.953ZM379.899 630.392V630.953H409.899V630.392H379.899ZM402.849 643.112L481.95 593.673L466.05 568.233L386.949 617.672L402.849 643.112ZM481.95 568.233L402.849 518.795L386.949 544.235L466.05 593.673L481.95 568.233ZM379.899 530.953V531.515H409.899V530.953H379.899ZM394 545.953H394.899V515.953H394V545.953ZM80 545.953H394V515.953H80V545.953ZM79.1091 545.953H80V515.953H79.1091V545.953ZM94.1091 531.51V530.953H64.1091V531.51H94.1091ZM7.94997 593.673L87.0591 544.23L71.1591 518.79L-7.94997 568.233L7.94997 593.673Z" fill="#B82025" mask="url(#path-1-inside-1_165_557)"/>
<path d="M48.574 284.977C47.3331 276.228 53.4196 268.13 62.1686 266.889V266.889C70.9176 265.648 79.016 271.735 80.2569 280.484L151.175 780.479L119.492 784.973L48.574 284.977Z" fill="#D83A40"/>
<path d="M104.96 312.752C103.878 303.982 110.109 295.995 118.879 294.913V294.913C127.65 293.83 135.637 300.062 136.719 308.832L198.581 810.029L166.822 813.949L104.96 312.752Z" fill="#D83A40"/>
<path d="M158.794 276.522C158.356 267.696 165.155 260.186 173.98 259.747V259.747C182.806 259.308 190.316 266.107 190.755 274.933L215.826 779.31L183.865 780.899L158.794 276.522Z" fill="#D83A40"/>
<path d="M209.554 17.3258C209.184 8.497 216.041 1.03991 224.87 0.669921V0.669921C233.699 0.299933 241.156 7.15716 241.526 15.986L262.67 520.543L230.698 521.883L209.554 17.3258Z" fill="#D83A40"/>
<path d="M277.097 280.947C277.344 272.114 284.705 265.153 293.538 265.4V265.4C302.371 265.646 309.332 273.007 309.085 281.84L294.988 786.643L263 785.75L277.097 280.947Z" fill="#D83A40"/>
<path d="M336.195 326.784C337.475 318.041 345.601 311.991 354.345 313.272V313.272C363.088 314.553 369.137 322.679 367.857 331.422L294.662 831.09L263 826.452L336.195 326.784Z" fill="#D83A40"/>
<path d="M385.468 294.882C386.298 286.085 394.103 279.626 402.901 280.457V280.457C411.698 281.288 418.157 289.093 417.326 297.89L369.858 800.654L338 797.646L385.468 294.882Z" fill="#D83A40"/>
<mask id="path-10-inside-2_165_557" fill="white">
<path d="M79 615.953H395V1315.95H79V615.953Z"/>
</mask>
<path d="M79 615.953H395V1315.95H79V615.953Z" fill="#D83A40"/>
<path d="M79 615.953V600.953H64V615.953H79ZM395 615.953H410V600.953H395V615.953ZM79 630.953H395V600.953H79V630.953ZM380 615.953V1315.95H410V615.953H380ZM94 1315.95V615.953H64V1315.95H94Z" fill="#B82025" mask="url(#path-10-inside-2_165_557)"/>
<path d="M71.5 634.455V1308.45H7.5V594.48L71.5 634.455Z" fill="#A81319" stroke="#A81319" stroke-width="15"/>
<path d="M402.5 634.455V1308.45H466.5V594.48L402.5 634.455Z" fill="#A81319" stroke="#A81319" stroke-width="15"/>
<path d="M130.296 768.986C133.845 768.249 137.191 768.065 140.333 768.434C143.475 768.802 146.19 769.419 148.478 770.285L151.109 782.856C148.624 781.968 146.006 781.203 143.254 780.562C140.501 779.92 137.534 779.93 134.352 780.591C132.761 780.921 131.221 781.497 129.733 782.316C128.305 783.123 127.174 784.124 126.338 785.319C125.564 786.501 125.337 787.857 125.657 789.387C126.079 791.405 127.286 792.75 129.279 793.422C131.271 794.093 133.661 794.682 136.449 795.188L144.628 796.745C149.296 797.691 152.915 799.269 155.485 801.481C158.054 803.692 159.691 806.48 160.395 809.844C161.163 813.515 160.771 816.979 159.218 820.238C157.713 823.423 155.353 826.18 152.136 828.507C148.981 830.822 145.262 832.424 140.978 833.314C137.367 834.064 133.782 834.17 130.221 833.633C126.661 833.095 123.471 832.194 120.652 830.928L118.022 818.357C121.124 819.755 124.437 820.79 127.962 821.463C131.487 822.135 135.086 822.09 138.757 821.327C141.327 820.794 143.428 819.847 145.059 818.487C146.677 817.066 147.275 815.346 146.853 813.327C146.52 811.736 145.486 810.61 143.752 809.949C142.065 809.214 140.264 808.695 138.349 808.39L128.126 806.683C122.969 805.839 119.227 804.127 116.899 801.546C114.619 798.892 113.102 795.76 112.347 792.15C111.566 788.419 111.897 784.967 113.341 781.795C114.833 778.548 117.071 775.818 120.055 773.602C123.027 771.325 126.44 769.787 130.296 768.986Z" fill="white"/>
<path d="M182.246 752.89C184.483 752.653 186.496 753.257 188.285 754.701C190.067 756.084 191.074 757.863 191.306 760.038C191.531 762.151 190.922 764.101 189.479 765.888C188.035 767.675 186.195 768.687 183.957 768.924C181.72 769.161 179.707 768.557 177.918 767.112C176.192 765.661 175.216 763.879 174.991 761.766C174.759 759.591 175.337 757.644 176.725 755.926C178.168 754.139 180.009 753.127 182.246 752.89ZM191.762 776.676L196.786 823.752L184.946 825.007L180.996 787.998L173.445 788.798L172.37 778.73L191.762 776.676Z" fill="white"/>
<path d="M234.902 773.446C237.465 773.451 240.057 774.05 242.679 775.243C245.302 776.436 247.486 778.035 249.232 780.039L249.243 774.695L261.149 774.72L261.049 822.064L249.142 822.038L249.159 814.07C247.779 816.629 245.774 818.844 243.145 820.713C240.516 822.52 237.452 823.42 233.952 823.413C230.14 823.405 226.61 822.428 223.364 820.484C220.181 818.54 217.625 815.722 215.695 812.03C213.765 808.339 212.806 803.868 212.817 798.618C212.828 793.368 213.807 788.87 215.752 785.124C217.76 781.378 220.423 778.509 223.739 776.516C227.119 774.461 230.84 773.437 234.902 773.446ZM237.315 785.076C234.815 785.071 232.657 785.722 230.842 787.031C229.089 788.277 227.711 789.931 226.706 791.991C225.702 794.051 225.197 796.269 225.192 798.644C225.185 802.207 226.241 805.24 228.36 807.745C230.543 810.249 233.415 811.505 236.977 811.513C239.102 811.517 241.072 810.959 242.887 809.838C244.765 808.717 246.268 807.157 247.397 805.16C248.589 803.1 249.188 800.632 249.194 797.757L249.208 791.007C247.525 789.191 245.684 787.75 243.686 786.683C241.751 785.617 239.627 785.081 237.315 785.076Z" fill="white"/>
<path d="M299.678 777.81L298.668 783.724C300.391 782.178 302.364 780.832 304.588 779.688C306.874 778.553 309.589 778.253 312.731 778.785C315.997 779.338 318.824 780.609 321.21 782.599C323.608 784.526 325.288 787.124 326.252 790.394C328.532 788.181 331.051 786.421 333.811 785.113C336.581 783.744 339.598 783.336 342.864 783.89C346.007 784.422 348.746 785.647 351.082 787.564C353.428 789.419 355.13 791.894 356.187 794.989C357.305 798.095 357.502 801.773 356.776 806.024L351.886 834.672L340.147 832.684L344.676 805.591C345.213 802.449 344.78 799.967 343.38 798.145C342.04 796.333 340.046 795.203 337.396 794.754C335.362 794.409 333.496 794.759 331.796 795.802C330.107 796.784 328.468 798.027 326.879 799.533L321.753 829.568L310.014 827.579L314.543 800.486C315.08 797.344 314.647 794.862 313.246 793.04C311.907 791.228 309.943 790.103 307.355 789.665C305.383 789.331 303.522 789.649 301.771 790.621C300.031 791.53 298.408 792.682 296.902 794.075L291.712 824.479L279.973 822.49L287.939 775.821L299.678 777.81Z" fill="white"/>
<path d="M188.323 860.476C191.304 859.987 194.095 859.951 196.697 860.368C199.299 860.786 201.537 861.395 203.41 862.196L205.144 872.757C203.108 871.93 200.956 871.202 198.689 870.571C196.421 869.94 193.951 869.844 191.278 870.283C189.942 870.503 188.64 870.927 187.371 871.558C186.153 872.18 185.175 872.974 184.437 873.94C183.749 874.897 183.511 876.018 183.722 877.303C184 878.999 184.957 880.162 186.59 880.791C188.224 881.42 190.192 881.994 192.494 882.513L199.246 884.097C203.097 885.048 206.052 886.49 208.111 888.421C210.17 890.353 211.431 892.732 211.895 895.559C212.401 898.642 211.949 901.514 210.538 904.174C209.17 906.773 207.106 908.986 204.344 910.811C201.634 912.629 198.48 913.832 194.882 914.423C191.85 914.921 188.862 914.883 185.918 914.311C182.973 913.739 180.351 912.876 178.051 911.723L176.317 901.161C178.848 902.435 181.569 903.413 184.478 904.097C187.388 904.78 190.385 904.869 193.468 904.363C195.627 904.009 197.41 903.294 198.817 902.218C200.215 901.091 200.775 899.68 200.497 897.984C200.277 896.648 199.458 895.674 198.038 895.062C196.661 894.391 195.181 893.895 193.598 893.574L185.151 891.794C180.889 890.91 177.836 889.353 175.992 887.122C174.191 884.832 173.041 882.17 172.544 879.138C172.029 876.003 172.43 873.14 173.746 870.548C175.106 867.897 177.067 865.702 179.632 863.961C182.188 862.169 185.085 861.008 188.323 860.476Z" fill="white"/>
<path d="M235.589 850.003C237.464 849.996 239.081 850.667 240.44 852.015C241.8 853.312 242.483 854.872 242.49 856.695C242.497 858.466 241.826 860.031 240.478 861.39C239.129 862.75 237.517 863.433 235.642 863.441C233.767 863.448 232.15 862.778 230.79 861.429C229.483 860.08 228.826 858.52 228.819 856.749C228.811 854.926 229.456 853.361 230.753 852.054C232.102 850.694 233.714 850.011 235.589 850.003ZM241.451 870.527L241.608 909.98L231.686 910.019L231.563 879.004L225.235 879.029L225.202 870.592L241.451 870.527Z" fill="white"/>
<path d="M281.765 873.25C285.57 873.86 288.704 875.205 291.167 877.287C293.68 879.378 295.423 882.004 296.393 885.166C297.424 888.284 297.634 891.747 297.025 895.552L296.358 899.718L268.124 895.198C268.219 897.903 269.167 900.218 270.969 902.141C272.771 904.065 275.163 905.266 278.146 905.743C280.974 906.196 283.636 906.042 286.132 905.281C288.627 904.52 290.664 903.659 292.242 902.698L290.707 911.789C289.3 912.671 287.272 913.481 284.622 914.217C282.032 914.91 279.271 915.022 276.34 914.553C272.483 913.935 269.1 912.497 266.191 910.238C263.334 907.987 261.197 905.193 259.78 901.854C258.414 898.523 258.044 894.903 258.67 890.995C259.279 887.189 260.683 883.853 262.882 880.988C265.082 878.123 267.825 875.977 271.113 874.552C274.408 873.075 277.959 872.641 281.765 873.25ZM280.163 881.776C277.745 881.389 275.595 881.81 273.71 883.038C271.826 884.266 270.373 886.09 269.353 888.512L288.021 891.5C288.26 888.69 287.561 886.468 285.924 884.835C284.294 883.15 282.374 882.13 280.163 881.776Z" fill="white"/>
<path d="M162.883 690.743L163.966 694.739L159.028 696.078L163.107 711.121L158.319 712.419L154.239 697.377L151.337 698.164L150.253 694.167L153.156 693.38L152.696 691.684C152.3 690.226 152.265 688.9 152.588 687.706C152.931 686.48 153.529 685.454 154.385 684.629C155.24 683.803 156.271 683.227 157.477 682.9C158.282 682.681 159.009 682.579 159.66 682.591C160.311 682.603 160.904 682.699 161.438 682.878L162.522 686.874C161.556 686.596 160.536 686.617 159.462 686.935C158.715 687.164 158.142 687.59 157.744 688.21C157.339 688.806 157.279 689.631 157.566 690.687L157.944 692.082L162.883 690.743Z" fill="white"/>
<path d="M182.259 686.104C184.154 685.757 185.968 685.902 187.699 686.538C189.426 687.149 190.906 688.149 192.14 689.538C193.394 690.897 194.197 692.537 194.549 694.458C194.9 696.38 194.73 698.198 194.037 699.913C193.371 701.623 192.34 703.082 190.947 704.291C189.548 705.473 187.901 706.238 186.005 706.584C184.135 706.926 182.324 706.794 180.572 706.188C178.84 705.552 177.36 704.552 176.131 703.188C174.902 701.825 174.112 700.182 173.761 698.261C173.409 696.34 173.567 694.524 174.234 692.814C174.896 691.078 175.926 689.618 177.324 688.436C178.744 687.223 180.389 686.446 182.259 686.104ZM183.123 690.83C182.201 690.999 181.383 691.373 180.668 691.954C179.954 692.535 179.428 693.28 179.092 694.188C178.78 695.093 178.733 696.134 178.948 697.312C179.164 698.49 179.577 699.447 180.188 700.183C180.825 700.913 181.58 701.424 182.454 701.714C183.323 701.979 184.218 702.027 185.141 701.858C186.063 701.689 186.883 701.327 187.603 700.772C188.317 700.192 188.843 699.447 189.179 698.538C189.516 697.629 189.577 696.586 189.361 695.407C189.146 694.229 188.72 693.274 188.083 692.544C187.446 691.813 186.691 691.303 185.817 691.012C184.944 690.722 184.046 690.661 183.123 690.83Z" fill="white"/>
<path d="M217.127 687.652C216.253 687.265 215.362 687.114 214.455 687.201C213.314 687.31 212.404 687.777 211.724 688.601C211.042 689.398 210.468 690.369 210.002 691.512L211.051 702.478L206.112 702.95L204.234 683.313L209.172 682.841L209.525 686.535C210.088 685.304 210.785 684.256 211.618 683.392C212.477 682.525 213.49 682.035 214.656 681.924C215.356 681.857 216.003 681.913 216.595 682.091L217.127 687.652Z" fill="white"/>
<path d="M234.322 675.649L234.445 681.389L239.912 681.272L240.001 685.412L234.534 685.529L234.716 694.043C234.735 694.928 234.945 695.627 235.346 696.139C235.774 696.625 236.391 696.859 237.198 696.842C237.901 696.827 238.498 696.736 238.989 696.569C239.507 696.402 239.984 696.17 240.42 695.874L240.504 699.819C240.02 700.324 239.404 700.754 238.657 701.109C237.935 701.463 237.014 701.652 235.895 701.676C234.124 701.713 232.667 701.185 231.524 700.089C230.406 698.967 229.826 697.416 229.783 695.438L229.574 685.635L226.02 685.711L225.966 683.173C227.206 682.703 228.334 681.846 229.349 680.6C230.39 679.353 231.202 677.721 231.784 675.703L234.322 675.649Z" fill="white"/>
<path d="M268.998 682.542L268.244 694.275C268.132 696.017 267.645 697.499 266.784 698.722C265.924 699.92 264.797 700.813 263.402 701.402C262.033 701.992 260.504 702.233 258.815 702.125C257.1 702.015 255.588 701.578 254.28 700.816C252.998 700.055 252.007 699.026 251.308 697.728C250.636 696.406 250.356 694.875 250.468 693.134L251.222 681.4L256.211 681.721L255.554 692.56C255.456 694.093 255.733 695.259 256.386 696.058C257.04 696.857 257.951 697.294 259.121 697.369C260.264 697.442 261.211 697.125 261.961 696.416C262.737 695.709 263.174 694.589 263.273 693.056L263.969 682.219L268.998 682.542Z" fill="white"/>
<path d="M286.865 684.763L286.419 687.54C287.138 686.838 288.055 686.221 289.17 685.688C290.31 685.159 291.536 685 292.847 685.211C294.827 685.53 296.377 686.465 297.499 688.017C298.621 689.569 298.967 691.682 298.537 694.356L296.613 706.312L291.715 705.524L293.495 694.218C293.706 692.906 293.541 691.878 293.002 691.131C292.488 690.389 291.679 689.929 290.573 689.752C289.699 689.611 288.831 689.761 287.968 690.203C287.132 690.649 286.381 691.214 285.717 691.898L283.732 704.239L278.834 703.451L281.968 683.975L286.865 684.763Z" fill="white"/>
<path d="M320.398 691.084C322.264 691.567 323.76 692.385 324.888 693.537C326.04 694.697 326.783 696.086 327.117 697.706C327.483 699.307 327.424 701.04 326.941 702.906L326.413 704.948L312.572 701.365C312.491 702.716 312.854 703.913 313.66 704.955C314.466 705.998 315.601 706.709 317.063 707.087C318.449 707.446 319.782 707.495 321.06 707.234C322.338 706.973 323.392 706.641 324.223 706.237L323.03 710.689C322.288 711.062 321.24 711.369 319.886 711.611C318.564 711.834 317.185 711.759 315.748 711.387C313.857 710.897 312.241 710.022 310.9 708.76C309.584 707.505 308.652 706.013 308.104 704.284C307.582 702.562 307.568 700.742 308.064 698.826C308.547 696.961 309.404 695.367 310.634 694.044C311.864 692.722 313.331 691.783 315.034 691.229C316.745 690.649 318.533 690.601 320.398 691.084ZM319.198 695.252C318.013 694.946 316.923 695.053 315.927 695.576C314.931 696.098 314.122 696.938 313.499 698.095L322.651 700.463C322.902 699.076 322.659 697.937 321.921 697.047C321.19 696.131 320.282 695.533 319.198 695.252Z" fill="white"/>
</svg>
