<svg width="474" height="1041" viewBox="0 0 474 1041" fill="none" xmlns="http://www.w3.org/2000/svg">
<mask id="path-1-inside-1_157_335" fill="white">
<path fill-rule="evenodd" clip-rule="evenodd" d="M0 306L79.1091 355.443V356H394.899V355.438L474 306L394.899 256.562V256H394H80H79.1091V256.557L0 306Z"/>
</mask>
<path fill-rule="evenodd" clip-rule="evenodd" d="M0 306L79.1091 355.443V356H394.899V355.438L474 306L394.899 256.562V256H394H80H79.1091V256.557L0 306Z" fill="#4C0406"/>
<path d="M79.1091 355.443H94.1091V347.13L87.0591 342.723L79.1091 355.443ZM0 306L-7.94997 293.28L-28.302 306L-7.94997 318.72L0 306ZM79.1091 356H64.1091V371H79.1091V356ZM394.899 356V371H409.899V356H394.899ZM394.899 355.438L386.949 342.718L379.899 347.125V355.438H394.899ZM474 306L481.95 318.72L502.302 306L481.95 293.28L474 306ZM394.899 256.562H379.899V264.876L386.949 269.282L394.899 256.562ZM394.899 256H409.899V241H394.899V256ZM79.1091 256V241H64.1091V256H79.1091ZM79.1091 256.557L87.0591 269.277L94.1091 264.871V256.557H79.1091ZM87.0591 342.723L7.94997 293.28L-7.94997 318.72L71.1591 368.163L87.0591 342.723ZM94.1091 356V355.443H64.1091V356H94.1091ZM394.899 341H79.1091V371H394.899V341ZM379.899 355.438V356H409.899V355.438H379.899ZM402.849 368.158L481.95 318.72L466.05 293.28L386.949 342.718L402.849 368.158ZM481.95 293.28L402.849 243.842L386.949 269.282L466.05 318.72L481.95 293.28ZM379.899 256V256.562H409.899V256H379.899ZM394 271H394.899V241H394V271ZM80 271H394V241H80V271ZM79.1091 271H80V241H79.1091V271ZM94.1091 256.557V256H64.1091V256.557H94.1091ZM7.94997 318.72L87.0591 269.277L71.1591 243.837L-7.94997 293.28L7.94997 318.72Z" fill="#B82025" mask="url(#path-1-inside-1_157_335)"/>
<path d="M48.574 26.0245C47.3331 17.2756 53.4196 9.17714 62.1686 7.93621C70.9176 6.69528 79.016 12.7818 80.2569 21.5308L151.175 521.526L119.492 526.02L48.574 26.0245Z" fill="#D83A40"/>
<path d="M104.96 53.7994C103.878 45.0294 110.109 37.0424 118.879 35.9599C127.65 34.8775 135.637 41.1094 136.719 49.8794L198.581 551.076L166.822 554.996L104.96 53.7994Z" fill="#D83A40"/>
<path d="M158.794 17.5689C158.356 8.74323 165.155 1.23299 173.98 0.794296C182.806 0.355601 190.316 7.15458 190.755 15.9802L215.826 520.358L183.865 521.946L158.794 17.5689Z" fill="#D83A40"/>
<path d="M209.554 37.3728C209.184 28.544 216.041 21.0869 224.87 20.7169C233.699 20.3469 241.156 27.2042 241.526 36.033L262.67 540.59L230.698 541.93L209.554 37.3728Z" fill="#D83A40"/>
<path d="M277.097 21.994C277.344 13.1609 284.705 6.20021 293.538 6.44689C302.371 6.69356 309.332 14.0542 309.085 22.8873L294.988 527.691L263 526.797L277.097 21.994Z" fill="#D83A40"/>
<path d="M336.195 67.8313C337.475 59.088 345.601 53.0385 354.345 54.3193C363.088 55.6001 369.137 63.7261 367.857 72.4694L294.662 572.137L263 567.499L336.195 67.8313Z" fill="#D83A40"/>
<path d="M385.468 35.9294C386.298 27.132 394.103 20.6736 402.901 21.5042C411.698 22.3348 418.157 30.1398 417.326 38.9373L369.858 541.701L338 538.694L385.468 35.9294Z" fill="#D83A40"/>
<mask id="path-10-inside-2_157_335" fill="white">
<path d="M79 341H395V1041H79V341Z"/>
</mask>
<path d="M79 341H395V1041H79V341Z" fill="#D83A40"/>
<path d="M79 341V326H64V341H79ZM395 341H410V326H395V341ZM79 356H395V326H79V356ZM380 341V1041H410V341H380ZM94 1041V341H64V1041H94Z" fill="#B82025" mask="url(#path-10-inside-2_157_335)"/>
<path d="M71.5 359.502V1033.5H7.5V319.528L71.5 359.502Z" fill="#A81319" stroke="#A81319" stroke-width="15"/>
<path d="M402.5 359.502V1033.5H466.5V319.528L402.5 359.502Z" fill="#A81319" stroke="#A81319" stroke-width="15"/>
<path d="M130.296 494.033C133.845 493.296 137.191 493.112 140.333 493.48C143.475 493.849 146.19 494.466 148.478 495.332L151.109 507.903C148.624 507.015 146.006 506.25 143.254 505.609C140.501 504.967 137.534 504.977 134.352 505.638C132.761 505.968 131.221 506.543 129.733 507.363C128.305 508.17 127.174 509.171 126.338 510.366C125.564 511.548 125.337 512.904 125.657 514.433C126.079 516.452 127.286 517.797 129.279 518.469C131.271 519.14 133.661 519.729 136.449 520.235L144.628 521.792C149.296 522.738 152.915 524.316 155.485 526.527C158.054 528.739 159.691 531.526 160.395 534.891C161.163 538.562 160.771 542.026 159.218 545.285C157.713 548.47 155.353 551.226 152.136 553.554C148.981 555.869 145.262 557.471 140.978 558.361C137.367 559.11 133.782 559.217 130.221 558.679C126.661 558.142 123.471 557.241 120.652 555.975L118.022 543.403C121.124 544.802 124.437 545.837 127.962 546.51C131.487 547.182 135.086 547.137 138.757 546.374C141.327 545.841 143.428 544.894 145.059 543.534C146.677 542.112 147.275 540.392 146.853 538.374C146.52 536.783 145.486 535.657 143.752 534.996C142.065 534.261 140.264 533.742 138.349 533.437L128.126 531.73C122.969 530.886 119.227 529.174 116.899 526.593C114.619 523.939 113.102 520.807 112.347 517.197C111.566 513.466 111.897 510.014 113.341 506.841C114.833 503.595 117.071 500.864 120.055 498.649C123.027 496.372 126.44 494.833 130.296 494.033Z" fill="white"/>
<path d="M182.246 477.937C184.483 477.7 186.496 478.303 188.285 479.748C190.067 481.131 191.074 482.909 191.306 485.084C191.531 487.197 190.922 489.147 189.479 490.934C188.035 492.721 186.195 493.733 183.957 493.971C181.72 494.208 179.707 493.604 177.918 492.159C176.192 490.708 175.216 488.926 174.991 486.813C174.759 484.638 175.337 482.691 176.725 480.973C178.168 479.186 180.009 478.174 182.246 477.937ZM191.762 501.723L196.786 548.799L184.946 550.053L180.996 513.045L173.445 513.845L172.37 503.777L191.762 501.723Z" fill="white"/>
<path d="M234.902 498.493C237.465 498.498 240.057 499.097 242.679 500.29C245.302 501.483 247.486 503.082 249.232 505.085L249.243 499.742L261.149 499.767L261.049 547.11L249.142 547.085L249.159 539.117C247.779 541.676 245.774 543.891 243.145 545.76C240.516 547.567 237.452 548.467 233.952 548.46C230.14 548.451 226.61 547.475 223.364 545.531C220.181 543.587 217.625 540.769 215.695 537.077C213.765 533.386 212.806 528.915 212.817 523.665C212.828 518.415 213.807 513.917 215.752 510.171C217.76 506.425 220.423 503.556 223.739 501.563C227.119 499.507 230.84 498.484 234.902 498.493ZM237.315 510.123C234.815 510.118 232.657 510.769 230.842 512.078C229.089 513.324 227.711 514.978 226.706 517.038C225.702 519.098 225.197 521.316 225.192 523.691C225.185 527.253 226.241 530.287 228.36 532.791C230.543 535.296 233.415 536.552 236.977 536.56C239.102 536.564 241.072 536.006 242.887 534.885C244.765 533.764 246.268 532.204 247.397 530.207C248.589 528.147 249.188 525.679 249.194 522.804L249.208 516.054C247.525 514.238 245.684 512.797 243.686 511.73C241.751 510.663 239.627 510.128 237.315 510.123Z" fill="white"/>
<path d="M299.678 502.857L298.668 508.771C300.391 507.225 302.364 505.879 304.588 504.735C306.874 503.6 309.589 503.3 312.731 503.832C315.997 504.385 318.824 505.656 321.21 507.646C323.608 509.573 325.288 512.171 326.252 515.441C328.532 513.228 331.051 511.468 333.811 510.16C336.581 508.791 339.598 508.383 342.864 508.937C346.007 509.469 348.746 510.694 351.082 512.611C353.428 514.466 355.13 516.941 356.187 520.036C357.305 523.142 357.502 526.82 356.776 531.071L351.886 559.719L340.147 557.731L344.676 530.638C345.213 527.496 344.78 525.014 343.38 523.192C342.04 521.38 340.046 520.25 337.396 519.801C335.362 519.456 333.496 519.806 331.796 520.849C330.107 521.831 328.468 523.074 326.879 524.58L321.753 554.615L310.014 552.626L314.543 525.533C315.08 522.391 314.647 519.909 313.246 518.087C311.907 516.275 309.943 515.15 307.355 514.712C305.383 514.378 303.522 514.696 301.771 515.668C300.031 516.577 298.408 517.729 296.902 519.122L291.712 549.526L279.973 547.537L287.939 500.868L299.678 502.857Z" fill="white"/>
<path d="M188.323 585.523C191.304 585.034 194.095 584.998 196.697 585.415C199.299 585.832 201.537 586.442 203.41 587.243L205.144 597.804C203.108 596.977 200.956 596.249 198.689 595.618C196.421 594.987 193.951 594.891 191.278 595.33C189.942 595.549 188.64 595.974 187.371 596.605C186.153 597.227 185.175 598.021 184.437 598.987C183.749 599.944 183.511 601.065 183.722 602.35C184 604.046 184.957 605.208 186.59 605.838C188.224 606.467 190.192 607.041 192.494 607.56L199.246 609.144C203.097 610.095 206.052 611.536 208.111 613.468C210.17 615.4 211.431 617.779 211.895 620.606C212.401 623.689 211.949 626.561 210.538 629.22C209.17 631.82 207.106 634.033 204.344 635.858C201.634 637.675 198.48 638.879 194.882 639.47C191.85 639.968 188.862 639.93 185.918 639.358C182.973 638.786 180.351 637.923 178.051 636.77L176.317 626.208C178.848 627.482 181.569 628.46 184.478 629.144C187.388 629.827 190.385 629.916 193.468 629.41C195.627 629.055 197.41 628.341 198.817 627.265C200.215 626.138 200.775 624.727 200.497 623.031C200.277 621.695 199.458 620.721 198.038 620.109C196.661 619.438 195.181 618.942 193.598 618.621L185.151 616.841C180.889 615.957 177.836 614.4 175.992 612.169C174.191 609.879 173.041 607.217 172.544 604.185C172.029 601.05 172.43 598.187 173.746 595.595C175.106 592.944 177.067 590.749 179.632 589.008C182.188 587.216 185.085 586.055 188.323 585.523Z" fill="white"/>
<path d="M235.589 575.05C237.464 575.043 239.081 575.713 240.44 577.062C241.8 578.359 242.483 579.919 242.49 581.742C242.497 583.512 241.826 585.078 240.478 586.437C239.129 587.797 237.517 588.48 235.642 588.488C233.767 588.495 232.15 587.824 230.79 586.476C229.483 585.127 228.826 583.567 228.819 581.796C228.811 579.973 229.456 578.408 230.753 577.101C232.102 575.741 233.714 575.058 235.589 575.05ZM241.451 595.574L241.608 635.027L231.686 635.066L231.563 604.051L225.235 604.076L225.202 595.639L241.451 595.574Z" fill="white"/>
<path d="M281.765 598.297C285.57 598.906 288.704 600.252 291.167 602.334C293.68 604.424 295.423 607.05 296.393 610.212C297.424 613.331 297.634 616.793 297.025 620.599L296.358 624.765L268.124 620.245C268.219 622.95 269.167 625.265 270.969 627.188C272.771 629.112 275.163 630.312 278.146 630.79C280.974 631.243 283.636 631.089 286.132 630.328C288.627 629.567 290.664 628.706 292.242 627.745L290.707 636.836C289.3 637.718 287.272 638.528 284.622 639.264C282.032 639.957 279.271 640.069 276.34 639.6C272.483 638.982 269.1 637.544 266.191 635.285C263.334 633.034 261.197 630.239 259.78 626.9C258.414 623.57 258.044 619.95 258.67 616.042C259.279 612.236 260.683 608.9 262.882 606.035C265.082 603.169 267.825 601.024 271.113 599.599C274.408 598.122 277.959 597.688 281.765 598.297ZM280.163 606.823C277.745 606.436 275.595 606.857 273.71 608.085C271.826 609.313 270.373 611.137 269.353 613.558L288.021 616.547C288.26 613.737 287.561 611.515 285.924 609.881C284.294 608.196 282.374 607.177 280.163 606.823Z" fill="white"/>
<path d="M162.883 415.79L163.966 419.786L159.028 421.125L163.107 436.168L158.319 437.466L154.239 422.424L151.337 423.211L150.253 419.214L153.156 418.427L152.696 416.731C152.3 415.273 152.265 413.947 152.588 412.753C152.931 411.527 153.529 410.501 154.385 409.676C155.24 408.85 156.271 408.274 157.477 407.947C158.282 407.728 159.009 407.626 159.66 407.638C160.311 407.65 160.904 407.746 161.438 407.925L162.522 411.921C161.556 411.643 160.536 411.664 159.462 411.982C158.715 412.211 158.142 412.637 157.744 413.257C157.339 413.853 157.279 414.678 157.566 415.734L157.944 417.129L162.883 415.79Z" fill="white"/>
<path d="M182.259 411.151C184.154 410.804 185.968 410.949 187.699 411.585C189.426 412.196 190.906 413.196 192.14 414.585C193.394 415.944 194.197 417.584 194.549 419.505C194.9 421.427 194.73 423.245 194.037 424.96C193.371 426.67 192.34 428.129 190.947 429.337C189.548 430.52 187.901 431.284 186.005 431.631C184.135 431.973 182.324 431.841 180.572 431.235C178.84 430.599 177.36 429.599 176.131 428.235C174.902 426.872 174.112 425.229 173.761 423.308C173.409 421.387 173.567 419.571 174.234 417.86C174.896 416.124 175.926 414.665 177.324 413.483C178.744 412.27 180.389 411.493 182.259 411.151ZM183.123 415.877C182.201 416.046 181.383 416.42 180.668 417.001C179.954 417.582 179.428 418.327 179.092 419.235C178.78 420.139 178.733 421.181 178.948 422.359C179.164 423.537 179.577 424.494 180.188 425.23C180.825 425.96 181.58 426.471 182.454 426.761C183.323 427.026 184.218 427.074 185.141 426.905C186.063 426.736 186.883 426.374 187.603 425.819C188.317 425.238 188.843 424.494 189.179 423.585C189.516 422.676 189.577 421.633 189.361 420.454C189.146 419.276 188.72 418.321 188.083 417.591C187.446 416.86 186.691 416.349 185.817 416.059C184.944 415.769 184.046 415.708 183.123 415.877Z" fill="white"/>
<path d="M217.127 412.699C216.253 412.312 215.362 412.161 214.455 412.248C213.314 412.357 212.404 412.824 211.724 413.647C211.042 414.445 210.468 415.416 210.002 416.559L211.051 427.525L206.112 427.997L204.234 408.36L209.172 407.888L209.525 411.582C210.088 410.351 210.785 409.303 211.618 408.439C212.477 407.572 213.49 407.082 214.656 406.971C215.356 406.904 216.003 406.96 216.595 407.138L217.127 412.699Z" fill="white"/>
<path d="M234.322 400.696L234.445 406.436L239.912 406.319L240.001 410.459L234.534 410.576L234.716 419.09C234.735 419.975 234.945 420.674 235.346 421.186C235.774 421.672 236.391 421.906 237.198 421.889C237.901 421.874 238.498 421.783 238.989 421.616C239.507 421.449 239.984 421.217 240.42 420.921L240.504 424.866C240.02 425.371 239.404 425.801 238.657 426.156C237.935 426.51 237.014 426.699 235.895 426.723C234.124 426.76 232.667 426.232 231.524 425.136C230.406 424.014 229.826 422.463 229.783 420.485L229.574 410.682L226.02 410.758L225.966 408.22C227.206 407.75 228.334 406.893 229.349 405.647C230.39 404.4 231.202 402.768 231.784 400.75L234.322 400.696Z" fill="white"/>
<path d="M268.998 407.589L268.244 419.322C268.132 421.064 267.645 422.546 266.784 423.769C265.924 424.966 264.797 425.86 263.402 426.448C262.033 427.039 260.504 427.28 258.815 427.172C257.1 427.061 255.588 426.625 254.28 425.863C252.998 425.102 252.007 424.073 251.308 422.775C250.636 421.453 250.356 419.922 250.468 418.181L251.222 406.447L256.211 406.767L255.554 417.607C255.456 419.14 255.733 420.306 256.386 421.105C257.04 421.904 257.951 422.341 259.121 422.416C260.264 422.489 261.211 422.172 261.961 421.463C262.737 420.756 263.174 419.636 263.273 418.103L263.969 407.266L268.998 407.589Z" fill="white"/>
<path d="M286.865 409.81L286.419 412.587C287.138 411.885 288.055 411.268 289.17 410.735C290.31 410.206 291.536 410.047 292.847 410.258C294.827 410.577 296.377 411.512 297.499 413.064C298.621 414.616 298.967 416.729 298.537 419.403L296.613 431.359L291.715 430.571L293.495 419.265C293.706 417.953 293.541 416.925 293.002 416.178C292.488 415.436 291.679 414.976 290.573 414.798C289.699 414.658 288.831 414.808 287.968 415.25C287.132 415.695 286.381 416.26 285.717 416.945L283.732 429.286L278.834 428.498L281.968 409.022L286.865 409.81Z" fill="white"/>
<path d="M320.398 416.131C322.264 416.614 323.76 417.432 324.888 418.584C326.04 419.744 326.783 421.133 327.117 422.753C327.483 424.354 327.424 426.087 326.941 427.953L326.413 429.995L312.572 426.412C312.491 427.763 312.854 428.96 313.66 430.002C314.466 431.045 315.601 431.756 317.063 432.134C318.449 432.493 319.782 432.542 321.06 432.281C322.338 432.02 323.392 431.688 324.223 431.284L323.03 435.736C322.288 436.109 321.24 436.416 319.886 436.658C318.564 436.881 317.185 436.806 315.748 436.434C313.857 435.944 312.241 435.069 310.9 433.807C309.584 432.552 308.652 431.06 308.104 429.331C307.582 427.609 307.568 425.789 308.064 423.873C308.547 422.008 309.404 420.414 310.634 419.091C311.864 417.769 313.331 416.83 315.034 416.276C316.745 415.696 318.533 415.648 320.398 416.131ZM319.198 420.299C318.013 419.993 316.923 420.1 315.927 420.623C314.931 421.145 314.122 421.985 313.499 423.142L322.651 425.51C322.902 424.123 322.659 422.984 321.921 422.094C321.19 421.178 320.282 420.58 319.198 420.299Z" fill="white"/>
</svg>
