<svg width="474" height="1330" viewBox="0 0 474 1330" fill="none" xmlns="http://www.w3.org/2000/svg">
<mask id="path-1-inside-1_165_594" fill="white">
<path fill-rule="evenodd" clip-rule="evenodd" d="M0 594.953L79.1091 644.396V644.953H394.899V644.392L474 594.953L394.899 545.515V544.953H394H80H79.1091V545.51L0 594.953Z"/>
</mask>
<path fill-rule="evenodd" clip-rule="evenodd" d="M0 594.953L79.1091 644.396V644.953H394.899V644.392L474 594.953L394.899 545.515V544.953H394H80H79.1091V545.51L0 594.953Z" fill="#4C0406"/>
<path d="M79.1091 644.396H94.1091V636.083L87.0591 631.676L79.1091 644.396ZM0 594.953L-7.94997 582.233L-28.302 594.953L-7.94997 607.673L0 594.953ZM79.1091 644.953H64.1091V659.953H79.1091V644.953ZM394.899 644.953V659.953H409.899V644.953H394.899ZM394.899 644.392L386.949 631.672L379.899 636.078V644.392H394.899ZM474 594.953L481.95 607.673L502.302 594.953L481.95 582.233L474 594.953ZM394.899 545.515H379.899V553.829L386.949 558.235L394.899 545.515ZM394.899 544.953H409.899V529.953H394.899V544.953ZM79.1091 544.953V529.953H64.1091V544.953H79.1091ZM79.1091 545.51L87.0591 558.23L94.1091 553.824V545.51H79.1091ZM87.0591 631.676L7.94997 582.233L-7.94997 607.673L71.1591 657.116L87.0591 631.676ZM94.1091 644.953V644.396H64.1091V644.953H94.1091ZM394.899 629.953H79.1091V659.953H394.899V629.953ZM379.899 644.392V644.953H409.899V644.392H379.899ZM402.849 657.112L481.95 607.673L466.05 582.233L386.949 631.672L402.849 657.112ZM481.95 582.233L402.849 532.795L386.949 558.235L466.05 607.673L481.95 582.233ZM379.899 544.953V545.515H409.899V544.953H379.899ZM394 559.953H394.899V529.953H394V559.953ZM80 559.953H394V529.953H80V559.953ZM79.1091 559.953H80V529.953H79.1091V559.953ZM94.1091 545.51V544.953H64.1091V545.51H94.1091ZM7.94997 607.673L87.0591 558.23L71.1591 532.79L-7.94997 582.233L7.94997 607.673Z" fill="#B82025" mask="url(#path-1-inside-1_165_594)"/>
<path d="M48.574 296.977C47.3331 288.228 53.4196 280.13 62.1686 278.889V278.889C70.9176 277.648 79.016 283.735 80.2569 292.484L151.175 792.479L119.492 796.973L48.574 296.977Z" fill="#D83A40"/>
<path d="M104.96 324.752C103.878 315.982 110.109 307.995 118.879 306.913V306.913C127.65 305.83 135.637 312.062 136.719 320.832L198.581 822.029L166.822 825.949L104.96 324.752Z" fill="#D83A40"/>
<path d="M158.794 288.522C158.356 279.696 165.155 272.186 173.98 271.747V271.747C182.806 271.308 190.316 278.107 190.755 286.933L215.826 791.31L183.865 792.899L158.794 288.522Z" fill="#D83A40"/>
<path d="M209.554 17.3258C209.184 8.497 216.041 1.03991 224.87 0.669921V0.669921C233.699 0.299933 241.156 7.15716 241.526 15.986L262.67 520.543L230.698 521.883L209.554 17.3258Z" fill="#D83A40"/>
<path d="M277.097 292.947C277.344 284.114 284.705 277.153 293.538 277.4V277.4C302.371 277.646 309.332 285.007 309.085 293.84L294.988 798.643L263 797.75L277.097 292.947Z" fill="#D83A40"/>
<path d="M336.195 338.784C337.475 330.041 345.601 323.991 354.345 325.272V325.272C363.088 326.553 369.137 334.679 367.857 343.422L294.662 843.09L263 838.452L336.195 338.784Z" fill="#D83A40"/>
<path d="M385.468 306.882C386.298 298.085 394.103 291.626 402.901 292.457V292.457C411.698 293.288 418.157 301.093 417.326 309.89L369.858 812.654L338 809.646L385.468 306.882Z" fill="#D83A40"/>
<mask id="path-10-inside-2_165_594" fill="white">
<path d="M79 629.953H395V1329.95H79V629.953Z"/>
</mask>
<path d="M79 629.953H395V1329.95H79V629.953Z" fill="#D83A40"/>
<path d="M79 629.953V614.953H64V629.953H79ZM395 629.953H410V614.953H395V629.953ZM79 644.953H395V614.953H79V644.953ZM380 629.953V1329.95H410V629.953H380ZM94 1329.95V629.953H64V1329.95H94Z" fill="#B82025" mask="url(#path-10-inside-2_165_594)"/>
<path d="M71.5 648.455V1322.45H7.5V608.48L71.5 648.455Z" fill="#A81319" stroke="#A81319" stroke-width="15"/>
<path d="M402.5 648.455V1322.45H466.5V608.48L402.5 648.455Z" fill="#A81319" stroke="#A81319" stroke-width="15"/>
<path d="M130.296 782.986C133.845 782.249 137.191 782.065 140.333 782.434C143.475 782.802 146.19 783.419 148.478 784.285L151.109 796.856C148.624 795.968 146.006 795.203 143.254 794.562C140.501 793.92 137.534 793.93 134.352 794.591C132.761 794.921 131.221 795.497 129.733 796.316C128.305 797.123 127.174 798.124 126.338 799.319C125.564 800.501 125.337 801.857 125.657 803.387C126.079 805.405 127.286 806.75 129.279 807.422C131.271 808.093 133.661 808.682 136.449 809.188L144.628 810.745C149.296 811.691 152.915 813.269 155.485 815.481C158.054 817.692 159.691 820.48 160.395 823.844C161.163 827.515 160.771 830.979 159.218 834.238C157.713 837.423 155.353 840.18 152.136 842.507C148.981 844.822 145.262 846.424 140.978 847.314C137.367 848.064 133.782 848.17 130.221 847.633C126.661 847.095 123.471 846.194 120.652 844.928L118.022 832.357C121.124 833.755 124.437 834.79 127.962 835.463C131.487 836.135 135.086 836.09 138.757 835.327C141.327 834.794 143.428 833.847 145.059 832.487C146.677 831.066 147.275 829.346 146.853 827.327C146.52 825.736 145.486 824.61 143.752 823.949C142.065 823.214 140.264 822.695 138.349 822.39L128.126 820.683C122.969 819.839 119.227 818.127 116.899 815.546C114.619 812.892 113.102 809.76 112.347 806.15C111.566 802.419 111.897 798.967 113.341 795.795C114.833 792.548 117.071 789.818 120.055 787.602C123.027 785.325 126.44 783.787 130.296 782.986Z" fill="white"/>
<path d="M182.246 766.89C184.483 766.653 186.496 767.257 188.285 768.701C190.067 770.084 191.074 771.863 191.306 774.038C191.531 776.151 190.922 778.101 189.479 779.888C188.035 781.675 186.195 782.687 183.957 782.924C181.72 783.161 179.707 782.557 177.918 781.112C176.192 779.661 175.216 777.879 174.991 775.766C174.759 773.591 175.337 771.644 176.725 769.926C178.168 768.139 180.009 767.127 182.246 766.89ZM191.762 790.676L196.786 837.752L184.946 839.007L180.996 801.998L173.445 802.798L172.37 792.73L191.762 790.676Z" fill="white"/>
<path d="M234.902 787.446C237.465 787.451 240.057 788.05 242.679 789.243C245.302 790.436 247.486 792.035 249.232 794.039L249.243 788.695L261.149 788.72L261.049 836.064L249.142 836.038L249.159 828.07C247.779 830.629 245.774 832.844 243.145 834.713C240.516 836.52 237.452 837.42 233.952 837.413C230.14 837.405 226.61 836.428 223.364 834.484C220.181 832.54 217.625 829.722 215.695 826.03C213.765 822.339 212.806 817.868 212.817 812.618C212.828 807.368 213.807 802.87 215.752 799.124C217.76 795.378 220.423 792.509 223.739 790.516C227.119 788.461 230.84 787.437 234.902 787.446ZM237.315 799.076C234.815 799.071 232.657 799.722 230.842 801.031C229.089 802.277 227.711 803.931 226.706 805.991C225.702 808.051 225.197 810.269 225.192 812.644C225.185 816.207 226.241 819.24 228.36 821.745C230.543 824.249 233.415 825.505 236.977 825.513C239.102 825.517 241.072 824.959 242.887 823.838C244.765 822.717 246.268 821.157 247.397 819.16C248.589 817.1 249.188 814.632 249.194 811.757L249.208 805.007C247.525 803.191 245.684 801.75 243.686 800.683C241.751 799.617 239.627 799.081 237.315 799.076Z" fill="white"/>
<path d="M299.678 791.81L298.668 797.724C300.391 796.178 302.364 794.832 304.588 793.688C306.874 792.553 309.589 792.253 312.731 792.785C315.997 793.338 318.824 794.609 321.21 796.599C323.608 798.526 325.288 801.124 326.252 804.394C328.532 802.181 331.051 800.421 333.811 799.113C336.581 797.744 339.598 797.336 342.864 797.89C346.007 798.422 348.746 799.647 351.082 801.564C353.428 803.419 355.13 805.894 356.187 808.989C357.305 812.095 357.502 815.773 356.776 820.024L351.886 848.672L340.147 846.684L344.676 819.591C345.213 816.449 344.78 813.967 343.38 812.145C342.04 810.333 340.046 809.203 337.396 808.754C335.362 808.409 333.496 808.759 331.796 809.802C330.107 810.784 328.468 812.027 326.879 813.533L321.753 843.568L310.014 841.579L314.543 814.486C315.08 811.344 314.647 808.862 313.246 807.04C311.907 805.228 309.943 804.103 307.355 803.665C305.383 803.331 303.522 803.649 301.771 804.621C300.031 805.53 298.408 806.682 296.902 808.075L291.712 838.479L279.973 836.49L287.939 789.821L299.678 791.81Z" fill="white"/>
<path d="M188.323 874.476C191.304 873.987 194.095 873.951 196.697 874.368C199.299 874.786 201.537 875.395 203.41 876.196L205.144 886.757C203.108 885.93 200.956 885.202 198.689 884.571C196.421 883.94 193.951 883.844 191.278 884.283C189.942 884.503 188.64 884.927 187.371 885.558C186.153 886.18 185.175 886.974 184.437 887.94C183.749 888.897 183.511 890.018 183.722 891.303C184 892.999 184.957 894.162 186.59 894.791C188.224 895.42 190.192 895.994 192.494 896.513L199.246 898.097C203.097 899.048 206.052 900.49 208.111 902.421C210.17 904.353 211.431 906.732 211.895 909.559C212.401 912.642 211.949 915.514 210.538 918.174C209.17 920.773 207.106 922.986 204.344 924.811C201.634 926.629 198.48 927.832 194.882 928.423C191.85 928.921 188.862 928.883 185.918 928.311C182.973 927.739 180.351 926.876 178.051 925.723L176.317 915.161C178.848 916.435 181.569 917.413 184.478 918.097C187.388 918.78 190.385 918.869 193.468 918.363C195.627 918.009 197.41 917.294 198.817 916.218C200.215 915.091 200.775 913.68 200.497 911.984C200.277 910.648 199.458 909.674 198.038 909.062C196.661 908.391 195.181 907.895 193.598 907.574L185.151 905.794C180.889 904.91 177.836 903.353 175.992 901.122C174.191 898.832 173.041 896.17 172.544 893.138C172.029 890.003 172.43 887.14 173.746 884.548C175.106 881.897 177.067 879.702 179.632 877.961C182.188 876.169 185.085 875.008 188.323 874.476Z" fill="white"/>
<path d="M235.589 864.003C237.464 863.996 239.081 864.667 240.44 866.015C241.8 867.312 242.483 868.872 242.49 870.695C242.497 872.466 241.826 874.031 240.478 875.39C239.129 876.75 237.517 877.433 235.642 877.441C233.767 877.448 232.15 876.778 230.79 875.429C229.483 874.08 228.826 872.52 228.819 870.749C228.811 868.926 229.456 867.361 230.753 866.054C232.102 864.694 233.714 864.011 235.589 864.003ZM241.451 884.527L241.608 923.98L231.686 924.019L231.563 893.004L225.235 893.029L225.202 884.592L241.451 884.527Z" fill="white"/>
<path d="M281.765 887.25C285.57 887.86 288.704 889.205 291.167 891.287C293.68 893.378 295.423 896.004 296.393 899.166C297.424 902.284 297.634 905.747 297.025 909.552L296.358 913.718L268.124 909.198C268.219 911.903 269.167 914.218 270.969 916.141C272.771 918.065 275.163 919.266 278.146 919.743C280.974 920.196 283.636 920.042 286.132 919.281C288.627 918.52 290.664 917.659 292.242 916.698L290.707 925.789C289.3 926.671 287.272 927.481 284.622 928.217C282.032 928.91 279.271 929.022 276.34 928.553C272.483 927.935 269.1 926.497 266.191 924.238C263.334 921.987 261.197 919.193 259.78 915.854C258.414 912.523 258.044 908.903 258.67 904.995C259.279 901.189 260.683 897.853 262.882 894.988C265.082 892.123 267.825 889.977 271.113 888.552C274.408 887.075 277.959 886.641 281.765 887.25ZM280.163 895.776C277.745 895.389 275.595 895.81 273.71 897.038C271.826 898.266 270.373 900.09 269.353 902.512L288.021 905.5C288.26 902.69 287.561 900.468 285.924 898.835C284.294 897.15 282.374 896.13 280.163 895.776Z" fill="white"/>
<path d="M162.883 704.743L163.966 708.739L159.028 710.078L163.107 725.121L158.319 726.419L154.239 711.377L151.337 712.164L150.253 708.167L153.156 707.38L152.696 705.684C152.3 704.226 152.265 702.9 152.588 701.706C152.931 700.48 153.529 699.454 154.385 698.629C155.24 697.803 156.271 697.227 157.477 696.9C158.282 696.681 159.009 696.579 159.66 696.591C160.311 696.603 160.904 696.699 161.438 696.878L162.522 700.874C161.556 700.596 160.536 700.617 159.462 700.935C158.715 701.164 158.142 701.59 157.744 702.21C157.339 702.806 157.279 703.631 157.566 704.687L157.944 706.082L162.883 704.743Z" fill="white"/>
<path d="M182.259 700.104C184.154 699.757 185.968 699.902 187.699 700.538C189.426 701.149 190.906 702.149 192.14 703.538C193.394 704.897 194.197 706.537 194.549 708.458C194.9 710.38 194.73 712.198 194.037 713.913C193.371 715.623 192.34 717.082 190.947 718.291C189.548 719.473 187.901 720.238 186.005 720.584C184.135 720.926 182.324 720.794 180.572 720.188C178.84 719.552 177.36 718.552 176.131 717.188C174.902 715.825 174.112 714.182 173.761 712.261C173.409 710.34 173.567 708.524 174.234 706.814C174.896 705.078 175.926 703.618 177.324 702.436C178.744 701.223 180.389 700.446 182.259 700.104ZM183.123 704.83C182.201 704.999 181.383 705.373 180.668 705.954C179.954 706.535 179.428 707.28 179.092 708.188C178.78 709.093 178.733 710.134 178.948 711.312C179.164 712.49 179.577 713.447 180.188 714.183C180.825 714.913 181.58 715.424 182.454 715.714C183.323 715.979 184.218 716.027 185.141 715.858C186.063 715.689 186.883 715.327 187.603 714.772C188.317 714.192 188.843 713.447 189.179 712.538C189.516 711.629 189.577 710.586 189.361 709.407C189.146 708.229 188.72 707.274 188.083 706.544C187.446 705.813 186.691 705.303 185.817 705.012C184.944 704.722 184.046 704.661 183.123 704.83Z" fill="white"/>
<path d="M217.127 701.652C216.253 701.265 215.362 701.114 214.455 701.201C213.314 701.31 212.404 701.777 211.724 702.601C211.042 703.398 210.468 704.369 210.002 705.512L211.051 716.478L206.112 716.95L204.234 697.313L209.172 696.841L209.525 700.535C210.088 699.304 210.785 698.256 211.618 697.392C212.477 696.525 213.49 696.035 214.656 695.924C215.356 695.857 216.003 695.913 216.595 696.091L217.127 701.652Z" fill="white"/>
<path d="M234.322 689.649L234.445 695.389L239.912 695.272L240.001 699.412L234.534 699.529L234.716 708.043C234.735 708.928 234.945 709.627 235.346 710.139C235.774 710.625 236.391 710.859 237.198 710.842C237.901 710.827 238.498 710.736 238.989 710.569C239.507 710.402 239.984 710.17 240.42 709.874L240.504 713.819C240.02 714.324 239.404 714.754 238.657 715.109C237.935 715.463 237.014 715.652 235.895 715.676C234.124 715.713 232.667 715.185 231.524 714.089C230.406 712.967 229.826 711.416 229.783 709.438L229.574 699.635L226.02 699.711L225.966 697.173C227.206 696.703 228.334 695.846 229.349 694.6C230.39 693.353 231.202 691.721 231.784 689.703L234.322 689.649Z" fill="white"/>
<path d="M268.998 696.542L268.244 708.275C268.132 710.017 267.645 711.499 266.784 712.722C265.924 713.92 264.797 714.813 263.402 715.402C262.033 715.992 260.504 716.233 258.815 716.125C257.1 716.015 255.588 715.578 254.28 714.816C252.998 714.055 252.007 713.026 251.308 711.728C250.636 710.406 250.356 708.875 250.468 707.134L251.222 695.4L256.211 695.721L255.554 706.56C255.456 708.093 255.733 709.259 256.386 710.058C257.04 710.857 257.951 711.294 259.121 711.369C260.264 711.442 261.211 711.125 261.961 710.416C262.737 709.709 263.174 708.589 263.273 707.056L263.969 696.219L268.998 696.542Z" fill="white"/>
<path d="M286.865 698.763L286.419 701.54C287.138 700.838 288.055 700.221 289.17 699.688C290.31 699.159 291.536 699 292.847 699.211C294.827 699.53 296.377 700.465 297.499 702.017C298.621 703.569 298.967 705.682 298.537 708.356L296.613 720.312L291.715 719.524L293.495 708.218C293.706 706.906 293.541 705.878 293.002 705.131C292.488 704.389 291.679 703.929 290.573 703.752C289.699 703.611 288.831 703.761 287.968 704.203C287.132 704.649 286.381 705.214 285.717 705.898L283.732 718.239L278.834 717.451L281.968 697.975L286.865 698.763Z" fill="white"/>
<path d="M320.398 705.084C322.264 705.567 323.76 706.385 324.888 707.537C326.04 708.697 326.783 710.086 327.117 711.706C327.483 713.307 327.424 715.04 326.941 716.906L326.413 718.948L312.572 715.365C312.491 716.716 312.854 717.913 313.66 718.955C314.466 719.998 315.601 720.709 317.063 721.087C318.449 721.446 319.782 721.495 321.06 721.234C322.338 720.973 323.392 720.641 324.223 720.237L323.03 724.689C322.288 725.062 321.24 725.369 319.886 725.611C318.564 725.834 317.185 725.759 315.748 725.387C313.857 724.897 312.241 724.022 310.9 722.76C309.584 721.505 308.652 720.013 308.104 718.284C307.582 716.562 307.568 714.742 308.064 712.826C308.547 710.961 309.404 709.367 310.634 708.044C311.864 706.722 313.331 705.783 315.034 705.229C316.745 704.649 318.533 704.601 320.398 705.084ZM319.198 709.252C318.013 708.946 316.923 709.053 315.927 709.576C314.931 710.098 314.122 710.938 313.499 712.095L322.651 714.463C322.902 713.076 322.659 711.937 321.921 711.047C321.19 710.131 320.282 709.533 319.198 709.252Z" fill="white"/>
</svg>
