<svg width="474" height="1472" viewBox="0 0 474 1472" fill="none" xmlns="http://www.w3.org/2000/svg">
<mask id="path-1-inside-1_165_964" fill="white">
<path fill-rule="evenodd" clip-rule="evenodd" d="M0 736.994L79.1091 786.437V786.994H394.899V786.432L474 736.994L394.899 687.555V686.994H394H80H79.1091V687.55L0 736.994Z"/>
</mask>
<path fill-rule="evenodd" clip-rule="evenodd" d="M0 736.994L79.1091 786.437V786.994H394.899V786.432L474 736.994L394.899 687.555V686.994H394H80H79.1091V687.55L0 736.994Z" fill="#4C0406"/>
<path d="M79.1091 786.437H94.1091V778.123L87.0591 773.717L79.1091 786.437ZM0 736.994L-7.94997 724.274L-28.302 736.994L-7.94997 749.714L0 736.994ZM79.1091 786.994H64.1091V801.994H79.1091V786.994ZM394.899 786.994V801.994H409.899V786.994H394.899ZM394.899 786.432L386.949 773.712L379.899 778.118V786.432H394.899ZM474 736.994L481.95 749.714L502.302 736.994L481.95 724.274L474 736.994ZM394.899 687.555H379.899V695.869L386.949 700.275L394.899 687.555ZM394.899 686.994H409.899V671.994H394.899V686.994ZM79.1091 686.994V671.994H64.1091V686.994H79.1091ZM79.1091 687.55L87.0591 700.27L94.1091 695.864V687.55H79.1091ZM87.0591 773.717L7.94997 724.274L-7.94997 749.714L71.1591 799.157L87.0591 773.717ZM94.1091 786.994V786.437H64.1091V786.994H94.1091ZM394.899 771.994H79.1091V801.994H394.899V771.994ZM379.899 786.432V786.994H409.899V786.432H379.899ZM402.849 799.152L481.95 749.714L466.05 724.274L386.949 773.712L402.849 799.152ZM481.95 724.274L402.849 674.835L386.949 700.275L466.05 749.714L481.95 724.274ZM379.899 686.994V687.555H409.899V686.994H379.899ZM394 701.994H394.899V671.994H394V701.994ZM80 701.994H394V671.994H80V701.994ZM79.1091 701.994H80V671.994H79.1091V701.994ZM94.1091 687.55V686.994H64.1091V687.55H94.1091ZM7.94997 749.714L87.0591 700.27L71.1591 674.83L-7.94997 724.274L7.94997 749.714Z" fill="#B82025" mask="url(#path-1-inside-1_165_964)"/>
<path d="M48.574 435.018C47.3331 426.269 53.4196 418.17 62.1686 416.929V416.929C70.9176 415.688 79.016 421.775 80.2569 430.524L151.175 930.52L119.492 935.013L48.574 435.018Z" fill="#D83A40"/>
<path d="M104.96 462.793C103.878 454.023 110.109 446.036 118.879 444.953V444.953C127.65 443.871 135.637 450.103 136.719 458.873L198.581 960.069L166.822 963.989L104.96 462.793Z" fill="#D83A40"/>
<path d="M158.794 426.562C158.356 417.736 165.155 410.226 173.98 409.787V409.787C182.806 409.349 190.316 416.147 190.755 424.973L215.826 929.35L183.865 930.939L158.794 426.562Z" fill="#D83A40"/>
<path d="M202.761 18.1934C202.144 9.37841 208.791 1.73273 217.606 1.11632V1.11632C226.421 0.499911 234.066 7.14621 234.683 15.9612L269.91 519.731L237.988 521.963L202.761 18.1934Z" fill="#D83A40"/>
<path d="M277.097 430.987C277.344 422.154 284.705 415.193 293.538 415.44V415.44C302.371 415.686 309.332 423.047 309.085 431.88L294.988 936.683L263 935.79L277.097 430.987Z" fill="#D83A40"/>
<path d="M336.195 476.824C337.475 468.081 345.601 462.031 354.345 463.312V463.312C363.088 464.593 369.137 472.719 367.857 481.462L294.662 981.13L263 976.492L336.195 476.824Z" fill="#D83A40"/>
<path d="M385.468 444.922C386.298 436.125 394.103 429.666 402.901 430.497V430.497C411.698 431.328 418.157 439.133 417.326 447.93L369.858 950.694L338 947.687L385.468 444.922Z" fill="#D83A40"/>
<mask id="path-10-inside-2_165_964" fill="white">
<path d="M79 771.994H395V1471.99H79V771.994Z"/>
</mask>
<path d="M79 771.994H395V1471.99H79V771.994Z" fill="#D83A40"/>
<path d="M79 771.994V756.994H64V771.994H79ZM395 771.994H410V756.994H395V771.994ZM79 786.994H395V756.994H79V786.994ZM380 771.994V1471.99H410V771.994H380ZM94 1471.99V771.994H64V1471.99H94Z" fill="#B82025" mask="url(#path-10-inside-2_165_964)"/>
<path d="M71.5 790.496V1464.49H7.5V750.521L71.5 790.496Z" fill="#A81319" stroke="#A81319" stroke-width="15"/>
<path d="M402.5 790.496V1464.49H466.5V750.521L402.5 790.496Z" fill="#A81319" stroke="#A81319" stroke-width="15"/>
<path d="M130.296 925.026C133.845 924.289 137.191 924.105 140.333 924.474C143.475 924.843 146.19 925.46 148.478 926.325L151.109 938.897C148.624 938.008 146.006 937.243 143.254 936.602C140.501 935.961 137.534 935.97 134.352 936.631C132.761 936.962 131.221 937.537 129.733 938.357C128.305 939.164 127.174 940.165 126.338 941.36C125.564 942.542 125.337 943.897 125.657 945.427C126.079 947.446 127.286 948.791 129.279 949.462C131.271 950.134 133.661 950.722 136.449 951.229L144.628 952.786C149.296 953.731 152.915 955.31 155.485 957.521C158.054 959.732 159.691 962.52 160.395 965.885C161.163 969.555 160.771 973.02 159.218 976.279C157.713 979.464 155.353 982.22 152.136 984.547C148.981 986.862 145.262 988.465 140.978 989.354C137.367 990.104 133.782 990.21 130.221 989.673C126.661 989.136 123.471 988.234 120.652 986.968L118.022 974.397C121.124 975.795 124.437 976.831 127.962 977.503C131.487 978.175 135.086 978.13 138.757 977.368C141.327 976.834 143.428 975.887 145.059 974.527C146.677 973.106 147.275 971.386 146.853 969.367C146.52 967.777 145.486 966.651 143.752 965.99C142.065 965.255 140.264 964.735 138.349 964.431L128.126 962.723C122.969 961.879 119.227 960.167 116.899 957.586C114.619 954.932 113.102 951.8 112.347 948.191C111.566 944.459 111.897 941.007 113.341 937.835C114.833 934.589 117.071 931.858 120.055 929.642C123.027 927.365 126.44 925.827 130.296 925.026Z" fill="white"/>
<path d="M182.246 908.93C184.483 908.693 186.496 909.297 188.285 910.741C190.067 912.124 191.074 913.903 191.306 916.078C191.531 918.191 190.922 920.141 189.479 921.928C188.035 923.715 186.195 924.727 183.957 924.964C181.72 925.201 179.707 924.597 177.918 923.152C176.192 921.701 175.216 919.919 174.991 917.806C174.759 915.631 175.337 913.684 176.725 911.966C178.168 910.179 180.009 909.167 182.246 908.93ZM191.762 932.716L196.786 979.792L184.946 981.047L180.996 944.038L173.445 944.838L172.37 934.77L191.762 932.716Z" fill="white"/>
<path d="M234.902 929.486C237.465 929.491 240.057 930.091 242.679 931.284C245.302 932.477 247.486 934.075 249.232 936.079L249.243 930.735L261.149 930.76L261.049 978.104L249.142 978.079L249.159 970.11C247.779 972.67 245.774 974.884 243.145 976.754C240.516 978.561 237.452 979.46 233.952 979.453C230.14 979.445 226.61 978.469 223.364 976.524C220.181 974.58 217.625 971.762 215.695 968.071C213.765 964.379 212.806 959.908 212.817 954.658C212.828 949.408 213.807 944.91 215.752 941.164C217.76 937.419 220.423 934.549 223.739 932.556C227.119 930.501 230.84 929.477 234.902 929.486ZM237.315 941.116C234.815 941.111 232.657 941.763 230.842 943.071C229.089 944.318 227.711 945.971 226.706 948.031C225.702 950.092 225.197 952.309 225.192 954.684C225.185 958.247 226.241 961.28 228.36 963.785C230.543 966.289 233.415 967.546 236.977 967.553C239.102 967.558 241.072 966.999 242.887 965.878C244.765 964.757 246.268 963.198 247.397 961.2C248.589 959.14 249.188 956.673 249.194 953.798L249.208 947.048C247.525 945.231 245.684 943.79 243.686 942.723C241.751 941.657 239.627 941.121 237.315 941.116Z" fill="white"/>
<path d="M299.678 933.85L298.668 939.765C300.391 938.218 302.364 936.873 304.588 935.728C306.874 934.594 309.589 934.293 312.731 934.826C315.997 935.379 318.824 936.65 321.21 938.639C323.608 940.567 325.288 943.165 326.252 946.434C328.532 944.222 331.051 942.461 333.811 941.154C336.581 939.785 339.598 939.377 342.864 939.93C346.007 940.463 348.746 941.687 351.082 943.604C353.428 945.46 355.13 947.935 356.187 951.03C357.305 954.135 357.502 957.814 356.776 962.065L351.886 990.713L340.147 988.724L344.676 961.631C345.213 958.489 344.78 956.007 343.38 954.185C342.04 952.374 340.046 951.243 337.396 950.794C335.362 950.45 333.496 950.799 331.796 951.843C330.107 952.824 328.468 954.068 326.879 955.574L321.753 985.608L310.014 983.62L314.543 956.527C315.08 953.385 314.647 950.903 313.246 949.081C311.907 947.269 309.943 946.144 307.355 945.705C305.383 945.371 303.522 945.69 301.771 946.661C300.031 947.571 298.408 948.722 296.902 950.115L291.712 980.519L279.973 978.531L287.939 931.862L299.678 933.85Z" fill="white"/>
<path d="M188.323 1016.52C191.304 1016.03 194.095 1015.99 196.697 1016.41C199.299 1016.83 201.537 1017.43 203.41 1018.24L205.144 1028.8C203.108 1027.97 200.956 1027.24 198.689 1026.61C196.421 1025.98 193.951 1025.88 191.278 1026.32C189.942 1026.54 188.64 1026.97 187.371 1027.6C186.153 1028.22 185.175 1029.01 184.437 1029.98C183.749 1030.94 183.511 1032.06 183.722 1033.34C184 1035.04 184.957 1036.2 186.59 1036.83C188.224 1037.46 190.192 1038.03 192.494 1038.55L199.246 1040.14C203.097 1041.09 206.052 1042.53 208.111 1044.46C210.17 1046.39 211.431 1048.77 211.895 1051.6C212.401 1054.68 211.949 1057.55 210.538 1060.21C209.17 1062.81 207.106 1065.03 204.344 1066.85C201.634 1068.67 198.48 1069.87 194.882 1070.46C191.85 1070.96 188.862 1070.92 185.918 1070.35C182.973 1069.78 180.351 1068.92 178.051 1067.76L176.317 1057.2C178.848 1058.47 181.569 1059.45 184.478 1060.14C187.388 1060.82 190.385 1060.91 193.468 1060.4C195.627 1060.05 197.41 1059.33 198.817 1058.26C200.215 1057.13 200.775 1055.72 200.497 1054.02C200.277 1052.69 199.458 1051.71 198.038 1051.1C196.661 1050.43 195.181 1049.94 193.598 1049.61L185.151 1047.83C180.889 1046.95 177.836 1045.39 175.992 1043.16C174.191 1040.87 173.041 1038.21 172.544 1035.18C172.029 1032.04 172.43 1029.18 173.746 1026.59C175.106 1023.94 177.067 1021.74 179.632 1020C182.188 1018.21 185.085 1017.05 188.323 1016.52Z" fill="white"/>
<path d="M235.589 1006.04C237.464 1006.04 239.081 1006.71 240.44 1008.06C241.8 1009.35 242.483 1010.91 242.49 1012.73C242.497 1014.51 241.826 1016.07 240.478 1017.43C239.129 1018.79 237.517 1019.47 235.642 1019.48C233.767 1019.49 232.15 1018.82 230.79 1017.47C229.483 1016.12 228.826 1014.56 228.819 1012.79C228.811 1010.97 229.456 1009.4 230.753 1008.09C232.102 1006.73 233.714 1006.05 235.589 1006.04ZM241.451 1026.57L241.608 1066.02L231.686 1066.06L231.563 1035.04L225.235 1035.07L225.202 1026.63L241.451 1026.57Z" fill="white"/>
<path d="M281.765 1029.29C285.57 1029.9 288.704 1031.25 291.167 1033.33C293.68 1035.42 295.423 1038.04 296.393 1041.21C297.424 1044.32 297.634 1047.79 297.025 1051.59L296.358 1055.76L268.124 1051.24C268.219 1053.94 269.167 1056.26 270.969 1058.18C272.771 1060.11 275.163 1061.31 278.146 1061.78C280.974 1062.24 283.636 1062.08 286.132 1061.32C288.627 1060.56 290.664 1059.7 292.242 1058.74L290.707 1067.83C289.3 1068.71 287.272 1069.52 284.622 1070.26C282.032 1070.95 279.271 1071.06 276.34 1070.59C272.483 1069.98 269.1 1068.54 266.191 1066.28C263.334 1064.03 261.197 1061.23 259.78 1057.89C258.414 1054.56 258.044 1050.94 258.67 1047.03C259.279 1043.23 260.683 1039.89 262.882 1037.03C265.082 1034.16 267.825 1032.02 271.113 1030.59C274.408 1029.12 277.959 1028.68 281.765 1029.29ZM280.163 1037.82C277.745 1037.43 275.595 1037.85 273.71 1039.08C271.826 1040.31 270.373 1042.13 269.353 1044.55L288.021 1047.54C288.26 1044.73 287.561 1042.51 285.924 1040.87C284.294 1039.19 282.374 1038.17 280.163 1037.82Z" fill="white"/>
<path d="M162.883 846.783L163.966 850.779L159.028 852.119L163.107 867.161L158.319 868.46L154.239 853.417L151.337 854.204L150.253 850.208L153.156 849.421L152.696 847.724C152.3 846.266 152.265 844.941 152.588 843.747C152.931 842.52 153.529 841.495 154.385 840.669C155.24 839.844 156.271 839.267 157.477 838.94C158.282 838.722 159.009 838.619 159.66 838.631C160.311 838.644 160.904 838.739 161.438 838.918L162.522 842.915C161.556 842.637 160.536 842.657 159.462 842.975C158.715 843.205 158.142 843.63 157.744 844.251C157.339 844.846 157.279 845.672 157.566 846.727L157.944 848.122L162.883 846.783Z" fill="white"/>
<path d="M182.259 842.144C184.154 841.797 185.968 841.942 187.699 842.578C189.426 843.189 190.906 844.189 192.14 845.578C193.394 846.937 194.197 848.577 194.549 850.499C194.9 852.42 194.73 854.238 194.037 855.953C193.371 857.663 192.34 859.123 190.947 860.331C189.548 861.513 187.901 862.278 186.005 862.624C184.135 862.966 182.324 862.834 180.572 862.228C178.84 861.592 177.36 860.592 176.131 859.228C174.902 857.865 174.112 856.222 173.761 854.301C173.409 852.38 173.567 850.564 174.234 848.854C174.896 847.118 175.926 845.658 177.324 844.476C178.744 843.263 180.389 842.486 182.259 842.144ZM183.123 846.87C182.201 847.039 181.383 847.414 180.668 847.994C179.954 848.575 179.428 849.32 179.092 850.229C178.78 851.133 178.733 852.174 178.948 853.352C179.164 854.531 179.577 855.487 180.188 856.223C180.825 856.953 181.58 857.464 182.454 857.754C183.323 858.019 184.218 858.067 185.141 857.898C186.063 857.729 186.883 857.367 187.603 856.812C188.317 856.232 188.843 855.487 189.179 854.578C189.516 853.669 189.577 852.626 189.361 851.447C189.146 850.269 188.72 849.314 188.083 848.584C187.446 847.853 186.691 847.343 185.817 847.052C184.944 846.762 184.046 846.701 183.123 846.87Z" fill="white"/>
<path d="M217.127 843.692C216.253 843.305 215.362 843.155 214.455 843.242C213.314 843.351 212.404 843.817 211.724 844.641C211.042 845.439 210.468 846.409 210.002 847.553L211.051 858.518L206.112 858.991L204.234 839.354L209.172 838.881L209.525 842.575C210.088 841.344 210.785 840.296 211.618 839.432C212.477 838.565 213.49 838.076 214.656 837.964C215.356 837.897 216.003 837.953 216.595 838.132L217.127 843.692Z" fill="white"/>
<path d="M234.322 831.689L234.445 837.43L239.912 837.313L240.001 841.452L234.534 841.569L234.716 850.083C234.735 850.968 234.945 851.667 235.346 852.179C235.774 852.665 236.391 852.899 237.198 852.882C237.901 852.867 238.498 852.776 238.989 852.609C239.507 852.442 239.984 852.21 240.42 851.915L240.504 855.859C240.02 856.364 239.404 856.794 238.657 857.149C237.935 857.503 237.014 857.692 235.895 857.716C234.124 857.754 232.667 857.225 231.524 856.129C230.406 855.007 229.826 853.457 229.783 851.478L229.574 841.675L226.02 841.751L225.966 839.213C227.206 838.744 228.334 837.886 229.349 836.64C230.39 835.394 231.202 833.761 231.784 831.743L234.322 831.689Z" fill="white"/>
<path d="M268.998 838.582L268.244 850.316C268.132 852.057 267.645 853.539 266.784 854.763C265.924 855.96 264.797 856.853 263.402 857.442C262.033 858.032 260.504 858.273 258.815 858.165C257.1 858.055 255.588 857.618 254.28 856.856C252.998 856.095 252.007 855.066 251.308 853.768C250.636 852.447 250.356 850.915 250.468 849.174L251.222 837.44L256.211 837.761L255.554 848.6C255.456 850.134 255.733 851.3 256.386 852.098C257.04 852.897 257.951 853.334 259.121 853.409C260.264 853.483 261.211 853.165 261.961 852.456C262.737 851.75 263.174 850.629 263.273 849.096L263.969 838.259L268.998 838.582Z" fill="white"/>
<path d="M286.865 840.803L286.419 843.58C287.138 842.878 288.055 842.261 289.17 841.728C290.31 841.199 291.536 841.04 292.847 841.251C294.827 841.57 296.377 842.505 297.499 844.057C298.621 845.609 298.967 847.722 298.537 850.396L296.613 862.352L291.715 861.564L293.495 850.258C293.706 848.946 293.541 847.918 293.002 847.172C292.488 846.429 291.679 845.969 290.573 845.792C289.699 845.651 288.831 845.801 287.968 846.243C287.132 846.689 286.381 847.254 285.717 847.938L283.732 860.279L278.834 859.491L281.968 840.015L286.865 840.803Z" fill="white"/>
<path d="M320.398 847.125C322.264 847.608 323.76 848.425 324.888 849.578C326.04 850.737 326.783 852.126 327.117 853.746C327.483 855.347 327.424 857.081 326.941 858.946L326.413 860.988L312.572 857.406C312.491 858.757 312.854 859.953 313.66 860.996C314.466 862.039 315.601 862.749 317.063 863.128C318.449 863.486 319.782 863.535 321.06 863.274C322.338 863.013 323.392 862.681 324.223 862.278L323.03 866.73C322.288 867.103 321.24 867.41 319.886 867.651C318.564 867.874 317.185 867.799 315.748 867.427C313.857 866.938 312.241 866.062 310.9 864.801C309.584 863.545 308.652 862.053 308.104 860.324C307.582 858.602 307.568 856.783 308.064 854.867C308.547 853.001 309.404 851.407 310.634 850.085C311.864 848.762 313.331 847.824 315.034 847.27C316.745 846.69 318.533 846.642 320.398 847.125ZM319.198 851.293C318.013 850.986 316.923 851.094 315.927 851.616C314.931 852.138 314.122 852.978 313.499 854.135L322.651 856.504C322.902 855.117 322.659 853.978 321.921 853.087C321.19 852.172 320.282 851.573 319.198 851.293Z" fill="white"/>
</svg>
