<svg width="474" height="1473" viewBox="0 0 474 1473" fill="none" xmlns="http://www.w3.org/2000/svg">
<mask id="path-1-inside-1_165_779" fill="white">
<path fill-rule="evenodd" clip-rule="evenodd" d="M0 737.97L79.1091 787.413V787.97H394.899V787.408L474 737.97L394.899 688.531V687.97H394H80H79.1091V688.527L0 737.97Z"/>
</mask>
<path fill-rule="evenodd" clip-rule="evenodd" d="M0 737.97L79.1091 787.413V787.97H394.899V787.408L474 737.97L394.899 688.531V687.97H394H80H79.1091V688.527L0 737.97Z" fill="#4C0406"/>
<path d="M79.1091 787.413H94.1091V779.099L87.0591 774.693L79.1091 787.413ZM0 737.97L-7.94997 725.25L-28.302 737.97L-7.94997 750.69L0 737.97ZM79.1091 787.97H64.1091V802.97H79.1091V787.97ZM394.899 787.97V802.97H409.899V787.97H394.899ZM394.899 787.408L386.949 774.688L379.899 779.094V787.408H394.899ZM474 737.97L481.95 750.69L502.302 737.97L481.95 725.25L474 737.97ZM394.899 688.531H379.899V696.845L386.949 701.251L394.899 688.531ZM394.899 687.97H409.899V672.97H394.899V687.97ZM79.1091 687.97V672.97H64.1091V687.97H79.1091ZM79.1091 688.527L87.0591 701.247L94.1091 696.84V688.527H79.1091ZM87.0591 774.693L7.94997 725.25L-7.94997 750.69L71.1591 800.133L87.0591 774.693ZM94.1091 787.97V787.413H64.1091V787.97H94.1091ZM394.899 772.97H79.1091V802.97H394.899V772.97ZM379.899 787.408V787.97H409.899V787.408H379.899ZM402.849 800.128L481.95 750.69L466.05 725.25L386.949 774.688L402.849 800.128ZM481.95 725.25L402.849 675.811L386.949 701.251L466.05 750.69L481.95 725.25ZM379.899 687.97V688.531H409.899V687.97H379.899ZM394 702.97H394.899V672.97H394V702.97ZM80 702.97H394V672.97H80V702.97ZM79.1091 702.97H80V672.97H79.1091V702.97ZM94.1091 688.527V687.97H64.1091V688.527H94.1091ZM7.94997 750.69L87.0591 701.247L71.1591 675.807L-7.94997 725.25L7.94997 750.69Z" fill="#B82025" mask="url(#path-1-inside-1_165_779)"/>
<path d="M48.574 435.994C47.3331 427.245 53.4196 419.146 62.1686 417.905V417.905C70.9176 416.665 79.016 422.751 80.2569 431.5L151.175 931.496L119.492 935.989L48.574 435.994Z" fill="#D83A40"/>
<path d="M104.96 463.769C103.878 454.999 110.109 447.012 118.879 445.929V445.929C127.65 444.847 135.637 451.079 136.719 459.849L198.581 961.045L166.822 964.965L104.96 463.769Z" fill="#D83A40"/>
<path d="M158.794 427.538C158.356 418.713 165.155 411.202 173.98 410.764V410.764C182.806 410.325 190.316 417.124 190.755 425.95L215.826 930.327L183.865 931.916L158.794 427.538Z" fill="#D83A40"/>
<path d="M207.853 18.5312C207.421 9.70518 214.226 2.20036 223.052 1.7687V1.7687C231.878 1.33703 239.383 8.14199 239.815 16.968L264.484 521.365L232.522 522.928L207.853 18.5312Z" fill="#D83A40"/>
<path d="M277.097 431.963C277.344 423.13 284.705 416.17 293.538 416.416V416.416C302.371 416.663 309.332 424.024 309.085 432.857L294.988 937.66L263 936.767L277.097 431.963Z" fill="#D83A40"/>
<path d="M336.195 477.801C337.475 469.058 345.601 463.008 354.345 464.289V464.289C363.088 465.57 369.137 473.696 367.857 482.439L294.662 982.106L263 977.468L336.195 477.801Z" fill="#D83A40"/>
<path d="M385.468 445.899C386.298 437.101 394.103 430.643 402.901 431.474V431.474C411.698 432.304 418.157 440.109 417.326 448.907L369.858 951.671L338 948.663L385.468 445.899Z" fill="#D83A40"/>
<mask id="path-10-inside-2_165_779" fill="white">
<path d="M79 772.97H395V1472.97H79V772.97Z"/>
</mask>
<path d="M79 772.97H395V1472.97H79V772.97Z" fill="#D83A40"/>
<path d="M79 772.97V757.97H64V772.97H79ZM395 772.97H410V757.97H395V772.97ZM79 787.97H395V757.97H79V787.97ZM380 772.97V1472.97H410V772.97H380ZM94 1472.97V772.97H64V1472.97H94Z" fill="#B82025" mask="url(#path-10-inside-2_165_779)"/>
<path d="M71.5 791.472V1465.47H7.5V751.497L71.5 791.472Z" fill="#A81319" stroke="#A81319" stroke-width="15"/>
<path d="M402.5 791.472V1465.47H466.5V751.497L402.5 791.472Z" fill="#A81319" stroke="#A81319" stroke-width="15"/>
<path d="M130.296 926.002C133.845 925.265 137.191 925.081 140.333 925.45C143.475 925.819 146.19 926.436 148.478 927.301L151.109 939.873C148.624 938.984 146.006 938.219 143.254 937.578C140.501 936.937 137.534 936.947 134.352 937.607C132.761 937.938 131.221 938.513 129.733 939.333C128.305 940.14 127.174 941.141 126.338 942.336C125.564 943.518 125.337 944.873 125.657 946.403C126.079 948.422 127.286 949.767 129.279 950.438C131.271 951.11 133.661 951.699 136.449 952.205L144.628 953.762C149.296 954.707 152.915 956.286 155.485 958.497C158.054 960.708 159.691 963.496 160.395 966.861C161.163 970.531 160.771 973.996 159.218 977.255C157.713 980.44 155.353 983.196 152.136 985.523C148.981 987.838 145.262 989.441 140.978 990.33C137.367 991.08 133.782 991.186 130.221 990.649C126.661 990.112 123.471 989.21 120.652 987.944L118.022 975.373C121.124 976.771 124.437 977.807 127.962 978.479C131.487 979.151 135.086 979.106 138.757 978.344C141.327 977.81 143.428 976.863 145.059 975.503C146.677 974.082 147.275 972.362 146.853 970.343C146.52 968.753 145.486 967.627 143.752 966.966C142.065 966.231 140.264 965.711 138.349 965.407L128.126 963.699C122.969 962.855 119.227 961.143 116.899 958.563C114.619 955.908 113.102 952.776 112.347 949.167C111.566 945.435 111.897 941.983 113.341 938.811C114.833 935.565 117.071 932.834 120.055 930.618C123.027 928.342 126.44 926.803 130.296 926.002Z" fill="white"/>
<path d="M182.246 909.906C184.483 909.669 186.496 910.273 188.285 911.717C190.067 913.1 191.074 914.879 191.306 917.054C191.531 919.167 190.922 921.117 189.479 922.904C188.035 924.691 186.195 925.703 183.957 925.94C181.72 926.177 179.707 925.573 177.918 924.128C176.192 922.677 175.216 920.895 174.991 918.782C174.759 916.607 175.337 914.66 176.725 912.942C178.168 911.155 180.009 910.143 182.246 909.906ZM191.762 933.692L196.786 980.769L184.946 982.023L180.996 945.014L173.445 945.814L172.37 935.746L191.762 933.692Z" fill="white"/>
<path d="M234.902 930.462C237.465 930.468 240.057 931.067 242.679 932.26C245.302 933.453 247.486 935.051 249.232 937.055L249.243 931.711L261.149 931.736L261.049 979.08L249.142 979.055L249.159 971.086C247.779 973.646 245.774 975.86 243.145 977.73C240.516 979.537 237.452 980.436 233.952 980.429C230.14 980.421 226.61 979.445 223.364 977.5C220.181 975.556 217.625 972.738 215.695 969.047C213.765 965.355 212.806 960.884 212.817 955.634C212.828 950.384 213.807 945.886 215.752 942.14C217.76 938.395 220.423 935.525 223.739 933.532C227.119 931.477 230.84 930.454 234.902 930.462ZM237.315 942.092C234.815 942.087 232.657 942.739 230.842 944.047C229.089 945.294 227.711 946.947 226.706 949.007C225.702 951.068 225.197 953.285 225.192 955.66C225.185 959.223 226.241 962.256 228.36 964.761C230.543 967.266 233.415 968.522 236.977 968.529C239.102 968.534 241.072 967.975 242.887 966.854C244.765 965.733 246.268 964.174 247.397 962.176C248.589 960.116 249.188 957.649 249.194 954.774L249.208 948.024C247.525 946.208 245.684 944.766 243.686 943.699C241.751 942.633 239.627 942.097 237.315 942.092Z" fill="white"/>
<path d="M299.678 934.826L298.668 940.741C300.391 939.194 302.364 937.849 304.588 936.704C306.874 935.57 309.589 935.269 312.731 935.802C315.997 936.355 318.824 937.626 321.21 939.615C323.608 941.543 325.288 944.141 326.252 947.41C328.532 945.198 331.051 943.437 333.811 942.13C336.581 940.761 339.598 940.353 342.864 940.906C346.007 941.439 348.746 942.663 351.082 944.58C353.428 946.436 355.13 948.911 356.187 952.006C357.305 955.111 357.502 958.79 356.776 963.041L351.886 991.689L340.147 989.7L344.676 962.607C345.213 959.465 344.78 956.983 343.38 955.161C342.04 953.35 340.046 952.219 337.396 951.77C335.362 951.426 333.496 951.775 331.796 952.819C330.107 953.8 328.468 955.044 326.879 956.55L321.753 986.584L310.014 984.596L314.543 957.503C315.08 954.361 314.647 951.879 313.246 950.057C311.907 948.245 309.943 947.12 307.355 946.682C305.383 946.347 303.522 946.666 301.771 947.637C300.031 948.547 298.408 949.698 296.902 951.091L291.712 981.495L279.973 979.507L287.939 932.838L299.678 934.826Z" fill="white"/>
<path d="M188.323 1017.49C191.304 1017 194.095 1016.97 196.697 1017.38C199.299 1017.8 201.537 1018.41 203.41 1019.21L205.144 1029.77C203.108 1028.95 200.956 1028.22 198.689 1027.59C196.421 1026.96 193.951 1026.86 191.278 1027.3C189.942 1027.52 188.64 1027.94 187.371 1028.57C186.153 1029.2 185.175 1029.99 184.437 1030.96C183.749 1031.91 183.511 1033.03 183.722 1034.32C184 1036.02 184.957 1037.18 186.59 1037.81C188.224 1038.44 190.192 1039.01 192.494 1039.53L199.246 1041.11C203.097 1042.06 206.052 1043.51 208.111 1045.44C210.17 1047.37 211.431 1049.75 211.895 1052.57C212.401 1055.66 211.949 1058.53 210.538 1061.19C209.17 1063.79 207.106 1066 204.344 1067.83C201.634 1069.64 198.48 1070.85 194.882 1071.44C191.85 1071.94 188.862 1071.9 185.918 1071.33C182.973 1070.75 180.351 1069.89 178.051 1068.74L176.317 1058.18C178.848 1059.45 181.569 1060.43 184.478 1061.11C187.388 1061.8 190.385 1061.89 193.468 1061.38C195.627 1061.02 197.41 1060.31 198.817 1059.23C200.215 1058.11 200.775 1056.7 200.497 1055C200.277 1053.66 199.458 1052.69 198.038 1052.08C196.661 1051.41 195.181 1050.91 193.598 1050.59L185.151 1048.81C180.889 1047.93 177.836 1046.37 175.992 1044.14C174.191 1041.85 173.041 1039.19 172.544 1036.15C172.029 1033.02 172.43 1030.16 173.746 1027.56C175.106 1024.91 177.067 1022.72 179.632 1020.98C182.188 1019.19 185.085 1018.02 188.323 1017.49Z" fill="white"/>
<path d="M235.589 1007.02C237.464 1007.01 239.081 1007.68 240.44 1009.03C241.8 1010.33 242.483 1011.89 242.49 1013.71C242.497 1015.48 241.826 1017.05 240.478 1018.41C239.129 1019.77 237.517 1020.45 235.642 1020.46C233.767 1020.46 232.15 1019.79 230.79 1018.44C229.483 1017.1 228.826 1015.54 228.819 1013.77C228.811 1011.94 229.456 1010.38 230.753 1009.07C232.102 1007.71 233.714 1007.03 235.589 1007.02ZM241.451 1027.54L241.608 1067L231.686 1067.04L231.563 1036.02L225.235 1036.05L225.202 1027.61L241.451 1027.54Z" fill="white"/>
<path d="M281.765 1030.27C285.57 1030.88 288.704 1032.22 291.167 1034.3C293.68 1036.39 295.423 1039.02 296.393 1042.18C297.424 1045.3 297.634 1048.76 297.025 1052.57L296.358 1056.73L268.124 1052.21C268.219 1054.92 269.167 1057.23 270.969 1059.16C272.771 1061.08 275.163 1062.28 278.146 1062.76C280.974 1063.21 283.636 1063.06 286.132 1062.3C288.627 1061.54 290.664 1060.68 292.242 1059.71L290.707 1068.81C289.3 1069.69 287.272 1070.5 284.622 1071.23C282.032 1071.93 279.271 1072.04 276.34 1071.57C272.483 1070.95 269.1 1069.51 266.191 1067.25C263.334 1065 261.197 1062.21 259.78 1058.87C258.414 1055.54 258.044 1051.92 258.67 1048.01C259.279 1044.21 260.683 1040.87 262.882 1038C265.082 1035.14 267.825 1032.99 271.113 1031.57C274.408 1030.09 277.959 1029.66 281.765 1030.27ZM280.163 1038.79C277.745 1038.41 275.595 1038.83 273.71 1040.05C271.826 1041.28 270.373 1043.11 269.353 1045.53L288.021 1048.52C288.26 1045.71 287.561 1043.48 285.924 1041.85C284.294 1040.17 282.374 1039.15 280.163 1038.79Z" fill="white"/>
<path d="M162.883 847.759L163.966 851.756L159.028 853.095L163.107 868.137L158.319 869.436L154.239 854.393L151.337 855.18L150.253 851.184L153.156 850.397L152.696 848.7C152.3 847.243 152.265 845.917 152.588 844.723C152.931 843.497 153.529 842.471 154.385 841.645C155.24 840.82 156.271 840.243 157.477 839.916C158.282 839.698 159.009 839.595 159.66 839.608C160.311 839.62 160.904 839.716 161.438 839.894L162.522 843.891C161.556 843.613 160.536 843.633 159.462 843.951C158.715 844.181 158.142 844.606 157.744 845.227C157.339 845.822 157.279 846.648 157.566 847.704L157.944 849.099L162.883 847.759Z" fill="white"/>
<path d="M182.259 843.12C184.154 842.773 185.968 842.918 187.699 843.554C189.426 844.165 190.906 845.165 192.14 846.554C193.394 847.913 194.197 849.553 194.549 851.475C194.9 853.396 194.73 855.214 194.037 856.929C193.371 858.639 192.34 860.099 190.947 861.307C189.548 862.489 187.901 863.254 186.005 863.6C184.135 863.942 182.324 863.81 180.572 863.204C178.84 862.568 177.36 861.568 176.131 860.204C174.902 858.841 174.112 857.198 173.761 855.277C173.409 853.356 173.567 851.54 174.234 849.83C174.896 848.094 175.926 846.634 177.324 845.452C178.744 844.239 180.389 843.462 182.259 843.12ZM183.123 847.846C182.201 848.015 181.383 848.39 180.668 848.97C179.954 849.551 179.428 850.296 179.092 851.205C178.78 852.109 178.733 853.15 178.948 854.328C179.164 855.507 179.577 856.463 180.188 857.199C180.825 857.93 181.58 858.44 182.454 858.73C183.323 858.995 184.218 859.043 185.141 858.874C186.063 858.705 186.883 858.344 187.603 857.788C188.317 857.208 188.843 856.463 189.179 855.554C189.516 854.645 189.577 853.602 189.361 852.423C189.146 851.245 188.72 850.291 188.083 849.56C187.446 848.829 186.691 848.319 185.817 848.028C184.944 847.738 184.046 847.677 183.123 847.846Z" fill="white"/>
<path d="M217.127 844.668C216.253 844.281 215.362 844.131 214.455 844.218C213.314 844.327 212.404 844.793 211.724 845.617C211.042 846.415 210.468 847.385 210.002 848.529L211.051 859.494L206.112 859.967L204.234 840.33L209.172 839.857L209.525 843.551C210.088 842.32 210.785 841.273 211.618 840.408C212.477 839.541 213.49 839.052 214.656 838.94C215.356 838.873 216.003 838.929 216.595 839.108L217.127 844.668Z" fill="white"/>
<path d="M234.322 832.665L234.445 838.406L239.912 838.289L240.001 842.429L234.534 842.545L234.716 851.059C234.735 851.944 234.945 852.643 235.346 853.155C235.774 853.641 236.391 853.876 237.198 853.858C237.901 853.843 238.498 853.752 238.989 853.586C239.507 853.418 239.984 853.187 240.42 852.891L240.504 856.835C240.02 857.34 239.404 857.77 238.657 858.125C237.935 858.479 237.014 858.668 235.895 858.692C234.124 858.73 232.667 858.201 231.524 857.105C230.406 855.983 229.826 854.433 229.783 852.454L229.574 842.652L226.02 842.728L225.966 840.189C227.206 839.72 228.334 838.862 229.349 837.616C230.39 836.37 231.202 834.737 231.784 832.719L234.322 832.665Z" fill="white"/>
<path d="M268.998 839.558L268.244 851.292C268.132 853.033 267.645 854.515 266.784 855.739C265.924 856.936 264.797 857.829 263.402 858.418C262.033 859.009 260.504 859.25 258.815 859.141C257.1 859.031 255.588 858.595 254.28 857.832C252.998 857.071 252.007 856.042 251.308 854.745C250.636 853.423 250.356 851.891 250.468 850.15L251.222 838.416L256.211 838.737L255.554 849.576C255.456 851.11 255.733 852.276 256.386 853.074C257.04 853.873 257.951 854.31 259.121 854.385C260.264 854.459 261.211 854.141 261.961 853.433C262.737 852.726 263.174 851.606 263.273 850.072L263.969 839.235L268.998 839.558Z" fill="white"/>
<path d="M286.865 841.779L286.419 844.556C287.138 843.854 288.055 843.237 289.17 842.704C290.31 842.175 291.536 842.016 292.847 842.227C294.827 842.546 296.377 843.481 297.499 845.033C298.621 846.586 298.967 848.699 298.537 851.372L296.613 863.328L291.715 862.54L293.495 851.234C293.706 849.923 293.541 848.894 293.002 848.148C292.488 847.406 291.679 846.946 290.573 846.768C289.699 846.627 288.831 846.777 287.968 847.219C287.132 847.665 286.381 848.23 285.717 848.914L283.732 861.255L278.834 860.467L281.968 840.991L286.865 841.779Z" fill="white"/>
<path d="M320.398 848.101C322.264 848.584 323.76 849.401 324.888 850.554C326.04 851.713 326.783 853.103 327.117 854.722C327.483 856.323 327.424 858.057 326.941 859.922L326.413 861.964L312.572 858.382C312.491 859.733 312.854 860.929 313.66 861.972C314.466 863.015 315.601 863.725 317.063 864.104C318.449 864.463 319.782 864.512 321.06 864.251C322.338 863.99 323.392 863.657 324.223 863.254L323.03 867.706C322.288 868.079 321.24 868.386 319.886 868.627C318.564 868.85 317.185 868.775 315.748 868.404C313.857 867.914 312.241 867.038 310.9 865.777C309.584 864.521 308.652 863.029 308.104 861.301C307.582 859.578 307.568 857.759 308.064 855.843C308.547 853.977 309.404 852.383 310.634 851.061C311.864 849.738 313.331 848.8 315.034 848.246C316.745 847.666 318.533 847.618 320.398 848.101ZM319.198 852.269C318.013 851.962 316.923 852.07 315.927 852.592C314.931 853.115 314.122 853.954 313.499 855.111L322.651 857.48C322.902 856.093 322.659 854.954 321.921 854.063C321.19 853.148 320.282 852.55 319.198 852.269Z" fill="white"/>
</svg>
