<svg width="476" height="1042" viewBox="0 0 476 1042" fill="none" xmlns="http://www.w3.org/2000/svg">
<mask id="path-1-inside-1_158_372" fill="white">
<path fill-rule="evenodd" clip-rule="evenodd" d="M1.37465 305.587L80.3973 355.168L80.3964 355.725L396.185 356.276L396.186 355.714L475.374 306.414L396.359 256.838L396.36 256.276L395.461 256.275L81.4618 255.727L80.5709 255.725L80.5699 256.282L1.37465 305.587Z"/>
</mask>
<path fill-rule="evenodd" clip-rule="evenodd" d="M1.37465 305.587L80.3973 355.168L80.3964 355.725L396.185 356.276L396.186 355.714L475.374 306.414L396.359 256.838L396.36 256.276L395.461 256.275L81.4618 255.727L80.5709 255.725L80.5699 256.282L1.37465 305.587Z" fill="#4C0406"/>
<path d="M80.3973 355.168L95.3973 355.194L95.4118 346.88L88.3695 342.462L80.3973 355.168ZM1.37465 305.587L-6.55311 292.853L-26.9273 305.537L-6.59751 318.293L1.37465 305.587ZM80.3964 355.725L65.3964 355.699L65.3702 370.699L80.3702 370.725L80.3964 355.725ZM396.185 356.276L396.159 371.276L411.159 371.302L411.185 356.302L396.185 356.276ZM396.186 355.714L388.259 342.98L381.201 347.374L381.186 355.688L396.186 355.714ZM475.374 306.414L483.302 319.148L503.676 306.464L483.346 293.708L475.374 306.414ZM396.359 256.838L381.359 256.812L381.344 265.125L388.387 269.544L396.359 256.838ZM396.36 256.276L411.36 256.302L411.386 241.302L396.386 241.276L396.36 256.276ZM80.5709 255.725L80.5971 240.725L65.5971 240.699L65.5709 255.699L80.5709 255.725ZM80.5699 256.282L88.4977 269.016L95.5554 264.622L95.5699 256.308L80.5699 256.282ZM88.3695 342.462L9.34681 292.881L-6.59751 318.293L72.4252 367.874L88.3695 342.462ZM95.3963 355.751L95.3973 355.194L65.3974 355.142L65.3964 355.699L95.3963 355.751ZM396.212 341.276L80.4225 340.725L80.3702 370.725L396.159 371.276L396.212 341.276ZM381.186 355.688L381.185 356.25L411.185 356.302L411.186 355.74L381.186 355.688ZM404.114 368.448L483.302 319.148L467.446 293.68L388.259 342.98L404.114 368.448ZM483.346 293.708L404.331 244.132L388.387 269.544L467.402 319.12L483.346 293.708ZM381.36 256.25L381.359 256.812L411.359 256.864L411.36 256.302L381.36 256.25ZM395.435 271.275L396.334 271.276L396.386 241.276L395.487 241.275L395.435 271.275ZM81.4356 270.727L395.435 271.275L395.487 241.275L81.488 240.727L81.4356 270.727ZM80.5447 270.725L81.4356 270.727L81.488 240.727L80.5971 240.725L80.5447 270.725ZM95.5699 256.308L95.5709 255.751L65.5709 255.699L65.5699 256.256L95.5699 256.308ZM9.30241 318.321L88.4977 269.016L72.6422 243.548L-6.55311 292.853L9.30241 318.321Z" fill="#B82025" mask="url(#path-1-inside-1_158_372)"/>
<path d="M52.5459 24.269C51.3971 15.5074 57.5685 7.47349 66.33 6.32467C75.0916 5.17586 83.1255 11.3472 84.2744 20.1088L149.928 520.823L118.199 524.983L52.5459 24.269Z" fill="#D83A40"/>
<path d="M108.863 52.1854C107.872 43.4046 114.187 35.4829 122.967 34.4918C131.748 33.5006 139.67 39.8154 140.661 48.5962L197.303 550.41L165.505 553.999L108.863 52.1854Z" fill="#D83A40"/>
<path d="M161.929 18.2935C161.551 9.465 168.402 2.00189 177.23 1.62414C186.059 1.2464 193.522 8.09708 193.9 16.9256L215.487 521.464L183.517 522.832L161.929 18.2935Z" fill="#D83A40"/>
<path d="M212.672 36.1941C212.363 27.3629 219.272 19.9539 228.104 19.6455C236.935 19.3371 244.344 26.2462 244.652 35.0773L262.276 539.77L230.296 540.886L212.672 36.1941Z" fill="#D83A40"/>
<path d="M277.687 23.1139C277.903 14.28 285.239 7.29367 294.073 7.50957C302.907 7.72546 309.894 15.0618 309.678 23.8957L297.339 528.745L265.349 527.963L277.687 23.1139Z" fill="#D83A40"/>
<path d="M336.264 66.87C337.498 58.1201 345.592 52.0275 354.342 53.2619C363.092 54.4963 369.185 62.5902 367.95 71.3401L297.406 571.389L265.72 566.918L336.264 66.87Z" fill="#D83A40"/>
<path d="M389.008 37.2469C389.915 28.457 397.776 22.0665 406.566 22.9733C415.356 23.8801 421.746 31.7409 420.84 40.5308L369.017 542.865L337.186 539.581L389.008 37.2469Z" fill="#D83A40"/>
<mask id="path-10-inside-2_158_372" fill="white">
<path d="M80.3135 340.725L396.313 341.276L395.091 1041.28L79.0917 1040.72L80.3135 340.725Z"/>
</mask>
<path d="M80.3135 340.725L396.313 341.276L395.091 1041.28L79.0917 1040.72L80.3135 340.725Z" fill="#D83A40"/>
<path d="M80.3135 340.725L80.3397 325.725L65.3397 325.699L65.3135 340.699L80.3135 340.725ZM396.313 341.276L411.313 341.302L411.339 326.302L396.339 326.276L396.313 341.276ZM80.2873 355.725L396.287 356.276L396.339 326.276L80.3397 325.725L80.2873 355.725ZM381.313 341.25L380.091 1041.25L410.091 1041.3L411.313 341.302L381.313 341.25ZM94.0917 1040.75L95.3135 340.751L65.3135 340.699L64.0918 1040.7L94.0917 1040.75Z" fill="#B82025" mask="url(#path-10-inside-2_158_372)"/>
<path d="M72.7815 359.214L71.6052 1033.21L7.60526 1033.1L8.85138 319.127L72.7815 359.214Z" fill="#A81319" stroke="#A81319" stroke-width="15"/>
<path d="M403.781 359.791L402.604 1033.79L466.604 1033.9L467.85 319.928L403.781 359.791Z" fill="#A81319" stroke="#A81319" stroke-width="15"/>
<path d="M131.343 493.847C134.893 493.116 138.239 492.938 141.381 493.312C144.522 493.686 147.236 494.308 149.523 495.177L152.131 507.753C149.648 506.861 147.031 506.091 144.28 505.445C141.529 504.799 138.562 504.804 135.379 505.459C133.787 505.786 132.246 506.359 130.756 507.176C129.327 507.981 128.194 508.98 127.357 510.173C126.58 511.354 126.351 512.709 126.668 514.239C127.087 516.259 128.292 517.606 130.283 518.281C132.274 518.956 134.663 519.549 137.45 520.06L145.627 521.631C150.293 522.585 153.909 524.17 156.475 526.385C159.041 528.601 160.673 531.392 161.371 534.757C162.133 538.429 161.734 541.893 160.175 545.149C158.665 548.332 156.3 551.084 153.079 553.406C149.92 555.715 146.198 557.311 141.913 558.193C138.301 558.937 134.715 559.037 131.156 558.493C127.596 557.95 124.408 557.043 121.591 555.772L118.983 543.196C122.082 544.6 125.394 545.641 128.918 546.319C132.442 546.998 136.04 546.959 139.713 546.203C142.284 545.674 144.386 544.73 146.02 543.373C147.64 541.955 148.241 540.236 147.822 538.216C147.492 536.625 146.461 535.498 144.727 534.834C143.042 534.096 141.242 533.573 139.327 533.265L129.108 531.54C123.952 530.687 120.212 528.968 117.889 526.384C115.614 523.725 114.102 520.591 113.353 516.98C112.579 513.247 112.916 509.795 114.365 506.626C115.863 503.382 118.106 500.655 121.094 498.445C124.07 496.173 127.486 494.641 131.343 493.847Z" fill="white"/>
<path d="M183.32 477.841C185.558 477.608 187.57 478.215 189.356 479.663C191.135 481.049 192.139 482.829 192.368 485.005C192.59 487.118 191.977 489.067 190.531 490.852C189.084 492.636 187.242 493.645 185.004 493.878C182.766 494.111 180.754 493.504 178.968 492.056C177.244 490.602 176.272 488.818 176.05 486.705C175.821 484.529 176.403 482.583 177.794 480.868C179.24 479.083 181.083 478.074 183.32 477.841ZM192.795 501.644L197.737 548.729L185.895 549.963L182.009 512.947L174.457 513.734L173.4 503.664L192.795 501.644Z" fill="white"/>
<path d="M235.941 498.489C238.503 498.499 241.095 499.103 243.715 500.3C246.336 501.498 248.517 503.1 250.259 505.107L250.28 499.763L262.186 499.809L262.003 547.152L250.097 547.107L250.127 539.138C248.742 541.695 246.734 543.906 244.102 545.771C241.47 547.573 238.404 548.468 234.904 548.454C231.091 548.44 227.564 547.457 224.321 545.507C221.141 543.557 218.59 540.735 216.667 537.04C214.743 533.345 213.792 528.873 213.812 523.623C213.833 518.373 214.819 513.877 216.771 510.134C218.785 506.392 221.453 503.527 224.773 501.54C228.156 499.49 231.878 498.473 235.941 498.489ZM238.333 510.123C235.833 510.114 233.675 510.762 231.857 512.067C230.102 513.31 228.721 514.961 227.713 517.02C226.705 519.079 226.196 521.295 226.187 523.67C226.173 527.233 227.224 530.268 229.339 532.776C231.517 535.285 234.387 536.546 237.95 536.56C240.075 536.568 242.046 536.013 243.863 534.895C245.742 533.777 247.248 532.22 248.381 530.225C249.576 528.167 250.179 525.7 250.191 522.825L250.217 516.076C248.536 514.257 246.698 512.812 244.702 511.742C242.769 510.672 240.646 510.132 238.333 510.123Z" fill="white"/>
<path d="M300.709 502.966L299.689 508.879C301.414 507.335 303.39 505.993 305.616 504.853C307.904 503.723 310.619 503.426 313.761 503.964C317.026 504.523 319.85 505.799 322.233 507.793C324.627 509.724 326.303 512.326 327.261 515.597C329.545 513.388 332.068 511.632 334.829 510.329C337.601 508.965 340.62 508.562 343.885 509.121C347.027 509.659 349.764 510.889 352.096 512.81C354.439 514.669 356.137 517.148 357.188 520.244C358.301 523.352 358.491 527.03 357.758 531.28L352.818 559.92L341.083 557.911L345.659 530.826C346.201 527.685 345.773 525.202 344.375 523.377C343.039 521.563 341.047 520.43 338.398 519.976C336.365 519.628 334.498 519.974 332.796 521.015C331.105 521.993 329.464 523.234 327.873 524.737L322.694 554.763L310.958 552.753L315.535 525.669C316.077 522.527 315.649 520.045 314.251 518.22C312.915 516.406 310.953 515.278 308.366 514.835C306.395 514.497 304.533 514.813 302.78 515.781C301.038 516.687 299.413 517.836 297.905 519.226L292.662 549.621L280.927 547.612L288.974 500.957L300.709 502.966Z" fill="white"/>
<path d="M189.21 585.438C192.191 584.954 194.983 584.923 197.584 585.345C200.185 585.767 202.422 586.38 204.294 587.184L206.009 597.749C203.975 596.918 201.824 596.186 199.558 595.551C197.291 594.916 194.822 594.816 192.148 595.25C190.812 595.467 189.508 595.89 188.238 596.518C187.02 597.138 186.041 597.93 185.3 598.895C184.611 599.851 184.371 600.972 184.58 602.257C184.855 603.953 185.809 605.118 187.442 605.75C189.075 606.381 191.042 606.959 193.343 607.482L200.092 609.078C203.941 610.036 206.893 611.482 208.949 613.418C211.004 615.353 212.261 617.734 212.721 620.562C213.221 623.646 212.764 626.517 211.349 629.174C209.976 631.771 207.908 633.98 205.143 635.801C202.43 637.614 199.274 638.812 195.675 639.396C192.642 639.889 189.654 639.846 186.71 639.269C183.767 638.691 181.147 637.824 178.848 636.667L177.133 626.102C179.662 627.38 182.381 628.363 185.289 629.052C188.198 629.741 191.194 629.834 194.279 629.334C196.438 628.983 198.222 628.271 199.631 627.198C201.031 626.074 201.593 624.664 201.318 622.967C201.101 621.63 200.283 620.655 198.864 620.041C197.489 619.368 196.009 618.869 194.427 618.546L185.983 616.751C181.723 615.859 178.672 614.297 176.832 612.063C175.035 609.769 173.89 607.105 173.398 604.072C172.889 600.936 173.295 598.074 174.616 595.485C175.98 592.836 177.945 590.644 180.513 588.908C183.072 587.121 185.971 585.964 189.21 585.438Z" fill="white"/>
<path d="M236.493 575.048C238.368 575.044 239.984 575.717 241.342 577.068C242.699 578.367 243.379 579.928 243.383 581.751C243.387 583.522 242.714 585.086 241.362 586.443C240.011 587.8 238.398 588.481 236.523 588.485C234.648 588.489 233.032 587.816 231.675 586.465C230.37 585.113 229.715 583.552 229.711 581.782C229.707 579.959 230.355 578.395 231.654 577.09C233.005 575.733 234.618 575.052 236.493 575.048ZM242.32 595.582L242.408 635.035L232.486 635.057L232.417 604.041L226.089 604.055L226.07 595.618L242.32 595.582Z" fill="white"/>
<path d="M282.629 598.375C286.434 598.991 289.566 600.342 292.024 602.428C294.534 604.523 296.272 607.152 297.237 610.316C298.262 613.436 298.467 616.899 297.851 620.704L297.177 624.868L268.951 620.299C269.04 623.005 269.984 625.321 271.783 627.247C273.582 629.174 275.972 630.379 278.954 630.861C281.782 631.319 284.444 631.17 286.941 630.413C289.437 629.657 291.475 628.799 293.055 627.842L291.505 636.929C290.096 637.809 288.066 638.615 285.415 639.347C282.824 640.035 280.063 640.142 277.133 639.668C273.277 639.044 269.896 637.6 266.991 635.336C264.138 633.08 262.006 630.281 260.595 626.94C259.235 623.607 258.871 619.987 259.503 616.079C260.119 612.275 261.529 608.941 263.734 606.08C265.938 603.218 268.685 601.078 271.975 599.658C275.273 598.187 278.825 597.759 282.629 598.375ZM281.012 606.898C278.596 606.507 276.444 606.924 274.558 608.148C272.671 609.373 271.216 611.195 270.191 613.615L288.854 616.636C289.098 613.826 288.402 611.603 286.768 609.967C285.142 608.279 283.223 607.256 281.012 606.898Z" fill="white"/>
<path d="M164.066 415.66L165.142 419.659L160.201 420.989L164.254 436.039L159.464 437.329L155.411 422.279L152.506 423.061L151.43 419.063L154.334 418.281L153.877 416.584C153.484 415.125 153.451 413.799 153.777 412.606C154.121 411.38 154.721 410.356 155.578 409.531C156.435 408.707 157.467 408.133 158.674 407.808C159.479 407.591 160.207 407.49 160.857 407.503C161.508 407.517 162.101 407.613 162.635 407.793L163.711 411.791C162.746 411.512 161.726 411.53 160.652 411.847C159.904 412.075 159.331 412.499 158.931 413.119C158.525 413.714 158.464 414.539 158.749 415.595L159.124 416.991L164.066 415.66Z" fill="white"/>
<path d="M183.45 411.055C185.346 410.712 187.159 410.86 188.89 411.499C190.615 412.113 192.093 413.116 193.325 414.507C194.577 415.868 195.377 417.51 195.725 419.431C196.073 421.353 195.9 423.171 195.204 424.885C194.535 426.594 193.502 428.052 192.106 429.257C190.705 430.437 189.057 431.199 187.16 431.542C185.29 431.881 183.479 431.746 181.728 431.137C179.998 430.497 178.519 429.495 177.293 428.129C176.066 426.763 175.279 425.119 174.931 423.198C174.583 421.276 174.743 419.46 175.413 417.751C176.078 416.016 177.111 414.559 178.512 413.379C179.933 412.169 181.579 411.394 183.45 411.055ZM184.306 415.783C183.384 415.95 182.565 416.323 181.849 416.903C181.134 417.482 180.607 418.226 180.269 419.134C179.956 420.038 179.906 421.079 180.12 422.258C180.333 423.437 180.745 424.394 181.355 425.131C181.99 425.862 182.744 426.374 183.618 426.666C184.486 426.932 185.382 426.982 186.304 426.814C187.227 426.647 188.048 426.287 188.768 425.733C189.484 425.154 190.01 424.41 190.349 423.502C190.687 422.593 190.75 421.55 190.536 420.371C190.323 419.192 189.898 418.237 189.263 417.505C188.627 416.774 187.873 416.262 187 415.97C186.127 415.678 185.229 415.616 184.306 415.783Z" fill="white"/>
<path d="M218.316 412.664C217.442 412.276 216.552 412.124 215.644 412.209C214.504 412.316 213.593 412.781 212.911 413.604C212.228 414.4 211.652 415.37 211.184 416.512L212.214 427.48L207.275 427.943L205.43 408.303L210.369 407.839L210.716 411.534C211.281 410.304 211.98 409.257 212.814 408.394C213.675 407.529 214.688 407.041 215.855 406.932C216.555 406.866 217.201 406.923 217.794 407.103L218.316 412.664Z" fill="white"/>
<path d="M235.532 400.691L235.645 406.432L241.113 406.325L241.194 410.464L235.726 410.572L235.893 419.086C235.911 419.971 236.12 420.67 236.521 421.183C236.947 421.67 237.564 421.905 238.371 421.889C239.074 421.875 239.671 421.786 240.163 421.62C240.68 421.453 241.158 421.222 241.595 420.927L241.672 424.872C241.187 425.376 240.571 425.805 239.822 426.159C239.1 426.511 238.179 426.699 237.059 426.721C235.289 426.755 233.833 426.224 232.691 425.126C231.575 424.002 230.998 422.451 230.959 420.472L230.766 410.669L227.212 410.739L227.162 408.2C228.403 407.733 229.533 406.878 230.55 405.633C231.594 404.389 232.408 402.758 232.994 400.741L235.532 400.691Z" fill="white"/>
<path d="M270.195 407.645L269.421 419.377C269.306 421.118 268.817 422.599 267.953 423.821C267.091 425.017 265.962 425.908 264.566 426.495C263.197 427.083 261.667 427.321 259.978 427.21C258.263 427.097 256.752 426.658 255.446 425.893C254.165 425.13 253.176 424.099 252.479 422.8C251.809 421.477 251.532 419.945 251.647 418.204L252.421 406.472L257.41 406.801L256.734 417.639C256.633 419.173 256.908 420.339 257.56 421.139C258.212 421.939 259.123 422.377 260.292 422.454C261.435 422.53 262.383 422.214 263.134 421.507C263.911 420.801 264.351 419.682 264.452 418.149L265.167 407.313L270.195 407.645Z" fill="white"/>
<path d="M288.058 409.897L287.607 412.673C288.327 411.973 289.246 411.357 290.361 410.826C291.502 410.299 292.728 410.143 294.039 410.356C296.018 410.678 297.567 411.616 298.686 413.17C299.805 414.724 300.148 416.838 299.713 419.511L297.768 431.463L292.871 430.666L294.671 419.363C294.884 418.052 294.722 417.023 294.184 416.276C293.671 415.533 292.863 415.072 291.757 414.892C290.883 414.75 290.015 414.899 289.152 415.339C288.314 415.783 287.563 416.347 286.898 417.03L284.89 429.368L279.994 428.571L283.162 409.101L288.058 409.897Z" fill="white"/>
<path d="M321.581 416.277C323.445 416.763 324.941 417.583 326.066 418.738C327.216 419.899 327.957 421.29 328.288 422.91C328.651 424.512 328.59 426.245 328.103 428.11L327.571 430.151L313.737 426.544C313.654 427.895 314.014 429.092 314.819 430.136C315.623 431.18 316.756 431.893 318.217 432.274C319.603 432.635 320.936 432.687 322.214 432.428C323.493 432.169 324.548 431.839 325.379 431.436L324.179 435.887C323.436 436.258 322.387 436.564 321.033 436.803C319.711 437.023 318.332 436.946 316.895 436.571C315.005 436.079 313.391 435.2 312.052 433.936C310.738 432.679 309.809 431.185 309.264 429.455C308.744 427.732 308.734 425.913 309.234 423.998C309.72 422.133 310.579 420.54 311.811 419.22C313.044 417.9 314.512 416.964 316.217 416.412C317.928 415.836 319.716 415.791 321.581 416.277ZM320.373 420.443C319.189 420.134 318.098 420.24 317.102 420.761C316.105 421.281 315.294 422.119 314.67 423.275L323.817 425.66C324.071 424.273 323.83 423.134 323.094 422.242C322.364 421.325 321.457 420.725 320.373 420.443Z" fill="white"/>
</svg>
