<svg width="480" height="1043" viewBox="0 0 480 1043" fill="none" xmlns="http://www.w3.org/2000/svg">
<mask id="path-1-inside-1_161_76" fill="white">
<path fill-rule="evenodd" clip-rule="evenodd" d="M3.84855 304.969L82.6977 354.825L82.6948 355.382L398.48 357.036L398.483 356.474L477.842 307.451L399.001 257.599L399.003 257.037L398.105 257.033L84.1093 255.388L83.2184 255.384L83.2154 255.941L3.84855 304.969Z"/>
</mask>
<path fill-rule="evenodd" clip-rule="evenodd" d="M3.84855 304.969L82.6977 354.825L82.6948 355.382L398.48 357.036L398.483 356.474L477.842 307.451L399.001 257.599L399.003 257.037L398.105 257.033L84.1093 255.388L83.2184 255.384L83.2154 255.941L3.84855 304.969Z" fill="#4C0406"/>
<path d="M82.6977 354.825L97.6975 354.904L97.741 346.59L90.7141 342.147L82.6977 354.825ZM3.84855 304.969L-4.03471 292.207L-24.453 304.821L-4.16791 317.647L3.84855 304.969ZM82.6948 355.382L67.695 355.304L67.6164 370.304L82.6162 370.382L82.6948 355.382ZM398.48 357.036L398.401 372.036L413.401 372.114L413.48 357.114L398.48 357.036ZM398.483 356.474L390.6 343.713L383.527 348.082L383.483 356.396L398.483 356.474ZM477.842 307.451L485.725 320.212L506.144 307.599L485.858 294.772L477.842 307.451ZM399.001 257.599L384.001 257.52L383.957 265.834L390.984 270.277L399.001 257.599ZM399.003 257.037L414.003 257.116L414.082 242.116L399.082 242.037L399.003 257.037ZM398.105 257.033L398.026 272.032L398.105 257.033ZM84.1093 255.388L84.0307 270.388L84.1093 255.388ZM83.2184 255.384L83.2969 240.384L68.2971 240.305L68.2186 255.305L83.2184 255.384ZM83.2154 255.941L91.0987 268.702L98.1717 264.333L98.2152 256.019L83.2154 255.941ZM90.7141 342.147L11.865 292.291L-4.16791 317.647L74.6812 367.504L90.7141 342.147ZM97.6946 355.461L97.6975 354.904L67.6979 354.747L67.695 355.304L97.6946 355.461ZM398.558 342.036L82.7733 340.383L82.6162 370.382L398.401 372.036L398.558 342.036ZM383.483 356.396L383.48 356.957L413.48 357.114L413.483 356.553L383.483 356.396ZM406.366 369.236L485.725 320.212L469.959 294.689L390.6 343.713L406.366 369.236ZM485.858 294.772L407.017 244.921L390.984 270.277L469.826 320.129L485.858 294.772ZM384.004 256.959L384.001 257.52L414 257.677L414.003 257.116L384.004 256.959ZM398.026 272.032L398.925 272.037L399.082 242.037L398.183 242.033L398.026 272.032ZM84.0307 270.388L398.026 272.032L398.183 242.033L84.1878 240.389L84.0307 270.388ZM83.1398 270.384L84.0307 270.388L84.1878 240.389L83.2969 240.384L83.1398 270.384ZM98.2152 256.019L98.2182 255.462L68.2186 255.305L68.2157 255.862L98.2152 256.019ZM11.7318 317.73L91.0987 268.702L75.3322 243.179L-4.03471 292.207L11.7318 317.73Z" fill="#B82025" mask="url(#path-1-inside-1_161_76)"/>
<path d="M58.943 23.2772C57.9319 14.4987 64.2287 6.5627 73.0072 5.55165V5.55165C81.7858 4.5406 89.7218 10.8374 90.7328 19.6159L148.513 521.299L116.724 524.961L58.943 23.2772Z" fill="#D83A40"/>
<path d="M111.8 52.0187C110.824 43.2362 117.153 35.3255 125.935 34.3497V34.3497C134.718 33.3739 142.629 39.7025 143.604 48.485L199.371 550.397L167.566 553.93L111.8 52.0187Z" fill="#D83A40"/>
<path d="M165.83 18.1933C165.498 9.36298 172.388 1.93585 181.218 1.60434V1.60434C190.049 1.27283 197.476 8.16249 197.807 16.9928L216.753 521.637L184.775 522.838L165.83 18.1933Z" fill="#D83A40"/>
<path d="M217.936 36.2358C217.689 27.4027 224.65 20.0421 233.483 19.7953V19.7953C242.316 19.5486 249.677 26.5092 249.924 35.3423L264.024 540.145L232.036 541.039L217.936 36.2358Z" fill="#D83A40"/>
<path d="M279.864 23.5133C280.064 14.679 287.388 7.67998 296.222 7.88045V7.88045C305.057 8.08093 312.056 15.4051 311.855 24.2393L300.398 529.109L268.406 528.383L279.864 23.5133Z" fill="#D83A40"/>
<path d="M338.716 67.3569C339.95 58.607 348.044 52.5145 356.794 53.7489V53.7489C365.544 54.9833 371.637 63.0771 370.402 71.827L299.858 571.876L268.172 567.405L338.716 67.3569Z" fill="#D83A40"/>
<path d="M394.126 38.0597C395.125 29.2798 403.052 22.9719 411.832 23.9707V23.9707C420.612 24.9695 426.92 32.8967 425.921 41.6767L368.841 543.44L337.046 539.823L394.126 38.0597Z" fill="#D83A40"/>
<mask id="path-10-inside-2_161_76" fill="white">
<path d="M82.6641 340.382L398.66 342.037L394.995 1042.03L78.9989 1040.37L82.6641 340.382Z"/>
</mask>
<path d="M82.6641 340.382L398.66 342.037L394.995 1042.03L78.9989 1040.37L82.6641 340.382Z" fill="#D83A40"/>
<path d="M82.6641 340.382L82.7426 325.382L67.7428 325.304L67.6643 340.303L82.6641 340.382ZM398.66 342.037L413.66 342.115L413.738 327.115L398.738 327.037L398.66 342.037ZM82.5855 355.382L398.581 357.036L398.738 327.037L82.7426 325.382L82.5855 355.382ZM383.66 341.958L379.995 1041.95L409.994 1042.11L413.66 342.115L383.66 341.958ZM93.9987 1040.45L97.6639 340.46L67.6643 340.303L63.9991 1040.29L93.9987 1040.45Z" fill="#B82025" mask="url(#path-10-inside-2_161_76)"/>
<path d="M75.0675 358.845L71.5385 1032.83L7.53937 1032.5L11.2777 318.535L75.0675 358.845Z" fill="#A81319" stroke="#A81319" stroke-width="15"/>
<path d="M406.063 360.578L402.534 1034.57L466.533 1034.9L470.271 320.939L406.063 360.578Z" fill="#A81319" stroke="#A81319" stroke-width="15"/>
<path d="M133.158 493.681C136.711 492.963 140.058 492.796 143.198 493.181C146.338 493.567 149.05 494.198 151.334 495.075L153.898 507.66C151.418 506.759 148.804 505.98 146.055 505.325C143.306 504.669 140.339 504.663 137.154 505.307C135.561 505.629 134.018 506.196 132.525 507.008C131.094 507.808 129.957 508.803 129.115 509.994C128.335 511.172 128.1 512.526 128.412 514.057C128.824 516.078 130.024 517.43 132.013 518.111C134.002 518.793 136.389 519.395 139.174 519.915L147.345 521.515C152.008 522.485 155.618 524.083 158.177 526.307C160.735 528.532 162.357 531.328 163.043 534.696C163.792 538.371 163.382 541.834 161.812 545.084C160.29 548.261 157.915 551.005 154.687 553.316C151.519 555.614 147.792 557.197 143.503 558.064C139.889 558.795 136.303 558.882 132.745 558.326C129.188 557.771 126.003 556.852 123.191 555.572L120.626 542.987C123.721 544.401 127.029 545.454 130.55 546.145C134.071 546.836 137.67 546.81 141.346 546.066C143.918 545.546 146.024 544.61 147.662 543.259C149.288 541.846 149.895 540.129 149.483 538.108C149.158 536.516 148.131 535.385 146.399 534.714C144.717 533.971 142.919 533.442 141.005 533.127L130.792 531.366C125.639 530.495 121.905 528.764 119.591 526.171C117.326 523.504 115.825 520.365 115.088 516.751C114.327 513.016 114.676 509.565 116.136 506.401C117.645 503.163 119.898 500.443 122.894 498.244C125.877 495.982 129.299 494.462 133.158 493.681Z" fill="white"/>
<path d="M185.192 477.857C187.431 477.632 189.44 478.246 191.221 479.7C192.996 481.092 193.993 482.876 194.214 485.052C194.428 487.166 193.809 489.113 192.356 490.893C190.904 492.672 189.058 493.674 186.819 493.9C184.58 494.125 182.571 493.511 180.79 492.057C179.071 490.596 178.105 488.809 177.89 486.695C177.669 484.519 178.258 482.575 179.655 480.864C181.107 479.085 182.953 478.082 185.192 477.857ZM194.583 501.693L199.361 548.795L187.514 549.987L183.758 512.958L176.203 513.719L175.181 503.645L194.583 501.693Z" fill="white"/>
<path d="M237.74 498.689C240.303 498.707 242.892 499.32 245.508 500.527C248.124 501.734 250.3 503.344 252.035 505.356L252.074 500.013L263.98 500.1L263.632 547.443L251.726 547.355L251.785 539.387C250.391 541.939 248.374 544.143 245.736 545.999C243.097 547.792 240.028 548.676 236.528 548.65C232.716 548.622 229.192 547.627 225.956 545.666C222.783 543.705 220.242 540.874 218.331 537.172C216.421 533.47 215.485 528.995 215.524 523.745C215.562 518.495 216.564 514.002 218.529 510.267C220.557 506.531 223.234 503.676 226.561 501.7C229.951 499.663 233.678 498.659 237.74 498.689ZM240.092 510.331C237.592 510.313 235.431 510.953 233.609 512.252C231.85 513.49 230.463 515.136 229.447 517.191C228.432 519.246 227.916 521.461 227.898 523.836C227.872 527.398 228.912 530.437 231.019 532.953C233.188 535.469 236.054 536.74 239.616 536.766C241.741 536.782 243.714 536.234 245.535 535.122C247.418 534.011 248.929 532.459 250.069 530.468C251.272 528.414 251.884 525.95 251.905 523.075L251.954 516.325C250.28 514.5 248.447 513.049 246.455 511.972C244.525 510.895 242.404 510.348 240.092 510.331Z" fill="white"/>
<path d="M302.493 503.392L301.452 509.301C303.182 507.764 305.163 506.428 307.393 505.295C309.685 504.173 312.401 503.887 315.541 504.435C318.804 505.006 321.623 506.292 324 508.293C326.387 510.233 328.054 512.841 329 516.115C331.292 513.914 333.82 512.167 336.587 510.874C339.364 509.52 342.384 509.127 345.647 509.698C348.787 510.247 351.519 511.486 353.845 513.415C356.181 515.283 357.87 517.767 358.911 520.867C360.013 523.978 360.19 527.658 359.442 531.905L354.402 560.527L342.674 558.477L347.345 531.408C347.898 528.269 347.478 525.785 346.087 523.955C344.757 522.137 342.769 520.996 340.121 520.533C338.09 520.178 336.221 520.518 334.516 521.552C332.822 522.525 331.176 523.76 329.58 525.258L324.296 555.265L312.568 553.215L317.239 526.146C317.792 523.007 317.372 520.522 315.981 518.693C314.651 516.874 312.694 515.739 310.108 515.287C308.138 514.943 306.275 515.252 304.519 516.214C302.774 517.114 301.144 518.257 299.631 519.642L294.283 550.018L282.554 547.968L290.764 501.342L302.493 503.392Z" fill="white"/>
<path d="M190.705 585.474C193.688 585 196.48 584.979 199.08 585.41C201.68 585.841 203.914 586.462 205.783 587.272L207.461 597.843C205.43 597.006 203.282 596.265 201.018 595.623C198.754 594.981 196.284 594.872 193.609 595.296C192.272 595.509 190.967 595.927 189.695 596.551C188.474 597.166 187.492 597.955 186.748 598.917C186.056 599.871 185.812 600.991 186.016 602.276C186.286 603.974 187.236 605.142 188.866 605.779C190.497 606.417 192.462 607.001 194.761 607.533L201.505 609.152C205.35 610.123 208.298 611.58 210.346 613.522C212.395 615.465 213.644 617.85 214.093 620.679C214.583 623.766 214.116 626.635 212.691 629.287C211.31 631.88 209.233 634.081 206.462 635.892C203.743 637.695 200.583 638.883 196.982 639.454C193.947 639.936 190.959 639.883 188.018 639.296C185.077 638.708 182.459 637.831 180.165 636.666L178.486 626.096C181.011 627.382 183.726 628.375 186.632 629.074C189.538 629.773 192.534 629.877 195.621 629.387C197.781 629.044 199.568 628.338 200.98 627.27C202.384 626.151 202.952 624.742 202.682 623.045C202.47 621.708 201.655 620.729 200.239 620.111C198.865 619.432 197.388 618.928 195.806 618.599L187.369 616.775C183.112 615.869 180.067 614.296 178.235 612.055C176.446 609.755 175.31 607.088 174.828 604.053C174.33 600.915 174.746 598.054 176.076 595.47C177.449 592.826 179.422 590.64 181.996 588.913C184.561 587.135 187.464 585.989 190.705 585.474Z" fill="white"/>
<path d="M238.025 575.249C239.9 575.251 241.514 575.93 242.866 577.286C244.219 578.59 244.894 580.153 244.891 581.976C244.889 583.747 244.21 585.309 242.854 586.661C241.498 588.014 239.883 588.689 238.008 588.686C236.133 588.684 234.519 588.005 233.167 586.649C231.866 585.293 231.217 583.73 231.22 581.959C231.222 580.136 231.875 578.574 233.179 577.274C234.534 575.921 236.15 575.246 238.025 575.249ZM243.78 595.803L243.73 635.256L233.808 635.244L233.848 604.228L227.519 604.22L227.53 595.782L243.78 595.803Z" fill="white"/>
<path d="M284.079 598.737C287.882 599.366 291.009 600.728 293.46 602.823C295.963 604.927 297.691 607.562 298.645 610.729C299.66 613.853 299.852 617.316 299.223 621.119L298.534 625.281L270.324 620.613C270.404 623.319 271.34 625.638 273.132 627.571C274.924 629.504 277.31 630.717 280.29 631.21C283.117 631.678 285.779 631.538 288.279 630.79C290.778 630.042 292.819 629.192 294.402 628.24L292.82 637.322C291.408 638.197 289.376 638.996 286.722 639.718C284.129 640.398 281.367 640.495 278.438 640.011C274.585 639.373 271.209 637.917 268.312 635.643C265.467 633.377 263.345 630.571 261.945 627.225C260.597 623.887 260.246 620.266 260.892 616.36C261.521 612.558 262.943 609.23 265.157 606.376C267.371 603.522 270.126 601.391 273.421 599.983C276.724 598.523 280.277 598.108 284.079 598.737ZM282.433 607.254C280.018 606.855 277.865 607.264 275.974 608.482C274.083 609.7 272.621 611.517 271.588 613.933L290.24 617.019C290.494 614.211 289.806 611.985 288.177 610.343C286.557 608.65 284.642 607.62 282.433 607.254Z" fill="white"/>
<path d="M166.154 415.61L167.217 419.612L162.271 420.925L166.271 435.989L161.476 437.262L157.476 422.198L154.569 422.97L153.506 418.968L156.413 418.196L155.962 416.497C155.574 415.038 155.546 413.711 155.876 412.519C156.224 411.295 156.828 410.272 157.688 409.451C158.548 408.63 159.582 408.059 160.79 407.738C161.595 407.524 162.323 407.425 162.974 407.441C163.625 407.457 164.217 407.556 164.75 407.737L165.813 411.739C164.849 411.456 163.829 411.471 162.753 411.784C162.005 412.01 161.43 412.432 161.028 413.05C160.62 413.644 160.556 414.469 160.837 415.526L161.208 416.923L166.154 415.61Z" fill="white"/>
<path d="M185.554 411.072C187.451 410.735 189.264 410.89 190.992 411.535C192.715 412.155 194.19 413.163 195.416 414.558C196.664 415.924 197.458 417.568 197.8 419.491C198.141 421.414 197.961 423.231 197.26 424.943C196.584 426.65 195.546 428.103 194.146 429.304C192.741 430.479 191.09 431.235 189.193 431.572C187.321 431.904 185.51 431.763 183.761 431.148C182.033 430.502 180.559 429.494 179.337 428.124C178.115 426.754 177.333 425.108 176.992 423.185C176.651 421.262 176.818 419.447 177.493 417.74C178.164 416.007 179.202 414.554 180.607 413.379C182.033 412.173 183.682 411.404 185.554 411.072ZM186.393 415.803C185.47 415.967 184.65 416.337 183.933 416.914C183.215 417.491 182.686 418.233 182.344 419.14C182.028 420.043 181.975 421.084 182.184 422.263C182.394 423.443 182.802 424.402 183.409 425.14C184.042 425.874 184.795 426.389 185.667 426.683C186.534 426.953 187.43 427.005 188.353 426.841C189.276 426.677 190.099 426.32 190.821 425.768C191.538 425.191 192.068 424.45 192.409 423.543C192.751 422.636 192.817 421.592 192.607 420.413C192.398 419.233 191.977 418.277 191.344 417.543C190.711 416.809 189.959 416.294 189.086 415.999C188.214 415.705 187.316 415.639 186.393 415.803Z" fill="white"/>
<path d="M220.414 412.803C219.542 412.411 218.652 412.256 217.744 412.338C216.603 412.441 215.69 412.903 215.006 413.723C214.32 414.517 213.74 415.485 213.268 416.626L214.26 427.597L209.319 428.043L207.543 408.397L212.484 407.95L212.818 411.646C213.387 410.418 214.09 409.374 214.927 408.514C215.791 407.651 216.806 407.167 217.973 407.062C218.673 406.998 219.319 407.058 219.911 407.24L220.414 412.803Z" fill="white"/>
<path d="M237.672 400.89L237.764 406.631L243.232 406.543L243.299 410.683L237.831 410.771L237.969 419.286C237.983 420.171 238.19 420.871 238.589 421.385C239.013 421.873 239.629 422.111 240.436 422.098C241.139 422.087 241.737 421.999 242.229 421.835C242.747 421.67 243.226 421.441 243.664 421.147L243.727 425.092C243.241 425.595 242.622 426.021 241.873 426.372C241.149 426.722 240.227 426.907 239.108 426.925C237.337 426.953 235.883 426.417 234.745 425.315C233.633 424.187 233.061 422.634 233.029 420.655L232.871 410.851L229.317 410.909L229.276 408.37C230.518 407.907 231.651 407.056 232.672 405.815C233.72 404.574 234.54 402.946 235.133 400.931L237.672 400.89Z" fill="white"/>
<path d="M272.311 407.964L271.496 419.694C271.375 421.435 270.88 422.914 270.013 424.133C269.147 425.326 268.015 426.213 266.617 426.795C265.245 427.378 263.715 427.611 262.026 427.494C260.311 427.375 258.802 426.93 257.498 426.161C256.22 425.393 255.235 424.359 254.542 423.058C253.877 421.733 253.605 420.2 253.726 418.459L254.541 406.73L259.529 407.076L258.815 417.912C258.709 419.445 258.98 420.612 259.629 421.414C260.278 422.217 261.187 422.658 262.356 422.74C263.499 422.819 264.448 422.506 265.202 421.802C265.981 421.099 266.425 419.981 266.531 418.448L267.284 407.615L272.311 407.964Z" fill="white"/>
<path d="M290.167 410.279L289.705 413.054C290.429 412.356 291.349 411.743 292.466 411.216C293.609 410.693 294.835 410.541 296.145 410.759C298.124 411.088 299.669 412.031 300.783 413.589C301.897 415.147 302.232 417.262 301.787 419.934L299.801 431.879L294.907 431.065L296.746 419.768C296.964 418.458 296.805 417.429 296.27 416.68C295.76 415.935 294.953 415.471 293.848 415.287C292.975 415.142 292.106 415.288 291.241 415.725C290.402 416.166 289.649 416.727 288.981 417.408L286.931 429.739L282.037 428.925L285.273 409.466L290.167 410.279Z" fill="white"/>
<path d="M323.666 416.776C325.529 417.269 327.021 418.094 328.142 419.253C329.289 420.418 330.025 421.811 330.35 423.433C330.707 425.035 330.64 426.768 330.147 428.631L329.608 430.671L315.786 427.016C315.698 428.366 316.055 429.565 316.855 430.612C317.656 431.658 318.786 432.375 320.247 432.761C321.631 433.127 322.963 433.183 324.243 432.929C325.522 432.675 326.578 432.348 327.411 431.949L326.195 436.395C325.451 436.764 324.401 437.065 323.047 437.3C321.723 437.515 320.344 437.434 318.909 437.054C317.021 436.555 315.41 435.671 314.075 434.402C312.766 433.14 311.842 431.643 311.303 429.911C310.789 428.186 310.786 426.367 311.292 424.453C311.784 422.59 312.649 421.001 313.886 419.685C315.123 418.369 316.595 417.438 318.301 416.893C320.015 416.322 321.803 416.283 323.666 416.776ZM322.444 420.938C321.261 420.625 320.17 420.727 319.171 421.244C318.172 421.761 317.359 422.596 316.73 423.75L325.869 426.167C326.128 424.781 325.891 423.641 325.158 422.746C324.431 421.827 323.526 421.224 322.444 420.938Z" fill="white"/>
</svg>
