<svg width="474" height="1112" viewBox="0 0 474 1112" fill="none" xmlns="http://www.w3.org/2000/svg">
<mask id="path-1-inside-1_165_372" fill="white">
<path fill-rule="evenodd" clip-rule="evenodd" d="M0 377L79.1091 426.443V427H394.899V426.439L474 377L394.899 327.562V327H394H80H79.1091V327.557L0 377Z"/>
</mask>
<path fill-rule="evenodd" clip-rule="evenodd" d="M0 377L79.1091 426.443V427H394.899V426.439L474 377L394.899 327.562V327H394H80H79.1091V327.557L0 377Z" fill="#4C0406"/>
<path d="M79.1091 426.443H94.1091V418.13L87.0591 413.723L79.1091 426.443ZM0 377L-7.94997 364.28L-28.302 377L-7.94997 389.72L0 377ZM79.1091 427H64.1091V442H79.1091V427ZM394.899 427V442H409.899V427H394.899ZM394.899 426.439L386.949 413.719L379.899 418.125V426.439H394.899ZM474 377L481.95 389.72L502.302 377L481.95 364.28L474 377ZM394.899 327.562H379.899V335.876L386.949 340.282L394.899 327.562ZM394.899 327H409.899V312H394.899V327ZM79.1091 327V312H64.1091V327H79.1091ZM79.1091 327.557L87.0591 340.277L94.1091 335.871V327.557H79.1091ZM87.0591 413.723L7.94997 364.28L-7.94997 389.72L71.1591 439.163L87.0591 413.723ZM94.1091 427V426.443H64.1091V427H94.1091ZM394.899 412H79.1091V442H394.899V412ZM379.899 426.439V427H409.899V426.439H379.899ZM402.849 439.159L481.95 389.72L466.05 364.28L386.949 413.719L402.849 439.159ZM481.95 364.28L402.849 314.842L386.949 340.282L466.05 389.72L481.95 364.28ZM379.899 327V327.562H409.899V327H379.899ZM394 342H394.899V312H394V342ZM80 342H394V312H80V342ZM79.1091 342H80V312H79.1091V342ZM94.1091 327.557V327H64.1091V327.557H94.1091ZM7.94997 389.72L87.0591 340.277L71.1591 314.837L-7.94997 364.28L7.94997 389.72Z" fill="#B82025" mask="url(#path-1-inside-1_165_372)"/>
<path d="M48.574 91.0245C47.3331 82.2756 53.4196 74.1771 62.1686 72.9362V72.9362C70.9176 71.6953 79.016 77.7818 80.2569 86.5308L151.175 586.526L119.492 591.02L48.574 91.0245Z" fill="#D83A40"/>
<path d="M104.96 118.799C103.878 110.029 110.109 102.042 118.879 100.96V100.96C127.65 99.8775 135.637 106.109 136.719 114.879L198.581 616.076L166.822 619.996L104.96 118.799Z" fill="#D83A40"/>
<path d="M158.794 82.5689C158.356 73.7432 165.155 66.233 173.98 65.7943V65.7943C182.806 65.3556 190.316 72.1546 190.755 80.9802L215.826 585.358L183.865 586.946L158.794 82.5689Z" fill="#D83A40"/>
<path d="M209.554 17.3729C209.184 8.54412 216.041 1.08703 224.87 0.71704V0.71704C233.699 0.347052 241.156 7.20428 241.526 16.0331L262.67 520.59L230.698 521.93L209.554 17.3729Z" fill="#D83A40"/>
<path d="M277.097 86.994C277.344 78.1609 284.705 71.2002 293.538 71.4469V71.4469C302.371 71.6936 309.332 79.0542 309.085 87.8873L294.988 592.691L263 591.797L277.097 86.994Z" fill="#D83A40"/>
<path d="M336.195 132.831C337.475 124.088 345.601 118.039 354.345 119.319V119.319C363.088 120.6 369.137 128.726 367.857 137.469L294.662 637.137L263 632.499L336.195 132.831Z" fill="#D83A40"/>
<path d="M385.468 100.929C386.298 92.132 394.103 85.6736 402.901 86.5042V86.5042C411.698 87.3348 418.157 95.1398 417.326 103.937L369.858 606.701L338 603.694L385.468 100.929Z" fill="#D83A40"/>
<mask id="path-10-inside-2_165_372" fill="white">
<path d="M79 412H395V1112H79V412Z"/>
</mask>
<path d="M79 412H395V1112H79V412Z" fill="#D83A40"/>
<path d="M79 412V397H64V412H79ZM395 412H410V397H395V412ZM79 427H395V397H79V427ZM380 412V1112H410V412H380ZM94 1112V412H64V1112H94Z" fill="#B82025" mask="url(#path-10-inside-2_165_372)"/>
<path d="M71.5 430.502V1104.5H7.5V390.528L71.5 430.502Z" fill="#A81319" stroke="#A81319" stroke-width="15"/>
<path d="M402.5 430.502V1104.5H466.5V390.528L402.5 430.502Z" fill="#A81319" stroke="#A81319" stroke-width="15"/>
<path d="M130.296 565.033C133.845 564.296 137.191 564.112 140.333 564.481C143.475 564.849 146.19 565.467 148.478 566.332L151.109 578.903C148.624 578.015 146.006 577.25 143.254 576.609C140.501 575.968 137.534 575.977 134.352 576.638C132.761 576.969 131.221 577.544 129.733 578.363C128.305 579.171 127.174 580.172 126.338 581.366C125.564 582.548 125.337 583.904 125.657 585.434C126.079 587.452 127.286 588.798 129.279 589.469C131.271 590.14 133.661 590.729 136.449 591.236L144.628 592.792C149.296 593.738 152.915 595.316 155.485 597.528C158.054 599.739 159.691 602.527 160.395 605.891C161.163 609.562 160.771 613.027 159.218 616.285C157.713 619.47 155.353 622.227 152.136 624.554C148.981 626.869 145.262 628.471 140.978 629.361C137.367 630.111 133.782 630.217 130.221 629.68C126.661 629.142 123.471 628.241 120.652 626.975L118.022 614.404C121.124 615.802 124.437 616.837 127.962 617.51C131.487 618.182 135.086 618.137 138.757 617.375C141.327 616.841 143.428 615.894 145.059 614.534C146.677 613.113 147.275 611.393 146.853 609.374C146.52 607.783 145.486 606.658 143.752 605.996C142.065 605.261 140.264 604.742 138.349 604.437L128.126 602.73C122.969 601.886 119.227 600.174 116.899 597.593C114.619 594.939 113.102 591.807 112.347 588.198C111.566 584.466 111.897 581.014 113.341 577.842C114.833 574.596 117.071 571.865 120.055 569.649C123.027 567.372 126.44 565.834 130.296 565.033Z" fill="white"/>
<path d="M182.246 548.937C184.483 548.7 186.496 549.303 188.285 550.748C190.067 552.131 191.074 553.909 191.306 556.085C191.531 558.198 190.922 560.148 189.479 561.935C188.035 563.722 186.195 564.734 183.957 564.971C181.72 565.208 179.707 564.604 177.918 563.159C176.192 561.708 175.216 559.926 174.991 557.813C174.759 555.638 175.337 553.691 176.725 551.973C178.168 550.186 180.009 549.174 182.246 548.937ZM191.762 572.723L196.786 619.799L184.946 621.053L180.996 584.045L173.445 584.845L172.37 574.777L191.762 572.723Z" fill="white"/>
<path d="M234.902 569.493C237.465 569.498 240.057 570.098 242.679 571.291C245.302 572.484 247.486 574.082 249.232 576.086L249.243 570.742L261.149 570.767L261.049 618.111L249.142 618.086L249.159 610.117C247.779 612.676 245.774 614.891 243.145 616.76C240.516 618.567 237.452 619.467 233.952 619.46C230.14 619.452 226.61 618.476 223.364 616.531C220.181 614.587 217.625 611.769 215.695 608.077C213.765 604.386 212.806 599.915 212.817 594.665C212.828 589.415 213.807 584.917 215.752 581.171C217.76 577.425 220.423 574.556 223.739 572.563C227.119 570.508 230.84 569.484 234.902 569.493ZM237.315 581.123C234.815 581.118 232.657 581.769 230.842 583.078C229.089 584.324 227.711 585.978 226.706 588.038C225.702 590.099 225.197 592.316 225.192 594.691C225.185 598.254 226.241 601.287 228.36 603.792C230.543 606.296 233.415 607.552 236.977 607.56C239.102 607.564 241.072 607.006 242.887 605.885C244.765 604.764 246.268 603.204 247.397 601.207C248.589 599.147 249.188 596.679 249.194 593.804L249.208 587.054C247.525 585.238 245.684 583.797 243.686 582.73C241.751 581.664 239.627 581.128 237.315 581.123Z" fill="white"/>
<path d="M299.678 573.857L298.668 579.772C300.391 578.225 302.364 576.88 304.588 575.735C306.874 574.601 309.589 574.3 312.731 574.832C315.997 575.386 318.824 576.657 321.21 578.646C323.608 580.573 325.288 583.172 326.252 586.441C328.532 584.228 331.051 582.468 333.811 581.161C336.581 579.792 339.598 579.384 342.864 579.937C346.007 580.469 348.746 581.694 351.082 583.611C353.428 585.467 355.13 587.942 356.187 591.037C357.305 594.142 357.502 597.82 356.776 602.071L351.886 630.72L340.147 628.731L344.676 601.638C345.213 598.496 344.78 596.014 343.38 594.192C342.04 592.38 340.046 591.25 337.396 590.801C335.362 590.457 333.496 590.806 331.796 591.849C330.107 592.831 328.468 594.075 326.879 595.581L321.753 625.615L310.014 623.626L314.543 596.534C315.08 593.392 314.647 590.909 313.246 589.087C311.907 587.276 309.943 586.151 307.355 585.712C305.383 585.378 303.522 585.697 301.771 586.668C300.031 587.578 298.408 588.729 296.902 590.122L291.712 620.526L279.973 618.537L287.939 571.869L299.678 573.857Z" fill="white"/>
<path d="M188.323 656.523C191.304 656.034 194.095 655.998 196.697 656.415C199.299 656.832 201.537 657.442 203.41 658.243L205.144 668.804C203.108 667.977 200.956 667.249 198.689 666.618C196.421 665.987 193.951 665.891 191.278 666.33C189.942 666.549 188.64 666.974 187.371 667.605C186.153 668.227 185.175 669.021 184.437 669.987C183.749 670.944 183.511 672.065 183.722 673.35C184 675.046 184.957 676.208 186.59 676.838C188.224 677.467 190.192 678.041 192.494 678.56L199.246 680.144C203.097 681.095 206.052 682.536 208.111 684.468C210.17 686.4 211.431 688.779 211.895 691.606C212.401 694.689 211.949 697.561 210.538 700.22C209.17 702.82 207.106 705.033 204.344 706.858C201.634 708.675 198.48 709.879 194.882 710.47C191.85 710.968 188.862 710.93 185.918 710.358C182.973 709.786 180.351 708.923 178.051 707.77L176.317 697.208C178.848 698.482 181.569 699.46 184.478 700.144C187.388 700.827 190.385 700.916 193.468 700.41C195.627 700.055 197.41 699.341 198.817 698.265C200.215 697.138 200.775 695.727 200.497 694.031C200.277 692.695 199.458 691.721 198.038 691.109C196.661 690.438 195.181 689.942 193.598 689.621L185.151 687.841C180.889 686.957 177.836 685.4 175.992 683.169C174.191 680.879 173.041 678.217 172.544 675.185C172.029 672.05 172.43 669.187 173.746 666.595C175.106 663.944 177.067 661.749 179.632 660.008C182.188 658.216 185.085 657.055 188.323 656.523Z" fill="white"/>
<path d="M235.589 646.05C237.464 646.043 239.081 646.713 240.44 648.062C241.8 649.359 242.483 650.919 242.49 652.742C242.497 654.512 241.826 656.078 240.478 657.437C239.129 658.797 237.517 659.48 235.642 659.488C233.767 659.495 232.15 658.824 230.79 657.476C229.483 656.127 228.826 654.567 228.819 652.796C228.811 650.973 229.456 649.408 230.753 648.101C232.102 646.741 233.714 646.058 235.589 646.05ZM241.451 666.574L241.608 706.027L231.686 706.066L231.563 675.051L225.235 675.076L225.202 666.639L241.451 666.574Z" fill="white"/>
<path d="M281.765 669.297C285.57 669.906 288.704 671.252 291.167 673.334C293.68 675.424 295.423 678.05 296.393 681.212C297.424 684.331 297.634 687.793 297.025 691.599L296.358 695.765L268.124 691.245C268.219 693.95 269.167 696.265 270.969 698.188C272.771 700.112 275.163 701.312 278.146 701.79C280.974 702.243 283.636 702.089 286.132 701.328C288.627 700.567 290.664 699.706 292.242 698.745L290.707 707.836C289.3 708.718 287.272 709.528 284.622 710.264C282.032 710.957 279.271 711.069 276.34 710.6C272.483 709.982 269.1 708.544 266.191 706.285C263.334 704.034 261.197 701.239 259.78 697.901C258.414 694.57 258.044 690.95 258.67 687.042C259.279 683.236 260.683 679.9 262.882 677.035C265.082 674.169 267.825 672.024 271.113 670.599C274.408 669.122 277.959 668.688 281.765 669.297ZM280.163 677.823C277.745 677.436 275.595 677.857 273.71 679.085C271.826 680.313 270.373 682.137 269.353 684.558L288.021 687.547C288.26 684.737 287.561 682.515 285.924 680.881C284.294 679.197 282.374 678.177 280.163 677.823Z" fill="white"/>
<path d="M162.883 486.79L163.966 490.786L159.028 492.125L163.107 507.168L158.319 508.466L154.239 493.424L151.337 494.211L150.253 490.215L153.156 489.427L152.696 487.731C152.3 486.273 152.265 484.947 152.588 483.753C152.931 482.527 153.529 481.501 154.385 480.676C155.24 479.85 156.271 479.274 157.477 478.947C158.282 478.729 159.009 478.626 159.66 478.638C160.311 478.65 160.904 478.746 161.438 478.925L162.522 482.921C161.556 482.644 160.536 482.664 159.462 482.982C158.715 483.212 158.142 483.637 157.744 484.257C157.339 484.853 157.279 485.678 157.566 486.734L157.944 488.129L162.883 486.79Z" fill="white"/>
<path d="M182.259 482.151C184.154 481.804 185.968 481.949 187.699 482.585C189.426 483.196 190.906 484.196 192.14 485.585C193.394 486.944 194.197 488.584 194.549 490.506C194.9 492.427 194.73 494.245 194.037 495.96C193.371 497.67 192.34 499.13 190.947 500.338C189.548 501.52 187.901 502.285 186.005 502.631C184.135 502.973 182.324 502.841 180.572 502.235C178.84 501.599 177.36 500.599 176.131 499.235C174.902 497.872 174.112 496.229 173.761 494.308C173.409 492.387 173.567 490.571 174.234 488.861C174.896 487.125 175.926 485.666 177.324 484.483C178.744 483.27 180.389 482.493 182.259 482.151ZM183.123 486.877C182.201 487.046 181.383 487.421 180.668 488.001C179.954 488.582 179.428 489.327 179.092 490.236C178.78 491.14 178.733 492.181 178.948 493.359C179.164 494.538 179.577 495.494 180.188 496.23C180.825 496.961 181.58 497.471 182.454 497.761C183.323 498.026 184.218 498.074 185.141 497.905C186.063 497.736 186.883 497.375 187.603 496.819C188.317 496.239 188.843 495.494 189.179 494.585C189.516 493.676 189.577 492.633 189.361 491.454C189.146 490.276 188.72 489.322 188.083 488.591C187.446 487.86 186.691 487.35 185.817 487.059C184.944 486.769 184.046 486.708 183.123 486.877Z" fill="white"/>
<path d="M217.127 483.699C216.253 483.312 215.362 483.162 214.455 483.248C213.314 483.358 212.404 483.824 211.724 484.648C211.042 485.445 210.468 486.416 210.002 487.559L211.051 498.525L206.112 498.997L204.234 479.361L209.172 478.888L209.525 482.582C210.088 481.351 210.785 480.303 211.618 479.439C212.477 478.572 213.49 478.082 214.656 477.971C215.356 477.904 216.003 477.96 216.595 478.139L217.127 483.699Z" fill="white"/>
<path d="M234.322 471.696L234.445 477.437L239.912 477.32L240.001 481.459L234.534 481.576L234.716 490.09C234.735 490.975 234.945 491.674 235.346 492.186C235.774 492.672 236.391 492.906 237.198 492.889C237.901 492.874 238.498 492.783 238.989 492.616C239.507 492.449 239.984 492.217 240.42 491.921L240.504 495.866C240.02 496.371 239.404 496.801 238.657 497.156C237.935 497.51 237.014 497.699 235.895 497.723C234.124 497.761 232.667 497.232 231.524 496.136C230.406 495.014 229.826 493.463 229.783 491.485L229.574 481.682L226.02 481.758L225.966 479.22C227.206 478.75 228.334 477.893 229.349 476.647C230.39 475.4 231.202 473.768 231.784 471.75L234.322 471.696Z" fill="white"/>
<path d="M268.998 478.589L268.244 490.323C268.132 492.064 267.645 493.546 266.784 494.769C265.924 495.967 264.797 496.86 263.402 497.449C262.033 498.039 260.504 498.28 258.815 498.172C257.1 498.062 255.588 497.625 254.28 496.863C252.998 496.102 252.007 495.073 251.308 493.775C250.636 492.453 250.356 490.922 250.468 489.181L251.222 477.447L256.211 477.768L255.554 488.607C255.456 490.14 255.733 491.307 256.386 492.105C257.04 492.904 257.951 493.341 259.121 493.416C260.264 493.489 261.211 493.172 261.961 492.463C262.737 491.756 263.174 490.636 263.273 489.103L263.969 478.266L268.998 478.589Z" fill="white"/>
<path d="M286.865 480.81L286.419 483.587C287.138 482.885 288.055 482.268 289.17 481.735C290.31 481.206 291.536 481.047 292.847 481.258C294.827 481.577 296.377 482.512 297.499 484.064C298.621 485.617 298.967 487.73 298.537 490.403L296.613 502.359L291.715 501.571L293.495 490.265C293.706 488.954 293.541 487.925 293.002 487.179C292.488 486.437 291.679 485.977 290.573 485.799C289.699 485.658 288.831 485.808 287.968 486.25C287.132 486.696 286.381 487.261 285.717 487.945L283.732 500.286L278.834 499.498L281.968 480.022L286.865 480.81Z" fill="white"/>
<path d="M320.398 487.131C322.264 487.614 323.76 488.432 324.888 489.584C326.04 490.744 326.783 492.133 327.117 493.753C327.483 495.354 327.424 497.087 326.941 498.953L326.413 500.995L312.572 497.412C312.491 498.763 312.854 499.96 313.66 501.003C314.466 502.045 315.601 502.756 317.063 503.134C318.449 503.493 319.782 503.542 321.06 503.281C322.338 503.02 323.392 502.688 324.223 502.284L323.03 506.737C322.288 507.109 321.24 507.417 319.886 507.658C318.564 507.881 317.185 507.806 315.748 507.434C313.857 506.945 312.241 506.069 310.9 504.807C309.584 503.552 308.652 502.06 308.104 500.331C307.582 498.609 307.568 496.79 308.064 494.873C308.547 493.008 309.404 491.414 310.634 490.091C311.864 488.769 313.331 487.83 315.034 487.276C316.745 486.697 318.533 486.648 320.398 487.131ZM319.198 491.299C318.013 490.993 316.923 491.101 315.927 491.623C314.931 492.145 314.122 492.985 313.499 494.142L322.651 496.511C322.902 495.123 322.659 493.984 321.921 493.094C321.19 492.178 320.282 491.58 319.198 491.299Z" fill="white"/>
</svg>
