<svg width="474" height="1472" viewBox="0 0 474 1472" fill="none" xmlns="http://www.w3.org/2000/svg">
<mask id="path-1-inside-1_165_1038" fill="white">
<path fill-rule="evenodd" clip-rule="evenodd" d="M0 736.999L79.1091 786.442V786.999H394.899V786.437L474 736.999L394.899 687.561V686.999H394H80H79.1091V687.556L0 736.999Z"/>
</mask>
<path fill-rule="evenodd" clip-rule="evenodd" d="M0 736.999L79.1091 786.442V786.999H394.899V786.437L474 736.999L394.899 687.561V686.999H394H80H79.1091V687.556L0 736.999Z" fill="#4C0406"/>
<path d="M79.1091 786.442H94.1091V778.128L87.0591 773.722L79.1091 786.442ZM0 736.999L-7.94997 724.279L-28.302 736.999L-7.94997 749.719L0 736.999ZM79.1091 786.999H64.1091V801.999H79.1091V786.999ZM394.899 786.999V801.999H409.899V786.999H394.899ZM394.899 786.437L386.949 773.717L379.899 778.123V786.437H394.899ZM474 736.999L481.95 749.719L502.302 736.999L481.95 724.279L474 736.999ZM394.899 687.561H379.899V695.874L386.949 700.281L394.899 687.561ZM394.899 686.999H409.899V671.999H394.899V686.999ZM79.1091 686.999V671.999H64.1091V686.999H79.1091ZM79.1091 687.556L87.0591 700.276L94.1091 695.87V687.556H79.1091ZM87.0591 773.722L7.94997 724.279L-7.94997 749.719L71.1591 799.162L87.0591 773.722ZM94.1091 786.999V786.442H64.1091V786.999H94.1091ZM394.899 771.999H79.1091V801.999H394.899V771.999ZM379.899 786.437V786.999H409.899V786.437H379.899ZM402.849 799.157L481.95 749.719L466.05 724.279L386.949 773.717L402.849 799.157ZM481.95 724.279L402.849 674.841L386.949 700.281L466.05 749.719L481.95 724.279ZM379.899 686.999V687.561H409.899V686.999H379.899ZM394 701.999H394.899V671.999H394V701.999ZM80 701.999H394V671.999H80V701.999ZM79.1091 701.999H80V671.999H79.1091V701.999ZM94.1091 687.556V686.999H64.1091V687.556H94.1091ZM7.94997 749.719L87.0591 700.276L71.1591 674.836L-7.94997 724.279L7.94997 749.719Z" fill="#B82025" mask="url(#path-1-inside-1_165_1038)"/>
<path d="M48.574 435.023C47.3331 426.274 53.4196 418.176 62.1686 416.935V416.935C70.9176 415.694 79.016 421.78 80.2569 430.529L151.175 930.525L119.492 935.019L48.574 435.023Z" fill="#D83A40"/>
<path d="M104.96 462.798C103.878 454.028 110.109 446.041 118.879 444.958V444.958C127.65 443.876 135.637 450.108 136.719 458.878L198.581 960.075L166.822 963.995L104.96 462.798Z" fill="#D83A40"/>
<path d="M158.794 426.567C158.356 417.742 165.155 410.231 173.98 409.793V409.793C182.806 409.354 190.316 416.153 190.755 424.979L215.826 929.356L183.865 930.944L158.794 426.567Z" fill="#D83A40"/>
<path d="M206.154 17.7612C205.661 8.9384 212.413 1.38626 221.236 0.892989V0.892989C230.059 0.399719 237.611 7.15212 238.104 15.9749L266.294 520.188L234.344 521.974L206.154 17.7612Z" fill="#D83A40"/>
<path d="M277.097 430.993C277.344 422.16 284.705 415.199 293.538 415.446V415.446C302.371 415.692 309.332 423.053 309.085 431.886L294.988 936.689L263 935.796L277.097 430.993Z" fill="#D83A40"/>
<path d="M336.195 476.83C337.475 468.087 345.601 462.037 354.345 463.318V463.318C363.088 464.599 369.137 472.725 367.857 481.468L294.662 981.136L263 976.497L336.195 476.83Z" fill="#D83A40"/>
<path d="M385.468 444.928C386.298 436.131 394.103 429.672 402.901 430.503V430.503C411.698 431.334 418.157 439.139 417.326 447.936L369.858 950.7L338 947.692L385.468 444.928Z" fill="#D83A40"/>
<mask id="path-10-inside-2_165_1038" fill="white">
<path d="M79 771.999H395V1472H79V771.999Z"/>
</mask>
<path d="M79 771.999H395V1472H79V771.999Z" fill="#D83A40"/>
<path d="M79 771.999V756.999H64V771.999H79ZM395 771.999H410V756.999H395V771.999ZM79 786.999H395V756.999H79V786.999ZM380 771.999V1472H410V771.999H380ZM94 1472V771.999H64V1472H94Z" fill="#B82025" mask="url(#path-10-inside-2_165_1038)"/>
<path d="M71.5 790.501V1464.5H7.5V750.526L71.5 790.501Z" fill="#A81319" stroke="#A81319" stroke-width="15"/>
<path d="M402.5 790.501V1464.5H466.5V750.526L402.5 790.501Z" fill="#A81319" stroke="#A81319" stroke-width="15"/>
<path d="M130.296 925.032C133.845 924.295 137.191 924.11 140.333 924.479C143.475 924.848 146.19 925.465 148.478 926.33L151.109 938.902C148.624 938.014 146.006 937.249 143.254 936.607C140.501 935.966 137.534 935.976 134.352 936.637C132.761 936.967 131.221 937.542 129.733 938.362C128.305 939.169 127.174 940.17 126.338 941.365C125.564 942.547 125.337 943.903 125.657 945.432C126.079 947.451 127.286 948.796 129.279 949.468C131.271 950.139 133.661 950.728 136.449 951.234L144.628 952.791C149.296 953.737 152.915 955.315 155.485 957.526C158.054 959.737 159.691 962.525 160.395 965.89C161.163 969.56 160.771 973.025 159.218 976.284C157.713 979.469 155.353 982.225 152.136 984.553C148.981 986.868 145.262 988.47 140.978 989.359C137.367 990.109 133.782 990.216 130.221 989.678C126.661 989.141 123.471 988.239 120.652 986.974L118.022 974.402C121.124 975.801 124.437 976.836 127.962 977.508C131.487 978.181 135.086 978.136 138.757 977.373C141.327 976.839 143.428 975.893 145.059 974.532C146.677 973.111 147.275 971.391 146.853 969.372C146.52 967.782 145.486 966.656 143.752 965.995C142.065 965.26 140.264 964.74 138.349 964.436L128.126 962.729C122.969 961.885 119.227 960.172 116.899 957.592C114.619 954.937 113.102 951.805 112.347 948.196C111.566 944.464 111.897 941.012 113.341 937.84C114.833 934.594 117.071 931.863 120.055 929.648C123.027 927.371 126.44 925.832 130.296 925.032Z" fill="white"/>
<path d="M182.246 908.935C184.483 908.698 186.496 909.302 188.285 910.747C190.067 912.129 191.074 913.908 191.306 916.083C191.531 918.196 190.922 920.146 189.479 921.933C188.035 923.72 186.195 924.732 183.957 924.969C181.72 925.206 179.707 924.602 177.918 923.158C176.192 921.706 175.216 919.924 174.991 917.811C174.759 915.636 175.337 913.69 176.725 911.971C178.168 910.184 180.009 909.172 182.246 908.935ZM191.762 932.721L196.786 979.798L184.946 981.052L180.996 944.043L173.445 944.843L172.37 934.776L191.762 932.721Z" fill="white"/>
<path d="M234.902 929.491C237.465 929.497 240.057 930.096 242.679 931.289C245.302 932.482 247.486 934.081 249.232 936.084L249.243 930.74L261.149 930.766L261.049 978.109L249.142 978.084L249.159 970.115C247.779 972.675 245.774 974.889 243.145 976.759C240.516 978.566 237.452 979.466 233.952 979.458C230.14 979.45 226.61 978.474 223.364 976.53C220.181 974.585 217.625 971.768 215.695 968.076C213.765 964.384 212.806 959.914 212.817 954.664C212.828 949.414 213.807 944.916 215.752 941.17C217.76 937.424 220.423 934.555 223.739 932.562C227.119 930.506 230.84 929.483 234.902 929.491ZM237.315 941.122C234.815 941.116 232.657 941.768 230.842 943.077C229.089 944.323 227.711 945.976 226.706 948.037C225.702 950.097 225.197 952.315 225.192 954.69C225.185 958.252 226.241 961.286 228.36 963.79C230.543 966.295 233.415 967.551 236.977 967.558C239.102 967.563 241.072 967.005 242.887 965.883C244.765 964.762 246.268 963.203 247.397 961.205C248.589 959.145 249.188 956.678 249.194 953.803L249.208 947.053C247.525 945.237 245.684 943.795 243.686 942.729C241.751 941.662 239.627 941.126 237.315 941.122Z" fill="white"/>
<path d="M299.678 933.856L298.668 939.77C300.391 938.224 302.364 936.878 304.588 935.734C306.874 934.599 309.589 934.299 312.731 934.831C315.997 935.384 318.824 936.655 321.21 938.644C323.608 940.572 325.288 943.17 326.252 946.44C328.532 944.227 331.051 942.467 333.811 941.159C336.581 939.79 339.598 939.382 342.864 939.936C346.007 940.468 348.746 941.693 351.082 943.61C353.428 945.465 355.13 947.94 356.187 951.035C357.305 954.141 357.502 957.819 356.776 962.07L351.886 990.718L340.147 988.73L344.676 961.637C345.213 958.495 344.78 956.013 343.38 954.191C342.04 952.379 340.046 951.249 337.396 950.8C335.362 950.455 333.496 950.805 331.796 951.848C330.107 952.83 328.468 954.073 326.879 955.579L321.753 985.614L310.014 983.625L314.543 956.532C315.08 953.39 314.647 950.908 313.246 949.086C311.907 947.274 309.943 946.149 307.355 945.711C305.383 945.377 303.522 945.695 301.771 946.667C300.031 947.576 298.408 948.727 296.902 950.121L291.712 980.525L279.973 978.536L287.939 931.867L299.678 933.856Z" fill="white"/>
<path d="M188.323 1016.52C191.304 1016.03 194.095 1016 196.697 1016.41C199.299 1016.83 201.537 1017.44 203.41 1018.24L205.144 1028.8C203.108 1027.98 200.956 1027.25 198.689 1026.62C196.421 1025.99 193.951 1025.89 191.278 1026.33C189.942 1026.55 188.64 1026.97 187.371 1027.6C186.153 1028.23 185.175 1029.02 184.437 1029.99C183.749 1030.94 183.511 1032.06 183.722 1033.35C184 1035.04 184.957 1036.21 186.59 1036.84C188.224 1037.47 190.192 1038.04 192.494 1038.56L199.246 1040.14C203.097 1041.09 206.052 1042.53 208.111 1044.47C210.17 1046.4 211.431 1048.78 211.895 1051.6C212.401 1054.69 211.949 1057.56 210.538 1060.22C209.17 1062.82 207.106 1065.03 204.344 1066.86C201.634 1068.67 198.48 1069.88 194.882 1070.47C191.85 1070.97 188.862 1070.93 185.918 1070.36C182.973 1069.78 180.351 1068.92 178.051 1067.77L176.317 1057.21C178.848 1058.48 181.569 1059.46 184.478 1060.14C187.388 1060.83 190.385 1060.91 193.468 1060.41C195.627 1060.05 197.41 1059.34 198.817 1058.26C200.215 1057.14 200.775 1055.73 200.497 1054.03C200.277 1052.69 199.458 1051.72 198.038 1051.11C196.661 1050.44 195.181 1049.94 193.598 1049.62L185.151 1047.84C180.889 1046.96 177.836 1045.4 175.992 1043.17C174.191 1040.88 173.041 1038.22 172.544 1035.18C172.029 1032.05 172.43 1029.19 173.746 1026.59C175.106 1023.94 177.067 1021.75 179.632 1020.01C182.188 1018.21 185.085 1017.05 188.323 1016.52Z" fill="white"/>
<path d="M235.589 1006.05C237.464 1006.04 239.081 1006.71 240.44 1008.06C241.8 1009.36 242.483 1010.92 242.49 1012.74C242.497 1014.51 241.826 1016.08 240.478 1017.44C239.129 1018.8 237.517 1019.48 235.642 1019.49C233.767 1019.49 232.15 1018.82 230.79 1017.47C229.483 1016.13 228.826 1014.57 228.819 1012.79C228.811 1010.97 229.456 1009.41 230.753 1008.1C232.102 1006.74 233.714 1006.06 235.589 1006.05ZM241.451 1026.57L241.608 1066.03L231.686 1066.06L231.563 1035.05L225.235 1035.07L225.202 1026.64L241.451 1026.57Z" fill="white"/>
<path d="M281.765 1029.3C285.57 1029.9 288.704 1031.25 291.167 1033.33C293.68 1035.42 295.423 1038.05 296.393 1041.21C297.424 1044.33 297.634 1047.79 297.025 1051.6L296.358 1055.76L268.124 1051.24C268.219 1053.95 269.167 1056.26 270.969 1058.19C272.771 1060.11 275.163 1061.31 278.146 1061.79C280.974 1062.24 283.636 1062.09 286.132 1061.33C288.627 1060.57 290.664 1059.7 292.242 1058.74L290.707 1067.83C289.3 1068.72 287.272 1069.53 284.622 1070.26C282.032 1070.96 279.271 1071.07 276.34 1070.6C272.483 1069.98 269.1 1068.54 266.191 1066.28C263.334 1064.03 261.197 1061.24 259.78 1057.9C258.414 1054.57 258.044 1050.95 258.67 1047.04C259.279 1043.23 260.683 1039.9 262.882 1037.03C265.082 1034.17 267.825 1032.02 271.113 1030.6C274.408 1029.12 277.959 1028.69 281.765 1029.3ZM280.163 1037.82C277.745 1037.43 275.595 1037.86 273.71 1039.08C271.826 1040.31 270.373 1042.14 269.353 1044.56L288.021 1047.55C288.26 1044.74 287.561 1042.51 285.924 1040.88C284.294 1039.2 282.374 1038.18 280.163 1037.82Z" fill="white"/>
<path d="M162.883 846.789L163.966 850.785L159.028 852.124L163.107 867.167L158.319 868.465L154.239 853.422L151.337 854.21L150.253 850.213L153.156 849.426L152.696 847.73C152.3 846.272 152.265 844.946 152.588 843.752C152.931 842.526 153.529 841.5 154.385 840.674C155.24 839.849 156.271 839.273 157.477 838.945C158.282 838.727 159.009 838.624 159.66 838.637C160.311 838.649 160.904 838.745 161.438 838.924L162.522 842.92C161.556 842.642 160.536 842.663 159.462 842.981C158.715 843.21 158.142 843.635 157.744 844.256C157.339 844.852 157.279 845.677 157.566 846.733L157.944 848.128L162.883 846.789Z" fill="white"/>
<path d="M182.259 842.149C184.154 841.802 185.968 841.947 187.699 842.584C189.426 843.194 190.906 844.194 192.14 845.584C193.394 846.943 194.197 848.583 194.549 850.504C194.9 852.425 194.73 854.243 194.037 855.958C193.371 857.669 192.34 859.128 190.947 860.336C189.548 861.518 187.901 862.283 186.005 862.63C184.135 862.972 182.324 862.84 180.572 862.234C178.84 861.597 177.36 860.597 176.131 859.234C174.902 857.87 174.112 856.228 173.761 854.306C173.409 852.385 173.567 850.569 174.234 848.859C174.896 847.123 175.926 845.664 177.324 844.481C178.744 843.269 180.389 842.491 182.259 842.149ZM183.123 846.875C182.201 847.044 181.383 847.419 180.668 848C179.954 848.58 179.428 849.325 179.092 850.234C178.78 851.138 178.733 852.179 178.948 853.358C179.164 854.536 179.577 855.493 180.188 856.228C180.825 856.959 181.58 857.469 182.454 857.76C183.323 858.024 184.218 858.072 185.141 857.903C186.063 857.735 186.883 857.373 187.603 856.818C188.317 856.237 188.843 855.492 189.179 854.583C189.516 853.675 189.577 852.631 189.361 851.453C189.146 850.274 188.72 849.32 188.083 848.589C187.446 847.858 186.691 847.348 185.817 847.058C184.944 846.768 184.046 846.707 183.123 846.875Z" fill="white"/>
<path d="M217.127 843.698C216.253 843.31 215.362 843.16 214.455 843.247C213.314 843.356 212.404 843.823 211.724 844.646C211.042 845.444 210.468 846.415 210.002 847.558L211.051 858.523L206.112 858.996L204.234 839.359L209.172 838.887L209.525 842.581C210.088 841.35 210.785 840.302 211.618 839.437C212.477 838.57 213.49 838.081 214.656 837.969C215.356 837.902 216.003 837.958 216.595 838.137L217.127 843.698Z" fill="white"/>
<path d="M234.322 831.694L234.445 837.435L239.912 837.318L240.001 841.458L234.534 841.575L234.716 850.088C234.735 850.974 234.945 851.672 235.346 852.185C235.774 852.671 236.391 852.905 237.198 852.888C237.901 852.873 238.498 852.782 238.989 852.615C239.507 852.447 239.984 852.216 240.42 851.92L240.504 855.864C240.02 856.37 239.404 856.8 238.657 857.154C237.935 857.508 237.014 857.697 235.895 857.721C234.124 857.759 232.667 857.23 231.524 856.135C230.406 855.012 229.826 853.462 229.783 851.483L229.574 841.681L226.02 841.757L225.966 839.218C227.206 838.749 228.334 837.891 229.349 836.645C230.39 835.399 231.202 833.767 231.784 831.748L234.322 831.694Z" fill="white"/>
<path d="M268.998 838.587L268.244 850.321C268.132 852.062 267.645 853.545 266.784 854.768C265.924 855.965 264.797 856.858 263.402 857.447C262.033 858.038 260.504 858.279 258.815 858.17C257.1 858.06 255.588 857.624 254.28 856.861C252.998 856.101 252.007 855.071 251.308 853.774C250.636 852.452 250.356 850.921 250.468 849.179L251.222 837.446L256.211 837.766L255.554 848.606C255.456 850.139 255.733 851.305 256.386 852.104C257.04 852.902 257.951 853.339 259.121 853.415C260.264 853.488 261.211 853.17 261.961 852.462C262.737 851.755 263.174 850.635 263.273 849.102L263.969 838.264L268.998 838.587Z" fill="white"/>
<path d="M286.865 840.809L286.419 843.585C287.138 842.884 288.055 842.266 289.17 841.733C290.31 841.205 291.536 841.046 292.847 841.257C294.827 841.575 296.377 842.511 297.499 844.063C298.621 845.615 298.967 847.728 298.537 850.402L296.613 862.357L291.715 861.569L293.495 850.263C293.706 848.952 293.541 847.923 293.002 847.177C292.488 846.435 291.679 845.975 290.573 845.797C289.699 845.656 288.831 845.807 287.968 846.248C287.132 846.694 286.381 847.259 285.717 847.943L283.732 860.285L278.834 859.497L281.968 840.021L286.865 840.809Z" fill="white"/>
<path d="M320.398 847.13C322.264 847.613 323.76 848.431 324.888 849.583C326.04 850.742 326.783 852.132 327.117 853.752C327.483 855.353 327.424 857.086 326.941 858.952L326.413 860.994L312.572 857.411C312.491 858.762 312.854 859.959 313.66 861.001C314.466 862.044 315.601 862.754 317.063 863.133C318.449 863.492 319.782 863.541 321.06 863.28C322.338 863.019 323.392 862.687 324.223 862.283L323.03 866.735C322.288 867.108 321.24 867.415 319.886 867.657C318.564 867.879 317.185 867.805 315.748 867.433C313.857 866.943 312.241 866.068 310.9 864.806C309.584 863.551 308.652 862.059 308.104 860.33C307.582 858.607 307.568 856.788 308.064 854.872C308.547 853.007 309.404 851.413 310.634 850.09C311.864 848.768 313.331 847.829 315.034 847.275C316.745 846.695 318.533 846.647 320.398 847.13ZM319.198 851.298C318.013 850.992 316.923 851.099 315.927 851.622C314.931 852.144 314.122 852.984 313.499 854.141L322.651 856.509C322.902 855.122 322.659 853.983 321.921 853.093C321.19 852.177 320.282 851.579 319.198 851.298Z" fill="white"/>
</svg>
