<svg width="474" height="1351" viewBox="0 0 474 1351" fill="none" xmlns="http://www.w3.org/2000/svg">
<mask id="path-1-inside-1_165_631" fill="white">
<path fill-rule="evenodd" clip-rule="evenodd" d="M0 615.953L79.1091 665.396V665.953H394.899V665.392L474 615.953L394.899 566.515V565.953H394H80H79.1091V566.51L0 615.953Z"/>
</mask>
<path fill-rule="evenodd" clip-rule="evenodd" d="M0 615.953L79.1091 665.396V665.953H394.899V665.392L474 615.953L394.899 566.515V565.953H394H80H79.1091V566.51L0 615.953Z" fill="#4C0406"/>
<path d="M79.1091 665.396H94.1091V657.083L87.0591 652.676L79.1091 665.396ZM0 615.953L-7.94997 603.233L-28.302 615.953L-7.94997 628.673L0 615.953ZM79.1091 665.953H64.1091V680.953H79.1091V665.953ZM394.899 665.953V680.953H409.899V665.953H394.899ZM394.899 665.392L386.949 652.672L379.899 657.078V665.392H394.899ZM474 615.953L481.95 628.673L502.302 615.953L481.95 603.233L474 615.953ZM394.899 566.515H379.899V574.829L386.949 579.235L394.899 566.515ZM394.899 565.953H409.899V550.953H394.899V565.953ZM79.1091 565.953V550.953H64.1091V565.953H79.1091ZM79.1091 566.51L87.0591 579.23L94.1091 574.824V566.51H79.1091ZM87.0591 652.676L7.94997 603.233L-7.94997 628.673L71.1591 678.116L87.0591 652.676ZM94.1091 665.953V665.396H64.1091V665.953H94.1091ZM394.899 650.953H79.1091V680.953H394.899V650.953ZM379.899 665.392V665.953H409.899V665.392H379.899ZM402.849 678.112L481.95 628.673L466.05 603.233L386.949 652.672L402.849 678.112ZM481.95 603.233L402.849 553.795L386.949 579.235L466.05 628.673L481.95 603.233ZM379.899 565.953V566.515H409.899V565.953H379.899ZM394 580.953H394.899V550.953H394V580.953ZM80 580.953H394V550.953H80V580.953ZM79.1091 580.953H80V550.953H79.1091V580.953ZM94.1091 566.51V565.953H64.1091V566.51H94.1091ZM7.94997 628.673L87.0591 579.23L71.1591 553.79L-7.94997 603.233L7.94997 628.673Z" fill="#B82025" mask="url(#path-1-inside-1_165_631)"/>
<path d="M48.574 315.977C47.3331 307.228 53.4196 299.13 62.1686 297.889V297.889C70.9176 296.648 79.016 302.735 80.2569 311.484L151.175 811.479L119.492 815.973L48.574 315.977Z" fill="#D83A40"/>
<path d="M104.96 343.752C103.878 334.982 110.109 326.995 118.879 325.913V325.913C127.65 324.83 135.637 331.062 136.719 339.832L198.581 841.029L166.822 844.949L104.96 343.752Z" fill="#D83A40"/>
<path d="M158.794 307.522C158.356 298.696 165.155 291.186 173.98 290.747V290.747C182.806 290.308 190.316 297.107 190.755 305.933L215.826 810.31L183.865 811.899L158.794 307.522Z" fill="#D83A40"/>
<path d="M209.554 17.3258C209.184 8.497 216.041 1.03991 224.87 0.669921V0.669921C233.699 0.299933 241.156 7.15716 241.526 15.986L262.67 520.543L230.698 521.883L209.554 17.3258Z" fill="#D83A40"/>
<path d="M277.097 311.947C277.344 303.114 284.705 296.153 293.538 296.4V296.4C302.371 296.646 309.332 304.007 309.085 312.84L294.988 817.643L263 816.75L277.097 311.947Z" fill="#D83A40"/>
<path d="M336.195 357.784C337.475 349.041 345.601 342.991 354.345 344.272V344.272C363.088 345.553 369.137 353.679 367.857 362.422L294.662 862.09L263 857.452L336.195 357.784Z" fill="#D83A40"/>
<path d="M385.468 325.882C386.298 317.085 394.103 310.626 402.901 311.457V311.457C411.698 312.288 418.157 320.093 417.326 328.89L369.858 831.654L338 828.646L385.468 325.882Z" fill="#D83A40"/>
<mask id="path-10-inside-2_165_631" fill="white">
<path d="M79 650.953H395V1350.95H79V650.953Z"/>
</mask>
<path d="M79 650.953H395V1350.95H79V650.953Z" fill="#D83A40"/>
<path d="M79 650.953V635.953H64V650.953H79ZM395 650.953H410V635.953H395V650.953ZM79 665.953H395V635.953H79V665.953ZM380 650.953V1350.95H410V650.953H380ZM94 1350.95V650.953H64V1350.95H94Z" fill="#B82025" mask="url(#path-10-inside-2_165_631)"/>
<path d="M71.5 669.455V1343.45H7.5V629.48L71.5 669.455Z" fill="#A81319" stroke="#A81319" stroke-width="15"/>
<path d="M402.5 669.455V1343.45H466.5V629.48L402.5 669.455Z" fill="#A81319" stroke="#A81319" stroke-width="15"/>
<path d="M130.296 803.986C133.845 803.249 137.191 803.065 140.333 803.434C143.475 803.802 146.19 804.419 148.478 805.285L151.109 817.856C148.624 816.968 146.006 816.203 143.254 815.562C140.501 814.92 137.534 814.93 134.352 815.591C132.761 815.921 131.221 816.497 129.733 817.316C128.305 818.123 127.174 819.124 126.338 820.319C125.564 821.501 125.337 822.857 125.657 824.387C126.079 826.405 127.286 827.75 129.279 828.422C131.271 829.093 133.661 829.682 136.449 830.188L144.628 831.745C149.296 832.691 152.915 834.269 155.485 836.481C158.054 838.692 159.691 841.48 160.395 844.844C161.163 848.515 160.771 851.979 159.218 855.238C157.713 858.423 155.353 861.18 152.136 863.507C148.981 865.822 145.262 867.424 140.978 868.314C137.367 869.064 133.782 869.17 130.221 868.633C126.661 868.095 123.471 867.194 120.652 865.928L118.022 853.357C121.124 854.755 124.437 855.79 127.962 856.463C131.487 857.135 135.086 857.09 138.757 856.327C141.327 855.794 143.428 854.847 145.059 853.487C146.677 852.066 147.275 850.346 146.853 848.327C146.52 846.736 145.486 845.61 143.752 844.949C142.065 844.214 140.264 843.695 138.349 843.39L128.126 841.683C122.969 840.839 119.227 839.127 116.899 836.546C114.619 833.892 113.102 830.76 112.347 827.15C111.566 823.419 111.897 819.967 113.341 816.795C114.833 813.548 117.071 810.818 120.055 808.602C123.027 806.325 126.44 804.787 130.296 803.986Z" fill="white"/>
<path d="M182.246 787.89C184.483 787.653 186.496 788.257 188.285 789.701C190.067 791.084 191.074 792.863 191.306 795.038C191.531 797.151 190.922 799.101 189.479 800.888C188.035 802.675 186.195 803.687 183.957 803.924C181.72 804.161 179.707 803.557 177.918 802.112C176.192 800.661 175.216 798.879 174.991 796.766C174.759 794.591 175.337 792.644 176.725 790.926C178.168 789.139 180.009 788.127 182.246 787.89ZM191.762 811.676L196.786 858.752L184.946 860.007L180.996 822.998L173.445 823.798L172.37 813.73L191.762 811.676Z" fill="white"/>
<path d="M234.902 808.446C237.465 808.451 240.057 809.05 242.679 810.243C245.302 811.436 247.486 813.035 249.232 815.039L249.243 809.695L261.149 809.72L261.049 857.064L249.142 857.038L249.159 849.07C247.779 851.629 245.774 853.844 243.145 855.713C240.516 857.52 237.452 858.42 233.952 858.413C230.14 858.405 226.61 857.428 223.364 855.484C220.181 853.54 217.625 850.722 215.695 847.03C213.765 843.339 212.806 838.868 212.817 833.618C212.828 828.368 213.807 823.87 215.752 820.124C217.76 816.378 220.423 813.509 223.739 811.516C227.119 809.461 230.84 808.437 234.902 808.446ZM237.315 820.076C234.815 820.071 232.657 820.722 230.842 822.031C229.089 823.277 227.711 824.931 226.706 826.991C225.702 829.051 225.197 831.269 225.192 833.644C225.185 837.207 226.241 840.24 228.36 842.745C230.543 845.249 233.415 846.505 236.977 846.513C239.102 846.517 241.072 845.959 242.887 844.838C244.765 843.717 246.268 842.157 247.397 840.16C248.589 838.1 249.188 835.632 249.194 832.757L249.208 826.007C247.525 824.191 245.684 822.75 243.686 821.683C241.751 820.617 239.627 820.081 237.315 820.076Z" fill="white"/>
<path d="M299.678 812.81L298.668 818.724C300.391 817.178 302.364 815.832 304.588 814.688C306.874 813.553 309.589 813.253 312.731 813.785C315.997 814.338 318.824 815.609 321.21 817.599C323.608 819.526 325.288 822.124 326.252 825.394C328.532 823.181 331.051 821.421 333.811 820.113C336.581 818.744 339.598 818.336 342.864 818.89C346.007 819.422 348.746 820.647 351.082 822.564C353.428 824.419 355.13 826.894 356.187 829.989C357.305 833.095 357.502 836.773 356.776 841.024L351.886 869.672L340.147 867.684L344.676 840.591C345.213 837.449 344.78 834.967 343.38 833.145C342.04 831.333 340.046 830.203 337.396 829.754C335.362 829.409 333.496 829.759 331.796 830.802C330.107 831.784 328.468 833.027 326.879 834.533L321.753 864.568L310.014 862.579L314.543 835.486C315.08 832.344 314.647 829.862 313.246 828.04C311.907 826.228 309.943 825.103 307.355 824.665C305.383 824.331 303.522 824.649 301.771 825.621C300.031 826.53 298.408 827.682 296.902 829.075L291.712 859.479L279.973 857.49L287.939 810.821L299.678 812.81Z" fill="white"/>
<path d="M188.323 895.476C191.304 894.987 194.095 894.951 196.697 895.368C199.299 895.786 201.537 896.395 203.41 897.196L205.144 907.757C203.108 906.93 200.956 906.202 198.689 905.571C196.421 904.94 193.951 904.844 191.278 905.283C189.942 905.503 188.64 905.927 187.371 906.558C186.153 907.18 185.175 907.974 184.437 908.94C183.749 909.897 183.511 911.018 183.722 912.303C184 913.999 184.957 915.162 186.59 915.791C188.224 916.42 190.192 916.994 192.494 917.513L199.246 919.097C203.097 920.048 206.052 921.49 208.111 923.421C210.17 925.353 211.431 927.732 211.895 930.559C212.401 933.642 211.949 936.514 210.538 939.174C209.17 941.773 207.106 943.986 204.344 945.811C201.634 947.629 198.48 948.832 194.882 949.423C191.85 949.921 188.862 949.883 185.918 949.311C182.973 948.739 180.351 947.876 178.051 946.723L176.317 936.161C178.848 937.435 181.569 938.413 184.478 939.097C187.388 939.78 190.385 939.869 193.468 939.363C195.627 939.009 197.41 938.294 198.817 937.218C200.215 936.091 200.775 934.68 200.497 932.984C200.277 931.648 199.458 930.674 198.038 930.062C196.661 929.391 195.181 928.895 193.598 928.574L185.151 926.794C180.889 925.91 177.836 924.353 175.992 922.122C174.191 919.832 173.041 917.17 172.544 914.138C172.029 911.003 172.43 908.14 173.746 905.548C175.106 902.897 177.067 900.702 179.632 898.961C182.188 897.169 185.085 896.008 188.323 895.476Z" fill="white"/>
<path d="M235.589 885.003C237.464 884.996 239.081 885.667 240.44 887.015C241.8 888.312 242.483 889.872 242.49 891.695C242.497 893.466 241.826 895.031 240.478 896.39C239.129 897.75 237.517 898.433 235.642 898.441C233.767 898.448 232.15 897.778 230.79 896.429C229.483 895.08 228.826 893.52 228.819 891.749C228.811 889.926 229.456 888.361 230.753 887.054C232.102 885.694 233.714 885.011 235.589 885.003ZM241.451 905.527L241.608 944.98L231.686 945.019L231.563 914.004L225.235 914.029L225.202 905.592L241.451 905.527Z" fill="white"/>
<path d="M281.765 908.25C285.57 908.86 288.704 910.205 291.167 912.287C293.68 914.378 295.423 917.004 296.393 920.166C297.424 923.284 297.634 926.747 297.025 930.552L296.358 934.718L268.124 930.198C268.219 932.903 269.167 935.218 270.969 937.141C272.771 939.065 275.163 940.266 278.146 940.743C280.974 941.196 283.636 941.042 286.132 940.281C288.627 939.52 290.664 938.659 292.242 937.698L290.707 946.789C289.3 947.671 287.272 948.481 284.622 949.217C282.032 949.91 279.271 950.022 276.34 949.553C272.483 948.935 269.1 947.497 266.191 945.238C263.334 942.987 261.197 940.193 259.78 936.854C258.414 933.523 258.044 929.903 258.67 925.995C259.279 922.189 260.683 918.853 262.882 915.988C265.082 913.123 267.825 910.977 271.113 909.552C274.408 908.075 277.959 907.641 281.765 908.25ZM280.163 916.776C277.745 916.389 275.595 916.81 273.71 918.038C271.826 919.266 270.373 921.09 269.353 923.512L288.021 926.5C288.26 923.69 287.561 921.468 285.924 919.835C284.294 918.15 282.374 917.13 280.163 916.776Z" fill="white"/>
<path d="M162.883 725.743L163.966 729.739L159.028 731.078L163.107 746.121L158.319 747.419L154.239 732.377L151.337 733.164L150.253 729.167L153.156 728.38L152.696 726.684C152.3 725.226 152.265 723.9 152.588 722.706C152.931 721.48 153.529 720.454 154.385 719.629C155.24 718.803 156.271 718.227 157.477 717.9C158.282 717.681 159.009 717.579 159.66 717.591C160.311 717.603 160.904 717.699 161.438 717.878L162.522 721.874C161.556 721.596 160.536 721.617 159.462 721.935C158.715 722.164 158.142 722.59 157.744 723.21C157.339 723.806 157.279 724.631 157.566 725.687L157.944 727.082L162.883 725.743Z" fill="white"/>
<path d="M182.259 721.104C184.154 720.757 185.968 720.902 187.699 721.538C189.426 722.149 190.906 723.149 192.14 724.538C193.394 725.897 194.197 727.537 194.549 729.458C194.9 731.38 194.73 733.198 194.037 734.913C193.371 736.623 192.34 738.082 190.947 739.291C189.548 740.473 187.901 741.238 186.005 741.584C184.135 741.926 182.324 741.794 180.572 741.188C178.84 740.552 177.36 739.552 176.131 738.188C174.902 736.825 174.112 735.182 173.761 733.261C173.409 731.34 173.567 729.524 174.234 727.814C174.896 726.078 175.926 724.618 177.324 723.436C178.744 722.223 180.389 721.446 182.259 721.104ZM183.123 725.83C182.201 725.999 181.383 726.373 180.668 726.954C179.954 727.535 179.428 728.28 179.092 729.188C178.78 730.093 178.733 731.134 178.948 732.312C179.164 733.49 179.577 734.447 180.188 735.183C180.825 735.913 181.58 736.424 182.454 736.714C183.323 736.979 184.218 737.027 185.141 736.858C186.063 736.689 186.883 736.327 187.603 735.772C188.317 735.192 188.843 734.447 189.179 733.538C189.516 732.629 189.577 731.586 189.361 730.407C189.146 729.229 188.72 728.274 188.083 727.544C187.446 726.813 186.691 726.303 185.817 726.012C184.944 725.722 184.046 725.661 183.123 725.83Z" fill="white"/>
<path d="M217.127 722.652C216.253 722.265 215.362 722.114 214.455 722.201C213.314 722.31 212.404 722.777 211.724 723.601C211.042 724.398 210.468 725.369 210.002 726.512L211.051 737.478L206.112 737.95L204.234 718.313L209.172 717.841L209.525 721.535C210.088 720.304 210.785 719.256 211.618 718.392C212.477 717.525 213.49 717.035 214.656 716.924C215.356 716.857 216.003 716.913 216.595 717.091L217.127 722.652Z" fill="white"/>
<path d="M234.322 710.649L234.445 716.389L239.912 716.272L240.001 720.412L234.534 720.529L234.716 729.043C234.735 729.928 234.945 730.627 235.346 731.139C235.774 731.625 236.391 731.859 237.198 731.842C237.901 731.827 238.498 731.736 238.989 731.569C239.507 731.402 239.984 731.17 240.42 730.874L240.504 734.819C240.02 735.324 239.404 735.754 238.657 736.109C237.935 736.463 237.014 736.652 235.895 736.676C234.124 736.713 232.667 736.185 231.524 735.089C230.406 733.967 229.826 732.416 229.783 730.438L229.574 720.635L226.02 720.711L225.966 718.173C227.206 717.703 228.334 716.846 229.349 715.6C230.39 714.353 231.202 712.721 231.784 710.703L234.322 710.649Z" fill="white"/>
<path d="M268.998 717.542L268.244 729.275C268.132 731.017 267.645 732.499 266.784 733.722C265.924 734.92 264.797 735.813 263.402 736.402C262.033 736.992 260.504 737.233 258.815 737.125C257.1 737.015 255.588 736.578 254.28 735.816C252.998 735.055 252.007 734.026 251.308 732.728C250.636 731.406 250.356 729.875 250.468 728.134L251.222 716.4L256.211 716.721L255.554 727.56C255.456 729.093 255.733 730.259 256.386 731.058C257.04 731.857 257.951 732.294 259.121 732.369C260.264 732.442 261.211 732.125 261.961 731.416C262.737 730.709 263.174 729.589 263.273 728.056L263.969 717.219L268.998 717.542Z" fill="white"/>
<path d="M286.865 719.763L286.419 722.54C287.138 721.838 288.055 721.221 289.17 720.688C290.31 720.159 291.536 720 292.847 720.211C294.827 720.53 296.377 721.465 297.499 723.017C298.621 724.569 298.967 726.682 298.537 729.356L296.613 741.312L291.715 740.524L293.495 729.218C293.706 727.906 293.541 726.878 293.002 726.131C292.488 725.389 291.679 724.929 290.573 724.752C289.699 724.611 288.831 724.761 287.968 725.203C287.132 725.649 286.381 726.214 285.717 726.898L283.732 739.239L278.834 738.451L281.968 718.975L286.865 719.763Z" fill="white"/>
<path d="M320.398 726.084C322.264 726.567 323.76 727.385 324.888 728.537C326.04 729.697 326.783 731.086 327.117 732.706C327.483 734.307 327.424 736.04 326.941 737.906L326.413 739.948L312.572 736.365C312.491 737.716 312.854 738.913 313.66 739.955C314.466 740.998 315.601 741.709 317.063 742.087C318.449 742.446 319.782 742.495 321.06 742.234C322.338 741.973 323.392 741.641 324.223 741.237L323.03 745.689C322.288 746.062 321.24 746.369 319.886 746.611C318.564 746.834 317.185 746.759 315.748 746.387C313.857 745.897 312.241 745.022 310.9 743.76C309.584 742.505 308.652 741.013 308.104 739.284C307.582 737.562 307.568 735.742 308.064 733.826C308.547 731.961 309.404 730.367 310.634 729.044C311.864 727.722 313.331 726.783 315.034 726.229C316.745 725.649 318.533 725.601 320.398 726.084ZM319.198 730.252C318.013 729.946 316.923 730.053 315.927 730.576C314.931 731.098 314.122 731.938 313.499 733.095L322.651 735.463C322.902 734.076 322.659 732.937 321.921 732.047C321.19 731.131 320.282 730.533 319.198 730.252Z" fill="white"/>
</svg>
