<svg width="474" height="1229" viewBox="0 0 474 1229" fill="none" xmlns="http://www.w3.org/2000/svg">
<mask id="path-1-inside-1_165_483" fill="white">
<path fill-rule="evenodd" clip-rule="evenodd" d="M0 493.953L79.1091 543.396V543.953H394.899V543.392L474 493.953L394.899 444.515V443.953H394H80H79.1091V444.51L0 493.953Z"/>
</mask>
<path fill-rule="evenodd" clip-rule="evenodd" d="M0 493.953L79.1091 543.396V543.953H394.899V543.392L474 493.953L394.899 444.515V443.953H394H80H79.1091V444.51L0 493.953Z" fill="#4C0406"/>
<path d="M79.1091 543.396H94.1091V535.083L87.0591 530.676L79.1091 543.396ZM0 493.953L-7.94997 481.233L-28.302 493.953L-7.94997 506.673L0 493.953ZM79.1091 543.953H64.1091V558.953H79.1091V543.953ZM394.899 543.953V558.953H409.899V543.953H394.899ZM394.899 543.392L386.949 530.672L379.899 535.078V543.392H394.899ZM474 493.953L481.95 506.673L502.302 493.953L481.95 481.233L474 493.953ZM394.899 444.515H379.899V452.829L386.949 457.235L394.899 444.515ZM394.899 443.953H409.899V428.953H394.899V443.953ZM79.1091 443.953V428.953H64.1091V443.953H79.1091ZM79.1091 444.51L87.0591 457.23L94.1091 452.824V444.51H79.1091ZM87.0591 530.676L7.94997 481.233L-7.94997 506.673L71.1591 556.116L87.0591 530.676ZM94.1091 543.953V543.396H64.1091V543.953H94.1091ZM394.899 528.953H79.1091V558.953H394.899V528.953ZM379.899 543.392V543.953H409.899V543.392H379.899ZM402.849 556.112L481.95 506.673L466.05 481.233L386.949 530.672L402.849 556.112ZM481.95 481.233L402.849 431.795L386.949 457.235L466.05 506.673L481.95 481.233ZM379.899 443.953V444.515H409.899V443.953H379.899ZM394 458.953H394.899V428.953H394V458.953ZM80 458.953H394V428.953H80V458.953ZM79.1091 458.953H80V428.953H79.1091V458.953ZM94.1091 444.51V443.953H64.1091V444.51H94.1091ZM7.94997 506.673L87.0591 457.23L71.1591 431.79L-7.94997 481.233L7.94997 506.673Z" fill="#B82025" mask="url(#path-1-inside-1_165_483)"/>
<path d="M48.574 201.977C47.3331 193.228 53.4196 185.13 62.1686 183.889V183.889C70.9176 182.648 79.016 188.735 80.2569 197.484L151.175 697.479L119.492 701.973L48.574 201.977Z" fill="#D83A40"/>
<path d="M104.96 229.752C103.878 220.982 110.109 212.995 118.879 211.913V211.913C127.65 210.83 135.637 217.062 136.719 225.832L198.581 727.029L166.822 730.949L104.96 229.752Z" fill="#D83A40"/>
<path d="M158.794 193.522C158.356 184.696 165.155 177.186 173.98 176.747V176.747C182.806 176.308 190.316 183.107 190.755 191.933L215.826 696.31L183.865 697.899L158.794 193.522Z" fill="#D83A40"/>
<path d="M209.554 17.3258C209.184 8.497 216.041 1.03991 224.87 0.669921V0.669921C233.699 0.299933 241.156 7.15716 241.526 15.986L262.67 520.543L230.698 521.883L209.554 17.3258Z" fill="#D83A40"/>
<path d="M277.097 197.947C277.344 189.114 284.705 182.153 293.538 182.4V182.4C302.371 182.646 309.332 190.007 309.085 198.84L294.988 703.643L263 702.75L277.097 197.947Z" fill="#D83A40"/>
<path d="M336.195 243.784C337.475 235.041 345.601 228.991 354.345 230.272V230.272C363.088 231.553 369.137 239.679 367.857 248.422L294.662 748.09L263 743.452L336.195 243.784Z" fill="#D83A40"/>
<path d="M385.468 211.882C386.298 203.085 394.103 196.626 402.901 197.457V197.457C411.698 198.288 418.157 206.093 417.326 214.89L369.858 717.654L338 714.646L385.468 211.882Z" fill="#D83A40"/>
<mask id="path-10-inside-2_165_483" fill="white">
<path d="M79 528.953H395V1228.95H79V528.953Z"/>
</mask>
<path d="M79 528.953H395V1228.95H79V528.953Z" fill="#D83A40"/>
<path d="M79 528.953V513.953H64V528.953H79ZM395 528.953H410V513.953H395V528.953ZM79 543.953H395V513.953H79V543.953ZM380 528.953V1228.95H410V528.953H380ZM94 1228.95V528.953H64V1228.95H94Z" fill="#B82025" mask="url(#path-10-inside-2_165_483)"/>
<path d="M71.5 547.455V1221.45H7.5V507.48L71.5 547.455Z" fill="#A81319" stroke="#A81319" stroke-width="15"/>
<path d="M402.5 547.455V1221.45H466.5V507.48L402.5 547.455Z" fill="#A81319" stroke="#A81319" stroke-width="15"/>
<path d="M130.296 681.986C133.845 681.249 137.191 681.065 140.333 681.434C143.475 681.802 146.19 682.419 148.478 683.285L151.109 695.856C148.624 694.968 146.006 694.203 143.254 693.562C140.501 692.92 137.534 692.93 134.352 693.591C132.761 693.921 131.221 694.497 129.733 695.316C128.305 696.123 127.174 697.124 126.338 698.319C125.564 699.501 125.337 700.857 125.657 702.387C126.079 704.405 127.286 705.75 129.279 706.422C131.271 707.093 133.661 707.682 136.449 708.188L144.628 709.745C149.296 710.691 152.915 712.269 155.485 714.481C158.054 716.692 159.691 719.48 160.395 722.844C161.163 726.515 160.771 729.979 159.218 733.238C157.713 736.423 155.353 739.18 152.136 741.507C148.981 743.822 145.262 745.424 140.978 746.314C137.367 747.064 133.782 747.17 130.221 746.633C126.661 746.095 123.471 745.194 120.652 743.928L118.022 731.357C121.124 732.755 124.437 733.79 127.962 734.463C131.487 735.135 135.086 735.09 138.757 734.327C141.327 733.794 143.428 732.847 145.059 731.487C146.677 730.066 147.275 728.346 146.853 726.327C146.52 724.736 145.486 723.61 143.752 722.949C142.065 722.214 140.264 721.695 138.349 721.39L128.126 719.683C122.969 718.839 119.227 717.127 116.899 714.546C114.619 711.892 113.102 708.76 112.347 705.15C111.566 701.419 111.897 697.967 113.341 694.795C114.833 691.548 117.071 688.818 120.055 686.602C123.027 684.325 126.44 682.787 130.296 681.986Z" fill="white"/>
<path d="M182.246 665.89C184.483 665.653 186.496 666.257 188.285 667.701C190.067 669.084 191.074 670.863 191.306 673.038C191.531 675.151 190.922 677.101 189.479 678.888C188.035 680.675 186.195 681.687 183.957 681.924C181.72 682.161 179.707 681.557 177.918 680.112C176.192 678.661 175.216 676.879 174.991 674.766C174.759 672.591 175.337 670.644 176.725 668.926C178.168 667.139 180.009 666.127 182.246 665.89ZM191.762 689.676L196.786 736.752L184.946 738.007L180.996 700.998L173.445 701.798L172.37 691.73L191.762 689.676Z" fill="white"/>
<path d="M234.902 686.446C237.465 686.451 240.057 687.05 242.679 688.243C245.302 689.436 247.486 691.035 249.232 693.039L249.243 687.695L261.149 687.72L261.049 735.064L249.142 735.038L249.159 727.07C247.779 729.629 245.774 731.844 243.145 733.713C240.516 735.52 237.452 736.42 233.952 736.413C230.14 736.405 226.61 735.428 223.364 733.484C220.181 731.54 217.625 728.722 215.695 725.03C213.765 721.339 212.806 716.868 212.817 711.618C212.828 706.368 213.807 701.87 215.752 698.124C217.76 694.378 220.423 691.509 223.739 689.516C227.119 687.461 230.84 686.437 234.902 686.446ZM237.315 698.076C234.815 698.071 232.657 698.722 230.842 700.031C229.089 701.277 227.711 702.931 226.706 704.991C225.702 707.051 225.197 709.269 225.192 711.644C225.185 715.207 226.241 718.24 228.36 720.745C230.543 723.249 233.415 724.505 236.977 724.513C239.102 724.517 241.072 723.959 242.887 722.838C244.765 721.717 246.268 720.157 247.397 718.16C248.589 716.1 249.188 713.632 249.194 710.757L249.208 704.007C247.525 702.191 245.684 700.75 243.686 699.683C241.751 698.617 239.627 698.081 237.315 698.076Z" fill="white"/>
<path d="M299.678 690.81L298.668 696.724C300.391 695.178 302.364 693.832 304.588 692.688C306.874 691.553 309.589 691.253 312.731 691.785C315.997 692.338 318.824 693.609 321.21 695.599C323.608 697.526 325.288 700.124 326.252 703.394C328.532 701.181 331.051 699.421 333.811 698.113C336.581 696.744 339.598 696.336 342.864 696.89C346.007 697.422 348.746 698.647 351.082 700.564C353.428 702.419 355.13 704.894 356.187 707.989C357.305 711.095 357.502 714.773 356.776 719.024L351.886 747.672L340.147 745.684L344.676 718.591C345.213 715.449 344.78 712.967 343.38 711.145C342.04 709.333 340.046 708.203 337.396 707.754C335.362 707.409 333.496 707.759 331.796 708.802C330.107 709.784 328.468 711.027 326.879 712.533L321.753 742.568L310.014 740.579L314.543 713.486C315.08 710.344 314.647 707.862 313.246 706.04C311.907 704.228 309.943 703.103 307.355 702.665C305.383 702.331 303.522 702.649 301.771 703.621C300.031 704.53 298.408 705.682 296.902 707.075L291.712 737.479L279.973 735.49L287.939 688.821L299.678 690.81Z" fill="white"/>
<path d="M188.323 773.476C191.304 772.987 194.095 772.951 196.697 773.368C199.299 773.786 201.537 774.395 203.41 775.196L205.144 785.757C203.108 784.93 200.956 784.202 198.689 783.571C196.421 782.94 193.951 782.844 191.278 783.283C189.942 783.503 188.64 783.927 187.371 784.558C186.153 785.18 185.175 785.974 184.437 786.94C183.749 787.897 183.511 789.018 183.722 790.303C184 791.999 184.957 793.162 186.59 793.791C188.224 794.42 190.192 794.994 192.494 795.513L199.246 797.097C203.097 798.048 206.052 799.49 208.111 801.421C210.17 803.353 211.431 805.732 211.895 808.559C212.401 811.642 211.949 814.514 210.538 817.174C209.17 819.773 207.106 821.986 204.344 823.811C201.634 825.629 198.48 826.832 194.882 827.423C191.85 827.921 188.862 827.883 185.918 827.311C182.973 826.739 180.351 825.876 178.051 824.723L176.317 814.161C178.848 815.435 181.569 816.413 184.478 817.097C187.388 817.78 190.385 817.869 193.468 817.363C195.627 817.009 197.41 816.294 198.817 815.218C200.215 814.091 200.775 812.68 200.497 810.984C200.277 809.648 199.458 808.674 198.038 808.062C196.661 807.391 195.181 806.895 193.598 806.574L185.151 804.794C180.889 803.91 177.836 802.353 175.992 800.122C174.191 797.832 173.041 795.17 172.544 792.138C172.029 789.003 172.43 786.14 173.746 783.548C175.106 780.897 177.067 778.702 179.632 776.961C182.188 775.169 185.085 774.008 188.323 773.476Z" fill="white"/>
<path d="M235.589 763.003C237.464 762.996 239.081 763.667 240.44 765.015C241.8 766.312 242.483 767.872 242.49 769.695C242.497 771.466 241.826 773.031 240.478 774.39C239.129 775.75 237.517 776.433 235.642 776.441C233.767 776.448 232.15 775.778 230.79 774.429C229.483 773.08 228.826 771.52 228.819 769.749C228.811 767.926 229.456 766.361 230.753 765.054C232.102 763.694 233.714 763.011 235.589 763.003ZM241.451 783.527L241.608 822.98L231.686 823.019L231.563 792.004L225.235 792.029L225.202 783.592L241.451 783.527Z" fill="white"/>
<path d="M281.765 786.25C285.57 786.86 288.704 788.205 291.167 790.287C293.68 792.378 295.423 795.004 296.393 798.166C297.424 801.284 297.634 804.747 297.025 808.552L296.358 812.718L268.124 808.198C268.219 810.903 269.167 813.218 270.969 815.141C272.771 817.065 275.163 818.266 278.146 818.743C280.974 819.196 283.636 819.042 286.132 818.281C288.627 817.52 290.664 816.659 292.242 815.698L290.707 824.789C289.3 825.671 287.272 826.481 284.622 827.217C282.032 827.91 279.271 828.022 276.34 827.553C272.483 826.935 269.1 825.497 266.191 823.238C263.334 820.987 261.197 818.193 259.78 814.854C258.414 811.523 258.044 807.903 258.67 803.995C259.279 800.189 260.683 796.853 262.882 793.988C265.082 791.123 267.825 788.977 271.113 787.552C274.408 786.075 277.959 785.641 281.765 786.25ZM280.163 794.776C277.745 794.389 275.595 794.81 273.71 796.038C271.826 797.266 270.373 799.09 269.353 801.512L288.021 804.5C288.26 801.69 287.561 799.468 285.924 797.835C284.294 796.15 282.374 795.13 280.163 794.776Z" fill="white"/>
<path d="M162.883 603.743L163.966 607.739L159.028 609.078L163.107 624.121L158.319 625.419L154.239 610.377L151.337 611.164L150.253 607.167L153.156 606.38L152.696 604.684C152.3 603.226 152.265 601.9 152.588 600.706C152.931 599.48 153.529 598.454 154.385 597.629C155.24 596.803 156.271 596.227 157.477 595.9C158.282 595.681 159.009 595.579 159.66 595.591C160.311 595.603 160.904 595.699 161.438 595.878L162.522 599.874C161.556 599.596 160.536 599.617 159.462 599.935C158.715 600.164 158.142 600.59 157.744 601.21C157.339 601.806 157.279 602.631 157.566 603.687L157.944 605.082L162.883 603.743Z" fill="white"/>
<path d="M182.259 599.104C184.154 598.757 185.968 598.902 187.699 599.538C189.426 600.149 190.906 601.149 192.14 602.538C193.394 603.897 194.197 605.537 194.549 607.458C194.9 609.38 194.73 611.198 194.037 612.913C193.371 614.623 192.34 616.082 190.947 617.291C189.548 618.473 187.901 619.238 186.005 619.584C184.135 619.926 182.324 619.794 180.572 619.188C178.84 618.552 177.36 617.552 176.131 616.188C174.902 614.825 174.112 613.182 173.761 611.261C173.409 609.34 173.567 607.524 174.234 605.814C174.896 604.078 175.926 602.618 177.324 601.436C178.744 600.223 180.389 599.446 182.259 599.104ZM183.123 603.83C182.201 603.999 181.383 604.373 180.668 604.954C179.954 605.535 179.428 606.28 179.092 607.188C178.78 608.093 178.733 609.134 178.948 610.312C179.164 611.49 179.577 612.447 180.188 613.183C180.825 613.913 181.58 614.424 182.454 614.714C183.323 614.979 184.218 615.027 185.141 614.858C186.063 614.689 186.883 614.327 187.603 613.772C188.317 613.192 188.843 612.447 189.179 611.538C189.516 610.629 189.577 609.586 189.361 608.407C189.146 607.229 188.72 606.274 188.083 605.544C187.446 604.813 186.691 604.303 185.817 604.012C184.944 603.722 184.046 603.661 183.123 603.83Z" fill="white"/>
<path d="M217.127 600.652C216.253 600.265 215.362 600.114 214.455 600.201C213.314 600.31 212.404 600.777 211.724 601.601C211.042 602.398 210.468 603.369 210.002 604.512L211.051 615.478L206.112 615.95L204.234 596.313L209.172 595.841L209.525 599.535C210.088 598.304 210.785 597.256 211.618 596.392C212.477 595.525 213.49 595.035 214.656 594.924C215.356 594.857 216.003 594.913 216.595 595.091L217.127 600.652Z" fill="white"/>
<path d="M234.322 588.649L234.445 594.389L239.912 594.272L240.001 598.412L234.534 598.529L234.716 607.043C234.735 607.928 234.945 608.627 235.346 609.139C235.774 609.625 236.391 609.859 237.198 609.842C237.901 609.827 238.498 609.736 238.989 609.569C239.507 609.402 239.984 609.17 240.42 608.874L240.504 612.819C240.02 613.324 239.404 613.754 238.657 614.109C237.935 614.463 237.014 614.652 235.895 614.676C234.124 614.713 232.667 614.185 231.524 613.089C230.406 611.967 229.826 610.416 229.783 608.438L229.574 598.635L226.02 598.711L225.966 596.173C227.206 595.703 228.334 594.846 229.349 593.6C230.39 592.353 231.202 590.721 231.784 588.703L234.322 588.649Z" fill="white"/>
<path d="M268.998 595.542L268.244 607.275C268.132 609.017 267.645 610.499 266.784 611.722C265.924 612.92 264.797 613.813 263.402 614.402C262.033 614.992 260.504 615.233 258.815 615.125C257.1 615.015 255.588 614.578 254.28 613.816C252.998 613.055 252.007 612.026 251.308 610.728C250.636 609.406 250.356 607.875 250.468 606.134L251.222 594.4L256.211 594.721L255.554 605.56C255.456 607.093 255.733 608.259 256.386 609.058C257.04 609.857 257.951 610.294 259.121 610.369C260.264 610.442 261.211 610.125 261.961 609.416C262.737 608.709 263.174 607.589 263.273 606.056L263.969 595.219L268.998 595.542Z" fill="white"/>
<path d="M286.865 597.763L286.419 600.54C287.138 599.838 288.055 599.221 289.17 598.688C290.31 598.159 291.536 598 292.847 598.211C294.827 598.53 296.377 599.465 297.499 601.017C298.621 602.569 298.967 604.682 298.537 607.356L296.613 619.312L291.715 618.524L293.495 607.218C293.706 605.906 293.541 604.878 293.002 604.131C292.488 603.389 291.679 602.929 290.573 602.752C289.699 602.611 288.831 602.761 287.968 603.203C287.132 603.649 286.381 604.214 285.717 604.898L283.732 617.239L278.834 616.451L281.968 596.975L286.865 597.763Z" fill="white"/>
<path d="M320.398 604.084C322.264 604.567 323.76 605.385 324.888 606.537C326.04 607.697 326.783 609.086 327.117 610.706C327.483 612.307 327.424 614.04 326.941 615.906L326.413 617.948L312.572 614.365C312.491 615.716 312.854 616.913 313.66 617.955C314.466 618.998 315.601 619.709 317.063 620.087C318.449 620.446 319.782 620.495 321.06 620.234C322.338 619.973 323.392 619.641 324.223 619.237L323.03 623.689C322.288 624.062 321.24 624.369 319.886 624.611C318.564 624.834 317.185 624.759 315.748 624.387C313.857 623.897 312.241 623.022 310.9 621.76C309.584 620.505 308.652 619.013 308.104 617.284C307.582 615.562 307.568 613.742 308.064 611.826C308.547 609.961 309.404 608.367 310.634 607.044C311.864 605.722 313.331 604.783 315.034 604.229C316.745 603.649 318.533 603.601 320.398 604.084ZM319.198 608.252C318.013 607.946 316.923 608.053 315.927 608.576C314.931 609.098 314.122 609.938 313.499 611.095L322.651 613.463C322.902 612.076 322.659 610.937 321.921 610.047C321.19 609.131 320.282 608.533 319.198 608.252Z" fill="white"/>
</svg>
