<svg width="474" height="1472" viewBox="0 0 474 1472" fill="none" xmlns="http://www.w3.org/2000/svg">
<mask id="path-1-inside-1_165_927" fill="white">
<path fill-rule="evenodd" clip-rule="evenodd" d="M0 736.972L79.1091 786.415V786.972H394.899V786.41L474 736.972L394.899 687.533V686.972H394H80H79.1091V687.528L0 736.972Z"/>
</mask>
<path fill-rule="evenodd" clip-rule="evenodd" d="M0 736.972L79.1091 786.415V786.972H394.899V786.41L474 736.972L394.899 687.533V686.972H394H80H79.1091V687.528L0 736.972Z" fill="#4C0406"/>
<path d="M79.1091 786.415H94.1091V778.101L87.0591 773.695L79.1091 786.415ZM0 736.972L-7.94997 724.252L-28.302 736.972L-7.94997 749.692L0 736.972ZM79.1091 786.972H64.1091V801.972H79.1091V786.972ZM394.899 786.972V801.972H409.899V786.972H394.899ZM394.899 786.41L386.949 773.69L379.899 778.096V786.41H394.899ZM474 736.972L481.95 749.692L502.302 736.972L481.95 724.252L474 736.972ZM394.899 687.533H379.899V695.847L386.949 700.253L394.899 687.533ZM394.899 686.972H409.899V671.972H394.899V686.972ZM79.1091 686.972V671.972H64.1091V686.972H79.1091ZM79.1091 687.528L87.0591 700.248L94.1091 695.842V687.528H79.1091ZM87.0591 773.695L7.94997 724.252L-7.94997 749.692L71.1591 799.135L87.0591 773.695ZM94.1091 786.972V786.415H64.1091V786.972H94.1091ZM394.899 771.972H79.1091V801.972H394.899V771.972ZM379.899 786.41V786.972H409.899V786.41H379.899ZM402.849 799.13L481.95 749.692L466.05 724.252L386.949 773.69L402.849 799.13ZM481.95 724.252L402.849 674.813L386.949 700.253L466.05 749.692L481.95 724.252ZM379.899 686.972V687.533H409.899V686.972H379.899ZM394 701.972H394.899V671.972H394V701.972ZM80 701.972H394V671.972H80V701.972ZM79.1091 701.972H80V671.972H79.1091V701.972ZM94.1091 687.528V686.972H64.1091V687.528H94.1091ZM7.94997 749.692L87.0591 700.248L71.1591 674.809L-7.94997 724.252L7.94997 749.692Z" fill="#B82025" mask="url(#path-1-inside-1_165_927)"/>
<path d="M48.574 434.996C47.3331 426.247 53.4196 418.148 62.1686 416.907V416.907C70.9176 415.666 79.016 421.753 80.2569 430.502L151.175 930.498L119.492 934.991L48.574 434.996Z" fill="#D83A40"/>
<path d="M104.96 462.771C103.878 454.001 110.109 446.014 118.879 444.931V444.931C127.65 443.849 135.637 450.081 136.719 458.851L198.581 960.047L166.822 963.967L104.96 462.771Z" fill="#D83A40"/>
<path d="M158.794 426.54C158.356 417.714 165.155 410.204 173.98 409.765V409.765C182.806 409.327 190.316 416.126 190.755 424.951L215.826 929.329L183.865 930.917L158.794 426.54Z" fill="#D83A40"/>
<path d="M201.066 18.4079C200.388 9.5974 206.981 1.90551 215.792 1.22757V1.22757C224.602 0.549641 232.294 7.1424 232.972 15.9529L271.715 519.465L239.809 521.92L201.066 18.4079Z" fill="#D83A40"/>
<path d="M277.097 430.965C277.344 422.132 284.705 415.171 293.538 415.418V415.418C302.371 415.665 309.332 423.025 309.085 431.858L294.988 936.661L263 935.768L277.097 430.965Z" fill="#D83A40"/>
<path d="M336.195 476.802C337.475 468.059 345.601 462.009 354.345 463.29V463.29C363.088 464.571 369.137 472.697 367.857 481.44L294.662 981.108L263 976.47L336.195 476.802Z" fill="#D83A40"/>
<path d="M385.468 444.9C386.298 436.103 394.103 429.645 402.901 430.475V430.475C411.698 431.306 418.157 439.111 417.326 447.908L369.858 950.672L338 947.665L385.468 444.9Z" fill="#D83A40"/>
<mask id="path-10-inside-2_165_927" fill="white">
<path d="M79 771.972H395V1471.97H79V771.972Z"/>
</mask>
<path d="M79 771.972H395V1471.97H79V771.972Z" fill="#D83A40"/>
<path d="M79 771.972V756.972H64V771.972H79ZM395 771.972H410V756.972H395V771.972ZM79 786.972H395V756.972H79V786.972ZM380 771.972V1471.97H410V771.972H380ZM94 1471.97V771.972H64V1471.97H94Z" fill="#B82025" mask="url(#path-10-inside-2_165_927)"/>
<path d="M71.5 790.474V1464.47H7.5V750.499L71.5 790.474Z" fill="#A81319" stroke="#A81319" stroke-width="15"/>
<path d="M402.5 790.474V1464.47H466.5V750.499L402.5 790.474Z" fill="#A81319" stroke="#A81319" stroke-width="15"/>
<path d="M130.296 925.004C133.845 924.267 137.191 924.083 140.333 924.452C143.475 924.821 146.19 925.438 148.478 926.303L151.109 938.875C148.624 937.986 146.006 937.221 143.254 936.58C140.501 935.939 137.534 935.949 134.352 936.609C132.761 936.94 131.221 937.515 129.733 938.335C128.305 939.142 127.174 940.143 126.338 941.338C125.564 942.52 125.337 943.875 125.657 945.405C126.079 947.424 127.286 948.769 129.279 949.44C131.271 950.112 133.661 950.7 136.449 951.207L144.628 952.764C149.296 953.709 152.915 955.288 155.485 957.499C158.054 959.71 159.691 962.498 160.395 965.863C161.163 969.533 160.771 972.998 159.218 976.257C157.713 979.442 155.353 982.198 152.136 984.525C148.981 986.84 145.262 988.443 140.978 989.332C137.367 990.082 133.782 990.188 130.221 989.651C126.661 989.114 123.471 988.212 120.652 986.946L118.022 974.375C121.124 975.773 124.437 976.809 127.962 977.481C131.487 978.153 135.086 978.108 138.757 977.346C141.327 976.812 143.428 975.865 145.059 974.505C146.677 973.084 147.275 971.364 146.853 969.345C146.52 967.755 145.486 966.629 143.752 965.968C142.065 965.233 140.264 964.713 138.349 964.409L128.126 962.701C122.969 961.857 119.227 960.145 116.899 957.565C114.619 954.91 113.102 951.778 112.347 948.169C111.566 944.437 111.897 940.985 113.341 937.813C114.833 934.567 117.071 931.836 120.055 929.62C123.027 927.344 126.44 925.805 130.296 925.004Z" fill="white"/>
<path d="M182.246 908.908C184.483 908.671 186.496 909.275 188.285 910.719C190.067 912.102 191.074 913.881 191.306 916.056C191.531 918.169 190.922 920.119 189.479 921.906C188.035 923.693 186.195 924.705 183.957 924.942C181.72 925.179 179.707 924.575 177.918 923.13C176.192 921.679 175.216 919.897 174.991 917.784C174.759 915.609 175.337 913.662 176.725 911.944C178.168 910.157 180.009 909.145 182.246 908.908ZM191.762 932.694L196.786 979.77L184.946 981.025L180.996 944.016L173.445 944.816L172.37 934.748L191.762 932.694Z" fill="white"/>
<path d="M234.902 929.464C237.465 929.47 240.057 930.069 242.679 931.262C245.302 932.455 247.486 934.053 249.232 936.057L249.243 930.713L261.149 930.738L261.049 978.082L249.142 978.057L249.159 970.088C247.779 972.648 245.774 974.862 243.145 976.732C240.516 978.539 237.452 979.438 233.952 979.431C230.14 979.423 226.61 978.447 223.364 976.502C220.181 974.558 217.625 971.74 215.695 968.049C213.765 964.357 212.806 959.886 212.817 954.636C212.828 949.386 213.807 944.888 215.752 941.142C217.76 937.397 220.423 934.527 223.739 932.534C227.119 930.479 230.84 929.456 234.902 929.464ZM237.315 941.094C234.815 941.089 232.657 941.741 230.842 943.049C229.089 944.296 227.711 945.949 226.706 948.009C225.702 950.07 225.197 952.287 225.192 954.662C225.185 958.225 226.241 961.258 228.36 963.763C230.543 966.267 233.415 967.524 236.977 967.531C239.102 967.536 241.072 966.977 242.887 965.856C244.765 964.735 246.268 963.176 247.397 961.178C248.589 959.118 249.188 956.651 249.194 953.776L249.208 947.026C247.525 945.21 245.684 943.768 243.686 942.701C241.751 941.635 239.627 941.099 237.315 941.094Z" fill="white"/>
<path d="M299.678 933.828L298.668 939.743C300.391 938.196 302.364 936.851 304.588 935.706C306.874 934.572 309.589 934.271 312.731 934.804C315.997 935.357 318.824 936.628 321.21 938.617C323.608 940.545 325.288 943.143 326.252 946.412C328.532 944.2 331.051 942.439 333.811 941.132C336.581 939.763 339.598 939.355 342.864 939.908C346.007 940.441 348.746 941.665 351.082 943.582C353.428 945.438 355.13 947.913 356.187 951.008C357.305 954.113 357.502 957.792 356.776 962.043L351.886 990.691L340.147 988.702L344.676 961.609C345.213 958.467 344.78 955.985 343.38 954.163C342.04 952.352 340.046 951.221 337.396 950.772C335.362 950.428 333.496 950.777 331.796 951.821C330.107 952.802 328.468 954.046 326.879 955.552L321.753 985.586L310.014 983.598L314.543 956.505C315.08 953.363 314.647 950.881 313.246 949.059C311.907 947.247 309.943 946.122 307.355 945.683C305.383 945.349 303.522 945.668 301.771 946.639C300.031 947.549 298.408 948.7 296.902 950.093L291.712 980.497L279.973 978.509L287.939 931.84L299.678 933.828Z" fill="white"/>
<path d="M188.323 1016.49C191.304 1016 194.095 1015.97 196.697 1016.39C199.299 1016.8 201.537 1017.41 203.41 1018.21L205.144 1028.78C203.108 1027.95 200.956 1027.22 198.689 1026.59C196.421 1025.96 193.951 1025.86 191.278 1026.3C189.942 1026.52 188.64 1026.95 187.371 1027.58C186.153 1028.2 185.175 1028.99 184.437 1029.96C183.749 1030.92 183.511 1032.04 183.722 1033.32C184 1035.02 184.957 1036.18 186.59 1036.81C188.224 1037.44 190.192 1038.01 192.494 1038.53L199.246 1040.11C203.097 1041.07 206.052 1042.51 208.111 1044.44C210.17 1046.37 211.431 1048.75 211.895 1051.58C212.401 1054.66 211.949 1057.53 210.538 1060.19C209.17 1062.79 207.106 1065 204.344 1066.83C201.634 1068.65 198.48 1069.85 194.882 1070.44C191.85 1070.94 188.862 1070.9 185.918 1070.33C182.973 1069.76 180.351 1068.89 178.051 1067.74L176.317 1057.18C178.848 1058.45 181.569 1059.43 184.478 1060.11C187.388 1060.8 190.385 1060.89 193.468 1060.38C195.627 1060.03 197.41 1059.31 198.817 1058.24C200.215 1057.11 200.775 1055.7 200.497 1054C200.277 1052.67 199.458 1051.69 198.038 1051.08C196.661 1050.41 195.181 1049.91 193.598 1049.59L185.151 1047.81C180.889 1046.93 177.836 1045.37 175.992 1043.14C174.191 1040.85 173.041 1038.19 172.544 1035.16C172.029 1032.02 172.43 1029.16 173.746 1026.57C175.106 1023.92 177.067 1021.72 179.632 1019.98C182.188 1018.19 185.085 1017.03 188.323 1016.49Z" fill="white"/>
<path d="M235.589 1006.02C237.464 1006.01 239.081 1006.68 240.44 1008.03C241.8 1009.33 242.483 1010.89 242.49 1012.71C242.497 1014.48 241.826 1016.05 240.478 1017.41C239.129 1018.77 237.517 1019.45 235.642 1019.46C233.767 1019.47 232.15 1018.8 230.79 1017.45C229.483 1016.1 228.826 1014.54 228.819 1012.77C228.811 1010.94 229.456 1009.38 230.753 1008.07C232.102 1006.71 233.714 1006.03 235.589 1006.02ZM241.451 1026.55L241.608 1066L231.686 1066.04L231.563 1035.02L225.235 1035.05L225.202 1026.61L241.451 1026.55Z" fill="white"/>
<path d="M281.765 1029.27C285.57 1029.88 288.704 1031.22 291.167 1033.31C293.68 1035.4 295.423 1038.02 296.393 1041.18C297.424 1044.3 297.634 1047.76 297.025 1051.57L296.358 1055.74L268.124 1051.22C268.219 1053.92 269.167 1056.24 270.969 1058.16C272.771 1060.08 275.163 1061.28 278.146 1061.76C280.974 1062.21 283.636 1062.06 286.132 1061.3C288.627 1060.54 290.664 1059.68 292.242 1058.72L290.707 1067.81C289.3 1068.69 287.272 1069.5 284.622 1070.24C282.032 1070.93 279.271 1071.04 276.34 1070.57C272.483 1069.95 269.1 1068.52 266.191 1066.26C263.334 1064.01 261.197 1061.21 259.78 1057.87C258.414 1054.54 258.044 1050.92 258.67 1047.01C259.279 1043.21 260.683 1039.87 262.882 1037.01C265.082 1034.14 267.825 1032 271.113 1030.57C274.408 1029.09 277.959 1028.66 281.765 1029.27ZM280.163 1037.79C277.745 1037.41 275.595 1037.83 273.71 1039.06C271.826 1040.28 270.373 1042.11 269.353 1044.53L288.021 1047.52C288.26 1044.71 287.561 1042.49 285.924 1040.85C284.294 1039.17 282.374 1038.15 280.163 1037.79Z" fill="white"/>
<path d="M162.883 846.761L163.966 850.757L159.028 852.097L163.107 867.139L158.319 868.438L154.239 853.395L151.337 854.182L150.253 850.186L153.156 849.399L152.696 847.702C152.3 846.245 152.265 844.919 152.588 843.725C152.931 842.499 153.529 841.473 154.385 840.647C155.24 839.822 156.271 839.245 157.477 838.918C158.282 838.7 159.009 838.597 159.66 838.609C160.311 838.622 160.904 838.717 161.438 838.896L162.522 842.893C161.556 842.615 160.536 842.635 159.462 842.953C158.715 843.183 158.142 843.608 157.744 844.229C157.339 844.824 157.279 845.65 157.566 846.706L157.944 848.1L162.883 846.761Z" fill="white"/>
<path d="M182.259 842.122C184.154 841.775 185.968 841.92 187.699 842.556C189.426 843.167 190.906 844.167 192.14 845.556C193.394 846.915 194.197 848.555 194.549 850.477C194.9 852.398 194.73 854.216 194.037 855.931C193.371 857.641 192.34 859.101 190.947 860.309C189.548 861.491 187.901 862.256 186.005 862.602C184.135 862.944 182.324 862.812 180.572 862.206C178.84 861.57 177.36 860.57 176.131 859.206C174.902 857.843 174.112 856.2 173.761 854.279C173.409 852.358 173.567 850.542 174.234 848.832C174.896 847.096 175.926 845.636 177.324 844.454C178.744 843.241 180.389 842.464 182.259 842.122ZM183.123 846.848C182.201 847.017 181.383 847.392 180.668 847.972C179.954 848.553 179.428 849.298 179.092 850.207C178.78 851.111 178.733 852.152 178.948 853.33C179.164 854.509 179.577 855.465 180.188 856.201C180.825 856.932 181.58 857.442 182.454 857.732C183.323 857.997 184.218 858.045 185.141 857.876C186.063 857.707 186.883 857.345 187.603 856.79C188.317 856.21 188.843 855.465 189.179 854.556C189.516 853.647 189.577 852.604 189.361 851.425C189.146 850.247 188.72 849.293 188.083 848.562C187.446 847.831 186.691 847.321 185.817 847.03C184.944 846.74 184.046 846.679 183.123 846.848Z" fill="white"/>
<path d="M217.127 843.67C216.253 843.283 215.362 843.133 214.455 843.22C213.314 843.329 212.404 843.795 211.724 844.619C211.042 845.417 210.468 846.387 210.002 847.531L211.051 858.496L206.112 858.969L204.234 839.332L209.172 838.859L209.525 842.553C210.088 841.322 210.785 840.274 211.618 839.41C212.477 838.543 213.49 838.054 214.656 837.942C215.356 837.875 216.003 837.931 216.595 838.11L217.127 843.67Z" fill="white"/>
<path d="M234.322 831.667L234.445 837.408L239.912 837.291L240.001 841.43L234.534 841.547L234.716 850.061C234.735 850.946 234.945 851.645 235.346 852.157C235.774 852.643 236.391 852.877 237.198 852.86C237.901 852.845 238.498 852.754 238.989 852.587C239.507 852.42 239.984 852.189 240.42 851.893L240.504 855.837C240.02 856.342 239.404 856.772 238.657 857.127C237.935 857.481 237.014 857.67 235.895 857.694C234.124 857.732 232.667 857.203 231.524 856.107C230.406 854.985 229.826 853.435 229.783 851.456L229.574 841.653L226.02 841.729L225.966 839.191C227.206 838.722 228.334 837.864 229.349 836.618C230.39 835.372 231.202 833.739 231.784 831.721L234.322 831.667Z" fill="white"/>
<path d="M268.998 838.56L268.244 850.294C268.132 852.035 267.645 853.517 266.784 854.741C265.924 855.938 264.797 856.831 263.402 857.42C262.033 858.01 260.504 858.252 258.815 858.143C257.1 858.033 255.588 857.597 254.28 856.834C252.998 856.073 252.007 855.044 251.308 853.747C250.636 852.425 250.356 850.893 250.468 849.152L251.222 837.418L256.211 837.739L255.554 848.578C255.456 850.112 255.733 851.278 256.386 852.076C257.04 852.875 257.951 853.312 259.121 853.387C260.264 853.461 261.211 853.143 261.961 852.434C262.737 851.728 263.174 850.607 263.273 849.074L263.969 838.237L268.998 838.56Z" fill="white"/>
<path d="M286.865 840.781L286.419 843.558C287.138 842.856 288.055 842.239 289.17 841.706C290.31 841.177 291.536 841.018 292.847 841.229C294.827 841.548 296.377 842.483 297.499 844.035C298.621 845.587 298.967 847.7 298.537 850.374L296.613 862.33L291.715 861.542L293.495 850.236C293.706 848.924 293.541 847.896 293.002 847.15C292.488 846.407 291.679 845.948 290.573 845.77C289.699 845.629 288.831 845.779 287.968 846.221C287.132 846.667 286.381 847.232 285.717 847.916L283.732 860.257L278.834 859.469L281.968 839.993L286.865 840.781Z" fill="white"/>
<path d="M320.398 847.103C322.264 847.586 323.76 848.403 324.888 849.556C326.04 850.715 326.783 852.104 327.117 853.724C327.483 855.325 327.424 857.059 326.941 858.924L326.413 860.966L312.572 857.384C312.491 858.735 312.854 859.931 313.66 860.974C314.466 862.017 315.601 862.727 317.063 863.106C318.449 863.464 319.782 863.513 321.06 863.252C322.338 862.992 323.392 862.659 324.223 862.256L323.03 866.708C322.288 867.081 321.24 867.388 319.886 867.629C318.564 867.852 317.185 867.777 315.748 867.405C313.857 866.916 312.241 866.04 310.9 864.779C309.584 863.523 308.652 862.031 308.104 860.302C307.582 858.58 307.568 856.761 308.064 854.845C308.547 852.979 309.404 851.385 310.634 850.063C311.864 848.74 313.331 847.802 315.034 847.248C316.745 846.668 318.533 846.62 320.398 847.103ZM319.198 851.271C318.013 850.964 316.923 851.072 315.927 851.594C314.931 852.117 314.122 852.956 313.499 854.113L322.651 856.482C322.902 855.095 322.659 853.956 321.921 853.065C321.19 852.15 320.282 851.551 319.198 851.271Z" fill="white"/>
</svg>
