<svg width="474" height="1472" viewBox="0 0 474 1472" fill="none" xmlns="http://www.w3.org/2000/svg">
<mask id="path-1-inside-1_165_742" fill="white">
<path fill-rule="evenodd" clip-rule="evenodd" d="M0 736.953L79.1091 786.396V786.953H394.899V786.391L474 736.953L394.899 687.515V686.953H394H80H79.1091V687.51L0 736.953Z"/>
</mask>
<path fill-rule="evenodd" clip-rule="evenodd" d="M0 736.953L79.1091 786.396V786.953H394.899V786.391L474 736.953L394.899 687.515V686.953H394H80H79.1091V687.51L0 736.953Z" fill="#4C0406"/>
<path d="M79.1091 786.396H94.1091V778.082L87.0591 773.676L79.1091 786.396ZM0 736.953L-7.94997 724.233L-28.302 736.953L-7.94997 749.673L0 736.953ZM79.1091 786.953H64.1091V801.953H79.1091V786.953ZM394.899 786.953V801.953H409.899V786.953H394.899ZM394.899 786.391L386.949 773.671L379.899 778.078V786.391H394.899ZM474 736.953L481.95 749.673L502.302 736.953L481.95 724.233L474 736.953ZM394.899 687.515H379.899V695.828L386.949 700.235L394.899 687.515ZM394.899 686.953H409.899V671.953H394.899V686.953ZM79.1091 686.953V671.953H64.1091V686.953H79.1091ZM79.1091 687.51L87.0591 700.23L94.1091 695.824V687.51H79.1091ZM87.0591 773.676L7.94997 724.233L-7.94997 749.673L71.1591 799.116L87.0591 773.676ZM94.1091 786.953V786.396H64.1091V786.953H94.1091ZM394.899 771.953H79.1091V801.953H394.899V771.953ZM379.899 786.391V786.953H409.899V786.391H379.899ZM402.849 799.111L481.95 749.673L466.05 724.233L386.949 773.671L402.849 799.111ZM481.95 724.233L402.849 674.795L386.949 700.235L466.05 749.673L481.95 724.233ZM379.899 686.953V687.515H409.899V686.953H379.899ZM394 701.953H394.899V671.953H394V701.953ZM80 701.953H394V671.953H80V701.953ZM79.1091 701.953H80V671.953H79.1091V701.953ZM94.1091 687.51V686.953H64.1091V687.51H94.1091ZM7.94997 749.673L87.0591 700.23L71.1591 674.79L-7.94997 724.233L7.94997 749.673Z" fill="#B82025" mask="url(#path-1-inside-1_165_742)"/>
<path d="M48.574 434.977C47.3331 426.228 53.4196 418.13 62.1686 416.889V416.889C70.9176 415.648 79.016 421.734 80.2569 430.483L151.175 930.479L119.492 934.973L48.574 434.977Z" fill="#D83A40"/>
<path d="M104.96 462.753C103.878 453.983 110.109 445.996 118.879 444.913V444.913C127.65 443.831 135.637 450.063 136.719 458.833L198.581 960.029L166.822 963.949L104.96 462.753Z" fill="#D83A40"/>
<path d="M158.794 426.522C158.356 417.696 165.155 410.186 173.98 409.747V409.747C182.806 409.308 190.316 416.107 190.755 424.933L215.826 929.31L183.865 930.899L158.794 426.522Z" fill="#D83A40"/>
<path d="M209.554 17.3258C209.184 8.497 216.041 1.03991 224.87 0.669921V0.669921C233.699 0.299933 241.156 7.15716 241.526 15.986L262.67 520.543L230.698 521.883L209.554 17.3258Z" fill="#D83A40"/>
<path d="M277.097 430.947C277.344 422.114 284.705 415.153 293.538 415.4V415.4C302.371 415.646 309.332 423.007 309.085 431.84L294.988 936.643L263 935.75L277.097 430.947Z" fill="#D83A40"/>
<path d="M336.195 476.784C337.475 468.041 345.601 461.991 354.345 463.272V463.272C363.088 464.553 369.137 472.679 367.857 481.422L294.662 981.09L263 976.452L336.195 476.784Z" fill="#D83A40"/>
<path d="M385.468 444.882C386.298 436.085 394.103 429.626 402.901 430.457V430.457C411.698 431.288 418.157 439.093 417.326 447.89L369.858 950.654L338 947.646L385.468 444.882Z" fill="#D83A40"/>
<mask id="path-10-inside-2_165_742" fill="white">
<path d="M79 771.953H395V1471.95H79V771.953Z"/>
</mask>
<path d="M79 771.953H395V1471.95H79V771.953Z" fill="#D83A40"/>
<path d="M79 771.953V756.953H64V771.953H79ZM395 771.953H410V756.953H395V771.953ZM79 786.953H395V756.953H79V786.953ZM380 771.953V1471.95H410V771.953H380ZM94 1471.95V771.953H64V1471.95H94Z" fill="#B82025" mask="url(#path-10-inside-2_165_742)"/>
<path d="M71.5 790.455V1464.45H7.5V750.48L71.5 790.455Z" fill="#A81319" stroke="#A81319" stroke-width="15"/>
<path d="M402.5 790.455V1464.45H466.5V750.48L402.5 790.455Z" fill="#A81319" stroke="#A81319" stroke-width="15"/>
<path d="M130.296 924.986C133.845 924.249 137.191 924.064 140.333 924.433C143.475 924.802 146.19 925.419 148.478 926.285L151.109 938.856C148.624 937.968 146.006 937.203 143.254 936.562C140.501 935.92 137.534 935.93 134.352 936.591C132.761 936.921 131.221 937.496 129.733 938.316C128.305 939.123 127.174 940.124 126.338 941.319C125.564 942.501 125.337 943.857 125.657 945.386C126.079 947.405 127.286 948.75 129.279 949.422C131.271 950.093 133.661 950.682 136.449 951.188L144.628 952.745C149.296 953.691 152.915 955.269 155.485 957.48C158.054 959.691 159.691 962.479 160.395 965.844C161.163 969.515 160.771 972.979 159.218 976.238C157.713 979.423 155.353 982.179 152.136 984.507C148.981 986.822 145.262 988.424 140.978 989.314C137.367 990.063 133.782 990.17 130.221 989.632C126.661 989.095 123.471 988.194 120.652 986.928L118.022 974.356C121.124 975.755 124.437 976.79 127.962 977.462C131.487 978.135 135.086 978.09 138.757 977.327C141.327 976.794 143.428 975.847 145.059 974.487C146.677 973.065 147.275 971.345 146.853 969.327C146.52 967.736 145.486 966.61 143.752 965.949C142.065 965.214 140.264 964.694 138.349 964.39L128.126 962.683C122.969 961.839 119.227 960.127 116.899 957.546C114.619 954.891 113.102 951.76 112.347 948.15C111.566 944.419 111.897 940.967 113.341 937.794C114.833 934.548 117.071 931.817 120.055 929.602C123.027 927.325 126.44 925.786 130.296 924.986Z" fill="white"/>
<path d="M182.246 908.889C184.483 908.652 186.496 909.256 188.285 910.701C190.067 912.083 191.074 913.862 191.306 916.037C191.531 918.15 190.922 920.1 189.479 921.887C188.035 923.674 186.195 924.686 183.957 924.923C181.72 925.16 179.707 924.556 177.918 923.112C176.192 921.661 175.216 919.878 174.991 917.765C174.759 915.59 175.337 913.644 176.725 911.925C178.168 910.138 180.009 909.126 182.246 908.889ZM191.762 932.676L196.786 979.752L184.946 981.006L180.996 943.998L173.445 944.797L172.37 934.73L191.762 932.676Z" fill="white"/>
<path d="M234.902 929.446C237.465 929.451 240.057 930.05 242.679 931.243C245.302 932.436 247.486 934.035 249.232 936.038L249.243 930.695L261.149 930.72L261.049 978.063L249.142 978.038L249.159 970.069C247.779 972.629 245.774 974.844 243.145 976.713C240.516 978.52 237.452 979.42 233.952 979.412C230.14 979.404 226.61 978.428 223.364 976.484C220.181 974.54 217.625 971.722 215.695 968.03C213.765 964.339 212.806 959.868 212.817 954.618C212.828 949.368 213.807 944.87 215.752 941.124C217.76 937.378 220.423 934.509 223.739 932.516C227.119 930.46 230.84 929.437 234.902 929.446ZM237.315 941.076C234.815 941.07 232.657 941.722 230.842 943.031C229.089 944.277 227.711 945.93 226.706 947.991C225.702 950.051 225.197 952.269 225.192 954.644C225.185 958.206 226.241 961.24 228.36 963.744C230.543 966.249 233.415 967.505 236.977 967.513C239.102 967.517 241.072 966.959 242.887 965.837C244.765 964.716 246.268 963.157 247.397 961.159C248.589 959.099 249.188 956.632 249.194 953.757L249.208 947.007C247.525 945.191 245.684 943.75 243.686 942.683C241.751 941.616 239.627 941.081 237.315 941.076Z" fill="white"/>
<path d="M299.678 933.81L298.668 939.724C300.391 938.178 302.364 936.832 304.588 935.688C306.874 934.553 309.589 934.253 312.731 934.785C315.997 935.338 318.824 936.609 321.21 938.599C323.608 940.526 325.288 943.124 326.252 946.394C328.532 944.181 331.051 942.421 333.811 941.113C336.581 939.744 339.598 939.336 342.864 939.89C346.007 940.422 348.746 941.647 351.082 943.564C353.428 945.419 355.13 947.894 356.187 950.989C357.305 954.095 357.502 957.773 356.776 962.024L351.886 990.672L340.147 988.684L344.676 961.591C345.213 958.449 344.78 955.967 343.38 954.145C342.04 952.333 340.046 951.203 337.396 950.754C335.362 950.409 333.496 950.759 331.796 951.802C330.107 952.784 328.468 954.027 326.879 955.533L321.753 985.568L310.014 983.579L314.543 956.486C315.08 953.344 314.647 950.862 313.246 949.04C311.907 947.228 309.943 946.103 307.355 945.665C305.383 945.331 303.522 945.649 301.771 946.621C300.031 947.53 298.408 948.682 296.902 950.075L291.712 980.479L279.973 978.49L287.939 931.821L299.678 933.81Z" fill="white"/>
<path d="M188.323 1016.48C191.304 1015.99 194.095 1015.95 196.697 1016.37C199.299 1016.79 201.537 1017.39 203.41 1018.2L205.144 1028.76C203.108 1027.93 200.956 1027.2 198.689 1026.57C196.421 1025.94 193.951 1025.84 191.278 1026.28C189.942 1026.5 188.64 1026.93 187.371 1027.56C186.153 1028.18 185.175 1028.97 184.437 1029.94C183.749 1030.9 183.511 1032.02 183.722 1033.3C184 1035 184.957 1036.16 186.59 1036.79C188.224 1037.42 190.192 1037.99 192.494 1038.51L199.246 1040.1C203.097 1041.05 206.052 1042.49 208.111 1044.42C210.17 1046.35 211.431 1048.73 211.895 1051.56C212.401 1054.64 211.949 1057.51 210.538 1060.17C209.17 1062.77 207.106 1064.99 204.344 1066.81C201.634 1068.63 198.48 1069.83 194.882 1070.42C191.85 1070.92 188.862 1070.88 185.918 1070.31C182.973 1069.74 180.351 1068.88 178.051 1067.72L176.317 1057.16C178.848 1058.43 181.569 1059.41 184.478 1060.1C187.388 1060.78 190.385 1060.87 193.468 1060.36C195.627 1060.01 197.41 1059.29 198.817 1058.22C200.215 1057.09 200.775 1055.68 200.497 1053.98C200.277 1052.65 199.458 1051.67 198.038 1051.06C196.661 1050.39 195.181 1049.9 193.598 1049.57L185.151 1047.79C180.889 1046.91 177.836 1045.35 175.992 1043.12C174.191 1040.83 173.041 1038.17 172.544 1035.14C172.029 1032 172.43 1029.14 173.746 1026.55C175.106 1023.9 177.067 1021.7 179.632 1019.96C182.188 1018.17 185.085 1017.01 188.323 1016.48Z" fill="white"/>
<path d="M235.589 1006C237.464 1006 239.081 1006.67 240.44 1008.02C241.8 1009.31 242.483 1010.87 242.49 1012.69C242.497 1014.47 241.826 1016.03 240.478 1017.39C239.129 1018.75 237.517 1019.43 235.642 1019.44C233.767 1019.45 232.15 1018.78 230.79 1017.43C229.483 1016.08 228.826 1014.52 228.819 1012.75C228.811 1010.93 229.456 1009.36 230.753 1008.05C232.102 1006.69 233.714 1006.01 235.589 1006ZM241.451 1026.53L241.608 1065.98L231.686 1066.02L231.563 1035L225.235 1035.03L225.202 1026.59L241.451 1026.53Z" fill="white"/>
<path d="M281.765 1029.25C285.57 1029.86 288.704 1031.21 291.167 1033.29C293.68 1035.38 295.423 1038 296.393 1041.17C297.424 1044.28 297.634 1047.75 297.025 1051.55L296.358 1055.72L268.124 1051.2C268.219 1053.9 269.167 1056.22 270.969 1058.14C272.771 1060.07 275.163 1061.27 278.146 1061.74C280.974 1062.2 283.636 1062.04 286.132 1061.28C288.627 1060.52 290.664 1059.66 292.242 1058.7L290.707 1067.79C289.3 1068.67 287.272 1069.48 284.622 1070.22C282.032 1070.91 279.271 1071.02 276.34 1070.55C272.483 1069.94 269.1 1068.5 266.191 1066.24C263.334 1063.99 261.197 1061.19 259.78 1057.85C258.414 1054.52 258.044 1050.9 258.67 1046.99C259.279 1043.19 260.683 1039.85 262.882 1036.99C265.082 1034.12 267.825 1031.98 271.113 1030.55C274.408 1029.07 277.959 1028.64 281.765 1029.25ZM280.163 1037.78C277.745 1037.39 275.595 1037.81 273.71 1039.04C271.826 1040.27 270.373 1042.09 269.353 1044.51L288.021 1047.5C288.26 1044.69 287.561 1042.47 285.924 1040.83C284.294 1039.15 282.374 1038.13 280.163 1037.78Z" fill="white"/>
<path d="M162.883 846.743L163.966 850.739L159.028 852.078L163.107 867.121L158.319 868.419L154.239 853.377L151.337 854.164L150.253 850.167L153.156 849.38L152.696 847.684C152.3 846.226 152.265 844.9 152.588 843.706C152.931 842.48 153.529 841.454 154.385 840.629C155.24 839.803 156.271 839.227 157.477 838.9C158.282 838.681 159.009 838.579 159.66 838.591C160.311 838.603 160.904 838.699 161.438 838.878L162.522 842.874C161.556 842.596 160.536 842.617 159.462 842.935C158.715 843.164 158.142 843.59 157.744 844.21C157.339 844.806 157.279 845.631 157.566 846.687L157.944 848.082L162.883 846.743Z" fill="white"/>
<path d="M182.259 842.103C184.154 841.757 185.968 841.901 187.699 842.538C189.426 843.148 190.906 844.148 192.14 845.538C193.394 846.897 194.197 848.537 194.549 850.458C194.9 852.379 194.73 854.197 194.037 855.912C193.371 857.623 192.34 859.082 190.947 860.29C189.548 861.472 187.901 862.237 186.005 862.584C184.135 862.926 182.324 862.794 180.572 862.188C178.84 861.551 177.36 860.551 176.131 859.188C174.902 857.824 174.112 856.182 173.761 854.261C173.409 852.339 173.567 850.523 174.234 848.813C174.896 847.077 175.926 845.618 177.324 844.435C178.744 843.223 180.389 842.445 182.259 842.103ZM183.123 846.83C182.201 846.998 181.383 847.373 180.668 847.954C179.954 848.534 179.428 849.279 179.092 850.188C178.78 851.092 178.733 852.133 178.948 853.312C179.164 854.49 179.577 855.447 180.188 856.182C180.825 856.913 181.58 857.423 182.454 857.714C183.323 857.978 184.218 858.026 185.141 857.858C186.063 857.689 186.883 857.327 187.603 856.772C188.317 856.191 188.843 855.446 189.179 854.538C189.516 853.629 189.577 852.585 189.361 851.407C189.146 850.228 188.72 849.274 188.083 848.543C187.446 847.813 186.691 847.302 185.817 847.012C184.944 846.722 184.046 846.661 183.123 846.83Z" fill="white"/>
<path d="M217.127 843.652C216.253 843.264 215.362 843.114 214.455 843.201C213.314 843.31 212.404 843.777 211.724 844.6C211.042 845.398 210.468 846.369 210.002 847.512L211.051 858.478L206.112 858.95L204.234 839.313L209.172 838.841L209.525 842.535C210.088 841.304 210.785 840.256 211.618 839.391C212.477 838.524 213.49 838.035 214.656 837.924C215.356 837.857 216.003 837.912 216.595 838.091L217.127 843.652Z" fill="white"/>
<path d="M234.322 831.648L234.445 837.389L239.912 837.272L240.001 841.412L234.534 841.529L234.716 850.043C234.735 850.928 234.945 851.627 235.346 852.139C235.774 852.625 236.391 852.859 237.198 852.842C237.901 852.827 238.498 852.736 238.989 852.569C239.507 852.402 239.984 852.17 240.42 851.874L240.504 855.819C240.02 856.324 239.404 856.754 238.657 857.108C237.935 857.462 237.014 857.651 235.895 857.675C234.124 857.713 232.667 857.184 231.524 856.089C230.406 854.967 229.826 853.416 229.783 851.437L229.574 841.635L226.02 841.711L225.966 839.172C227.206 838.703 228.334 837.845 229.349 836.6C230.39 835.353 231.202 833.721 231.784 831.703L234.322 831.648Z" fill="white"/>
<path d="M268.998 838.542L268.244 850.275C268.132 852.016 267.645 853.499 266.784 854.722C265.924 855.919 264.797 856.812 263.402 857.401C262.033 857.992 260.504 858.233 258.815 858.124C257.1 858.014 255.588 857.578 254.28 856.815C252.998 856.055 252.007 855.025 251.308 853.728C250.636 852.406 250.356 850.875 250.468 849.133L251.222 837.4L256.211 837.72L255.554 848.56C255.456 850.093 255.733 851.259 256.386 852.058C257.04 852.857 257.951 853.294 259.121 853.369C260.264 853.442 261.211 853.125 261.961 852.416C262.737 851.709 263.174 850.589 263.273 849.056L263.969 838.219L268.998 838.542Z" fill="white"/>
<path d="M286.865 840.763L286.419 843.54C287.138 842.838 288.055 842.22 289.17 841.687C290.31 841.159 291.536 841 292.847 841.211C294.827 841.529 296.377 842.465 297.499 844.017C298.621 845.569 298.967 847.682 298.537 850.356L296.613 862.311L291.715 861.523L293.495 850.217C293.706 848.906 293.541 847.877 293.002 847.131C292.488 846.389 291.679 845.929 290.573 845.751C289.699 845.61 288.831 845.761 287.968 846.202C287.132 846.648 286.381 847.213 285.717 847.898L283.732 860.239L278.834 859.451L281.968 839.975L286.865 840.763Z" fill="white"/>
<path d="M320.398 847.084C322.264 847.567 323.76 848.385 324.888 849.537C326.04 850.697 326.783 852.086 327.117 853.706C327.483 855.307 327.424 857.04 326.941 858.906L326.413 860.948L312.572 857.365C312.491 858.716 312.854 859.913 313.66 860.955C314.466 861.998 315.601 862.709 317.063 863.087C318.449 863.446 319.782 863.495 321.06 863.234C322.338 862.973 323.392 862.641 324.223 862.237L323.03 866.689C322.288 867.062 321.24 867.369 319.886 867.611C318.564 867.834 317.185 867.759 315.748 867.387C313.857 866.897 312.241 866.022 310.9 864.76C309.584 863.505 308.652 862.013 308.104 860.284C307.582 858.562 307.568 856.742 308.064 854.826C308.547 852.961 309.404 851.367 310.634 850.044C311.864 848.722 313.331 847.783 315.034 847.229C316.745 846.649 318.533 846.601 320.398 847.084ZM319.198 851.252C318.013 850.946 316.923 851.053 315.927 851.576C314.931 852.098 314.122 852.938 313.499 854.095L322.651 856.463C322.902 855.076 322.659 853.937 321.921 853.047C321.19 852.131 320.282 851.533 319.198 851.252Z" fill="white"/>
</svg>
