<svg width="474" height="1473" viewBox="0 0 474 1473" fill="none" xmlns="http://www.w3.org/2000/svg">
<mask id="path-1-inside-1_165_853" fill="white">
<path fill-rule="evenodd" clip-rule="evenodd" d="M0 737.982L79.1091 787.425V787.982H394.899V787.421L474 737.982L394.899 688.544V687.982H394H80H79.1091V688.539L0 737.982Z"/>
</mask>
<path fill-rule="evenodd" clip-rule="evenodd" d="M0 737.982L79.1091 787.425V787.982H394.899V787.421L474 737.982L394.899 688.544V687.982H394H80H79.1091V688.539L0 737.982Z" fill="#4C0406"/>
<path d="M79.1091 787.425H94.1091V779.112L87.0591 774.705L79.1091 787.425ZM0 737.982L-7.94997 725.262L-28.302 737.982L-7.94997 750.702L0 737.982ZM79.1091 787.982H64.1091V802.982H79.1091V787.982ZM394.899 787.982V802.982H409.899V787.982H394.899ZM394.899 787.421L386.949 774.701L379.899 779.107V787.421H394.899ZM474 737.982L481.95 750.702L502.302 737.982L481.95 725.262L474 737.982ZM394.899 688.544H379.899V696.858L386.949 701.264L394.899 688.544ZM394.899 687.982H409.899V672.982H394.899V687.982ZM79.1091 687.982V672.982H64.1091V687.982H79.1091ZM79.1091 688.539L87.0591 701.259L94.1091 696.853V688.539H79.1091ZM87.0591 774.705L7.94997 725.262L-7.94997 750.702L71.1591 800.145L87.0591 774.705ZM94.1091 787.982V787.425H64.1091V787.982H94.1091ZM394.899 772.982H79.1091V802.982H394.899V772.982ZM379.899 787.421V787.982H409.899V787.421H379.899ZM402.849 800.141L481.95 750.702L466.05 725.262L386.949 774.701L402.849 800.141ZM481.95 725.262L402.849 675.824L386.949 701.264L466.05 750.702L481.95 725.262ZM379.899 687.982V688.544H409.899V687.982H379.899ZM394 702.982H394.899V672.982H394V702.982ZM80 702.982H394V672.982H80V702.982ZM79.1091 702.982H80V672.982H79.1091V702.982ZM94.1091 688.539V687.982H64.1091V688.539H94.1091ZM7.94997 750.702L87.0591 701.259L71.1591 675.819L-7.94997 725.262L7.94997 750.702Z" fill="#B82025" mask="url(#path-1-inside-1_165_853)"/>
<path d="M48.574 436.006C47.3331 427.257 53.4196 419.159 62.1686 417.918V417.918C70.9176 416.677 79.016 422.764 80.2569 431.513L151.175 931.508L119.492 936.002L48.574 436.006Z" fill="#D83A40"/>
<path d="M104.96 463.781C103.878 455.011 110.109 447.024 118.879 445.942V445.942C127.65 444.859 135.637 451.091 136.719 459.861L198.581 961.058L166.822 964.978L104.96 463.781Z" fill="#D83A40"/>
<path d="M158.794 427.551C158.356 418.725 165.155 411.215 173.98 410.776V410.776C182.806 410.338 190.316 417.137 190.755 425.962L215.826 930.34L183.865 931.928L158.794 427.551Z" fill="#D83A40"/>
<path d="M204.457 18.9577C203.902 10.1386 210.601 2.53946 219.421 1.98461V1.98461C228.24 1.42976 235.839 8.12927 236.394 16.9484L268.103 520.952L236.166 522.961L204.457 18.9577Z" fill="#D83A40"/>
<path d="M277.097 431.976C277.344 423.143 284.705 416.182 293.538 416.429V416.429C302.371 416.676 309.332 424.036 309.085 432.869L294.988 937.673L263 936.779L277.097 431.976Z" fill="#D83A40"/>
<path d="M336.195 477.813C337.475 469.07 345.601 463.021 354.345 464.301V464.301C363.088 465.582 369.137 473.708 367.857 482.452L294.662 982.119L263 977.481L336.195 477.813Z" fill="#D83A40"/>
<path d="M385.468 445.912C386.298 437.114 394.103 430.656 402.901 431.486V431.486C411.698 432.317 418.157 440.122 417.326 448.919L369.858 951.684L338 948.676L385.468 445.912Z" fill="#D83A40"/>
<mask id="path-10-inside-2_165_853" fill="white">
<path d="M79 772.982H395V1472.98H79V772.982Z"/>
</mask>
<path d="M79 772.982H395V1472.98H79V772.982Z" fill="#D83A40"/>
<path d="M79 772.982V757.982H64V772.982H79ZM395 772.982H410V757.982H395V772.982ZM79 787.982H395V757.982H79V787.982ZM380 772.982V1472.98H410V772.982H380ZM94 1472.98V772.982H64V1472.98H94Z" fill="#B82025" mask="url(#path-10-inside-2_165_853)"/>
<path d="M71.5 791.484V1465.48H7.5V751.51L71.5 791.484Z" fill="#A81319" stroke="#A81319" stroke-width="15"/>
<path d="M402.5 791.484V1465.48H466.5V751.51L402.5 791.484Z" fill="#A81319" stroke="#A81319" stroke-width="15"/>
<path d="M130.296 926.015C133.845 925.278 137.191 925.094 140.333 925.463C143.475 925.831 146.19 926.448 148.478 927.314L151.109 939.885C148.624 938.997 146.006 938.232 143.254 937.591C140.501 936.95 137.534 936.959 134.352 937.62C132.761 937.95 131.221 938.526 129.733 939.345C128.305 940.152 127.174 941.153 126.338 942.348C125.564 943.53 125.337 944.886 125.657 946.416C126.079 948.434 127.286 949.779 129.279 950.451C131.271 951.122 133.661 951.711 136.449 952.217L144.628 953.774C149.296 954.72 152.915 956.298 155.485 958.51C158.054 960.721 159.691 963.509 160.395 966.873C161.163 970.544 160.771 974.008 159.218 977.267C157.713 980.452 155.353 983.209 152.136 985.536C148.981 987.851 145.262 989.453 140.978 990.343C137.367 991.093 133.782 991.199 130.221 990.662C126.661 990.124 123.471 989.223 120.652 987.957L118.022 975.386C121.124 976.784 124.437 977.819 127.962 978.492C131.487 979.164 135.086 979.119 138.757 978.357C141.327 977.823 143.428 976.876 145.059 975.516C146.677 974.095 147.275 972.375 146.853 970.356C146.52 968.765 145.486 967.639 143.752 966.978C142.065 966.243 140.264 965.724 138.349 965.419L128.126 963.712C122.969 962.868 119.227 961.156 116.899 958.575C114.619 955.921 113.102 952.789 112.347 949.18C111.566 945.448 111.897 941.996 113.341 938.824C114.833 935.578 117.071 932.847 120.055 930.631C123.027 928.354 126.44 926.816 130.296 926.015Z" fill="white"/>
<path d="M182.246 909.919C184.483 909.682 186.496 910.285 188.285 911.73C190.067 913.113 191.074 914.891 191.306 917.067C191.531 919.18 190.922 921.13 189.479 922.917C188.035 924.704 186.195 925.716 183.957 925.953C181.72 926.19 179.707 925.586 177.918 924.141C176.192 922.69 175.216 920.908 174.991 918.795C174.759 916.62 175.337 914.673 176.725 912.955C178.168 911.168 180.009 910.156 182.246 909.919ZM191.762 933.705L196.786 980.781L184.946 982.035L180.996 945.027L173.445 945.827L172.37 935.759L191.762 933.705Z" fill="white"/>
<path d="M234.902 930.475C237.465 930.48 240.057 931.079 242.679 932.273C245.302 933.466 247.486 935.064 249.232 937.068L249.243 931.724L261.149 931.749L261.049 979.093L249.142 979.068L249.159 971.099C247.779 973.658 245.774 975.873 243.145 977.742C240.516 979.549 237.452 980.449 233.952 980.442C230.14 980.434 226.61 979.457 223.364 977.513C220.181 975.569 217.625 972.751 215.695 969.059C213.765 965.368 212.806 960.897 212.817 955.647C212.828 950.397 213.807 945.899 215.752 942.153C217.76 938.407 220.423 935.538 223.739 933.545C227.119 931.49 230.84 930.466 234.902 930.475ZM237.315 942.105C234.815 942.1 232.657 942.751 230.842 944.06C229.089 945.306 227.711 946.96 226.706 949.02C225.702 951.08 225.197 953.298 225.192 955.673C225.185 959.236 226.241 962.269 228.36 964.774C230.543 967.278 233.415 968.534 236.977 968.542C239.102 968.546 241.072 967.988 242.887 966.867C244.765 965.746 246.268 964.186 247.397 962.189C248.589 960.129 249.188 957.661 249.194 954.786L249.208 948.036C247.525 946.22 245.684 944.779 243.686 943.712C241.751 942.646 239.627 942.11 237.315 942.105Z" fill="white"/>
<path d="M299.678 934.839L298.668 940.754C300.391 939.207 302.364 937.861 304.588 936.717C306.874 935.583 309.589 935.282 312.731 935.814C315.997 936.368 318.824 937.639 321.21 939.628C323.608 941.555 325.288 944.154 326.252 947.423C328.532 945.21 331.051 943.45 333.811 942.143C336.581 940.774 339.598 940.366 342.864 940.919C346.007 941.451 348.746 942.676 351.082 944.593C353.428 946.449 355.13 948.924 356.187 952.019C357.305 955.124 357.502 958.802 356.776 963.053L351.886 991.702L340.147 989.713L344.676 962.62C345.213 959.478 344.78 956.996 343.38 955.174C342.04 953.362 340.046 952.232 337.396 951.783C335.362 951.439 333.496 951.788 331.796 952.831C330.107 953.813 328.468 955.057 326.879 956.563L321.753 986.597L310.014 984.608L314.543 957.516C315.08 954.373 314.647 951.891 313.246 950.069C311.907 948.258 309.943 947.133 307.355 946.694C305.383 946.36 303.522 946.679 301.771 947.65C300.031 948.56 298.408 949.711 296.902 951.104L291.712 981.508L279.973 979.519L287.939 932.851L299.678 934.839Z" fill="white"/>
<path d="M188.323 1017.51C191.304 1017.02 194.095 1016.98 196.697 1017.4C199.299 1017.81 201.537 1018.42 203.41 1019.22L205.144 1029.79C203.108 1028.96 200.956 1028.23 198.689 1027.6C196.421 1026.97 193.951 1026.87 191.278 1027.31C189.942 1027.53 188.64 1027.96 187.371 1028.59C186.153 1029.21 185.175 1030 184.437 1030.97C183.749 1031.93 183.511 1033.05 183.722 1034.33C184 1036.03 184.957 1037.19 186.59 1037.82C188.224 1038.45 190.192 1039.02 192.494 1039.54L199.246 1041.13C203.097 1042.08 206.052 1043.52 208.111 1045.45C210.17 1047.38 211.431 1049.76 211.895 1052.59C212.401 1055.67 211.949 1058.54 210.538 1061.2C209.17 1063.8 207.106 1066.02 204.344 1067.84C201.634 1069.66 198.48 1070.86 194.882 1071.45C191.85 1071.95 188.862 1071.91 185.918 1071.34C182.973 1070.77 180.351 1069.91 178.051 1068.75L176.317 1058.19C178.848 1059.46 181.569 1060.44 184.478 1061.13C187.388 1061.81 190.385 1061.9 193.468 1061.39C195.627 1061.04 197.41 1060.32 198.817 1059.25C200.215 1058.12 200.775 1056.71 200.497 1055.01C200.277 1053.68 199.458 1052.7 198.038 1052.09C196.661 1051.42 195.181 1050.92 193.598 1050.6L185.151 1048.82C180.889 1047.94 177.836 1046.38 175.992 1044.15C174.191 1041.86 173.041 1039.2 172.544 1036.17C172.029 1033.03 172.43 1030.17 173.746 1027.58C175.106 1024.93 177.067 1022.73 179.632 1020.99C182.188 1019.2 185.085 1018.04 188.323 1017.51Z" fill="white"/>
<path d="M235.589 1007.03C237.464 1007.03 239.081 1007.7 240.44 1009.04C241.8 1010.34 242.483 1011.9 242.49 1013.72C242.497 1015.49 241.826 1017.06 240.478 1018.42C239.129 1019.78 237.517 1020.46 235.642 1020.47C233.767 1020.48 232.15 1019.81 230.79 1018.46C229.483 1017.11 228.826 1015.55 228.819 1013.78C228.811 1011.96 229.456 1010.39 230.753 1009.08C232.102 1007.72 233.714 1007.04 235.589 1007.03ZM241.451 1027.56L241.608 1067.01L231.686 1067.05L231.563 1036.03L225.235 1036.06L225.202 1027.62L241.451 1027.56Z" fill="white"/>
<path d="M281.765 1030.28C285.57 1030.89 288.704 1032.23 291.167 1034.32C293.68 1036.41 295.423 1039.03 296.393 1042.19C297.424 1045.31 297.634 1048.78 297.025 1052.58L296.358 1056.75L268.124 1052.23C268.219 1054.93 269.167 1057.25 270.969 1059.17C272.771 1061.09 275.163 1062.29 278.146 1062.77C280.974 1063.23 283.636 1063.07 286.132 1062.31C288.627 1061.55 290.664 1060.69 292.242 1059.73L290.707 1068.82C289.3 1069.7 287.272 1070.51 284.622 1071.25C282.032 1071.94 279.271 1072.05 276.34 1071.58C272.483 1070.96 269.1 1069.53 266.191 1067.27C263.334 1065.02 261.197 1062.22 259.78 1058.88C258.414 1055.55 258.044 1051.93 258.67 1048.02C259.279 1044.22 260.683 1040.88 262.882 1038.02C265.082 1035.15 267.825 1033.01 271.113 1031.58C274.408 1030.1 277.959 1029.67 281.765 1030.28ZM280.163 1038.81C277.745 1038.42 275.595 1038.84 273.71 1040.07C271.826 1041.3 270.373 1043.12 269.353 1045.54L288.021 1048.53C288.26 1045.72 287.561 1043.5 285.924 1041.86C284.294 1040.18 282.374 1039.16 280.163 1038.81Z" fill="white"/>
<path d="M162.883 847.772L163.966 851.768L159.028 853.108L163.107 868.15L158.319 869.449L154.239 854.406L151.337 855.193L150.253 851.197L153.156 850.41L152.696 848.713C152.3 847.255 152.265 845.929 152.588 844.735C152.931 843.509 153.529 842.483 154.385 841.658C155.24 840.832 156.271 840.256 157.477 839.929C158.282 839.711 159.009 839.608 159.66 839.62C160.311 839.633 160.904 839.728 161.438 839.907L162.522 843.903C161.556 843.626 160.536 843.646 159.462 843.964C158.715 844.194 158.142 844.619 157.744 845.24C157.339 845.835 157.279 846.661 157.566 847.716L157.944 849.111L162.883 847.772Z" fill="white"/>
<path d="M182.259 843.133C184.154 842.786 185.968 842.931 187.699 843.567C189.426 844.178 190.906 845.178 192.14 846.567C193.394 847.926 194.197 849.566 194.549 851.487C194.9 853.409 194.73 855.227 194.037 856.942C193.371 858.652 192.34 860.111 190.947 861.319C189.548 862.502 187.901 863.266 186.005 863.613C184.135 863.955 182.324 863.823 180.572 863.217C178.84 862.581 177.36 861.581 176.131 860.217C174.902 858.853 174.112 857.211 173.761 855.29C173.409 853.369 173.567 851.553 174.234 849.842C174.896 848.106 175.926 846.647 177.324 845.465C178.744 844.252 180.389 843.475 182.259 843.133ZM183.123 847.859C182.201 848.028 181.383 848.402 180.668 848.983C179.954 849.564 179.428 850.309 179.092 851.217C178.78 852.121 178.733 853.163 178.948 854.341C179.164 855.519 179.577 856.476 180.188 857.212C180.825 857.942 181.58 858.453 182.454 858.743C183.323 859.008 184.218 859.056 185.141 858.887C186.063 858.718 186.883 858.356 187.603 857.801C188.317 857.22 188.843 856.476 189.179 855.567C189.516 854.658 189.577 853.615 189.361 852.436C189.146 851.258 188.72 850.303 188.083 849.573C187.446 848.842 186.691 848.331 185.817 848.041C184.944 847.751 184.046 847.69 183.123 847.859Z" fill="white"/>
<path d="M217.127 844.681C216.253 844.294 215.362 844.144 214.455 844.23C213.314 844.339 212.404 844.806 211.724 845.63C211.042 846.427 210.468 847.398 210.002 848.541L211.051 859.507L206.112 859.979L204.234 840.343L209.172 839.87L209.525 843.564C210.088 842.333 210.785 841.285 211.618 840.421C212.477 839.554 213.49 839.064 214.656 838.953C215.356 838.886 216.003 838.942 216.595 839.12L217.127 844.681Z" fill="white"/>
<path d="M234.322 832.678L234.445 838.418L239.912 838.302L240.001 842.441L234.534 842.558L234.716 851.072C234.735 851.957 234.945 852.656 235.346 853.168C235.774 853.654 236.391 853.888 237.198 853.871C237.901 853.856 238.498 853.765 238.989 853.598C239.507 853.431 239.984 853.199 240.42 852.903L240.504 856.848C240.02 857.353 239.404 857.783 238.657 858.138C237.935 858.492 237.014 858.681 235.895 858.705C234.124 858.742 232.667 858.214 231.524 857.118C230.406 855.996 229.826 854.445 229.783 852.467L229.574 842.664L226.02 842.74L225.966 840.202C227.206 839.732 228.334 838.875 229.349 837.629C230.39 836.382 231.202 834.75 231.784 832.732L234.322 832.678Z" fill="white"/>
<path d="M268.998 839.571L268.244 851.305C268.132 853.046 267.645 854.528 266.784 855.751C265.924 856.949 264.797 857.842 263.402 858.431C262.033 859.021 260.504 859.262 258.815 859.154C257.1 859.044 255.588 858.607 254.28 857.845C252.998 857.084 252.007 856.055 251.308 854.757C250.636 853.435 250.356 851.904 250.468 850.163L251.222 838.429L256.211 838.75L255.554 849.589C255.456 851.122 255.733 852.288 256.386 853.087C257.04 853.886 257.951 854.323 259.121 854.398C260.264 854.471 261.211 854.154 261.961 853.445C262.737 852.738 263.174 851.618 263.273 850.085L263.969 839.248L268.998 839.571Z" fill="white"/>
<path d="M286.865 841.792L286.419 844.569C287.138 843.867 288.055 843.25 289.17 842.717C290.31 842.188 291.536 842.029 292.847 842.24C294.827 842.559 296.377 843.494 297.499 845.046C298.621 846.598 298.967 848.711 298.537 851.385L296.613 863.341L291.715 862.553L293.495 851.246C293.706 849.935 293.541 848.906 293.002 848.16C292.488 847.418 291.679 846.958 290.573 846.78C289.699 846.64 288.831 846.79 287.968 847.232C287.132 847.677 286.381 848.242 285.717 848.927L283.732 861.268L278.834 860.48L281.968 841.004L286.865 841.792Z" fill="white"/>
<path d="M320.398 848.113C322.264 848.596 323.76 849.414 324.888 850.567C326.04 851.726 326.783 853.115 327.117 854.735C327.483 856.336 327.424 858.069 326.941 859.935L326.413 861.977L312.572 858.394C312.491 859.745 312.854 860.942 313.66 861.985C314.466 863.027 315.601 863.738 317.063 864.116C318.449 864.475 319.782 864.524 321.06 864.263C322.338 864.002 323.392 863.67 324.223 863.266L323.03 867.719C322.288 868.092 321.24 868.399 319.886 868.64C318.564 868.863 317.185 868.788 315.748 868.416C313.857 867.927 312.241 867.051 310.9 865.789C309.584 864.534 308.652 863.042 308.104 861.313C307.582 859.591 307.568 857.772 308.064 855.856C308.547 853.99 309.404 852.396 310.634 851.074C311.864 849.751 313.331 848.813 315.034 848.258C316.745 847.679 318.533 847.63 320.398 848.113ZM319.198 852.282C318.013 851.975 316.923 852.083 315.927 852.605C314.931 853.127 314.122 853.967 313.499 855.124L322.651 857.493C322.902 856.105 322.659 854.966 321.921 854.076C321.19 853.16 320.282 852.562 319.198 852.282Z" fill="white"/>
</svg>
