<svg width="476" height="1043" viewBox="0 0 476 1043" fill="none" xmlns="http://www.w3.org/2000/svg">
<mask id="path-1-inside-1_157_298" fill="white">
<path fill-rule="evenodd" clip-rule="evenodd" d="M0.535508 307.84L79.7308 357.145L79.7318 357.702L395.521 357.151L395.52 356.589L474.535 307.013L395.347 257.713L395.346 257.151L394.448 257.153L80.4481 257.701L79.5572 257.702L79.5582 258.259L0.535508 307.84Z"/>
</mask>
<path fill-rule="evenodd" clip-rule="evenodd" d="M0.535508 307.84L79.7308 357.145L79.7318 357.702L395.521 357.151L395.52 356.589L474.535 307.013L395.347 257.713L395.346 257.151L394.448 257.153L80.4481 257.701L79.5572 257.702L79.5582 258.259L0.535508 307.84Z" fill="#4C0406"/>
<path d="M79.7308 357.145L94.7308 357.119L94.7162 348.805L87.6585 344.411L79.7308 357.145ZM0.535508 307.84L-7.43665 295.134L-27.7664 307.89L-7.39225 320.574L0.535508 307.84ZM79.7318 357.702L64.7318 357.728L64.758 372.728L79.7579 372.702L79.7318 357.702ZM395.521 357.151L395.547 372.151L410.547 372.125L410.521 357.125L395.521 357.151ZM395.52 356.589L387.548 343.883L380.505 348.302L380.52 356.615L395.52 356.589ZM474.535 307.013L482.507 319.719L502.837 306.964L482.463 294.279L474.535 307.013ZM395.347 257.713L380.347 257.739L380.362 266.053L387.419 270.447L395.347 257.713ZM395.346 257.151L410.346 257.125L410.32 242.125L395.32 242.151L395.346 257.151ZM80.4481 257.701L80.4219 242.701L80.4481 257.701ZM79.5572 257.702L79.531 242.702L64.5311 242.729L64.5572 257.728L79.5572 257.702ZM79.5582 258.259L87.5304 270.965L94.5727 266.547L94.5582 258.233L79.5582 258.259ZM87.6585 344.411L8.46327 295.106L-7.39225 320.574L71.803 369.879L87.6585 344.411ZM94.7317 357.676L94.7308 357.119L64.7308 357.171L64.7318 357.728L94.7317 357.676ZM395.495 342.151L79.7056 342.702L79.7579 372.702L395.547 372.151L395.495 342.151ZM380.52 356.615L380.521 357.177L410.521 357.125L410.52 356.563L380.52 356.615ZM403.492 369.295L482.507 319.719L466.563 294.307L387.548 343.883L403.492 369.295ZM482.463 294.279L403.275 244.979L387.419 270.447L466.607 319.747L482.463 294.279ZM380.346 257.177L380.347 257.739L410.347 257.687L410.346 257.125L380.346 257.177ZM394.474 272.153L395.372 272.151L395.32 242.151L394.421 242.153L394.474 272.153ZM80.4743 272.701L394.474 272.153L394.421 242.153L80.4219 242.701L80.4743 272.701ZM79.5834 272.702L80.4743 272.701L80.4219 242.701L79.531 242.702L79.5834 272.702ZM94.5582 258.233L94.5572 257.676L64.5572 257.728L64.5582 258.285L94.5582 258.233ZM8.50767 320.546L87.5304 270.965L71.586 245.553L-7.43665 295.134L8.50767 320.546Z" fill="#B82025" mask="url(#path-1-inside-1_157_298)"/>
<path d="M45.5418 27.2284C44.2097 18.4928 50.2115 10.3314 58.9471 8.99933C67.6826 7.66727 75.8441 13.669 77.1761 22.4046L153.301 521.634L121.667 526.458L45.5418 27.2284Z" fill="#D83A40"/>
<path d="M102.782 56.7052C101.638 47.9431 107.813 39.9124 116.575 38.7681C125.337 37.6239 133.368 43.7995 134.512 52.5616L199.904 553.31L168.173 557.454L102.782 56.7052Z" fill="#D83A40"/>
<path d="M158.111 18.3398C157.594 9.51833 164.327 1.94854 173.148 1.43217C181.97 0.915804 189.54 7.64841 190.056 16.4699L219.566 520.607L187.621 522.477L158.111 18.3398Z" fill="#D83A40"/>
<path d="M211.257 36.7788C210.894 27.9497 217.758 20.4985 226.587 20.1362C235.416 19.7739 242.867 26.6376 243.23 35.4667L263.937 540.042L231.964 541.354L211.257 36.7788Z" fill="#D83A40"/>
<path d="M276.925 24.3593C277.149 15.5256 284.491 8.54569 293.325 8.76929C302.159 8.9929 309.139 16.3353 308.915 25.169L296.136 530.007L264.146 529.198L276.925 24.3593Z" fill="#D83A40"/>
<path d="M337.428 67.2602C338.769 58.526 346.937 52.5328 355.671 53.874C364.405 55.2152 370.398 63.3829 369.057 72.1171L292.409 571.266L260.78 566.41L337.428 67.2602Z" fill="#D83A40"/>
<path d="M384.276 35.0664C385.047 26.2635 392.807 19.7516 401.61 20.5218C410.413 21.2919 416.925 29.0525 416.155 37.8554L372.141 540.934L340.263 538.145L384.276 35.0664Z" fill="#D83A40"/>
<mask id="path-10-inside-2_157_298" fill="white">
<path d="M79.5967 342.702L395.596 342.151L396.818 1042.15L80.8184 1042.7L79.5967 342.702Z"/>
</mask>
<path d="M79.5967 342.702L395.596 342.151L396.818 1042.15L80.8184 1042.7L79.5967 342.702Z" fill="#D83A40"/>
<path d="M79.5967 342.702L79.5705 327.702L64.5705 327.729L64.5967 342.729L79.5967 342.702ZM395.596 342.151L410.596 342.125L410.57 327.125L395.57 327.151L395.596 342.151ZM79.6229 357.702L395.622 357.151L395.57 327.151L79.5705 327.702L79.6229 357.702ZM380.596 342.177L381.818 1042.18L411.818 1042.12L410.596 342.125L380.596 342.177ZM95.8184 1042.68L94.5967 342.676L64.5967 342.729L65.8184 1042.73L95.8184 1042.68Z" fill="#B82025" mask="url(#path-10-inside-2_157_298)"/>
<path d="M72.1294 361.217L73.3057 1035.21L9.30585 1035.33L8.05973 321.354L72.1294 361.217Z" fill="#A81319" stroke="#A81319" stroke-width="15"/>
<path d="M403.129 360.64L404.305 1034.64L468.305 1034.52L467.059 320.553L403.129 360.64Z" fill="#A81319" stroke="#A81319" stroke-width="15"/>
<path d="M131.159 495.645C134.707 494.902 138.052 494.712 141.195 495.075C144.338 495.439 147.054 496.051 149.343 496.912L151.996 509.479C149.51 508.595 146.89 507.835 144.137 507.198C141.383 506.562 138.416 506.577 135.235 507.243C133.645 507.576 132.106 508.154 130.619 508.977C129.193 509.786 128.063 510.789 127.23 511.985C126.457 513.169 126.233 514.525 126.555 516.054C126.981 518.072 128.191 519.415 130.184 520.083C132.178 520.751 134.569 521.335 137.357 521.837L145.54 523.379C150.209 524.317 153.831 525.889 156.404 528.096C158.978 530.302 160.62 533.088 161.33 536.451C162.104 540.12 161.718 543.585 160.17 546.847C158.671 550.035 156.316 552.795 153.103 555.128C149.952 557.449 146.235 559.057 141.953 559.954C138.344 560.71 134.759 560.823 131.197 560.292C127.636 559.761 124.445 558.865 121.623 557.604L118.971 545.037C122.076 546.43 125.391 547.46 128.917 548.126C132.443 548.792 136.041 548.741 139.712 547.972C142.281 547.434 144.38 546.483 146.008 545.12C147.624 543.696 148.219 541.975 147.793 539.957C147.458 538.367 146.422 537.243 144.686 536.585C142.998 535.853 141.197 535.336 139.281 535.035L129.055 533.346C123.897 532.511 120.151 530.805 117.819 528.229C115.535 525.578 114.012 522.449 113.25 518.841C112.463 515.111 112.788 511.658 114.226 508.483C115.712 505.235 117.946 502.5 120.926 500.279C123.894 497.997 127.305 496.452 131.159 495.645Z" fill="white"/>
<path d="M183.082 479.458C185.319 479.217 187.333 479.818 189.124 481.259C190.908 482.639 191.918 484.416 192.154 486.59C192.383 488.703 191.778 490.654 190.337 492.444C188.897 494.233 187.058 495.248 184.821 495.489C182.584 495.73 180.57 495.13 178.779 493.688C177.05 492.24 176.071 490.46 175.842 488.347C175.606 486.172 176.181 484.225 177.565 482.504C179.006 480.714 180.845 479.699 183.082 479.458ZM192.639 503.228L197.746 550.295L185.908 551.57L181.893 514.569L174.343 515.382L173.251 505.316L192.639 503.228Z" fill="white"/>
<path d="M235.773 499.922C238.336 499.923 240.929 500.518 243.554 501.707C246.178 502.895 248.365 504.49 250.115 506.49L250.117 501.146L262.023 501.151L262.005 548.495L250.098 548.49L250.102 540.521C248.726 543.083 246.725 545.301 244.099 547.175C241.473 548.987 238.41 549.892 234.91 549.891C231.098 549.889 227.567 548.919 224.318 546.981C221.131 545.042 218.57 542.229 216.634 538.54C214.697 534.852 213.73 530.383 213.732 525.133C213.734 519.883 214.705 515.384 216.644 511.634C218.645 507.885 221.303 505.011 224.616 503.012C227.992 500.951 231.711 499.921 235.773 499.922ZM238.206 511.548C235.706 511.547 233.55 512.203 231.737 513.515C229.986 514.764 228.611 516.42 227.61 518.482C226.609 520.544 226.108 522.763 226.107 525.138C226.106 528.7 227.167 531.732 229.291 534.233C231.478 536.733 234.352 537.984 237.915 537.986C240.04 537.987 242.009 537.425 243.822 536.3C245.697 535.176 247.198 533.614 248.324 531.615C249.512 529.552 250.107 527.084 250.108 524.209L250.11 517.459C248.424 515.646 246.58 514.208 244.581 513.144C242.644 512.081 240.519 511.549 238.206 511.548Z" fill="white"/>
<path d="M300.557 504.174L299.558 510.09C301.277 508.54 303.248 507.191 305.47 506.043C307.754 504.905 310.468 504.599 313.612 505.126C316.879 505.673 319.707 506.94 322.098 508.925C324.498 510.848 326.183 513.443 327.153 516.711C329.429 514.494 331.945 512.73 334.702 511.418C337.47 510.044 340.487 509.63 343.754 510.178C346.897 510.705 349.639 511.925 351.978 513.838C354.327 515.689 356.033 518.161 357.095 521.254C358.219 524.358 358.422 528.036 357.704 532.288L352.864 560.945L341.122 558.977L345.604 531.876C346.134 528.733 345.698 526.252 344.294 524.432C342.951 522.623 340.955 521.496 338.304 521.052C336.27 520.711 334.404 521.063 332.706 522.11C331.019 523.094 329.382 524.341 327.796 525.849L322.722 555.893L310.98 553.925L315.462 526.824C315.992 523.681 315.556 521.2 314.152 519.38C312.809 517.571 310.844 516.449 308.255 516.015C306.282 515.685 304.421 516.006 302.672 516.981C300.933 517.893 299.312 519.047 297.809 520.443L292.672 550.856L280.93 548.888L288.814 502.205L300.557 504.174Z" fill="white"/>
<path d="M189.346 587.034C192.326 586.539 195.117 586.499 197.72 586.911C200.323 587.324 202.561 587.929 204.436 588.727L206.188 599.286C204.151 598.462 201.998 597.737 199.729 597.111C197.461 596.484 194.991 596.392 192.319 596.836C190.983 597.057 189.681 597.485 188.413 598.117C187.197 598.742 186.22 599.537 185.483 600.504C184.798 601.463 184.561 602.584 184.775 603.869C185.056 605.564 186.014 606.725 187.649 607.351C189.284 607.978 191.253 608.548 193.556 609.064L200.311 610.635C204.163 611.58 207.12 613.016 209.183 614.944C211.245 616.872 212.51 619.249 212.979 622.075C213.491 625.158 213.044 628.031 211.637 630.692C210.274 633.294 208.213 635.511 205.455 637.341C202.748 639.163 199.596 640.372 195.999 640.969C192.968 641.472 189.98 641.44 187.035 640.873C184.09 640.306 181.466 639.448 179.163 638.299L177.411 627.74C179.945 629.009 182.667 629.983 185.578 630.661C188.488 631.34 191.485 631.423 194.568 630.912C196.726 630.553 198.508 629.836 199.913 628.758C201.309 627.628 201.867 626.216 201.585 624.52C201.364 623.184 200.542 622.212 199.121 621.603C197.743 620.934 196.262 620.441 194.678 620.123L186.229 618.357C181.965 617.481 178.909 615.929 177.061 613.702C175.256 611.414 174.102 608.755 173.599 605.723C173.079 602.589 173.475 599.725 174.787 597.132C176.142 594.478 178.1 592.279 180.661 590.534C183.214 588.738 186.109 587.571 189.346 587.034Z" fill="white"/>
<path d="M236.593 576.479C238.468 576.468 240.087 577.136 241.449 578.482C242.81 579.777 243.496 581.335 243.507 583.158C243.517 584.929 242.849 586.495 241.502 587.857C240.156 589.219 238.545 589.905 236.67 589.916C234.795 589.927 233.177 589.259 231.815 587.912C230.505 586.566 229.845 585.007 229.835 583.236C229.824 581.413 230.467 579.847 231.761 578.538C233.108 577.176 234.718 576.489 236.593 576.479ZM242.492 596.992L242.717 636.445L232.796 636.501L232.618 605.486L226.29 605.522L226.242 597.085L242.492 596.992Z" fill="white"/>
<path d="M282.81 599.645C286.617 600.248 289.753 601.588 292.219 603.665C294.737 605.751 296.483 608.374 297.46 611.535C298.495 614.652 298.712 618.113 298.11 621.92L297.45 626.087L269.208 621.617C269.307 624.322 270.259 626.634 272.065 628.555C273.87 630.475 276.264 631.672 279.248 632.144C282.077 632.592 284.739 632.433 287.233 631.668C289.727 630.902 291.762 630.038 293.339 629.075L291.82 638.168C290.415 639.053 288.388 639.866 285.739 640.607C283.15 641.304 280.39 641.421 277.458 640.957C273.599 640.346 270.214 638.914 267.301 636.66C264.44 634.414 262.298 631.623 260.875 628.287C259.504 624.958 259.127 621.339 259.746 617.43C260.349 613.623 261.747 610.285 263.941 607.416C266.136 604.546 268.875 602.396 272.16 600.965C275.453 599.482 279.003 599.042 282.81 599.645ZM281.223 608.174C278.805 607.791 276.655 608.215 274.773 609.446C272.89 610.678 271.441 612.505 270.425 614.928L289.099 617.884C289.333 615.073 288.629 612.853 286.989 611.222C285.357 609.54 283.435 608.524 281.223 608.174Z" fill="white"/>
<path d="M163.61 417.345L164.701 421.34L159.764 422.688L163.869 437.723L159.084 439.03L154.978 423.994L152.077 424.786L150.986 420.792L153.888 420L153.425 418.304C153.027 416.847 152.989 415.521 153.31 414.327C153.65 413.1 154.247 412.073 155.101 411.246C155.955 410.419 156.985 409.841 158.191 409.512C158.995 409.292 159.722 409.188 160.373 409.199C161.024 409.21 161.617 409.305 162.151 409.483L163.242 413.477C162.276 413.201 161.256 413.223 160.183 413.543C159.436 413.774 158.864 414.2 158.467 414.822C158.063 415.418 158.005 416.244 158.293 417.299L158.673 418.693L163.61 417.345Z" fill="white"/>
<path d="M182.978 412.672C184.873 412.322 186.687 412.464 188.419 413.097C190.147 413.705 191.629 414.703 192.865 416.09C194.122 417.446 194.927 419.085 195.282 421.006C195.637 422.926 195.47 424.745 194.78 426.461C194.117 428.173 193.089 429.634 191.697 430.844C190.301 432.029 188.655 432.796 186.76 433.146C184.89 433.492 183.079 433.363 181.326 432.76C179.593 432.127 178.112 431.129 176.88 429.768C175.649 428.406 174.856 426.765 174.501 424.844C174.146 422.924 174.301 421.108 174.964 419.396C175.623 417.659 176.651 416.198 178.048 415.013C179.465 413.798 181.108 413.018 182.978 412.672ZM183.851 417.397C182.929 417.567 182.111 417.944 181.398 418.526C180.684 419.108 180.16 419.853 179.825 420.763C179.515 421.667 179.469 422.709 179.687 423.887C179.904 425.065 180.319 426.021 180.932 426.755C181.57 427.485 182.326 427.994 183.2 428.282C184.069 428.546 184.965 428.592 185.887 428.422C186.809 428.251 187.629 427.888 188.347 427.332C189.061 426.75 189.585 426.004 189.92 425.095C190.255 424.185 190.314 423.142 190.097 421.964C189.879 420.786 189.451 419.832 188.813 419.102C188.175 418.373 187.419 417.863 186.545 417.575C185.671 417.286 184.773 417.227 183.851 417.397Z" fill="white"/>
<path d="M217.849 414.16C216.974 413.774 216.083 413.625 215.176 413.714C214.035 413.825 213.126 414.293 212.447 415.118C211.766 415.917 211.194 416.888 210.73 418.032L211.798 428.996L206.861 429.477L204.947 409.844L209.885 409.363L210.245 413.056C210.805 411.824 211.501 410.775 212.332 409.909C213.19 409.041 214.201 408.549 215.368 408.436C216.068 408.368 216.714 408.422 217.307 408.6L217.849 414.16Z" fill="white"/>
<path d="M235.023 402.126L235.156 407.867L240.623 407.741L240.719 411.88L235.252 412.007L235.449 420.52C235.469 421.405 235.681 422.104 236.083 422.615C236.511 423.1 237.129 423.333 237.936 423.315C238.639 423.299 239.236 423.207 239.727 423.039C240.244 422.871 240.721 422.638 241.157 422.342L241.248 426.286C240.765 426.792 240.149 427.223 239.402 427.579C238.681 427.934 237.761 428.125 236.641 428.151C234.871 428.192 233.413 427.665 232.268 426.572C231.148 425.451 230.565 423.902 230.519 421.923L230.292 412.121L226.739 412.204L226.68 409.665C227.919 409.194 229.046 408.334 230.059 407.086C231.098 405.838 231.907 404.204 232.485 402.185L235.023 402.126Z" fill="white"/>
<path d="M269.71 408.959L268.977 420.694C268.868 422.435 268.384 423.919 267.525 425.143C266.667 426.342 265.542 427.237 264.148 427.829C262.78 428.422 261.251 428.665 259.562 428.56C257.847 428.453 256.334 428.019 255.025 427.259C253.742 426.5 252.749 425.473 252.047 424.176C251.373 422.856 251.09 421.325 251.199 419.583L251.932 407.848L256.923 408.16L256.285 419.001C256.189 420.534 256.468 421.7 257.123 422.497C257.777 423.295 258.69 423.73 259.859 423.803C261.003 423.875 261.949 423.556 262.698 422.846C263.473 422.137 263.908 421.017 264.004 419.483L264.681 408.645L269.71 408.959Z" fill="white"/>
<path d="M287.582 411.149L287.14 413.927C287.858 413.224 288.774 412.605 289.888 412.07C291.027 411.539 292.252 411.378 293.564 411.587C295.544 411.902 297.097 412.835 298.221 414.385C299.346 415.935 299.695 418.047 299.27 420.722L297.367 432.681L292.467 431.901L294.227 420.592C294.436 419.281 294.27 418.252 293.729 417.507C293.214 416.766 292.404 416.307 291.298 416.131C290.424 415.992 289.556 416.144 288.694 416.587C287.858 417.034 287.109 417.6 286.446 418.286L284.482 430.631L279.583 429.851L282.682 410.37L287.582 411.149Z" fill="white"/>
<path d="M321.127 417.412C322.993 417.891 324.491 418.707 325.62 419.857C326.775 421.014 327.521 422.402 327.857 424.022C328.226 425.622 328.17 427.355 327.69 429.222L327.165 431.265L313.319 427.706C313.24 429.058 313.605 430.254 314.413 431.295C315.221 432.336 316.356 433.045 317.819 433.42C319.206 433.777 320.539 433.824 321.816 433.56C323.094 433.297 324.148 432.963 324.978 432.558L323.793 437.013C323.051 437.387 322.004 437.696 320.651 437.939C319.329 438.164 317.95 438.092 316.512 437.723C314.62 437.237 313.003 436.364 311.659 435.104C310.341 433.851 309.407 432.361 308.856 430.633C308.33 428.912 308.314 427.092 308.806 425.176C309.286 423.309 310.14 421.714 311.368 420.389C312.595 419.064 314.06 418.123 315.763 417.566C317.472 416.984 319.26 416.932 321.127 417.412ZM319.934 421.582C318.748 421.277 317.658 421.387 316.663 421.911C315.668 422.435 314.86 423.276 314.24 424.434L323.396 426.787C323.645 425.399 323.4 424.261 322.66 423.372C321.927 422.457 321.018 421.861 319.934 421.582Z" fill="white"/>
</svg>
