<svg width="350" height="350" viewBox="0 0 350 350" fill="none" xmlns="http://www.w3.org/2000/svg">
<g clip-path="url(#clip0_257_2)">
<path d="M130.958 280.583C121.333 280.583 113.097 277.159 106.248 270.311C99.3999 263.463 95.9699 255.22 95.9582 245.583V35.5834C95.9582 25.9584 99.3882 17.7217 106.248 10.8734C113.108 4.02504 121.345 0.595041 130.958 0.583374H288.458C298.083 0.583374 306.326 4.01337 313.186 10.8734C320.046 17.7334 323.47 25.97 323.458 35.5834V245.583C323.458 255.208 320.034 263.451 313.186 270.311C306.337 277.171 298.095 280.595 288.458 280.583H130.958ZM130.958 245.583H288.458V35.5834H130.958V245.583ZM60.9582 350.583C51.3332 350.583 43.0966 347.159 36.2483 340.311C29.3999 333.462 25.9699 325.22 25.9583 315.583V88.0834C25.9583 83.125 27.6383 78.9717 30.9983 75.6234C34.3583 72.275 38.5116 70.595 43.4582 70.5834C48.4166 70.5834 52.5757 72.2634 55.9357 75.6234C59.2957 78.9834 60.9699 83.1367 60.9582 88.0834V315.583H235.958C240.917 315.583 245.076 317.263 248.436 320.623C251.796 323.983 253.47 328.137 253.458 333.083C253.458 338.042 251.778 342.201 248.418 345.561C245.058 348.921 240.905 350.595 235.958 350.583H60.9582Z" fill="#1F2937"/>
</g>
<defs>
<clipPath id="clip0_257_2">
<rect width="350" height="350" fill="white"/>
</clipPath>
</defs>
</svg>
