<svg width="234" height="234" viewBox="0 0 234 234" fill="null" xmlns="http://www.w3.org/2000/svg">
<path d="M117 169.135C115.055 169.135 113.233 168.834 111.531 168.231C109.83 167.628 108.25 166.593 106.792 165.125L54.2916 112.625C51.3749 109.708 49.9749 106.306 50.0916 102.417C50.2083 98.5278 51.6082 95.125 54.2916 92.2083C57.2082 89.2917 60.6742 87.775 64.6895 87.6583C68.7048 87.5417 72.1659 88.9368 75.0728 91.8438L102.417 119.188V14.9167C102.417 10.7847 103.817 7.32362 106.617 4.53334C109.417 1.74307 112.878 0.343066 117 0.333344C121.132 0.333344 124.598 1.73335 127.398 4.53334C130.198 7.33334 131.593 10.7945 131.583 14.9167V119.188L158.927 91.8438C161.844 88.9271 165.31 87.5271 169.325 87.6438C173.34 87.7604 176.801 89.282 179.708 92.2083C182.382 95.125 183.782 98.5278 183.908 102.417C184.035 106.306 182.635 109.708 179.708 112.625L127.208 165.125C125.75 166.583 124.17 167.619 122.469 168.231C120.767 168.844 118.944 169.145 117 169.135ZM29.4999 233.667C21.4791 233.667 14.6152 230.813 8.90825 225.106C3.2013 219.399 0.342974 212.531 0.333252 204.5V175.333C0.333252 171.201 1.73325 167.74 4.53325 164.95C7.33325 162.16 10.7944 160.76 14.9166 160.75C19.0485 160.75 22.5145 162.15 25.3145 164.95C28.1145 167.75 29.5096 171.211 29.4999 175.333V204.5H204.5V175.333C204.5 171.201 205.9 167.74 208.7 164.95C211.5 162.16 214.961 160.76 219.083 160.75C223.215 160.75 226.681 162.15 229.481 164.95C232.281 167.75 233.676 171.211 233.667 175.333V204.5C233.667 212.521 230.813 219.39 225.106 225.106C219.399 230.823 212.53 233.676 204.5 233.667H29.4999Z" fill="#1f2937"/>
</svg>
