<svg width="350" height="350" viewBox="0 0 350 350" fill="none" xmlns="http://www.w3.org/2000/svg">
<g clip-path="url(#clip0_273_46)">
<path d="M267.969 0H82.0312C36.7266 0 0 36.7266 0 82.0312V267.969C0 313.273 36.7266 350 82.0312 350H267.969C313.273 350 350 313.273 350 267.969V82.0312C350 36.7266 313.273 0 267.969 0Z" fill="url(#paint0_radial_273_46)"/>
<path d="M267.969 0H82.0312C36.7266 0 0 36.7266 0 82.0312V267.969C0 313.273 36.7266 350 82.0312 350H267.969C313.273 350 350 313.273 350 267.969V82.0312C350 36.7266 313.273 0 267.969 0Z" fill="url(#paint1_radial_273_46)"/>
<path d="M175.012 38.2812C137.882 38.2812 133.221 38.4439 118.639 39.107C104.084 39.7742 94.1486 42.0779 85.4561 45.459C76.4627 48.9508 68.8352 53.6225 61.2363 61.224C53.6307 68.8242 48.959 76.4518 45.4563 85.441C42.0656 94.1363 39.7592 104.076 39.1043 118.624C38.4521 133.208 38.2812 137.87 38.2812 175.001C38.2812 212.133 38.4453 216.779 39.107 231.361C39.777 245.916 42.0807 255.851 45.459 264.544C48.9535 273.537 53.6252 281.165 61.2268 288.764C68.8242 296.369 76.4518 301.052 85.4383 304.544C94.1377 307.925 104.074 310.229 118.627 310.896C133.211 311.559 137.867 311.722 174.996 311.722C212.13 311.722 216.776 311.559 231.358 310.896C245.913 310.229 255.86 307.925 264.559 304.544C273.548 301.052 281.165 296.369 288.761 288.764C296.367 281.165 301.037 273.537 304.541 264.548C307.902 255.851 310.209 245.913 310.893 231.364C311.548 216.781 311.719 212.133 311.719 175.001C311.719 137.87 311.548 133.211 310.893 118.627C310.209 104.072 307.902 94.1377 304.541 85.4451C301.037 76.4518 296.367 68.8242 288.761 61.224C281.157 53.6197 273.551 48.948 264.551 45.4604C255.835 42.0779 245.894 39.7729 231.339 39.107C216.755 38.4439 212.112 38.2812 174.97 38.2812H175.012ZM162.747 62.9193C166.388 62.9139 170.45 62.9193 175.012 62.9193C211.518 62.9193 215.843 63.0506 230.259 63.7055C243.589 64.3152 250.824 66.5424 255.644 68.4141C262.024 70.8914 266.573 73.8541 271.355 78.6406C276.14 83.4258 279.102 87.9826 281.586 94.3633C283.458 99.1758 285.688 106.411 286.295 119.741C286.949 134.154 287.092 138.482 287.092 174.97C287.092 211.457 286.949 215.787 286.295 230.199C285.685 243.529 283.458 250.764 281.586 255.578C279.109 261.959 276.14 266.502 271.355 271.284C266.57 276.069 262.027 279.031 255.644 281.509C250.83 283.389 243.589 285.611 230.259 286.221C215.846 286.876 211.518 287.018 175.012 287.018C138.506 287.018 134.179 286.876 119.767 286.221C106.437 285.605 99.2018 283.378 94.3783 281.507C87.999 279.028 83.4408 276.067 78.6557 271.281C73.8705 266.496 70.9092 261.95 68.425 255.567C66.5533 250.753 64.3234 243.518 63.7164 230.188C63.0615 215.775 62.9303 211.447 62.9303 174.936C62.9303 138.426 63.0615 134.12 63.7164 119.707C64.3262 106.377 66.5533 99.1416 68.425 94.3223C70.9037 87.9416 73.8705 83.3848 78.657 78.5996C83.4422 73.8145 87.999 70.8518 94.3797 68.3689C99.199 66.4891 106.437 64.2674 119.767 63.6549C132.379 63.0848 137.267 62.9139 162.747 62.8852V62.9193ZM247.993 85.6201C238.935 85.6201 231.587 92.9619 231.587 102.021C231.587 111.079 238.935 118.427 247.993 118.427C257.05 118.427 264.399 111.079 264.399 102.021C264.399 92.9633 257.05 85.6147 247.993 85.6147V85.6201ZM175.012 104.789C136.239 104.789 104.802 136.227 104.802 175.001C104.802 213.776 136.239 245.198 175.012 245.198C213.787 245.198 245.213 213.776 245.213 175.001C245.213 136.228 213.784 104.789 175.01 104.789H175.012ZM175.012 129.428C200.181 129.428 220.586 149.83 220.586 175.001C220.586 200.17 200.181 220.575 175.012 220.575C149.842 220.575 129.44 200.17 129.44 175.001C129.44 149.83 149.842 129.428 175.012 129.428Z" fill="white"/>
</g>
<defs>
<radialGradient id="paint0_radial_273_46" cx="0" cy="0" r="1" gradientUnits="userSpaceOnUse" gradientTransform="translate(92.9687 376.957) rotate(-90) scale(346.876 322.622)">
<stop stop-color="#FFDD55"/>
<stop offset="0.1" stop-color="#FFDD55"/>
<stop offset="0.5" stop-color="#FF543E"/>
<stop offset="1" stop-color="#C837AB"/>
</radialGradient>
<radialGradient id="paint1_radial_273_46" cx="0" cy="0" r="1" gradientUnits="userSpaceOnUse" gradientTransform="translate(-58.6264 25.2123) rotate(78.681) scale(155.055 639.144)">
<stop stop-color="#3771C8"/>
<stop offset="0.128" stop-color="#3771C8"/>
<stop offset="1" stop-color="#6600FF" stop-opacity="0"/>
</radialGradient>
<clipPath id="clip0_273_46">
<rect width="350" height="350" fill="white"/>
</clipPath>
</defs>
</svg>
