<svg width="350" height="350" viewBox="0 0 350 350" fill="none" xmlns="http://www.w3.org/2000/svg">
<g clip-path="url(#clip0_273_44)">
<path d="M101.5 0H248.5C304.5 0 350 45.5 350 101.5V248.5C350 275.419 339.306 301.236 320.271 320.271C301.236 339.306 275.419 350 248.5 350H101.5C45.5 350 0 304.5 0 248.5V101.5C0 74.5805 10.6937 48.7636 29.7287 29.7287C48.7636 10.6937 74.5805 0 101.5 0ZM98 35C81.2914 35 65.2671 41.6375 53.4523 53.4523C41.6375 65.2671 35 81.2914 35 98V252C35 286.825 63.175 315 98 315H252C268.709 315 284.733 308.363 296.548 296.548C308.363 284.733 315 268.709 315 252V98C315 63.175 286.825 35 252 35H98ZM266.875 61.25C272.677 61.25 278.241 63.5547 282.343 67.657C286.445 71.7594 288.75 77.3234 288.75 83.125C288.75 88.9266 286.445 94.4906 282.343 98.593C278.241 102.695 272.677 105 266.875 105C261.073 105 255.509 102.695 251.407 98.593C247.305 94.4906 245 88.9266 245 83.125C245 77.3234 247.305 71.7594 251.407 67.657C255.509 63.5547 261.073 61.25 266.875 61.25ZM175 87.5C198.206 87.5 220.462 96.7187 236.872 113.128C253.281 129.538 262.5 151.794 262.5 175C262.5 198.206 253.281 220.462 236.872 236.872C220.462 253.281 198.206 262.5 175 262.5C151.794 262.5 129.538 253.281 113.128 236.872C96.7187 220.462 87.5 198.206 87.5 175C87.5 151.794 96.7187 129.538 113.128 113.128C129.538 96.7187 151.794 87.5 175 87.5ZM175 122.5C161.076 122.5 147.723 128.031 137.877 137.877C128.031 147.723 122.5 161.076 122.5 175C122.5 188.924 128.031 202.277 137.877 212.123C147.723 221.969 161.076 227.5 175 227.5C188.924 227.5 202.277 221.969 212.123 212.123C221.969 202.277 227.5 188.924 227.5 175C227.5 161.076 221.969 147.723 212.123 137.877C202.277 128.031 188.924 122.5 175 122.5Z" fill="black"/>
</g>
<defs>
<clipPath id="clip0_273_44">
<rect width="350" height="350" fill="white"/>
</clipPath>
</defs>
</svg>
