<svg width="70" height="100" viewBox="0 0 70 100" fill="none" xmlns="http://www.w3.org/2000/svg">
<g clip-path="url(#clip0_244_2)">
<path d="M19.2354 74.0772C22.1275 77.7629 24.7597 81.6453 27.113 85.6963C29.1223 89.5061 29.9599 92.0895 31.4283 96.6799C32.3288 99.2162 33.1427 99.9731 34.8926 99.9731C36.7994 99.9731 37.6645 98.6854 38.3329 96.6938C39.7209 92.3587 40.81 89.0502 42.5283 85.9241C45.8999 79.8887 50.0896 74.5255 54.2062 69.371C55.3206 67.9121 62.5261 59.4132 65.77 52.7072C65.77 52.7072 69.7569 45.3407 69.7569 35.0527C69.7569 25.4293 65.825 18.7549 65.825 18.7549L54.5048 21.7865L47.6302 39.893L45.9294 42.3898L45.5893 42.8421L45.137 43.4083L44.343 44.3126L43.2084 45.447L37.0866 50.4344L21.7814 59.2715L19.2354 74.0772Z" fill="#34A853"/>
<path d="M3.43896 51.4692C7.17439 60.0014 14.3777 67.5016 19.2512 74.0837L45.1371 43.4204C45.1371 43.4204 41.4902 48.1899 34.8749 48.1899C27.5063 48.1899 21.5534 42.3057 21.5534 34.8861C21.5534 29.7981 24.6144 26.3027 24.6144 26.3027L7.04251 31.0112L3.43896 51.4692Z" fill="#FBBC04"/>
<path d="M45.4264 1.57715C54.0237 4.34908 61.3823 10.1684 65.8332 18.7496L45.1452 43.403C45.1452 43.403 48.2063 39.8444 48.2063 34.788C48.2063 27.1957 41.8131 21.5237 34.9065 21.5237C28.3755 21.5237 24.6245 26.2853 24.6245 26.2853V10.754L45.4264 1.57715Z" fill="#4285F4"/>
<path d="M8.18115 12.47C13.316 6.32643 22.3515 0 34.8081 0C40.8517 0 45.4049 1.58665 45.4049 1.58665L24.6049 26.2986H9.8678L8.18115 12.47Z" fill="#1A73E8"/>
<path d="M3.43895 51.4689C3.43895 51.4689 0.00244141 44.7392 0.00244141 34.9899C0.00244141 25.7754 3.58446 17.721 8.18091 12.4697L24.6163 26.3005L3.43895 51.4689Z" fill="#EA4335"/>
</g>
<defs>
<clipPath id="clip0_244_2">
<rect width="69.76" height="100" fill="white"/>
</clipPath>
</defs>
</svg>
