<svg width="70" height="117" viewBox="0 0 70 117" fill="none" xmlns="http://www.w3.org/2000/svg">
<g clip-path="url(#clip0_256_6)">
<path d="M19.2356 74.0772C22.1277 77.7629 24.76 81.6453 27.1132 85.6963C29.1225 89.5061 29.9601 92.0895 31.4285 96.6799C32.329 99.2162 33.1429 99.9731 34.8928 99.9731C36.7996 99.9731 37.6647 98.6854 38.3331 96.6939C39.7211 92.3587 40.8102 89.0502 42.5285 85.9241C45.9002 79.8887 50.0898 74.5255 54.2064 69.371C55.3209 67.9121 62.5263 59.4132 65.7702 52.7072C65.7702 52.7072 69.7571 45.3407 69.7571 35.0527C69.7571 25.4293 65.8252 18.7549 65.8252 18.7549L54.5051 21.7865L47.6304 39.893L45.9296 42.3898L45.5895 42.8421L45.1372 43.4083L44.3432 44.3126L43.2086 45.447L37.0868 50.4344L21.7816 59.2715L19.2356 74.0772Z" fill="#34A853"/>
<path d="M3.43913 51.4692C7.17455 60.0014 14.3778 67.5016 19.2514 74.0837L45.1372 43.4204C45.1372 43.4204 41.4904 48.1899 34.8751 48.1899C27.5064 48.1899 21.5536 42.3057 21.5536 34.8861C21.5536 29.7981 24.6146 26.3027 24.6146 26.3027L7.04267 31.0112L3.43913 51.4692Z" fill="#FBBC04"/>
<path d="M45.4263 1.57715C54.0236 4.34908 61.3822 10.1684 65.8331 18.7496L45.1451 43.403C45.1451 43.403 48.2062 39.8444 48.2062 34.788C48.2062 27.1957 41.813 21.5237 34.9064 21.5237C28.3754 21.5237 24.6244 26.2853 24.6244 26.2853V10.754L45.4263 1.57715Z" fill="#4285F4"/>
<path d="M8.18109 12.47C13.316 6.32643 22.3514 0 34.8081 0C40.8517 0 45.4048 1.58665 45.4048 1.58665L24.6048 26.2986H9.86774L8.18109 12.47Z" fill="#1A73E8"/>
<path d="M3.43913 51.4689C3.43913 51.4689 0.00261688 44.7392 0.00261688 34.9899C0.00261688 25.7754 3.58463 17.721 8.18109 12.4697L24.6165 26.3005L3.43913 51.4689Z" fill="#EA4335"/>
</g>
<path d="M25.8555 103.703V113H23.2988V108.488L21.4258 110.607H20.6602L18.7871 108.488V113H16.2305V103.703H17.1328L21.043 107.668L24.9531 103.703H25.8555ZM32.7461 103.703L36.9844 113H34.0039L33.5527 111.77H30.6543L30.2031 113H27.2227L31.4609 103.703H32.7461ZM32.1035 107.832L31.4062 109.719H32.8008L32.1035 107.832ZM42.1387 103.84C42.6035 103.84 43.0547 103.917 43.4922 104.072C43.9388 104.227 44.3398 104.455 44.6953 104.756C45.0508 105.057 45.3333 105.421 45.543 105.85C45.7617 106.278 45.8711 106.761 45.8711 107.299C45.8711 108.001 45.707 108.607 45.3789 109.117C45.0508 109.618 44.6224 110.001 44.0938 110.266C43.5651 110.53 43.0046 110.662 42.4121 110.662C42.0658 110.662 41.7559 110.63 41.4824 110.566C41.209 110.493 40.972 110.402 40.7715 110.293V113H38.2148V103.84H42.1387ZM40.7715 106.232V108.352C40.9264 108.406 41.0905 108.452 41.2637 108.488C41.446 108.525 41.6374 108.543 41.8379 108.543C42.2389 108.543 42.5716 108.42 42.8359 108.174C43.1094 107.919 43.2461 107.627 43.2461 107.299C43.2461 106.925 43.1094 106.656 42.8359 106.492C42.5716 106.319 42.2389 106.232 41.8379 106.232H40.7715ZM50.2871 103.635C50.8249 103.635 51.3535 103.703 51.873 103.84C52.4017 103.967 52.8255 104.141 53.1445 104.359V106.834C52.7526 106.606 52.3652 106.41 51.9824 106.246C51.5996 106.073 51.1484 105.986 50.6289 105.986C50.3281 105.986 50.0684 106.032 49.8496 106.123C49.6309 106.214 49.5215 106.365 49.5215 106.574C49.5215 106.802 49.6536 106.975 49.918 107.094C50.1823 107.203 50.5059 107.331 50.8887 107.477L51.873 107.846C52.5384 108.101 53.0078 108.447 53.2812 108.885C53.5638 109.322 53.7051 109.76 53.7051 110.197C53.7051 110.781 53.5365 111.3 53.1992 111.756C52.862 112.202 52.4062 112.558 51.832 112.822C51.2578 113.077 50.6152 113.205 49.9043 113.205C49.3574 113.205 48.8151 113.109 48.2773 112.918C47.7396 112.727 47.2702 112.49 46.8691 112.207V109.732C47.3066 110.061 47.776 110.329 48.2773 110.539C48.7878 110.749 49.2982 110.854 49.8086 110.854C50.1276 110.854 50.3828 110.817 50.5742 110.744C50.7747 110.662 50.875 110.525 50.875 110.334C50.875 110.197 50.8021 110.079 50.6562 109.979C50.5104 109.878 50.3145 109.792 50.0684 109.719L48.7695 109.309C48.2591 109.145 47.8626 108.921 47.5801 108.639C47.2975 108.356 47.1016 108.042 46.9922 107.695C46.8828 107.34 46.8281 106.98 46.8281 106.615C46.8281 105.968 46.9922 105.426 47.3203 104.988C47.6484 104.542 48.0768 104.204 48.6055 103.977C49.1341 103.749 49.6947 103.635 50.2871 103.635Z" fill="black"/>
<defs>
<clipPath id="clip0_256_6">
<rect width="69.76" height="100" fill="white"/>
</clipPath>
</defs>
</svg>
