<svg width="640" height="1000" viewBox="0 0 640 1000" fill="none" xmlns="http://www.w3.org/2000/svg">
<path d="M40.0002 1000C17.9089 1000 0.000244141 982.092 0.000244141 960L0.000244141 40.0001C0.000244141 17.9088 17.9089 0.00012207 40.0002 0.00012207H640L640 1000H40.0002Z" fill="#286893"/>
<path d="M58.0003 982C35.9089 982 18.0002 964.092 18.0002 942L18.0002 58.0001C18.0002 35.9088 35.9089 18.0001 58.0002 18.0001H640L640 982H58.0003Z" fill="#3284C2"/>
<rect x="50.0002" y="950" width="900" height="590" rx="40" transform="rotate(-90 50.0002 950)" fill="white"/>
<circle cx="610" cy="885" r="17" transform="rotate(-90 610 885)" fill="#01403F"/>
<circle cx="610" cy="815" r="17" transform="rotate(-90 610 815)" fill="#01403F"/>
<circle cx="610" cy="745" r="17" transform="rotate(-90 610 745)" fill="#01403F"/>
<circle cx="610" cy="675" r="17" transform="rotate(-90 610 675)" fill="#01403F"/>
<circle cx="610" cy="605" r="17" transform="rotate(-90 610 605)" fill="#01403F"/>
<circle cx="610" cy="535" r="17" transform="rotate(-90 610 535)" fill="#01403F"/>
<circle cx="610" cy="465" r="17" transform="rotate(-90 610 465)" fill="#01403F"/>
<circle cx="610" cy="395" r="17" transform="rotate(-90 610 395)" fill="#01403F"/>
<circle cx="610" cy="325" r="17" transform="rotate(-90 610 325)" fill="#01403F"/>
<circle cx="610" cy="255" r="17" transform="rotate(-90 610 255)" fill="#01403F"/>
<circle cx="610" cy="185" r="17" transform="rotate(-90 610 185)" fill="#01403F"/>
<circle cx="610" cy="115" r="17" transform="rotate(-90 610 115)" fill="#01403F"/>
<path d="M619 124C614.03 124 610 119.971 610 115C610 110.029 614.03 106 619 106H640V124H619Z" fill="#9AC8C8"/>
<path d="M619 194C614.03 194 610 189.971 610 185C610 180.029 614.03 176 619 176H640V194H619Z" fill="#9AC8C8"/>
<path d="M619 264C614.03 264 610 259.971 610 255C610 250.029 614.03 246 619 246H640V264H619Z" fill="#9AC8C8"/>
<path d="M619 334C614.03 334 610 329.971 610 325C610 320.029 614.03 316 619 316H640V334H619Z" fill="#9AC8C8"/>
<path d="M619 404C614.03 404 610 399.971 610 395C610 390.029 614.03 386 619 386H640V404H619Z" fill="#9AC8C8"/>
<path d="M619 474C614.03 474 610 469.971 610 465C610 460.029 614.03 456 619 456H640V474H619Z" fill="#9AC8C8"/>
<path d="M619 544C614.03 544 610 539.971 610 535C610 530.03 614.03 526 619 526H640V544H619Z" fill="#9AC8C8"/>
<path d="M619 614C614.03 614 610 609.971 610 605C610 600.03 614.03 596 619 596H640V614H619Z" fill="#9AC8C8"/>
<path d="M619 684C614.03 684 610 679.971 610 675C610 670.03 614.03 666 619 666H640V684H619Z" fill="#9AC8C8"/>
<path d="M619 754C614.03 754 610 749.971 610 745C610 740.03 614.03 736 619 736H640V754H619Z" fill="#9AC8C8"/>
<path d="M619 824C614.03 824 610 819.971 610 815C610 810.03 614.03 806 619 806H640V824H619Z" fill="#9AC8C8"/>
<path d="M619 894C614.03 894 610 889.971 610 885C610 880.03 614.03 876 619 876H640V894H619Z" fill="#9AC8C8"/>
<path d="M465.5 164.791L281 164.791C236.817 164.791 201 200.608 201 244.791L201 463" stroke="black" stroke-width="8" stroke-linecap="round" stroke-linejoin="round" stroke-dasharray="20 15"/>
<path d="M526.5 216.5L526.5 532.767C526.5 543.813 535.454 552.767 546.5 552.767V552.767C557.546 552.767 566.5 561.721 566.5 572.767L566.5 609.656C566.5 634.233 546.577 654.156 522.001 654.157V654.157C497.424 654.157 477.501 674.08 477.501 698.657L477.501 783.5" stroke="black" stroke-width="8" stroke-linecap="round" stroke-linejoin="round" stroke-dasharray="20 15"/>
<path d="M156.361 552.549L155.282 813.604C155.143 847.045 182.316 874.173 215.757 873.981L242.56 873.826C260.645 873.722 275.281 859.087 275.384 841.001V841.001C275.488 822.895 290.156 808.251 308.262 808.176L432.154 807.663" stroke="black" stroke-width="8" stroke-linecap="round" stroke-linejoin="round" stroke-dasharray="20 15"/>
</svg>
