<svg width="1057" height="1359" viewBox="0 0 1057 1359" fill="none" xmlns="http://www.w3.org/2000/svg">
<rect x="1057" y="1359" width="1057" height="1359" rx="40" transform="rotate(-180 1057 1359)" fill="#286893"/>
<rect x="1040" y="1339" width="1022" height="1321" rx="40" transform="rotate(-180 1040 1339)" fill="#3284C2"/>
<rect x="1011" y="1309" width="961" height="620" rx="40" transform="rotate(-180 1011 1309)" fill="white"/>
<rect x="1011" y="667" width="961" height="620" rx="40" transform="rotate(-180 1011 667)" fill="white"/>
<circle cx="815" cy="717" r="17" transform="rotate(-180 815 717)" fill="#01403F"/>
<circle cx="745" cy="717" r="17" transform="rotate(-180 745 717)" fill="#01403F"/>
<circle cx="675" cy="717" r="17" transform="rotate(-180 675 717)" fill="#01403F"/>
<circle cx="605" cy="717" r="17" transform="rotate(-180 605 717)" fill="#01403F"/>
<circle cx="535" cy="717" r="17" transform="rotate(-180 535 717)" fill="#01403F"/>
<circle cx="465" cy="717" r="17" transform="rotate(-180 465 717)" fill="#01403F"/>
<circle cx="395" cy="717" r="17" transform="rotate(-180 395 717)" fill="#01403F"/>
<circle cx="325" cy="717" r="17" transform="rotate(-180 325 717)" fill="#01403F"/>
<circle cx="255" cy="717" r="17" transform="rotate(-180 255 717)" fill="#01403F"/>
<circle cx="185" cy="717" r="17" transform="rotate(-180 185 717)" fill="#01403F"/>
<circle cx="115" cy="717" r="17" transform="rotate(-180 115 717)" fill="#01403F"/>
<circle cx="815" cy="637" r="17" transform="rotate(-180 815 637)" fill="#01403F"/>
<circle cx="745" cy="637" r="17" transform="rotate(-180 745 637)" fill="#01403F"/>
<circle cx="675" cy="637" r="17" transform="rotate(-180 675 637)" fill="#01403F"/>
<circle cx="605" cy="637" r="17" transform="rotate(-180 605 637)" fill="#01403F"/>
<circle cx="535" cy="637" r="17" transform="rotate(-180 535 637)" fill="#01403F"/>
<circle cx="465" cy="637" r="17" transform="rotate(-180 465 637)" fill="#01403F"/>
<circle cx="395" cy="637" r="17" transform="rotate(-180 395 637)" fill="#01403F"/>
<circle cx="325" cy="637" r="17" transform="rotate(-180 325 637)" fill="#01403F"/>
<circle cx="255" cy="637" r="17" transform="rotate(-180 255 637)" fill="#01403F"/>
<circle cx="185" cy="637" r="17" transform="rotate(-180 185 637)" fill="#01403F"/>
<circle cx="115" cy="637" r="17" transform="rotate(-180 115 637)" fill="#01403F"/>
<rect x="194" y="717" width="18" height="80" rx="9" transform="rotate(-180 194 717)" fill="#9AC8C8"/>
<rect x="124" y="717" width="18" height="80" rx="9" transform="rotate(-180 124 717)" fill="#9AC8C8"/>
<rect x="334" y="717" width="18" height="80" rx="9" transform="rotate(-180 334 717)" fill="#9AC8C8"/>
<rect x="264" y="717" width="18" height="80" rx="9" transform="rotate(-180 264 717)" fill="#9AC8C8"/>
<rect x="754" y="717" width="18" height="80" rx="9" transform="rotate(-180 754 717)" fill="#9AC8C8"/>
<rect x="684" y="717" width="18" height="80" rx="9" transform="rotate(-180 684 717)" fill="#9AC8C8"/>
<rect x="824" y="717" width="18" height="80" rx="9" transform="rotate(-180 824 717)" fill="#9AC8C8"/>
<circle cx="885" cy="717" r="17" transform="rotate(-180 885 717)" fill="#01403F"/>
<circle cx="885" cy="637" r="17" transform="rotate(-180 885 637)" fill="#01403F"/>
<rect x="894" y="717" width="18" height="80" rx="9" transform="rotate(-180 894 717)" fill="#9AC8C8"/>
<circle cx="955" cy="717" r="17" transform="rotate(-180 955 717)" fill="#01403F"/>
<circle cx="955" cy="637" r="17" transform="rotate(-180 955 637)" fill="#01403F"/>
<rect x="964" y="717" width="18" height="80" rx="9" transform="rotate(-180 964 717)" fill="#9AC8C8"/>
<rect x="474" y="717" width="18" height="80" rx="9" transform="rotate(-180 474 717)" fill="#9AC8C8"/>
<rect x="404" y="717" width="18" height="80" rx="9" transform="rotate(-180 404 717)" fill="#9AC8C8"/>
<rect x="614" y="717" width="18" height="80" rx="9" transform="rotate(-180 614 717)" fill="#9AC8C8"/>
<rect x="544" y="717" width="18" height="80" rx="9" transform="rotate(-180 544 717)" fill="#9AC8C8"/>
<rect x="718" y="812" width="246" height="323" rx="10" fill="#3284C2"/>
<path d="M144 1099H625V1108H144V1099Z" fill="#296892"/>
</svg>
