<svg width="1552" height="437" viewBox="0 0 1552 437" fill="none" xmlns="http://www.w3.org/2000/svg">
<path d="M476.248 327.152L437.228 308.869L436.109 310.597C437.111 311.484 438.466 312.673 440.067 314.053C443.606 317.103 448.331 321.069 453.104 324.764C457.915 328.488 462.637 331.825 466.204 333.707C467.547 334.416 468.55 334.821 469.233 335.013C470.546 331.003 473.464 328.585 476.248 327.152ZM470.004 335.15C470.004 335.15 469.999 335.15 469.99 335.151C470 335.151 470.004 335.15 470.004 335.15Z" fill="#F87B52" stroke="#ED5F27" stroke-width="6"/>
<path d="M423.533 255.035C416.313 257.317 421.946 290.026 433.879 306.124" stroke="#ED5F27" stroke-width="13"/>
<circle cx="435.602" cy="307.73" r="5.68765" transform="rotate(-15.4728 435.602 307.73)" fill="#F87B52" stroke="#ED5F27" stroke-width="6"/>
<rect x="416.059" y="60.8633" width="41.8093" height="20.6332" rx="5" transform="rotate(3 416.059 60.8633)" fill="#ED5F27"/>
<rect x="434.575" y="39.541" width="7.05871" height="16.2893" transform="rotate(3 434.575 39.541)" fill="#ED5F27"/>
<rect x="426.759" y="53.8115" width="21.7191" height="10.8596" rx="5" transform="rotate(3 426.759 53.8115)" fill="#ED5F27"/>
<path d="M554.669 185.571C551.855 239.272 495.578 281.949 426.411 278.324C357.244 274.699 305.735 226.374 308.55 172.673C311.364 118.972 367.641 76.2957 436.808 79.9206C505.976 83.5455 557.484 131.871 554.669 185.571Z" fill="#F87B52" stroke="#ED5F27" stroke-width="12"/>
<path d="M516.713 183.583C513.8 239.173 472.42 280.735 425.869 278.296C379.317 275.856 342.508 230.196 345.422 174.606C348.335 119.015 389.715 77.4528 436.266 79.8924C482.818 82.3321 519.627 127.992 516.713 183.583Z" fill="#F87B52" stroke="#ED5F27" stroke-width="12"/>
<path d="M467.37 180.996C465.877 209.478 459.918 234.746 451.708 252.534C447.595 261.444 443.051 268.188 438.476 272.55C433.913 276.9 429.761 278.499 426.14 278.31C422.519 278.12 418.556 276.095 414.473 271.292C410.38 266.475 406.565 259.294 403.406 250.003C397.101 231.454 393.815 205.702 395.307 177.22C396.8 148.738 402.76 123.47 410.97 105.682C415.083 96.772 419.627 90.0285 424.202 85.6666C428.764 81.3164 432.917 79.7168 436.538 79.9065C440.159 80.0963 444.121 82.1212 448.204 86.9245C452.298 91.7408 456.112 98.9223 459.271 108.214C465.577 126.762 468.863 152.514 467.37 180.996Z" fill="#F87B52" stroke="#ED5F27" stroke-width="12"/>
<path d="M182.432 289.156L143.412 270.873L142.293 272.601C143.295 273.488 144.65 274.677 146.25 276.057C149.79 279.108 154.514 283.074 159.288 286.768C164.099 290.492 168.82 293.83 172.387 295.712C173.73 296.42 174.734 296.826 175.417 297.018C176.73 293.007 179.647 290.589 182.432 289.156ZM176.188 297.155C176.188 297.154 176.183 297.155 176.174 297.155C176.184 297.155 176.188 297.155 176.188 297.155Z" fill="#F87B52" stroke="#ED5F27" stroke-width="6"/>
<path d="M129.717 217.04C122.496 219.321 128.13 252.03 140.063 268.128" stroke="#ED5F27" stroke-width="13"/>
<circle cx="141.786" cy="269.734" r="5.68765" transform="rotate(-15.4728 141.786 269.734)" fill="#F87B52" stroke="#ED5F27" stroke-width="6"/>
<rect x="122.242" y="22.8677" width="41.8093" height="20.6332" rx="5" transform="rotate(3 122.242 22.8677)" fill="#ED5F27"/>
<rect x="140.507" y="8.54199" width="7" height="9" transform="rotate(3 140.507 8.54199)" fill="#ED5F27"/>
<rect x="132.943" y="15.8164" width="21.7191" height="10.8596" rx="5" transform="rotate(3 132.943 15.8164)" fill="#ED5F27"/>
<path d="M260.853 147.576C258.039 201.277 201.762 243.954 132.595 240.329C63.4276 236.704 11.9194 188.379 14.7337 134.678C17.5481 80.9769 73.8255 38.3006 142.993 41.9255C212.16 45.5504 263.668 93.8755 260.853 147.576Z" fill="#F87B52" stroke="#ED5F27" stroke-width="12"/>
<path d="M222.897 145.587C219.983 201.177 178.603 242.74 132.052 240.3C85.5008 237.86 48.6919 192.2 51.6053 136.61C54.5187 81.0194 95.8987 39.4572 142.45 41.8968C189.001 44.3365 225.81 89.9964 222.897 145.587Z" fill="#F87B52" stroke="#ED5F27" stroke-width="12"/>
<path d="M173.554 143.001C172.061 171.483 166.101 196.75 157.891 214.538C153.779 223.449 149.234 230.192 144.66 234.554C140.097 238.904 135.944 240.504 132.323 240.314C128.703 240.124 124.74 238.099 120.657 233.296C116.563 228.48 112.749 221.298 109.59 212.007C103.284 193.458 99.9984 167.706 101.491 139.224C102.984 110.742 108.943 85.4745 117.154 67.6867C121.266 58.7764 125.81 52.0329 130.385 47.671C134.948 43.3208 139.1 41.7212 142.721 41.9109C146.342 42.1007 150.305 44.1256 154.388 48.9289C158.482 53.7451 162.296 60.9267 165.455 70.2181C171.761 88.7666 175.046 114.519 173.554 143.001Z" fill="#F87B52" stroke="#ED5F27" stroke-width="12"/>
<path d="M774.236 425.137C773.872 418.694 773.194 413.005 771.955 407.478C770.266 399.95 767.558 392.832 763.308 384.574L767.808 382.64C767.924 382.73 768.057 382.839 768.21 382.971C769.173 383.805 770.46 385.174 771.947 386.993C774.903 390.605 778.38 395.655 781.297 400.854C784.247 406.113 786.463 411.246 787.132 415.081C787.471 417.018 787.345 418.249 787.067 418.931C786.88 419.391 786.592 419.746 785.689 419.934C780.494 421.02 776.816 422.941 774.236 425.137ZM767.314 382.301C767.227 382.27 767.218 382.253 767.307 382.298C767.309 382.299 767.311 382.3 767.314 382.301Z" fill="#F8DC7A" stroke="#F8C04E" stroke-width="6"/>
<path d="M753.005 329.646C751.354 331.819 762.797 364.43 763.357 380.763" stroke="#F8C04E" stroke-width="13"/>
<circle cx="764.289" cy="381.101" r="5.69236" transform="rotate(16.5502 764.289 381.101)" fill="#F8DC7A" stroke="#F8C04E" stroke-width="6"/>
<rect x="740.337" y="134.798" width="41.832" height="20.6444" rx="5" transform="rotate(3 740.337 134.798)" fill="#F8C04E"/>
<rect x="761.632" y="61.5381" width="7" height="68" transform="rotate(3 761.632 61.5381)" fill="#F8C04E"/>
<rect x="751.043" y="127.743" width="21.7309" height="10.8654" rx="5" transform="rotate(3 751.043 127.743)" fill="#F8C04E"/>
<path d="M879.027 259.574C876.211 313.307 819.9 356.007 750.695 352.38C681.489 348.753 629.951 300.401 632.767 246.668C635.583 192.936 691.893 150.236 761.099 153.863C830.304 157.49 881.843 205.842 879.027 259.574Z" fill="#F8DC7A" stroke="#F8C04E" stroke-width="12"/>
<path d="M841.049 257.584C838.134 313.206 796.731 354.793 750.152 352.352C703.573 349.911 666.743 304.224 669.658 248.602C672.573 192.98 713.977 151.393 760.556 153.834C807.135 156.276 843.964 201.962 841.049 257.584Z" fill="#F8DC7A" stroke="#F8C04E" stroke-width="12"/>
<path d="M791.68 254.997C790.186 283.495 784.223 308.776 776.009 326.574C771.894 335.49 767.347 342.237 762.769 346.602C758.204 350.955 754.048 352.556 750.424 352.366C746.8 352.176 742.834 350.149 738.749 345.343C734.652 340.524 730.836 333.338 727.675 324.041C721.366 305.482 718.078 279.716 719.572 251.218C721.065 222.72 727.028 197.438 735.243 179.64C739.358 170.725 743.905 163.977 748.482 159.613C753.048 155.26 757.204 153.659 760.828 153.849C764.452 154.039 768.417 156.065 772.503 160.872C776.599 165.691 780.416 172.877 783.576 182.173C789.886 200.732 793.173 226.499 791.68 254.997Z" fill="#F8DC7A" stroke="#F8C04E" stroke-width="12"/>
<path d="M1387.24 329.404L1413.98 294.117L1418.32 296.293C1417.96 297.609 1417.47 299.414 1416.85 301.536C1415.55 306.054 1413.72 311.971 1411.64 317.634C1409.54 323.358 1407.25 328.595 1405.07 331.89C1403.95 333.574 1403.09 334.389 1402.59 334.673C1397.56 330.256 1391.68 329.308 1387.24 329.404ZM1402.43 334.745C1402.43 334.745 1402.43 334.744 1402.43 334.744C1402.43 334.745 1402.43 334.745 1402.43 334.745Z" fill="#F8DC7A" stroke="#F8C04E" stroke-width="6"/>
<path d="M1405.8 239.829C1407.04 240.847 1419.51 272.557 1416.15 290.953" stroke="#F8C04E" stroke-width="13"/>
<circle cx="1416.05" cy="291.734" r="5.69372" transform="rotate(-15.4728 1416.05 291.734)" fill="#F8DC7A" stroke="#F8C04E" stroke-width="6"/>
<rect x="1398.99" y="48.874" width="41.8385" height="20.6476" rx="5" transform="rotate(3 1398.99 48.874)" fill="#F8C04E"/>
<rect x="1418.54" y="8.56445" width="7" height="34" transform="rotate(3 1418.54 8.56445)" fill="#F8C04E"/>
<rect x="1409.69" y="41.8179" width="21.7343" height="10.8672" rx="5" transform="rotate(3 1409.69 41.8179)" fill="#F8C04E"/>
<path d="M1537.7 173.67C1534.88 227.412 1478.56 270.119 1409.35 266.491C1340.13 262.864 1288.58 214.504 1291.4 160.762C1294.22 107.021 1350.53 64.3135 1419.75 67.941C1488.97 71.5685 1540.52 119.929 1537.7 173.67Z" fill="#F8DC7A" stroke="#F8C04E" stroke-width="12"/>
<path d="M1499.72 171.679C1496.8 227.31 1455.39 268.904 1408.8 266.463C1362.22 264.021 1325.38 218.327 1328.3 162.696C1331.21 107.065 1372.62 65.4709 1419.21 67.9124C1465.8 70.3539 1502.63 116.048 1499.72 171.679Z" fill="#F8DC7A" stroke="#F8C04E" stroke-width="12"/>
<path d="M1450.34 169.092C1448.84 197.594 1442.88 222.88 1434.66 240.681C1430.55 249.597 1426 256.346 1421.42 260.712C1416.86 265.065 1412.7 266.667 1409.08 266.477C1405.45 266.287 1401.48 264.26 1397.4 259.452C1393.3 254.632 1389.48 247.445 1386.32 238.147C1380.01 219.585 1376.72 193.814 1378.22 165.312C1379.71 136.81 1385.67 111.524 1393.89 93.7228C1398.01 84.806 1402.55 78.0573 1407.13 73.6919C1411.7 69.3381 1415.86 67.7366 1419.48 67.9266C1423.11 68.1166 1427.07 70.1438 1431.16 74.951C1435.26 79.7711 1439.07 86.9582 1442.23 96.2564C1448.54 114.819 1451.83 140.589 1450.34 169.092Z" fill="#F8DC7A" stroke="#F8C04E" stroke-width="12"/>
<path d="M1119.61 375.901C1114.98 378.696 1111.8 381.78 1109.63 384.78C1108.53 378.889 1106.86 373.798 1104.25 369.192C1100.3 362.223 1094.38 356.633 1085.78 351.02L1090.46 346.733C1090.64 346.792 1090.86 346.869 1091.11 346.968C1092.37 347.461 1094.11 348.331 1096.18 349.527C1100.3 351.909 1105.39 355.406 1109.94 359.234C1114.55 363.117 1118.32 367.105 1120.1 370.434C1120.98 372.095 1121.19 373.26 1121.1 373.997C1121.03 374.553 1120.76 375.205 1119.61 375.901ZM1089.82 346.568C1089.82 346.568 1089.82 346.567 1089.82 346.567C1089.82 346.567 1089.82 346.567 1089.82 346.568Z" fill="#F87B52" stroke="#ED5F27" stroke-width="6"/>
<path d="M1078.11 291.956C1070.91 294.232 1076.53 326.872 1088.44 342.936" stroke="#ED5F27" stroke-width="13"/>
<circle cx="1090.16" cy="344.538" r="5.6693" transform="rotate(-15.4728 1090.16 344.538)" fill="#F87B52" stroke="#ED5F27" stroke-width="6"/>
<rect x="1071.56" y="98.8115" width="41.721" height="20.5896" rx="5" transform="rotate(3 1071.56 98.8115)" fill="#ED5F27"/>
<rect x="1091.83" y="50.5913" width="7" height="43" transform="rotate(3 1091.83 50.5913)" fill="#ED5F27"/>
<rect x="1082.24" y="91.7754" width="21.6732" height="10.8366" rx="5" transform="rotate(3 1082.24 91.7754)" fill="#ED5F27"/>
<path d="M1209.87 223.256C1207.06 276.834 1150.91 319.417 1081.89 315.8C1012.88 312.183 961.486 263.964 964.294 210.386C967.102 156.808 1023.25 114.224 1092.27 117.841C1161.29 121.458 1212.68 169.678 1209.87 223.256Z" fill="#F87B52" stroke="#ED5F27" stroke-width="12"/>
<path d="M1171.99 221.271C1169.09 276.739 1127.8 318.206 1081.35 315.772C1034.91 313.338 998.181 267.782 1001.09 212.314C1004 156.847 1045.28 115.379 1091.73 117.813C1138.17 120.247 1174.9 165.803 1171.99 221.271Z" fill="#F87B52" stroke="#ED5F27" stroke-width="12"/>
<path d="M1122.75 218.691C1121.26 247.111 1115.32 272.324 1107.13 290.072C1103.02 298.963 1098.49 305.691 1093.92 310.042C1089.37 314.382 1085.23 315.976 1081.62 315.786C1078.02 315.597 1074.06 313.579 1069.99 308.788C1065.91 303.983 1062.1 296.819 1058.95 287.548C1052.66 269.04 1049.38 243.344 1050.87 214.923C1052.36 186.503 1058.3 161.29 1066.5 143.542C1070.6 134.651 1075.13 127.923 1079.7 123.572C1084.25 119.233 1088.39 117.639 1092 117.828C1095.61 118.017 1099.56 120.035 1103.63 124.826C1107.71 129.631 1111.52 136.796 1114.67 146.066C1120.96 164.574 1124.24 190.27 1122.75 218.691Z" fill="#F87B52" stroke="#ED5F27" stroke-width="12"/>
<path d="M125.719 5.55957C639.109 78.0023 923.033 79.7781 1421.72 5.55957" stroke="black" stroke-width="10"/>
</svg>
