<svg width="1547" height="436" viewBox="0 0 1547 436" fill="none" xmlns="http://www.w3.org/2000/svg">
<path d="M475.4 326.708L436.772 307.612L435.617 309.316C436.6 310.224 437.929 311.441 439.501 312.854C442.976 315.978 447.616 320.042 452.311 323.836C457.043 327.66 461.694 331.096 465.22 333.052C466.548 333.788 467.543 334.214 468.222 334.421C469.619 330.439 472.586 328.082 475.4 326.708ZM468.99 334.574C468.99 334.574 468.985 334.574 468.976 334.574C468.986 334.574 468.99 334.574 468.99 334.574Z" fill="#F87B52" stroke="#ED5F27" stroke-width="6"/>
<path d="M423.974 253.617C416.715 255.772 421.777 288.575 433.427 304.879" stroke="#ED5F27" stroke-width="13"/>
<circle cx="435.121" cy="306.515" r="5.68765" transform="rotate(-14.4728 435.121 306.515)" fill="#F87B52" stroke="#ED5F27" stroke-width="6"/>
<rect x="411.575" y="60.583" width="41.8093" height="20.6332" rx="5" transform="rotate(2 411.575 60.583)" fill="#ED5F27"/>
<rect x="429.717" y="38.9409" width="7.05871" height="16.2893" transform="rotate(2 429.717 38.9409)" fill="#ED5F27"/>
<rect x="422.151" y="53.3462" width="21.7191" height="10.8596" rx="5" transform="rotate(2 422.151 53.3462)" fill="#ED5F27"/>
<path d="M552.341 182.853C550.465 236.595 494.941 280.247 425.721 277.83C356.501 275.413 304.157 227.994 306.034 174.252C307.911 120.51 363.435 76.8582 432.655 79.2754C501.874 81.6926 554.218 129.111 552.341 182.853Z" fill="#F87B52" stroke="#ED5F27" stroke-width="12"/>
<path d="M514.356 181.527C512.413 237.16 471.765 279.438 425.178 277.811C378.591 276.184 340.991 231.173 342.934 175.541C344.877 119.908 385.525 77.6296 432.112 79.2565C478.699 80.8833 516.299 125.894 514.356 181.527Z" fill="#F87B52" stroke="#ED5F27" stroke-width="12"/>
<path d="M464.975 179.803C463.98 208.306 458.462 233.674 450.564 251.603C446.607 260.583 442.181 267.405 437.683 271.846C433.197 276.275 429.073 277.947 425.45 277.821C421.826 277.694 417.829 275.739 413.663 271.007C409.485 266.263 405.546 259.149 402.226 249.915C395.597 231.479 391.862 205.788 392.858 177.284C393.853 148.78 399.371 123.413 407.269 105.484C411.226 96.5036 415.652 89.6818 420.15 85.2407C424.636 80.8115 428.76 79.1397 432.383 79.2662C436.007 79.3928 440.004 81.3482 444.171 86.0795C448.348 90.8236 452.287 97.9375 455.607 107.172C462.236 125.608 465.971 151.299 464.975 179.803Z" fill="#F87B52" stroke="#ED5F27" stroke-width="12"/>
<path d="M181.522 288.711L142.894 269.615L141.739 271.318C142.722 272.227 144.051 273.444 145.623 274.856C149.098 277.98 153.738 282.045 158.433 285.838C163.165 289.662 167.816 293.098 171.342 295.054C172.67 295.791 173.665 296.217 174.344 296.423C175.741 292.441 178.708 290.085 181.522 288.711ZM175.112 296.576C175.112 296.576 175.107 296.576 175.098 296.577C175.108 296.577 175.112 296.577 175.112 296.576Z" fill="#F87B52" stroke="#ED5F27" stroke-width="6"/>
<path d="M130.096 215.62C122.837 217.775 127.899 250.577 139.549 266.881" stroke="#ED5F27" stroke-width="13"/>
<circle cx="141.243" cy="268.517" r="5.68765" transform="rotate(-14.4728 141.243 268.517)" fill="#F87B52" stroke="#ED5F27" stroke-width="6"/>
<rect x="117.697" y="22.5854" width="41.8093" height="20.6332" rx="5" transform="rotate(2 117.697 22.5854)" fill="#ED5F27"/>
<rect x="135.709" y="7.94287" width="7" height="9" transform="rotate(2 135.709 7.94287)" fill="#ED5F27"/>
<rect x="128.273" y="15.3481" width="21.7191" height="10.8596" rx="5" transform="rotate(2 128.273 15.3481)" fill="#ED5F27"/>
<path d="M258.463 144.856C256.587 198.597 201.063 242.249 131.843 239.832C62.6231 237.415 10.2793 189.996 12.156 136.254C14.0328 82.5127 69.5568 38.8606 138.777 41.2778C207.996 43.6951 260.34 91.1139 258.463 144.856Z" fill="#F87B52" stroke="#ED5F27" stroke-width="12"/>
<path d="M220.479 143.529C218.536 199.162 177.887 241.44 131.301 239.813C84.7139 238.186 47.1137 193.176 49.0564 137.543C50.9992 81.9101 91.6476 39.6321 138.234 41.2589C184.821 42.8857 222.421 87.8963 220.479 143.529Z" fill="#F87B52" stroke="#ED5F27" stroke-width="12"/>
<path d="M171.097 141.805C170.102 170.309 164.584 195.677 156.686 213.605C152.729 222.586 148.303 229.407 143.805 233.849C139.32 238.278 135.195 239.95 131.572 239.823C127.948 239.697 123.951 237.741 119.785 233.01C115.607 228.266 111.668 221.152 108.348 211.917C101.719 193.481 97.9844 167.79 98.9798 139.287C99.9752 110.783 105.493 85.4152 113.391 67.4867C117.348 58.506 121.774 51.6843 126.272 47.2431C130.758 42.814 134.882 41.1421 138.505 41.2687C142.129 41.3952 146.127 43.3507 150.293 48.082C154.47 52.826 158.409 59.9399 161.729 69.1747C168.358 87.6104 172.093 113.301 171.097 141.805Z" fill="#F87B52" stroke="#ED5F27" stroke-width="12"/>
<path d="M771.418 424.607C771.121 418.161 770.503 412.464 769.321 406.925C767.711 399.38 765.078 392.234 760.915 383.931L765.435 382.045C765.55 382.135 765.682 382.246 765.834 382.38C766.788 383.224 768.06 384.607 769.529 386.441C772.446 390.084 775.871 395.169 778.732 400.399C781.627 405.689 783.789 410.845 784.419 414.687C784.737 416.626 784.598 417.856 784.313 418.535C784.121 418.993 783.83 419.345 782.925 419.524C777.718 420.555 774.02 422.438 771.418 424.607ZM764.944 381.701C764.858 381.668 764.849 381.651 764.937 381.697C764.94 381.698 764.942 381.7 764.944 381.701Z" fill="#F8DC7A" stroke="#F8C04E" stroke-width="6"/>
<path d="M751.724 328.766C750.036 330.909 760.907 363.715 761.182 380.055" stroke="#F8C04E" stroke-width="13"/>
<circle cx="762.109" cy="380.41" r="5.69236" transform="rotate(17.5502 762.109 380.41)" fill="#F8DC7A" stroke="#F8C04E" stroke-width="6"/>
<rect x="736.826" y="134.561" width="41.832" height="20.6444" rx="5" transform="rotate(2 736.826 134.561)" fill="#F8C04E"/>
<rect x="756.84" y="60.9404" width="7" height="68" transform="rotate(2 756.84 60.9404)" fill="#F8C04E"/>
<rect x="747.408" y="127.32" width="21.7309" height="10.8654" rx="5" transform="rotate(2 747.408 127.32)" fill="#F8C04E"/>
<path d="M877.672 256.898C875.794 310.671 820.238 354.348 750.98 351.929C681.721 349.511 629.347 302.065 631.225 248.292C633.103 194.519 688.659 150.842 757.917 153.261C827.176 155.679 879.55 203.125 877.672 256.898Z" fill="#F8DC7A" stroke="#F8C04E" stroke-width="12"/>
<path d="M839.666 255.571C837.722 311.235 797.051 353.538 750.437 351.91C703.822 350.282 666.201 305.245 668.145 249.581C670.089 193.917 710.76 151.614 757.374 153.242C803.989 154.869 841.61 199.906 839.666 255.571Z" fill="#F8DC7A" stroke="#F8C04E" stroke-width="12"/>
<path d="M790.259 253.845C789.263 282.365 783.742 307.747 775.839 325.685C771.88 334.671 767.452 341.497 762.951 345.941C758.462 350.373 754.335 352.046 750.708 351.919C747.081 351.793 743.081 349.836 738.912 345.101C734.732 340.354 730.791 333.236 727.469 323.996C720.836 305.55 717.1 279.845 718.095 251.325C719.091 222.806 724.612 197.424 732.515 179.485C736.474 170.499 740.902 163.673 745.403 159.23C749.892 154.798 754.019 153.124 757.646 153.251C761.273 153.378 765.273 155.335 769.442 160.069C773.622 164.816 777.563 171.934 780.885 181.174C787.518 199.62 791.255 225.326 790.259 253.845Z" fill="#F8DC7A" stroke="#F8C04E" stroke-width="12"/>
<path d="M1386.35 328.71L1413.83 293.991L1418.12 296.258C1417.73 297.565 1417.2 299.36 1416.54 301.469C1415.14 305.958 1413.19 311.836 1410.99 317.454C1408.77 323.133 1406.37 328.32 1404.12 331.569C1402.97 333.23 1402.09 334.027 1401.58 334.299C1396.65 329.779 1390.79 328.707 1386.35 328.71ZM1401.43 334.368C1401.43 334.368 1401.43 334.368 1401.43 334.367C1401.43 334.368 1401.43 334.368 1401.43 334.368Z" fill="#F8DC7A" stroke="#F8C04E" stroke-width="6"/>
<path d="M1406.51 239.53C1407.74 240.569 1419.66 272.493 1415.97 290.827" stroke="#F8C04E" stroke-width="13"/>
<circle cx="1415.86" cy="291.605" r="5.69372" transform="rotate(-14.4728 1415.86 291.605)" fill="#F8DC7A" stroke="#F8C04E" stroke-width="6"/>
<rect x="1394.55" y="48.5972" width="41.8385" height="20.6476" rx="5" transform="rotate(2 1394.55 48.5972)" fill="#F8C04E"/>
<rect x="1413.4" y="7.95215" width="7" height="34" transform="rotate(2 1413.4 7.95215)" fill="#F8C04E"/>
<rect x="1405.13" y="41.355" width="21.7343" height="10.8672" rx="5" transform="rotate(2 1405.13 41.355)" fill="#F8C04E"/>
<path d="M1535.42 170.953C1533.54 224.736 1477.98 268.419 1408.71 266C1339.44 263.581 1287.05 216.128 1288.93 162.346C1290.81 108.563 1346.38 64.8796 1415.65 67.2986C1484.92 69.7175 1537.3 117.171 1535.42 170.953Z" fill="#F8DC7A" stroke="#F8C04E" stroke-width="12"/>
<path d="M1497.41 169.625C1495.46 225.299 1454.79 267.609 1408.16 265.981C1361.54 264.353 1323.91 219.308 1325.86 163.635C1327.8 107.961 1368.48 65.6511 1415.1 67.2792C1461.72 68.9073 1499.35 113.952 1497.41 169.625Z" fill="#F8DC7A" stroke="#F8C04E" stroke-width="12"/>
<path d="M1447.99 167.9C1447 196.424 1441.48 221.81 1433.57 239.751C1429.61 248.739 1425.18 255.566 1420.68 260.01C1416.19 264.443 1412.06 266.117 1408.44 265.99C1404.81 265.864 1400.81 263.906 1396.64 259.171C1392.46 254.423 1388.51 247.304 1385.19 238.062C1378.56 219.613 1374.82 193.903 1375.82 165.379C1376.81 136.855 1382.33 111.469 1390.24 93.5276C1394.2 84.5403 1398.63 77.7133 1403.13 73.2686C1407.62 68.8358 1411.75 67.162 1415.37 67.2887C1419 67.4154 1423 69.3731 1427.17 74.1082C1431.35 78.8561 1435.3 85.9755 1438.62 95.2171C1445.25 113.666 1448.99 139.376 1447.99 167.9Z" fill="#F8DC7A" stroke="#F8C04E" stroke-width="12"/>
<path d="M1117.7 377.757C1112.7 379.803 1109.08 382.358 1106.47 384.985C1106.3 378.996 1105.43 373.707 1103.56 368.752C1100.74 361.257 1095.76 354.818 1088.13 347.941L1093.41 344.43C1093.58 344.517 1093.79 344.626 1094.02 344.764C1095.19 345.446 1096.78 346.574 1098.64 348.076C1102.34 351.066 1106.83 355.309 1110.73 359.794C1114.68 364.344 1117.79 368.868 1119.03 372.431C1119.65 374.21 1119.68 375.393 1119.47 376.107C1119.32 376.646 1118.95 377.248 1117.7 377.757ZM1092.81 344.169C1092.81 344.168 1092.81 344.168 1092.81 344.168C1092.81 344.168 1092.81 344.168 1092.81 344.169Z" fill="#F87B52" stroke="#ED5F27" stroke-width="6"/>
<path d="M1078.93 290.75C1071.69 292.901 1076.74 325.634 1088.37 341.903" stroke="#ED5F27" stroke-width="13"/>
<circle cx="1090.06" cy="343.535" r="5.6693" transform="rotate(-14.4728 1090.06 343.535)" fill="#F87B52" stroke="#ED5F27" stroke-width="6"/>
<rect x="1067.17" y="98.5342" width="41.721" height="20.5896" rx="5" transform="rotate(2 1067.17 98.5342)" fill="#ED5F27"/>
<rect x="1086.6" y="49.9673" width="7" height="43" transform="rotate(2 1086.6 49.9673)" fill="#ED5F27"/>
<rect x="1077.73" y="91.3125" width="21.6732" height="10.8366" rx="5" transform="rotate(2 1077.73 91.3125)" fill="#ED5F27"/>
<path d="M1207.63 220.546C1205.76 274.165 1150.36 317.722 1081.29 315.31C1012.22 312.898 959.995 265.583 961.867 211.964C963.739 158.345 1019.14 114.788 1088.21 117.2C1157.28 119.612 1209.5 166.927 1207.63 220.546Z" fill="#F87B52" stroke="#ED5F27" stroke-width="12"/>
<path d="M1169.72 219.222C1167.79 274.732 1127.23 316.914 1080.75 315.291C1034.27 313.667 996.751 268.759 998.689 213.249C1000.63 157.739 1041.19 115.558 1087.67 117.181C1134.15 118.804 1171.66 163.712 1169.72 219.222Z" fill="#F87B52" stroke="#ED5F27" stroke-width="12"/>
<path d="M1120.45 217.501C1119.45 245.944 1113.95 271.256 1106.07 289.145C1102.12 298.106 1097.7 304.912 1093.22 309.342C1088.74 313.76 1084.63 315.426 1081.02 315.3C1077.41 315.174 1073.42 313.225 1069.27 308.505C1065.1 303.773 1061.17 296.676 1057.86 287.461C1051.24 269.066 1047.51 243.431 1048.51 214.989C1049.5 186.547 1055.01 161.234 1062.89 143.346C1066.84 134.385 1071.25 127.579 1075.74 123.149C1080.21 118.73 1084.33 117.064 1087.94 117.19C1091.55 117.316 1095.53 119.265 1099.69 123.985C1103.86 128.717 1107.79 135.815 1111.1 145.029C1117.71 163.424 1121.44 189.059 1120.45 217.501Z" fill="#F87B52" stroke="#ED5F27" stroke-width="12"/>
<path d="M123.52 5C636.91 77.4427 920.834 79.2186 1419.52 5" stroke="black" stroke-width="10"/>
</svg>
