<svg width="1542" height="438" viewBox="0 0 1542 438" fill="none" xmlns="http://www.w3.org/2000/svg">
<path d="M476.146 327.437L439.565 304.662L438.25 306.245C439.14 307.245 440.344 308.586 441.77 310.146C444.924 313.594 449.145 318.092 453.448 322.325C457.784 326.592 462.077 330.466 465.396 332.757C466.646 333.619 467.594 334.141 468.25 334.412C470.028 330.586 473.211 328.53 476.146 327.437ZM468.999 334.64C468.999 334.639 468.994 334.639 468.985 334.639C468.995 334.64 468.999 334.64 468.999 334.64Z" fill="#F87B52" stroke="#ED5F27" stroke-width="6"/>
<path d="M428.975 250.936C421.613 252.708 424.951 285.73 435.732 302.622" stroke="#ED5F27" stroke-width="13"/>
<circle cx="437.339" cy="304.344" r="5.68765" transform="rotate(-11.4728 437.339 304.344)" fill="#F87B52" stroke="#ED5F27" stroke-width="6"/>
<rect x="401.821" y="61.6611" width="41.8093" height="20.6332" rx="5" transform="rotate(-1 401.821 61.6611)" fill="#ED5F27"/>
<rect x="418.805" y="39.0986" width="7.05871" height="16.2893" transform="rotate(-1 418.805 39.0986)" fill="#ED5F27"/>
<rect x="412.003" y="53.8799" width="21.7191" height="10.8596" rx="5" transform="rotate(-1 412.003 53.8799)" fill="#ED5F27"/>
<path d="M548.794 176.396C549.732 230.163 496.569 276.661 427.317 277.869C358.066 279.078 303.312 234.464 302.374 180.697C301.435 126.931 354.598 80.433 423.85 79.2242C493.101 78.0154 547.855 122.63 548.794 176.396Z" fill="#F87B52" stroke="#ED5F27" stroke-width="12"/>
<path d="M510.791 177.059C511.762 232.718 473.382 277.065 426.774 277.879C380.166 278.692 340.262 235.711 339.29 180.053C338.319 124.395 376.699 80.0471 423.307 79.2335C469.915 78.42 509.819 121.401 510.791 177.059Z" fill="#F87B52" stroke="#ED5F27" stroke-width="12"/>
<path d="M461.387 177.922C461.885 206.439 457.703 232.061 450.753 250.378C447.272 259.554 443.21 266.598 438.95 271.268C434.702 275.926 430.671 277.811 427.046 277.875C423.421 277.938 419.326 276.194 414.918 271.688C410.498 267.169 406.192 260.271 402.393 251.222C394.809 233.159 389.735 207.699 389.237 179.182C388.739 150.665 392.922 125.043 399.871 106.726C403.352 97.5506 407.415 90.5065 411.674 85.8361C415.922 81.1782 419.953 79.2928 423.579 79.2295C427.204 79.1662 431.298 80.9098 435.706 85.4166C440.126 89.9355 444.432 96.8335 448.231 105.882C455.815 123.945 460.89 149.406 461.387 177.922Z" fill="#F87B52" stroke="#ED5F27" stroke-width="12"/>
<path d="M182.085 289.439L145.504 266.664L144.189 268.247C145.079 269.247 146.283 270.588 147.709 272.148C150.862 275.596 155.084 280.094 159.387 284.327C163.723 288.594 168.016 292.468 171.335 294.759C172.585 295.621 173.533 296.143 174.189 296.414C175.967 292.587 179.15 290.532 182.085 289.439ZM174.938 296.642C174.938 296.641 174.933 296.641 174.924 296.641C174.934 296.642 174.938 296.642 174.938 296.642Z" fill="#F87B52" stroke="#ED5F27" stroke-width="6"/>
<path d="M134.914 212.937C127.552 214.709 130.89 247.731 141.671 264.623" stroke="#ED5F27" stroke-width="13"/>
<circle cx="143.278" cy="266.345" r="5.68765" transform="rotate(-11.4728 143.278 266.345)" fill="#F87B52" stroke="#ED5F27" stroke-width="6"/>
<rect x="107.76" y="23.6621" width="41.8093" height="20.6332" rx="5" transform="rotate(-1 107.76 23.6621)" fill="#ED5F27"/>
<rect x="124.981" y="8.09668" width="7" height="9" transform="rotate(-1 124.981 8.09668)" fill="#ED5F27"/>
<rect x="117.942" y="15.8809" width="21.7191" height="10.8596" rx="5" transform="rotate(-1 117.942 15.8809)" fill="#ED5F27"/>
<path d="M254.732 138.397C255.671 192.164 202.507 238.662 133.256 239.87C64.0043 241.079 9.25059 196.465 8.31209 142.698C7.3736 88.9321 60.537 42.434 129.788 41.2252C199.04 40.0164 253.794 84.6308 254.732 138.397Z" fill="#F87B52" stroke="#ED5F27" stroke-width="12"/>
<path d="M216.73 139.06C217.701 194.719 179.321 239.066 132.713 239.88C86.1049 240.693 46.2006 197.712 45.2291 142.054C44.2576 86.3956 82.6376 42.0481 129.246 41.2345C175.854 40.421 215.758 83.402 216.73 139.06Z" fill="#F87B52" stroke="#ED5F27" stroke-width="12"/>
<path d="M167.326 139.923C167.824 168.44 163.642 194.062 156.692 212.379C153.211 221.555 149.149 228.599 144.889 233.269C140.641 237.927 136.61 239.812 132.985 239.876C129.36 239.939 125.265 238.195 120.857 233.689C116.437 229.17 112.131 222.272 108.332 213.223C100.748 195.16 95.6736 169.7 95.1759 141.183C94.6781 112.666 98.8607 87.0442 105.81 68.727C109.291 59.5515 113.354 52.5075 117.613 47.8371C121.861 43.1792 125.892 41.2938 129.517 41.2305C133.143 41.1672 137.237 42.9108 141.645 47.4176C146.065 51.9365 150.371 58.8345 154.17 67.8829C161.754 85.9464 166.829 111.407 167.326 139.923Z" fill="#F87B52" stroke="#ED5F27" stroke-width="12"/>
<path d="M768.612 424.318C768.789 417.867 768.59 412.14 767.817 406.53C766.763 398.887 764.661 391.567 761.117 382.982L765.763 381.431C765.871 381.53 765.995 381.651 766.136 381.795C767.026 382.707 768.193 384.179 769.524 386.116C772.166 389.962 775.209 395.285 777.68 400.71C780.18 406.198 781.959 411.499 782.305 415.376C782.48 417.334 782.252 418.551 781.918 419.207C781.693 419.649 781.376 419.979 780.461 420.092C775.193 420.738 771.367 422.345 768.612 424.318ZM765.299 381.053C765.215 381.014 765.208 380.996 765.292 381.049C765.294 381.05 765.297 381.051 765.299 381.053Z" fill="#F8DC7A" stroke="#F8C04E" stroke-width="6"/>
<path d="M754.36 327.584C752.562 329.636 761.702 362.966 761.121 379.298" stroke="#F8C04E" stroke-width="13"/>
<circle cx="762.027" cy="379.7" r="5.69236" transform="rotate(20.5502 762.027 379.7)" fill="#F8DC7A" stroke="#F8C04E" stroke-width="6"/>
<rect x="729.175" y="135.671" width="41.832" height="20.6444" rx="5" transform="rotate(-1 729.175 135.671)" fill="#F8C04E"/>
<rect x="745.309" y="61.1035" width="7" height="68" transform="rotate(-1 745.309 61.1035)" fill="#F8C04E"/>
<rect x="739.364" y="127.886" width="21.7309" height="10.8654" rx="5" transform="rotate(-1 739.364 127.886)" fill="#F8C04E"/>
<path d="M876.231 250.468C877.17 304.266 823.976 350.791 754.686 352C685.396 353.209 630.61 308.57 629.671 254.772C628.732 200.974 681.926 154.45 751.216 153.241C820.507 152.031 875.292 196.671 876.231 250.468Z" fill="#F8DC7A" stroke="#F8C04E" stroke-width="12"/>
<path d="M838.207 251.132C839.18 306.822 800.778 351.196 754.142 352.01C707.507 352.824 667.58 309.817 666.608 254.128C665.635 198.438 704.037 154.064 750.673 153.25C797.308 152.436 837.235 195.442 838.207 251.132Z" fill="#F8DC7A" stroke="#F8C04E" stroke-width="12"/>
<path d="M788.778 251.995C789.276 280.528 785.091 306.164 778.138 324.492C774.655 333.672 770.59 340.721 766.328 345.394C762.077 350.055 758.043 351.942 754.414 352.005C750.786 352.068 746.689 350.323 742.278 345.814C737.855 341.292 733.547 334.39 729.745 325.336C722.157 307.262 717.08 281.788 716.582 253.256C716.084 224.723 720.269 199.087 727.222 180.759C730.705 171.579 734.77 164.53 739.032 159.857C743.283 155.196 747.317 153.309 750.945 153.246C754.573 153.182 758.671 154.928 763.082 159.437C767.504 163.959 771.813 170.861 775.614 179.915C783.203 197.988 788.28 223.463 788.778 251.995Z" fill="#F8DC7A" stroke="#F8C04E" stroke-width="12"/>
<path d="M1386.93 327.358L1417.77 295.593L1421.81 298.281C1421.29 299.544 1420.58 301.275 1419.71 303.306C1417.86 307.631 1415.33 313.282 1412.58 318.649C1409.79 324.074 1406.88 328.993 1404.32 331.998C1403 333.533 1402.05 334.238 1401.51 334.457C1397.06 329.461 1391.34 327.803 1386.93 327.358ZM1401.35 334.51C1401.35 334.51 1401.35 334.509 1401.35 334.509C1401.35 334.51 1401.35 334.51 1401.35 334.51Z" fill="#F8DC7A" stroke="#F8C04E" stroke-width="6"/>
<path d="M1412.34 240.202C1413.51 241.304 1423.74 273.807 1419.1 291.924" stroke="#F8C04E" stroke-width="13"/>
<circle cx="1418.95" cy="292.696" r="5.69372" transform="rotate(-11.4728 1418.95 292.696)" fill="#F8DC7A" stroke="#F8C04E" stroke-width="6"/>
<rect x="1384.95" y="49.6758" width="41.8385" height="20.6476" rx="5" transform="rotate(-1 1384.95 49.6758)" fill="#F8C04E"/>
<rect x="1401.64" y="8.10059" width="7" height="34" transform="rotate(-1 1401.64 8.10059)" fill="#F8C04E"/>
<rect x="1395.14" y="41.8896" width="21.7343" height="10.8672" rx="5" transform="rotate(-1 1395.14 41.8896)" fill="#F8C04E"/>
<path d="M1532.03 164.492C1532.97 218.299 1479.76 264.831 1410.46 266.04C1341.16 267.25 1286.36 222.603 1285.43 168.796C1284.49 114.989 1337.69 68.4577 1406.99 67.248C1476.29 66.0384 1531.09 110.685 1532.03 164.492Z" fill="#F8DC7A" stroke="#F8C04E" stroke-width="12"/>
<path d="M1494 165.155C1494.97 220.854 1456.56 265.235 1409.92 266.049C1363.27 266.863 1323.34 223.85 1322.37 168.151C1321.4 112.452 1359.8 68.071 1406.45 67.2568C1453.09 66.4427 1493.02 109.456 1494 165.155Z" fill="#F8DC7A" stroke="#F8C04E" stroke-width="12"/>
<path d="M1444.56 166.018C1445.06 194.556 1440.87 220.196 1433.92 238.526C1430.43 247.709 1426.37 254.758 1422.1 259.432C1417.85 264.094 1413.82 265.982 1410.19 266.045C1406.56 266.108 1402.46 264.363 1398.05 259.852C1393.63 255.33 1389.32 248.426 1385.52 239.371C1377.93 221.295 1372.85 195.816 1372.35 167.279C1371.85 138.742 1376.04 113.102 1382.99 94.7709C1386.47 85.5887 1390.54 78.5392 1394.8 73.865C1399.06 69.2033 1403.09 67.3158 1406.72 67.2524C1410.35 67.1891 1414.45 68.9347 1418.86 73.4451C1423.28 77.9677 1427.59 84.871 1431.39 93.926C1438.98 112.003 1444.06 137.481 1444.56 166.018Z" fill="#F8DC7A" stroke="#F8C04E" stroke-width="12"/>
<path d="M1118.93 378.049C1113.78 379.686 1109.97 381.943 1107.15 384.352C1107.46 378.369 1107.02 373.027 1105.56 367.939C1103.35 360.241 1098.89 353.423 1091.84 345.957L1097.39 342.881C1097.56 342.981 1097.75 343.106 1097.97 343.262C1099.08 344.036 1100.57 345.288 1102.31 346.934C1105.75 350.211 1109.89 354.801 1113.42 359.584C1117 364.437 1119.73 369.195 1120.68 372.846C1121.15 374.669 1121.09 375.851 1120.83 376.546C1120.63 377.071 1120.21 377.641 1118.93 378.049ZM1096.81 342.573C1096.81 342.571 1096.81 342.571 1096.81 342.571C1096.81 342.571 1096.81 342.571 1096.81 342.573Z" fill="#F87B52" stroke="#ED5F27" stroke-width="6"/>
<path d="M1085.08 288.693C1077.74 290.462 1081.07 323.415 1091.83 340.27" stroke="#ED5F27" stroke-width="13"/>
<circle cx="1093.43" cy="341.989" r="5.6693" transform="rotate(-11.4728 1093.43 341.989)" fill="#F87B52" stroke="#ED5F27" stroke-width="6"/>
<rect x="1057.68" y="99.6123" width="41.721" height="20.5896" rx="5" transform="rotate(-1 1057.68 99.6123)" fill="#ED5F27"/>
<rect x="1074.54" y="50.0957" width="7" height="43" transform="rotate(-1 1074.54 50.0957)" fill="#ED5F27"/>
<rect x="1067.84" y="91.8486" width="21.6732" height="10.8366" rx="5" transform="rotate(-1 1067.84 91.8486)" fill="#ED5F27"/>
<path d="M1204.33 214.106C1205.27 267.75 1152.23 314.146 1083.12 315.352C1014.02 316.558 959.394 272.041 958.458 218.398C957.522 164.754 1010.56 118.358 1079.67 117.152C1148.77 115.946 1203.4 160.463 1204.33 214.106Z" fill="#F87B52" stroke="#ED5F27" stroke-width="12"/>
<path d="M1166.41 214.768C1167.38 270.304 1129.08 314.55 1082.58 315.362C1036.08 316.174 996.266 273.291 995.297 217.755C994.328 162.22 1032.62 117.973 1079.12 117.162C1125.62 116.35 1165.44 159.233 1166.41 214.768Z" fill="#F87B52" stroke="#ED5F27" stroke-width="12"/>
<path d="M1117.11 215.629C1117.61 244.084 1113.43 269.65 1106.5 287.927C1103.03 297.082 1098.97 304.11 1094.72 308.769C1090.49 313.415 1086.47 315.294 1082.85 315.357C1079.24 315.42 1075.16 313.683 1070.76 309.187C1066.35 304.679 1062.06 297.797 1058.27 288.769C1050.7 270.745 1045.63 245.34 1045.14 216.885C1044.64 188.43 1048.82 162.864 1055.75 144.587C1059.22 135.432 1063.28 128.404 1067.52 123.745C1071.76 119.099 1075.78 117.22 1079.39 117.157C1083.01 117.094 1087.09 118.831 1091.49 123.327C1095.9 127.835 1100.19 134.717 1103.98 143.745C1111.55 161.769 1116.61 187.174 1117.11 215.629Z" fill="#F87B52" stroke="#ED5F27" stroke-width="12"/>
<path d="M120.574 5C633.964 77.4427 917.888 79.2186 1416.57 5" stroke="black" stroke-width="10"/>
</svg>
