<svg width="1542" height="438" viewBox="0 0 1542 438" fill="none" xmlns="http://www.w3.org/2000/svg">
<path d="M476.572 327.437L439.992 304.662L438.676 306.245C439.566 307.245 440.77 308.586 442.196 310.146C445.35 313.594 449.572 318.092 453.874 322.325C458.21 326.592 462.503 330.466 465.822 332.757C467.072 333.619 468.02 334.141 468.676 334.412C470.455 330.586 473.638 328.53 476.572 327.437ZM469.425 334.64C469.425 334.639 469.421 334.639 469.412 334.639C469.421 334.64 469.426 334.64 469.425 334.64Z" fill="#F87B52" stroke="#ED5F27" stroke-width="6"/>
<path d="M429.401 250.936C422.039 252.708 425.377 285.73 436.159 302.622" stroke="#ED5F27" stroke-width="13"/>
<circle cx="437.765" cy="304.344" r="5.68765" transform="rotate(-11.4728 437.765 304.344)" fill="#F87B52" stroke="#ED5F27" stroke-width="6"/>
<rect x="402.247" y="61.6611" width="41.8093" height="20.6332" rx="5" transform="rotate(-1 402.247 61.6611)" fill="#ED5F27"/>
<rect x="419.231" y="39.0986" width="7.05871" height="16.2893" transform="rotate(-1 419.231 39.0986)" fill="#ED5F27"/>
<rect x="412.43" y="53.8799" width="21.7191" height="10.8596" rx="5" transform="rotate(-1 412.43 53.8799)" fill="#ED5F27"/>
<path d="M549.22 176.396C550.158 230.163 496.995 276.661 427.744 277.869C358.492 279.078 303.738 234.464 302.8 180.697C301.861 126.931 355.025 80.433 424.276 79.2242C493.528 78.0154 548.281 122.63 549.22 176.396Z" fill="#F87B52" stroke="#ED5F27" stroke-width="12"/>
<path d="M511.217 177.059C512.188 232.718 473.808 277.065 427.2 277.879C380.592 278.692 340.688 235.711 339.716 180.053C338.745 124.395 377.125 80.0471 423.733 79.2335C470.341 78.42 510.245 121.401 511.217 177.059Z" fill="#F87B52" stroke="#ED5F27" stroke-width="12"/>
<path d="M461.814 177.922C462.312 206.439 458.129 232.061 451.18 250.378C447.699 259.554 443.636 266.598 439.376 271.268C435.128 275.926 431.097 277.811 427.472 277.875C423.847 277.938 419.753 276.194 415.345 271.688C410.925 267.169 406.619 260.271 402.819 251.222C395.235 233.159 390.161 207.699 389.663 179.182C389.165 150.665 393.348 125.043 400.297 106.726C403.778 97.5506 407.841 90.5065 412.101 85.8361C416.348 81.1782 420.38 79.2928 424.005 79.2295C427.63 79.1662 431.724 80.9098 436.132 85.4166C440.552 89.9355 444.858 96.8335 448.657 105.882C456.242 123.945 461.316 149.406 461.814 177.922Z" fill="#F87B52" stroke="#ED5F27" stroke-width="12"/>
<path d="M182.511 289.439L145.931 266.664L144.615 268.247C145.505 269.247 146.709 270.588 148.135 272.148C151.289 275.596 155.511 280.094 159.813 284.327C164.149 288.594 168.442 292.468 171.761 294.759C173.011 295.621 173.959 296.143 174.615 296.414C176.394 292.587 179.577 290.532 182.511 289.439ZM175.364 296.642C175.364 296.641 175.36 296.641 175.351 296.641C175.36 296.642 175.364 296.642 175.364 296.642Z" fill="#F87B52" stroke="#ED5F27" stroke-width="6"/>
<path d="M135.34 212.937C127.978 214.709 131.316 247.731 142.098 264.623" stroke="#ED5F27" stroke-width="13"/>
<circle cx="143.704" cy="266.345" r="5.68765" transform="rotate(-11.4728 143.704 266.345)" fill="#F87B52" stroke="#ED5F27" stroke-width="6"/>
<rect x="108.186" y="23.6621" width="41.8093" height="20.6332" rx="5" transform="rotate(-1 108.186 23.6621)" fill="#ED5F27"/>
<rect x="125.407" y="8.09668" width="7" height="9" transform="rotate(-1 125.407 8.09668)" fill="#ED5F27"/>
<rect x="118.368" y="15.8809" width="21.7191" height="10.8596" rx="5" transform="rotate(-1 118.368 15.8809)" fill="#ED5F27"/>
<path d="M255.158 138.397C256.097 192.164 202.933 238.662 133.682 239.87C64.4306 241.079 9.67686 196.465 8.73836 142.698C7.79987 88.9321 60.9632 42.434 130.215 41.2252C199.466 40.0164 254.22 84.6308 255.158 138.397Z" fill="#F87B52" stroke="#ED5F27" stroke-width="12"/>
<path d="M217.156 139.06C218.127 194.719 179.747 239.066 133.139 239.88C86.5312 240.693 46.6269 197.712 45.6554 142.054C44.6838 86.3956 83.0638 42.0481 129.672 41.2345C176.28 40.421 216.184 83.402 217.156 139.06Z" fill="#F87B52" stroke="#ED5F27" stroke-width="12"/>
<path d="M167.753 139.923C168.25 168.44 164.068 194.062 157.119 212.379C153.638 221.555 149.575 228.599 145.315 233.269C141.067 237.927 137.036 239.812 133.411 239.876C129.786 239.939 125.691 238.195 121.284 233.689C116.864 229.17 112.558 222.272 108.758 213.223C101.174 195.16 96.0999 169.7 95.6021 141.183C95.1044 112.666 99.287 87.0442 106.236 68.727C109.717 59.5515 113.78 52.5075 118.039 47.8371C122.287 43.1792 126.318 41.2938 129.944 41.2305C133.569 41.1672 137.663 42.9108 142.071 47.4176C146.491 51.9365 150.797 58.8345 154.596 67.8829C162.181 85.9464 167.255 111.407 167.753 139.923Z" fill="#F87B52" stroke="#ED5F27" stroke-width="12"/>
<path d="M769.039 424.318C769.215 417.867 769.016 412.14 768.243 406.53C767.19 398.887 765.087 391.567 761.543 382.982L766.19 381.431C766.297 381.53 766.421 381.651 766.562 381.795C767.452 382.707 768.62 384.179 769.95 386.116C772.592 389.962 775.636 395.285 778.107 400.71C780.606 406.198 782.385 411.499 782.731 415.376C782.906 417.334 782.678 418.551 782.344 419.207C782.119 419.649 781.803 419.979 780.887 420.092C775.619 420.738 771.793 422.345 769.039 424.318ZM765.725 381.053C765.642 381.014 765.634 380.996 765.718 381.049C765.721 381.05 765.723 381.051 765.725 381.053Z" fill="#F8DC7A" stroke="#F8C04E" stroke-width="6"/>
<path d="M754.786 327.584C752.988 329.636 762.128 362.966 761.547 379.298" stroke="#F8C04E" stroke-width="13"/>
<circle cx="762.453" cy="379.7" r="5.69236" transform="rotate(20.5502 762.453 379.7)" fill="#F8DC7A" stroke="#F8C04E" stroke-width="6"/>
<rect x="729.602" y="135.671" width="41.832" height="20.6444" rx="5" transform="rotate(-1 729.602 135.671)" fill="#F8C04E"/>
<rect x="745.735" y="61.1035" width="7" height="68" transform="rotate(-1 745.735 61.1035)" fill="#F8C04E"/>
<rect x="739.79" y="127.886" width="21.7309" height="10.8654" rx="5" transform="rotate(-1 739.79 127.886)" fill="#F8C04E"/>
<path d="M876.657 250.468C877.596 304.266 824.402 350.791 755.112 352C685.822 353.209 631.036 308.57 630.097 254.772C629.158 200.974 682.353 154.45 751.643 153.241C820.933 152.031 875.718 196.671 876.657 250.468Z" fill="#F8DC7A" stroke="#F8C04E" stroke-width="12"/>
<path d="M838.634 251.132C839.606 306.822 801.204 351.196 754.568 352.01C707.933 352.824 668.006 309.817 667.034 254.128C666.062 198.438 704.464 154.064 751.099 153.25C797.735 152.436 837.662 195.442 838.634 251.132Z" fill="#F8DC7A" stroke="#F8C04E" stroke-width="12"/>
<path d="M789.204 251.995C789.702 280.528 785.517 306.164 778.564 324.492C775.081 333.672 771.016 340.721 766.754 345.394C762.503 350.055 758.469 351.942 754.841 352.005C751.212 352.068 747.115 350.323 742.704 345.814C738.282 341.292 733.973 334.39 730.172 325.336C722.583 307.262 717.506 281.788 717.008 253.256C716.51 224.723 720.695 199.087 727.648 180.759C731.131 171.579 735.196 164.53 739.458 159.857C743.709 155.196 747.743 153.309 751.371 153.246C755 153.182 759.097 154.928 763.508 159.437C767.93 163.959 772.239 170.861 776.04 179.915C783.629 197.988 788.706 223.463 789.204 251.995Z" fill="#F8DC7A" stroke="#F8C04E" stroke-width="12"/>
<path d="M1387.35 327.358L1418.19 295.593L1422.23 298.281C1421.72 299.544 1421.01 301.275 1420.14 303.306C1418.29 307.631 1415.76 313.282 1413 318.649C1410.22 324.074 1407.31 328.993 1404.74 331.998C1403.43 333.533 1402.48 334.238 1401.94 334.457C1397.49 329.461 1391.77 327.803 1387.35 327.358ZM1401.78 334.51C1401.78 334.51 1401.78 334.509 1401.78 334.509C1401.78 334.51 1401.78 334.51 1401.78 334.51Z" fill="#F8DC7A" stroke="#F8C04E" stroke-width="6"/>
<path d="M1412.77 240.202C1413.94 241.304 1424.17 273.807 1419.53 291.924" stroke="#F8C04E" stroke-width="13"/>
<circle cx="1419.38" cy="292.696" r="5.69372" transform="rotate(-11.4728 1419.38 292.696)" fill="#F8DC7A" stroke="#F8C04E" stroke-width="6"/>
<rect x="1385.37" y="49.6758" width="41.8385" height="20.6476" rx="5" transform="rotate(-1 1385.37 49.6758)" fill="#F8C04E"/>
<rect x="1402.06" y="8.10059" width="7" height="34" transform="rotate(-1 1402.06 8.10059)" fill="#F8C04E"/>
<rect x="1395.56" y="41.8896" width="21.7343" height="10.8672" rx="5" transform="rotate(-1 1395.56 41.8896)" fill="#F8C04E"/>
<path d="M1532.45 164.492C1533.39 218.299 1480.19 264.831 1410.89 266.04C1341.59 267.25 1286.79 222.603 1285.85 168.796C1284.91 114.989 1338.12 68.4577 1407.42 67.248C1476.72 66.0384 1531.51 110.685 1532.45 164.492Z" fill="#F8DC7A" stroke="#F8C04E" stroke-width="12"/>
<path d="M1494.42 165.155C1495.4 220.854 1456.99 265.235 1410.34 266.049C1363.7 266.863 1323.77 223.85 1322.79 168.151C1321.82 112.452 1360.23 68.071 1406.87 67.2568C1453.52 66.4427 1493.45 109.456 1494.42 165.155Z" fill="#F8DC7A" stroke="#F8C04E" stroke-width="12"/>
<path d="M1444.99 166.018C1445.48 194.556 1441.3 220.196 1434.34 238.526C1430.86 247.709 1426.79 254.758 1422.53 259.432C1418.28 264.094 1414.24 265.982 1410.62 266.045C1406.99 266.108 1402.89 264.363 1398.48 259.852C1394.05 255.33 1389.74 248.426 1385.94 239.371C1378.35 221.295 1373.27 195.816 1372.78 167.279C1372.28 138.742 1376.46 113.102 1383.42 94.7709C1386.9 85.5887 1390.97 78.5392 1395.23 73.865C1399.48 69.2033 1403.52 67.3158 1407.15 67.2524C1410.77 67.1891 1414.87 68.9347 1419.28 73.4451C1423.71 77.9677 1428.02 84.871 1431.82 93.926C1439.41 112.003 1444.49 137.481 1444.99 166.018Z" fill="#F8DC7A" stroke="#F8C04E" stroke-width="12"/>
<path d="M1119.35 378.049C1114.21 379.686 1110.39 381.943 1107.58 384.352C1107.89 378.369 1107.45 373.027 1105.98 367.939C1103.77 360.241 1099.32 353.423 1092.27 345.957L1097.82 342.881C1097.98 342.981 1098.17 343.106 1098.4 343.262C1099.51 344.036 1101 345.288 1102.73 346.934C1106.18 350.211 1110.31 354.801 1113.84 359.584C1117.42 364.437 1120.15 369.195 1121.11 372.846C1121.58 374.669 1121.51 375.851 1121.25 376.546C1121.06 377.071 1120.64 377.641 1119.35 378.049ZM1097.24 342.573C1097.24 342.571 1097.23 342.571 1097.23 342.571C1097.23 342.571 1097.24 342.571 1097.24 342.573Z" fill="#F87B52" stroke="#ED5F27" stroke-width="6"/>
<path d="M1085.51 288.693C1078.16 290.462 1081.49 323.415 1092.25 340.27" stroke="#ED5F27" stroke-width="13"/>
<circle cx="1093.86" cy="341.989" r="5.6693" transform="rotate(-11.4728 1093.86 341.989)" fill="#F87B52" stroke="#ED5F27" stroke-width="6"/>
<rect x="1058.11" y="99.6123" width="41.721" height="20.5896" rx="5" transform="rotate(-1 1058.11 99.6123)" fill="#ED5F27"/>
<rect x="1074.96" y="50.0957" width="7" height="43" transform="rotate(-1 1074.96 50.0957)" fill="#ED5F27"/>
<rect x="1068.27" y="91.8486" width="21.6732" height="10.8366" rx="5" transform="rotate(-1 1068.27 91.8486)" fill="#ED5F27"/>
<path d="M1204.76 214.106C1205.69 267.75 1152.65 314.146 1083.55 315.352C1014.45 316.558 959.821 272.041 958.884 218.398C957.948 164.754 1010.99 118.358 1080.09 117.152C1149.19 115.946 1203.82 160.463 1204.76 214.106Z" fill="#F87B52" stroke="#ED5F27" stroke-width="12"/>
<path d="M1166.84 214.768C1167.81 270.304 1129.51 314.55 1083.01 315.362C1036.51 316.174 996.693 273.291 995.723 217.755C994.754 162.22 1033.05 117.973 1079.55 117.162C1126.05 116.35 1165.87 159.233 1166.84 214.768Z" fill="#F87B52" stroke="#ED5F27" stroke-width="12"/>
<path d="M1117.54 215.629C1118.03 244.084 1113.86 269.65 1106.93 287.927C1103.45 297.082 1099.4 304.11 1095.15 308.769C1090.91 313.415 1086.89 315.294 1083.28 315.357C1079.67 315.42 1075.59 313.683 1071.19 309.187C1066.78 304.679 1062.48 297.797 1058.69 288.769C1051.12 270.745 1046.06 245.34 1045.56 216.885C1045.07 188.43 1049.24 162.864 1056.18 144.587C1059.65 135.432 1063.7 128.404 1067.95 123.745C1072.19 119.099 1076.21 117.22 1079.82 117.157C1083.43 117.094 1087.52 118.831 1091.91 123.327C1096.32 127.835 1100.62 134.717 1104.41 143.745C1111.98 161.769 1117.04 187.174 1117.54 215.629Z" fill="#F87B52" stroke="#ED5F27" stroke-width="12"/>
<path d="M121 5C634.39 77.4427 918.314 79.2186 1417 5" stroke="black" stroke-width="10"/>
</svg>
