<svg width="1558" height="447" viewBox="0 0 1558 447" fill="none" xmlns="http://www.w3.org/2000/svg">
<path d="M487.886 328.146L452.807 303.119L451.395 304.616C452.22 305.67 453.338 307.084 454.663 308.73C457.594 312.369 461.525 317.123 465.553 321.619C469.613 326.15 473.654 330.285 476.823 332.78C478.016 333.719 478.93 334.299 479.567 334.611C481.582 330.904 484.888 329.052 487.886 328.146ZM480.3 334.885C480.3 334.885 480.296 334.884 480.287 334.884C480.296 334.885 480.301 334.885 480.3 334.885Z" fill="#F87B52" stroke="#ED5F27" stroke-width="6"/>
<path d="M444.88 249.1C437.435 250.484 439.041 283.636 448.923 301.068" stroke="#ED5F27" stroke-width="13"/>
<circle cx="450.437" cy="302.871" r="5.68765" transform="rotate(-8.47281 450.437 302.871)" fill="#F87B52" stroke="#ED5F27" stroke-width="6"/>
<rect x="403.031" y="64.0947" width="41.8093" height="20.6332" rx="5" transform="rotate(-4 403.031 64.0947)" fill="#ED5F27"/>
<rect x="418.811" y="40.6748" width="7.05871" height="16.2893" transform="rotate(-4 418.811 40.6748)" fill="#ED5F27"/>
<rect x="412.792" y="55.792" width="21.7191" height="10.8596" rx="5" transform="rotate(-4 412.792 55.792)" fill="#ED5F27"/>
<path d="M555.807 170.981C559.558 224.625 508.901 273.842 439.808 278.673C370.714 283.505 313.701 241.817 309.95 188.173C306.198 134.53 356.855 85.3131 425.949 80.4816C495.042 75.6501 552.056 117.338 555.807 170.981Z" fill="#F87B52" stroke="#ED5F27" stroke-width="12"/>
<path d="M517.891 173.633C521.774 229.164 485.768 275.46 439.266 278.711C392.764 281.963 350.665 241.129 346.782 185.598C342.899 130.067 378.905 83.7716 425.407 80.5198C471.909 77.2681 514.008 118.102 517.891 173.633Z" fill="#F87B52" stroke="#ED5F27" stroke-width="12"/>
<path d="M468.6 177.08C470.59 205.532 467.754 231.337 461.773 249.993C458.777 259.338 455.088 266.585 451.079 271.472C447.081 276.346 443.154 278.44 439.537 278.693C435.92 278.946 431.74 277.419 427.102 273.149C422.452 268.867 417.791 262.204 413.523 253.367C405.004 235.725 398.604 210.565 396.615 182.114C394.625 153.662 397.461 127.857 403.442 109.201C406.438 99.8556 410.127 92.6086 414.136 87.7217C418.134 82.8479 422.061 80.7541 425.678 80.5011C429.295 80.2482 433.475 81.7751 438.113 86.045C442.763 90.3265 447.424 96.9896 451.692 105.827C460.211 123.469 466.611 148.628 468.6 177.08Z" fill="#F87B52" stroke="#ED5F27" stroke-width="12"/>
<path d="M193.641 290.155L158.563 265.129L157.151 266.626C157.976 267.68 159.094 269.094 160.419 270.74C163.35 274.379 167.281 279.133 171.309 283.629C175.369 288.16 179.41 292.295 182.579 294.79C183.772 295.729 184.686 296.309 185.323 296.621C187.338 292.914 190.644 291.062 193.641 290.155ZM186.056 296.895C186.056 296.895 186.052 296.894 186.043 296.893C186.052 296.895 186.056 296.895 186.056 296.895Z" fill="#F87B52" stroke="#ED5F27" stroke-width="6"/>
<path d="M150.636 211.108C143.191 212.493 144.797 245.645 154.679 263.077" stroke="#ED5F27" stroke-width="13"/>
<circle cx="156.193" cy="264.88" r="5.68765" transform="rotate(-8.47281 156.193 264.88)" fill="#F87B52" stroke="#ED5F27" stroke-width="6"/>
<rect x="108.786" y="26.1035" width="41.8093" height="20.6332" rx="5" transform="rotate(-4 108.786 26.1035)" fill="#ED5F27"/>
<rect x="125.169" y="9.6582" width="7" height="9" transform="rotate(-4 125.169 9.6582)" fill="#ED5F27"/>
<rect x="118.547" y="17.8008" width="21.7191" height="10.8596" rx="5" transform="rotate(-4 118.547 17.8008)" fill="#ED5F27"/>
<path d="M261.562 132.99C265.313 186.634 214.656 235.85 145.563 240.682C76.4697 245.513 19.4561 203.826 15.705 150.182C11.9538 96.5386 62.6108 47.3218 131.704 42.4904C200.797 37.6589 257.811 79.3466 261.562 132.99Z" fill="#F87B52" stroke="#ED5F27" stroke-width="12"/>
<path d="M223.646 135.641C227.529 191.172 191.523 237.467 145.021 240.719C98.5197 243.971 56.4206 203.137 52.5375 147.606C48.6544 92.0748 84.6608 45.7794 131.162 42.5277C177.664 39.276 219.763 80.1097 223.646 135.641Z" fill="#F87B52" stroke="#ED5F27" stroke-width="12"/>
<path d="M174.356 139.088C176.345 167.539 173.509 193.345 167.528 212.001C164.532 221.346 160.844 228.593 156.835 233.48C152.836 238.354 148.909 240.448 145.292 240.7C141.675 240.953 137.495 239.426 132.858 235.157C128.207 230.875 123.546 224.212 119.279 215.375C110.759 197.733 104.36 172.573 102.37 144.122C100.38 115.67 103.216 89.8644 109.197 71.2085C112.194 61.8635 115.882 54.6165 119.891 49.7295C123.89 44.8557 127.816 42.7619 131.433 42.509C135.05 42.256 139.23 43.7829 143.868 48.0529C148.518 52.3343 153.18 58.9974 157.447 67.8346C165.966 85.4765 172.366 110.636 174.356 139.088Z" fill="#F87B52" stroke="#ED5F27" stroke-width="12"/>
<path d="M781.136 424.153C781.695 417.724 781.836 411.996 781.397 406.349C780.799 398.658 779.134 391.226 776.105 382.446L780.836 381.174C780.937 381.279 781.054 381.406 781.186 381.559C782.02 382.522 783.098 384.06 784.311 386.073C786.721 390.069 789.443 395.563 791.588 401.125C793.758 406.752 795.219 412.148 795.335 416.04C795.394 418.004 795.094 419.205 794.722 419.84C794.471 420.269 794.135 420.579 793.215 420.637C787.917 420.971 784.003 422.348 781.136 424.153ZM780.394 380.768C780.313 380.725 780.307 380.707 780.388 380.764C780.39 380.765 780.392 380.767 780.394 380.768Z" fill="#F8DC7A" stroke="#F8C04E" stroke-width="6"/>
<path d="M772.099 326.817C770.196 328.772 777.579 362.535 776.144 378.814" stroke="#F8C04E" stroke-width="13"/>
<circle cx="777.028" cy="379.262" r="5.69236" transform="rotate(23.5502 777.028 379.262)" fill="#F8DC7A" stroke="#F8C04E" stroke-width="6"/>
<rect x="731.287" y="138.065" width="41.832" height="20.6444" rx="5" transform="rotate(-4 731.287 138.065)" fill="#F8C04E"/>
<rect x="743.495" y="62.7559" width="7" height="68" transform="rotate(-4 743.495 62.7559)" fill="#F8C04E"/>
<rect x="741.054" y="129.758" width="21.7309" height="10.8654" rx="5" transform="rotate(-4 741.054 129.758)" fill="#F8C04E"/>
<path d="M884.149 245.009C887.902 298.684 837.216 347.928 768.084 352.763C698.952 357.597 641.905 315.886 638.152 262.211C634.398 208.536 685.085 159.291 754.217 154.457C823.349 149.623 880.395 191.334 884.149 245.009Z" fill="#F8DC7A" stroke="#F8C04E" stroke-width="12"/>
<path d="M846.212 247.663C850.098 303.225 814.071 349.548 767.542 352.801C721.013 356.055 678.89 315.197 675.004 259.635C671.119 204.072 707.146 157.749 753.675 154.496C800.204 151.242 842.327 192.1 846.212 247.663Z" fill="#F8DC7A" stroke="#F8C04E" stroke-width="12"/>
<path d="M796.895 251.11C798.886 279.578 796.048 305.398 790.064 324.064C787.066 333.415 783.375 340.666 779.364 345.556C775.363 350.433 771.433 352.528 767.813 352.782C764.193 353.035 760.01 351.506 755.369 347.234C750.716 342.95 746.052 336.283 741.782 327.44C733.258 309.788 726.854 284.615 724.864 256.147C722.873 227.68 725.711 201.86 731.695 183.194C734.693 173.843 738.384 166.592 742.395 161.702C746.396 156.825 750.326 154.729 753.946 154.476C757.566 154.223 761.749 155.751 766.39 160.024C771.043 164.308 775.707 170.975 779.977 179.817C788.501 197.469 794.904 222.643 796.895 251.11Z" fill="#F8DC7A" stroke="#F8C04E" stroke-width="12"/>
<path d="M1399.05 327.28L1431.72 297.4L1435.59 300.322C1435 301.552 1434.19 303.239 1433.2 305.215C1431.1 309.422 1428.23 314.913 1425.17 320.107C1422.06 325.357 1418.87 330.096 1416.13 332.943C1414.73 334.398 1413.73 335.044 1413.19 335.231C1409.04 329.981 1403.43 327.986 1399.05 327.28ZM1413.02 335.274C1413.02 335.274 1413.02 335.274 1413.02 335.274C1413.02 335.274 1413.02 335.274 1413.02 335.274Z" fill="#F8DC7A" stroke="#F8C04E" stroke-width="6"/>
<path d="M1429.06 241.702C1430.18 242.864 1438.69 275.859 1433.11 293.708" stroke="#F8C04E" stroke-width="13"/>
<circle cx="1432.92" cy="294.47" r="5.69372" transform="rotate(-8.47281 1432.92 294.47)" fill="#F8DC7A" stroke="#F8C04E" stroke-width="6"/>
<rect x="1386.32" y="52.1016" width="41.8385" height="20.6476" rx="5" transform="rotate(-4 1386.32 52.1016)" fill="#F8C04E"/>
<rect x="1400.81" y="9.70996" width="7" height="34" transform="rotate(-4 1400.81 9.70996)" fill="#F8C04E"/>
<rect x="1396.09" y="43.793" width="21.7343" height="10.8672" rx="5" transform="rotate(-4 1396.09 43.793)" fill="#F8C04E"/>
<path d="M1539.21 159.063C1542.96 212.747 1492.26 261.999 1423.12 266.834C1353.98 271.669 1296.92 229.951 1293.17 176.267C1289.41 122.583 1340.11 73.3307 1409.25 68.4958C1478.39 63.6608 1535.45 105.379 1539.21 159.063Z" fill="#F8DC7A" stroke="#F8C04E" stroke-width="12"/>
<path d="M1501.26 161.716C1505.15 217.288 1469.12 263.618 1422.58 266.872C1376.04 270.127 1333.91 229.262 1330.03 173.69C1326.14 118.118 1362.17 71.7881 1408.71 68.5339C1455.25 65.2797 1497.38 106.144 1501.26 161.716Z" fill="#F8DC7A" stroke="#F8C04E" stroke-width="12"/>
<path d="M1451.94 165.165C1453.93 193.637 1451.09 219.461 1445.11 238.131C1442.11 247.482 1438.42 254.735 1434.4 259.626C1430.4 264.504 1426.47 266.6 1422.85 266.853C1419.23 267.106 1415.04 265.578 1410.4 261.304C1405.75 257.019 1401.08 250.351 1396.81 241.507C1388.29 223.853 1381.88 198.675 1379.89 170.203C1377.9 141.731 1380.74 115.907 1386.73 97.2373C1389.72 87.8854 1393.42 80.6327 1397.43 75.7418C1401.43 70.864 1405.36 68.7679 1408.98 68.5147C1412.6 68.2615 1416.79 69.7902 1421.43 74.0636C1426.08 78.3485 1430.75 85.0168 1435.02 93.8604C1443.54 111.515 1449.95 136.693 1451.94 165.165Z" fill="#F8DC7A" stroke="#F8C04E" stroke-width="12"/>
<path d="M1131.25 378.461C1126.03 379.827 1122.1 381.881 1119.16 384.14C1119.79 378.181 1119.62 372.823 1118.43 367.665C1116.63 359.863 1112.54 352.821 1105.88 344.996L1111.59 342.215C1111.75 342.323 1111.93 342.458 1112.15 342.626C1113.21 343.456 1114.64 344.785 1116.28 346.52C1119.55 349.973 1123.44 354.772 1126.72 359.734C1130.04 364.767 1132.52 369.661 1133.28 373.358C1133.65 375.203 1133.53 376.379 1133.23 377.06C1133 377.574 1132.56 378.121 1131.25 378.461ZM1111.03 341.876C1111.02 341.875 1111.02 341.874 1111.02 341.874C1111.02 341.874 1111.02 341.875 1111.03 341.876Z" fill="#F87B52" stroke="#ED5F27" stroke-width="6"/>
<path d="M1102.13 287.456C1094.7 288.838 1096.31 321.92 1106.17 339.315" stroke="#ED5F27" stroke-width="13"/>
<circle cx="1107.68" cy="341.116" r="5.6693" transform="rotate(-8.47281 1107.68 341.116)" fill="#F87B52" stroke="#ED5F27" stroke-width="6"/>
<rect x="1059.17" y="102.03" width="41.721" height="20.5896" rx="5" transform="rotate(-4 1059.17 102.03)" fill="#ED5F27"/>
<rect x="1073.41" y="51.6992" width="7" height="43" transform="rotate(-4 1073.41 51.6992)" fill="#ED5F27"/>
<rect x="1068.91" y="93.7451" width="21.6732" height="10.8366" rx="5" transform="rotate(-4 1068.91 93.7451)" fill="#ED5F27"/>
<path d="M1211.61 208.692C1215.35 262.213 1164.81 311.322 1095.87 316.143C1026.92 320.964 970.037 279.367 966.295 225.846C962.552 172.325 1013.09 123.216 1082.04 118.395C1150.98 113.574 1207.86 155.171 1211.61 208.692Z" fill="#F87B52" stroke="#ED5F27" stroke-width="12"/>
<path d="M1173.77 211.338C1177.65 266.746 1141.72 312.936 1095.32 316.18C1048.93 319.425 1006.92 278.684 1003.05 223.276C999.175 167.867 1035.1 121.677 1081.5 118.433C1127.89 115.189 1169.9 155.929 1173.77 211.338Z" fill="#F87B52" stroke="#ED5F27" stroke-width="12"/>
<path d="M1124.59 214.777C1126.57 243.167 1123.74 268.916 1117.77 287.531C1114.78 296.855 1111.1 304.086 1107.1 308.961C1103.12 313.822 1099.2 315.909 1095.6 316.161C1091.99 316.413 1087.82 314.892 1083.2 310.632C1078.56 306.361 1073.91 299.714 1069.65 290.896C1061.15 273.293 1054.76 248.188 1052.78 219.798C1050.79 191.408 1053.62 165.658 1059.59 147.044C1062.58 137.719 1066.26 130.489 1070.26 125.614C1074.25 120.752 1078.16 118.666 1081.77 118.414C1085.37 118.162 1089.54 119.683 1094.17 123.942C1098.81 128.213 1103.46 134.861 1107.71 143.679C1116.21 161.281 1122.6 186.386 1124.59 214.777Z" fill="#F87B52" stroke="#ED5F27" stroke-width="12"/>
<path d="M128.549 6C641.939 78.4427 925.863 80.2186 1424.55 6" stroke="black" stroke-width="10"/>
</svg>
