<svg width="1547" height="437" viewBox="0 0 1547 437" fill="none" xmlns="http://www.w3.org/2000/svg">
<path d="M475.038 327.128L436.409 308.032L435.254 309.735C436.238 310.643 437.567 311.861 439.138 313.273C442.613 316.397 447.254 320.462 451.949 324.255C456.681 328.079 461.331 331.515 464.858 333.471C466.186 334.208 467.181 334.634 467.86 334.84C469.256 330.858 472.224 328.502 475.038 327.128ZM468.628 334.993C468.628 334.993 468.623 334.993 468.614 334.994C468.623 334.994 468.628 334.994 468.628 334.993Z" fill="#F87B52" stroke="#ED5F27" stroke-width="6"/>
<path d="M423.612 254.037C416.352 256.192 421.414 288.994 433.065 305.298" stroke="#ED5F27" stroke-width="13"/>
<circle cx="434.759" cy="306.934" r="5.68765" transform="rotate(-14.4728 434.759 306.934)" fill="#F87B52" stroke="#ED5F27" stroke-width="6"/>
<rect x="411.213" y="61.0024" width="41.8093" height="20.6332" rx="5" transform="rotate(2 411.213 61.0024)" fill="#ED5F27"/>
<rect x="429.354" y="39.3604" width="7.05871" height="16.2893" transform="rotate(2 429.354 39.3604)" fill="#ED5F27"/>
<rect x="421.789" y="53.7656" width="21.7191" height="10.8596" rx="5" transform="rotate(2 421.789 53.7656)" fill="#ED5F27"/>
<path d="M551.979 183.273C550.102 237.014 494.578 280.666 425.359 278.249C356.139 275.832 303.795 228.413 305.672 174.671C307.548 120.93 363.072 77.2776 432.292 79.6948C501.512 82.112 553.856 129.531 551.979 183.273Z" fill="#F87B52" stroke="#ED5F27" stroke-width="12"/>
<path d="M513.994 181.946C512.051 237.579 471.403 279.857 424.816 278.23C378.229 276.603 340.629 231.593 342.572 175.96C344.514 120.327 385.163 78.049 431.749 79.6759C478.336 81.3027 515.936 126.313 513.994 181.946Z" fill="#F87B52" stroke="#ED5F27" stroke-width="12"/>
<path d="M464.613 180.222C463.618 208.726 458.1 234.094 450.201 252.022C446.245 261.003 441.819 267.824 437.321 272.266C432.835 276.695 428.711 278.367 425.087 278.24C421.464 278.114 417.466 276.158 413.3 271.427C409.123 266.683 405.184 259.569 401.863 250.334C395.235 231.898 391.5 206.207 392.495 177.704C393.491 149.2 399.009 123.832 406.907 105.904C410.863 96.923 415.289 90.1013 419.787 85.6601C424.273 81.231 428.397 79.5591 432.021 79.6856C435.645 79.8122 439.642 81.7677 443.808 86.499C447.985 91.243 451.925 98.3569 455.245 107.592C461.874 126.027 465.608 151.718 464.613 180.222Z" fill="#F87B52" stroke="#ED5F27" stroke-width="12"/>
<path d="M181.16 289.13L142.531 270.034L141.376 271.738C142.36 272.646 143.689 273.863 145.261 275.276C148.735 278.4 153.376 282.464 158.071 286.258C162.803 290.081 167.454 293.517 170.98 295.474C172.308 296.21 173.303 296.636 173.982 296.843C175.379 292.861 178.346 290.504 181.16 289.13ZM174.75 296.996C174.75 296.996 174.745 296.996 174.736 296.996C174.745 296.996 174.75 296.996 174.75 296.996Z" fill="#F87B52" stroke="#ED5F27" stroke-width="6"/>
<path d="M129.734 216.039C122.474 218.194 127.537 250.997 139.187 267.301" stroke="#ED5F27" stroke-width="13"/>
<circle cx="140.881" cy="268.937" r="5.68765" transform="rotate(-14.4728 140.881 268.937)" fill="#F87B52" stroke="#ED5F27" stroke-width="6"/>
<rect x="117.335" y="23.0049" width="41.8093" height="20.6332" rx="5" transform="rotate(2 117.335 23.0049)" fill="#ED5F27"/>
<rect x="135.347" y="8.3623" width="7" height="9" transform="rotate(2 135.347 8.3623)" fill="#ED5F27"/>
<rect x="127.911" y="15.7676" width="21.7191" height="10.8596" rx="5" transform="rotate(2 127.911 15.7676)" fill="#ED5F27"/>
<path d="M258.101 145.275C256.224 199.017 200.7 242.669 131.481 240.252C62.2608 237.835 9.91704 190.416 11.7937 136.674C13.6704 82.9321 69.1945 39.2801 138.414 41.6973C207.634 44.1145 259.978 91.5333 258.101 145.275Z" fill="#F87B52" stroke="#ED5F27" stroke-width="12"/>
<path d="M220.116 143.949C218.173 199.582 177.525 241.86 130.938 240.233C84.3516 238.606 46.7514 193.595 48.6941 137.962C50.6369 82.3296 91.2853 40.0515 137.872 41.6783C184.459 43.3052 222.059 88.3158 220.116 143.949Z" fill="#F87B52" stroke="#ED5F27" stroke-width="12"/>
<path d="M170.735 142.225C169.74 170.728 164.222 196.096 156.324 214.024C152.367 223.005 147.941 229.827 143.443 234.268C138.957 238.697 134.833 240.369 131.209 240.243C127.586 240.116 123.588 238.161 119.422 233.429C115.245 228.685 111.306 221.571 107.985 212.336C101.357 193.901 97.6221 168.21 98.6175 139.706C99.6128 111.202 105.131 85.8346 113.029 67.9062C116.986 58.9254 121.411 52.1037 125.909 47.6626C130.395 43.2334 134.52 41.5615 138.143 41.6881C141.767 41.8146 145.764 43.7701 149.93 48.5014C154.108 53.2455 158.047 60.3593 161.367 69.5942C167.996 88.0299 171.73 113.721 170.735 142.225Z" fill="#F87B52" stroke="#ED5F27" stroke-width="12"/>
<path d="M771.055 425.027C770.759 418.581 770.141 412.884 768.959 407.345C767.349 399.8 764.716 392.654 760.552 384.351L765.073 382.464C765.187 382.555 765.32 382.666 765.471 382.8C766.426 383.644 767.698 385.027 769.166 386.861C772.083 390.503 775.508 395.589 778.37 400.819C781.265 406.109 783.427 411.265 784.056 415.107C784.374 417.046 784.236 418.276 783.951 418.955C783.759 419.413 783.467 419.765 782.563 419.944C777.356 420.975 773.658 422.858 771.055 425.027ZM764.582 382.121C764.496 382.088 764.487 382.071 764.575 382.117C764.577 382.118 764.58 382.12 764.582 382.121Z" fill="#F8DC7A" stroke="#F8C04E" stroke-width="6"/>
<path d="M751.361 329.186C749.673 331.329 760.545 364.135 760.819 380.475" stroke="#F8C04E" stroke-width="13"/>
<circle cx="761.746" cy="380.83" r="5.69236" transform="rotate(17.5502 761.746 380.83)" fill="#F8DC7A" stroke="#F8C04E" stroke-width="6"/>
<rect x="736.464" y="134.98" width="41.832" height="20.6444" rx="5" transform="rotate(2 736.464 134.98)" fill="#F8C04E"/>
<rect x="756.478" y="61.3599" width="7" height="68" transform="rotate(2 756.478 61.3599)" fill="#F8C04E"/>
<rect x="747.045" y="127.74" width="21.7309" height="10.8654" rx="5" transform="rotate(2 747.045 127.74)" fill="#F8C04E"/>
<path d="M877.31 257.318C875.432 311.091 819.876 354.767 750.617 352.349C681.359 349.93 628.985 302.485 630.863 248.711C632.74 194.938 688.297 151.262 757.555 153.68C826.814 156.099 879.188 203.544 877.31 257.318Z" fill="#F8DC7A" stroke="#F8C04E" stroke-width="12"/>
<path d="M839.304 255.99C837.36 311.655 796.689 353.957 750.074 352.33C703.46 350.702 665.839 305.665 667.782 250C669.726 194.336 710.398 152.033 757.012 153.661C803.626 155.289 841.248 200.326 839.304 255.99Z" fill="#F8DC7A" stroke="#F8C04E" stroke-width="12"/>
<path d="M789.896 254.265C788.9 282.784 783.38 308.166 775.477 326.105C771.518 335.091 767.09 341.916 762.589 346.36C758.1 350.792 753.973 352.466 750.346 352.339C746.719 352.212 742.719 350.255 738.55 345.521C734.37 340.774 730.429 333.656 727.106 324.416C720.474 305.969 716.737 280.264 717.733 251.745C718.729 223.225 724.25 197.843 732.153 179.905C736.112 170.919 740.54 164.093 745.041 159.649C749.53 155.217 753.657 153.544 757.284 153.67C760.91 153.797 764.911 155.754 769.079 160.488C773.259 165.235 777.201 172.354 780.523 181.594C787.155 200.04 790.892 225.745 789.896 254.265Z" fill="#F8DC7A" stroke="#F8C04E" stroke-width="12"/>
<path d="M1385.99 329.13L1413.46 294.411L1417.75 296.677C1417.37 297.985 1416.84 299.78 1416.18 301.888C1414.77 306.377 1412.83 312.255 1410.63 317.874C1408.41 323.552 1406.01 328.74 1403.76 331.989C1402.61 333.649 1401.73 334.446 1401.22 334.719C1396.29 330.198 1390.43 329.127 1385.99 329.13ZM1401.06 334.787C1401.06 334.787 1401.06 334.787 1401.07 334.787C1401.06 334.787 1401.06 334.787 1401.06 334.787Z" fill="#F8DC7A" stroke="#F8C04E" stroke-width="6"/>
<path d="M1406.15 239.949C1407.38 240.988 1419.3 272.912 1415.61 291.247" stroke="#F8C04E" stroke-width="13"/>
<circle cx="1415.5" cy="292.025" r="5.69372" transform="rotate(-14.4728 1415.5 292.025)" fill="#F8DC7A" stroke="#F8C04E" stroke-width="6"/>
<rect x="1394.19" y="49.0166" width="41.8385" height="20.6476" rx="5" transform="rotate(2 1394.19 49.0166)" fill="#F8C04E"/>
<rect x="1413.03" y="8.37158" width="7" height="34" transform="rotate(2 1413.03 8.37158)" fill="#F8C04E"/>
<rect x="1404.77" y="41.7744" width="21.7343" height="10.8672" rx="5" transform="rotate(2 1404.77 41.7744)" fill="#F8C04E"/>
<path d="M1535.06 171.373C1533.18 225.155 1477.61 268.839 1408.34 266.42C1339.07 264.001 1286.69 216.547 1288.57 162.765C1290.45 108.983 1346.01 65.2991 1415.28 67.718C1484.55 70.137 1536.94 117.59 1535.06 171.373Z" fill="#F8DC7A" stroke="#F8C04E" stroke-width="12"/>
<path d="M1497.05 170.045C1495.1 225.718 1454.42 268.028 1407.8 266.4C1361.18 264.772 1323.55 219.728 1325.5 164.054C1327.44 108.381 1368.12 66.0706 1414.74 67.6986C1461.36 69.3267 1498.99 114.371 1497.05 170.045Z" fill="#F8DC7A" stroke="#F8C04E" stroke-width="12"/>
<path d="M1447.63 168.319C1446.63 196.843 1441.11 222.229 1433.21 240.171C1429.25 249.158 1424.82 255.985 1420.32 260.43C1415.83 264.863 1411.7 266.536 1408.07 266.41C1404.45 266.283 1400.44 264.325 1396.27 259.59C1392.09 254.842 1388.15 247.723 1384.83 238.481C1378.2 220.032 1374.46 194.323 1375.45 165.799C1376.45 137.275 1381.97 111.889 1389.88 93.9471C1393.84 84.9598 1398.26 78.1327 1402.77 73.688C1407.26 69.2553 1411.38 67.5815 1415.01 67.7082C1418.64 67.8348 1422.64 69.7925 1426.81 74.5277C1430.99 79.2756 1434.93 86.3949 1438.26 95.6365C1444.89 114.086 1448.63 139.795 1447.63 168.319Z" fill="#F8DC7A" stroke="#F8C04E" stroke-width="12"/>
<path d="M1117.34 378.177C1112.34 380.222 1108.72 382.777 1106.11 385.404C1105.94 379.416 1105.07 374.126 1103.2 369.172C1100.38 361.676 1095.39 355.238 1087.76 348.361L1093.05 344.85C1093.22 344.936 1093.42 345.046 1093.66 345.183C1094.83 345.865 1096.42 346.994 1098.27 348.496C1101.97 351.486 1106.46 355.729 1110.36 360.214C1114.32 364.764 1117.43 369.287 1118.67 372.851C1119.29 374.629 1119.31 375.813 1119.11 376.527C1118.96 377.066 1118.58 377.667 1117.34 378.177ZM1092.45 344.589C1092.45 344.588 1092.44 344.587 1092.44 344.587C1092.44 344.587 1092.45 344.587 1092.45 344.589Z" fill="#F87B52" stroke="#ED5F27" stroke-width="6"/>
<path d="M1078.57 291.169C1071.33 293.32 1076.38 326.053 1088 342.323" stroke="#ED5F27" stroke-width="13"/>
<circle cx="1089.7" cy="343.955" r="5.6693" transform="rotate(-14.4728 1089.7 343.955)" fill="#F87B52" stroke="#ED5F27" stroke-width="6"/>
<rect x="1066.81" y="98.9536" width="41.721" height="20.5896" rx="5" transform="rotate(2 1066.81 98.9536)" fill="#ED5F27"/>
<rect x="1086.23" y="50.3867" width="7" height="43" transform="rotate(2 1086.23 50.3867)" fill="#ED5F27"/>
<rect x="1077.36" y="91.7319" width="21.6732" height="10.8366" rx="5" transform="rotate(2 1077.36 91.7319)" fill="#ED5F27"/>
<path d="M1207.27 220.965C1205.39 274.584 1150 318.141 1080.93 315.729C1011.86 313.317 959.632 266.002 961.505 212.383C963.377 158.764 1018.78 115.207 1087.84 117.619C1156.91 120.031 1209.14 167.346 1207.27 220.965Z" fill="#F87B52" stroke="#ED5F27" stroke-width="12"/>
<path d="M1169.36 219.641C1167.42 275.152 1126.86 317.333 1080.39 315.71C1033.91 314.087 996.388 269.179 998.327 213.669C1000.27 158.159 1040.82 115.977 1087.3 117.6C1133.78 119.223 1171.3 164.131 1169.36 219.641Z" fill="#F87B52" stroke="#ED5F27" stroke-width="12"/>
<path d="M1120.09 217.921C1119.09 246.363 1113.59 271.676 1105.71 289.564C1101.76 298.525 1097.34 305.331 1092.85 309.761C1088.38 314.18 1084.27 315.846 1080.66 315.72C1077.04 315.593 1073.06 313.645 1068.9 308.925C1064.74 304.192 1060.81 297.095 1057.49 287.881C1050.88 269.486 1047.15 243.851 1048.15 215.409C1049.14 186.966 1054.64 161.654 1062.53 143.765C1066.47 134.804 1070.89 127.998 1075.38 123.568C1079.85 119.15 1083.96 117.484 1087.57 117.61C1091.19 117.736 1095.17 119.685 1099.33 124.404C1103.49 129.137 1107.42 136.234 1110.74 145.449C1117.35 163.843 1121.08 189.478 1120.09 217.921Z" fill="#F87B52" stroke="#ED5F27" stroke-width="12"/>
<path d="M123.158 5.41943C636.548 77.8622 920.472 79.638 1419.16 5.41943" stroke="black" stroke-width="10"/>
</svg>
