<svg width="1558" height="438" viewBox="0 0 1558 438" fill="none" xmlns="http://www.w3.org/2000/svg">
<path d="M477.717 327.436L438.323 309.974L437.24 311.725C438.261 312.591 439.64 313.751 441.269 315.097C444.872 318.073 449.679 321.939 454.528 325.533C459.416 329.155 464.207 332.393 467.812 334.2C469.17 334.88 470.182 335.265 470.869 335.442C472.097 331.405 474.963 328.927 477.717 327.436ZM471.642 335.563C471.642 335.563 471.637 335.563 471.628 335.564C471.638 335.564 471.642 335.563 471.642 335.563Z" fill="#F87B52" stroke="#ED5F27" stroke-width="6"/>
<path d="M423.731 256.316C416.552 258.723 422.755 291.329 434.968 307.216" stroke="#ED5F27" stroke-width="13"/>
<circle cx="436.718" cy="308.792" r="5.68765" transform="rotate(-16.4728 436.718 308.792)" fill="#F87B52" stroke="#ED5F27" stroke-width="6"/>
<rect x="421.182" y="61.064" width="41.8093" height="20.6332" rx="5" transform="rotate(4 421.182 61.064)" fill="#ED5F27"/>
<rect x="440.067" y="40.0679" width="7.05871" height="16.2893" transform="rotate(4 440.067 40.0679)" fill="#ED5F27"/>
<rect x="432.003" y="54.2002" width="21.7191" height="10.8596" rx="5" transform="rotate(4 432.003 54.2002)" fill="#ED5F27"/>
<path d="M557.595 188.172C553.844 241.816 496.83 283.503 427.737 278.672C358.644 273.84 307.987 224.624 311.738 170.98C315.489 117.337 372.503 75.6489 441.596 80.4804C510.689 85.3119 561.346 134.529 557.595 188.172Z" fill="#F87B52" stroke="#ED5F27" stroke-width="12"/>
<path d="M519.679 185.521C515.796 241.052 473.697 281.886 427.195 278.634C380.694 275.382 344.687 229.087 348.571 173.556C352.454 118.025 394.553 77.1909 441.054 80.4426C487.556 83.6943 523.562 129.99 519.679 185.521Z" fill="#F87B52" stroke="#ED5F27" stroke-width="12"/>
<path d="M470.389 182.074C468.399 210.526 462 235.686 453.48 253.328C449.213 262.165 444.552 268.828 439.901 273.109C435.263 277.379 431.083 278.906 427.466 278.653C423.849 278.4 419.923 276.307 415.924 271.433C411.915 266.546 408.227 259.299 405.231 249.954C399.249 231.298 396.413 205.492 398.403 177.041C400.393 148.589 406.792 123.429 415.312 105.787C419.579 96.9503 424.24 90.2871 428.891 86.0057C433.528 81.7358 437.708 80.2089 441.325 80.4618C444.942 80.7147 448.869 82.8085 452.868 87.6823C456.877 92.5693 460.565 99.8163 463.561 109.161C469.542 127.817 472.378 153.623 470.389 182.074Z" fill="#F87B52" stroke="#ED5F27" stroke-width="12"/>
<path d="M183.961 289.444L144.567 271.982L143.485 273.733C144.505 274.599 145.884 275.759 147.513 277.105C151.116 280.081 155.923 283.947 160.773 287.541C165.661 291.163 170.451 294.401 174.056 296.208C175.414 296.888 176.426 297.272 177.113 297.45C178.341 293.413 181.207 290.935 183.961 289.444ZM177.886 297.571C177.886 297.571 177.881 297.571 177.873 297.572C177.882 297.572 177.887 297.571 177.886 297.571Z" fill="#F87B52" stroke="#ED5F27" stroke-width="6"/>
<path d="M129.976 218.324C122.796 220.731 129 253.337 141.212 269.224" stroke="#ED5F27" stroke-width="13"/>
<circle cx="142.962" cy="270.8" r="5.68765" transform="rotate(-16.4728 142.962 270.8)" fill="#F87B52" stroke="#ED5F27" stroke-width="6"/>
<rect x="127.426" y="23.0723" width="41.8093" height="20.6332" rx="5" transform="rotate(4 127.426 23.0723)" fill="#ED5F27"/>
<rect x="145.938" y="9.06738" width="7" height="9" transform="rotate(4 145.938 9.06738)" fill="#ED5F27"/>
<rect x="138.248" y="16.2085" width="21.7191" height="10.8596" rx="5" transform="rotate(4 138.248 16.2085)" fill="#ED5F27"/>
<path d="M263.84 150.18C260.089 203.824 203.075 245.512 133.982 240.68C64.8885 235.849 14.2315 186.632 17.9826 132.988C21.7337 79.3449 78.7474 37.6572 147.841 42.4887C216.934 47.3202 267.591 96.5369 263.84 150.18Z" fill="#F87B52" stroke="#ED5F27" stroke-width="12"/>
<path d="M225.924 147.529C222.041 203.06 179.942 243.894 133.44 240.642C86.9385 237.391 50.932 191.095 54.8151 135.564C58.6982 80.0329 100.797 39.1992 147.299 42.4509C193.801 45.7026 229.807 91.998 225.924 147.529Z" fill="#F87B52" stroke="#ED5F27" stroke-width="12"/>
<path d="M176.633 144.083C174.644 172.534 168.244 197.694 159.725 215.336C155.457 224.173 150.796 230.836 146.146 235.118C141.508 239.388 137.328 240.915 133.711 240.662C130.094 240.409 126.167 238.315 122.169 233.441C118.16 228.554 114.471 221.307 111.475 211.962C105.494 193.306 102.658 167.501 104.648 139.049C106.637 110.597 113.037 85.4376 121.556 67.7957C125.824 58.9586 130.485 52.2954 135.135 48.014C139.773 43.7441 143.953 42.2172 147.57 42.4701C151.187 42.723 155.114 44.8168 159.112 49.6906C163.121 54.5776 166.81 61.8246 169.806 71.1697C175.787 89.8255 178.623 115.631 176.633 144.083Z" fill="#F87B52" stroke="#ED5F27" stroke-width="12"/>
<path d="M777.685 425.539C777.253 419.101 776.516 413.418 775.218 407.905C773.451 400.395 770.669 393.306 766.332 385.092L770.812 383.112C770.928 383.2 771.063 383.308 771.217 383.439C772.189 384.263 773.49 385.618 774.997 387.421C777.989 391.002 781.52 396.015 784.491 401.184C787.495 406.411 789.765 411.521 790.475 415.349C790.833 417.282 790.721 418.514 790.45 419.199C790.268 419.661 789.984 420.019 789.083 420.217C783.899 421.357 780.241 423.317 777.685 425.539ZM770.314 382.778C770.228 382.748 770.218 382.731 770.307 382.775C770.309 382.776 770.312 382.777 770.314 382.778Z" fill="#F8DC7A" stroke="#F8C04E" stroke-width="6"/>
<path d="M754.924 330.423C753.312 332.624 765.322 365.031 766.166 381.351" stroke="#F8C04E" stroke-width="13"/>
<circle cx="767.104" cy="381.673" r="5.69236" transform="rotate(15.5502 767.104 381.673)" fill="#F8DC7A" stroke="#F8C04E" stroke-width="6"/>
<rect x="744.484" y="134.939" width="41.832" height="20.6444" rx="5" transform="rotate(4 744.484 134.939)" fill="#F8C04E"/>
<rect x="767.055" y="62.0625" width="7" height="68" transform="rotate(4 767.055 62.0625)" fill="#F8C04E"/>
<rect x="755.312" y="128.072" width="21.7309" height="10.8654" rx="5" transform="rotate(4 755.312 128.072)" fill="#F8C04E"/>
<path d="M880.976 262.117C877.222 315.792 820.176 357.503 751.044 352.669C681.912 347.835 631.225 298.591 634.979 244.916C638.732 191.241 695.779 149.53 764.911 154.364C834.042 159.198 884.729 208.442 880.976 262.117Z" fill="#F8DC7A" stroke="#F8C04E" stroke-width="12"/>
<path d="M843.039 259.465C839.153 315.027 797.03 355.885 750.501 352.631C703.972 349.378 667.945 303.055 671.831 247.493C675.716 191.93 717.839 151.072 764.368 154.326C810.897 157.58 846.924 203.902 843.039 259.465Z" fill="#F8DC7A" stroke="#F8C04E" stroke-width="12"/>
<path d="M793.722 256.016C791.731 284.483 785.328 309.657 776.804 327.309C772.534 336.151 767.87 342.818 763.217 347.102C758.576 351.375 754.393 352.903 750.773 352.65C747.153 352.397 743.223 350.301 739.222 345.425C735.21 340.535 731.52 333.283 728.522 323.933C722.537 305.266 719.7 279.446 721.691 250.979C723.681 222.512 730.085 197.338 738.609 179.686C742.879 170.844 747.542 164.177 752.196 159.893C756.836 155.62 761.02 154.092 764.64 154.345C768.26 154.598 772.189 156.693 776.19 161.57C780.202 166.46 783.893 173.712 786.891 183.062C792.875 201.729 795.712 227.549 793.722 256.016Z" fill="#F8DC7A" stroke="#F8C04E" stroke-width="12"/>
<path d="M1388.78 329.933L1414.77 294.094L1419.15 296.178C1418.83 297.501 1418.37 299.317 1417.8 301.451C1416.59 305.995 1414.89 311.949 1412.92 317.655C1410.94 323.421 1408.77 328.705 1406.65 332.045C1405.57 333.752 1404.73 334.585 1404.23 334.879C1399.11 330.569 1393.21 329.744 1388.78 329.933ZM1404.08 334.954C1404.08 334.954 1404.08 334.954 1404.08 334.953C1404.08 334.954 1404.08 334.954 1404.08 334.954Z" fill="#F8DC7A" stroke="#F8C04E" stroke-width="6"/>
<path d="M1405.71 239.992C1406.98 240.988 1420 272.476 1416.96 290.928" stroke="#F8C04E" stroke-width="13"/>
<circle cx="1416.87" cy="291.71" r="5.69372" transform="rotate(-16.4728 1416.87 291.71)" fill="#F8DC7A" stroke="#F8C04E" stroke-width="6"/>
<rect x="1404.06" y="49.0713" width="41.8385" height="20.6476" rx="5" transform="rotate(4 1404.06 49.0713)" fill="#F8C04E"/>
<rect x="1424.31" y="9.10938" width="7" height="34" transform="rotate(4 1424.31 9.10938)" fill="#F8C04E"/>
<rect x="1414.89" y="42.2031" width="21.7343" height="10.8672" rx="5" transform="rotate(4 1414.89 42.2031)" fill="#F8C04E"/>
<path d="M1540.57 176.269C1536.82 229.953 1479.76 271.671 1410.62 266.836C1341.48 262.001 1290.78 212.748 1294.54 159.064C1298.29 105.38 1355.35 63.6625 1424.49 68.4974C1493.63 73.3324 1544.33 122.585 1540.57 176.269Z" fill="#F8DC7A" stroke="#F8C04E" stroke-width="12"/>
<path d="M1502.63 173.616C1498.75 229.188 1456.62 270.052 1410.08 266.798C1363.54 263.544 1327.51 217.214 1331.4 161.642C1335.28 106.07 1377.41 65.2056 1423.95 68.4598C1470.49 71.714 1506.52 118.044 1502.63 173.616Z" fill="#F8DC7A" stroke="#F8C04E" stroke-width="12"/>
<path d="M1453.31 170.167C1451.32 198.639 1444.91 223.816 1436.39 241.471C1432.12 250.315 1427.45 256.983 1422.8 261.268C1418.16 265.541 1413.97 267.07 1410.35 266.817C1406.73 266.564 1402.8 264.468 1398.8 259.59C1394.78 254.699 1391.09 247.446 1388.1 238.094C1382.11 219.425 1379.27 193.601 1381.26 165.129C1383.25 136.657 1389.66 111.479 1398.18 93.8242C1402.45 84.9806 1407.12 78.3123 1411.77 74.0274C1416.41 69.754 1420.6 68.2253 1424.22 68.4785C1427.84 68.7317 1431.77 70.8278 1435.77 75.7056C1439.79 80.5965 1443.48 87.8491 1446.47 97.2011C1452.46 115.871 1455.3 141.695 1453.31 170.167Z" fill="#F8DC7A" stroke="#F8C04E" stroke-width="12"/>
<path d="M1120.85 376.293C1116.27 379.152 1113.13 382.28 1111 385.31C1109.82 379.435 1108.07 374.368 1105.4 369.799C1101.36 362.886 1095.36 357.379 1086.68 351.887L1091.3 347.534C1091.48 347.591 1091.7 347.665 1091.96 347.761C1093.22 348.236 1094.98 349.081 1097.06 350.249C1101.21 352.573 1106.35 355.998 1110.95 359.762C1115.62 363.58 1119.44 367.516 1121.27 370.819C1122.18 372.468 1122.4 373.63 1122.32 374.368C1122.26 374.925 1122 375.581 1120.85 376.293ZM1090.66 347.378C1090.66 347.378 1090.66 347.378 1090.66 347.378C1090.66 347.378 1090.66 347.378 1090.66 347.378Z" fill="#F87B52" stroke="#ED5F27" stroke-width="6"/>
<path d="M1077.93 293.021C1070.76 295.423 1076.96 327.96 1089.14 343.814" stroke="#ED5F27" stroke-width="13"/>
<circle cx="1090.89" cy="345.386" r="5.6693" transform="rotate(-16.4728 1090.89 345.386)" fill="#F87B52" stroke="#ED5F27" stroke-width="6"/>
<rect x="1076.6" y="99.0073" width="41.721" height="20.5896" rx="5" transform="rotate(4 1076.6 99.0073)" fill="#ED5F27"/>
<rect x="1097.71" y="51.1484" width="7" height="43" transform="rotate(4 1097.71 51.1484)" fill="#ED5F27"/>
<rect x="1087.4" y="92.1587" width="21.6732" height="10.8366" rx="5" transform="rotate(4 1087.4 92.1587)" fill="#ED5F27"/>
<path d="M1212.71 225.847C1208.97 279.368 1152.08 320.964 1083.14 316.144C1014.2 311.323 963.655 262.214 967.398 208.693C971.141 155.172 1028.03 113.575 1096.97 118.396C1165.91 123.217 1216.45 172.326 1212.71 225.847Z" fill="#F87B52" stroke="#ED5F27" stroke-width="12"/>
<path d="M1174.87 223.201C1171 278.61 1128.99 319.35 1082.6 316.106C1036.21 312.862 1000.28 266.672 1004.15 211.263C1008.03 155.854 1050.03 115.114 1096.43 118.358C1142.82 121.603 1178.75 167.793 1174.87 223.201Z" fill="#F87B52" stroke="#ED5F27" stroke-width="12"/>
<path d="M1125.69 219.761C1123.7 248.152 1117.32 273.257 1108.82 290.86C1104.56 299.677 1099.91 306.325 1095.27 310.596C1090.64 314.855 1086.48 316.377 1082.87 316.125C1079.27 315.873 1075.35 313.786 1071.36 308.924C1067.36 304.049 1063.68 296.819 1060.69 287.494C1054.72 268.88 1051.89 243.13 1053.88 214.74C1055.87 186.35 1062.25 161.245 1070.75 143.642C1075.01 134.824 1079.66 128.177 1084.3 123.906C1088.93 119.646 1093.09 118.125 1096.7 118.377C1100.3 118.629 1104.22 120.716 1108.21 125.578C1112.21 130.453 1115.89 137.683 1118.88 147.007C1124.84 165.622 1127.67 191.371 1125.69 219.761Z" fill="#F87B52" stroke="#ED5F27" stroke-width="12"/>
<path d="M128.551 6C641.941 78.4427 925.865 80.2186 1424.55 6" stroke="black" stroke-width="10"/>
</svg>
