<svg width="1547" height="442" viewBox="0 0 1547 442" fill="none" xmlns="http://www.w3.org/2000/svg">
<path d="M479.959 327.801L443.863 304.265L442.515 305.82C443.384 306.838 444.559 308.204 445.953 309.793C449.033 313.307 453.16 317.892 457.373 322.215C461.619 326.572 465.83 330.534 469.1 332.894C470.331 333.783 471.268 334.324 471.918 334.609C473.777 330.82 477.002 328.832 479.959 327.801ZM472.663 334.852C472.663 334.852 472.658 334.851 472.649 334.851C472.658 334.852 472.663 334.852 472.663 334.852Z" fill="#F87B52" stroke="#ED5F27" stroke-width="6"/>
<path d="M434.16 250.427C426.768 252.07 429.53 285.146 440.014 302.223" stroke="#ED5F27" stroke-width="13"/>
<circle cx="441.59" cy="303.972" r="5.68765" transform="rotate(-10.4728 441.59 303.972)" fill="#F87B52" stroke="#ED5F27" stroke-width="6"/>
<rect x="402.099" y="62.5186" width="41.8093" height="20.6332" rx="5" transform="rotate(-2 402.099 62.5186)" fill="#ED5F27"/>
<rect x="418.687" y="39.6641" width="7.05871" height="16.2893" transform="rotate(-2 418.687 39.6641)" fill="#ED5F27"/>
<rect x="412.144" y="54.5615" width="21.7191" height="10.8596" rx="5" transform="rotate(-2 412.144 54.5615)" fill="#ED5F27"/>
<path d="M551.052 174.672C552.928 228.414 500.585 275.833 431.365 278.25C362.145 280.667 306.621 237.015 304.744 183.273C302.868 129.531 355.211 82.1125 424.431 79.6953C493.651 77.2781 549.175 120.93 551.052 174.672Z" fill="#F87B52" stroke="#ED5F27" stroke-width="12"/>
<path d="M513.066 175.999C515.009 231.632 477.409 276.642 430.822 278.269C384.235 279.896 343.587 237.618 341.644 181.985C339.702 126.352 377.302 81.3416 423.888 79.7148C470.475 78.0879 511.124 120.366 513.066 175.999Z" fill="#F87B52" stroke="#ED5F27" stroke-width="12"/>
<path d="M463.686 177.723C464.681 206.226 460.946 231.917 454.318 250.353C450.997 259.588 447.058 266.702 442.881 271.446C438.715 276.177 434.717 278.132 431.094 278.259C427.47 278.385 423.346 276.714 418.86 272.284C414.362 267.843 409.936 261.022 405.98 252.041C398.081 234.112 392.563 208.745 391.568 180.241C390.573 151.737 394.308 126.046 400.936 107.611C404.256 98.3757 408.196 91.2619 412.373 86.5178C416.539 81.7865 420.536 79.831 424.16 79.7045C427.784 79.578 431.908 81.2498 436.394 85.679C440.892 90.1201 445.318 96.9419 449.274 105.923C457.173 123.851 462.69 149.219 463.686 177.723Z" fill="#F87B52" stroke="#ED5F27" stroke-width="12"/>
<path d="M185.837 289.805L149.742 266.269L148.393 267.824C149.262 268.842 150.438 270.208 151.831 271.797C154.911 275.311 159.038 279.896 163.251 284.219C167.497 288.576 171.708 292.538 174.978 294.898C176.21 295.787 177.147 296.328 177.797 296.613C179.655 292.824 182.88 290.836 185.837 289.805ZM178.541 296.856C178.541 296.856 178.536 296.855 178.527 296.855C178.537 296.856 178.541 296.856 178.541 296.856Z" fill="#F87B52" stroke="#ED5F27" stroke-width="6"/>
<path d="M140.039 212.43C132.647 214.073 135.408 247.149 145.893 264.226" stroke="#ED5F27" stroke-width="13"/>
<circle cx="147.469" cy="265.975" r="5.68765" transform="rotate(-10.4728 147.469 265.975)" fill="#F87B52" stroke="#ED5F27" stroke-width="6"/>
<rect x="107.977" y="24.5215" width="41.8093" height="20.6332" rx="5" transform="rotate(-2 107.977 24.5215)" fill="#ED5F27"/>
<rect x="124.924" y="8.6582" width="7" height="9" transform="rotate(-2 124.924 8.6582)" fill="#ED5F27"/>
<rect x="118.022" y="16.5645" width="21.7191" height="10.8596" rx="5" transform="rotate(-2 118.022 16.5645)" fill="#ED5F27"/>
<path d="M256.93 136.675C258.806 190.417 206.463 237.835 137.243 240.253C68.023 242.67 12.499 199.018 10.6223 145.276C8.74558 91.5343 61.0893 44.1154 130.309 41.6982C199.529 39.281 255.053 82.933 256.93 136.675Z" fill="#F87B52" stroke="#ED5F27" stroke-width="12"/>
<path d="M218.944 138.001C220.887 193.634 183.287 238.644 136.7 240.271C90.1133 241.898 49.4649 199.62 47.5222 143.987C45.5794 88.3541 83.1796 43.3435 129.766 41.7167C176.353 40.0899 217.002 82.3679 218.944 138.001Z" fill="#F87B52" stroke="#ED5F27" stroke-width="12"/>
<path d="M169.563 139.725C170.559 168.229 166.824 193.92 160.195 212.356C156.875 221.591 152.936 228.704 148.758 233.449C144.592 238.18 140.595 240.135 136.971 240.262C133.348 240.388 129.223 238.717 124.737 234.287C120.239 229.846 115.814 223.025 111.857 214.044C103.959 196.115 98.4409 170.748 97.4455 142.244C96.4502 113.74 100.185 88.0492 106.814 69.6135C110.134 60.3787 114.073 53.2648 118.25 48.5208C122.416 43.7894 126.414 41.834 130.038 41.7074C133.661 41.5809 137.785 43.2528 142.271 47.6819C146.769 52.123 151.195 58.9448 155.152 67.9255C163.05 85.8539 168.568 111.222 169.563 139.725Z" fill="#F87B52" stroke="#ED5F27" stroke-width="12"/>
<path d="M772.719 424.406C773.008 417.959 772.909 412.23 772.234 406.607C771.314 398.947 769.34 391.592 765.946 382.945L770.619 381.477C770.724 381.577 770.846 381.7 770.985 381.847C771.859 382.774 773 384.266 774.297 386.226C776.872 390.118 779.821 395.493 782.197 400.961C784.601 406.491 786.287 411.822 786.566 415.705C786.706 417.665 786.457 418.878 786.112 419.528C785.879 419.966 785.557 420.291 784.639 420.387C779.361 420.942 775.507 422.482 772.719 424.406ZM770.161 381.09C770.078 381.05 770.071 381.032 770.154 381.086C770.156 381.087 770.159 381.088 770.161 381.09Z" fill="#F8DC7A" stroke="#F8C04E" stroke-width="6"/>
<path d="M760.157 327.439C758.323 329.46 766.88 362.945 766.014 379.264" stroke="#F8C04E" stroke-width="13"/>
<circle cx="766.913" cy="379.681" r="5.69236" transform="rotate(21.5502 766.913 379.681)" fill="#F8DC7A" stroke="#F8C04E" stroke-width="6"/>
<rect x="729.752" y="136.521" width="41.832" height="20.6444" rx="5" transform="rotate(-2 729.752 136.521)" fill="#F8C04E"/>
<rect x="744.582" y="61.6836" width="7" height="68" transform="rotate(-2 744.582 61.6836)" fill="#F8C04E"/>
<rect x="739.804" y="128.56" width="21.7309" height="10.8654" rx="5" transform="rotate(-2 739.804 128.56)" fill="#F8C04E"/>
<path d="M878.789 248.735C880.667 302.508 828.293 349.954 759.035 352.372C689.776 354.791 634.22 311.114 632.342 257.341C630.464 203.568 682.838 156.122 752.097 153.704C821.355 151.285 876.912 194.962 878.789 248.735Z" fill="#F8DC7A" stroke="#F8C04E" stroke-width="12"/>
<path d="M840.783 250.062C842.727 305.727 805.106 350.764 758.492 352.391C711.877 354.019 671.206 311.716 669.262 256.052C667.318 200.388 704.94 155.351 751.554 153.723C798.168 152.095 838.84 194.398 840.783 250.062Z" fill="#F8DC7A" stroke="#F8C04E" stroke-width="12"/>
<path d="M791.376 251.787C792.372 280.306 788.635 306.012 782.003 324.458C778.68 333.698 774.739 340.816 770.559 345.563C766.39 350.297 762.39 352.254 758.763 352.381C755.136 352.508 751.009 350.834 746.52 346.402C742.02 341.959 737.591 335.133 733.632 326.147C725.729 308.208 720.209 282.826 719.213 254.307C718.217 225.787 721.954 200.082 728.586 181.636C731.908 172.396 735.85 165.278 740.03 160.531C744.198 155.796 748.199 153.839 751.825 153.712C755.452 153.586 759.579 155.259 764.068 159.691C768.569 164.135 772.997 170.961 776.956 179.947C784.859 197.885 790.38 223.267 791.376 251.787Z" fill="#F8DC7A" stroke="#F8C04E" stroke-width="12"/>
<path d="M1391.29 328.122L1421.57 295.823L1425.66 298.441C1425.17 299.712 1424.48 301.456 1423.65 303.502C1421.88 307.858 1419.45 313.552 1416.78 318.967C1414.09 324.439 1411.28 329.409 1408.76 332.458C1407.47 334.016 1406.53 334.737 1406 334.965C1401.46 330.048 1395.72 328.49 1391.29 328.122ZM1405.84 335.021C1405.84 335.021 1405.84 335.021 1405.84 335.02C1405.84 335.021 1405.84 335.021 1405.84 335.021Z" fill="#F8DC7A" stroke="#F8C04E" stroke-width="6"/>
<path d="M1417.8 240.807C1418.95 241.929 1428.61 274.607 1423.66 292.64" stroke="#F8C04E" stroke-width="13"/>
<circle cx="1423.49" cy="293.408" r="5.69372" transform="rotate(-10.4728 1423.49 293.408)" fill="#F8DC7A" stroke="#F8C04E" stroke-width="6"/>
<rect x="1385.28" y="50.5322" width="41.8385" height="20.6476" rx="5" transform="rotate(-2 1385.28 50.5322)" fill="#F8C04E"/>
<rect x="1401.24" y="8.67188" width="7" height="34" transform="rotate(-2 1401.24 8.67188)" fill="#F8C04E"/>
<rect x="1395.33" y="42.5693" width="21.7343" height="10.8672" rx="5" transform="rotate(-2 1395.33 42.5693)" fill="#F8C04E"/>
<path d="M1534.34 162.764C1536.22 216.546 1483.83 263.999 1414.56 266.418C1345.29 268.837 1289.73 225.154 1287.85 171.371C1285.97 117.589 1338.35 70.1355 1407.62 67.7166C1476.89 65.2976 1532.46 108.981 1534.34 162.764Z" fill="#F8DC7A" stroke="#F8C04E" stroke-width="12"/>
<path d="M1496.33 164.09C1498.27 219.764 1460.64 264.809 1414.02 266.437C1367.4 268.065 1326.72 225.755 1324.78 170.081C1322.83 114.408 1360.46 69.3631 1407.08 67.735C1453.7 66.1069 1494.38 108.417 1496.33 164.09Z" fill="#F8DC7A" stroke="#F8C04E" stroke-width="12"/>
<path d="M1446.91 165.817C1447.91 194.341 1444.17 220.05 1437.54 238.499C1434.21 247.741 1430.27 254.86 1426.09 259.608C1421.92 264.343 1417.92 266.301 1414.29 266.428C1410.66 266.554 1406.54 264.88 1402.05 260.448C1397.54 256.003 1393.12 249.176 1389.16 240.189C1381.25 222.247 1375.73 196.861 1374.73 168.337C1373.74 139.813 1377.48 114.104 1384.11 95.6543C1387.43 86.4127 1391.37 79.2933 1395.55 74.5454C1399.72 69.8103 1403.73 67.8526 1407.35 67.7259C1410.98 67.5993 1415.11 69.273 1419.6 73.7058C1424.1 78.1505 1428.53 84.9776 1432.49 93.9648C1440.39 111.906 1445.91 137.292 1446.91 165.817Z" fill="#F8DC7A" stroke="#F8C04E" stroke-width="12"/>
<path d="M1122.72 378.584C1117.52 380.041 1113.63 382.163 1110.73 384.472C1111.25 378.504 1111 373.15 1109.71 368.014C1107.77 360.244 1103.56 353.275 1096.77 345.567L1102.43 342.686C1102.59 342.792 1102.77 342.924 1102.99 343.087C1104.07 343.899 1105.52 345.203 1107.19 346.909C1110.53 350.304 1114.5 355.035 1117.86 359.939C1121.27 364.913 1123.83 369.763 1124.65 373.446C1125.06 375.284 1124.96 376.463 1124.67 377.148C1124.46 377.666 1124.02 378.221 1122.72 378.584ZM1101.86 342.358C1101.85 342.356 1101.85 342.356 1101.85 342.356C1101.85 342.356 1101.85 342.356 1101.86 342.358Z" fill="#F87B52" stroke="#ED5F27" stroke-width="6"/>
<path d="M1090.65 288.386C1083.27 290.026 1086.03 323.032 1096.49 340.072" stroke="#ED5F27" stroke-width="13"/>
<circle cx="1098.07" cy="341.819" r="5.6693" transform="rotate(-10.4728 1098.07 341.819)" fill="#F87B52" stroke="#ED5F27" stroke-width="6"/>
<rect x="1058.05" y="100.467" width="41.721" height="20.5896" rx="5" transform="rotate(-2 1058.05 100.467)" fill="#ED5F27"/>
<rect x="1074.04" y="50.6631" width="7" height="43" transform="rotate(-2 1074.04 50.6631)" fill="#ED5F27"/>
<rect x="1068.07" y="92.5264" width="21.6732" height="10.8366" rx="5" transform="rotate(-2 1068.07 92.5264)" fill="#ED5F27"/>
<path d="M1206.68 212.383C1208.55 266.002 1156.32 313.317 1087.25 315.729C1018.19 318.141 962.787 274.584 960.915 220.965C959.042 167.346 1011.27 120.031 1080.34 117.619C1149.41 115.207 1204.8 158.764 1206.68 212.383Z" fill="#F87B52" stroke="#ED5F27" stroke-width="12"/>
<path d="M1168.77 213.707C1170.71 269.217 1133.19 314.125 1086.71 315.748C1040.23 317.371 999.675 275.19 997.737 219.68C995.798 164.17 1033.32 119.262 1079.79 117.639C1126.27 116.015 1166.83 158.197 1168.77 213.707Z" fill="#F87B52" stroke="#ED5F27" stroke-width="12"/>
<path d="M1119.49 215.427C1120.49 243.87 1116.76 269.505 1110.15 287.899C1106.83 297.114 1102.9 304.211 1098.74 308.944C1094.58 313.663 1090.6 315.612 1086.98 315.738C1083.37 315.864 1079.26 314.198 1074.79 309.78C1070.3 305.35 1065.88 298.544 1061.94 289.583C1054.05 271.694 1048.55 246.382 1047.55 217.939C1046.56 189.497 1050.29 163.862 1056.9 145.467C1060.22 136.253 1064.15 129.156 1068.31 124.423C1072.47 119.703 1076.45 117.755 1080.07 117.629C1083.68 117.502 1087.79 119.168 1092.26 123.587C1096.75 128.017 1101.17 134.823 1105.11 143.784C1113 161.672 1118.5 186.985 1119.49 215.427Z" fill="#F87B52" stroke="#ED5F27" stroke-width="12"/>
<path d="M123.111 5.41895C636.501 77.8617 920.425 79.6375 1419.11 5.41895" stroke="black" stroke-width="10"/>
</svg>
