<svg width="1547" height="441" viewBox="0 0 1547 441" fill="none" xmlns="http://www.w3.org/2000/svg">
<path d="M480.365 327.382L444.269 303.846L442.92 305.401C443.789 306.419 444.965 307.785 446.358 309.374C449.439 312.888 453.565 317.473 457.778 321.796C462.024 326.153 466.235 330.115 469.505 332.475C470.737 333.364 471.674 333.905 472.324 334.19C474.182 330.402 477.408 328.413 480.365 327.382ZM473.068 334.433C473.068 334.433 473.064 334.432 473.055 334.432C473.064 334.433 473.069 334.433 473.068 334.433Z" fill="#F87B52" stroke="#ED5F27" stroke-width="6"/>
<path d="M434.566 250.008C427.174 251.651 429.935 284.727 440.42 301.804" stroke="#ED5F27" stroke-width="13"/>
<circle cx="441.996" cy="303.553" r="5.68765" transform="rotate(-10.4728 441.996 303.553)" fill="#F87B52" stroke="#ED5F27" stroke-width="6"/>
<rect x="402.505" y="62.0996" width="41.8093" height="20.6332" rx="5" transform="rotate(-2 402.505 62.0996)" fill="#ED5F27"/>
<rect x="419.093" y="39.2451" width="7.05871" height="16.2893" transform="rotate(-2 419.093 39.2451)" fill="#ED5F27"/>
<rect x="412.55" y="54.1426" width="21.7191" height="10.8596" rx="5" transform="rotate(-2 412.55 54.1426)" fill="#ED5F27"/>
<path d="M551.458 174.253C553.334 227.995 500.99 275.414 431.771 277.831C362.551 280.248 307.027 236.596 305.15 182.854C303.273 129.112 355.617 81.6936 424.837 79.2764C494.057 76.8592 549.581 120.511 551.458 174.253Z" fill="#F87B52" stroke="#ED5F27" stroke-width="12"/>
<path d="M513.472 175.58C515.415 231.213 477.815 276.223 431.228 277.85C384.641 279.477 343.993 237.199 342.05 181.566C340.107 125.933 377.707 80.9227 424.294 79.2958C470.881 77.669 511.529 119.947 513.472 175.58Z" fill="#F87B52" stroke="#ED5F27" stroke-width="12"/>
<path d="M464.091 177.304C465.087 205.807 461.352 231.498 454.724 249.934C451.403 259.169 447.464 266.283 443.287 271.027C439.121 275.758 435.123 277.713 431.499 277.84C427.876 277.967 423.752 276.295 419.266 271.866C414.768 267.424 410.342 260.603 406.385 251.622C398.487 233.693 392.969 208.326 391.974 179.822C390.978 151.318 394.713 125.627 401.342 107.192C404.662 97.9568 408.601 90.8429 412.779 86.0989C416.945 81.3676 420.942 79.4121 424.566 79.2856C428.189 79.159 432.314 80.8309 436.8 85.26C441.298 89.7012 445.723 96.5229 449.68 105.504C457.578 123.432 463.096 148.8 464.091 177.304Z" fill="#F87B52" stroke="#ED5F27" stroke-width="12"/>
<path d="M186.243 289.386L150.147 265.85L148.799 267.405C149.668 268.423 150.844 269.789 152.237 271.378C155.317 274.892 159.444 279.477 163.657 283.8C167.903 288.157 172.114 292.119 175.384 294.479C176.615 295.368 177.553 295.909 178.202 296.194C180.061 292.405 183.286 290.417 186.243 289.386ZM178.947 296.437C178.947 296.437 178.942 296.436 178.933 296.436C178.942 296.437 178.947 296.437 178.947 296.437Z" fill="#F87B52" stroke="#ED5F27" stroke-width="6"/>
<path d="M140.444 212.011C133.052 213.654 135.814 246.73 146.298 263.807" stroke="#ED5F27" stroke-width="13"/>
<circle cx="147.875" cy="265.556" r="5.68765" transform="rotate(-10.4728 147.875 265.556)" fill="#F87B52" stroke="#ED5F27" stroke-width="6"/>
<rect x="108.383" y="24.1025" width="41.8093" height="20.6332" rx="5" transform="rotate(-2 108.383 24.1025)" fill="#ED5F27"/>
<rect x="125.33" y="8.23926" width="7" height="9" transform="rotate(-2 125.33 8.23926)" fill="#ED5F27"/>
<rect x="118.428" y="16.1455" width="21.7191" height="10.8596" rx="5" transform="rotate(-2 118.428 16.1455)" fill="#ED5F27"/>
<path d="M257.335 136.256C259.212 189.998 206.868 237.417 137.649 239.834C68.4288 242.251 12.9048 198.599 11.028 144.857C9.15134 91.1153 61.4951 43.6965 130.715 41.2793C199.935 38.8621 255.459 82.5141 257.335 136.256Z" fill="#F87B52" stroke="#ED5F27" stroke-width="12"/>
<path d="M219.35 137.582C221.293 193.215 183.693 238.225 137.106 239.852C90.5191 241.479 49.8707 199.201 47.9279 143.568C45.9852 87.9352 83.5854 42.9246 130.172 41.2978C176.759 39.6709 217.407 81.949 219.35 137.582Z" fill="#F87B52" stroke="#ED5F27" stroke-width="12"/>
<path d="M169.969 139.307C170.964 167.81 167.229 193.501 160.601 211.937C157.281 221.172 153.341 228.286 149.164 233.03C144.998 237.761 141.001 239.716 137.377 239.843C133.753 239.969 129.629 238.298 125.143 233.868C120.645 229.427 116.219 222.606 112.263 213.625C104.364 195.696 98.8467 170.329 97.8513 141.825C96.8559 113.321 100.591 87.6303 107.219 69.1946C110.54 59.9597 114.479 52.8459 118.656 48.1018C122.822 43.3705 126.82 41.415 130.443 41.2885C134.067 41.1619 138.191 42.8338 142.677 47.263C147.175 51.7041 151.601 58.5258 155.557 67.5066C163.456 85.435 168.974 110.803 169.969 139.307Z" fill="#F87B52" stroke="#ED5F27" stroke-width="12"/>
<path d="M773.125 423.987C773.414 417.54 773.314 411.811 772.639 406.188C771.72 398.528 769.745 391.173 766.351 382.527L771.024 381.058C771.13 381.158 771.252 381.281 771.391 381.428C772.265 382.355 773.406 383.847 774.702 385.807C777.277 389.699 780.227 395.074 782.603 400.542C785.007 406.072 786.693 411.403 786.971 415.286C787.112 417.246 786.863 418.459 786.518 419.109C786.285 419.548 785.962 419.872 785.045 419.968C779.767 420.523 775.913 422.063 773.125 423.987ZM770.567 380.671C770.484 380.631 770.476 380.613 770.56 380.667C770.562 380.668 770.564 380.669 770.567 380.671Z" fill="#F8DC7A" stroke="#F8C04E" stroke-width="6"/>
<path d="M760.563 327.02C758.729 329.041 767.286 362.526 766.42 378.845" stroke="#F8C04E" stroke-width="13"/>
<circle cx="767.319" cy="379.262" r="5.69236" transform="rotate(21.5502 767.319 379.262)" fill="#F8DC7A" stroke="#F8C04E" stroke-width="6"/>
<rect x="730.158" y="136.102" width="41.832" height="20.6444" rx="5" transform="rotate(-2 730.158 136.102)" fill="#F8C04E"/>
<rect x="744.988" y="61.2646" width="7" height="68" transform="rotate(-2 744.988 61.2646)" fill="#F8C04E"/>
<rect x="740.209" y="128.141" width="21.7309" height="10.8654" rx="5" transform="rotate(-2 740.209 128.141)" fill="#F8C04E"/>
<path d="M879.195 248.316C881.073 302.089 828.699 349.535 759.44 351.953C690.182 354.372 634.626 310.695 632.748 256.922C630.87 203.149 683.244 155.703 752.503 153.285C821.761 150.866 877.317 194.543 879.195 248.316Z" fill="#F8DC7A" stroke="#F8C04E" stroke-width="12"/>
<path d="M841.189 249.643C843.133 305.308 805.512 350.345 758.897 351.972C712.283 353.6 671.612 311.297 669.668 255.633C667.724 199.969 705.345 154.932 751.96 153.304C798.574 151.676 839.245 193.979 841.189 249.643Z" fill="#F8DC7A" stroke="#F8C04E" stroke-width="12"/>
<path d="M791.782 251.368C792.778 279.887 789.041 305.593 782.408 324.039C779.086 333.279 775.145 340.397 770.965 345.144C766.796 349.878 762.796 351.835 759.169 351.962C755.542 352.089 751.415 350.415 746.926 345.983C742.425 341.54 737.997 334.714 734.038 325.728C726.135 307.789 720.614 282.407 719.618 253.888C718.622 225.368 722.359 199.663 728.992 181.217C732.314 171.977 736.255 164.859 740.435 160.112C744.604 155.377 748.604 153.42 752.231 153.294C755.858 153.167 759.985 154.84 764.474 159.272C768.975 163.716 773.403 170.542 777.362 179.528C785.265 197.466 790.786 222.848 791.782 251.368Z" fill="#F8DC7A" stroke="#F8C04E" stroke-width="12"/>
<path d="M1391.7 327.703L1421.98 295.405L1426.06 298.022C1425.57 299.293 1424.89 301.037 1424.06 303.083C1422.28 307.439 1419.85 313.133 1417.19 318.548C1414.5 324.02 1411.68 328.99 1409.16 332.039C1407.88 333.597 1406.94 334.318 1406.41 334.547C1401.87 329.629 1396.12 328.071 1391.7 327.703ZM1406.24 334.602C1406.24 334.602 1406.24 334.602 1406.25 334.601C1406.24 334.602 1406.24 334.602 1406.24 334.602Z" fill="#F8DC7A" stroke="#F8C04E" stroke-width="6"/>
<path d="M1418.21 240.388C1419.36 241.511 1429.02 274.188 1424.06 292.221" stroke="#F8C04E" stroke-width="13"/>
<circle cx="1423.9" cy="292.989" r="5.69372" transform="rotate(-10.4728 1423.9 292.989)" fill="#F8DC7A" stroke="#F8C04E" stroke-width="6"/>
<rect x="1385.68" y="50.1133" width="41.8385" height="20.6476" rx="5" transform="rotate(-2 1385.68 50.1133)" fill="#F8C04E"/>
<rect x="1401.65" y="8.25293" width="7" height="34" transform="rotate(-2 1401.65 8.25293)" fill="#F8C04E"/>
<rect x="1395.73" y="42.1504" width="21.7343" height="10.8672" rx="5" transform="rotate(-2 1395.73 42.1504)" fill="#F8C04E"/>
<path d="M1534.74 162.345C1536.62 216.127 1484.24 263.58 1414.97 265.999C1345.7 268.418 1290.13 224.735 1288.26 170.952C1286.38 117.17 1338.76 69.7166 1408.03 67.2976C1477.3 64.8787 1532.87 108.562 1534.74 162.345Z" fill="#F8DC7A" stroke="#F8C04E" stroke-width="12"/>
<path d="M1496.73 163.671C1498.68 219.345 1461.05 264.39 1414.43 266.018C1367.8 267.646 1327.13 225.336 1325.18 169.662C1323.24 113.989 1360.87 68.9441 1407.49 67.316C1454.11 65.6879 1494.79 107.998 1496.73 163.671Z" fill="#F8DC7A" stroke="#F8C04E" stroke-width="12"/>
<path d="M1447.32 165.398C1448.31 193.922 1444.58 219.631 1437.94 238.08C1434.62 247.322 1430.68 254.441 1426.5 259.189C1422.33 263.924 1418.33 265.882 1414.7 266.009C1411.07 266.135 1406.94 264.461 1402.45 260.029C1397.95 255.584 1393.52 248.757 1389.56 239.77C1381.66 221.828 1376.14 196.442 1375.14 167.918C1374.14 139.394 1377.88 113.685 1384.51 95.2354C1387.84 85.9938 1391.78 78.8744 1395.96 74.1265C1400.13 69.3913 1404.13 67.4337 1407.76 67.307C1411.39 67.1803 1415.51 68.8541 1420 73.2869C1424.51 77.7316 1428.94 84.5586 1432.89 93.5459C1440.8 111.487 1446.32 136.874 1447.32 165.398Z" fill="#F8DC7A" stroke="#F8C04E" stroke-width="12"/>
<path d="M1123.13 378.165C1117.92 379.622 1114.03 381.744 1111.14 384.054C1111.66 378.085 1111.4 372.731 1110.12 367.595C1108.18 359.825 1103.96 352.856 1097.18 345.148L1102.83 342.267C1102.99 342.373 1103.18 342.505 1103.4 342.668C1104.48 343.48 1105.93 344.784 1107.6 346.49C1110.93 349.885 1114.9 354.616 1118.26 359.52C1121.67 364.494 1124.24 369.345 1125.06 373.027C1125.47 374.865 1125.36 376.044 1125.08 376.729C1124.86 377.247 1124.42 377.802 1123.13 378.165ZM1102.26 341.939C1102.26 341.937 1102.26 341.937 1102.26 341.937C1102.26 341.937 1102.26 341.937 1102.26 341.939Z" fill="#F87B52" stroke="#ED5F27" stroke-width="6"/>
<path d="M1091.06 287.967C1083.68 289.607 1086.44 322.613 1096.9 339.654" stroke="#ED5F27" stroke-width="13"/>
<circle cx="1098.47" cy="341.4" r="5.6693" transform="rotate(-10.4728 1098.47 341.4)" fill="#F87B52" stroke="#ED5F27" stroke-width="6"/>
<rect x="1058.46" y="100.048" width="41.721" height="20.5896" rx="5" transform="rotate(-2 1058.46 100.048)" fill="#ED5F27"/>
<rect x="1074.45" y="50.2441" width="7" height="43" transform="rotate(-2 1074.45 50.2441)" fill="#ED5F27"/>
<rect x="1068.48" y="92.1074" width="21.6732" height="10.8366" rx="5" transform="rotate(-2 1068.48 92.1074)" fill="#ED5F27"/>
<path d="M1207.08 211.964C1208.95 265.583 1156.73 312.898 1087.66 315.31C1018.59 317.722 963.193 274.165 961.321 220.546C959.448 166.927 1011.67 119.612 1080.74 117.2C1149.81 114.788 1205.21 158.345 1207.08 211.964Z" fill="#F87B52" stroke="#ED5F27" stroke-width="12"/>
<path d="M1169.18 213.288C1171.12 268.798 1133.6 313.706 1087.12 315.329C1040.64 316.952 1000.08 274.771 998.142 219.261C996.204 163.751 1033.72 118.843 1080.2 117.22C1126.68 115.596 1167.24 157.778 1169.18 213.288Z" fill="#F87B52" stroke="#ED5F27" stroke-width="12"/>
<path d="M1119.9 215.008C1120.89 243.451 1117.17 269.086 1110.55 287.481C1107.24 296.695 1103.31 303.792 1099.14 308.525C1094.99 313.244 1091 315.193 1087.39 315.319C1083.78 315.445 1079.67 313.779 1075.19 309.361C1070.7 304.931 1066.29 298.125 1062.34 289.164C1054.46 271.275 1048.95 245.963 1047.96 217.521C1046.97 189.078 1050.69 163.443 1057.31 145.048C1060.62 135.834 1064.55 128.737 1068.72 124.004C1072.87 119.285 1076.86 117.336 1080.47 117.21C1084.08 117.083 1088.2 118.749 1092.67 123.168C1097.16 127.598 1101.57 134.404 1105.52 143.365C1113.4 161.253 1118.91 186.566 1119.9 215.008Z" fill="#F87B52" stroke="#ED5F27" stroke-width="12"/>
<path d="M123.517 5C636.907 77.4427 920.831 79.2186 1419.52 5" stroke="black" stroke-width="10"/>
</svg>
