<svg width="1542" height="436" viewBox="0 0 1542 436" fill="none" xmlns="http://www.w3.org/2000/svg">
<path d="M473.802 326.783L435.582 306.882L434.391 308.561C435.356 309.49 436.659 310.735 438.201 312.18C441.609 315.376 446.164 319.537 450.778 323.428C455.429 327.35 460.007 330.882 463.492 332.912C464.804 333.676 465.789 334.123 466.464 334.344C467.944 330.392 470.96 328.098 473.802 326.783ZM467.229 334.513C467.228 334.513 467.224 334.512 467.215 334.513C467.224 334.513 467.229 334.513 467.229 334.513Z" fill="#F87B52" stroke="#ED5F27" stroke-width="6"/>
<path d="M423.684 252.741C416.388 254.769 420.876 287.655 432.241 304.159" stroke="#ED5F27" stroke-width="13"/>
<circle cx="433.906" cy="305.825" r="5.68765" transform="rotate(-13.4728 433.906 305.825)" fill="#F87B52" stroke="#ED5F27" stroke-width="6"/>
<rect x="406.362" y="60.9023" width="41.8093" height="20.6332" rx="5" transform="rotate(1 406.362 60.9023)" fill="#ED5F27"/>
<rect x="424.123" y="38.9473" width="7.05871" height="16.2893" transform="rotate(1 424.123 38.9473)" fill="#ED5F27"/>
<rect x="416.81" y="53.4819" width="21.7191" height="10.8596" rx="5" transform="rotate(1 416.81 53.4819)" fill="#ED5F27"/>
<path d="M549.241 180.697C548.302 234.464 493.549 279.078 424.297 277.869C355.046 276.661 301.882 230.162 302.821 176.396C303.759 122.63 358.513 78.0154 427.765 79.2242C497.016 80.433 550.179 126.931 549.241 180.697Z" fill="#F87B52" stroke="#ED5F27" stroke-width="12"/>
<path d="M511.238 180.034C510.267 235.693 470.362 278.674 423.754 277.86C377.146 277.046 338.766 232.699 339.738 177.041C340.709 121.382 380.614 78.4013 427.222 79.2148C473.83 80.0284 512.21 124.376 511.238 180.034Z" fill="#F87B52" stroke="#ED5F27" stroke-width="12"/>
<path d="M461.835 179.172C461.337 207.689 456.263 233.149 448.678 251.213C444.879 260.261 440.573 267.159 436.153 271.678C431.745 276.185 427.651 277.928 424.026 277.865C420.4 277.802 416.369 275.916 412.121 271.258C407.862 266.588 403.799 259.544 400.318 250.369C393.369 232.051 389.186 206.429 389.684 177.913C390.182 149.396 395.256 123.936 402.84 105.872C406.64 96.8238 410.946 89.9259 415.366 85.4069C419.773 80.9001 423.868 79.1565 427.493 79.2198C431.118 79.2831 435.149 81.1685 439.397 85.8264C443.657 90.4968 447.72 97.5409 451.201 106.716C458.15 125.034 462.332 150.655 461.835 179.172Z" fill="#F87B52" stroke="#ED5F27" stroke-width="12"/>
<path d="M179.862 288.783L141.642 268.883L140.452 270.562C141.416 271.49 142.72 272.735 144.261 274.18C147.67 277.377 152.224 281.537 156.839 285.428C161.49 289.35 166.067 292.883 169.552 294.912C170.864 295.677 171.85 296.124 172.525 296.344C174.004 292.392 177.02 290.098 179.862 288.783ZM173.289 296.513C173.289 296.513 173.284 296.513 173.275 296.513C173.285 296.514 173.289 296.513 173.289 296.513Z" fill="#F87B52" stroke="#ED5F27" stroke-width="6"/>
<path d="M129.744 214.741C122.448 216.769 126.937 249.655 138.301 266.16" stroke="#ED5F27" stroke-width="13"/>
<circle cx="139.966" cy="267.825" r="5.68765" transform="rotate(-13.4728 139.966 267.825)" fill="#F87B52" stroke="#ED5F27" stroke-width="6"/>
<rect x="112.423" y="22.9033" width="41.8093" height="20.6332" rx="5" transform="rotate(1 112.423 22.9033)" fill="#ED5F27"/>
<rect x="130.177" y="7.94873" width="7" height="9" transform="rotate(1 130.177 7.94873)" fill="#ED5F27"/>
<rect x="122.871" y="15.4829" width="21.7191" height="10.8596" rx="5" transform="rotate(1 122.871 15.4829)" fill="#ED5F27"/>
<path d="M255.302 142.698C254.363 196.465 199.61 241.079 130.358 239.87C61.1068 238.662 7.94339 192.163 8.88188 138.397C9.82038 84.6307 64.5741 40.0164 133.826 41.2251C203.077 42.4339 256.24 88.932 255.302 142.698Z" fill="#F87B52" stroke="#ED5F27" stroke-width="12"/>
<path d="M217.299 142.035C216.327 197.693 176.423 240.674 129.815 239.861C83.2069 239.047 44.8269 194.699 45.7984 139.041C46.7699 83.3828 86.6742 40.4018 133.282 41.2153C179.89 42.0289 218.27 86.3764 217.299 142.035Z" fill="#F87B52" stroke="#ED5F27" stroke-width="12"/>
<path d="M167.896 141.173C167.398 169.689 162.324 195.15 154.739 213.213C150.94 222.262 146.634 229.159 142.214 233.678C137.806 238.185 133.712 239.929 130.087 239.866C126.462 239.802 122.43 237.917 118.183 233.259C113.923 228.589 109.86 221.544 106.379 212.369C99.43 194.052 95.2474 168.43 95.7452 139.913C96.2429 111.396 101.317 85.9362 108.901 67.8727C112.701 58.8243 117.007 51.9263 121.427 47.4074C125.834 42.9006 129.929 41.157 133.554 41.2203C137.179 41.2836 141.21 43.169 145.458 47.8269C149.718 52.4973 153.781 59.5413 157.262 68.7168C164.211 87.0341 168.394 112.656 167.896 141.173Z" fill="#F87B52" stroke="#ED5F27" stroke-width="12"/>
<path d="M767.862 424.627C767.633 418.178 767.075 412.475 765.951 406.924C764.42 399.362 761.862 392.189 757.786 383.843L762.326 382.004C762.44 382.096 762.571 382.208 762.721 382.343C763.666 383.198 764.924 384.593 766.373 386.443C769.252 390.116 772.623 395.237 775.43 400.497C778.269 405.816 780.377 410.995 780.967 414.843C781.264 416.786 781.113 418.015 780.821 418.69C780.624 419.146 780.329 419.495 779.422 419.665C774.205 420.641 770.488 422.485 767.862 424.627ZM761.839 381.655C761.753 381.622 761.744 381.605 761.832 381.651C761.834 381.653 761.836 381.654 761.839 381.655Z" fill="#F8DC7A" stroke="#F8C04E" stroke-width="6"/>
<path d="M749.711 328.462C747.986 330.575 758.283 363.566 758.273 379.908" stroke="#F8C04E" stroke-width="13"/>
<circle cx="759.193" cy="380.279" r="5.69236" transform="rotate(18.5502 759.193 380.279)" fill="#F8DC7A" stroke="#F8C04E" stroke-width="6"/>
<rect x="732.585" y="134.906" width="41.832" height="20.6444" rx="5" transform="rotate(1 732.585 134.906)" fill="#F8C04E"/>
<rect x="751.311" y="60.9478" width="7" height="68" transform="rotate(1 751.311 60.9478)" fill="#F8C04E"/>
<rect x="743.039" y="127.482" width="21.7309" height="10.8654" rx="5" transform="rotate(1 743.039 127.482)" fill="#F8C04E"/>
<path d="M875.545 254.766C874.606 308.564 819.82 353.204 750.53 351.994C681.24 350.785 628.046 304.26 628.985 250.463C629.924 196.665 684.709 152.025 754 153.235C823.29 154.444 876.484 200.968 875.545 254.766Z" fill="#F8DC7A" stroke="#F8C04E" stroke-width="12"/>
<path d="M837.522 254.103C836.55 309.793 796.623 352.799 749.987 351.985C703.352 351.171 664.95 306.797 665.922 251.108C666.894 195.418 706.821 152.411 753.457 153.225C800.092 154.039 838.494 198.413 837.522 254.103Z" fill="#F8DC7A" stroke="#F8C04E" stroke-width="12"/>
<path d="M788.092 253.24C787.594 281.772 782.517 307.247 774.928 325.321C771.127 334.374 766.818 341.276 762.396 345.798C757.985 350.308 753.887 352.053 750.259 351.989C746.631 351.926 742.597 350.039 738.346 345.378C734.084 340.705 730.019 333.657 726.536 324.476C719.582 306.148 715.397 280.512 715.896 251.98C716.394 223.447 721.471 197.973 729.059 179.899C732.861 170.845 737.169 163.943 741.592 159.421C746.002 154.912 750.1 153.167 753.728 153.23C757.357 153.293 761.391 155.18 765.641 159.841C769.903 164.515 773.969 171.563 777.452 180.744C784.405 199.071 788.59 224.707 788.092 253.24Z" fill="#F8DC7A" stroke="#F8C04E" stroke-width="12"/>
<path d="M1384.69 328.47L1413.01 294.432L1417.24 296.803C1416.82 298.101 1416.24 299.882 1415.53 301.974C1414.02 306.427 1411.93 312.256 1409.6 317.819C1407.24 323.441 1404.72 328.569 1402.39 331.762C1401.19 333.394 1400.3 334.169 1399.78 334.429C1394.96 329.789 1389.13 328.575 1384.69 328.47ZM1399.62 334.494C1399.62 334.494 1399.62 334.494 1399.63 334.493C1399.62 334.494 1399.62 334.494 1399.62 334.494Z" fill="#F8DC7A" stroke="#F8C04E" stroke-width="6"/>
<path d="M1406.5 239.77C1407.71 240.831 1419.07 272.958 1415.06 291.225" stroke="#F8C04E" stroke-width="13"/>
<circle cx="1414.94" cy="292.002" r="5.69372" transform="rotate(-13.4728 1414.94 292.002)" fill="#F8DC7A" stroke="#F8C04E" stroke-width="6"/>
<rect x="1389.39" y="48.9175" width="41.8385" height="20.6476" rx="5" transform="rotate(1 1389.39 48.9175)" fill="#F8C04E"/>
<rect x="1407.52" y="7.9502" width="7" height="34" transform="rotate(1 1407.52 7.9502)" fill="#F8C04E"/>
<rect x="1399.84" y="41.4917" width="21.7343" height="10.8672" rx="5" transform="rotate(1 1399.84 41.4917)" fill="#F8C04E"/>
<path d="M1532.37 168.796C1531.43 222.603 1476.64 267.25 1407.34 266.04C1338.03 264.831 1284.83 218.299 1285.77 164.492C1286.71 110.685 1341.5 66.0381 1410.81 67.2477C1480.11 68.4574 1533.31 114.989 1532.37 168.796Z" fill="#F8DC7A" stroke="#F8C04E" stroke-width="12"/>
<path d="M1494.34 168.133C1493.37 223.832 1453.44 266.845 1406.79 266.031C1360.15 265.217 1321.74 220.836 1322.71 165.137C1323.69 109.438 1363.62 66.4242 1410.26 67.2384C1456.91 68.0526 1495.31 112.434 1494.34 168.133Z" fill="#F8DC7A" stroke="#F8C04E" stroke-width="12"/>
<path d="M1444.9 167.27C1444.41 195.807 1439.33 221.285 1431.74 239.362C1427.94 248.417 1423.63 255.32 1419.2 259.843C1414.79 264.354 1410.69 266.099 1407.06 266.036C1403.43 265.972 1399.4 264.085 1395.15 259.423C1390.89 254.749 1386.82 247.699 1383.34 238.517C1376.38 220.187 1372.2 194.546 1372.69 166.009C1373.19 137.472 1378.27 111.994 1385.86 93.9169C1389.66 84.8619 1393.97 77.9586 1398.4 73.436C1402.81 68.9255 1406.9 67.1799 1410.53 67.2433C1414.16 67.3066 1418.2 69.1942 1422.45 73.8558C1426.71 78.5301 1430.78 85.5795 1434.26 94.7617C1441.22 113.092 1445.4 138.733 1444.9 167.27Z" fill="#F8DC7A" stroke="#F8C04E" stroke-width="12"/>
<path d="M1116.27 377.755C1111.23 379.713 1107.57 382.205 1104.91 384.786C1104.85 378.795 1104.07 373.491 1102.29 368.505C1099.6 360.961 1094.73 354.437 1087.22 347.428L1092.57 344.01C1092.74 344.099 1092.94 344.212 1093.17 344.353C1094.33 345.056 1095.89 346.212 1097.73 347.746C1101.37 350.8 1105.79 355.121 1109.61 359.674C1113.49 364.292 1116.51 368.869 1117.69 372.453C1118.28 374.243 1118.29 375.426 1118.07 376.136C1117.91 376.673 1117.52 377.268 1116.27 377.755ZM1091.97 343.738C1091.97 343.737 1091.96 343.736 1091.96 343.736C1091.96 343.736 1091.97 343.737 1091.97 343.738Z" fill="#F87B52" stroke="#ED5F27" stroke-width="6"/>
<path d="M1079.03 290.084C1071.75 292.108 1076.23 324.924 1087.57 341.394" stroke="#ED5F27" stroke-width="13"/>
<circle cx="1089.23" cy="343.055" r="5.6693" transform="rotate(-13.4728 1089.23 343.055)" fill="#F87B52" stroke="#ED5F27" stroke-width="6"/>
<rect x="1062.05" y="98.856" width="41.721" height="20.5896" rx="5" transform="rotate(1 1062.05 98.856)" fill="#ED5F27"/>
<rect x="1080.62" y="49.9575" width="7" height="43" transform="rotate(1 1080.62 49.9575)" fill="#ED5F27"/>
<rect x="1072.47" y="91.4512" width="21.6732" height="10.8366" rx="5" transform="rotate(1 1072.47 91.4512)" fill="#ED5F27"/>
<path d="M1204.61 218.398C1203.68 272.041 1149.05 316.558 1079.94 315.352C1010.84 314.146 957.801 267.749 958.737 214.106C959.674 160.462 1014.3 115.945 1083.4 117.152C1152.5 118.358 1205.55 164.754 1204.61 218.398Z" fill="#F87B52" stroke="#ED5F27" stroke-width="12"/>
<path d="M1166.69 217.736C1165.72 273.271 1125.9 316.154 1079.4 315.342C1032.9 314.531 994.607 270.284 995.576 214.749C996.546 159.213 1036.36 116.33 1082.86 117.142C1129.36 117.954 1167.66 162.2 1166.69 217.736Z" fill="#F87B52" stroke="#ED5F27" stroke-width="12"/>
<path d="M1117.39 216.875C1116.89 245.331 1111.83 270.735 1104.26 288.759C1100.47 297.787 1096.18 304.669 1091.77 309.177C1087.37 313.673 1083.29 315.41 1079.67 315.347C1076.06 315.284 1072.04 313.405 1067.8 308.759C1063.55 304.1 1059.5 297.072 1056.03 287.917C1049.09 269.64 1044.92 244.074 1045.42 215.619C1045.91 187.164 1050.98 161.759 1058.54 143.735C1062.34 134.707 1066.63 127.825 1071.04 123.317C1075.44 118.821 1079.52 117.084 1083.13 117.147C1086.75 117.21 1090.77 119.089 1095 123.735C1099.25 128.394 1103.31 135.422 1106.78 144.577C1113.71 162.854 1117.89 188.42 1117.39 216.875Z" fill="#F87B52" stroke="#ED5F27" stroke-width="12"/>
<path d="M120.584 5C633.974 77.4427 917.898 79.2186 1416.58 5" stroke="black" stroke-width="10"/>
</svg>
