<svg width="1542" height="436" viewBox="0 0 1542 436" fill="none" xmlns="http://www.w3.org/2000/svg">
<path d="M474.214 326.783L435.994 306.883L434.804 308.562C435.768 309.49 437.072 310.735 438.613 312.18C442.022 315.377 446.576 319.537 451.191 323.428C455.842 327.35 460.419 330.883 463.904 332.912C465.217 333.677 466.202 334.124 466.877 334.344C468.356 330.392 471.372 328.098 474.214 326.783ZM467.641 334.513C467.641 334.513 467.636 334.513 467.627 334.513C467.637 334.514 467.641 334.513 467.641 334.513Z" fill="#F87B52" stroke="#ED5F27" stroke-width="6"/>
<path d="M424.096 252.741C416.8 254.769 421.289 287.655 432.653 304.16" stroke="#ED5F27" stroke-width="13"/>
<circle cx="434.318" cy="305.825" r="5.68765" transform="rotate(-13.4728 434.318 305.825)" fill="#F87B52" stroke="#ED5F27" stroke-width="6"/>
<rect x="406.775" y="60.9028" width="41.8093" height="20.6332" rx="5" transform="rotate(1 406.775 60.9028)" fill="#ED5F27"/>
<rect x="424.536" y="38.9473" width="7.05871" height="16.2893" transform="rotate(1 424.536 38.9473)" fill="#ED5F27"/>
<rect x="417.223" y="53.4824" width="21.7191" height="10.8596" rx="5" transform="rotate(1 417.223 53.4824)" fill="#ED5F27"/>
<path d="M549.653 180.698C548.715 234.464 493.961 279.079 424.71 277.87C355.458 276.661 302.295 230.163 303.233 176.397C304.172 122.63 358.926 78.0159 428.177 79.2247C497.429 80.4334 550.592 126.932 549.653 180.698Z" fill="#F87B52" stroke="#ED5F27" stroke-width="12"/>
<path d="M511.651 180.034C510.679 235.693 470.775 278.674 424.167 277.86C377.559 277.047 339.179 232.699 340.15 177.041C341.122 121.383 381.026 78.4015 427.634 79.2151C474.242 80.0286 512.622 124.376 511.651 180.034Z" fill="#F87B52" stroke="#ED5F27" stroke-width="12"/>
<path d="M462.247 179.172C461.75 207.689 456.675 233.149 449.091 251.213C445.292 260.261 440.986 267.159 436.566 271.678C432.158 276.185 428.064 277.928 424.438 277.865C420.813 277.802 416.782 275.916 412.534 271.258C408.275 266.588 404.212 259.544 400.731 250.369C393.782 232.051 389.599 206.429 390.097 177.913C390.594 149.396 395.669 123.936 403.253 105.872C407.052 96.8238 411.358 89.9259 415.778 85.4069C420.186 80.9001 424.28 79.1565 427.906 79.2198C431.531 79.2831 435.562 81.1685 439.81 85.8264C444.069 90.4968 448.132 97.5409 451.613 106.716C458.562 125.034 462.745 150.655 462.247 179.172Z" fill="#F87B52" stroke="#ED5F27" stroke-width="12"/>
<path d="M180.275 288.784L142.055 268.883L140.865 270.562C141.829 271.491 143.132 272.736 144.674 274.181C148.082 277.377 152.637 281.538 157.251 285.429C161.902 289.351 166.48 292.883 169.965 294.913C171.277 295.677 172.263 296.124 172.937 296.345C174.417 292.393 177.433 290.099 180.275 288.784ZM173.702 296.514C173.702 296.514 173.697 296.513 173.688 296.514C173.697 296.514 173.702 296.514 173.702 296.514Z" fill="#F87B52" stroke="#ED5F27" stroke-width="6"/>
<path d="M130.157 214.742C122.861 216.77 127.35 249.656 138.714 266.16" stroke="#ED5F27" stroke-width="13"/>
<circle cx="140.379" cy="267.826" r="5.68765" transform="rotate(-13.4728 140.379 267.826)" fill="#F87B52" stroke="#ED5F27" stroke-width="6"/>
<rect x="112.835" y="22.9033" width="41.8093" height="20.6332" rx="5" transform="rotate(1 112.835 22.9033)" fill="#ED5F27"/>
<rect x="130.589" y="7.94897" width="7" height="9" transform="rotate(1 130.589 7.94897)" fill="#ED5F27"/>
<rect x="123.283" y="15.4829" width="21.7191" height="10.8596" rx="5" transform="rotate(1 123.283 15.4829)" fill="#ED5F27"/>
<path d="M255.714 142.698C254.776 196.465 200.022 241.079 130.771 239.87C61.5194 238.662 8.35598 192.163 9.29448 138.397C10.233 84.6307 64.9867 40.0164 134.238 41.2251C203.49 42.4339 256.653 88.932 255.714 142.698Z" fill="#F87B52" stroke="#ED5F27" stroke-width="12"/>
<path d="M217.711 142.035C216.74 197.693 176.836 240.675 130.228 239.861C83.6195 239.047 45.2395 194.7 46.211 139.042C47.1825 83.3833 87.0868 40.4023 133.695 41.2158C180.303 42.0294 218.683 86.3769 217.711 142.035Z" fill="#F87B52" stroke="#ED5F27" stroke-width="12"/>
<path d="M168.308 141.173C167.811 169.69 162.736 195.15 155.152 213.213C151.353 222.262 147.047 229.16 142.627 233.679C138.219 238.185 134.125 239.929 130.499 239.866C126.874 239.802 122.843 237.917 118.595 233.259C114.336 228.589 110.273 221.545 106.792 212.369C99.8426 194.052 95.66 168.43 96.1578 139.913C96.6555 111.397 101.73 85.9365 109.314 67.8729C113.113 58.8245 117.419 51.9266 121.839 47.4076C126.247 42.9009 130.341 41.1573 133.967 41.2206C137.592 41.2838 141.623 43.1692 145.871 47.8271C150.13 52.4976 154.193 59.5416 157.674 68.7171C164.623 87.0343 168.806 112.656 168.308 141.173Z" fill="#F87B52" stroke="#ED5F27" stroke-width="12"/>
<path d="M768.275 424.627C768.046 418.178 767.488 412.475 766.364 406.924C764.833 399.362 762.275 392.189 758.199 383.843L762.739 382.004C762.852 382.096 762.984 382.208 763.133 382.343C764.079 383.198 765.336 384.593 766.786 386.443C769.665 390.116 773.036 395.237 775.843 400.497C778.682 405.816 780.79 410.995 781.379 414.843C781.677 416.786 781.525 418.015 781.234 418.69C781.037 419.146 780.741 419.495 779.835 419.665C774.618 420.641 770.9 422.485 768.275 424.627ZM762.251 381.655C762.166 381.622 762.157 381.605 762.244 381.651C762.247 381.653 762.249 381.654 762.251 381.655Z" fill="#F8DC7A" stroke="#F8C04E" stroke-width="6"/>
<path d="M750.124 328.462C748.399 330.575 758.696 363.566 758.685 379.908" stroke="#F8C04E" stroke-width="13"/>
<circle cx="759.606" cy="380.279" r="5.69236" transform="rotate(18.5502 759.606 380.279)" fill="#F8DC7A" stroke="#F8C04E" stroke-width="6"/>
<rect x="732.998" y="134.906" width="41.832" height="20.6444" rx="5" transform="rotate(1 732.998 134.906)" fill="#F8C04E"/>
<rect x="751.724" y="60.948" width="7" height="68" transform="rotate(1 751.724 60.948)" fill="#F8C04E"/>
<rect x="743.452" y="127.482" width="21.7309" height="10.8654" rx="5" transform="rotate(1 743.452 127.482)" fill="#F8C04E"/>
<path d="M875.958 254.766C875.019 308.564 820.233 353.204 750.943 351.994C681.653 350.785 628.458 304.261 629.397 250.463C630.337 196.665 685.122 152.025 754.412 153.235C823.702 154.444 876.897 200.969 875.958 254.766Z" fill="#F8DC7A" stroke="#F8C04E" stroke-width="12"/>
<path d="M837.934 254.103C836.962 309.793 797.035 352.799 750.4 351.985C703.764 351.171 665.362 306.797 666.334 251.108C667.307 195.418 707.234 152.411 753.869 153.225C800.505 154.039 838.906 198.413 837.934 254.103Z" fill="#F8DC7A" stroke="#F8C04E" stroke-width="12"/>
<path d="M788.504 253.24C788.006 281.773 782.929 307.247 775.341 325.321C771.539 334.374 767.231 341.276 762.808 345.798C758.397 350.308 754.3 352.053 750.672 351.99C747.043 351.926 743.009 350.039 738.758 345.378C734.496 340.705 730.431 333.657 726.948 324.476C719.995 306.148 715.81 280.512 716.308 251.98C716.806 223.447 721.883 197.973 729.472 179.899C733.273 170.846 737.582 163.943 742.004 159.422C746.415 154.912 750.513 153.167 754.141 153.23C757.769 153.294 761.803 155.181 766.054 159.841C770.316 164.515 774.381 171.563 777.864 180.744C784.817 199.071 789.002 224.708 788.504 253.24Z" fill="#F8DC7A" stroke="#F8C04E" stroke-width="12"/>
<path d="M1385.11 328.47L1413.42 294.432L1417.65 296.803C1417.24 298.101 1416.66 299.882 1415.95 301.974C1414.44 306.427 1412.35 312.256 1410.01 317.819C1407.65 323.441 1405.13 328.569 1402.8 331.762C1401.61 333.394 1400.71 334.169 1400.19 334.429C1395.37 329.789 1389.54 328.575 1385.11 328.47ZM1400.03 334.494C1400.03 334.494 1400.04 334.494 1400.04 334.493C1400.04 334.494 1400.03 334.494 1400.03 334.494Z" fill="#F8DC7A" stroke="#F8C04E" stroke-width="6"/>
<path d="M1406.91 239.77C1408.12 240.831 1419.48 272.958 1415.48 291.225" stroke="#F8C04E" stroke-width="13"/>
<circle cx="1415.35" cy="292.002" r="5.69372" transform="rotate(-13.4728 1415.35 292.002)" fill="#F8DC7A" stroke="#F8C04E" stroke-width="6"/>
<rect x="1389.8" y="48.9175" width="41.8385" height="20.6476" rx="5" transform="rotate(1 1389.8 48.9175)" fill="#F8C04E"/>
<rect x="1407.93" y="7.9502" width="7" height="34" transform="rotate(1 1407.93 7.9502)" fill="#F8C04E"/>
<rect x="1400.26" y="41.4919" width="21.7343" height="10.8672" rx="5" transform="rotate(1 1400.26 41.4919)" fill="#F8C04E"/>
<path d="M1532.78 168.796C1531.84 222.603 1477.05 267.25 1407.75 266.04C1338.45 264.831 1285.24 218.299 1286.18 164.492C1287.12 110.685 1341.92 66.0383 1411.22 67.248C1480.52 68.4576 1533.72 114.989 1532.78 168.796Z" fill="#F8DC7A" stroke="#F8C04E" stroke-width="12"/>
<path d="M1494.75 168.133C1493.78 223.832 1453.85 266.845 1407.21 266.031C1360.56 265.217 1322.15 220.836 1323.13 165.137C1324.1 109.438 1364.03 66.4242 1410.68 67.2384C1457.32 68.0526 1495.73 112.434 1494.75 168.133Z" fill="#F8DC7A" stroke="#F8C04E" stroke-width="12"/>
<path d="M1445.32 167.27C1444.82 195.807 1439.74 221.285 1432.15 239.362C1428.35 248.417 1424.04 255.32 1419.62 259.843C1415.2 264.354 1411.11 266.099 1407.48 266.036C1403.85 265.972 1399.81 264.085 1395.56 259.423C1391.3 254.749 1387.23 247.699 1383.75 238.517C1376.79 220.187 1372.61 194.546 1373.11 166.009C1373.61 137.472 1378.68 111.994 1386.27 93.9169C1390.07 84.8619 1394.38 77.9586 1398.81 73.436C1403.22 68.9255 1407.32 67.1799 1410.95 67.2433C1414.58 67.3066 1418.61 69.1942 1422.86 73.8558C1427.13 78.5301 1431.19 85.5795 1434.67 94.7617C1441.63 113.092 1445.81 138.733 1445.32 167.27Z" fill="#F8DC7A" stroke="#F8C04E" stroke-width="12"/>
<path d="M1116.68 377.755C1111.65 379.713 1107.98 382.205 1105.32 384.786C1105.26 378.795 1104.48 373.491 1102.7 368.505C1100.01 360.961 1095.14 354.437 1087.63 347.428L1092.98 344.01C1093.15 344.099 1093.35 344.212 1093.58 344.353C1094.74 345.056 1096.31 346.212 1098.14 347.746C1101.78 350.8 1106.2 355.121 1110.02 359.674C1113.9 364.292 1116.92 368.869 1118.1 372.453C1118.69 374.243 1118.7 375.426 1118.48 376.136C1118.32 376.673 1117.94 377.268 1116.68 377.755ZM1092.38 343.738C1092.38 343.737 1092.38 343.736 1092.38 343.736C1092.38 343.736 1092.38 343.737 1092.38 343.738Z" fill="#F87B52" stroke="#ED5F27" stroke-width="6"/>
<path d="M1079.44 290.084C1072.16 292.108 1076.64 324.924 1087.98 341.394" stroke="#ED5F27" stroke-width="13"/>
<circle cx="1089.64" cy="343.055" r="5.6693" transform="rotate(-13.4728 1089.64 343.055)" fill="#F87B52" stroke="#ED5F27" stroke-width="6"/>
<rect x="1062.46" y="98.856" width="41.721" height="20.5896" rx="5" transform="rotate(1 1062.46 98.856)" fill="#ED5F27"/>
<rect x="1081.03" y="49.9578" width="7" height="43" transform="rotate(1 1081.03 49.9578)" fill="#ED5F27"/>
<rect x="1072.89" y="91.4514" width="21.6732" height="10.8366" rx="5" transform="rotate(1 1072.89 91.4514)" fill="#ED5F27"/>
<path d="M1205.02 218.398C1204.09 272.041 1149.46 316.558 1080.36 315.352C1011.26 314.146 958.214 267.75 959.15 214.106C960.086 160.463 1014.72 115.946 1083.82 117.152C1152.92 118.358 1205.96 164.754 1205.02 218.398Z" fill="#F87B52" stroke="#ED5F27" stroke-width="12"/>
<path d="M1167.1 217.736C1166.13 273.271 1126.32 316.154 1079.82 315.343C1033.31 314.531 995.019 270.285 995.989 214.749C996.958 159.214 1036.77 116.331 1083.28 117.142C1129.78 117.954 1168.07 162.2 1167.1 217.736Z" fill="#F87B52" stroke="#ED5F27" stroke-width="12"/>
<path d="M1117.8 216.875C1117.31 245.331 1112.24 270.735 1104.67 288.759C1100.88 297.787 1096.59 304.669 1092.18 309.177C1087.78 313.673 1083.7 315.41 1080.09 315.347C1076.47 315.284 1072.45 313.405 1068.22 308.759C1063.97 304.1 1059.91 297.072 1056.44 287.917C1049.51 269.64 1045.33 244.074 1045.83 215.619C1046.33 187.164 1051.39 161.759 1058.96 143.735C1062.75 134.707 1067.04 127.825 1071.45 123.317C1075.85 118.821 1079.93 117.084 1083.55 117.147C1087.16 117.21 1091.18 119.089 1095.42 123.735C1099.66 128.394 1103.72 135.422 1107.19 144.577C1114.13 162.854 1118.3 188.42 1117.8 216.875Z" fill="#F87B52" stroke="#ED5F27" stroke-width="12"/>
<path d="M120.997 5C634.387 77.4427 918.311 79.2186 1417 5" stroke="black" stroke-width="10"/>
</svg>
