<svg width="1552" height="444" viewBox="0 0 1552 444" fill="none" xmlns="http://www.w3.org/2000/svg">
<path d="M483.715 327.841L448.12 303.555L446.74 305.082C447.587 306.118 448.734 307.508 450.093 309.126C453.1 312.703 457.129 317.374 461.251 321.784C465.405 326.229 469.532 330.278 472.752 332.706C473.964 333.621 474.89 334.181 475.534 334.48C477.471 330.731 480.737 328.811 483.715 327.841ZM476.273 334.738C476.273 334.738 476.268 334.738 476.259 334.737C476.268 334.738 476.273 334.739 476.273 334.738Z" fill="#F87B52" stroke="#ED5F27" stroke-width="6"/>
<path d="M439.305 249.619C431.886 251.133 434.069 284.252 444.254 301.51" stroke="#ED5F27" stroke-width="13"/>
<circle cx="445.8" cy="303.286" r="5.68765" transform="rotate(-9.47281 445.8 303.286)" fill="#F87B52" stroke="#ED5F27" stroke-width="6"/>
<rect x="402.345" y="63.1348" width="41.8093" height="20.6332" rx="5" transform="rotate(-3 402.345 63.1348)" fill="#ED5F27"/>
<rect x="418.531" y="39.9941" width="7.05871" height="16.2893" transform="rotate(-3 418.531 39.9941)" fill="#ED5F27"/>
<rect x="412.25" y="55.0039" width="21.7191" height="10.8596" rx="5" transform="rotate(-3 412.25 55.0039)" fill="#ED5F27"/>
<path d="M553.232 172.672C556.047 226.373 504.539 274.698 435.371 278.323C366.204 281.948 309.927 239.272 307.113 185.571C304.298 131.87 355.807 83.5448 424.974 79.9199C494.141 76.295 550.418 118.971 553.232 172.672Z" fill="#F87B52" stroke="#ED5F27" stroke-width="12"/>
<path d="M515.276 174.661C518.189 230.252 481.38 275.912 434.829 278.351C388.278 280.791 346.898 239.229 343.984 183.638C341.071 128.048 377.88 82.3877 424.431 79.948C470.982 77.5084 512.362 119.071 515.276 174.661Z" fill="#F87B52" stroke="#ED5F27" stroke-width="12"/>
<path d="M465.933 177.247C467.425 205.729 464.139 231.481 457.834 250.03C454.675 259.321 450.861 266.503 446.767 271.319C442.684 276.122 438.721 278.147 435.1 278.337C431.479 278.527 427.327 276.927 422.764 272.577C418.189 268.215 413.645 261.472 409.532 252.561C401.322 234.774 395.363 209.506 393.87 181.024C392.377 152.542 395.663 126.79 401.969 108.241C405.128 98.9497 408.942 91.7682 413.036 86.952C417.119 82.1487 421.082 80.1237 424.702 79.934C428.323 79.7442 432.476 81.3438 437.038 85.694C441.613 90.056 446.158 96.7994 450.27 105.71C458.48 123.498 464.44 148.765 465.933 177.247Z" fill="#F87B52" stroke="#ED5F27" stroke-width="12"/>
<path d="M189.532 289.848L153.937 265.562L152.556 267.088C153.404 268.125 154.551 269.515 155.91 271.133C158.917 274.71 162.946 279.38 167.068 283.791C171.222 288.235 175.349 292.285 178.569 294.713C179.781 295.627 180.707 296.188 181.351 296.487C183.288 292.738 186.554 290.817 189.532 289.848ZM182.09 296.745C182.09 296.745 182.085 296.744 182.076 296.744C182.085 296.745 182.09 296.745 182.09 296.745Z" fill="#F87B52" stroke="#ED5F27" stroke-width="6"/>
<path d="M145.122 211.625C137.702 213.139 139.886 246.258 150.071 263.515" stroke="#ED5F27" stroke-width="13"/>
<circle cx="151.617" cy="265.292" r="5.68765" transform="rotate(-9.47281 151.617 265.292)" fill="#F87B52" stroke="#ED5F27" stroke-width="6"/>
<rect x="108.161" y="25.1406" width="41.8093" height="20.6332" rx="5" transform="rotate(-3 108.161 25.1406)" fill="#ED5F27"/>
<rect x="124.829" y="8.98438" width="7" height="9" transform="rotate(-3 124.829 8.98438)" fill="#ED5F27"/>
<rect x="118.066" y="17.0098" width="21.7191" height="10.8596" rx="5" transform="rotate(-3 118.066 17.0098)" fill="#ED5F27"/>
<path d="M259.048 134.677C261.863 188.378 210.354 236.703 141.187 240.328C72.0203 243.953 15.7429 201.277 12.9286 147.576C10.1142 93.8748 61.6224 45.5496 130.789 41.9248C199.957 38.2999 256.234 80.9762 259.048 134.677Z" fill="#F87B52" stroke="#ED5F27" stroke-width="12"/>
<path d="M221.092 136.667C224.005 192.257 187.197 237.917 140.645 240.357C94.094 242.797 52.714 201.234 49.8006 145.644C46.8873 90.0535 83.6962 44.3936 130.247 41.9539C176.799 39.5143 218.179 81.0765 221.092 136.667Z" fill="#F87B52" stroke="#ED5F27" stroke-width="12"/>
<path d="M171.749 139.252C173.242 167.734 169.956 193.486 163.65 212.035C160.491 221.326 156.677 228.508 152.583 233.324C148.5 238.127 144.537 240.152 140.917 240.342C137.296 240.532 133.143 238.932 128.581 234.582C124.006 230.22 119.461 223.477 115.349 214.566C107.139 196.778 101.179 171.511 99.6864 143.029C98.1937 114.547 101.48 88.7946 107.785 70.246C110.944 60.9546 114.758 53.7731 118.852 48.9568C122.935 44.1536 126.898 42.1286 130.519 41.9389C134.14 41.7491 138.292 43.3487 142.855 47.6989C147.43 52.0609 151.974 58.8043 156.087 67.7146C164.297 85.5025 170.256 110.77 171.749 139.252Z" fill="#F87B52" stroke="#ED5F27" stroke-width="12"/>
<path d="M776.715 424.157C777.139 417.718 777.159 411.988 776.602 406.352C775.843 398.674 774.023 391.279 770.811 382.564L775.514 381.193C775.618 381.296 775.737 381.421 775.872 381.571C776.727 382.517 777.837 384.032 779.092 386.018C781.585 389.964 784.421 395.4 786.682 400.916C788.969 406.495 790.543 411.86 790.74 415.748C790.84 417.711 790.565 418.918 790.207 419.561C789.965 419.994 789.636 420.312 788.717 420.389C783.428 420.833 779.543 422.292 776.715 424.157ZM775.064 380.797C774.983 380.755 774.975 380.737 775.058 380.793C775.06 380.794 775.062 380.796 775.064 380.797Z" fill="#F8DC7A" stroke="#F8C04E" stroke-width="6"/>
<path d="M765.912 326.989C764.044 328.977 772.015 362.606 770.864 378.908" stroke="#F8C04E" stroke-width="13"/>
<circle cx="771.756" cy="379.341" r="5.69236" transform="rotate(22.5502 771.756 379.341)" fill="#F8DC7A" stroke="#F8C04E" stroke-width="6"/>
<rect x="730.298" y="137.125" width="41.832" height="20.6444" rx="5" transform="rotate(-3 730.298 137.125)" fill="#F8C04E"/>
<rect x="743.819" y="62.04" width="7" height="68" transform="rotate(-3 743.819 62.04)" fill="#F8C04E"/>
<rect x="740.208" y="128.989" width="21.7309" height="10.8654" rx="5" transform="rotate(-3 740.208 128.989)" fill="#F8C04E"/>
<path d="M881.271 246.721C884.087 300.453 832.549 348.806 763.343 352.432C694.137 356.059 637.827 313.359 635.011 259.627C632.195 205.894 683.733 157.542 752.939 153.915C822.145 150.288 878.455 192.989 881.271 246.721Z" fill="#F8DC7A" stroke="#F8C04E" stroke-width="12"/>
<path d="M843.294 248.711C846.209 304.333 809.379 350.02 762.8 352.461C716.221 354.902 674.818 313.315 671.903 257.693C668.988 202.071 705.818 156.385 752.396 153.943C798.975 151.502 840.379 193.089 843.294 248.711Z" fill="#F8DC7A" stroke="#F8C04E" stroke-width="12"/>
<path d="M793.924 251.298C795.418 279.796 792.13 305.562 785.821 324.121C782.66 333.418 778.843 340.604 774.747 345.423C770.662 350.23 766.696 352.256 763.072 352.446C759.448 352.636 755.292 351.035 750.727 346.682C746.149 342.317 741.602 335.57 737.487 326.654C729.272 308.857 723.309 283.575 721.816 255.077C720.322 226.579 723.61 200.813 729.919 182.254C733.08 172.957 736.897 165.771 740.993 160.952C745.078 156.145 749.044 154.119 752.668 153.929C756.292 153.739 760.448 155.34 765.013 159.693C769.591 164.058 774.138 170.805 778.253 179.721C786.468 197.518 792.431 222.8 793.924 251.298Z" fill="#F8DC7A" stroke="#F8C04E" stroke-width="12"/>
<path d="M1394.74 327.266L1426.77 296.708L1430.71 299.549C1430.15 300.791 1429.37 302.494 1428.42 304.49C1426.41 308.74 1423.66 314.29 1420.7 319.548C1417.71 324.861 1414.62 329.666 1411.93 332.57C1410.56 334.053 1409.58 334.721 1409.04 334.92C1404.79 329.757 1399.13 327.88 1394.74 327.266ZM1408.87 334.966C1408.87 334.966 1408.88 334.965 1408.88 334.965C1408.88 334.966 1408.87 334.966 1408.87 334.966Z" fill="#F8DC7A" stroke="#F8C04E" stroke-width="6"/>
<path d="M1423.22 241.114C1424.35 242.256 1433.44 275.097 1428.17 293.04" stroke="#F8C04E" stroke-width="13"/>
<circle cx="1427.99" cy="293.806" r="5.69372" transform="rotate(-9.47281 1427.99 293.806)" fill="#F8DC7A" stroke="#F8C04E" stroke-width="6"/>
<rect x="1385.58" y="51.1475" width="41.8385" height="20.6476" rx="5" transform="rotate(-3 1385.58 51.1475)" fill="#F8C04E"/>
<rect x="1400.81" y="9.01465" width="7" height="34" transform="rotate(-3 1400.81 9.01465)" fill="#F8C04E"/>
<rect x="1395.49" y="43.0107" width="21.7343" height="10.8672" rx="5" transform="rotate(-3 1395.49 43.0107)" fill="#F8C04E"/>
<path d="M1536.57 160.76C1539.39 214.501 1487.84 262.861 1418.63 266.489C1349.41 270.116 1293.09 227.409 1290.27 173.668C1287.46 119.926 1339 71.5661 1408.22 67.9386C1477.44 64.3111 1533.76 107.018 1536.57 160.76Z" fill="#F8DC7A" stroke="#F8C04E" stroke-width="12"/>
<path d="M1498.59 162.75C1501.51 218.382 1464.67 264.076 1418.08 266.517C1371.5 268.959 1330.09 227.365 1327.17 171.734C1324.26 116.103 1361.09 70.4087 1407.68 67.9672C1454.26 65.5256 1495.67 107.119 1498.59 162.75Z" fill="#F8DC7A" stroke="#F8C04E" stroke-width="12"/>
<path d="M1449.21 165.338C1450.71 193.841 1447.42 219.611 1441.11 238.173C1437.95 247.472 1434.13 254.659 1430.03 259.479C1425.95 264.286 1421.98 266.313 1418.35 266.503C1414.73 266.693 1410.57 265.092 1406.01 260.738C1401.43 256.372 1396.88 249.624 1392.76 240.707C1384.55 222.906 1378.58 197.62 1377.09 169.118C1375.6 140.616 1378.89 114.845 1385.2 96.2827C1388.36 86.9845 1392.17 79.7975 1396.27 74.9773C1400.36 70.1701 1404.32 68.1429 1407.95 67.9529C1411.57 67.763 1415.73 69.3644 1420.3 73.7182C1424.88 78.0837 1429.42 84.8323 1433.54 93.7492C1441.75 111.55 1447.72 136.836 1449.21 165.338Z" fill="#F8DC7A" stroke="#F8C04E" stroke-width="12"/>
<path d="M1126.84 378.315C1121.63 379.754 1117.73 381.863 1114.83 384.162C1115.37 378.195 1115.13 372.84 1113.87 367.7C1111.95 359.923 1107.76 352.939 1101 345.208L1106.67 342.347C1106.83 342.453 1107.02 342.586 1107.23 342.75C1108.31 343.566 1109.76 344.875 1111.42 346.586C1114.74 349.993 1118.7 354.738 1122.04 359.653C1125.43 364.639 1127.98 369.499 1128.79 373.184C1129.19 375.024 1129.08 376.202 1128.79 376.887C1128.58 377.404 1128.14 377.957 1126.84 378.315ZM1106.1 342.017C1106.1 342.015 1106.1 342.014 1106.1 342.014C1106.1 342.014 1106.1 342.015 1106.1 342.017Z" fill="#F87B52" stroke="#ED5F27" stroke-width="6"/>
<path d="M1096.18 287.779C1088.77 289.29 1090.95 322.339 1101.12 339.56" stroke="#ED5F27" stroke-width="13"/>
<circle cx="1102.66" cy="341.333" r="5.6693" transform="rotate(-9.47281 1102.66 341.333)" fill="#F87B52" stroke="#ED5F27" stroke-width="6"/>
<rect x="1058.39" y="101.079" width="41.721" height="20.5896" rx="5" transform="rotate(-3 1058.39 101.079)" fill="#ED5F27"/>
<rect x="1073.51" y="51.0039" width="7" height="43" transform="rotate(-3 1073.51 51.0039)" fill="#ED5F27"/>
<rect x="1068.27" y="92.9648" width="21.6732" height="10.8366" rx="5" transform="rotate(-3 1068.27 92.9648)" fill="#ED5F27"/>
<path d="M1208.94 210.385C1211.75 263.963 1160.36 312.182 1091.34 315.799C1022.33 319.416 966.177 276.833 963.37 223.255C960.562 169.677 1011.95 121.457 1080.97 117.84C1149.99 114.223 1206.14 156.807 1208.94 210.385Z" fill="#F87B52" stroke="#ED5F27" stroke-width="12"/>
<path d="M1171.07 212.369C1173.97 267.837 1137.25 313.393 1090.8 315.827C1044.36 318.261 1003.07 276.794 1000.16 221.326C997.257 165.858 1033.98 120.302 1080.43 117.868C1126.87 115.434 1168.16 156.902 1171.07 212.369Z" fill="#F87B52" stroke="#ED5F27" stroke-width="12"/>
<path d="M1121.83 214.95C1123.32 243.371 1120.04 269.067 1113.75 287.575C1110.6 296.846 1106.79 304.01 1102.71 308.815C1098.63 313.606 1094.68 315.624 1091.07 315.813C1087.47 316.003 1083.32 314.409 1078.77 310.069C1074.21 305.718 1069.68 298.99 1065.57 290.099C1057.38 272.351 1051.43 247.138 1049.94 218.718C1048.45 190.297 1051.73 164.601 1058.02 146.093C1061.18 136.823 1064.98 129.658 1069.07 124.853C1073.14 120.062 1077.09 118.044 1080.7 117.855C1084.31 117.666 1088.45 119.26 1093 123.599C1097.56 127.95 1102.1 134.678 1106.2 143.569C1114.39 161.317 1120.34 186.53 1121.83 214.95Z" fill="#F87B52" stroke="#ED5F27" stroke-width="12"/>
<path d="M125.612 5.55859C639.002 78.0013 922.926 79.7772 1421.61 5.55859" stroke="black" stroke-width="10"/>
</svg>
