<svg width="1553" height="444" viewBox="0 0 1553 444" fill="none" xmlns="http://www.w3.org/2000/svg">
<path d="M484.137 327.283L448.542 302.996L447.161 304.523C448.009 305.559 449.156 306.949 450.515 308.567C453.522 312.144 457.551 316.815 461.673 321.225C465.827 325.67 469.954 329.72 473.174 332.148C474.386 333.062 475.312 333.622 475.956 333.921C477.893 330.172 481.159 328.252 484.137 327.283ZM476.695 334.18C476.695 334.18 476.69 334.179 476.681 334.178C476.69 334.18 476.695 334.18 476.695 334.18Z" fill="#F87B52" stroke="#ED5F27" stroke-width="6"/>
<path d="M439.727 249.061C432.307 250.575 434.491 283.694 444.676 300.951" stroke="#ED5F27" stroke-width="13"/>
<circle cx="446.222" cy="302.727" r="5.68765" transform="rotate(-9.47281 446.222 302.727)" fill="#F87B52" stroke="#ED5F27" stroke-width="6"/>
<rect x="402.767" y="62.5762" width="41.8093" height="20.6332" rx="5" transform="rotate(-3 402.767 62.5762)" fill="#ED5F27"/>
<rect x="418.953" y="39.4355" width="7.05871" height="16.2893" transform="rotate(-3 418.953 39.4355)" fill="#ED5F27"/>
<rect x="412.671" y="54.4453" width="21.7191" height="10.8596" rx="5" transform="rotate(-3 412.671 54.4453)" fill="#ED5F27"/>
<path d="M553.654 172.114C556.469 225.814 504.96 274.14 435.793 277.764C366.626 281.389 310.349 238.713 307.535 185.012C304.72 131.311 356.228 82.9862 425.395 79.3613C494.563 75.7364 550.84 118.413 553.654 172.114Z" fill="#F87B52" stroke="#ED5F27" stroke-width="12"/>
<path d="M515.698 174.103C518.611 229.693 481.802 275.353 435.251 277.793C388.7 280.232 347.319 238.67 344.406 183.08C341.493 127.489 378.302 81.8291 424.853 79.3895C471.404 76.9498 512.784 118.512 515.698 174.103Z" fill="#F87B52" stroke="#ED5F27" stroke-width="12"/>
<path d="M466.355 176.689C467.847 205.171 464.561 230.923 458.256 249.471C455.097 258.763 451.282 265.944 447.189 270.761C443.106 275.564 439.143 277.589 435.522 277.779C431.901 277.968 427.749 276.369 423.186 272.018C418.611 267.657 414.067 260.913 409.954 252.003C401.744 234.215 395.785 208.947 394.292 180.465C392.799 151.983 396.085 126.231 402.391 107.683C405.549 98.3911 409.364 91.2096 413.458 86.3934C417.541 81.5901 421.503 79.5651 425.124 79.3754C428.745 79.1856 432.898 80.7852 437.46 85.1354C442.035 89.4974 446.579 96.2409 450.692 105.151C458.902 122.939 464.862 148.207 466.355 176.689Z" fill="#F87B52" stroke="#ED5F27" stroke-width="12"/>
<path d="M189.954 289.29L154.359 265.003L152.978 266.53C153.826 267.566 154.973 268.956 156.332 270.574C159.338 274.151 163.368 278.822 167.49 283.232C171.643 287.677 175.771 291.727 178.991 294.155C180.203 295.069 181.129 295.629 181.772 295.928C183.71 292.179 186.976 290.259 189.954 289.29ZM182.512 296.187C182.512 296.186 182.507 296.186 182.498 296.185C182.507 296.187 182.512 296.187 182.512 296.187Z" fill="#F87B52" stroke="#ED5F27" stroke-width="6"/>
<path d="M145.544 211.066C138.124 212.581 140.308 245.699 150.493 262.957" stroke="#ED5F27" stroke-width="13"/>
<circle cx="152.039" cy="264.733" r="5.68765" transform="rotate(-9.47281 152.039 264.733)" fill="#F87B52" stroke="#ED5F27" stroke-width="6"/>
<rect x="108.583" y="24.582" width="41.8093" height="20.6332" rx="5" transform="rotate(-3 108.583 24.582)" fill="#ED5F27"/>
<rect x="125.25" y="8.42578" width="7" height="9" transform="rotate(-3 125.25 8.42578)" fill="#ED5F27"/>
<rect x="118.488" y="16.4512" width="21.7191" height="10.8596" rx="5" transform="rotate(-3 118.488 16.4512)" fill="#ED5F27"/>
<path d="M259.47 134.118C262.285 187.819 210.776 236.144 141.609 239.769C72.4422 243.394 16.1648 200.718 13.3504 147.017C10.5361 93.3162 62.0443 44.9911 131.211 41.3662C200.378 37.7413 256.656 80.4176 259.47 134.118Z" fill="#F87B52" stroke="#ED5F27" stroke-width="12"/>
<path d="M221.514 136.108C224.427 191.699 187.618 237.359 141.067 239.798C94.5159 242.238 53.1359 200.676 50.2225 145.085C47.3091 89.4949 84.118 43.835 130.669 41.3953C177.221 38.9557 218.601 80.5179 221.514 136.108Z" fill="#F87B52" stroke="#ED5F27" stroke-width="12"/>
<path d="M172.171 138.694C173.664 167.176 170.378 192.928 164.072 211.476C160.913 220.768 157.099 227.949 153.005 232.765C148.922 237.569 144.959 239.594 141.339 239.783C137.718 239.973 133.565 238.374 129.002 234.023C124.428 229.661 119.883 222.918 115.771 214.008C107.561 196.22 101.601 170.952 100.108 142.47C98.6156 113.988 101.901 88.236 108.207 69.6874C111.366 60.396 115.18 53.2145 119.274 48.3983C123.357 43.595 127.32 41.57 130.941 41.3803C134.561 41.1905 138.714 42.7901 143.277 47.1403C147.852 51.5023 152.396 58.2457 156.508 67.156C164.719 84.9439 170.678 110.212 172.171 138.694Z" fill="#F87B52" stroke="#ED5F27" stroke-width="12"/>
<path d="M777.136 423.599C777.56 417.16 777.581 411.429 777.024 405.793C776.265 398.116 774.445 390.721 771.233 382.005L775.936 380.635C776.039 380.738 776.159 380.863 776.294 381.012C777.149 381.958 778.259 383.474 779.514 385.46C782.006 389.405 784.843 394.841 787.104 400.357C789.391 405.936 790.965 411.301 791.162 415.189C791.262 417.152 790.987 418.36 790.629 419.002C790.387 419.436 790.058 419.753 789.139 419.83C783.85 420.275 779.965 421.734 777.136 423.599ZM775.486 380.239C775.404 380.197 775.397 380.179 775.48 380.234C775.482 380.236 775.484 380.237 775.486 380.239Z" fill="#F8DC7A" stroke="#F8C04E" stroke-width="6"/>
<path d="M766.334 326.43C764.465 328.419 772.436 362.048 771.286 378.349" stroke="#F8C04E" stroke-width="13"/>
<circle cx="772.178" cy="378.782" r="5.69236" transform="rotate(22.5502 772.178 378.782)" fill="#F8DC7A" stroke="#F8C04E" stroke-width="6"/>
<rect x="730.72" y="136.566" width="41.832" height="20.6444" rx="5" transform="rotate(-3 730.72 136.566)" fill="#F8C04E"/>
<rect x="744.241" y="61.4814" width="7" height="68" transform="rotate(-3 744.241 61.4814)" fill="#F8C04E"/>
<rect x="740.63" y="128.431" width="21.7309" height="10.8654" rx="5" transform="rotate(-3 740.63 128.431)" fill="#F8C04E"/>
<path d="M881.693 246.162C884.509 299.895 832.97 348.247 763.765 351.874C694.559 355.501 638.249 312.801 635.433 259.068C632.617 205.336 684.155 156.984 753.361 153.357C822.567 149.73 878.877 192.43 881.693 246.162Z" fill="#F8DC7A" stroke="#F8C04E" stroke-width="12"/>
<path d="M843.715 248.152C846.63 303.774 809.801 349.461 763.222 351.902C716.643 354.343 675.24 312.757 672.325 257.135C669.41 201.513 706.239 155.826 752.818 153.385C799.397 150.944 840.8 192.53 843.715 248.152Z" fill="#F8DC7A" stroke="#F8C04E" stroke-width="12"/>
<path d="M794.346 250.739C795.839 279.237 792.552 305.004 786.242 323.563C783.082 332.859 779.265 340.045 775.169 344.865C771.083 349.671 767.118 351.698 763.494 351.888C759.87 352.077 755.714 350.476 751.149 346.123C746.571 341.759 742.024 335.011 737.909 326.096C729.694 308.298 723.731 283.016 722.238 254.518C720.744 226.021 724.032 200.254 730.341 181.695C733.502 172.398 737.318 165.212 741.415 160.393C745.5 155.587 749.466 153.56 753.09 153.37C756.714 153.18 760.87 154.781 765.435 159.134C770.013 163.499 774.56 170.247 778.675 179.162C786.889 196.96 792.852 222.242 794.346 250.739Z" fill="#F8DC7A" stroke="#F8C04E" stroke-width="12"/>
<path d="M1395.16 326.707L1427.2 296.149L1431.13 298.99C1430.57 300.232 1429.79 301.935 1428.84 303.932C1426.83 308.182 1424.08 313.731 1421.12 318.989C1418.13 324.303 1415.04 329.107 1412.36 332.011C1410.99 333.495 1410.01 334.162 1409.46 334.361C1405.21 329.198 1399.55 327.322 1395.16 326.707ZM1409.3 334.407C1409.3 334.407 1409.3 334.407 1409.3 334.407C1409.3 334.407 1409.3 334.407 1409.3 334.407Z" fill="#F8DC7A" stroke="#F8C04E" stroke-width="6"/>
<path d="M1423.64 240.555C1424.77 241.697 1433.86 274.538 1428.59 292.482" stroke="#F8C04E" stroke-width="13"/>
<circle cx="1428.41" cy="293.248" r="5.69372" transform="rotate(-9.47281 1428.41 293.248)" fill="#F8DC7A" stroke="#F8C04E" stroke-width="6"/>
<rect x="1386" y="50.5889" width="41.8385" height="20.6476" rx="5" transform="rotate(-3 1386 50.5889)" fill="#F8C04E"/>
<rect x="1401.23" y="8.45605" width="7" height="34" transform="rotate(-3 1401.23 8.45605)" fill="#F8C04E"/>
<rect x="1395.91" y="42.4521" width="21.7343" height="10.8672" rx="5" transform="rotate(-3 1395.91 42.4521)" fill="#F8C04E"/>
<path d="M1537 160.201C1539.81 213.943 1488.26 262.303 1419.05 265.93C1349.83 269.558 1293.51 226.851 1290.7 173.109C1287.88 119.368 1339.43 71.0075 1408.64 67.38C1477.86 63.7525 1534.18 106.46 1537 160.201Z" fill="#F8DC7A" stroke="#F8C04E" stroke-width="12"/>
<path d="M1499.01 162.192C1501.93 217.823 1465.09 263.517 1418.51 265.959C1371.92 268.4 1330.51 226.807 1327.59 171.176C1324.68 115.544 1361.51 69.8501 1408.1 67.4086C1454.69 64.9671 1496.1 106.561 1499.01 162.192Z" fill="#F8DC7A" stroke="#F8C04E" stroke-width="12"/>
<path d="M1449.63 164.78C1451.13 193.282 1447.84 219.053 1441.53 237.615C1438.37 246.913 1434.55 254.1 1430.45 258.92C1426.37 263.727 1422.4 265.755 1418.78 265.945C1415.15 266.135 1410.99 264.533 1406.43 260.179C1401.85 255.814 1397.3 249.065 1393.19 240.148C1384.97 222.347 1379.01 197.062 1377.51 168.559C1376.02 140.057 1379.31 114.286 1385.62 95.7241C1388.78 86.4259 1392.6 79.2389 1396.69 74.4187C1400.78 69.6115 1404.75 67.5843 1408.37 67.3943C1412 67.2044 1416.15 68.8059 1420.72 73.1596C1425.3 77.5251 1429.85 84.2738 1433.96 93.1906C1442.18 110.991 1448.14 136.277 1449.63 164.78Z" fill="#F8DC7A" stroke="#F8C04E" stroke-width="12"/>
<path d="M1127.26 377.757C1122.05 379.196 1118.15 381.304 1115.25 383.603C1115.79 377.637 1115.55 372.282 1114.29 367.141C1112.37 359.364 1108.19 352.381 1101.42 344.649L1107.09 341.789C1107.25 341.894 1107.44 342.027 1107.66 342.192C1108.73 343.007 1110.18 344.316 1111.84 346.027C1115.16 349.434 1119.12 354.179 1122.46 359.095C1125.85 364.081 1128.4 368.94 1129.21 372.626C1129.62 374.465 1129.5 375.643 1129.22 376.328C1129 376.845 1128.56 377.398 1127.26 377.757ZM1106.52 341.458C1106.52 341.457 1106.52 341.456 1106.52 341.456C1106.52 341.456 1106.52 341.456 1106.52 341.458Z" fill="#F87B52" stroke="#ED5F27" stroke-width="6"/>
<path d="M1096.6 287.221C1089.19 288.732 1091.37 321.781 1101.54 339.001" stroke="#ED5F27" stroke-width="13"/>
<circle cx="1103.08" cy="340.775" r="5.6693" transform="rotate(-9.47281 1103.08 340.775)" fill="#F87B52" stroke="#ED5F27" stroke-width="6"/>
<rect x="1058.81" y="100.521" width="41.721" height="20.5896" rx="5" transform="rotate(-3 1058.81 100.521)" fill="#ED5F27"/>
<rect x="1073.93" y="50.4453" width="7" height="43" transform="rotate(-3 1073.93 50.4453)" fill="#ED5F27"/>
<rect x="1068.69" y="92.4062" width="21.6732" height="10.8366" rx="5" transform="rotate(-3 1068.69 92.4062)" fill="#ED5F27"/>
<path d="M1209.37 209.826C1212.17 263.404 1160.78 311.624 1091.77 315.241C1022.75 318.858 966.599 276.274 963.791 222.696C960.984 169.118 1012.37 120.899 1081.39 117.282C1150.41 113.665 1206.56 156.248 1209.37 209.826Z" fill="#F87B52" stroke="#ED5F27" stroke-width="12"/>
<path d="M1171.49 211.811C1174.4 267.279 1137.67 312.835 1091.22 315.269C1044.78 317.703 1003.49 276.235 1000.59 220.768C997.678 165.3 1034.41 119.744 1080.85 117.31C1127.29 114.876 1168.58 156.343 1171.49 211.811Z" fill="#F87B52" stroke="#ED5F27" stroke-width="12"/>
<path d="M1122.25 214.392C1123.74 242.812 1120.46 268.509 1114.17 287.016C1111.02 296.287 1107.21 303.452 1103.13 308.256C1099.06 313.048 1095.1 315.066 1091.5 315.255C1087.89 315.444 1083.75 313.85 1079.19 309.51C1074.63 305.159 1070.1 298.431 1065.99 289.541C1057.8 271.792 1051.86 246.58 1050.37 218.159C1048.88 189.738 1052.16 164.042 1058.45 145.535C1061.6 136.264 1065.4 129.099 1069.49 124.295C1073.56 119.503 1077.51 117.485 1081.12 117.296C1084.73 117.107 1088.87 118.701 1093.42 123.04C1097.99 127.392 1102.52 134.119 1106.62 143.01C1114.81 160.759 1120.76 185.971 1122.25 214.392Z" fill="#F87B52" stroke="#ED5F27" stroke-width="12"/>
<path d="M126.034 5C639.424 77.4427 923.348 79.2186 1422.03 5" stroke="black" stroke-width="10"/>
</svg>
