<svg width="1553" height="437" viewBox="0 0 1553 437" fill="none" xmlns="http://www.w3.org/2000/svg">
<path d="M476.564 326.592L437.544 308.309L436.425 310.037C437.427 310.924 438.781 312.113 440.382 313.493C443.922 316.544 448.646 320.51 453.42 324.204C458.231 327.928 462.952 331.266 466.519 333.148C467.862 333.856 468.866 334.262 469.549 334.454C470.862 330.443 473.779 328.025 476.564 326.592ZM470.32 334.591C470.32 334.59 470.315 334.591 470.306 334.591C470.315 334.591 470.32 334.591 470.32 334.591Z" fill="#F87B52" stroke="#ED5F27" stroke-width="6"/>
<path d="M423.849 254.476C416.628 256.757 422.262 289.466 434.195 305.564" stroke="#ED5F27" stroke-width="13"/>
<circle cx="435.918" cy="307.17" r="5.68765" transform="rotate(-15.4728 435.918 307.17)" fill="#F87B52" stroke="#ED5F27" stroke-width="6"/>
<rect x="416.374" y="60.3037" width="41.8093" height="20.6332" rx="5" transform="rotate(3 416.374 60.3037)" fill="#ED5F27"/>
<rect x="434.891" y="38.9814" width="7.05871" height="16.2893" transform="rotate(3 434.891 38.9814)" fill="#ED5F27"/>
<rect x="427.074" y="53.252" width="21.7191" height="10.8596" rx="5" transform="rotate(3 427.074 53.252)" fill="#ED5F27"/>
<path d="M554.985 185.012C552.17 238.713 495.893 281.389 426.726 277.764C357.559 274.139 306.051 225.814 308.865 172.113C311.679 118.412 367.957 75.7362 437.124 79.361C506.291 82.9859 557.799 131.311 554.985 185.012Z" fill="#F87B52" stroke="#ED5F27" stroke-width="12"/>
<path d="M517.029 183.023C514.115 238.613 472.735 280.176 426.184 277.736C379.633 275.296 342.824 229.636 345.737 174.046C348.651 118.455 390.031 76.8932 436.582 79.3329C483.133 81.7725 519.942 127.432 517.029 183.023Z" fill="#F87B52" stroke="#ED5F27" stroke-width="12"/>
<path d="M467.686 180.437C466.193 208.919 460.233 234.186 452.023 251.974C447.91 260.885 443.366 267.628 438.791 271.99C434.229 276.34 430.076 277.94 426.455 277.75C422.834 277.56 418.872 275.535 414.789 270.732C410.695 265.916 406.881 258.734 403.722 249.443C397.416 230.894 394.13 205.142 395.623 176.66C397.116 148.178 403.075 122.911 411.285 105.123C415.398 96.2124 419.942 89.469 424.517 85.107C429.08 80.7568 433.232 79.1572 436.853 79.3469C440.474 79.5367 444.437 81.5616 448.52 86.3649C452.613 91.1812 456.428 98.3627 459.587 107.654C465.892 126.203 469.178 151.955 467.686 180.437Z" fill="#F87B52" stroke="#ED5F27" stroke-width="12"/>
<path d="M182.747 288.597L143.727 270.314L142.608 272.041C143.61 272.929 144.964 274.118 146.565 275.497C150.105 278.548 154.829 282.514 159.603 286.209C164.414 289.932 169.135 293.27 172.702 295.152C174.045 295.861 175.049 296.266 175.732 296.458C177.045 292.448 179.962 290.03 182.747 288.597ZM176.503 296.595C176.503 296.595 176.498 296.595 176.489 296.596C176.499 296.596 176.503 296.595 176.503 296.595Z" fill="#F87B52" stroke="#ED5F27" stroke-width="6"/>
<path d="M130.032 216.48C122.811 218.761 128.445 251.471 140.378 267.569" stroke="#ED5F27" stroke-width="13"/>
<circle cx="142.101" cy="269.175" r="5.68765" transform="rotate(-15.4728 142.101 269.175)" fill="#F87B52" stroke="#ED5F27" stroke-width="6"/>
<rect x="122.557" y="22.3081" width="41.8093" height="20.6332" rx="5" transform="rotate(3 122.557 22.3081)" fill="#ED5F27"/>
<rect x="140.822" y="7.98242" width="7" height="9" transform="rotate(3 140.822 7.98242)" fill="#ED5F27"/>
<rect x="133.258" y="15.2568" width="21.7191" height="10.8596" rx="5" transform="rotate(3 133.258 15.2568)" fill="#ED5F27"/>
<path d="M261.168 147.017C258.354 200.718 202.077 243.394 132.91 239.769C63.7425 236.144 12.2343 187.819 15.0487 134.118C17.863 80.4174 74.1404 37.741 143.307 41.3659C212.475 44.9908 263.983 93.316 261.168 147.017Z" fill="#F87B52" stroke="#ED5F27" stroke-width="12"/>
<path d="M223.212 145.027C220.298 200.618 178.918 242.18 132.367 239.74C85.8158 237.301 49.0069 191.641 51.9202 136.05C54.8336 80.4599 96.2136 38.8976 142.765 41.3373C189.316 43.7769 226.125 89.4369 223.212 145.027Z" fill="#F87B52" stroke="#ED5F27" stroke-width="12"/>
<path d="M173.869 142.441C172.376 170.923 166.416 196.191 158.206 213.979C154.094 222.889 149.549 229.633 144.975 233.994C140.412 238.345 136.259 239.944 132.638 239.755C129.018 239.565 125.055 237.54 120.972 232.737C116.878 227.92 113.064 220.739 109.905 211.447C103.599 192.899 100.313 167.147 101.806 138.665C103.299 110.183 109.258 84.915 117.468 67.1271C121.581 58.2168 126.125 51.4734 130.7 47.1114C135.263 42.7612 139.415 41.1616 143.036 41.3513C146.657 41.5411 150.62 43.566 154.703 48.3693C158.797 53.1856 162.611 60.3671 165.77 69.6585C172.075 88.2071 175.361 113.959 173.869 142.441Z" fill="#F87B52" stroke="#ED5F27" stroke-width="12"/>
<path d="M774.551 424.578C774.187 418.135 773.509 412.445 772.269 406.919C770.58 399.391 767.873 392.273 763.623 384.014L768.123 382.08C768.239 382.17 768.372 382.279 768.525 382.411C769.488 383.246 770.775 384.615 772.262 386.433C775.217 390.045 778.695 395.095 781.612 400.294C784.562 405.554 786.778 410.687 787.447 414.522C787.786 416.458 787.66 417.69 787.382 418.371C787.195 418.831 786.907 419.186 786.004 419.375C780.809 420.46 777.131 422.382 774.551 424.578ZM767.629 381.742C767.542 381.71 767.533 381.693 767.622 381.738C767.624 381.739 767.626 381.741 767.629 381.742Z" fill="#F8DC7A" stroke="#F8C04E" stroke-width="6"/>
<path d="M753.32 329.086C751.669 331.259 763.112 363.871 763.672 380.203" stroke="#F8C04E" stroke-width="13"/>
<circle cx="764.604" cy="380.541" r="5.69236" transform="rotate(16.5502 764.604 380.541)" fill="#F8DC7A" stroke="#F8C04E" stroke-width="6"/>
<rect x="740.652" y="134.238" width="41.832" height="20.6444" rx="5" transform="rotate(3 740.652 134.238)" fill="#F8C04E"/>
<rect x="761.947" y="60.9785" width="7" height="68" transform="rotate(3 761.947 60.9785)" fill="#F8C04E"/>
<rect x="751.358" y="127.184" width="21.7309" height="10.8654" rx="5" transform="rotate(3 751.358 127.184)" fill="#F8C04E"/>
<path d="M879.341 259.015C876.525 312.747 820.215 355.447 751.01 351.82C681.804 348.194 630.266 299.841 633.082 246.109C635.898 192.376 692.208 149.676 761.414 153.303C830.619 156.93 882.157 205.282 879.341 259.015Z" fill="#F8DC7A" stroke="#F8C04E" stroke-width="12"/>
<path d="M841.364 257.025C838.449 312.647 797.046 354.233 750.467 351.792C703.888 349.351 667.058 303.664 669.973 248.042C672.888 192.42 714.292 150.834 760.871 153.275C807.449 155.716 844.279 201.403 841.364 257.025Z" fill="#F8DC7A" stroke="#F8C04E" stroke-width="12"/>
<path d="M791.995 254.437C790.501 282.935 784.538 308.217 776.323 326.015C772.209 334.93 767.662 341.678 763.084 346.042C758.518 350.395 754.363 351.996 750.739 351.806C747.115 351.616 743.149 349.59 739.064 344.783C734.967 339.964 731.15 332.778 727.99 323.482C721.681 304.922 718.393 279.156 719.886 250.658C721.38 222.16 727.343 196.879 735.558 179.081C739.673 170.165 744.22 163.418 748.797 159.053C753.363 154.7 757.519 153.099 761.143 153.289C764.767 153.479 768.732 155.506 772.818 160.312C776.914 165.131 780.731 172.317 783.891 181.614C790.201 200.173 793.488 225.939 791.995 254.437Z" fill="#F8DC7A" stroke="#F8C04E" stroke-width="12"/>
<path d="M1387.56 328.845L1414.3 293.558L1418.63 295.734C1418.28 297.049 1417.78 298.855 1417.17 300.977C1415.86 305.494 1414.04 311.412 1411.95 317.075C1409.85 322.798 1407.57 328.035 1405.38 331.331C1404.27 333.015 1403.41 333.83 1402.9 334.113C1397.88 329.697 1392 328.748 1387.56 328.845ZM1402.75 334.185C1402.75 334.185 1402.75 334.185 1402.75 334.184C1402.75 334.185 1402.75 334.185 1402.75 334.185Z" fill="#F8DC7A" stroke="#F8C04E" stroke-width="6"/>
<path d="M1406.11 239.269C1407.35 240.287 1419.83 271.998 1416.46 290.394" stroke="#F8C04E" stroke-width="13"/>
<circle cx="1416.37" cy="291.174" r="5.69372" transform="rotate(-15.4728 1416.37 291.174)" fill="#F8DC7A" stroke="#F8C04E" stroke-width="6"/>
<rect x="1399.3" y="48.3145" width="41.8385" height="20.6476" rx="5" transform="rotate(3 1399.3 48.3145)" fill="#F8C04E"/>
<rect x="1418.85" y="8.00488" width="7" height="34" transform="rotate(3 1418.85 8.00488)" fill="#F8C04E"/>
<rect x="1410.01" y="41.2583" width="21.7343" height="10.8672" rx="5" transform="rotate(3 1410.01 41.2583)" fill="#F8C04E"/>
<path d="M1538.01 173.111C1535.2 226.852 1478.88 269.559 1409.66 265.932C1340.44 262.304 1288.9 213.944 1291.71 160.202C1294.53 106.461 1350.85 63.7539 1420.07 67.3814C1489.28 71.0089 1540.83 119.369 1538.01 173.111Z" fill="#F8DC7A" stroke="#F8C04E" stroke-width="12"/>
<path d="M1500.03 171.12C1497.12 226.751 1455.7 268.345 1409.12 265.903C1362.53 263.462 1325.7 217.767 1328.61 162.136C1331.53 106.505 1372.94 64.9113 1419.52 67.3528C1466.11 69.7943 1502.95 115.489 1500.03 171.12Z" fill="#F8DC7A" stroke="#F8C04E" stroke-width="12"/>
<path d="M1450.65 168.532C1449.16 197.034 1443.2 222.32 1434.98 240.121C1430.86 249.038 1426.32 255.787 1421.74 260.152C1417.17 264.506 1413.01 266.107 1409.39 265.917C1405.76 265.727 1401.8 263.7 1397.71 258.893C1393.61 254.073 1389.8 246.886 1386.64 237.588C1380.33 219.025 1377.04 193.255 1378.53 164.752C1380.03 136.25 1385.99 110.964 1394.21 93.1633C1398.32 84.2465 1402.87 77.4978 1407.45 73.1323C1412.01 68.7785 1416.17 67.1771 1419.8 67.367C1423.42 67.557 1427.39 69.5842 1431.47 74.3914C1435.57 79.2116 1439.39 86.3986 1442.55 95.6968C1448.86 114.259 1452.15 140.03 1450.65 168.532Z" fill="#F8DC7A" stroke="#F8C04E" stroke-width="12"/>
<path d="M1119.92 375.342C1115.3 378.136 1112.12 381.221 1109.94 384.22C1108.85 378.33 1107.17 373.239 1104.56 368.632C1100.61 361.664 1094.69 356.074 1086.09 350.46L1090.77 346.173C1090.95 346.232 1091.17 346.309 1091.42 346.409C1092.68 346.902 1094.43 347.771 1096.5 348.968C1100.61 351.349 1105.71 354.846 1110.25 358.674C1114.87 362.557 1118.63 366.546 1120.41 369.874C1121.3 371.536 1121.51 372.7 1121.42 373.437C1121.35 373.994 1121.07 374.646 1119.92 375.342ZM1090.14 346.008C1090.13 346.008 1090.13 346.008 1090.13 346.008C1090.13 346.008 1090.13 346.008 1090.14 346.008Z" fill="#F87B52" stroke="#ED5F27" stroke-width="6"/>
<path d="M1078.43 291.396C1071.22 293.673 1076.85 326.313 1088.75 342.377" stroke="#ED5F27" stroke-width="13"/>
<circle cx="1090.47" cy="343.979" r="5.6693" transform="rotate(-15.4728 1090.47 343.979)" fill="#F87B52" stroke="#ED5F27" stroke-width="6"/>
<rect x="1071.88" y="98.252" width="41.721" height="20.5896" rx="5" transform="rotate(3 1071.88 98.252)" fill="#ED5F27"/>
<rect x="1092.15" y="50.0317" width="7" height="43" transform="rotate(3 1092.15 50.0317)" fill="#ED5F27"/>
<rect x="1082.56" y="91.2158" width="21.6732" height="10.8366" rx="5" transform="rotate(3 1082.56 91.2158)" fill="#ED5F27"/>
<path d="M1210.18 222.696C1207.38 276.274 1151.23 318.858 1082.21 315.241C1013.19 311.624 961.801 263.404 964.609 209.826C967.417 156.248 1023.57 113.665 1092.58 117.282C1161.6 120.899 1212.99 169.118 1210.18 222.696Z" fill="#F87B52" stroke="#ED5F27" stroke-width="12"/>
<path d="M1172.31 220.712C1169.4 276.179 1128.11 317.647 1081.67 315.213C1035.22 312.779 998.496 267.223 1001.4 211.755C1004.31 156.287 1045.6 114.82 1092.04 117.254C1138.49 119.688 1175.21 165.244 1172.31 220.712Z" fill="#F87B52" stroke="#ED5F27" stroke-width="12"/>
<path d="M1123.07 218.131C1121.58 246.552 1115.63 271.764 1107.44 289.513C1103.34 298.403 1098.8 305.131 1094.24 309.482C1089.69 313.822 1085.55 315.416 1081.94 315.227C1078.33 315.038 1074.38 313.02 1070.31 308.228C1066.22 303.424 1062.42 296.259 1059.26 286.988C1052.97 268.481 1049.69 242.784 1051.18 214.364C1052.67 185.943 1058.62 160.731 1066.81 142.982C1070.92 134.091 1075.45 127.364 1080.01 123.012C1084.56 118.673 1088.7 117.079 1092.31 117.268C1095.92 117.457 1099.87 119.475 1103.95 124.267C1108.03 129.071 1111.84 136.236 1114.99 145.507C1121.28 164.014 1124.56 189.71 1123.07 218.131Z" fill="#F87B52" stroke="#ED5F27" stroke-width="12"/>
<path d="M126.034 5C639.424 77.4427 923.348 79.2186 1422.03 5" stroke="black" stroke-width="10"/>
</svg>
