<svg width="1536" height="436" viewBox="0 0 1536 436" fill="none" xmlns="http://www.w3.org/2000/svg">
<path d="M472.414 327.134L434.985 305.783L433.731 307.415C434.659 308.38 435.914 309.673 437.399 311.177C440.682 314.501 445.074 318.834 449.536 322.899C454.033 326.996 458.472 330.702 461.876 332.863C463.158 333.677 464.126 334.162 464.791 334.408C466.422 330.516 469.523 328.339 472.414 327.134ZM465.549 334.606C465.549 334.606 465.544 334.606 465.535 334.606C465.545 334.606 465.549 334.606 465.549 334.606Z" fill="#F87B52" stroke="#ED5F27" stroke-width="6"/>
<path d="M423.75 251.847C416.42 253.748 420.334 286.707 431.409 303.407" stroke="#ED5F27" stroke-width="13"/>
<rect x="401.51" y="61.2622" width="41.8093" height="20.6332" rx="5" fill="#ED5F27"/>
<rect x="418.885" y="39" width="7.05871" height="16.2893" fill="#ED5F27"/>
<rect x="411.826" y="53.6606" width="21.7191" height="10.8596" rx="5" fill="#ED5F27"/>
<path d="M546.458 178.545C546.458 232.32 492.491 277.883 423.229 277.883C353.967 277.883 300 232.32 300 178.545C300 124.771 353.967 79.2075 423.229 79.2075C492.491 79.2075 546.458 124.771 546.458 178.545Z" fill="#F87B52" stroke="#ED5F27" stroke-width="12"/>
<path d="M508.449 178.545C508.449 234.212 469.301 277.883 422.686 277.883C376.07 277.883 336.922 234.212 336.922 178.545C336.922 122.878 376.07 79.2075 422.686 79.2075C469.301 79.2075 508.449 122.878 508.449 178.545Z" fill="#F87B52" stroke="#ED5F27" stroke-width="12"/>
<path d="M459.038 178.545C459.038 207.066 454.409 232.611 447.141 250.804C443.5 259.918 439.315 266.89 434.975 271.485C430.646 276.068 426.583 277.883 422.957 277.883C419.331 277.883 415.268 276.068 410.939 271.485C406.599 266.89 402.414 259.918 398.773 250.804C391.506 232.611 386.876 207.066 386.876 178.545C386.876 150.024 391.506 124.479 398.773 106.286C402.414 97.1728 406.599 90.2007 410.939 85.6053C415.268 81.0223 419.331 79.2075 422.957 79.2075C426.583 79.2075 430.646 81.0223 434.975 85.6053C439.315 90.2007 443.5 97.1728 447.141 106.286C454.409 124.479 459.038 150.024 459.038 178.545Z" fill="#F87B52" stroke="#ED5F27" stroke-width="12"/>
<circle cx="433.044" cy="305.101" r="5.68765" transform="rotate(-12.4728 433.044 305.101)" fill="#F87B52" stroke="#ED5F27" stroke-width="6"/>
<path d="M178.414 289.134L140.985 267.783L139.731 269.415C140.659 270.38 141.914 271.673 143.399 273.177C146.682 276.501 151.074 280.834 155.536 284.899C160.033 288.996 164.472 292.702 167.876 294.863C169.158 295.677 170.126 296.162 170.791 296.408C172.422 292.516 175.523 290.339 178.414 289.134ZM171.549 296.606C171.549 296.606 171.544 296.606 171.535 296.606C171.545 296.606 171.549 296.606 171.549 296.606Z" fill="#F87B52" stroke="#ED5F27" stroke-width="6"/>
<path d="M129.75 213.847C122.42 215.748 126.334 248.707 137.409 265.407" stroke="#ED5F27" stroke-width="13"/>
<rect x="107.51" y="23.2622" width="41.8093" height="20.6332" rx="5" fill="#ED5F27"/>
<rect x="125" y="8" width="7" height="9" fill="#ED5F27"/>
<rect x="117.826" y="15.6606" width="21.7191" height="10.8596" rx="5" fill="#ED5F27"/>
<path d="M252.458 140.545C252.458 194.32 198.491 239.883 129.229 239.883C59.9668 239.883 6 194.32 6 140.545C6 86.7707 59.9668 41.2075 129.229 41.2075C198.491 41.2075 252.458 86.7707 252.458 140.545Z" fill="#F87B52" stroke="#ED5F27" stroke-width="12"/>
<path d="M214.449 140.545C214.449 196.212 175.301 239.883 128.686 239.883C82.0705 239.883 42.9224 196.212 42.9224 140.545C42.9224 84.8785 82.0705 41.2075 128.686 41.2075C175.301 41.2075 214.449 84.8785 214.449 140.545Z" fill="#F87B52" stroke="#ED5F27" stroke-width="12"/>
<path d="M165.038 140.545C165.038 169.066 160.409 194.611 153.141 212.804C149.5 221.918 145.315 228.89 140.975 233.485C136.646 238.068 132.583 239.883 128.957 239.883C125.331 239.883 121.268 238.068 116.939 233.485C112.599 228.89 108.414 221.918 104.773 212.804C97.5056 194.611 92.8765 169.066 92.8765 140.545C92.8765 112.024 97.5056 86.4792 104.773 68.2861C108.414 59.1728 112.599 52.2007 116.939 47.6053C121.268 43.0223 125.331 41.2075 128.957 41.2075C132.583 41.2075 136.646 43.0223 140.975 47.6053C145.315 52.2007 149.5 59.1728 153.141 68.2861C160.409 86.4792 165.038 112.024 165.038 140.545Z" fill="#F87B52" stroke="#ED5F27" stroke-width="12"/>
<circle cx="139.044" cy="267.101" r="5.68765" transform="rotate(-12.4728 139.044 267.101)" fill="#F87B52" stroke="#ED5F27" stroke-width="6"/>
<path d="M764.795 424.595C764.746 418.142 764.347 412.426 763.379 406.846C762.06 399.244 759.703 392.003 755.861 383.546L760.451 381.835C760.562 381.93 760.69 382.046 760.836 382.185C761.758 383.066 762.975 384.496 764.373 386.385C767.148 390.137 770.375 395.35 773.034 400.686C775.723 406.083 777.686 411.318 778.167 415.182C778.41 417.132 778.225 418.356 777.914 419.023C777.705 419.473 777.4 419.814 776.489 419.958C771.247 420.789 767.479 422.528 764.795 424.595ZM759.974 381.472C759.889 381.437 759.881 381.419 759.967 381.469C759.969 381.47 759.971 381.471 759.974 381.472Z" fill="#F8DC7A" stroke="#F8C04E" stroke-width="6"/>
<path d="M748.524 328.125C746.763 330.208 756.483 363.374 756.187 379.713" stroke="#F8C04E" stroke-width="13"/>
<rect x="728.568" y="135.274" width="41.832" height="20.6444" rx="5" fill="#F8C04E"/>
<rect x="746" y="61" width="7" height="68" fill="#F8C04E"/>
<rect x="738.891" y="127.668" width="21.7309" height="10.8654" rx="5" fill="#F8C04E"/>
<path d="M873.598 252.621C873.598 306.427 819.6 352.016 750.299 352.016C680.998 352.016 627 306.427 627 252.621C627 198.815 680.998 153.226 750.299 153.226C819.6 153.226 873.598 198.815 873.598 252.621Z" fill="#F8DC7A" stroke="#F8C04E" stroke-width="12"/>
<path d="M835.568 252.621C835.568 308.319 796.398 352.016 749.755 352.016C703.113 352.016 663.942 308.319 663.942 252.621C663.942 196.923 703.113 153.226 749.755 153.226C796.398 153.226 835.568 196.923 835.568 252.621Z" fill="#F8DC7A" stroke="#F8C04E" stroke-width="12"/>
<path d="M786.131 252.621C786.131 281.158 781.499 306.717 774.227 324.92C770.585 334.039 766.397 341.015 762.054 345.613C757.723 350.199 753.656 352.016 750.027 352.016C746.398 352.016 742.332 350.199 738.001 345.613C733.658 341.015 729.47 334.039 725.828 324.92C718.556 306.717 713.924 281.158 713.924 252.621C713.924 224.084 718.556 198.525 725.828 180.321C729.47 171.203 733.658 164.227 738.001 159.628C742.332 155.042 746.398 153.226 750.027 153.226C753.656 153.226 757.723 155.042 762.054 159.628C766.397 164.227 770.585 171.203 774.227 180.321C781.499 198.525 786.131 224.084 786.131 252.621Z" fill="#F8DC7A" stroke="#F8C04E" stroke-width="12"/>
<circle cx="757.1" cy="380.1" r="5.69236" transform="rotate(19.5502 757.1 380.1)" fill="#F8DC7A" stroke="#F8C04E" stroke-width="6"/>
<path d="M1383.22 327.943L1412.82 295.019L1416.95 297.551C1416.49 298.832 1415.84 300.59 1415.05 302.653C1413.37 307.045 1411.06 312.789 1408.51 318.258C1405.94 323.785 1403.22 328.812 1400.77 331.913C1399.52 333.498 1398.59 334.238 1398.06 334.478C1393.43 329.656 1387.65 328.219 1383.22 327.943ZM1397.9 334.537C1397.9 334.537 1397.9 334.536 1397.91 334.536C1397.9 334.537 1397.9 334.537 1397.9 334.537Z" fill="#F8DC7A" stroke="#F8C04E" stroke-width="6"/>
<path d="M1406.84 239.996C1408.03 241.077 1418.83 273.397 1414.5 291.592" stroke="#F8C04E" stroke-width="13"/>
<rect x="1384.58" y="49.2778" width="41.8385" height="20.6476" rx="5" fill="#F8C04E"/>
<rect x="1402" y="8" width="7" height="34" fill="#F8C04E"/>
<rect x="1394.91" y="41.6709" width="21.7343" height="10.8672" rx="5" fill="#F8C04E"/>
<path d="M1529.64 166.643C1529.64 220.458 1475.63 266.054 1406.32 266.054C1337.01 266.054 1283 220.458 1283 166.643C1283 112.828 1337.01 67.2314 1406.32 67.2314C1475.63 67.2314 1529.64 112.828 1529.64 166.643Z" fill="#F8DC7A" stroke="#F8C04E" stroke-width="12"/>
<path d="M1491.6 166.643C1491.6 222.35 1452.43 266.054 1405.78 266.054C1359.13 266.054 1319.95 222.35 1319.95 166.643C1319.95 110.935 1359.13 67.2314 1405.78 67.2314C1452.43 67.2314 1491.6 110.935 1491.6 166.643Z" fill="#F8DC7A" stroke="#F8C04E" stroke-width="12"/>
<path d="M1442.16 166.643C1442.16 195.184 1437.53 220.748 1430.25 238.954C1426.61 248.074 1422.42 255.051 1418.08 259.651C1413.74 264.237 1409.68 266.054 1406.05 266.054C1402.42 266.054 1398.35 264.237 1394.02 259.651C1389.67 255.051 1385.49 248.074 1381.84 238.954C1374.57 220.748 1369.94 195.184 1369.94 166.643C1369.94 138.101 1374.57 112.538 1381.84 94.3316C1385.49 85.2116 1389.67 78.2341 1394.02 73.635C1398.35 69.0483 1402.42 67.2314 1406.05 67.2314C1409.68 67.2314 1413.74 69.0483 1418.08 73.635C1422.42 78.2341 1426.61 85.2116 1430.25 94.3316C1437.53 112.538 1442.16 138.101 1442.16 166.643Z" fill="#F8DC7A" stroke="#F8C04E" stroke-width="12"/>
<circle cx="1414.37" cy="292.366" r="5.69372" transform="rotate(-12.4728 1414.37 292.366)" fill="#F8DC7A" stroke="#F8C04E" stroke-width="6"/>
<path d="M1115.07 377.873C1109.98 379.689 1106.25 382.077 1103.52 384.583C1103.62 378.593 1102.99 373.27 1101.35 368.236C1098.88 360.62 1094.19 353.962 1086.88 346.746L1092.32 343.479C1092.49 343.572 1092.68 343.691 1092.91 343.839C1094.05 344.573 1095.58 345.773 1097.37 347.358C1100.93 350.513 1105.22 354.955 1108.92 359.612C1112.66 364.337 1115.56 368.996 1116.64 372.613C1117.18 374.418 1117.15 375.601 1116.91 376.305C1116.73 376.836 1116.34 377.42 1115.07 377.873ZM1091.73 343.19C1091.73 343.189 1091.72 343.189 1091.72 343.189C1091.72 343.189 1091.73 343.189 1091.73 343.19Z" fill="#F87B52" stroke="#ED5F27" stroke-width="6"/>
<path d="M1079.48 289.398C1072.16 291.294 1076.07 324.184 1087.12 340.849" stroke="#ED5F27" stroke-width="13"/>
<rect x="1057.28" y="99.2148" width="41.721" height="20.5896" rx="5" fill="#ED5F27"/>
<rect x="1075" y="50" width="7" height="43" fill="#ED5F27"/>
<rect x="1067.58" y="91.6294" width="21.6732" height="10.8366" rx="5" fill="#ED5F27"/>
<path d="M1201.91 216.25C1201.91 269.902 1148.07 315.366 1078.96 315.366C1009.84 315.366 956 269.902 956 216.25C956 162.599 1009.84 117.135 1078.96 117.135C1148.07 117.135 1201.91 162.599 1201.91 216.25Z" fill="#F87B52" stroke="#ED5F27" stroke-width="12"/>
<path d="M1163.98 216.25C1163.98 271.794 1124.92 315.366 1078.41 315.366C1031.91 315.366 992.845 271.794 992.845 216.25C992.845 160.707 1031.91 117.135 1078.41 117.135C1124.92 117.135 1163.98 160.707 1163.98 216.25Z" fill="#F87B52" stroke="#ED5F27" stroke-width="12"/>
<path d="M1114.68 216.25C1114.68 244.71 1110.06 270.199 1102.81 288.352C1099.17 297.446 1095 304.401 1090.67 308.985C1086.35 313.557 1082.3 315.366 1078.68 315.366C1075.07 315.366 1071.02 313.557 1066.7 308.985C1062.37 304.401 1058.2 297.446 1054.56 288.352C1047.31 270.199 1042.69 244.71 1042.69 216.25C1042.69 187.791 1047.31 162.302 1054.56 144.149C1058.2 135.055 1062.37 128.1 1066.7 123.516C1071.02 118.944 1075.07 117.135 1078.68 117.135C1082.3 117.135 1086.35 118.944 1090.67 123.516C1095 128.1 1099.17 135.055 1102.81 144.149C1110.06 162.302 1114.68 187.791 1114.68 216.25Z" fill="#F87B52" stroke="#ED5F27" stroke-width="12"/>
<circle cx="1088.75" cy="342.539" r="5.6693" transform="rotate(-12.4728 1088.75 342.539)" fill="#F87B52" stroke="#ED5F27" stroke-width="6"/>
<path d="M118 5C631.39 77.4427 915.314 79.2186 1414 5" stroke="black" stroke-width="10"/>
</svg>
